M48
METRIC,TZ
T01C0.3810
T02C2.0000
T03C0.9650
%
T01
X-31813Y+27159
X-33515Y-14421
X-33515Y-12516
X-33515Y-10611
X-33515Y+4629
X-33515Y+2724
X-33515Y+819
X-33515Y+8439
X-33515Y+10344
X-33515Y+12249
X-33388Y-6166
X-31992Y+20078
X-29273Y+27159
X-26098Y+26854
X-32448Y+28759
X-26733Y+11614
X-26733Y+4629
X-24929Y-6103
X-20320Y+26975
X-22022Y-14605
X-22022Y-12700
X-22022Y-10795
X-22022Y+4445
X-22022Y+2540
X-22022Y+635
X-22022Y+8255
X-22022Y+10160
X-22022Y+12065
X-21895Y-6350
X-20499Y+19894
X-17780Y+26975
X-14605Y+26670
X-20955Y+28575
X-15240Y+11430
X-15240Y+4445
X-13436Y-6287
X-8890Y+26975
X-10592Y-14605
X-10592Y-12700
X-10592Y-10795
X-10592Y+4445
X-10592Y+2540
X-10592Y+635
X-10592Y+8255
X-10592Y+10160
X-10592Y+12065
X-10465Y-6350
X-9069Y+19894
X-6350Y+26975
X-3175Y+26670
X-9525Y+28575
X-3810Y+11430
X-3810Y+4445
X-2006Y-6287
X+2540Y+26975
X+838Y-14605
X+838Y-12700
X+838Y-10795
X+838Y+4445
X+838Y+2540
X+838Y+635
X+838Y+8255
X+838Y+10160
X+838Y+12065
X+965Y-6350
X+2361Y+19894
X+5080Y+26975
X+8255Y+26670
X+1905Y+28575
X+7620Y+11430
X+7620Y+4445
X+9424Y-6287
X+13970Y+26975
X+12268Y-14605
X+12268Y-12700
X+12268Y-10795
X+12268Y+4445
X+12268Y+2540
X+12268Y+635
X+12268Y+8255
X+12268Y+10160
X+12268Y+12065
X+12395Y-6350
X+13791Y+19894
X+16510Y+26975
X+19685Y+26670
X+13335Y+28575
X+19050Y+11430
X+19050Y+4445
X+20854Y-6287
X+25400Y+26975
X+23698Y-14605
X+23698Y-12700
X+23698Y-10795
X+23698Y+4445
X+23698Y+2540
X+23698Y+635
X+23698Y+8255
X+23698Y+10160
X+23698Y+12065
X+23825Y-6350
X+25221Y+19894
X+27940Y+26975
X+31115Y+26670
X+24765Y+28575
X+30480Y+11430
X+30480Y+4445
X+32284Y-6287
T02
X-32448Y+70669
X-32448Y-24581
X-20955Y+70485
X-20955Y-24765
X-9525Y+70485
X-9525Y-24765
X+1905Y+70485
X+1905Y-24765
X+13335Y+70485
X+13335Y-24765
X+24765Y+70485
X+24765Y-24765
T03
X-30543Y+54794
X-28003Y+54794
X-30543Y+57334
X-28003Y+57334
X-30543Y+59874
X-28003Y+59874
X-30543Y+62414
X-28003Y+62414
X-30543Y+64954
X-28003Y+64954
X-30543Y+30664
X-28003Y+30664
X-30543Y+33204
X-28003Y+33204
X-30543Y+35744
X-28003Y+35744
X-30543Y+38284
X-28003Y+38284
X-30543Y+40824
X-28003Y+40824
X-30543Y+43364
X-28003Y+43364
X-30543Y+45904
X-28003Y+45904
X-30543Y+48444
X-28003Y+48444
X-26733Y+21774
X-29273Y+21774
X-31813Y+21774
X-26733Y+14154
X-29273Y+14154
X-31813Y+14154
X-26733Y+6534
X-29273Y+6534
X-31813Y+6534
X-26733Y-1086
X-29273Y-1086
X-31813Y-1086
X-26733Y-8706
X-29273Y-8706
X-31813Y-8706
X-26733Y-16326
X-29273Y-16326
X-31813Y-16326
X-19050Y+54610
X-16510Y+54610
X-19050Y+57150
X-16510Y+57150
X-19050Y+59690
X-16510Y+59690
X-19050Y+62230
X-16510Y+62230
X-19050Y+64770
X-16510Y+64770
X-19050Y+30480
X-16510Y+30480
X-19050Y+33020
X-16510Y+33020
X-19050Y+35560
X-16510Y+35560
X-19050Y+38100
X-16510Y+38100
X-19050Y+40640
X-16510Y+40640
X-19050Y+43180
X-16510Y+43180
X-19050Y+45720
X-16510Y+45720
X-19050Y+48260
X-16510Y+48260
X-15240Y+21590
X-17780Y+21590
X-20320Y+21590
X-15240Y+13970
X-17780Y+13970
X-20320Y+13970
X-15240Y+6350
X-17780Y+6350
X-20320Y+6350
X-15240Y-1270
X-17780Y-1270
X-20320Y-1270
X-15240Y-8890
X-17780Y-8890
X-20320Y-8890
X-15240Y-16510
X-17780Y-16510
X-20320Y-16510
X-7620Y+54610
X-5080Y+54610
X-7620Y+57150
X-5080Y+57150
X-7620Y+59690
X-5080Y+59690
X-7620Y+62230
X-5080Y+62230
X-7620Y+64770
X-5080Y+64770
X-7620Y+30480
X-5080Y+30480
X-7620Y+33020
X-5080Y+33020
X-7620Y+35560
X-5080Y+35560
X-7620Y+38100
X-5080Y+38100
X-7620Y+40640
X-5080Y+40640
X-7620Y+43180
X-5080Y+43180
X-7620Y+45720
X-5080Y+45720
X-7620Y+48260
X-5080Y+48260
X-3810Y+21590
X-6350Y+21590
X-8890Y+21590
X-3810Y+13970
X-6350Y+13970
X-8890Y+13970
X-3810Y+6350
X-6350Y+6350
X-8890Y+6350
X-3810Y-1270
X-6350Y-1270
X-8890Y-1270
X-3810Y-8890
X-6350Y-8890
X-8890Y-8890
X-3810Y-16510
X-6350Y-16510
X-8890Y-16510
X+3810Y+54610
X+6350Y+54610
X+3810Y+57150
X+6350Y+57150
X+3810Y+59690
X+6350Y+59690
X+3810Y+62230
X+6350Y+62230
X+3810Y+64770
X+6350Y+64770
X+3810Y+30480
X+6350Y+30480
X+3810Y+33020
X+6350Y+33020
X+3810Y+35560
X+6350Y+35560
X+3810Y+38100
X+6350Y+38100
X+3810Y+40640
X+6350Y+40640
X+3810Y+43180
X+6350Y+43180
X+3810Y+45720
X+6350Y+45720
X+3810Y+48260
X+6350Y+48260
X+7620Y+21590
X+5080Y+21590
X+2540Y+21590
X+7620Y+13970
X+5080Y+13970
X+2540Y+13970
X+7620Y+6350
X+5080Y+6350
X+2540Y+6350
X+7620Y-1270
X+5080Y-1270
X+2540Y-1270
X+7620Y-8890
X+5080Y-8890
X+2540Y-8890
X+7620Y-16510
X+5080Y-16510
X+2540Y-16510
X+15240Y+54610
X+17780Y+54610
X+15240Y+57150
X+17780Y+57150
X+15240Y+59690
X+17780Y+59690
X+15240Y+62230
X+17780Y+62230
X+15240Y+64770
X+17780Y+64770
X+15240Y+30480
X+17780Y+30480
X+15240Y+33020
X+17780Y+33020
X+15240Y+35560
X+17780Y+35560
X+15240Y+38100
X+17780Y+38100
X+15240Y+40640
X+17780Y+40640
X+15240Y+43180
X+17780Y+43180
X+15240Y+45720
X+17780Y+45720
X+15240Y+48260
X+17780Y+48260
X+19050Y+21590
X+16510Y+21590
X+13970Y+21590
X+19050Y+13970
X+16510Y+13970
X+13970Y+13970
X+19050Y+6350
X+16510Y+6350
X+13970Y+6350
X+19050Y-1270
X+16510Y-1270
X+13970Y-1270
X+19050Y-8890
X+16510Y-8890
X+13970Y-8890
X+19050Y-16510
X+16510Y-16510
X+13970Y-16510
X+26670Y+54610
X+29210Y+54610
X+26670Y+57150
X+29210Y+57150
X+26670Y+59690
X+29210Y+59690
X+26670Y+62230
X+29210Y+62230
X+26670Y+64770
X+29210Y+64770
X+26670Y+30480
X+29210Y+30480
X+26670Y+33020
X+29210Y+33020
X+26670Y+35560
X+29210Y+35560
X+26670Y+38100
X+29210Y+38100
X+26670Y+40640
X+29210Y+40640
X+26670Y+43180
X+29210Y+43180
X+26670Y+45720
X+29210Y+45720
X+26670Y+48260
X+29210Y+48260
X+30480Y+21590
X+27940Y+21590
X+25400Y+21590
X+30480Y+13970
X+27940Y+13970
X+25400Y+13970
X+30480Y+6350
X+27940Y+6350
X+25400Y+6350
X+30480Y-1270
X+27940Y-1270
X+25400Y-1270
X+30480Y-8890
X+27940Y-8890
X+25400Y-8890
X+30480Y-16510
X+27940Y-16510
X+25400Y-16510
M30
