G04 PROTEUS GERBER X2 FILE*
%TF.GenerationSoftware,Labcenter,Proteus,8.5-SP0-Build22067*%
%TF.CreationDate,2018-03-12T21:06:28+00:00*%
%TF.FileFunction,AssemblyDrawing,Bot*%
%TF.FilePolarity,Positive*%
%TF.Part,Single*%
%FSLAX45Y45*%
%MOMM*%
G01*
%TA.AperFunction,Material*%
%ADD20C,0.203200*%
%ADD34C,0.533400*%
%ADD35C,0.164590*%
D36*
X+63500Y+6604000D02*
X+952500Y+6604000D01*
X+952500Y+9398000D01*
X+63500Y+9398000D01*
X+63500Y+6604000D01*
D37*
X+561340Y+8427720D02*
X+614680Y+8427720D01*
X+668020Y+8374380D01*
X+668020Y+8161020D01*
X+614680Y+8107680D01*
X+347980Y+8107680D01*
X+347980Y+7947660D02*
X+347980Y+7680960D01*
X+401320Y+7680960D01*
X+668020Y+7947660D01*
D20*
X+116840Y+5958840D02*
X+899160Y+5958840D01*
X+899160Y+6233160D01*
X+116840Y+6233160D01*
X+116840Y+5958840D01*
D35*
X+639673Y+6079540D02*
X+639673Y+6063081D01*
X+623214Y+6046622D01*
X+557378Y+6046622D01*
X+540919Y+6063081D01*
X+540919Y+6145377D01*
X+475082Y+6112459D02*
X+442164Y+6145377D01*
X+442164Y+6046622D01*
D20*
X+116840Y+4942840D02*
X+899160Y+4942840D01*
X+899160Y+5217160D01*
X+116840Y+5217160D01*
X+116840Y+4942840D01*
D35*
X+639673Y+5063540D02*
X+639673Y+5047081D01*
X+623214Y+5030622D01*
X+557378Y+5030622D01*
X+540919Y+5047081D01*
X+540919Y+5129377D01*
X+491541Y+5112918D02*
X+475082Y+5129377D01*
X+425705Y+5129377D01*
X+409246Y+5112918D01*
X+409246Y+5096459D01*
X+425705Y+5080000D01*
X+475082Y+5080000D01*
X+491541Y+5063540D01*
X+491541Y+5030622D01*
X+409246Y+5030622D01*
D20*
X+116840Y+3926840D02*
X+899160Y+3926840D01*
X+899160Y+4201160D01*
X+116840Y+4201160D01*
X+116840Y+3926840D01*
D35*
X+639673Y+4047540D02*
X+639673Y+4031081D01*
X+623214Y+4014622D01*
X+557378Y+4014622D01*
X+540919Y+4031081D01*
X+540919Y+4113377D01*
X+491541Y+4096918D02*
X+475082Y+4113377D01*
X+425705Y+4113377D01*
X+409246Y+4096918D01*
X+409246Y+4080459D01*
X+425705Y+4064000D01*
X+409246Y+4047540D01*
X+409246Y+4031081D01*
X+425705Y+4014622D01*
X+475082Y+4014622D01*
X+491541Y+4031081D01*
X+458623Y+4064000D02*
X+425705Y+4064000D01*
D20*
X+116840Y+2910840D02*
X+899160Y+2910840D01*
X+899160Y+3185160D01*
X+116840Y+3185160D01*
X+116840Y+2910840D01*
D35*
X+639673Y+3031540D02*
X+639673Y+3015081D01*
X+623214Y+2998622D01*
X+557378Y+2998622D01*
X+540919Y+3015081D01*
X+540919Y+3097377D01*
X+409246Y+3031540D02*
X+508000Y+3031540D01*
X+442164Y+3097377D01*
X+442164Y+2998622D01*
D20*
X+116840Y+1894840D02*
X+899160Y+1894840D01*
X+899160Y+2169160D01*
X+116840Y+2169160D01*
X+116840Y+1894840D01*
D35*
X+639673Y+2015540D02*
X+639673Y+1999081D01*
X+623214Y+1982622D01*
X+557378Y+1982622D01*
X+540919Y+1999081D01*
X+540919Y+2081377D01*
X+409246Y+2081377D02*
X+491541Y+2081377D01*
X+491541Y+2048459D01*
X+425705Y+2048459D01*
X+409246Y+2032000D01*
X+409246Y+1999081D01*
X+425705Y+1982622D01*
X+475082Y+1982622D01*
X+491541Y+1999081D01*
D20*
X+116840Y+878840D02*
X+899160Y+878840D01*
X+899160Y+1153160D01*
X+116840Y+1153160D01*
X+116840Y+878840D01*
D35*
X+639673Y+999540D02*
X+639673Y+983081D01*
X+623214Y+966622D01*
X+557378Y+966622D01*
X+540919Y+983081D01*
X+540919Y+1065377D01*
X+409246Y+1048918D02*
X+425705Y+1065377D01*
X+475082Y+1065377D01*
X+491541Y+1048918D01*
X+491541Y+983081D01*
X+475082Y+966622D01*
X+425705Y+966622D01*
X+409246Y+983081D01*
X+409246Y+999540D01*
X+425705Y+1016000D01*
X+491541Y+1016000D01*
M02*
