G04 PROTEUS RS274X GERBER FILE*
%FSLAX45Y45*%
%MOMM*%
G01*
%ADD13C,0.203200*%
D13*
X-3435294Y-2648588D02*
X-2419294Y-2648588D01*
X-2419294Y+7257412D01*
X-3435294Y+7257412D01*
X-3435294Y-2648588D01*
X-2419294Y-2648588D01*
X-2419294Y+7257412D01*
X-3435294Y+7257412D01*
X-3435294Y-2648588D01*
X-3435294Y-2648588D01*
X-2286000Y-2667000D02*
X-1270000Y-2667000D01*
X-1270000Y+7239000D01*
X-2286000Y+7239000D01*
X-2286000Y-2667000D01*
X-1270000Y-2667000D01*
X-1270000Y+7239000D01*
X-2286000Y+7239000D01*
X-2286000Y-2667000D01*
X-2286000Y-2667000D01*
X-1143000Y-2667000D02*
X-127000Y-2667000D01*
X-127000Y+7239000D01*
X-1143000Y+7239000D01*
X-1143000Y-2667000D01*
X-127000Y-2667000D01*
X-127000Y+7239000D01*
X-1143000Y+7239000D01*
X-1143000Y-2667000D01*
X-1143000Y-2667000D01*
X+0Y-2667000D02*
X+1016000Y-2667000D01*
X+1016000Y+7239000D01*
X+0Y+7239000D01*
X+0Y-2667000D01*
X+1016000Y-2667000D01*
X+1016000Y+7239000D01*
X+0Y+7239000D01*
X+0Y-2667000D01*
X+0Y-2667000D01*
X+1143000Y-2667000D02*
X+2159000Y-2667000D01*
X+2159000Y+7239000D01*
X+1143000Y+7239000D01*
X+1143000Y-2667000D01*
X+2159000Y-2667000D01*
X+2159000Y+7239000D01*
X+1143000Y+7239000D01*
X+1143000Y-2667000D01*
X+1143000Y-2667000D01*
X+2286000Y-2667000D02*
X+3302000Y-2667000D01*
X+3302000Y+7239000D01*
X+2286000Y+7239000D01*
X+2286000Y-2667000D01*
X+3302000Y-2667000D01*
X+3302000Y+7239000D01*
X+2286000Y+7239000D01*
X+2286000Y-2667000D01*
X+2286000Y-2667000D01*
X-5080000Y-3302000D02*
X+5080000Y-3302000D01*
X+5080000Y+7620000D01*
X-5080000Y+7620000D01*
X-5080000Y-3302000D01*
M02*
