G04 PROTEUS GERBER X2 FILE*
%TF.GenerationSoftware,Labcenter,Proteus,8.5-SP0-Build22067*%
%TF.CreationDate,2018-03-12T21:06:28+00:00*%
%TF.FileFunction,Copper,L1,Top*%
%TF.FilePolarity,Positive*%
%TF.Part,Single*%
%FSLAX45Y45*%
%MOMM*%
G01*
%TA.AperFunction,Conductor*%
%ADD10C,0.508000*%
%ADD11C,0.762000*%
%TA.AperFunction,ViaPad*%
%ADD12C,0.762000*%
%TA.AperFunction,Conductor*%
%ADD13C,0.254000*%
%TA.AperFunction,ComponentPad*%
%ADD14C,2.200000*%
%ADD15C,2.032000*%
%AMPPAD006*
4,1,36,
-0.393700,1.270000,
0.393700,1.270000,
0.456020,1.263940,
0.513660,1.246490,
0.565480,1.218770,
0.610390,1.181890,
0.647260,1.136980,
0.674980,1.085160,
0.692430,1.027520,
0.698500,0.965200,
0.698500,-0.965200,
0.692430,-1.027520,
0.674980,-1.085160,
0.647260,-1.136980,
0.610390,-1.181890,
0.565480,-1.218770,
0.513660,-1.246490,
0.456020,-1.263940,
0.393700,-1.270000,
-0.393700,-1.270000,
-0.456020,-1.263940,
-0.513660,-1.246490,
-0.565480,-1.218770,
-0.610390,-1.181890,
-0.647260,-1.136980,
-0.674980,-1.085160,
-0.692430,-1.027520,
-0.698500,-0.965200,
-0.698500,0.965200,
-0.692430,1.027520,
-0.674980,1.085160,
-0.647260,1.136980,
-0.610390,1.181890,
-0.565480,1.218770,
-0.513660,1.246490,
-0.456020,1.263940,
-0.393700,1.270000,
0*%
%ADD16PPAD006*%
%TA.AperFunction,SMDPad,CuDef*%
%ADD17R,1.300000X0.900000*%
%ADD18R,2.800000X1.000000*%
%ADD19R,1.300000X1.700000*%
%TA.AperFunction,FiducialPad,Global*%
%ADD70C,1.000000*%
G36*
X+977900Y+8953799D02*
X+786726Y+8953799D01*
X+698126Y+9042399D01*
X+571874Y+9042399D01*
X+508000Y+8978525D01*
X+444126Y+9042399D01*
X+317874Y+9042399D01*
X+229274Y+8953799D01*
X+38100Y+8953799D01*
X+38100Y+9867900D01*
X+412348Y+9867900D01*
X+332601Y+9788153D01*
X+332601Y+9642847D01*
X+435347Y+9540101D01*
X+580653Y+9540101D01*
X+683399Y+9642847D01*
X+683399Y+9788153D01*
X+603652Y+9867900D01*
X+977900Y+9867900D01*
X+977900Y+8953799D01*
G37*
%LPC*%
G36*
X+65100Y+9663558D02*
X+65100Y+9767442D01*
X+138558Y+9840900D01*
X+242442Y+9840900D01*
X+315900Y+9767442D01*
X+315900Y+9663558D01*
X+242442Y+9590100D01*
X+138558Y+9590100D01*
X+65100Y+9663558D01*
G37*
G36*
X+700100Y+9663558D02*
X+700100Y+9767442D01*
X+773558Y+9840900D01*
X+877442Y+9840900D01*
X+950900Y+9767442D01*
X+950900Y+9663558D01*
X+877442Y+9590100D01*
X+773558Y+9590100D01*
X+700100Y+9663558D01*
G37*
%LPD*%
G36*
X+977900Y+6854799D02*
X+872961Y+6854799D01*
X+733142Y+6994618D01*
X+787399Y+7048874D01*
X+787399Y+7175126D01*
X+723525Y+7239000D01*
X+787399Y+7302874D01*
X+787399Y+7429126D01*
X+723525Y+7493000D01*
X+787399Y+7556874D01*
X+787399Y+7683126D01*
X+723525Y+7747000D01*
X+787399Y+7810874D01*
X+787399Y+7937126D01*
X+723525Y+8001000D01*
X+787399Y+8064874D01*
X+787399Y+8191126D01*
X+723525Y+8255000D01*
X+787399Y+8318874D01*
X+787399Y+8445126D01*
X+723525Y+8509000D01*
X+786726Y+8572201D01*
X+812801Y+8572201D01*
X+812801Y+7034523D01*
X+800101Y+7021823D01*
X+800101Y+6948177D01*
X+852177Y+6896101D01*
X+925823Y+6896101D01*
X+977899Y+6948177D01*
X+977899Y+7021823D01*
X+965199Y+7034523D01*
X+965199Y+8572201D01*
X+977900Y+8572201D01*
X+977900Y+6854799D01*
G37*
G36*
X+177801Y+5556439D02*
X+177801Y+5444937D01*
X+217201Y+5405537D01*
X+217201Y+5389463D01*
X+177801Y+5350063D01*
X+177801Y+5257799D01*
X+133351Y+5257799D01*
X+133351Y+4902201D01*
X+374649Y+4902201D01*
X+374649Y+5257799D01*
X+330199Y+5257799D01*
X+330199Y+5261701D01*
X+448799Y+5261701D01*
X+448799Y+5282539D01*
X+473539Y+5257799D01*
X+387351Y+5257799D01*
X+387351Y+4902201D01*
X+476439Y+4902201D01*
X+469901Y+4895663D01*
X+469901Y+4629337D01*
X+526939Y+4572299D01*
X+457199Y+4572299D01*
X+457199Y+4603563D01*
X+434061Y+4626701D01*
X+448799Y+4626701D01*
X+448799Y+4898299D01*
X+217201Y+4898299D01*
X+217201Y+4626701D01*
X+256801Y+4626701D01*
X+256801Y+4588437D01*
X+272939Y+4572299D01*
X+138201Y+4572299D01*
X+138201Y+4241799D01*
X+133351Y+4241799D01*
X+133351Y+3886201D01*
X+138201Y+3886201D01*
X+138201Y+3225799D01*
X+133351Y+3225799D01*
X+133351Y+3124199D01*
X+95437Y+3124199D01*
X+38100Y+3066862D01*
X+38100Y+5696140D01*
X+177801Y+5556439D01*
G37*
G36*
X+876301Y+2209799D02*
X+641351Y+2209799D01*
X+641351Y+1854201D01*
X+876301Y+1854201D01*
X+876301Y+1524299D01*
X+743061Y+1524299D01*
X+759199Y+1540437D01*
X+759199Y+1578701D01*
X+798799Y+1578701D01*
X+798799Y+1850299D01*
X+567201Y+1850299D01*
X+567201Y+1578701D01*
X+581939Y+1578701D01*
X+558801Y+1555563D01*
X+558801Y+1524299D01*
X+392201Y+1524299D01*
X+392201Y+1193799D01*
X+387351Y+1193799D01*
X+387351Y+1104899D01*
X+374649Y+1104899D01*
X+374649Y+1193799D01*
X+369799Y+1193799D01*
X+369799Y+1524299D01*
X+138201Y+1524299D01*
X+138201Y+1193799D01*
X+133351Y+1193799D01*
X+133351Y+838201D01*
X+138201Y+838201D01*
X+138201Y+507701D01*
X+369799Y+507701D01*
X+369799Y+527301D01*
X+381063Y+527301D01*
X+392201Y+538439D01*
X+392201Y+507701D01*
X+623799Y+507701D01*
X+623799Y+527301D01*
X+635063Y+527301D01*
X+646201Y+538439D01*
X+646201Y+507701D01*
X+877799Y+507701D01*
X+877799Y+527301D01*
X+952563Y+527301D01*
X+977900Y+552638D01*
X+977900Y+38100D01*
X+603652Y+38100D01*
X+683399Y+117847D01*
X+683399Y+263153D01*
X+580653Y+365899D01*
X+435347Y+365899D01*
X+332601Y+263153D01*
X+332601Y+117847D01*
X+412348Y+38100D01*
X+38100Y+38100D01*
X+38100Y+2394138D01*
X+95437Y+2336801D01*
X+217201Y+2336801D01*
X+217201Y+2277201D01*
X+448799Y+2277201D01*
X+448799Y+2539701D01*
X+567201Y+2539701D01*
X+567201Y+2277201D01*
X+798799Y+2277201D01*
X+798799Y+2539701D01*
X+876301Y+2539701D01*
X+876301Y+2209799D01*
G37*
%LPC*%
G36*
X+65100Y+138558D02*
X+65100Y+242442D01*
X+138558Y+315900D01*
X+242442Y+315900D01*
X+315900Y+242442D01*
X+315900Y+138558D01*
X+242442Y+65100D01*
X+138558Y+65100D01*
X+65100Y+138558D01*
G37*
G36*
X+387351Y+2209799D02*
X+628649Y+2209799D01*
X+628649Y+1854201D01*
X+387351Y+1854201D01*
X+387351Y+2209799D01*
G37*
G36*
X+133351Y+2209799D02*
X+374649Y+2209799D01*
X+374649Y+1854201D01*
X+133351Y+1854201D01*
X+133351Y+2209799D01*
G37*
G36*
X+448799Y+1578701D02*
X+217201Y+1578701D01*
X+217201Y+1850299D01*
X+448799Y+1850299D01*
X+448799Y+1578701D01*
G37*
G36*
X+700100Y+138558D02*
X+700100Y+242442D01*
X+773558Y+315900D01*
X+877442Y+315900D01*
X+950900Y+242442D01*
X+950900Y+138558D01*
X+877442Y+65100D01*
X+773558Y+65100D01*
X+700100Y+138558D01*
G37*
%LPD*%
D10*
X+762000Y+1016000D02*
X+762000Y+1016000D01*
D11*
X+254000Y+1016000D02*
X+508000Y+1016000D01*
D10*
X+254000Y+3651500D02*
X+508000Y+3651500D01*
X+508000Y+3841500D02*
X+508000Y+4064000D01*
X+508000Y+4286500D01*
X+254000Y+4064000D02*
X+254000Y+4286500D01*
X+762000Y+4064000D02*
X+762000Y+4286500D01*
X+254000Y+3048000D02*
X+254000Y+3270500D01*
X+508000Y+3048000D02*
X+508000Y+3270500D01*
X+762000Y+3048000D02*
X+762000Y+3270500D01*
X+254000Y+2635500D02*
X+508000Y+2635500D01*
X+508000Y+2825500D02*
X+508000Y+3048000D01*
X+254000Y+1016000D02*
X+254000Y+1238500D01*
X+508000Y+1016000D02*
X+508000Y+1238500D01*
X+762000Y+1016000D02*
X+762000Y+1238500D01*
X+762000Y+793500D02*
X+762000Y+1016000D01*
X+762000Y+3841500D02*
X+762000Y+4064000D01*
X+762000Y+2825500D02*
X+762000Y+3048000D01*
X+508000Y+6754000D02*
X+508000Y+6858000D01*
X+444500Y+6921500D01*
X+317500Y+6921500D01*
X+190500Y+7048500D01*
X+190500Y+8064500D01*
X+254000Y+8128000D01*
X+381000Y+8128000D01*
X+381000Y+4572000D02*
X+333000Y+4620000D01*
X+333000Y+4762500D01*
X+254000Y+4064000D02*
X+317500Y+4064000D01*
X+381000Y+4127500D01*
X+381000Y+4572000D01*
X+254000Y+3048000D02*
X+127000Y+3048000D01*
X+63500Y+2984500D01*
X+63500Y+2476500D01*
X+127000Y+2413000D01*
X+333000Y+2413000D01*
X+333000Y+5778500D02*
X+254000Y+5857500D01*
X+254000Y+6096000D01*
D11*
X+508000Y+1016000D02*
X+635000Y+1016000D01*
X+762000Y+1016000D01*
D10*
X+254000Y+5080000D02*
X+254000Y+5318500D01*
X+333000Y+5397500D01*
X+508000Y+3460500D02*
X+254000Y+3460500D01*
X+762000Y+3460500D02*
X+508000Y+3460500D01*
X+683000Y+5397500D02*
X+683000Y+5778500D01*
X+683000Y+1714500D02*
X+683000Y+1572000D01*
X+635000Y+1524000D01*
X+635000Y+1016000D01*
X+762000Y+603500D02*
X+921000Y+603500D01*
X+952500Y+635000D01*
X+952500Y+6223000D01*
X+508000Y+6413500D02*
X+508000Y+6454000D01*
X+825500Y+5651500D02*
X+825500Y+5859011D01*
X+770291Y+5914220D01*
X+692784Y+5914220D01*
X+635000Y+5972004D01*
X+635000Y+6286500D01*
X+508000Y+6413500D01*
X+254000Y+603500D02*
X+349500Y+603500D01*
X+381000Y+635000D01*
X+381000Y+762000D01*
X+412500Y+793500D01*
X+508000Y+793500D01*
X+508000Y+603500D02*
X+603500Y+603500D01*
X+635000Y+635000D01*
X+635000Y+762000D01*
X+666500Y+793500D01*
X+762000Y+793500D01*
X+825500Y+6754000D02*
X+825500Y+6794500D01*
X+635000Y+6985000D01*
X+635000Y+7112000D01*
X+952500Y+6223000D02*
X+825500Y+6350000D01*
X+825500Y+6454000D01*
X+381000Y+8636000D02*
X+159000Y+8858000D01*
X+127000Y+8858000D01*
X+635000Y+8890000D02*
X+667000Y+8858000D01*
X+889000Y+8858000D01*
X+333000Y+5397500D02*
X+254000Y+5476500D01*
X+254000Y+5588000D01*
X+73621Y+5768379D01*
X+73621Y+6286500D01*
X+127000Y+8445500D02*
X+127000Y+8668000D01*
X+190500Y+6754000D02*
X+190500Y+6858001D01*
X+73621Y+6974880D01*
X+73621Y+8265121D01*
X+190500Y+8382000D01*
X+381000Y+8382000D01*
X+889000Y+6985000D02*
X+889000Y+8668000D01*
X+190500Y+6454000D02*
X+213500Y+6454000D01*
X+381000Y+6286500D01*
X+381000Y+5971147D01*
X+508000Y+5844147D01*
X+508000Y+5331098D01*
X+635000Y+5204098D01*
X+635000Y+4953000D01*
X+546100Y+4864100D01*
X+546100Y+4660900D01*
X+635000Y+4572000D01*
X+635000Y+3683000D01*
X+666500Y+3651500D01*
X+762000Y+3651500D01*
X+762000Y+4476500D02*
X+762000Y+4572000D01*
X+683000Y+4651000D01*
X+683000Y+4762500D01*
D12*
X+254000Y+793500D03*
X+254000Y+2825500D03*
X+683000Y+5778500D03*
X+683000Y+4762500D03*
X+762000Y+2635500D03*
X+825500Y+5651500D03*
X+73621Y+6286500D03*
X+127000Y+8445500D03*
X+889000Y+6985000D03*
X+254000Y+3841500D03*
D10*
X+977900Y+8953799D02*
X+786726Y+8953799D01*
X+698126Y+9042399D01*
X+571874Y+9042399D01*
X+508000Y+8978525D01*
X+444126Y+9042399D01*
X+317874Y+9042399D01*
X+229274Y+8953799D01*
X+38100Y+8953799D01*
X+38100Y+9867900D01*
X+412348Y+9867900D01*
X+332601Y+9788153D01*
X+332601Y+9642847D01*
X+435347Y+9540101D01*
X+580653Y+9540101D01*
X+683399Y+9642847D01*
X+683399Y+9788153D01*
X+603652Y+9867900D01*
X+977900Y+9867900D01*
X+977900Y+8953799D01*
X+65100Y+9663558D02*
X+65100Y+9767442D01*
X+138558Y+9840900D01*
X+242442Y+9840900D01*
X+315900Y+9767442D01*
X+315900Y+9663558D01*
X+242442Y+9590100D01*
X+138558Y+9590100D01*
X+65100Y+9663558D01*
X+700100Y+9663558D02*
X+700100Y+9767442D01*
X+773558Y+9840900D01*
X+877442Y+9840900D01*
X+950900Y+9767442D01*
X+950900Y+9663558D01*
X+877442Y+9590100D01*
X+773558Y+9590100D01*
X+700100Y+9663558D01*
X+977900Y+6854799D02*
X+872961Y+6854799D01*
X+733142Y+6994618D01*
X+787399Y+7048874D01*
X+787399Y+7175126D01*
X+723525Y+7239000D01*
X+787399Y+7302874D01*
X+787399Y+7429126D01*
X+723525Y+7493000D01*
X+787399Y+7556874D01*
X+787399Y+7683126D01*
X+723525Y+7747000D01*
X+787399Y+7810874D01*
X+787399Y+7937126D01*
X+723525Y+8001000D01*
X+787399Y+8064874D01*
X+787399Y+8191126D01*
X+723525Y+8255000D01*
X+787399Y+8318874D01*
X+787399Y+8445126D01*
X+723525Y+8509000D01*
X+786726Y+8572201D01*
X+812801Y+8572201D01*
X+812801Y+7034523D01*
X+800101Y+7021823D01*
X+800101Y+6948177D01*
X+852177Y+6896101D01*
X+925823Y+6896101D01*
X+977899Y+6948177D01*
X+977899Y+7021823D01*
X+965199Y+7034523D01*
X+965199Y+8572201D01*
X+977900Y+8572201D01*
X+977900Y+6854799D01*
X+177801Y+5556439D02*
X+177801Y+5444937D01*
X+217201Y+5405537D01*
X+217201Y+5389463D01*
X+177801Y+5350063D01*
X+177801Y+5257799D01*
X+133351Y+5257799D01*
X+133351Y+4902201D01*
X+374649Y+4902201D01*
X+374649Y+5257799D01*
X+330199Y+5257799D01*
X+330199Y+5261701D01*
X+448799Y+5261701D01*
X+448799Y+5282539D01*
X+473539Y+5257799D01*
X+387351Y+5257799D01*
X+387351Y+4902201D01*
X+476439Y+4902201D01*
X+469901Y+4895663D01*
X+469901Y+4629337D01*
X+526939Y+4572299D01*
X+457199Y+4572299D01*
X+457199Y+4603563D01*
X+434061Y+4626701D01*
X+448799Y+4626701D01*
X+448799Y+4898299D01*
X+217201Y+4898299D01*
X+217201Y+4626701D01*
X+256801Y+4626701D01*
X+256801Y+4588437D01*
X+272939Y+4572299D01*
X+138201Y+4572299D01*
X+138201Y+4241799D01*
X+133351Y+4241799D01*
X+133351Y+3886201D01*
X+138201Y+3886201D01*
X+138201Y+3225799D01*
X+133351Y+3225799D01*
X+133351Y+3124199D01*
X+95437Y+3124199D01*
X+38100Y+3066862D01*
X+38100Y+5696140D01*
X+177801Y+5556439D01*
X+876301Y+2209799D02*
X+641351Y+2209799D01*
X+641351Y+1854201D01*
X+876301Y+1854201D01*
X+876301Y+1524299D01*
X+743061Y+1524299D01*
X+759199Y+1540437D01*
X+759199Y+1578701D01*
X+798799Y+1578701D01*
X+798799Y+1850299D01*
X+567201Y+1850299D01*
X+567201Y+1578701D01*
X+581939Y+1578701D01*
X+558801Y+1555563D01*
X+558801Y+1524299D01*
X+392201Y+1524299D01*
X+392201Y+1193799D01*
X+387351Y+1193799D01*
X+387351Y+1104899D01*
X+374649Y+1104899D01*
X+374649Y+1193799D01*
X+369799Y+1193799D01*
X+369799Y+1524299D01*
X+138201Y+1524299D01*
X+138201Y+1193799D01*
X+133351Y+1193799D01*
X+133351Y+838201D01*
X+138201Y+838201D01*
X+138201Y+507701D01*
X+369799Y+507701D01*
X+369799Y+527301D01*
X+381063Y+527301D01*
X+392201Y+538439D01*
X+392201Y+507701D01*
X+623799Y+507701D01*
X+623799Y+527301D01*
X+635063Y+527301D01*
X+646201Y+538439D01*
X+646201Y+507701D01*
X+877799Y+507701D01*
X+877799Y+527301D01*
X+952563Y+527301D01*
X+977900Y+552638D01*
X+977900Y+38100D01*
X+603652Y+38100D01*
X+683399Y+117847D01*
X+683399Y+263153D01*
X+580653Y+365899D01*
X+435347Y+365899D01*
X+332601Y+263153D01*
X+332601Y+117847D01*
X+412348Y+38100D01*
X+38100Y+38100D01*
X+38100Y+2394138D01*
X+95437Y+2336801D01*
X+217201Y+2336801D01*
X+217201Y+2277201D01*
X+448799Y+2277201D01*
X+448799Y+2539701D01*
X+567201Y+2539701D01*
X+567201Y+2277201D01*
X+798799Y+2277201D01*
X+798799Y+2539701D01*
X+876301Y+2539701D01*
X+876301Y+2209799D01*
X+65100Y+138558D02*
X+65100Y+242442D01*
X+138558Y+315900D01*
X+242442Y+315900D01*
X+315900Y+242442D01*
X+315900Y+138558D01*
X+242442Y+65100D01*
X+138558Y+65100D01*
X+65100Y+138558D01*
X+387351Y+2209799D02*
X+628649Y+2209799D01*
X+628649Y+1854201D01*
X+387351Y+1854201D01*
X+387351Y+2209799D01*
X+133351Y+2209799D02*
X+374649Y+2209799D01*
X+374649Y+1854201D01*
X+133351Y+1854201D01*
X+133351Y+2209799D01*
X+448799Y+1578701D02*
X+217201Y+1578701D01*
X+217201Y+1850299D01*
X+448799Y+1850299D01*
X+448799Y+1578701D01*
X+700100Y+138558D02*
X+700100Y+242442D01*
X+773558Y+315900D01*
X+877442Y+315900D01*
X+950900Y+242442D01*
X+950900Y+138558D01*
X+877442Y+65100D01*
X+773558Y+65100D01*
X+700100Y+138558D01*
D13*
X+787399Y+7366000D02*
X+635000Y+7366000D01*
X+787399Y+7620000D02*
X+635000Y+7620000D01*
X+787399Y+7874000D02*
X+635000Y+7874000D01*
X+641351Y+2032000D02*
X+762000Y+2032000D01*
X+762000Y+1854201D02*
X+762000Y+2032000D01*
X+762000Y+2209799D02*
X+762000Y+2032000D01*
X+387351Y+2032000D02*
X+508000Y+2032000D01*
X+628649Y+2032000D02*
X+508000Y+2032000D01*
X+508000Y+1854201D02*
X+508000Y+2032000D01*
X+508000Y+2209799D02*
X+508000Y+2032000D01*
X+133351Y+2032000D02*
X+254000Y+2032000D01*
X+374649Y+2032000D02*
X+254000Y+2032000D01*
X+254000Y+1854201D02*
X+254000Y+2032000D01*
X+254000Y+2209799D02*
X+254000Y+2032000D01*
X+254000Y+4572299D02*
X+254000Y+4476500D01*
X+138201Y+4476500D02*
X+254000Y+4476500D01*
X+508000Y+4572299D02*
X+508000Y+4476500D01*
X+138201Y+3841500D02*
X+254000Y+3841500D01*
X+138201Y+3460500D02*
X+254000Y+3460500D01*
X+254000Y+1524299D02*
X+254000Y+1428500D01*
X+369799Y+1428500D02*
X+254000Y+1428500D01*
X+138201Y+1428500D02*
X+254000Y+1428500D01*
X+508000Y+1524299D02*
X+508000Y+1428500D01*
X+392201Y+1428500D02*
X+508000Y+1428500D01*
X+762000Y+1524299D02*
X+762000Y+1428500D01*
X+138201Y+793500D02*
X+254000Y+793500D01*
X+448799Y+1714500D02*
X+333000Y+1714500D01*
X+217201Y+1714500D02*
X+333000Y+1714500D01*
X+333000Y+1850299D02*
X+333000Y+1714500D01*
X+333000Y+1578701D02*
X+333000Y+1714500D01*
X+798799Y+2413000D02*
X+683000Y+2413000D01*
X+567201Y+2413000D02*
X+683000Y+2413000D01*
X+683000Y+2277201D02*
X+683000Y+2413000D01*
D14*
X+190500Y+9715500D03*
X+190500Y+190500D03*
D15*
X+381000Y+7112000D03*
X+635000Y+7112000D03*
X+381000Y+7366000D03*
X+635000Y+7366000D03*
X+381000Y+7620000D03*
X+635000Y+7620000D03*
X+381000Y+7874000D03*
X+635000Y+7874000D03*
X+381000Y+8128000D03*
X+635000Y+8128000D03*
X+381000Y+8382000D03*
X+635000Y+8382000D03*
X+381000Y+8636000D03*
X+635000Y+8636000D03*
X+381000Y+8890000D03*
X+635000Y+8890000D03*
D16*
X+762000Y+6096000D03*
X+508000Y+6096000D03*
X+254000Y+6096000D03*
X+762000Y+5080000D03*
X+508000Y+5080000D03*
X+254000Y+5080000D03*
X+762000Y+4064000D03*
X+508000Y+4064000D03*
X+254000Y+4064000D03*
X+762000Y+3048000D03*
X+508000Y+3048000D03*
X+254000Y+3048000D03*
X+762000Y+2032000D03*
X+508000Y+2032000D03*
X+254000Y+2032000D03*
X+762000Y+1016000D03*
X+508000Y+1016000D03*
X+254000Y+1016000D03*
D17*
X+254000Y+4286500D03*
X+254000Y+4476500D03*
X+508000Y+4286500D03*
X+508000Y+4476500D03*
X+762000Y+4286500D03*
X+762000Y+4476500D03*
X+508000Y+3841500D03*
X+508000Y+3651500D03*
X+254000Y+3651500D03*
X+254000Y+3841500D03*
X+254000Y+3270500D03*
X+254000Y+3460500D03*
X+508000Y+3270500D03*
X+508000Y+3460500D03*
X+762000Y+3270500D03*
X+762000Y+3460500D03*
X+508000Y+2825500D03*
X+508000Y+2635500D03*
X+254000Y+2635500D03*
X+254000Y+2825500D03*
X+254000Y+1238500D03*
X+254000Y+1428500D03*
X+508000Y+1238500D03*
X+508000Y+1428500D03*
X+762000Y+1238500D03*
X+762000Y+1428500D03*
X+508000Y+793500D03*
X+508000Y+603500D03*
X+254000Y+603500D03*
X+254000Y+793500D03*
D18*
X+190500Y+6454000D03*
X+190500Y+6754000D03*
X+508000Y+6454000D03*
X+508000Y+6754000D03*
X+825500Y+6454000D03*
X+825500Y+6754000D03*
D17*
X+762000Y+3841500D03*
X+762000Y+3651500D03*
X+762000Y+2825500D03*
X+762000Y+2635500D03*
X+762000Y+793500D03*
X+762000Y+603500D03*
D19*
X+683000Y+4762500D03*
X+333000Y+4762500D03*
X+683000Y+1714500D03*
X+333000Y+1714500D03*
X+683000Y+2413000D03*
X+333000Y+2413000D03*
X+683000Y+5778500D03*
X+333000Y+5778500D03*
X+683000Y+5397500D03*
X+333000Y+5397500D03*
D17*
X+889000Y+8858000D03*
X+889000Y+8668000D03*
X+127000Y+8858000D03*
X+127000Y+8668000D03*
D14*
X+825500Y+190500D03*
X+825500Y+9715500D03*
D70*
X+508000Y+9715500D03*
X+508000Y+190500D03*
M02*
