G04 PROTEUS GERBER X2 FILE*
%TF.GenerationSoftware,Labcenter,Proteus,8.5-SP0-Build22067*%
%TF.CreationDate,2018-03-12T21:06:28+00:00*%
%TF.FileFunction,Copper,L16,Bot*%
%TF.FilePolarity,Positive*%
%TF.Part,Single*%
%FSLAX45Y45*%
%MOMM*%
G01*
%TA.AperFunction,Conductor*%
%ADD71C,0.635000*%
%ADD10C,0.508000*%
%ADD11C,0.762000*%
%TA.AperFunction,ViaPad*%
%ADD12C,0.762000*%
%TA.AperFunction,Conductor*%
%ADD13C,0.254000*%
%TA.AperFunction,ComponentPad*%
%ADD14C,2.200000*%
%ADD15C,2.032000*%
%AMPPAD006*
4,1,36,
-0.393700,1.270000,
0.393700,1.270000,
0.456020,1.263940,
0.513660,1.246490,
0.565480,1.218770,
0.610390,1.181890,
0.647260,1.136980,
0.674980,1.085160,
0.692430,1.027520,
0.698500,0.965200,
0.698500,-0.965200,
0.692430,-1.027520,
0.674980,-1.085160,
0.647260,-1.136980,
0.610390,-1.181890,
0.565480,-1.218770,
0.513660,-1.246490,
0.456020,-1.263940,
0.393700,-1.270000,
-0.393700,-1.270000,
-0.456020,-1.263940,
-0.513660,-1.246490,
-0.565480,-1.218770,
-0.610390,-1.181890,
-0.647260,-1.136980,
-0.674980,-1.085160,
-0.692430,-1.027520,
-0.698500,-0.965200,
-0.698500,0.965200,
-0.692430,1.027520,
-0.674980,1.085160,
-0.647260,1.136980,
-0.610390,1.181890,
-0.565480,1.218770,
-0.513660,1.246490,
-0.456020,1.263940,
-0.393700,1.270000,
0*%
%ADD16PPAD006*%
G36*
X+977900Y+5606860D02*
X+914399Y+5670361D01*
X+914399Y+5688323D01*
X+862323Y+5740399D01*
X+788677Y+5740399D01*
X+736601Y+5688323D01*
X+736601Y+5614677D01*
X+788677Y+5562601D01*
X+806639Y+5562601D01*
X+876301Y+5492939D01*
X+876301Y+5257799D01*
X+641351Y+5257799D01*
X+641351Y+5168899D01*
X+628649Y+5168899D01*
X+628649Y+5257799D01*
X+387351Y+5257799D01*
X+387351Y+5168899D01*
X+374649Y+5168899D01*
X+374649Y+5257799D01*
X+133351Y+5257799D01*
X+133351Y+4902201D01*
X+374649Y+4902201D01*
X+374649Y+4991101D01*
X+387351Y+4991101D01*
X+387351Y+4902201D01*
X+628649Y+4902201D01*
X+628649Y+4991101D01*
X+641351Y+4991101D01*
X+641351Y+4902201D01*
X+876301Y+4902201D01*
X+876301Y+4241799D01*
X+641351Y+4241799D01*
X+641351Y+4152899D01*
X+628649Y+4152899D01*
X+628649Y+4241799D01*
X+387351Y+4241799D01*
X+387351Y+4152899D01*
X+374649Y+4152899D01*
X+374649Y+4241799D01*
X+133351Y+4241799D01*
X+133351Y+3886201D01*
X+374649Y+3886201D01*
X+374649Y+3975101D01*
X+387351Y+3975101D01*
X+387351Y+3886201D01*
X+628649Y+3886201D01*
X+628649Y+3975101D01*
X+641351Y+3975101D01*
X+641351Y+3886201D01*
X+876301Y+3886201D01*
X+876301Y+3225799D01*
X+641351Y+3225799D01*
X+641351Y+3136899D01*
X+628649Y+3136899D01*
X+628649Y+3225799D01*
X+387351Y+3225799D01*
X+387351Y+3136899D01*
X+374649Y+3136899D01*
X+374649Y+3225799D01*
X+133351Y+3225799D01*
X+133351Y+2870201D01*
X+374649Y+2870201D01*
X+374649Y+2959101D01*
X+387351Y+2959101D01*
X+387351Y+2870201D01*
X+628649Y+2870201D01*
X+628649Y+2959101D01*
X+641351Y+2959101D01*
X+641351Y+2870201D01*
X+876301Y+2870201D01*
X+876301Y+2762063D01*
X+825937Y+2711699D01*
X+811523Y+2711699D01*
X+798823Y+2724399D01*
X+725177Y+2724399D01*
X+673101Y+2672323D01*
X+673101Y+2598677D01*
X+725177Y+2546601D01*
X+798823Y+2546601D01*
X+811523Y+2559301D01*
X+889063Y+2559301D01*
X+977900Y+2648138D01*
X+977900Y+38100D01*
X+38100Y+38100D01*
X+38100Y+6197601D01*
X+110444Y+6197601D01*
X+133351Y+6220508D01*
X+133351Y+5918201D01*
X+374649Y+5918201D01*
X+374649Y+6019801D01*
X+387351Y+6019801D01*
X+387351Y+5918201D01*
X+628649Y+5918201D01*
X+628649Y+6019801D01*
X+641351Y+6019801D01*
X+641351Y+5918201D01*
X+882649Y+5918201D01*
X+882649Y+6273799D01*
X+838199Y+6273799D01*
X+838199Y+6826439D01*
X+907861Y+6896101D01*
X+925823Y+6896101D01*
X+977899Y+6948177D01*
X+977899Y+7021823D01*
X+925823Y+7073899D01*
X+852177Y+7073899D01*
X+800101Y+7021823D01*
X+800101Y+7003861D01*
X+685801Y+6889561D01*
X+685801Y+6273799D01*
X+641351Y+6273799D01*
X+641351Y+6172199D01*
X+628649Y+6172199D01*
X+628649Y+6273799D01*
X+387351Y+6273799D01*
X+387351Y+6172199D01*
X+374649Y+6172199D01*
X+374649Y+6273799D01*
X+162520Y+6273799D01*
X+162520Y+6323323D01*
X+149820Y+6336023D01*
X+149820Y+8356601D01*
X+163823Y+8356601D01*
X+215899Y+8408677D01*
X+215899Y+8482323D01*
X+163823Y+8534399D01*
X+90177Y+8534399D01*
X+38101Y+8482323D01*
X+38101Y+8464363D01*
X+38100Y+8464362D01*
X+38100Y+9867900D01*
X+977900Y+9867900D01*
X+977900Y+5606860D01*
G37*
%LPC*%
G36*
X+65100Y+9663558D02*
X+65100Y+9767442D01*
X+138558Y+9840900D01*
X+242442Y+9840900D01*
X+315900Y+9767442D01*
X+315900Y+9663558D01*
X+242442Y+9590100D01*
X+138558Y+9590100D01*
X+65100Y+9663558D01*
G37*
G36*
X+65100Y+138558D02*
X+65100Y+242442D01*
X+138558Y+315900D01*
X+242442Y+315900D01*
X+315900Y+242442D01*
X+315900Y+138558D01*
X+242442Y+65100D01*
X+138558Y+65100D01*
X+65100Y+138558D01*
G37*
G36*
X+787399Y+8953126D02*
X+787399Y+8826874D01*
X+723525Y+8763000D01*
X+787399Y+8699126D01*
X+787399Y+8572874D01*
X+723525Y+8509000D01*
X+787399Y+8445126D01*
X+787399Y+8318874D01*
X+723525Y+8255000D01*
X+787399Y+8191126D01*
X+787399Y+8064874D01*
X+723525Y+8001000D01*
X+787399Y+7937126D01*
X+787399Y+7810874D01*
X+723525Y+7747000D01*
X+787399Y+7683126D01*
X+787399Y+7556874D01*
X+723525Y+7493000D01*
X+787399Y+7429126D01*
X+787399Y+7302874D01*
X+723525Y+7239000D01*
X+787399Y+7175126D01*
X+787399Y+7048874D01*
X+698126Y+6959601D01*
X+571874Y+6959601D01*
X+508000Y+7023475D01*
X+444126Y+6959601D01*
X+317874Y+6959601D01*
X+228601Y+7048874D01*
X+228601Y+7175126D01*
X+292475Y+7239000D01*
X+228601Y+7302874D01*
X+228601Y+7429126D01*
X+292475Y+7493000D01*
X+228601Y+7556874D01*
X+228601Y+7683126D01*
X+292475Y+7747000D01*
X+228601Y+7810874D01*
X+228601Y+7937126D01*
X+292475Y+8001000D01*
X+228601Y+8064874D01*
X+228601Y+8191126D01*
X+292475Y+8255000D01*
X+228601Y+8318874D01*
X+228601Y+8445126D01*
X+292475Y+8509000D01*
X+228601Y+8572874D01*
X+228601Y+8699126D01*
X+292475Y+8763000D01*
X+228601Y+8826874D01*
X+228601Y+8953126D01*
X+317874Y+9042399D01*
X+444126Y+9042399D01*
X+508000Y+8978525D01*
X+571874Y+9042399D01*
X+698126Y+9042399D01*
X+787399Y+8953126D01*
G37*
G36*
X+641351Y+2209799D02*
X+882649Y+2209799D01*
X+882649Y+1854201D01*
X+641351Y+1854201D01*
X+641351Y+2209799D01*
G37*
G36*
X+387351Y+2209799D02*
X+628649Y+2209799D01*
X+628649Y+1854201D01*
X+387351Y+1854201D01*
X+387351Y+2209799D01*
G37*
G36*
X+133351Y+2209799D02*
X+374649Y+2209799D01*
X+374649Y+1854201D01*
X+133351Y+1854201D01*
X+133351Y+2209799D01*
G37*
G36*
X+641351Y+1193799D02*
X+882649Y+1193799D01*
X+882649Y+838201D01*
X+641351Y+838201D01*
X+641351Y+1193799D01*
G37*
G36*
X+387351Y+1193799D02*
X+628649Y+1193799D01*
X+628649Y+838201D01*
X+387351Y+838201D01*
X+387351Y+1193799D01*
G37*
G36*
X+133351Y+1193799D02*
X+374649Y+1193799D01*
X+374649Y+838201D01*
X+133351Y+838201D01*
X+133351Y+1193799D01*
G37*
G36*
X+700100Y+138558D02*
X+700100Y+242442D01*
X+773558Y+315900D01*
X+877442Y+315900D01*
X+950900Y+242442D01*
X+950900Y+138558D01*
X+877442Y+65100D01*
X+773558Y+65100D01*
X+700100Y+138558D01*
G37*
G36*
X+700100Y+9663558D02*
X+700100Y+9767442D01*
X+773558Y+9840900D01*
X+877442Y+9840900D01*
X+950900Y+9767442D01*
X+950900Y+9663558D01*
X+877442Y+9590100D01*
X+773558Y+9590100D01*
X+700100Y+9663558D01*
G37*
G36*
X+209550Y+775088D02*
X+209550Y+811912D01*
X+235588Y+837950D01*
X+272412Y+837950D01*
X+298450Y+811912D01*
X+298450Y+775088D01*
X+272412Y+749050D01*
X+235588Y+749050D01*
X+209550Y+775088D01*
G37*
G36*
X+209550Y+2807088D02*
X+209550Y+2843912D01*
X+235588Y+2869950D01*
X+272412Y+2869950D01*
X+298450Y+2843912D01*
X+298450Y+2807088D01*
X+272412Y+2781050D01*
X+235588Y+2781050D01*
X+209550Y+2807088D01*
G37*
G36*
X+638550Y+5760088D02*
X+638550Y+5796912D01*
X+664588Y+5822950D01*
X+701412Y+5822950D01*
X+727450Y+5796912D01*
X+727450Y+5760088D01*
X+701412Y+5734050D01*
X+664588Y+5734050D01*
X+638550Y+5760088D01*
G37*
G36*
X+638550Y+4744088D02*
X+638550Y+4780912D01*
X+664588Y+4806950D01*
X+701412Y+4806950D01*
X+727450Y+4780912D01*
X+727450Y+4744088D01*
X+701412Y+4718050D01*
X+664588Y+4718050D01*
X+638550Y+4744088D01*
G37*
G36*
X+209550Y+3823088D02*
X+209550Y+3859912D01*
X+235588Y+3885950D01*
X+272412Y+3885950D01*
X+298450Y+3859912D01*
X+298450Y+3823088D01*
X+272412Y+3797050D01*
X+235588Y+3797050D01*
X+209550Y+3823088D01*
G37*
%LPD*%
D71*
X+635000Y+7112000D02*
X+381000Y+7112000D01*
X+635000Y+8128000D02*
X+381000Y+8128000D01*
X+635000Y+8382000D02*
X+381000Y+8382000D01*
X+635000Y+8636000D02*
X+381000Y+8636000D01*
X+381000Y+8890000D02*
X+635000Y+8890000D01*
D10*
X+381000Y+7874000D02*
X+635000Y+7874000D01*
D11*
X+762000Y+3048000D02*
X+508000Y+3048000D01*
X+254000Y+3048000D02*
X+508000Y+3048000D01*
X+762000Y+4064000D02*
X+508000Y+4064000D01*
X+254000Y+4064000D01*
X+762000Y+5080000D02*
X+508000Y+5080000D01*
X+254000Y+5080000D01*
X+254000Y+2032000D02*
X+508000Y+2032000D01*
X+762000Y+2032000D01*
D10*
X+254000Y+6096000D02*
X+508000Y+6096000D01*
X+825500Y+5651500D02*
X+952500Y+5524500D01*
X+952500Y+2730500D01*
X+889000Y+2667000D01*
X+857500Y+2635500D01*
X+762000Y+2635500D01*
X+508000Y+6096000D02*
X+762000Y+6096000D01*
X+73621Y+6286500D02*
X+73621Y+8392121D01*
X+127000Y+8445500D01*
X+762000Y+6096000D02*
X+762000Y+6858000D01*
X+889000Y+6985000D01*
D12*
X+254000Y+793500D03*
X+254000Y+2825500D03*
X+683000Y+5778500D03*
X+683000Y+4762500D03*
X+762000Y+2635500D03*
X+825500Y+5651500D03*
X+73621Y+6286500D03*
X+127000Y+8445500D03*
X+889000Y+6985000D03*
X+254000Y+3841500D03*
D10*
X+977900Y+5606860D02*
X+914399Y+5670361D01*
X+914399Y+5688323D01*
X+862323Y+5740399D01*
X+788677Y+5740399D01*
X+736601Y+5688323D01*
X+736601Y+5614677D01*
X+788677Y+5562601D01*
X+806639Y+5562601D01*
X+876301Y+5492939D01*
X+876301Y+5257799D01*
X+641351Y+5257799D01*
X+641351Y+5168899D01*
X+628649Y+5168899D01*
X+628649Y+5257799D01*
X+387351Y+5257799D01*
X+387351Y+5168899D01*
X+374649Y+5168899D01*
X+374649Y+5257799D01*
X+133351Y+5257799D01*
X+133351Y+4902201D01*
X+374649Y+4902201D01*
X+374649Y+4991101D01*
X+387351Y+4991101D01*
X+387351Y+4902201D01*
X+628649Y+4902201D01*
X+628649Y+4991101D01*
X+641351Y+4991101D01*
X+641351Y+4902201D01*
X+876301Y+4902201D01*
X+876301Y+4241799D01*
X+641351Y+4241799D01*
X+641351Y+4152899D01*
X+628649Y+4152899D01*
X+628649Y+4241799D01*
X+387351Y+4241799D01*
X+387351Y+4152899D01*
X+374649Y+4152899D01*
X+374649Y+4241799D01*
X+133351Y+4241799D01*
X+133351Y+3886201D01*
X+374649Y+3886201D01*
X+374649Y+3975101D01*
X+387351Y+3975101D01*
X+387351Y+3886201D01*
X+628649Y+3886201D01*
X+628649Y+3975101D01*
X+641351Y+3975101D01*
X+641351Y+3886201D01*
X+876301Y+3886201D01*
X+876301Y+3225799D01*
X+641351Y+3225799D01*
X+641351Y+3136899D01*
X+628649Y+3136899D01*
X+628649Y+3225799D01*
X+387351Y+3225799D01*
X+387351Y+3136899D01*
X+374649Y+3136899D01*
X+374649Y+3225799D01*
X+133351Y+3225799D01*
X+133351Y+2870201D01*
X+374649Y+2870201D01*
X+374649Y+2959101D01*
X+387351Y+2959101D01*
X+387351Y+2870201D01*
X+628649Y+2870201D01*
X+628649Y+2959101D01*
X+641351Y+2959101D01*
X+641351Y+2870201D01*
X+876301Y+2870201D01*
X+876301Y+2762063D01*
X+825937Y+2711699D01*
X+811523Y+2711699D01*
X+798823Y+2724399D01*
X+725177Y+2724399D01*
X+673101Y+2672323D01*
X+673101Y+2598677D01*
X+725177Y+2546601D01*
X+798823Y+2546601D01*
X+811523Y+2559301D01*
X+889063Y+2559301D01*
X+977900Y+2648138D01*
X+977900Y+38100D01*
X+38100Y+38100D01*
X+38100Y+6197601D01*
X+110444Y+6197601D01*
X+133351Y+6220508D01*
X+133351Y+5918201D01*
X+374649Y+5918201D01*
X+374649Y+6019801D01*
X+387351Y+6019801D01*
X+387351Y+5918201D01*
X+628649Y+5918201D01*
X+628649Y+6019801D01*
X+641351Y+6019801D01*
X+641351Y+5918201D01*
X+882649Y+5918201D01*
X+882649Y+6273799D01*
X+838199Y+6273799D01*
X+838199Y+6826439D01*
X+907861Y+6896101D01*
X+925823Y+6896101D01*
X+977899Y+6948177D01*
X+977899Y+7021823D01*
X+925823Y+7073899D01*
X+852177Y+7073899D01*
X+800101Y+7021823D01*
X+800101Y+7003861D01*
X+685801Y+6889561D01*
X+685801Y+6273799D01*
X+641351Y+6273799D01*
X+641351Y+6172199D01*
X+628649Y+6172199D01*
X+628649Y+6273799D01*
X+387351Y+6273799D01*
X+387351Y+6172199D01*
X+374649Y+6172199D01*
X+374649Y+6273799D01*
X+162520Y+6273799D01*
X+162520Y+6323323D01*
X+149820Y+6336023D01*
X+149820Y+8356601D01*
X+163823Y+8356601D01*
X+215899Y+8408677D01*
X+215899Y+8482323D01*
X+163823Y+8534399D01*
X+90177Y+8534399D01*
X+38101Y+8482323D01*
X+38101Y+8464363D01*
X+38100Y+8464362D01*
X+38100Y+9867900D01*
X+977900Y+9867900D01*
X+977900Y+5606860D01*
X+65100Y+9663558D02*
X+65100Y+9767442D01*
X+138558Y+9840900D01*
X+242442Y+9840900D01*
X+315900Y+9767442D01*
X+315900Y+9663558D01*
X+242442Y+9590100D01*
X+138558Y+9590100D01*
X+65100Y+9663558D01*
X+65100Y+138558D02*
X+65100Y+242442D01*
X+138558Y+315900D01*
X+242442Y+315900D01*
X+315900Y+242442D01*
X+315900Y+138558D01*
X+242442Y+65100D01*
X+138558Y+65100D01*
X+65100Y+138558D01*
X+787399Y+8953126D02*
X+787399Y+8826874D01*
X+723525Y+8763000D01*
X+787399Y+8699126D01*
X+787399Y+8572874D01*
X+723525Y+8509000D01*
X+787399Y+8445126D01*
X+787399Y+8318874D01*
X+723525Y+8255000D01*
X+787399Y+8191126D01*
X+787399Y+8064874D01*
X+723525Y+8001000D01*
X+787399Y+7937126D01*
X+787399Y+7810874D01*
X+723525Y+7747000D01*
X+787399Y+7683126D01*
X+787399Y+7556874D01*
X+723525Y+7493000D01*
X+787399Y+7429126D01*
X+787399Y+7302874D01*
X+723525Y+7239000D01*
X+787399Y+7175126D01*
X+787399Y+7048874D01*
X+698126Y+6959601D01*
X+571874Y+6959601D01*
X+508000Y+7023475D01*
X+444126Y+6959601D01*
X+317874Y+6959601D01*
X+228601Y+7048874D01*
X+228601Y+7175126D01*
X+292475Y+7239000D01*
X+228601Y+7302874D01*
X+228601Y+7429126D01*
X+292475Y+7493000D01*
X+228601Y+7556874D01*
X+228601Y+7683126D01*
X+292475Y+7747000D01*
X+228601Y+7810874D01*
X+228601Y+7937126D01*
X+292475Y+8001000D01*
X+228601Y+8064874D01*
X+228601Y+8191126D01*
X+292475Y+8255000D01*
X+228601Y+8318874D01*
X+228601Y+8445126D01*
X+292475Y+8509000D01*
X+228601Y+8572874D01*
X+228601Y+8699126D01*
X+292475Y+8763000D01*
X+228601Y+8826874D01*
X+228601Y+8953126D01*
X+317874Y+9042399D01*
X+444126Y+9042399D01*
X+508000Y+8978525D01*
X+571874Y+9042399D01*
X+698126Y+9042399D01*
X+787399Y+8953126D01*
X+641351Y+2209799D02*
X+882649Y+2209799D01*
X+882649Y+1854201D01*
X+641351Y+1854201D01*
X+641351Y+2209799D01*
X+387351Y+2209799D02*
X+628649Y+2209799D01*
X+628649Y+1854201D01*
X+387351Y+1854201D01*
X+387351Y+2209799D01*
X+133351Y+2209799D02*
X+374649Y+2209799D01*
X+374649Y+1854201D01*
X+133351Y+1854201D01*
X+133351Y+2209799D01*
X+641351Y+1193799D02*
X+882649Y+1193799D01*
X+882649Y+838201D01*
X+641351Y+838201D01*
X+641351Y+1193799D01*
X+387351Y+1193799D02*
X+628649Y+1193799D01*
X+628649Y+838201D01*
X+387351Y+838201D01*
X+387351Y+1193799D01*
X+133351Y+1193799D02*
X+374649Y+1193799D01*
X+374649Y+838201D01*
X+133351Y+838201D01*
X+133351Y+1193799D01*
X+700100Y+138558D02*
X+700100Y+242442D01*
X+773558Y+315900D01*
X+877442Y+315900D01*
X+950900Y+242442D01*
X+950900Y+138558D01*
X+877442Y+65100D01*
X+773558Y+65100D01*
X+700100Y+138558D01*
X+700100Y+9663558D02*
X+700100Y+9767442D01*
X+773558Y+9840900D01*
X+877442Y+9840900D01*
X+950900Y+9767442D01*
X+950900Y+9663558D01*
X+877442Y+9590100D01*
X+773558Y+9590100D01*
X+700100Y+9663558D01*
X+209550Y+775088D02*
X+209550Y+811912D01*
X+235588Y+837950D01*
X+272412Y+837950D01*
X+298450Y+811912D01*
X+298450Y+775088D01*
X+272412Y+749050D01*
X+235588Y+749050D01*
X+209550Y+775088D01*
X+209550Y+2807088D02*
X+209550Y+2843912D01*
X+235588Y+2869950D01*
X+272412Y+2869950D01*
X+298450Y+2843912D01*
X+298450Y+2807088D01*
X+272412Y+2781050D01*
X+235588Y+2781050D01*
X+209550Y+2807088D01*
X+638550Y+5760088D02*
X+638550Y+5796912D01*
X+664588Y+5822950D01*
X+701412Y+5822950D01*
X+727450Y+5796912D01*
X+727450Y+5760088D01*
X+701412Y+5734050D01*
X+664588Y+5734050D01*
X+638550Y+5760088D01*
X+638550Y+4744088D02*
X+638550Y+4780912D01*
X+664588Y+4806950D01*
X+701412Y+4806950D01*
X+727450Y+4780912D01*
X+727450Y+4744088D01*
X+701412Y+4718050D01*
X+664588Y+4718050D01*
X+638550Y+4744088D01*
X+209550Y+3823088D02*
X+209550Y+3859912D01*
X+235588Y+3885950D01*
X+272412Y+3885950D01*
X+298450Y+3859912D01*
X+298450Y+3823088D01*
X+272412Y+3797050D01*
X+235588Y+3797050D01*
X+209550Y+3823088D01*
D13*
X+228601Y+7366000D02*
X+381000Y+7366000D01*
X+787399Y+7366000D02*
X+635000Y+7366000D01*
X+228601Y+7620000D02*
X+381000Y+7620000D01*
X+787399Y+7620000D02*
X+635000Y+7620000D01*
X+228601Y+7874000D02*
X+381000Y+7874000D01*
X+787399Y+7874000D02*
X+635000Y+7874000D01*
X+641351Y+2032000D02*
X+762000Y+2032000D01*
X+882649Y+2032000D02*
X+762000Y+2032000D01*
X+762000Y+1854201D02*
X+762000Y+2032000D01*
X+762000Y+2209799D02*
X+762000Y+2032000D01*
X+387351Y+2032000D02*
X+508000Y+2032000D01*
X+628649Y+2032000D02*
X+508000Y+2032000D01*
X+508000Y+1854201D02*
X+508000Y+2032000D01*
X+508000Y+2209799D02*
X+508000Y+2032000D01*
X+133351Y+2032000D02*
X+254000Y+2032000D01*
X+374649Y+2032000D02*
X+254000Y+2032000D01*
X+254000Y+1854201D02*
X+254000Y+2032000D01*
X+254000Y+2209799D02*
X+254000Y+2032000D01*
D14*
X+190500Y+9715500D03*
X+190500Y+190500D03*
D15*
X+381000Y+7112000D03*
X+635000Y+7112000D03*
X+381000Y+7366000D03*
X+635000Y+7366000D03*
X+381000Y+7620000D03*
X+635000Y+7620000D03*
X+381000Y+7874000D03*
X+635000Y+7874000D03*
X+381000Y+8128000D03*
X+635000Y+8128000D03*
X+381000Y+8382000D03*
X+635000Y+8382000D03*
X+381000Y+8636000D03*
X+635000Y+8636000D03*
X+381000Y+8890000D03*
X+635000Y+8890000D03*
D16*
X+762000Y+6096000D03*
X+508000Y+6096000D03*
X+254000Y+6096000D03*
X+762000Y+5080000D03*
X+508000Y+5080000D03*
X+254000Y+5080000D03*
X+762000Y+4064000D03*
X+508000Y+4064000D03*
X+254000Y+4064000D03*
X+762000Y+3048000D03*
X+508000Y+3048000D03*
X+254000Y+3048000D03*
X+762000Y+2032000D03*
X+508000Y+2032000D03*
X+254000Y+2032000D03*
X+762000Y+1016000D03*
X+508000Y+1016000D03*
X+254000Y+1016000D03*
D14*
X+825500Y+190500D03*
X+825500Y+9715500D03*
M02*
