G04 PROTEUS RS274X GERBER FILE*
%FSLAX45Y45*%
%MOMM*%
G01*
%ADD13C,0.203200*%
G36*
X-3435294Y+7130412D02*
X-3435294Y+7257412D01*
X-3308294Y+7257412D01*
X-3435294Y+7130412D01*
G37*
G36*
X-3435294Y+7003412D02*
X-3181294Y+7257412D01*
X-3054294Y+7257412D01*
X-3435294Y+6876412D01*
X-3435294Y+7003412D01*
G37*
G36*
X-3308294Y+6876412D02*
X-2927294Y+7257412D01*
X-2800294Y+7257412D01*
X-3181294Y+6876412D01*
X-3308294Y+6876412D01*
G37*
G36*
X-2419294Y+7003412D02*
X-2419294Y+6876412D01*
X-2546294Y+6876412D01*
X-2419294Y+7003412D01*
G37*
G36*
X-2419294Y+7130412D02*
X-2673294Y+6876412D01*
X-2800294Y+6876412D01*
X-2419294Y+7257412D01*
X-2419294Y+7130412D01*
G37*
G36*
X-2546294Y+7257412D02*
X-2927294Y+6876412D01*
X-3054294Y+6876412D01*
X-2673294Y+7257412D01*
X-2546294Y+7257412D01*
G37*
G36*
X-3435294Y-2394588D02*
X-3435294Y-2267588D01*
X-3308294Y-2267588D01*
X-3435294Y-2394588D01*
G37*
G36*
X-3435294Y-2521588D02*
X-3181294Y-2267588D01*
X-3054294Y-2267588D01*
X-3435294Y-2648588D01*
X-3435294Y-2521588D01*
G37*
G36*
X-3308294Y-2648588D02*
X-2927294Y-2267588D01*
X-2800294Y-2267588D01*
X-3181294Y-2648588D01*
X-3308294Y-2648588D01*
G37*
G36*
X-2419294Y-2521588D02*
X-2419294Y-2648588D01*
X-2546294Y-2648588D01*
X-2419294Y-2521588D01*
G37*
G36*
X-2419294Y-2394588D02*
X-2673294Y-2648588D01*
X-2800294Y-2648588D01*
X-2419294Y-2267588D01*
X-2419294Y-2394588D01*
G37*
G36*
X-2546294Y-2267588D02*
X-2927294Y-2648588D01*
X-3054294Y-2648588D01*
X-2673294Y-2267588D01*
X-2546294Y-2267588D01*
G37*
G36*
X-2286000Y+7112000D02*
X-2286000Y+7239000D01*
X-2159000Y+7239000D01*
X-2286000Y+7112000D01*
G37*
G36*
X-2286000Y+6985000D02*
X-2032000Y+7239000D01*
X-1905000Y+7239000D01*
X-2286000Y+6858000D01*
X-2286000Y+6985000D01*
G37*
G36*
X-2159000Y+6858000D02*
X-1778000Y+7239000D01*
X-1651000Y+7239000D01*
X-2032000Y+6858000D01*
X-2159000Y+6858000D01*
G37*
G36*
X-1270000Y+6985000D02*
X-1270000Y+6858000D01*
X-1397000Y+6858000D01*
X-1270000Y+6985000D01*
G37*
G36*
X-1270000Y+7112000D02*
X-1524000Y+6858000D01*
X-1651000Y+6858000D01*
X-1270000Y+7239000D01*
X-1270000Y+7112000D01*
G37*
G36*
X-1397000Y+7239000D02*
X-1778000Y+6858000D01*
X-1905000Y+6858000D01*
X-1524000Y+7239000D01*
X-1397000Y+7239000D01*
G37*
G36*
X-2286000Y-2413000D02*
X-2286000Y-2286000D01*
X-2159000Y-2286000D01*
X-2286000Y-2413000D01*
G37*
G36*
X-2286000Y-2540000D02*
X-2032000Y-2286000D01*
X-1905000Y-2286000D01*
X-2286000Y-2667000D01*
X-2286000Y-2540000D01*
G37*
G36*
X-2159000Y-2667000D02*
X-1778000Y-2286000D01*
X-1651000Y-2286000D01*
X-2032000Y-2667000D01*
X-2159000Y-2667000D01*
G37*
G36*
X-1270000Y-2540000D02*
X-1270000Y-2667000D01*
X-1397000Y-2667000D01*
X-1270000Y-2540000D01*
G37*
G36*
X-1270000Y-2413000D02*
X-1524000Y-2667000D01*
X-1651000Y-2667000D01*
X-1270000Y-2286000D01*
X-1270000Y-2413000D01*
G37*
G36*
X-1397000Y-2286000D02*
X-1778000Y-2667000D01*
X-1905000Y-2667000D01*
X-1524000Y-2286000D01*
X-1397000Y-2286000D01*
G37*
G36*
X-1143000Y+7112000D02*
X-1143000Y+7239000D01*
X-1016000Y+7239000D01*
X-1143000Y+7112000D01*
G37*
G36*
X-1143000Y+6985000D02*
X-889000Y+7239000D01*
X-762000Y+7239000D01*
X-1143000Y+6858000D01*
X-1143000Y+6985000D01*
G37*
G36*
X-1016000Y+6858000D02*
X-635000Y+7239000D01*
X-508000Y+7239000D01*
X-889000Y+6858000D01*
X-1016000Y+6858000D01*
G37*
G36*
X-127000Y+6985000D02*
X-127000Y+6858000D01*
X-254000Y+6858000D01*
X-127000Y+6985000D01*
G37*
G36*
X-127000Y+7112000D02*
X-381000Y+6858000D01*
X-508000Y+6858000D01*
X-127000Y+7239000D01*
X-127000Y+7112000D01*
G37*
G36*
X-254000Y+7239000D02*
X-635000Y+6858000D01*
X-762000Y+6858000D01*
X-381000Y+7239000D01*
X-254000Y+7239000D01*
G37*
G36*
X-1143000Y-2413000D02*
X-1143000Y-2286000D01*
X-1016000Y-2286000D01*
X-1143000Y-2413000D01*
G37*
G36*
X-1143000Y-2540000D02*
X-889000Y-2286000D01*
X-762000Y-2286000D01*
X-1143000Y-2667000D01*
X-1143000Y-2540000D01*
G37*
G36*
X-1016000Y-2667000D02*
X-635000Y-2286000D01*
X-508000Y-2286000D01*
X-889000Y-2667000D01*
X-1016000Y-2667000D01*
G37*
G36*
X-127000Y-2540000D02*
X-127000Y-2667000D01*
X-254000Y-2667000D01*
X-127000Y-2540000D01*
G37*
G36*
X-127000Y-2413000D02*
X-381000Y-2667000D01*
X-508000Y-2667000D01*
X-127000Y-2286000D01*
X-127000Y-2413000D01*
G37*
G36*
X-254000Y-2286000D02*
X-635000Y-2667000D01*
X-762000Y-2667000D01*
X-381000Y-2286000D01*
X-254000Y-2286000D01*
G37*
G36*
X+0Y+7112000D02*
X+0Y+7239000D01*
X+127000Y+7239000D01*
X+0Y+7112000D01*
G37*
G36*
X+0Y+6985000D02*
X+254000Y+7239000D01*
X+381000Y+7239000D01*
X+0Y+6858000D01*
X+0Y+6985000D01*
G37*
G36*
X+127000Y+6858000D02*
X+508000Y+7239000D01*
X+635000Y+7239000D01*
X+254000Y+6858000D01*
X+127000Y+6858000D01*
G37*
G36*
X+1016000Y+6985000D02*
X+1016000Y+6858000D01*
X+889000Y+6858000D01*
X+1016000Y+6985000D01*
G37*
G36*
X+1016000Y+7112000D02*
X+762000Y+6858000D01*
X+635000Y+6858000D01*
X+1016000Y+7239000D01*
X+1016000Y+7112000D01*
G37*
G36*
X+889000Y+7239000D02*
X+508000Y+6858000D01*
X+381000Y+6858000D01*
X+762000Y+7239000D01*
X+889000Y+7239000D01*
G37*
G36*
X+0Y-2413000D02*
X+0Y-2286000D01*
X+127000Y-2286000D01*
X+0Y-2413000D01*
G37*
G36*
X+0Y-2540000D02*
X+254000Y-2286000D01*
X+381000Y-2286000D01*
X+0Y-2667000D01*
X+0Y-2540000D01*
G37*
G36*
X+127000Y-2667000D02*
X+508000Y-2286000D01*
X+635000Y-2286000D01*
X+254000Y-2667000D01*
X+127000Y-2667000D01*
G37*
G36*
X+1016000Y-2540000D02*
X+1016000Y-2667000D01*
X+889000Y-2667000D01*
X+1016000Y-2540000D01*
G37*
G36*
X+1016000Y-2413000D02*
X+762000Y-2667000D01*
X+635000Y-2667000D01*
X+1016000Y-2286000D01*
X+1016000Y-2413000D01*
G37*
G36*
X+889000Y-2286000D02*
X+508000Y-2667000D01*
X+381000Y-2667000D01*
X+762000Y-2286000D01*
X+889000Y-2286000D01*
G37*
G36*
X+1143000Y+7112000D02*
X+1143000Y+7239000D01*
X+1270000Y+7239000D01*
X+1143000Y+7112000D01*
G37*
G36*
X+1143000Y+6985000D02*
X+1397000Y+7239000D01*
X+1524000Y+7239000D01*
X+1143000Y+6858000D01*
X+1143000Y+6985000D01*
G37*
G36*
X+1270000Y+6858000D02*
X+1651000Y+7239000D01*
X+1778000Y+7239000D01*
X+1397000Y+6858000D01*
X+1270000Y+6858000D01*
G37*
G36*
X+2159000Y+6985000D02*
X+2159000Y+6858000D01*
X+2032000Y+6858000D01*
X+2159000Y+6985000D01*
G37*
G36*
X+2159000Y+7112000D02*
X+1905000Y+6858000D01*
X+1778000Y+6858000D01*
X+2159000Y+7239000D01*
X+2159000Y+7112000D01*
G37*
G36*
X+2032000Y+7239000D02*
X+1651000Y+6858000D01*
X+1524000Y+6858000D01*
X+1905000Y+7239000D01*
X+2032000Y+7239000D01*
G37*
G36*
X+1143000Y-2413000D02*
X+1143000Y-2286000D01*
X+1270000Y-2286000D01*
X+1143000Y-2413000D01*
G37*
G36*
X+1143000Y-2540000D02*
X+1397000Y-2286000D01*
X+1524000Y-2286000D01*
X+1143000Y-2667000D01*
X+1143000Y-2540000D01*
G37*
G36*
X+1270000Y-2667000D02*
X+1651000Y-2286000D01*
X+1778000Y-2286000D01*
X+1397000Y-2667000D01*
X+1270000Y-2667000D01*
G37*
G36*
X+2159000Y-2540000D02*
X+2159000Y-2667000D01*
X+2032000Y-2667000D01*
X+2159000Y-2540000D01*
G37*
G36*
X+2159000Y-2413000D02*
X+1905000Y-2667000D01*
X+1778000Y-2667000D01*
X+2159000Y-2286000D01*
X+2159000Y-2413000D01*
G37*
G36*
X+2032000Y-2286000D02*
X+1651000Y-2667000D01*
X+1524000Y-2667000D01*
X+1905000Y-2286000D01*
X+2032000Y-2286000D01*
G37*
G36*
X+2286000Y+7112000D02*
X+2286000Y+7239000D01*
X+2413000Y+7239000D01*
X+2286000Y+7112000D01*
G37*
G36*
X+2286000Y+6985000D02*
X+2540000Y+7239000D01*
X+2667000Y+7239000D01*
X+2286000Y+6858000D01*
X+2286000Y+6985000D01*
G37*
G36*
X+2413000Y+6858000D02*
X+2794000Y+7239000D01*
X+2921000Y+7239000D01*
X+2540000Y+6858000D01*
X+2413000Y+6858000D01*
G37*
G36*
X+3302000Y+6985000D02*
X+3302000Y+6858000D01*
X+3175000Y+6858000D01*
X+3302000Y+6985000D01*
G37*
G36*
X+3302000Y+7112000D02*
X+3048000Y+6858000D01*
X+2921000Y+6858000D01*
X+3302000Y+7239000D01*
X+3302000Y+7112000D01*
G37*
G36*
X+3175000Y+7239000D02*
X+2794000Y+6858000D01*
X+2667000Y+6858000D01*
X+3048000Y+7239000D01*
X+3175000Y+7239000D01*
G37*
G36*
X+2286000Y-2413000D02*
X+2286000Y-2286000D01*
X+2413000Y-2286000D01*
X+2286000Y-2413000D01*
G37*
G36*
X+2286000Y-2540000D02*
X+2540000Y-2286000D01*
X+2667000Y-2286000D01*
X+2286000Y-2667000D01*
X+2286000Y-2540000D01*
G37*
G36*
X+2413000Y-2667000D02*
X+2794000Y-2286000D01*
X+2921000Y-2286000D01*
X+2540000Y-2667000D01*
X+2413000Y-2667000D01*
G37*
G36*
X+3302000Y-2540000D02*
X+3302000Y-2667000D01*
X+3175000Y-2667000D01*
X+3302000Y-2540000D01*
G37*
G36*
X+3302000Y-2413000D02*
X+3048000Y-2667000D01*
X+2921000Y-2667000D01*
X+3302000Y-2286000D01*
X+3302000Y-2413000D01*
G37*
G36*
X+3175000Y-2286000D02*
X+2794000Y-2667000D01*
X+2667000Y-2667000D01*
X+3048000Y-2286000D01*
X+3175000Y-2286000D01*
G37*
D13*
X-3435294Y-2648588D02*
X-2419294Y-2648588D01*
X-2419294Y+7257412D01*
X-3435294Y+7257412D01*
X-3435294Y-2648588D01*
X-3211774Y+785492D02*
X-3280354Y+785492D01*
X-3211774Y+907412D02*
X-3282894Y+907412D01*
X-3333694Y+640712D02*
X-3323534Y+628012D01*
X-3323534Y+589912D01*
X-3343854Y+564512D01*
X-3364174Y+564512D01*
X-3384494Y+589912D01*
X-3384494Y+628012D01*
X-3374334Y+640712D01*
X-3364174Y+691512D02*
X-3384494Y+716912D01*
X-3323534Y+716912D01*
X-3211774Y+975992D02*
X-3280354Y+975992D01*
X-3211774Y+1097912D02*
X-3282894Y+1097912D01*
X-2978094Y+1148712D02*
X-2990794Y+1138552D01*
X-3028894Y+1138552D01*
X-3054294Y+1158872D01*
X-3054294Y+1179192D01*
X-3028894Y+1199512D01*
X-2990794Y+1199512D01*
X-2978094Y+1189352D01*
X-2939994Y+1189352D02*
X-2927294Y+1199512D01*
X-2889194Y+1199512D01*
X-2876494Y+1189352D01*
X-2876494Y+1179192D01*
X-2889194Y+1169032D01*
X-2927294Y+1169032D01*
X-2939994Y+1158872D01*
X-2939994Y+1138552D01*
X-2876494Y+1138552D01*
X-3211774Y+1166492D02*
X-3280354Y+1166492D01*
X-3211774Y+1288412D02*
X-3282894Y+1288412D01*
X-2978094Y+1263012D02*
X-2990794Y+1252852D01*
X-3028894Y+1252852D01*
X-3054294Y+1273172D01*
X-3054294Y+1293492D01*
X-3028894Y+1313812D01*
X-2990794Y+1313812D01*
X-2978094Y+1303652D01*
X-2939994Y+1303652D02*
X-2927294Y+1313812D01*
X-2889194Y+1313812D01*
X-2876494Y+1303652D01*
X-2876494Y+1293492D01*
X-2889194Y+1283332D01*
X-2876494Y+1273172D01*
X-2876494Y+1263012D01*
X-2889194Y+1252852D01*
X-2927294Y+1252852D01*
X-2939994Y+1263012D01*
X-2914594Y+1283332D02*
X-2889194Y+1283332D01*
X-3211774Y+23492D02*
X-3280354Y+23492D01*
X-3211774Y+145412D02*
X-3282894Y+145412D01*
X-3328614Y-116208D02*
X-3318454Y-128908D01*
X-3318454Y-167008D01*
X-3338774Y-192408D01*
X-3359094Y-192408D01*
X-3379414Y-167008D01*
X-3379414Y-128908D01*
X-3369254Y-116208D01*
X-3338774Y-14608D02*
X-3338774Y-90808D01*
X-3379414Y-40008D01*
X-3318454Y-40008D01*
X-3211774Y+213992D02*
X-3280354Y+213992D01*
X-3211774Y+335912D02*
X-3282894Y+335912D01*
X-2978094Y+384172D02*
X-2990794Y+374012D01*
X-3028894Y+374012D01*
X-3054294Y+394332D01*
X-3054294Y+414652D01*
X-3028894Y+434972D01*
X-2990794Y+434972D01*
X-2978094Y+424812D01*
X-2876494Y+434972D02*
X-2939994Y+434972D01*
X-2939994Y+414652D01*
X-2889194Y+414652D01*
X-2876494Y+404492D01*
X-2876494Y+384172D01*
X-2889194Y+374012D01*
X-2927294Y+374012D01*
X-2939994Y+384172D01*
X-3211774Y+404492D02*
X-3280354Y+404492D01*
X-3211774Y+526412D02*
X-3282894Y+526412D01*
X-2978094Y+498472D02*
X-2990794Y+488312D01*
X-3028894Y+488312D01*
X-3054294Y+508632D01*
X-3054294Y+528952D01*
X-3028894Y+549272D01*
X-2990794Y+549272D01*
X-2978094Y+539112D01*
X-2876494Y+539112D02*
X-2889194Y+549272D01*
X-2927294Y+549272D01*
X-2939994Y+539112D01*
X-2939994Y+498472D01*
X-2927294Y+488312D01*
X-2889194Y+488312D01*
X-2876494Y+498472D01*
X-2876494Y+508632D01*
X-2889194Y+518792D01*
X-2939994Y+518792D01*
X-3211774Y-1500508D02*
X-3280354Y-1500508D01*
X-3211774Y-1378588D02*
X-3282894Y-1378588D01*
X-3320994Y-1657988D02*
X-3310834Y-1670688D01*
X-3310834Y-1708788D01*
X-3331154Y-1734188D01*
X-3351474Y-1734188D01*
X-3371794Y-1708788D01*
X-3371794Y-1670688D01*
X-3361634Y-1657988D01*
X-3371794Y-1619888D02*
X-3371794Y-1556388D01*
X-3361634Y-1556388D01*
X-3310834Y-1619888D01*
X-3211774Y-1310008D02*
X-3280354Y-1310008D01*
X-3211774Y-1188088D02*
X-3282894Y-1188088D01*
X-2965394Y-1142369D02*
X-2978094Y-1152529D01*
X-3016194Y-1152529D01*
X-3041594Y-1132209D01*
X-3041594Y-1111889D01*
X-3016194Y-1091569D01*
X-2978094Y-1091569D01*
X-2965394Y-1101729D01*
X-2914594Y-1122049D02*
X-2927294Y-1111889D01*
X-2927294Y-1101729D01*
X-2914594Y-1091569D01*
X-2876494Y-1091569D01*
X-2863794Y-1101729D01*
X-2863794Y-1111889D01*
X-2876494Y-1122049D01*
X-2914594Y-1122049D01*
X-2927294Y-1132209D01*
X-2927294Y-1142369D01*
X-2914594Y-1152529D01*
X-2876494Y-1152529D01*
X-2863794Y-1142369D01*
X-2863794Y-1132209D01*
X-2876494Y-1122049D01*
X-3211774Y-1119508D02*
X-3280354Y-1119508D01*
X-3211774Y-997588D02*
X-3282894Y-997588D01*
X-2965394Y-1038228D02*
X-2978094Y-1048388D01*
X-3016194Y-1048388D01*
X-3041594Y-1028068D01*
X-3041594Y-1007748D01*
X-3016194Y-987428D01*
X-2978094Y-987428D01*
X-2965394Y-997588D01*
X-2863794Y-1007748D02*
X-2876494Y-1017908D01*
X-2914594Y-1017908D01*
X-2927294Y-1007748D01*
X-2927294Y-997588D01*
X-2914594Y-987428D01*
X-2876494Y-987428D01*
X-2863794Y-997588D01*
X-2863794Y-1038228D01*
X-2876494Y-1048388D01*
X-2914594Y-1048388D01*
X-3131294Y+2328412D02*
X-3231294Y+2328412D01*
X-3131294Y+2523412D02*
X-3231294Y+2523412D01*
X-3181294Y+2538412D02*
X-3236294Y+2593412D01*
X-3126294Y+2593412D01*
X-3181294Y+2538412D01*
X-3022154Y+2478972D02*
X-3083114Y+2478972D01*
X-3083114Y+2529772D01*
X-3062794Y+2555172D01*
X-3042474Y+2555172D01*
X-3022154Y+2529772D01*
X-3022154Y+2478972D01*
X-3062794Y+2605972D02*
X-3083114Y+2631372D01*
X-3022154Y+2631372D01*
X-2877294Y+2328412D02*
X-2977294Y+2328412D01*
X-2877294Y+2523412D02*
X-2977294Y+2523412D01*
X-2927294Y+2538412D02*
X-2982294Y+2593412D01*
X-2872294Y+2593412D01*
X-2927294Y+2538412D01*
X-2755454Y+2466272D02*
X-2816414Y+2466272D01*
X-2816414Y+2517072D01*
X-2796094Y+2542472D01*
X-2775774Y+2542472D01*
X-2755454Y+2517072D01*
X-2755454Y+2466272D01*
X-2806254Y+2580572D02*
X-2816414Y+2593272D01*
X-2816414Y+2631372D01*
X-2806254Y+2644072D01*
X-2796094Y+2644072D01*
X-2785934Y+2631372D01*
X-2785934Y+2593272D01*
X-2775774Y+2580572D01*
X-2755454Y+2580572D01*
X-2755454Y+2644072D01*
X-2951294Y+1973412D02*
X-2951294Y+1873412D01*
X-3146294Y+1973412D02*
X-3146294Y+1873412D01*
X-3161294Y+1923412D02*
X-3216294Y+1868412D01*
X-3216294Y+1978412D01*
X-3161294Y+1923412D01*
X-2911354Y+1894592D02*
X-2911354Y+1955552D01*
X-2860554Y+1955552D01*
X-2835154Y+1935232D01*
X-2835154Y+1914912D01*
X-2860554Y+1894592D01*
X-2911354Y+1894592D01*
X-2797054Y+1945392D02*
X-2784354Y+1955552D01*
X-2746254Y+1955552D01*
X-2733554Y+1945392D01*
X-2733554Y+1935232D01*
X-2746254Y+1925072D01*
X-2733554Y+1914912D01*
X-2733554Y+1904752D01*
X-2746254Y+1894592D01*
X-2784354Y+1894592D01*
X-2797054Y+1904752D01*
X-2771654Y+1925072D02*
X-2746254Y+1925072D01*
X-2951294Y-566588D02*
X-2951294Y-666588D01*
X-3146294Y-566588D02*
X-3146294Y-666588D01*
X-3161294Y-616588D02*
X-3216294Y-671588D01*
X-3216294Y-561588D01*
X-3161294Y-616588D01*
X-2771654Y-670808D02*
X-2771654Y-609848D01*
X-2720854Y-609848D01*
X-2695454Y-630168D01*
X-2695454Y-650488D01*
X-2720854Y-670808D01*
X-2771654Y-670808D01*
X-2593854Y-650488D02*
X-2670054Y-650488D01*
X-2619254Y-609848D01*
X-2619254Y-670808D01*
X-2951294Y-2090588D02*
X-2951294Y-2190588D01*
X-3146294Y-2090588D02*
X-3146294Y-2190588D01*
X-3161294Y-2140588D02*
X-3216294Y-2195588D01*
X-3216294Y-2085588D01*
X-3161294Y-2140588D01*
X-2771654Y-2169408D02*
X-2771654Y-2108448D01*
X-2720854Y-2108448D01*
X-2695454Y-2128768D01*
X-2695454Y-2149088D01*
X-2720854Y-2169408D01*
X-2771654Y-2169408D01*
X-2593854Y-2108448D02*
X-2657354Y-2108448D01*
X-2657354Y-2128768D01*
X-2606554Y-2128768D01*
X-2593854Y-2138928D01*
X-2593854Y-2159248D01*
X-2606554Y-2169408D01*
X-2644654Y-2169408D01*
X-2657354Y-2159248D01*
X-3231294Y+1741312D02*
X-3131294Y+1741312D01*
X-3231294Y+1597512D02*
X-3131294Y+1597512D01*
X-3252157Y+1845452D02*
X-3252157Y+1784492D01*
X-3175957Y+1784492D01*
X-3125157Y+1825132D02*
X-3099757Y+1845452D01*
X-3099757Y+1784492D01*
X-3231294Y-290688D02*
X-3131294Y-290688D01*
X-3231294Y-434488D02*
X-3131294Y-434488D01*
X-3282894Y-199248D02*
X-3282894Y-260208D01*
X-3206694Y-260208D01*
X-3168594Y-209408D02*
X-3155894Y-199248D01*
X-3117794Y-199248D01*
X-3105094Y-209408D01*
X-3105094Y-219568D01*
X-3117794Y-229728D01*
X-3155894Y-229728D01*
X-3168594Y-239888D01*
X-3168594Y-260208D01*
X-3105094Y-260208D01*
X-3231294Y-1814688D02*
X-3131294Y-1814688D01*
X-3231294Y-1958488D02*
X-3131294Y-1958488D01*
X-3257494Y-1723248D02*
X-3257494Y-1784208D01*
X-3181294Y-1784208D01*
X-3143194Y-1733408D02*
X-3130494Y-1723248D01*
X-3092394Y-1723248D01*
X-3079694Y-1733408D01*
X-3079694Y-1743568D01*
X-3092394Y-1753728D01*
X-3079694Y-1763888D01*
X-3079694Y-1774048D01*
X-3092394Y-1784208D01*
X-3130494Y-1784208D01*
X-3143194Y-1774048D01*
X-3117794Y-1753728D02*
X-3092394Y-1753728D01*
X-2723294Y+1741312D02*
X-2623294Y+1741312D01*
X-2723294Y+1597512D02*
X-2623294Y+1597512D01*
X-2755842Y+1782687D02*
X-2755842Y+1843647D01*
X-2679642Y+1843647D01*
X-2755842Y+1813167D02*
X-2705042Y+1813167D01*
X-2628842Y+1823327D02*
X-2603442Y+1843647D01*
X-2603442Y+1782687D01*
X-2723294Y-290688D02*
X-2623294Y-290688D01*
X-2723294Y-434488D02*
X-2623294Y-434488D01*
X-2774894Y-552308D02*
X-2774894Y-491348D01*
X-2698694Y-491348D01*
X-2774894Y-521828D02*
X-2724094Y-521828D01*
X-2660594Y-501508D02*
X-2647894Y-491348D01*
X-2609794Y-491348D01*
X-2597094Y-501508D01*
X-2597094Y-511668D01*
X-2609794Y-521828D01*
X-2647894Y-521828D01*
X-2660594Y-531988D01*
X-2660594Y-552308D01*
X-2597094Y-552308D01*
X-2723294Y-1814688D02*
X-2623294Y-1814688D01*
X-2723294Y-1958488D02*
X-2623294Y-1958488D01*
X-2774894Y-2063608D02*
X-2774894Y-2002648D01*
X-2698694Y-2002648D01*
X-2774894Y-2033128D02*
X-2724094Y-2033128D01*
X-2660594Y-2012808D02*
X-2647894Y-2002648D01*
X-2609794Y-2002648D01*
X-2597094Y-2012808D01*
X-2597094Y-2022968D01*
X-2609794Y-2033128D01*
X-2597094Y-2043288D01*
X-2597094Y-2053448D01*
X-2609794Y-2063608D01*
X-2647894Y-2063608D01*
X-2660594Y-2053448D01*
X-2635194Y-2033128D02*
X-2609794Y-2033128D01*
X-2830774Y+23492D02*
X-2899354Y+23492D01*
X-2830774Y+145412D02*
X-2901894Y+145412D01*
X-2647894Y+45572D02*
X-2647894Y+106532D01*
X-2584394Y+106532D01*
X-2571694Y+96372D01*
X-2571694Y+86212D01*
X-2584394Y+76052D01*
X-2647894Y+76052D01*
X-2584394Y+76052D02*
X-2571694Y+65892D01*
X-2571694Y+45572D01*
X-2533594Y+96372D02*
X-2520894Y+106532D01*
X-2482794Y+106532D01*
X-2470094Y+96372D01*
X-2470094Y+86212D01*
X-2482794Y+76052D01*
X-2520894Y+76052D01*
X-2533594Y+65892D01*
X-2533594Y+45572D01*
X-2470094Y+45572D01*
X-2683794Y+1084412D02*
X-2683794Y+984412D01*
X-2828794Y+1084412D02*
X-2828794Y+984412D01*
X-2843794Y+1034412D02*
X-2898794Y+979412D01*
X-2898794Y+1089412D01*
X-2843794Y+1034412D01*
X-2650604Y+1005592D02*
X-2650604Y+1066552D01*
X-2599804Y+1066552D01*
X-2574404Y+1046232D01*
X-2574404Y+1025912D01*
X-2599804Y+1005592D01*
X-2650604Y+1005592D01*
X-2472804Y+1056392D02*
X-2485504Y+1066552D01*
X-2523604Y+1066552D01*
X-2536304Y+1056392D01*
X-2536304Y+1015752D01*
X-2523604Y+1005592D01*
X-2485504Y+1005592D01*
X-2472804Y+1015752D01*
X-2472804Y+1025912D01*
X-2485504Y+1036072D01*
X-2536304Y+1036072D01*
X-2683794Y+322412D02*
X-2683794Y+222412D01*
X-2828794Y+322412D02*
X-2828794Y+222412D01*
X-2843794Y+272412D02*
X-2898794Y+217412D01*
X-2898794Y+327412D01*
X-2843794Y+272412D01*
X-2637904Y+230892D02*
X-2637904Y+291852D01*
X-2587104Y+291852D01*
X-2561704Y+271532D01*
X-2561704Y+251212D01*
X-2587104Y+230892D01*
X-2637904Y+230892D01*
X-2523604Y+291852D02*
X-2460104Y+291852D01*
X-2460104Y+281692D01*
X-2523604Y+230892D01*
X-2683794Y-1201588D02*
X-2683794Y-1301588D01*
X-2828794Y-1201588D02*
X-2828794Y-1301588D01*
X-2843794Y-1251588D02*
X-2898794Y-1306588D01*
X-2898794Y-1196588D01*
X-2843794Y-1251588D01*
X-2625204Y-1293108D02*
X-2625204Y-1232148D01*
X-2574404Y-1232148D01*
X-2549004Y-1252468D01*
X-2549004Y-1272788D01*
X-2574404Y-1293108D01*
X-2625204Y-1293108D01*
X-2498204Y-1262628D02*
X-2510904Y-1252468D01*
X-2510904Y-1242308D01*
X-2498204Y-1232148D01*
X-2460104Y-1232148D01*
X-2447404Y-1242308D01*
X-2447404Y-1252468D01*
X-2460104Y-1262628D01*
X-2498204Y-1262628D01*
X-2510904Y-1272788D01*
X-2510904Y-1282948D01*
X-2498204Y-1293108D01*
X-2460104Y-1293108D01*
X-2447404Y-1282948D01*
X-2447404Y-1272788D01*
X-2460104Y-1262628D01*
X-2830774Y-1500508D02*
X-2899354Y-1500508D01*
X-2830774Y-1378588D02*
X-2901894Y-1378588D01*
X-2647894Y-1478428D02*
X-2647894Y-1417468D01*
X-2584394Y-1417468D01*
X-2571694Y-1427628D01*
X-2571694Y-1437788D01*
X-2584394Y-1447948D01*
X-2647894Y-1447948D01*
X-2584394Y-1447948D02*
X-2571694Y-1458108D01*
X-2571694Y-1478428D01*
X-2533594Y-1427628D02*
X-2520894Y-1417468D01*
X-2482794Y-1417468D01*
X-2470094Y-1427628D01*
X-2470094Y-1437788D01*
X-2482794Y-1447948D01*
X-2470094Y-1458108D01*
X-2470094Y-1468268D01*
X-2482794Y-1478428D01*
X-2520894Y-1478428D01*
X-2533594Y-1468268D01*
X-2508194Y-1447948D02*
X-2482794Y-1447948D01*
X-2830774Y+785492D02*
X-2899354Y+785492D01*
X-2830774Y+907412D02*
X-2901894Y+907412D01*
X-2660594Y+807572D02*
X-2660594Y+868532D01*
X-2597094Y+868532D01*
X-2584394Y+858372D01*
X-2584394Y+848212D01*
X-2597094Y+838052D01*
X-2660594Y+838052D01*
X-2597094Y+838052D02*
X-2584394Y+827892D01*
X-2584394Y+807572D01*
X-2533594Y+848212D02*
X-2508194Y+868532D01*
X-2508194Y+807572D01*
X-2508194Y+807572D01*
X-2286000Y-2667000D02*
X-1270000Y-2667000D01*
X-1270000Y+7239000D01*
X-2286000Y+7239000D01*
X-2286000Y-2667000D01*
X-2062480Y+767080D02*
X-2131060Y+767080D01*
X-2062480Y+889000D02*
X-2133600Y+889000D01*
X-2184400Y+622300D02*
X-2174240Y+609600D01*
X-2174240Y+571500D01*
X-2194560Y+546100D01*
X-2214880Y+546100D01*
X-2235200Y+571500D01*
X-2235200Y+609600D01*
X-2225040Y+622300D01*
X-2214880Y+673100D02*
X-2235200Y+698500D01*
X-2174240Y+698500D01*
X-2062480Y+957580D02*
X-2131060Y+957580D01*
X-2062480Y+1079500D02*
X-2133600Y+1079500D01*
X-1828800Y+1130300D02*
X-1841500Y+1120140D01*
X-1879600Y+1120140D01*
X-1905000Y+1140460D01*
X-1905000Y+1160780D01*
X-1879600Y+1181100D01*
X-1841500Y+1181100D01*
X-1828800Y+1170940D01*
X-1790700Y+1170940D02*
X-1778000Y+1181100D01*
X-1739900Y+1181100D01*
X-1727200Y+1170940D01*
X-1727200Y+1160780D01*
X-1739900Y+1150620D01*
X-1778000Y+1150620D01*
X-1790700Y+1140460D01*
X-1790700Y+1120140D01*
X-1727200Y+1120140D01*
X-2062480Y+1148080D02*
X-2131060Y+1148080D01*
X-2062480Y+1270000D02*
X-2133600Y+1270000D01*
X-1828800Y+1244600D02*
X-1841500Y+1234440D01*
X-1879600Y+1234440D01*
X-1905000Y+1254760D01*
X-1905000Y+1275080D01*
X-1879600Y+1295400D01*
X-1841500Y+1295400D01*
X-1828800Y+1285240D01*
X-1790700Y+1285240D02*
X-1778000Y+1295400D01*
X-1739900Y+1295400D01*
X-1727200Y+1285240D01*
X-1727200Y+1275080D01*
X-1739900Y+1264920D01*
X-1727200Y+1254760D01*
X-1727200Y+1244600D01*
X-1739900Y+1234440D01*
X-1778000Y+1234440D01*
X-1790700Y+1244600D01*
X-1765300Y+1264920D02*
X-1739900Y+1264920D01*
X-2062480Y+5080D02*
X-2131060Y+5080D01*
X-2062480Y+127000D02*
X-2133600Y+127000D01*
X-2179320Y-134620D02*
X-2169160Y-147320D01*
X-2169160Y-185420D01*
X-2189480Y-210820D01*
X-2209800Y-210820D01*
X-2230120Y-185420D01*
X-2230120Y-147320D01*
X-2219960Y-134620D01*
X-2189480Y-33020D02*
X-2189480Y-109220D01*
X-2230120Y-58420D01*
X-2169160Y-58420D01*
X-2062480Y+195580D02*
X-2131060Y+195580D01*
X-2062480Y+317500D02*
X-2133600Y+317500D01*
X-1828800Y+365760D02*
X-1841500Y+355600D01*
X-1879600Y+355600D01*
X-1905000Y+375920D01*
X-1905000Y+396240D01*
X-1879600Y+416560D01*
X-1841500Y+416560D01*
X-1828800Y+406400D01*
X-1727200Y+416560D02*
X-1790700Y+416560D01*
X-1790700Y+396240D01*
X-1739900Y+396240D01*
X-1727200Y+386080D01*
X-1727200Y+365760D01*
X-1739900Y+355600D01*
X-1778000Y+355600D01*
X-1790700Y+365760D01*
X-2062480Y+386080D02*
X-2131060Y+386080D01*
X-2062480Y+508000D02*
X-2133600Y+508000D01*
X-1828800Y+480060D02*
X-1841500Y+469900D01*
X-1879600Y+469900D01*
X-1905000Y+490220D01*
X-1905000Y+510540D01*
X-1879600Y+530860D01*
X-1841500Y+530860D01*
X-1828800Y+520700D01*
X-1727200Y+520700D02*
X-1739900Y+530860D01*
X-1778000Y+530860D01*
X-1790700Y+520700D01*
X-1790700Y+480060D01*
X-1778000Y+469900D01*
X-1739900Y+469900D01*
X-1727200Y+480060D01*
X-1727200Y+490220D01*
X-1739900Y+500380D01*
X-1790700Y+500380D01*
X-2062480Y-1518920D02*
X-2131060Y-1518920D01*
X-2062480Y-1397000D02*
X-2133600Y-1397000D01*
X-2171700Y-1676400D02*
X-2161540Y-1689100D01*
X-2161540Y-1727200D01*
X-2181860Y-1752600D01*
X-2202180Y-1752600D01*
X-2222500Y-1727200D01*
X-2222500Y-1689100D01*
X-2212340Y-1676400D01*
X-2222500Y-1638300D02*
X-2222500Y-1574800D01*
X-2212340Y-1574800D01*
X-2161540Y-1638300D01*
X-2062480Y-1328420D02*
X-2131060Y-1328420D01*
X-2062480Y-1206500D02*
X-2133600Y-1206500D01*
X-1816100Y-1160781D02*
X-1828800Y-1170941D01*
X-1866900Y-1170941D01*
X-1892300Y-1150621D01*
X-1892300Y-1130301D01*
X-1866900Y-1109981D01*
X-1828800Y-1109981D01*
X-1816100Y-1120141D01*
X-1765300Y-1140461D02*
X-1778000Y-1130301D01*
X-1778000Y-1120141D01*
X-1765300Y-1109981D01*
X-1727200Y-1109981D01*
X-1714500Y-1120141D01*
X-1714500Y-1130301D01*
X-1727200Y-1140461D01*
X-1765300Y-1140461D01*
X-1778000Y-1150621D01*
X-1778000Y-1160781D01*
X-1765300Y-1170941D01*
X-1727200Y-1170941D01*
X-1714500Y-1160781D01*
X-1714500Y-1150621D01*
X-1727200Y-1140461D01*
X-2062480Y-1137920D02*
X-2131060Y-1137920D01*
X-2062480Y-1016000D02*
X-2133600Y-1016000D01*
X-1816100Y-1056640D02*
X-1828800Y-1066800D01*
X-1866900Y-1066800D01*
X-1892300Y-1046480D01*
X-1892300Y-1026160D01*
X-1866900Y-1005840D01*
X-1828800Y-1005840D01*
X-1816100Y-1016000D01*
X-1714500Y-1026160D02*
X-1727200Y-1036320D01*
X-1765300Y-1036320D01*
X-1778000Y-1026160D01*
X-1778000Y-1016000D01*
X-1765300Y-1005840D01*
X-1727200Y-1005840D01*
X-1714500Y-1016000D01*
X-1714500Y-1056640D01*
X-1727200Y-1066800D01*
X-1765300Y-1066800D01*
X-1982000Y+2310000D02*
X-2082000Y+2310000D01*
X-1982000Y+2505000D02*
X-2082000Y+2505000D01*
X-2032000Y+2520000D02*
X-2087000Y+2575000D01*
X-1977000Y+2575000D01*
X-2032000Y+2520000D01*
X-1872860Y+2460560D02*
X-1933820Y+2460560D01*
X-1933820Y+2511360D01*
X-1913500Y+2536760D01*
X-1893180Y+2536760D01*
X-1872860Y+2511360D01*
X-1872860Y+2460560D01*
X-1913500Y+2587560D02*
X-1933820Y+2612960D01*
X-1872860Y+2612960D01*
X-1728000Y+2310000D02*
X-1828000Y+2310000D01*
X-1728000Y+2505000D02*
X-1828000Y+2505000D01*
X-1778000Y+2520000D02*
X-1833000Y+2575000D01*
X-1723000Y+2575000D01*
X-1778000Y+2520000D01*
X-1606160Y+2447860D02*
X-1667120Y+2447860D01*
X-1667120Y+2498660D01*
X-1646800Y+2524060D01*
X-1626480Y+2524060D01*
X-1606160Y+2498660D01*
X-1606160Y+2447860D01*
X-1656960Y+2562160D02*
X-1667120Y+2574860D01*
X-1667120Y+2612960D01*
X-1656960Y+2625660D01*
X-1646800Y+2625660D01*
X-1636640Y+2612960D01*
X-1636640Y+2574860D01*
X-1626480Y+2562160D01*
X-1606160Y+2562160D01*
X-1606160Y+2625660D01*
X-1802000Y+1955000D02*
X-1802000Y+1855000D01*
X-1997000Y+1955000D02*
X-1997000Y+1855000D01*
X-2012000Y+1905000D02*
X-2067000Y+1850000D01*
X-2067000Y+1960000D01*
X-2012000Y+1905000D01*
X-1762060Y+1876180D02*
X-1762060Y+1937140D01*
X-1711260Y+1937140D01*
X-1685860Y+1916820D01*
X-1685860Y+1896500D01*
X-1711260Y+1876180D01*
X-1762060Y+1876180D01*
X-1647760Y+1926980D02*
X-1635060Y+1937140D01*
X-1596960Y+1937140D01*
X-1584260Y+1926980D01*
X-1584260Y+1916820D01*
X-1596960Y+1906660D01*
X-1584260Y+1896500D01*
X-1584260Y+1886340D01*
X-1596960Y+1876180D01*
X-1635060Y+1876180D01*
X-1647760Y+1886340D01*
X-1622360Y+1906660D02*
X-1596960Y+1906660D01*
X-1802000Y-585000D02*
X-1802000Y-685000D01*
X-1997000Y-585000D02*
X-1997000Y-685000D01*
X-2012000Y-635000D02*
X-2067000Y-690000D01*
X-2067000Y-580000D01*
X-2012000Y-635000D01*
X-1622360Y-689220D02*
X-1622360Y-628260D01*
X-1571560Y-628260D01*
X-1546160Y-648580D01*
X-1546160Y-668900D01*
X-1571560Y-689220D01*
X-1622360Y-689220D01*
X-1444560Y-668900D02*
X-1520760Y-668900D01*
X-1469960Y-628260D01*
X-1469960Y-689220D01*
X-1802000Y-2109000D02*
X-1802000Y-2209000D01*
X-1997000Y-2109000D02*
X-1997000Y-2209000D01*
X-2012000Y-2159000D02*
X-2067000Y-2214000D01*
X-2067000Y-2104000D01*
X-2012000Y-2159000D01*
X-1622360Y-2187820D02*
X-1622360Y-2126860D01*
X-1571560Y-2126860D01*
X-1546160Y-2147180D01*
X-1546160Y-2167500D01*
X-1571560Y-2187820D01*
X-1622360Y-2187820D01*
X-1444560Y-2126860D02*
X-1508060Y-2126860D01*
X-1508060Y-2147180D01*
X-1457260Y-2147180D01*
X-1444560Y-2157340D01*
X-1444560Y-2177660D01*
X-1457260Y-2187820D01*
X-1495360Y-2187820D01*
X-1508060Y-2177660D01*
X-2082000Y+1722900D02*
X-1982000Y+1722900D01*
X-2082000Y+1579100D02*
X-1982000Y+1579100D01*
X-2102863Y+1827040D02*
X-2102863Y+1766080D01*
X-2026663Y+1766080D01*
X-1975863Y+1806720D02*
X-1950463Y+1827040D01*
X-1950463Y+1766080D01*
X-2082000Y-309100D02*
X-1982000Y-309100D01*
X-2082000Y-452900D02*
X-1982000Y-452900D01*
X-2133600Y-217660D02*
X-2133600Y-278620D01*
X-2057400Y-278620D01*
X-2019300Y-227820D02*
X-2006600Y-217660D01*
X-1968500Y-217660D01*
X-1955800Y-227820D01*
X-1955800Y-237980D01*
X-1968500Y-248140D01*
X-2006600Y-248140D01*
X-2019300Y-258300D01*
X-2019300Y-278620D01*
X-1955800Y-278620D01*
X-2082000Y-1833100D02*
X-1982000Y-1833100D01*
X-2082000Y-1976900D02*
X-1982000Y-1976900D01*
X-2108200Y-1741660D02*
X-2108200Y-1802620D01*
X-2032000Y-1802620D01*
X-1993900Y-1751820D02*
X-1981200Y-1741660D01*
X-1943100Y-1741660D01*
X-1930400Y-1751820D01*
X-1930400Y-1761980D01*
X-1943100Y-1772140D01*
X-1930400Y-1782300D01*
X-1930400Y-1792460D01*
X-1943100Y-1802620D01*
X-1981200Y-1802620D01*
X-1993900Y-1792460D01*
X-1968500Y-1772140D02*
X-1943100Y-1772140D01*
X-1574000Y+1722900D02*
X-1474000Y+1722900D01*
X-1574000Y+1579100D02*
X-1474000Y+1579100D01*
X-1606548Y+1764275D02*
X-1606548Y+1825235D01*
X-1530348Y+1825235D01*
X-1606548Y+1794755D02*
X-1555748Y+1794755D01*
X-1479548Y+1804915D02*
X-1454148Y+1825235D01*
X-1454148Y+1764275D01*
X-1574000Y-309100D02*
X-1474000Y-309100D01*
X-1574000Y-452900D02*
X-1474000Y-452900D01*
X-1625600Y-570720D02*
X-1625600Y-509760D01*
X-1549400Y-509760D01*
X-1625600Y-540240D02*
X-1574800Y-540240D01*
X-1511300Y-519920D02*
X-1498600Y-509760D01*
X-1460500Y-509760D01*
X-1447800Y-519920D01*
X-1447800Y-530080D01*
X-1460500Y-540240D01*
X-1498600Y-540240D01*
X-1511300Y-550400D01*
X-1511300Y-570720D01*
X-1447800Y-570720D01*
X-1574000Y-1833100D02*
X-1474000Y-1833100D01*
X-1574000Y-1976900D02*
X-1474000Y-1976900D01*
X-1625600Y-2082020D02*
X-1625600Y-2021060D01*
X-1549400Y-2021060D01*
X-1625600Y-2051540D02*
X-1574800Y-2051540D01*
X-1511300Y-2031220D02*
X-1498600Y-2021060D01*
X-1460500Y-2021060D01*
X-1447800Y-2031220D01*
X-1447800Y-2041380D01*
X-1460500Y-2051540D01*
X-1447800Y-2061700D01*
X-1447800Y-2071860D01*
X-1460500Y-2082020D01*
X-1498600Y-2082020D01*
X-1511300Y-2071860D01*
X-1485900Y-2051540D02*
X-1460500Y-2051540D01*
X-1681480Y+5080D02*
X-1750060Y+5080D01*
X-1681480Y+127000D02*
X-1752600Y+127000D01*
X-1498600Y+27160D02*
X-1498600Y+88120D01*
X-1435100Y+88120D01*
X-1422400Y+77960D01*
X-1422400Y+67800D01*
X-1435100Y+57640D01*
X-1498600Y+57640D01*
X-1435100Y+57640D02*
X-1422400Y+47480D01*
X-1422400Y+27160D01*
X-1384300Y+77960D02*
X-1371600Y+88120D01*
X-1333500Y+88120D01*
X-1320800Y+77960D01*
X-1320800Y+67800D01*
X-1333500Y+57640D01*
X-1371600Y+57640D01*
X-1384300Y+47480D01*
X-1384300Y+27160D01*
X-1320800Y+27160D01*
X-1534500Y+1066000D02*
X-1534500Y+966000D01*
X-1679500Y+1066000D02*
X-1679500Y+966000D01*
X-1694500Y+1016000D02*
X-1749500Y+961000D01*
X-1749500Y+1071000D01*
X-1694500Y+1016000D01*
X-1501310Y+987180D02*
X-1501310Y+1048140D01*
X-1450510Y+1048140D01*
X-1425110Y+1027820D01*
X-1425110Y+1007500D01*
X-1450510Y+987180D01*
X-1501310Y+987180D01*
X-1323510Y+1037980D02*
X-1336210Y+1048140D01*
X-1374310Y+1048140D01*
X-1387010Y+1037980D01*
X-1387010Y+997340D01*
X-1374310Y+987180D01*
X-1336210Y+987180D01*
X-1323510Y+997340D01*
X-1323510Y+1007500D01*
X-1336210Y+1017660D01*
X-1387010Y+1017660D01*
X-1534500Y+304000D02*
X-1534500Y+204000D01*
X-1679500Y+304000D02*
X-1679500Y+204000D01*
X-1694500Y+254000D02*
X-1749500Y+199000D01*
X-1749500Y+309000D01*
X-1694500Y+254000D01*
X-1488610Y+212480D02*
X-1488610Y+273440D01*
X-1437810Y+273440D01*
X-1412410Y+253120D01*
X-1412410Y+232800D01*
X-1437810Y+212480D01*
X-1488610Y+212480D01*
X-1374310Y+273440D02*
X-1310810Y+273440D01*
X-1310810Y+263280D01*
X-1374310Y+212480D01*
X-1534500Y-1220000D02*
X-1534500Y-1320000D01*
X-1679500Y-1220000D02*
X-1679500Y-1320000D01*
X-1694500Y-1270000D02*
X-1749500Y-1325000D01*
X-1749500Y-1215000D01*
X-1694500Y-1270000D01*
X-1475910Y-1311520D02*
X-1475910Y-1250560D01*
X-1425110Y-1250560D01*
X-1399710Y-1270880D01*
X-1399710Y-1291200D01*
X-1425110Y-1311520D01*
X-1475910Y-1311520D01*
X-1348910Y-1281040D02*
X-1361610Y-1270880D01*
X-1361610Y-1260720D01*
X-1348910Y-1250560D01*
X-1310810Y-1250560D01*
X-1298110Y-1260720D01*
X-1298110Y-1270880D01*
X-1310810Y-1281040D01*
X-1348910Y-1281040D01*
X-1361610Y-1291200D01*
X-1361610Y-1301360D01*
X-1348910Y-1311520D01*
X-1310810Y-1311520D01*
X-1298110Y-1301360D01*
X-1298110Y-1291200D01*
X-1310810Y-1281040D01*
X-1681480Y-1518920D02*
X-1750060Y-1518920D01*
X-1681480Y-1397000D02*
X-1752600Y-1397000D01*
X-1498600Y-1496840D02*
X-1498600Y-1435880D01*
X-1435100Y-1435880D01*
X-1422400Y-1446040D01*
X-1422400Y-1456200D01*
X-1435100Y-1466360D01*
X-1498600Y-1466360D01*
X-1435100Y-1466360D02*
X-1422400Y-1476520D01*
X-1422400Y-1496840D01*
X-1384300Y-1446040D02*
X-1371600Y-1435880D01*
X-1333500Y-1435880D01*
X-1320800Y-1446040D01*
X-1320800Y-1456200D01*
X-1333500Y-1466360D01*
X-1320800Y-1476520D01*
X-1320800Y-1486680D01*
X-1333500Y-1496840D01*
X-1371600Y-1496840D01*
X-1384300Y-1486680D01*
X-1358900Y-1466360D02*
X-1333500Y-1466360D01*
X-1681480Y+767080D02*
X-1750060Y+767080D01*
X-1681480Y+889000D02*
X-1752600Y+889000D01*
X-1511300Y+789160D02*
X-1511300Y+850120D01*
X-1447800Y+850120D01*
X-1435100Y+839960D01*
X-1435100Y+829800D01*
X-1447800Y+819640D01*
X-1511300Y+819640D01*
X-1447800Y+819640D02*
X-1435100Y+809480D01*
X-1435100Y+789160D01*
X-1384300Y+829800D02*
X-1358900Y+850120D01*
X-1358900Y+789160D01*
X-1358900Y+789160D01*
X-1143000Y-2667000D02*
X-127000Y-2667000D01*
X-127000Y+7239000D01*
X-1143000Y+7239000D01*
X-1143000Y-2667000D01*
X-919480Y+767080D02*
X-988060Y+767080D01*
X-919480Y+889000D02*
X-990600Y+889000D01*
X-1041400Y+622300D02*
X-1031240Y+609600D01*
X-1031240Y+571500D01*
X-1051560Y+546100D01*
X-1071880Y+546100D01*
X-1092200Y+571500D01*
X-1092200Y+609600D01*
X-1082040Y+622300D01*
X-1071880Y+673100D02*
X-1092200Y+698500D01*
X-1031240Y+698500D01*
X-919480Y+957580D02*
X-988060Y+957580D01*
X-919480Y+1079500D02*
X-990600Y+1079500D01*
X-685800Y+1130300D02*
X-698500Y+1120140D01*
X-736600Y+1120140D01*
X-762000Y+1140460D01*
X-762000Y+1160780D01*
X-736600Y+1181100D01*
X-698500Y+1181100D01*
X-685800Y+1170940D01*
X-647700Y+1170940D02*
X-635000Y+1181100D01*
X-596900Y+1181100D01*
X-584200Y+1170940D01*
X-584200Y+1160780D01*
X-596900Y+1150620D01*
X-635000Y+1150620D01*
X-647700Y+1140460D01*
X-647700Y+1120140D01*
X-584200Y+1120140D01*
X-919480Y+1148080D02*
X-988060Y+1148080D01*
X-919480Y+1270000D02*
X-990600Y+1270000D01*
X-685800Y+1244600D02*
X-698500Y+1234440D01*
X-736600Y+1234440D01*
X-762000Y+1254760D01*
X-762000Y+1275080D01*
X-736600Y+1295400D01*
X-698500Y+1295400D01*
X-685800Y+1285240D01*
X-647700Y+1285240D02*
X-635000Y+1295400D01*
X-596900Y+1295400D01*
X-584200Y+1285240D01*
X-584200Y+1275080D01*
X-596900Y+1264920D01*
X-584200Y+1254760D01*
X-584200Y+1244600D01*
X-596900Y+1234440D01*
X-635000Y+1234440D01*
X-647700Y+1244600D01*
X-622300Y+1264920D02*
X-596900Y+1264920D01*
X-919480Y+5080D02*
X-988060Y+5080D01*
X-919480Y+127000D02*
X-990600Y+127000D01*
X-1036320Y-134620D02*
X-1026160Y-147320D01*
X-1026160Y-185420D01*
X-1046480Y-210820D01*
X-1066800Y-210820D01*
X-1087120Y-185420D01*
X-1087120Y-147320D01*
X-1076960Y-134620D01*
X-1046480Y-33020D02*
X-1046480Y-109220D01*
X-1087120Y-58420D01*
X-1026160Y-58420D01*
X-919480Y+195580D02*
X-988060Y+195580D01*
X-919480Y+317500D02*
X-990600Y+317500D01*
X-685800Y+365760D02*
X-698500Y+355600D01*
X-736600Y+355600D01*
X-762000Y+375920D01*
X-762000Y+396240D01*
X-736600Y+416560D01*
X-698500Y+416560D01*
X-685800Y+406400D01*
X-584200Y+416560D02*
X-647700Y+416560D01*
X-647700Y+396240D01*
X-596900Y+396240D01*
X-584200Y+386080D01*
X-584200Y+365760D01*
X-596900Y+355600D01*
X-635000Y+355600D01*
X-647700Y+365760D01*
X-919480Y+386080D02*
X-988060Y+386080D01*
X-919480Y+508000D02*
X-990600Y+508000D01*
X-685800Y+480060D02*
X-698500Y+469900D01*
X-736600Y+469900D01*
X-762000Y+490220D01*
X-762000Y+510540D01*
X-736600Y+530860D01*
X-698500Y+530860D01*
X-685800Y+520700D01*
X-584200Y+520700D02*
X-596900Y+530860D01*
X-635000Y+530860D01*
X-647700Y+520700D01*
X-647700Y+480060D01*
X-635000Y+469900D01*
X-596900Y+469900D01*
X-584200Y+480060D01*
X-584200Y+490220D01*
X-596900Y+500380D01*
X-647700Y+500380D01*
X-919480Y-1518920D02*
X-988060Y-1518920D01*
X-919480Y-1397000D02*
X-990600Y-1397000D01*
X-1028700Y-1676400D02*
X-1018540Y-1689100D01*
X-1018540Y-1727200D01*
X-1038860Y-1752600D01*
X-1059180Y-1752600D01*
X-1079500Y-1727200D01*
X-1079500Y-1689100D01*
X-1069340Y-1676400D01*
X-1079500Y-1638300D02*
X-1079500Y-1574800D01*
X-1069340Y-1574800D01*
X-1018540Y-1638300D01*
X-919480Y-1328420D02*
X-988060Y-1328420D01*
X-919480Y-1206500D02*
X-990600Y-1206500D01*
X-673100Y-1160781D02*
X-685800Y-1170941D01*
X-723900Y-1170941D01*
X-749300Y-1150621D01*
X-749300Y-1130301D01*
X-723900Y-1109981D01*
X-685800Y-1109981D01*
X-673100Y-1120141D01*
X-622300Y-1140461D02*
X-635000Y-1130301D01*
X-635000Y-1120141D01*
X-622300Y-1109981D01*
X-584200Y-1109981D01*
X-571500Y-1120141D01*
X-571500Y-1130301D01*
X-584200Y-1140461D01*
X-622300Y-1140461D01*
X-635000Y-1150621D01*
X-635000Y-1160781D01*
X-622300Y-1170941D01*
X-584200Y-1170941D01*
X-571500Y-1160781D01*
X-571500Y-1150621D01*
X-584200Y-1140461D01*
X-919480Y-1137920D02*
X-988060Y-1137920D01*
X-919480Y-1016000D02*
X-990600Y-1016000D01*
X-673100Y-1056640D02*
X-685800Y-1066800D01*
X-723900Y-1066800D01*
X-749300Y-1046480D01*
X-749300Y-1026160D01*
X-723900Y-1005840D01*
X-685800Y-1005840D01*
X-673100Y-1016000D01*
X-571500Y-1026160D02*
X-584200Y-1036320D01*
X-622300Y-1036320D01*
X-635000Y-1026160D01*
X-635000Y-1016000D01*
X-622300Y-1005840D01*
X-584200Y-1005840D01*
X-571500Y-1016000D01*
X-571500Y-1056640D01*
X-584200Y-1066800D01*
X-622300Y-1066800D01*
X-839000Y+2310000D02*
X-939000Y+2310000D01*
X-839000Y+2505000D02*
X-939000Y+2505000D01*
X-889000Y+2520000D02*
X-944000Y+2575000D01*
X-834000Y+2575000D01*
X-889000Y+2520000D01*
X-729860Y+2460560D02*
X-790820Y+2460560D01*
X-790820Y+2511360D01*
X-770500Y+2536760D01*
X-750180Y+2536760D01*
X-729860Y+2511360D01*
X-729860Y+2460560D01*
X-770500Y+2587560D02*
X-790820Y+2612960D01*
X-729860Y+2612960D01*
X-585000Y+2310000D02*
X-685000Y+2310000D01*
X-585000Y+2505000D02*
X-685000Y+2505000D01*
X-635000Y+2520000D02*
X-690000Y+2575000D01*
X-580000Y+2575000D01*
X-635000Y+2520000D01*
X-463160Y+2447860D02*
X-524120Y+2447860D01*
X-524120Y+2498660D01*
X-503800Y+2524060D01*
X-483480Y+2524060D01*
X-463160Y+2498660D01*
X-463160Y+2447860D01*
X-513960Y+2562160D02*
X-524120Y+2574860D01*
X-524120Y+2612960D01*
X-513960Y+2625660D01*
X-503800Y+2625660D01*
X-493640Y+2612960D01*
X-493640Y+2574860D01*
X-483480Y+2562160D01*
X-463160Y+2562160D01*
X-463160Y+2625660D01*
X-659000Y+1955000D02*
X-659000Y+1855000D01*
X-854000Y+1955000D02*
X-854000Y+1855000D01*
X-869000Y+1905000D02*
X-924000Y+1850000D01*
X-924000Y+1960000D01*
X-869000Y+1905000D01*
X-619060Y+1876180D02*
X-619060Y+1937140D01*
X-568260Y+1937140D01*
X-542860Y+1916820D01*
X-542860Y+1896500D01*
X-568260Y+1876180D01*
X-619060Y+1876180D01*
X-504760Y+1926980D02*
X-492060Y+1937140D01*
X-453960Y+1937140D01*
X-441260Y+1926980D01*
X-441260Y+1916820D01*
X-453960Y+1906660D01*
X-441260Y+1896500D01*
X-441260Y+1886340D01*
X-453960Y+1876180D01*
X-492060Y+1876180D01*
X-504760Y+1886340D01*
X-479360Y+1906660D02*
X-453960Y+1906660D01*
X-659000Y-585000D02*
X-659000Y-685000D01*
X-854000Y-585000D02*
X-854000Y-685000D01*
X-869000Y-635000D02*
X-924000Y-690000D01*
X-924000Y-580000D01*
X-869000Y-635000D01*
X-479360Y-689220D02*
X-479360Y-628260D01*
X-428560Y-628260D01*
X-403160Y-648580D01*
X-403160Y-668900D01*
X-428560Y-689220D01*
X-479360Y-689220D01*
X-301560Y-668900D02*
X-377760Y-668900D01*
X-326960Y-628260D01*
X-326960Y-689220D01*
X-659000Y-2109000D02*
X-659000Y-2209000D01*
X-854000Y-2109000D02*
X-854000Y-2209000D01*
X-869000Y-2159000D02*
X-924000Y-2214000D01*
X-924000Y-2104000D01*
X-869000Y-2159000D01*
X-479360Y-2187820D02*
X-479360Y-2126860D01*
X-428560Y-2126860D01*
X-403160Y-2147180D01*
X-403160Y-2167500D01*
X-428560Y-2187820D01*
X-479360Y-2187820D01*
X-301560Y-2126860D02*
X-365060Y-2126860D01*
X-365060Y-2147180D01*
X-314260Y-2147180D01*
X-301560Y-2157340D01*
X-301560Y-2177660D01*
X-314260Y-2187820D01*
X-352360Y-2187820D01*
X-365060Y-2177660D01*
X-939000Y+1722900D02*
X-839000Y+1722900D01*
X-939000Y+1579100D02*
X-839000Y+1579100D01*
X-959863Y+1827040D02*
X-959863Y+1766080D01*
X-883663Y+1766080D01*
X-832863Y+1806720D02*
X-807463Y+1827040D01*
X-807463Y+1766080D01*
X-939000Y-309100D02*
X-839000Y-309100D01*
X-939000Y-452900D02*
X-839000Y-452900D01*
X-990600Y-217660D02*
X-990600Y-278620D01*
X-914400Y-278620D01*
X-876300Y-227820D02*
X-863600Y-217660D01*
X-825500Y-217660D01*
X-812800Y-227820D01*
X-812800Y-237980D01*
X-825500Y-248140D01*
X-863600Y-248140D01*
X-876300Y-258300D01*
X-876300Y-278620D01*
X-812800Y-278620D01*
X-939000Y-1833100D02*
X-839000Y-1833100D01*
X-939000Y-1976900D02*
X-839000Y-1976900D01*
X-965200Y-1741660D02*
X-965200Y-1802620D01*
X-889000Y-1802620D01*
X-850900Y-1751820D02*
X-838200Y-1741660D01*
X-800100Y-1741660D01*
X-787400Y-1751820D01*
X-787400Y-1761980D01*
X-800100Y-1772140D01*
X-787400Y-1782300D01*
X-787400Y-1792460D01*
X-800100Y-1802620D01*
X-838200Y-1802620D01*
X-850900Y-1792460D01*
X-825500Y-1772140D02*
X-800100Y-1772140D01*
X-431000Y+1722900D02*
X-331000Y+1722900D01*
X-431000Y+1579100D02*
X-331000Y+1579100D01*
X-463548Y+1764275D02*
X-463548Y+1825235D01*
X-387348Y+1825235D01*
X-463548Y+1794755D02*
X-412748Y+1794755D01*
X-336548Y+1804915D02*
X-311148Y+1825235D01*
X-311148Y+1764275D01*
X-431000Y-309100D02*
X-331000Y-309100D01*
X-431000Y-452900D02*
X-331000Y-452900D01*
X-482600Y-570720D02*
X-482600Y-509760D01*
X-406400Y-509760D01*
X-482600Y-540240D02*
X-431800Y-540240D01*
X-368300Y-519920D02*
X-355600Y-509760D01*
X-317500Y-509760D01*
X-304800Y-519920D01*
X-304800Y-530080D01*
X-317500Y-540240D01*
X-355600Y-540240D01*
X-368300Y-550400D01*
X-368300Y-570720D01*
X-304800Y-570720D01*
X-431000Y-1833100D02*
X-331000Y-1833100D01*
X-431000Y-1976900D02*
X-331000Y-1976900D01*
X-482600Y-2082020D02*
X-482600Y-2021060D01*
X-406400Y-2021060D01*
X-482600Y-2051540D02*
X-431800Y-2051540D01*
X-368300Y-2031220D02*
X-355600Y-2021060D01*
X-317500Y-2021060D01*
X-304800Y-2031220D01*
X-304800Y-2041380D01*
X-317500Y-2051540D01*
X-304800Y-2061700D01*
X-304800Y-2071860D01*
X-317500Y-2082020D01*
X-355600Y-2082020D01*
X-368300Y-2071860D01*
X-342900Y-2051540D02*
X-317500Y-2051540D01*
X-538480Y+5080D02*
X-607060Y+5080D01*
X-538480Y+127000D02*
X-609600Y+127000D01*
X-355600Y+27160D02*
X-355600Y+88120D01*
X-292100Y+88120D01*
X-279400Y+77960D01*
X-279400Y+67800D01*
X-292100Y+57640D01*
X-355600Y+57640D01*
X-292100Y+57640D02*
X-279400Y+47480D01*
X-279400Y+27160D01*
X-241300Y+77960D02*
X-228600Y+88120D01*
X-190500Y+88120D01*
X-177800Y+77960D01*
X-177800Y+67800D01*
X-190500Y+57640D01*
X-228600Y+57640D01*
X-241300Y+47480D01*
X-241300Y+27160D01*
X-177800Y+27160D01*
X-391500Y+1066000D02*
X-391500Y+966000D01*
X-536500Y+1066000D02*
X-536500Y+966000D01*
X-551500Y+1016000D02*
X-606500Y+961000D01*
X-606500Y+1071000D01*
X-551500Y+1016000D01*
X-358310Y+987180D02*
X-358310Y+1048140D01*
X-307510Y+1048140D01*
X-282110Y+1027820D01*
X-282110Y+1007500D01*
X-307510Y+987180D01*
X-358310Y+987180D01*
X-180510Y+1037980D02*
X-193210Y+1048140D01*
X-231310Y+1048140D01*
X-244010Y+1037980D01*
X-244010Y+997340D01*
X-231310Y+987180D01*
X-193210Y+987180D01*
X-180510Y+997340D01*
X-180510Y+1007500D01*
X-193210Y+1017660D01*
X-244010Y+1017660D01*
X-391500Y+304000D02*
X-391500Y+204000D01*
X-536500Y+304000D02*
X-536500Y+204000D01*
X-551500Y+254000D02*
X-606500Y+199000D01*
X-606500Y+309000D01*
X-551500Y+254000D01*
X-345610Y+212480D02*
X-345610Y+273440D01*
X-294810Y+273440D01*
X-269410Y+253120D01*
X-269410Y+232800D01*
X-294810Y+212480D01*
X-345610Y+212480D01*
X-231310Y+273440D02*
X-167810Y+273440D01*
X-167810Y+263280D01*
X-231310Y+212480D01*
X-391500Y-1220000D02*
X-391500Y-1320000D01*
X-536500Y-1220000D02*
X-536500Y-1320000D01*
X-551500Y-1270000D02*
X-606500Y-1325000D01*
X-606500Y-1215000D01*
X-551500Y-1270000D01*
X-332910Y-1311520D02*
X-332910Y-1250560D01*
X-282110Y-1250560D01*
X-256710Y-1270880D01*
X-256710Y-1291200D01*
X-282110Y-1311520D01*
X-332910Y-1311520D01*
X-205910Y-1281040D02*
X-218610Y-1270880D01*
X-218610Y-1260720D01*
X-205910Y-1250560D01*
X-167810Y-1250560D01*
X-155110Y-1260720D01*
X-155110Y-1270880D01*
X-167810Y-1281040D01*
X-205910Y-1281040D01*
X-218610Y-1291200D01*
X-218610Y-1301360D01*
X-205910Y-1311520D01*
X-167810Y-1311520D01*
X-155110Y-1301360D01*
X-155110Y-1291200D01*
X-167810Y-1281040D01*
X-538480Y-1518920D02*
X-607060Y-1518920D01*
X-538480Y-1397000D02*
X-609600Y-1397000D01*
X-355600Y-1496840D02*
X-355600Y-1435880D01*
X-292100Y-1435880D01*
X-279400Y-1446040D01*
X-279400Y-1456200D01*
X-292100Y-1466360D01*
X-355600Y-1466360D01*
X-292100Y-1466360D02*
X-279400Y-1476520D01*
X-279400Y-1496840D01*
X-241300Y-1446040D02*
X-228600Y-1435880D01*
X-190500Y-1435880D01*
X-177800Y-1446040D01*
X-177800Y-1456200D01*
X-190500Y-1466360D01*
X-177800Y-1476520D01*
X-177800Y-1486680D01*
X-190500Y-1496840D01*
X-228600Y-1496840D01*
X-241300Y-1486680D01*
X-215900Y-1466360D02*
X-190500Y-1466360D01*
X-538480Y+767080D02*
X-607060Y+767080D01*
X-538480Y+889000D02*
X-609600Y+889000D01*
X-368300Y+789160D02*
X-368300Y+850120D01*
X-304800Y+850120D01*
X-292100Y+839960D01*
X-292100Y+829800D01*
X-304800Y+819640D01*
X-368300Y+819640D01*
X-304800Y+819640D02*
X-292100Y+809480D01*
X-292100Y+789160D01*
X-241300Y+829800D02*
X-215900Y+850120D01*
X-215900Y+789160D01*
X-215900Y+789160D01*
X+0Y-2667000D02*
X+1016000Y-2667000D01*
X+1016000Y+7239000D01*
X+0Y+7239000D01*
X+0Y-2667000D01*
X+223520Y+767080D02*
X+154940Y+767080D01*
X+223520Y+889000D02*
X+152400Y+889000D01*
X+101600Y+622300D02*
X+111760Y+609600D01*
X+111760Y+571500D01*
X+91440Y+546100D01*
X+71120Y+546100D01*
X+50800Y+571500D01*
X+50800Y+609600D01*
X+60960Y+622300D01*
X+71120Y+673100D02*
X+50800Y+698500D01*
X+111760Y+698500D01*
X+223520Y+957580D02*
X+154940Y+957580D01*
X+223520Y+1079500D02*
X+152400Y+1079500D01*
X+457200Y+1130300D02*
X+444500Y+1120140D01*
X+406400Y+1120140D01*
X+381000Y+1140460D01*
X+381000Y+1160780D01*
X+406400Y+1181100D01*
X+444500Y+1181100D01*
X+457200Y+1170940D01*
X+495300Y+1170940D02*
X+508000Y+1181100D01*
X+546100Y+1181100D01*
X+558800Y+1170940D01*
X+558800Y+1160780D01*
X+546100Y+1150620D01*
X+508000Y+1150620D01*
X+495300Y+1140460D01*
X+495300Y+1120140D01*
X+558800Y+1120140D01*
X+223520Y+1148080D02*
X+154940Y+1148080D01*
X+223520Y+1270000D02*
X+152400Y+1270000D01*
X+457200Y+1244600D02*
X+444500Y+1234440D01*
X+406400Y+1234440D01*
X+381000Y+1254760D01*
X+381000Y+1275080D01*
X+406400Y+1295400D01*
X+444500Y+1295400D01*
X+457200Y+1285240D01*
X+495300Y+1285240D02*
X+508000Y+1295400D01*
X+546100Y+1295400D01*
X+558800Y+1285240D01*
X+558800Y+1275080D01*
X+546100Y+1264920D01*
X+558800Y+1254760D01*
X+558800Y+1244600D01*
X+546100Y+1234440D01*
X+508000Y+1234440D01*
X+495300Y+1244600D01*
X+520700Y+1264920D02*
X+546100Y+1264920D01*
X+223520Y+5080D02*
X+154940Y+5080D01*
X+223520Y+127000D02*
X+152400Y+127000D01*
X+106680Y-134620D02*
X+116840Y-147320D01*
X+116840Y-185420D01*
X+96520Y-210820D01*
X+76200Y-210820D01*
X+55880Y-185420D01*
X+55880Y-147320D01*
X+66040Y-134620D01*
X+96520Y-33020D02*
X+96520Y-109220D01*
X+55880Y-58420D01*
X+116840Y-58420D01*
X+223520Y+195580D02*
X+154940Y+195580D01*
X+223520Y+317500D02*
X+152400Y+317500D01*
X+457200Y+365760D02*
X+444500Y+355600D01*
X+406400Y+355600D01*
X+381000Y+375920D01*
X+381000Y+396240D01*
X+406400Y+416560D01*
X+444500Y+416560D01*
X+457200Y+406400D01*
X+558800Y+416560D02*
X+495300Y+416560D01*
X+495300Y+396240D01*
X+546100Y+396240D01*
X+558800Y+386080D01*
X+558800Y+365760D01*
X+546100Y+355600D01*
X+508000Y+355600D01*
X+495300Y+365760D01*
X+223520Y+386080D02*
X+154940Y+386080D01*
X+223520Y+508000D02*
X+152400Y+508000D01*
X+457200Y+480060D02*
X+444500Y+469900D01*
X+406400Y+469900D01*
X+381000Y+490220D01*
X+381000Y+510540D01*
X+406400Y+530860D01*
X+444500Y+530860D01*
X+457200Y+520700D01*
X+558800Y+520700D02*
X+546100Y+530860D01*
X+508000Y+530860D01*
X+495300Y+520700D01*
X+495300Y+480060D01*
X+508000Y+469900D01*
X+546100Y+469900D01*
X+558800Y+480060D01*
X+558800Y+490220D01*
X+546100Y+500380D01*
X+495300Y+500380D01*
X+223520Y-1518920D02*
X+154940Y-1518920D01*
X+223520Y-1397000D02*
X+152400Y-1397000D01*
X+114300Y-1676400D02*
X+124460Y-1689100D01*
X+124460Y-1727200D01*
X+104140Y-1752600D01*
X+83820Y-1752600D01*
X+63500Y-1727200D01*
X+63500Y-1689100D01*
X+73660Y-1676400D01*
X+63500Y-1638300D02*
X+63500Y-1574800D01*
X+73660Y-1574800D01*
X+124460Y-1638300D01*
X+223520Y-1328420D02*
X+154940Y-1328420D01*
X+223520Y-1206500D02*
X+152400Y-1206500D01*
X+469900Y-1160781D02*
X+457200Y-1170941D01*
X+419100Y-1170941D01*
X+393700Y-1150621D01*
X+393700Y-1130301D01*
X+419100Y-1109981D01*
X+457200Y-1109981D01*
X+469900Y-1120141D01*
X+520700Y-1140461D02*
X+508000Y-1130301D01*
X+508000Y-1120141D01*
X+520700Y-1109981D01*
X+558800Y-1109981D01*
X+571500Y-1120141D01*
X+571500Y-1130301D01*
X+558800Y-1140461D01*
X+520700Y-1140461D01*
X+508000Y-1150621D01*
X+508000Y-1160781D01*
X+520700Y-1170941D01*
X+558800Y-1170941D01*
X+571500Y-1160781D01*
X+571500Y-1150621D01*
X+558800Y-1140461D01*
X+223520Y-1137920D02*
X+154940Y-1137920D01*
X+223520Y-1016000D02*
X+152400Y-1016000D01*
X+469900Y-1056640D02*
X+457200Y-1066800D01*
X+419100Y-1066800D01*
X+393700Y-1046480D01*
X+393700Y-1026160D01*
X+419100Y-1005840D01*
X+457200Y-1005840D01*
X+469900Y-1016000D01*
X+571500Y-1026160D02*
X+558800Y-1036320D01*
X+520700Y-1036320D01*
X+508000Y-1026160D01*
X+508000Y-1016000D01*
X+520700Y-1005840D01*
X+558800Y-1005840D01*
X+571500Y-1016000D01*
X+571500Y-1056640D01*
X+558800Y-1066800D01*
X+520700Y-1066800D01*
X+304000Y+2310000D02*
X+204000Y+2310000D01*
X+304000Y+2505000D02*
X+204000Y+2505000D01*
X+254000Y+2520000D02*
X+199000Y+2575000D01*
X+309000Y+2575000D01*
X+254000Y+2520000D01*
X+413140Y+2460560D02*
X+352180Y+2460560D01*
X+352180Y+2511360D01*
X+372500Y+2536760D01*
X+392820Y+2536760D01*
X+413140Y+2511360D01*
X+413140Y+2460560D01*
X+372500Y+2587560D02*
X+352180Y+2612960D01*
X+413140Y+2612960D01*
X+558000Y+2310000D02*
X+458000Y+2310000D01*
X+558000Y+2505000D02*
X+458000Y+2505000D01*
X+508000Y+2520000D02*
X+453000Y+2575000D01*
X+563000Y+2575000D01*
X+508000Y+2520000D01*
X+679840Y+2447860D02*
X+618880Y+2447860D01*
X+618880Y+2498660D01*
X+639200Y+2524060D01*
X+659520Y+2524060D01*
X+679840Y+2498660D01*
X+679840Y+2447860D01*
X+629040Y+2562160D02*
X+618880Y+2574860D01*
X+618880Y+2612960D01*
X+629040Y+2625660D01*
X+639200Y+2625660D01*
X+649360Y+2612960D01*
X+649360Y+2574860D01*
X+659520Y+2562160D01*
X+679840Y+2562160D01*
X+679840Y+2625660D01*
X+484000Y+1955000D02*
X+484000Y+1855000D01*
X+289000Y+1955000D02*
X+289000Y+1855000D01*
X+274000Y+1905000D02*
X+219000Y+1850000D01*
X+219000Y+1960000D01*
X+274000Y+1905000D01*
X+523940Y+1876180D02*
X+523940Y+1937140D01*
X+574740Y+1937140D01*
X+600140Y+1916820D01*
X+600140Y+1896500D01*
X+574740Y+1876180D01*
X+523940Y+1876180D01*
X+638240Y+1926980D02*
X+650940Y+1937140D01*
X+689040Y+1937140D01*
X+701740Y+1926980D01*
X+701740Y+1916820D01*
X+689040Y+1906660D01*
X+701740Y+1896500D01*
X+701740Y+1886340D01*
X+689040Y+1876180D01*
X+650940Y+1876180D01*
X+638240Y+1886340D01*
X+663640Y+1906660D02*
X+689040Y+1906660D01*
X+484000Y-585000D02*
X+484000Y-685000D01*
X+289000Y-585000D02*
X+289000Y-685000D01*
X+274000Y-635000D02*
X+219000Y-690000D01*
X+219000Y-580000D01*
X+274000Y-635000D01*
X+663640Y-689220D02*
X+663640Y-628260D01*
X+714440Y-628260D01*
X+739840Y-648580D01*
X+739840Y-668900D01*
X+714440Y-689220D01*
X+663640Y-689220D01*
X+841440Y-668900D02*
X+765240Y-668900D01*
X+816040Y-628260D01*
X+816040Y-689220D01*
X+484000Y-2109000D02*
X+484000Y-2209000D01*
X+289000Y-2109000D02*
X+289000Y-2209000D01*
X+274000Y-2159000D02*
X+219000Y-2214000D01*
X+219000Y-2104000D01*
X+274000Y-2159000D01*
X+663640Y-2187820D02*
X+663640Y-2126860D01*
X+714440Y-2126860D01*
X+739840Y-2147180D01*
X+739840Y-2167500D01*
X+714440Y-2187820D01*
X+663640Y-2187820D01*
X+841440Y-2126860D02*
X+777940Y-2126860D01*
X+777940Y-2147180D01*
X+828740Y-2147180D01*
X+841440Y-2157340D01*
X+841440Y-2177660D01*
X+828740Y-2187820D01*
X+790640Y-2187820D01*
X+777940Y-2177660D01*
X+204000Y+1722900D02*
X+304000Y+1722900D01*
X+204000Y+1579100D02*
X+304000Y+1579100D01*
X+183137Y+1827040D02*
X+183137Y+1766080D01*
X+259337Y+1766080D01*
X+310137Y+1806720D02*
X+335537Y+1827040D01*
X+335537Y+1766080D01*
X+204000Y-309100D02*
X+304000Y-309100D01*
X+204000Y-452900D02*
X+304000Y-452900D01*
X+152400Y-217660D02*
X+152400Y-278620D01*
X+228600Y-278620D01*
X+266700Y-227820D02*
X+279400Y-217660D01*
X+317500Y-217660D01*
X+330200Y-227820D01*
X+330200Y-237980D01*
X+317500Y-248140D01*
X+279400Y-248140D01*
X+266700Y-258300D01*
X+266700Y-278620D01*
X+330200Y-278620D01*
X+204000Y-1833100D02*
X+304000Y-1833100D01*
X+204000Y-1976900D02*
X+304000Y-1976900D01*
X+177800Y-1741660D02*
X+177800Y-1802620D01*
X+254000Y-1802620D01*
X+292100Y-1751820D02*
X+304800Y-1741660D01*
X+342900Y-1741660D01*
X+355600Y-1751820D01*
X+355600Y-1761980D01*
X+342900Y-1772140D01*
X+355600Y-1782300D01*
X+355600Y-1792460D01*
X+342900Y-1802620D01*
X+304800Y-1802620D01*
X+292100Y-1792460D01*
X+317500Y-1772140D02*
X+342900Y-1772140D01*
X+712000Y+1722900D02*
X+812000Y+1722900D01*
X+712000Y+1579100D02*
X+812000Y+1579100D01*
X+679452Y+1764275D02*
X+679452Y+1825235D01*
X+755652Y+1825235D01*
X+679452Y+1794755D02*
X+730252Y+1794755D01*
X+806452Y+1804915D02*
X+831852Y+1825235D01*
X+831852Y+1764275D01*
X+712000Y-309100D02*
X+812000Y-309100D01*
X+712000Y-452900D02*
X+812000Y-452900D01*
X+660400Y-570720D02*
X+660400Y-509760D01*
X+736600Y-509760D01*
X+660400Y-540240D02*
X+711200Y-540240D01*
X+774700Y-519920D02*
X+787400Y-509760D01*
X+825500Y-509760D01*
X+838200Y-519920D01*
X+838200Y-530080D01*
X+825500Y-540240D01*
X+787400Y-540240D01*
X+774700Y-550400D01*
X+774700Y-570720D01*
X+838200Y-570720D01*
X+712000Y-1833100D02*
X+812000Y-1833100D01*
X+712000Y-1976900D02*
X+812000Y-1976900D01*
X+660400Y-2082020D02*
X+660400Y-2021060D01*
X+736600Y-2021060D01*
X+660400Y-2051540D02*
X+711200Y-2051540D01*
X+774700Y-2031220D02*
X+787400Y-2021060D01*
X+825500Y-2021060D01*
X+838200Y-2031220D01*
X+838200Y-2041380D01*
X+825500Y-2051540D01*
X+838200Y-2061700D01*
X+838200Y-2071860D01*
X+825500Y-2082020D01*
X+787400Y-2082020D01*
X+774700Y-2071860D01*
X+800100Y-2051540D02*
X+825500Y-2051540D01*
X+604520Y+5080D02*
X+535940Y+5080D01*
X+604520Y+127000D02*
X+533400Y+127000D01*
X+787400Y+27160D02*
X+787400Y+88120D01*
X+850900Y+88120D01*
X+863600Y+77960D01*
X+863600Y+67800D01*
X+850900Y+57640D01*
X+787400Y+57640D01*
X+850900Y+57640D02*
X+863600Y+47480D01*
X+863600Y+27160D01*
X+901700Y+77960D02*
X+914400Y+88120D01*
X+952500Y+88120D01*
X+965200Y+77960D01*
X+965200Y+67800D01*
X+952500Y+57640D01*
X+914400Y+57640D01*
X+901700Y+47480D01*
X+901700Y+27160D01*
X+965200Y+27160D01*
X+751500Y+1066000D02*
X+751500Y+966000D01*
X+606500Y+1066000D02*
X+606500Y+966000D01*
X+591500Y+1016000D02*
X+536500Y+961000D01*
X+536500Y+1071000D01*
X+591500Y+1016000D01*
X+784690Y+987180D02*
X+784690Y+1048140D01*
X+835490Y+1048140D01*
X+860890Y+1027820D01*
X+860890Y+1007500D01*
X+835490Y+987180D01*
X+784690Y+987180D01*
X+962490Y+1037980D02*
X+949790Y+1048140D01*
X+911690Y+1048140D01*
X+898990Y+1037980D01*
X+898990Y+997340D01*
X+911690Y+987180D01*
X+949790Y+987180D01*
X+962490Y+997340D01*
X+962490Y+1007500D01*
X+949790Y+1017660D01*
X+898990Y+1017660D01*
X+751500Y+304000D02*
X+751500Y+204000D01*
X+606500Y+304000D02*
X+606500Y+204000D01*
X+591500Y+254000D02*
X+536500Y+199000D01*
X+536500Y+309000D01*
X+591500Y+254000D01*
X+797390Y+212480D02*
X+797390Y+273440D01*
X+848190Y+273440D01*
X+873590Y+253120D01*
X+873590Y+232800D01*
X+848190Y+212480D01*
X+797390Y+212480D01*
X+911690Y+273440D02*
X+975190Y+273440D01*
X+975190Y+263280D01*
X+911690Y+212480D01*
X+751500Y-1220000D02*
X+751500Y-1320000D01*
X+606500Y-1220000D02*
X+606500Y-1320000D01*
X+591500Y-1270000D02*
X+536500Y-1325000D01*
X+536500Y-1215000D01*
X+591500Y-1270000D01*
X+810090Y-1311520D02*
X+810090Y-1250560D01*
X+860890Y-1250560D01*
X+886290Y-1270880D01*
X+886290Y-1291200D01*
X+860890Y-1311520D01*
X+810090Y-1311520D01*
X+937090Y-1281040D02*
X+924390Y-1270880D01*
X+924390Y-1260720D01*
X+937090Y-1250560D01*
X+975190Y-1250560D01*
X+987890Y-1260720D01*
X+987890Y-1270880D01*
X+975190Y-1281040D01*
X+937090Y-1281040D01*
X+924390Y-1291200D01*
X+924390Y-1301360D01*
X+937090Y-1311520D01*
X+975190Y-1311520D01*
X+987890Y-1301360D01*
X+987890Y-1291200D01*
X+975190Y-1281040D01*
X+604520Y-1518920D02*
X+535940Y-1518920D01*
X+604520Y-1397000D02*
X+533400Y-1397000D01*
X+787400Y-1496840D02*
X+787400Y-1435880D01*
X+850900Y-1435880D01*
X+863600Y-1446040D01*
X+863600Y-1456200D01*
X+850900Y-1466360D01*
X+787400Y-1466360D01*
X+850900Y-1466360D02*
X+863600Y-1476520D01*
X+863600Y-1496840D01*
X+901700Y-1446040D02*
X+914400Y-1435880D01*
X+952500Y-1435880D01*
X+965200Y-1446040D01*
X+965200Y-1456200D01*
X+952500Y-1466360D01*
X+965200Y-1476520D01*
X+965200Y-1486680D01*
X+952500Y-1496840D01*
X+914400Y-1496840D01*
X+901700Y-1486680D01*
X+927100Y-1466360D02*
X+952500Y-1466360D01*
X+604520Y+767080D02*
X+535940Y+767080D01*
X+604520Y+889000D02*
X+533400Y+889000D01*
X+774700Y+789160D02*
X+774700Y+850120D01*
X+838200Y+850120D01*
X+850900Y+839960D01*
X+850900Y+829800D01*
X+838200Y+819640D01*
X+774700Y+819640D01*
X+838200Y+819640D02*
X+850900Y+809480D01*
X+850900Y+789160D01*
X+901700Y+829800D02*
X+927100Y+850120D01*
X+927100Y+789160D01*
X+927100Y+789160D01*
X+1143000Y-2667000D02*
X+2159000Y-2667000D01*
X+2159000Y+7239000D01*
X+1143000Y+7239000D01*
X+1143000Y-2667000D01*
X+1366520Y+767080D02*
X+1297940Y+767080D01*
X+1366520Y+889000D02*
X+1295400Y+889000D01*
X+1244600Y+622300D02*
X+1254760Y+609600D01*
X+1254760Y+571500D01*
X+1234440Y+546100D01*
X+1214120Y+546100D01*
X+1193800Y+571500D01*
X+1193800Y+609600D01*
X+1203960Y+622300D01*
X+1214120Y+673100D02*
X+1193800Y+698500D01*
X+1254760Y+698500D01*
X+1366520Y+957580D02*
X+1297940Y+957580D01*
X+1366520Y+1079500D02*
X+1295400Y+1079500D01*
X+1600200Y+1130300D02*
X+1587500Y+1120140D01*
X+1549400Y+1120140D01*
X+1524000Y+1140460D01*
X+1524000Y+1160780D01*
X+1549400Y+1181100D01*
X+1587500Y+1181100D01*
X+1600200Y+1170940D01*
X+1638300Y+1170940D02*
X+1651000Y+1181100D01*
X+1689100Y+1181100D01*
X+1701800Y+1170940D01*
X+1701800Y+1160780D01*
X+1689100Y+1150620D01*
X+1651000Y+1150620D01*
X+1638300Y+1140460D01*
X+1638300Y+1120140D01*
X+1701800Y+1120140D01*
X+1366520Y+1148080D02*
X+1297940Y+1148080D01*
X+1366520Y+1270000D02*
X+1295400Y+1270000D01*
X+1600200Y+1244600D02*
X+1587500Y+1234440D01*
X+1549400Y+1234440D01*
X+1524000Y+1254760D01*
X+1524000Y+1275080D01*
X+1549400Y+1295400D01*
X+1587500Y+1295400D01*
X+1600200Y+1285240D01*
X+1638300Y+1285240D02*
X+1651000Y+1295400D01*
X+1689100Y+1295400D01*
X+1701800Y+1285240D01*
X+1701800Y+1275080D01*
X+1689100Y+1264920D01*
X+1701800Y+1254760D01*
X+1701800Y+1244600D01*
X+1689100Y+1234440D01*
X+1651000Y+1234440D01*
X+1638300Y+1244600D01*
X+1663700Y+1264920D02*
X+1689100Y+1264920D01*
X+1366520Y+5080D02*
X+1297940Y+5080D01*
X+1366520Y+127000D02*
X+1295400Y+127000D01*
X+1249680Y-134620D02*
X+1259840Y-147320D01*
X+1259840Y-185420D01*
X+1239520Y-210820D01*
X+1219200Y-210820D01*
X+1198880Y-185420D01*
X+1198880Y-147320D01*
X+1209040Y-134620D01*
X+1239520Y-33020D02*
X+1239520Y-109220D01*
X+1198880Y-58420D01*
X+1259840Y-58420D01*
X+1366520Y+195580D02*
X+1297940Y+195580D01*
X+1366520Y+317500D02*
X+1295400Y+317500D01*
X+1600200Y+365760D02*
X+1587500Y+355600D01*
X+1549400Y+355600D01*
X+1524000Y+375920D01*
X+1524000Y+396240D01*
X+1549400Y+416560D01*
X+1587500Y+416560D01*
X+1600200Y+406400D01*
X+1701800Y+416560D02*
X+1638300Y+416560D01*
X+1638300Y+396240D01*
X+1689100Y+396240D01*
X+1701800Y+386080D01*
X+1701800Y+365760D01*
X+1689100Y+355600D01*
X+1651000Y+355600D01*
X+1638300Y+365760D01*
X+1366520Y+386080D02*
X+1297940Y+386080D01*
X+1366520Y+508000D02*
X+1295400Y+508000D01*
X+1600200Y+480060D02*
X+1587500Y+469900D01*
X+1549400Y+469900D01*
X+1524000Y+490220D01*
X+1524000Y+510540D01*
X+1549400Y+530860D01*
X+1587500Y+530860D01*
X+1600200Y+520700D01*
X+1701800Y+520700D02*
X+1689100Y+530860D01*
X+1651000Y+530860D01*
X+1638300Y+520700D01*
X+1638300Y+480060D01*
X+1651000Y+469900D01*
X+1689100Y+469900D01*
X+1701800Y+480060D01*
X+1701800Y+490220D01*
X+1689100Y+500380D01*
X+1638300Y+500380D01*
X+1366520Y-1518920D02*
X+1297940Y-1518920D01*
X+1366520Y-1397000D02*
X+1295400Y-1397000D01*
X+1257300Y-1676400D02*
X+1267460Y-1689100D01*
X+1267460Y-1727200D01*
X+1247140Y-1752600D01*
X+1226820Y-1752600D01*
X+1206500Y-1727200D01*
X+1206500Y-1689100D01*
X+1216660Y-1676400D01*
X+1206500Y-1638300D02*
X+1206500Y-1574800D01*
X+1216660Y-1574800D01*
X+1267460Y-1638300D01*
X+1366520Y-1328420D02*
X+1297940Y-1328420D01*
X+1366520Y-1206500D02*
X+1295400Y-1206500D01*
X+1612900Y-1160781D02*
X+1600200Y-1170941D01*
X+1562100Y-1170941D01*
X+1536700Y-1150621D01*
X+1536700Y-1130301D01*
X+1562100Y-1109981D01*
X+1600200Y-1109981D01*
X+1612900Y-1120141D01*
X+1663700Y-1140461D02*
X+1651000Y-1130301D01*
X+1651000Y-1120141D01*
X+1663700Y-1109981D01*
X+1701800Y-1109981D01*
X+1714500Y-1120141D01*
X+1714500Y-1130301D01*
X+1701800Y-1140461D01*
X+1663700Y-1140461D01*
X+1651000Y-1150621D01*
X+1651000Y-1160781D01*
X+1663700Y-1170941D01*
X+1701800Y-1170941D01*
X+1714500Y-1160781D01*
X+1714500Y-1150621D01*
X+1701800Y-1140461D01*
X+1366520Y-1137920D02*
X+1297940Y-1137920D01*
X+1366520Y-1016000D02*
X+1295400Y-1016000D01*
X+1612900Y-1056640D02*
X+1600200Y-1066800D01*
X+1562100Y-1066800D01*
X+1536700Y-1046480D01*
X+1536700Y-1026160D01*
X+1562100Y-1005840D01*
X+1600200Y-1005840D01*
X+1612900Y-1016000D01*
X+1714500Y-1026160D02*
X+1701800Y-1036320D01*
X+1663700Y-1036320D01*
X+1651000Y-1026160D01*
X+1651000Y-1016000D01*
X+1663700Y-1005840D01*
X+1701800Y-1005840D01*
X+1714500Y-1016000D01*
X+1714500Y-1056640D01*
X+1701800Y-1066800D01*
X+1663700Y-1066800D01*
X+1447000Y+2310000D02*
X+1347000Y+2310000D01*
X+1447000Y+2505000D02*
X+1347000Y+2505000D01*
X+1397000Y+2520000D02*
X+1342000Y+2575000D01*
X+1452000Y+2575000D01*
X+1397000Y+2520000D01*
X+1556140Y+2460560D02*
X+1495180Y+2460560D01*
X+1495180Y+2511360D01*
X+1515500Y+2536760D01*
X+1535820Y+2536760D01*
X+1556140Y+2511360D01*
X+1556140Y+2460560D01*
X+1515500Y+2587560D02*
X+1495180Y+2612960D01*
X+1556140Y+2612960D01*
X+1701000Y+2310000D02*
X+1601000Y+2310000D01*
X+1701000Y+2505000D02*
X+1601000Y+2505000D01*
X+1651000Y+2520000D02*
X+1596000Y+2575000D01*
X+1706000Y+2575000D01*
X+1651000Y+2520000D01*
X+1822840Y+2447860D02*
X+1761880Y+2447860D01*
X+1761880Y+2498660D01*
X+1782200Y+2524060D01*
X+1802520Y+2524060D01*
X+1822840Y+2498660D01*
X+1822840Y+2447860D01*
X+1772040Y+2562160D02*
X+1761880Y+2574860D01*
X+1761880Y+2612960D01*
X+1772040Y+2625660D01*
X+1782200Y+2625660D01*
X+1792360Y+2612960D01*
X+1792360Y+2574860D01*
X+1802520Y+2562160D01*
X+1822840Y+2562160D01*
X+1822840Y+2625660D01*
X+1627000Y+1955000D02*
X+1627000Y+1855000D01*
X+1432000Y+1955000D02*
X+1432000Y+1855000D01*
X+1417000Y+1905000D02*
X+1362000Y+1850000D01*
X+1362000Y+1960000D01*
X+1417000Y+1905000D01*
X+1666940Y+1876180D02*
X+1666940Y+1937140D01*
X+1717740Y+1937140D01*
X+1743140Y+1916820D01*
X+1743140Y+1896500D01*
X+1717740Y+1876180D01*
X+1666940Y+1876180D01*
X+1781240Y+1926980D02*
X+1793940Y+1937140D01*
X+1832040Y+1937140D01*
X+1844740Y+1926980D01*
X+1844740Y+1916820D01*
X+1832040Y+1906660D01*
X+1844740Y+1896500D01*
X+1844740Y+1886340D01*
X+1832040Y+1876180D01*
X+1793940Y+1876180D01*
X+1781240Y+1886340D01*
X+1806640Y+1906660D02*
X+1832040Y+1906660D01*
X+1627000Y-585000D02*
X+1627000Y-685000D01*
X+1432000Y-585000D02*
X+1432000Y-685000D01*
X+1417000Y-635000D02*
X+1362000Y-690000D01*
X+1362000Y-580000D01*
X+1417000Y-635000D01*
X+1806640Y-689220D02*
X+1806640Y-628260D01*
X+1857440Y-628260D01*
X+1882840Y-648580D01*
X+1882840Y-668900D01*
X+1857440Y-689220D01*
X+1806640Y-689220D01*
X+1984440Y-668900D02*
X+1908240Y-668900D01*
X+1959040Y-628260D01*
X+1959040Y-689220D01*
X+1627000Y-2109000D02*
X+1627000Y-2209000D01*
X+1432000Y-2109000D02*
X+1432000Y-2209000D01*
X+1417000Y-2159000D02*
X+1362000Y-2214000D01*
X+1362000Y-2104000D01*
X+1417000Y-2159000D01*
X+1806640Y-2187820D02*
X+1806640Y-2126860D01*
X+1857440Y-2126860D01*
X+1882840Y-2147180D01*
X+1882840Y-2167500D01*
X+1857440Y-2187820D01*
X+1806640Y-2187820D01*
X+1984440Y-2126860D02*
X+1920940Y-2126860D01*
X+1920940Y-2147180D01*
X+1971740Y-2147180D01*
X+1984440Y-2157340D01*
X+1984440Y-2177660D01*
X+1971740Y-2187820D01*
X+1933640Y-2187820D01*
X+1920940Y-2177660D01*
X+1347000Y+1722900D02*
X+1447000Y+1722900D01*
X+1347000Y+1579100D02*
X+1447000Y+1579100D01*
X+1326137Y+1827040D02*
X+1326137Y+1766080D01*
X+1402337Y+1766080D01*
X+1453137Y+1806720D02*
X+1478537Y+1827040D01*
X+1478537Y+1766080D01*
X+1347000Y-309100D02*
X+1447000Y-309100D01*
X+1347000Y-452900D02*
X+1447000Y-452900D01*
X+1295400Y-217660D02*
X+1295400Y-278620D01*
X+1371600Y-278620D01*
X+1409700Y-227820D02*
X+1422400Y-217660D01*
X+1460500Y-217660D01*
X+1473200Y-227820D01*
X+1473200Y-237980D01*
X+1460500Y-248140D01*
X+1422400Y-248140D01*
X+1409700Y-258300D01*
X+1409700Y-278620D01*
X+1473200Y-278620D01*
X+1347000Y-1833100D02*
X+1447000Y-1833100D01*
X+1347000Y-1976900D02*
X+1447000Y-1976900D01*
X+1320800Y-1741660D02*
X+1320800Y-1802620D01*
X+1397000Y-1802620D01*
X+1435100Y-1751820D02*
X+1447800Y-1741660D01*
X+1485900Y-1741660D01*
X+1498600Y-1751820D01*
X+1498600Y-1761980D01*
X+1485900Y-1772140D01*
X+1498600Y-1782300D01*
X+1498600Y-1792460D01*
X+1485900Y-1802620D01*
X+1447800Y-1802620D01*
X+1435100Y-1792460D01*
X+1460500Y-1772140D02*
X+1485900Y-1772140D01*
X+1855000Y+1722900D02*
X+1955000Y+1722900D01*
X+1855000Y+1579100D02*
X+1955000Y+1579100D01*
X+1822452Y+1764275D02*
X+1822452Y+1825235D01*
X+1898652Y+1825235D01*
X+1822452Y+1794755D02*
X+1873252Y+1794755D01*
X+1949452Y+1804915D02*
X+1974852Y+1825235D01*
X+1974852Y+1764275D01*
X+1855000Y-309100D02*
X+1955000Y-309100D01*
X+1855000Y-452900D02*
X+1955000Y-452900D01*
X+1803400Y-570720D02*
X+1803400Y-509760D01*
X+1879600Y-509760D01*
X+1803400Y-540240D02*
X+1854200Y-540240D01*
X+1917700Y-519920D02*
X+1930400Y-509760D01*
X+1968500Y-509760D01*
X+1981200Y-519920D01*
X+1981200Y-530080D01*
X+1968500Y-540240D01*
X+1930400Y-540240D01*
X+1917700Y-550400D01*
X+1917700Y-570720D01*
X+1981200Y-570720D01*
X+1855000Y-1833100D02*
X+1955000Y-1833100D01*
X+1855000Y-1976900D02*
X+1955000Y-1976900D01*
X+1803400Y-2082020D02*
X+1803400Y-2021060D01*
X+1879600Y-2021060D01*
X+1803400Y-2051540D02*
X+1854200Y-2051540D01*
X+1917700Y-2031220D02*
X+1930400Y-2021060D01*
X+1968500Y-2021060D01*
X+1981200Y-2031220D01*
X+1981200Y-2041380D01*
X+1968500Y-2051540D01*
X+1981200Y-2061700D01*
X+1981200Y-2071860D01*
X+1968500Y-2082020D01*
X+1930400Y-2082020D01*
X+1917700Y-2071860D01*
X+1943100Y-2051540D02*
X+1968500Y-2051540D01*
X+1747520Y+5080D02*
X+1678940Y+5080D01*
X+1747520Y+127000D02*
X+1676400Y+127000D01*
X+1930400Y+27160D02*
X+1930400Y+88120D01*
X+1993900Y+88120D01*
X+2006600Y+77960D01*
X+2006600Y+67800D01*
X+1993900Y+57640D01*
X+1930400Y+57640D01*
X+1993900Y+57640D02*
X+2006600Y+47480D01*
X+2006600Y+27160D01*
X+2044700Y+77960D02*
X+2057400Y+88120D01*
X+2095500Y+88120D01*
X+2108200Y+77960D01*
X+2108200Y+67800D01*
X+2095500Y+57640D01*
X+2057400Y+57640D01*
X+2044700Y+47480D01*
X+2044700Y+27160D01*
X+2108200Y+27160D01*
X+1894500Y+1066000D02*
X+1894500Y+966000D01*
X+1749500Y+1066000D02*
X+1749500Y+966000D01*
X+1734500Y+1016000D02*
X+1679500Y+961000D01*
X+1679500Y+1071000D01*
X+1734500Y+1016000D01*
X+1927690Y+987180D02*
X+1927690Y+1048140D01*
X+1978490Y+1048140D01*
X+2003890Y+1027820D01*
X+2003890Y+1007500D01*
X+1978490Y+987180D01*
X+1927690Y+987180D01*
X+2105490Y+1037980D02*
X+2092790Y+1048140D01*
X+2054690Y+1048140D01*
X+2041990Y+1037980D01*
X+2041990Y+997340D01*
X+2054690Y+987180D01*
X+2092790Y+987180D01*
X+2105490Y+997340D01*
X+2105490Y+1007500D01*
X+2092790Y+1017660D01*
X+2041990Y+1017660D01*
X+1894500Y+304000D02*
X+1894500Y+204000D01*
X+1749500Y+304000D02*
X+1749500Y+204000D01*
X+1734500Y+254000D02*
X+1679500Y+199000D01*
X+1679500Y+309000D01*
X+1734500Y+254000D01*
X+1940390Y+212480D02*
X+1940390Y+273440D01*
X+1991190Y+273440D01*
X+2016590Y+253120D01*
X+2016590Y+232800D01*
X+1991190Y+212480D01*
X+1940390Y+212480D01*
X+2054690Y+273440D02*
X+2118190Y+273440D01*
X+2118190Y+263280D01*
X+2054690Y+212480D01*
X+1894500Y-1220000D02*
X+1894500Y-1320000D01*
X+1749500Y-1220000D02*
X+1749500Y-1320000D01*
X+1734500Y-1270000D02*
X+1679500Y-1325000D01*
X+1679500Y-1215000D01*
X+1734500Y-1270000D01*
X+1953090Y-1311520D02*
X+1953090Y-1250560D01*
X+2003890Y-1250560D01*
X+2029290Y-1270880D01*
X+2029290Y-1291200D01*
X+2003890Y-1311520D01*
X+1953090Y-1311520D01*
X+2080090Y-1281040D02*
X+2067390Y-1270880D01*
X+2067390Y-1260720D01*
X+2080090Y-1250560D01*
X+2118190Y-1250560D01*
X+2130890Y-1260720D01*
X+2130890Y-1270880D01*
X+2118190Y-1281040D01*
X+2080090Y-1281040D01*
X+2067390Y-1291200D01*
X+2067390Y-1301360D01*
X+2080090Y-1311520D01*
X+2118190Y-1311520D01*
X+2130890Y-1301360D01*
X+2130890Y-1291200D01*
X+2118190Y-1281040D01*
X+1747520Y-1518920D02*
X+1678940Y-1518920D01*
X+1747520Y-1397000D02*
X+1676400Y-1397000D01*
X+1930400Y-1496840D02*
X+1930400Y-1435880D01*
X+1993900Y-1435880D01*
X+2006600Y-1446040D01*
X+2006600Y-1456200D01*
X+1993900Y-1466360D01*
X+1930400Y-1466360D01*
X+1993900Y-1466360D02*
X+2006600Y-1476520D01*
X+2006600Y-1496840D01*
X+2044700Y-1446040D02*
X+2057400Y-1435880D01*
X+2095500Y-1435880D01*
X+2108200Y-1446040D01*
X+2108200Y-1456200D01*
X+2095500Y-1466360D01*
X+2108200Y-1476520D01*
X+2108200Y-1486680D01*
X+2095500Y-1496840D01*
X+2057400Y-1496840D01*
X+2044700Y-1486680D01*
X+2070100Y-1466360D02*
X+2095500Y-1466360D01*
X+1747520Y+767080D02*
X+1678940Y+767080D01*
X+1747520Y+889000D02*
X+1676400Y+889000D01*
X+1917700Y+789160D02*
X+1917700Y+850120D01*
X+1981200Y+850120D01*
X+1993900Y+839960D01*
X+1993900Y+829800D01*
X+1981200Y+819640D01*
X+1917700Y+819640D01*
X+1981200Y+819640D02*
X+1993900Y+809480D01*
X+1993900Y+789160D01*
X+2044700Y+829800D02*
X+2070100Y+850120D01*
X+2070100Y+789160D01*
X+2070100Y+789160D01*
X+2286000Y-2667000D02*
X+3302000Y-2667000D01*
X+3302000Y+7239000D01*
X+2286000Y+7239000D01*
X+2286000Y-2667000D01*
X+2509520Y+767080D02*
X+2440940Y+767080D01*
X+2509520Y+889000D02*
X+2438400Y+889000D01*
X+2387600Y+622300D02*
X+2397760Y+609600D01*
X+2397760Y+571500D01*
X+2377440Y+546100D01*
X+2357120Y+546100D01*
X+2336800Y+571500D01*
X+2336800Y+609600D01*
X+2346960Y+622300D01*
X+2357120Y+673100D02*
X+2336800Y+698500D01*
X+2397760Y+698500D01*
X+2509520Y+957580D02*
X+2440940Y+957580D01*
X+2509520Y+1079500D02*
X+2438400Y+1079500D01*
X+2743200Y+1130300D02*
X+2730500Y+1120140D01*
X+2692400Y+1120140D01*
X+2667000Y+1140460D01*
X+2667000Y+1160780D01*
X+2692400Y+1181100D01*
X+2730500Y+1181100D01*
X+2743200Y+1170940D01*
X+2781300Y+1170940D02*
X+2794000Y+1181100D01*
X+2832100Y+1181100D01*
X+2844800Y+1170940D01*
X+2844800Y+1160780D01*
X+2832100Y+1150620D01*
X+2794000Y+1150620D01*
X+2781300Y+1140460D01*
X+2781300Y+1120140D01*
X+2844800Y+1120140D01*
X+2509520Y+1148080D02*
X+2440940Y+1148080D01*
X+2509520Y+1270000D02*
X+2438400Y+1270000D01*
X+2743200Y+1244600D02*
X+2730500Y+1234440D01*
X+2692400Y+1234440D01*
X+2667000Y+1254760D01*
X+2667000Y+1275080D01*
X+2692400Y+1295400D01*
X+2730500Y+1295400D01*
X+2743200Y+1285240D01*
X+2781300Y+1285240D02*
X+2794000Y+1295400D01*
X+2832100Y+1295400D01*
X+2844800Y+1285240D01*
X+2844800Y+1275080D01*
X+2832100Y+1264920D01*
X+2844800Y+1254760D01*
X+2844800Y+1244600D01*
X+2832100Y+1234440D01*
X+2794000Y+1234440D01*
X+2781300Y+1244600D01*
X+2806700Y+1264920D02*
X+2832100Y+1264920D01*
X+2509520Y+5080D02*
X+2440940Y+5080D01*
X+2509520Y+127000D02*
X+2438400Y+127000D01*
X+2392680Y-134620D02*
X+2402840Y-147320D01*
X+2402840Y-185420D01*
X+2382520Y-210820D01*
X+2362200Y-210820D01*
X+2341880Y-185420D01*
X+2341880Y-147320D01*
X+2352040Y-134620D01*
X+2382520Y-33020D02*
X+2382520Y-109220D01*
X+2341880Y-58420D01*
X+2402840Y-58420D01*
X+2509520Y+195580D02*
X+2440940Y+195580D01*
X+2509520Y+317500D02*
X+2438400Y+317500D01*
X+2743200Y+365760D02*
X+2730500Y+355600D01*
X+2692400Y+355600D01*
X+2667000Y+375920D01*
X+2667000Y+396240D01*
X+2692400Y+416560D01*
X+2730500Y+416560D01*
X+2743200Y+406400D01*
X+2844800Y+416560D02*
X+2781300Y+416560D01*
X+2781300Y+396240D01*
X+2832100Y+396240D01*
X+2844800Y+386080D01*
X+2844800Y+365760D01*
X+2832100Y+355600D01*
X+2794000Y+355600D01*
X+2781300Y+365760D01*
X+2509520Y+386080D02*
X+2440940Y+386080D01*
X+2509520Y+508000D02*
X+2438400Y+508000D01*
X+2743200Y+480060D02*
X+2730500Y+469900D01*
X+2692400Y+469900D01*
X+2667000Y+490220D01*
X+2667000Y+510540D01*
X+2692400Y+530860D01*
X+2730500Y+530860D01*
X+2743200Y+520700D01*
X+2844800Y+520700D02*
X+2832100Y+530860D01*
X+2794000Y+530860D01*
X+2781300Y+520700D01*
X+2781300Y+480060D01*
X+2794000Y+469900D01*
X+2832100Y+469900D01*
X+2844800Y+480060D01*
X+2844800Y+490220D01*
X+2832100Y+500380D01*
X+2781300Y+500380D01*
X+2509520Y-1518920D02*
X+2440940Y-1518920D01*
X+2509520Y-1397000D02*
X+2438400Y-1397000D01*
X+2400300Y-1676400D02*
X+2410460Y-1689100D01*
X+2410460Y-1727200D01*
X+2390140Y-1752600D01*
X+2369820Y-1752600D01*
X+2349500Y-1727200D01*
X+2349500Y-1689100D01*
X+2359660Y-1676400D01*
X+2349500Y-1638300D02*
X+2349500Y-1574800D01*
X+2359660Y-1574800D01*
X+2410460Y-1638300D01*
X+2509520Y-1328420D02*
X+2440940Y-1328420D01*
X+2509520Y-1206500D02*
X+2438400Y-1206500D01*
X+2755900Y-1160781D02*
X+2743200Y-1170941D01*
X+2705100Y-1170941D01*
X+2679700Y-1150621D01*
X+2679700Y-1130301D01*
X+2705100Y-1109981D01*
X+2743200Y-1109981D01*
X+2755900Y-1120141D01*
X+2806700Y-1140461D02*
X+2794000Y-1130301D01*
X+2794000Y-1120141D01*
X+2806700Y-1109981D01*
X+2844800Y-1109981D01*
X+2857500Y-1120141D01*
X+2857500Y-1130301D01*
X+2844800Y-1140461D01*
X+2806700Y-1140461D01*
X+2794000Y-1150621D01*
X+2794000Y-1160781D01*
X+2806700Y-1170941D01*
X+2844800Y-1170941D01*
X+2857500Y-1160781D01*
X+2857500Y-1150621D01*
X+2844800Y-1140461D01*
X+2509520Y-1137920D02*
X+2440940Y-1137920D01*
X+2509520Y-1016000D02*
X+2438400Y-1016000D01*
X+2755900Y-1056640D02*
X+2743200Y-1066800D01*
X+2705100Y-1066800D01*
X+2679700Y-1046480D01*
X+2679700Y-1026160D01*
X+2705100Y-1005840D01*
X+2743200Y-1005840D01*
X+2755900Y-1016000D01*
X+2857500Y-1026160D02*
X+2844800Y-1036320D01*
X+2806700Y-1036320D01*
X+2794000Y-1026160D01*
X+2794000Y-1016000D01*
X+2806700Y-1005840D01*
X+2844800Y-1005840D01*
X+2857500Y-1016000D01*
X+2857500Y-1056640D01*
X+2844800Y-1066800D01*
X+2806700Y-1066800D01*
X+2590000Y+2310000D02*
X+2490000Y+2310000D01*
X+2590000Y+2505000D02*
X+2490000Y+2505000D01*
X+2540000Y+2520000D02*
X+2485000Y+2575000D01*
X+2595000Y+2575000D01*
X+2540000Y+2520000D01*
X+2699140Y+2460560D02*
X+2638180Y+2460560D01*
X+2638180Y+2511360D01*
X+2658500Y+2536760D01*
X+2678820Y+2536760D01*
X+2699140Y+2511360D01*
X+2699140Y+2460560D01*
X+2658500Y+2587560D02*
X+2638180Y+2612960D01*
X+2699140Y+2612960D01*
X+2844000Y+2310000D02*
X+2744000Y+2310000D01*
X+2844000Y+2505000D02*
X+2744000Y+2505000D01*
X+2794000Y+2520000D02*
X+2739000Y+2575000D01*
X+2849000Y+2575000D01*
X+2794000Y+2520000D01*
X+2965840Y+2447860D02*
X+2904880Y+2447860D01*
X+2904880Y+2498660D01*
X+2925200Y+2524060D01*
X+2945520Y+2524060D01*
X+2965840Y+2498660D01*
X+2965840Y+2447860D01*
X+2915040Y+2562160D02*
X+2904880Y+2574860D01*
X+2904880Y+2612960D01*
X+2915040Y+2625660D01*
X+2925200Y+2625660D01*
X+2935360Y+2612960D01*
X+2935360Y+2574860D01*
X+2945520Y+2562160D01*
X+2965840Y+2562160D01*
X+2965840Y+2625660D01*
X+2770000Y+1955000D02*
X+2770000Y+1855000D01*
X+2575000Y+1955000D02*
X+2575000Y+1855000D01*
X+2560000Y+1905000D02*
X+2505000Y+1850000D01*
X+2505000Y+1960000D01*
X+2560000Y+1905000D01*
X+2809940Y+1876180D02*
X+2809940Y+1937140D01*
X+2860740Y+1937140D01*
X+2886140Y+1916820D01*
X+2886140Y+1896500D01*
X+2860740Y+1876180D01*
X+2809940Y+1876180D01*
X+2924240Y+1926980D02*
X+2936940Y+1937140D01*
X+2975040Y+1937140D01*
X+2987740Y+1926980D01*
X+2987740Y+1916820D01*
X+2975040Y+1906660D01*
X+2987740Y+1896500D01*
X+2987740Y+1886340D01*
X+2975040Y+1876180D01*
X+2936940Y+1876180D01*
X+2924240Y+1886340D01*
X+2949640Y+1906660D02*
X+2975040Y+1906660D01*
X+2770000Y-585000D02*
X+2770000Y-685000D01*
X+2575000Y-585000D02*
X+2575000Y-685000D01*
X+2560000Y-635000D02*
X+2505000Y-690000D01*
X+2505000Y-580000D01*
X+2560000Y-635000D01*
X+2949640Y-689220D02*
X+2949640Y-628260D01*
X+3000440Y-628260D01*
X+3025840Y-648580D01*
X+3025840Y-668900D01*
X+3000440Y-689220D01*
X+2949640Y-689220D01*
X+3127440Y-668900D02*
X+3051240Y-668900D01*
X+3102040Y-628260D01*
X+3102040Y-689220D01*
X+2770000Y-2109000D02*
X+2770000Y-2209000D01*
X+2575000Y-2109000D02*
X+2575000Y-2209000D01*
X+2560000Y-2159000D02*
X+2505000Y-2214000D01*
X+2505000Y-2104000D01*
X+2560000Y-2159000D01*
X+2949640Y-2187820D02*
X+2949640Y-2126860D01*
X+3000440Y-2126860D01*
X+3025840Y-2147180D01*
X+3025840Y-2167500D01*
X+3000440Y-2187820D01*
X+2949640Y-2187820D01*
X+3127440Y-2126860D02*
X+3063940Y-2126860D01*
X+3063940Y-2147180D01*
X+3114740Y-2147180D01*
X+3127440Y-2157340D01*
X+3127440Y-2177660D01*
X+3114740Y-2187820D01*
X+3076640Y-2187820D01*
X+3063940Y-2177660D01*
X+2490000Y+1722900D02*
X+2590000Y+1722900D01*
X+2490000Y+1579100D02*
X+2590000Y+1579100D01*
X+2469137Y+1827040D02*
X+2469137Y+1766080D01*
X+2545337Y+1766080D01*
X+2596137Y+1806720D02*
X+2621537Y+1827040D01*
X+2621537Y+1766080D01*
X+2490000Y-309100D02*
X+2590000Y-309100D01*
X+2490000Y-452900D02*
X+2590000Y-452900D01*
X+2438400Y-217660D02*
X+2438400Y-278620D01*
X+2514600Y-278620D01*
X+2552700Y-227820D02*
X+2565400Y-217660D01*
X+2603500Y-217660D01*
X+2616200Y-227820D01*
X+2616200Y-237980D01*
X+2603500Y-248140D01*
X+2565400Y-248140D01*
X+2552700Y-258300D01*
X+2552700Y-278620D01*
X+2616200Y-278620D01*
X+2490000Y-1833100D02*
X+2590000Y-1833100D01*
X+2490000Y-1976900D02*
X+2590000Y-1976900D01*
X+2463800Y-1741660D02*
X+2463800Y-1802620D01*
X+2540000Y-1802620D01*
X+2578100Y-1751820D02*
X+2590800Y-1741660D01*
X+2628900Y-1741660D01*
X+2641600Y-1751820D01*
X+2641600Y-1761980D01*
X+2628900Y-1772140D01*
X+2641600Y-1782300D01*
X+2641600Y-1792460D01*
X+2628900Y-1802620D01*
X+2590800Y-1802620D01*
X+2578100Y-1792460D01*
X+2603500Y-1772140D02*
X+2628900Y-1772140D01*
X+2998000Y+1722900D02*
X+3098000Y+1722900D01*
X+2998000Y+1579100D02*
X+3098000Y+1579100D01*
X+2965452Y+1764275D02*
X+2965452Y+1825235D01*
X+3041652Y+1825235D01*
X+2965452Y+1794755D02*
X+3016252Y+1794755D01*
X+3092452Y+1804915D02*
X+3117852Y+1825235D01*
X+3117852Y+1764275D01*
X+2998000Y-309100D02*
X+3098000Y-309100D01*
X+2998000Y-452900D02*
X+3098000Y-452900D01*
X+2946400Y-570720D02*
X+2946400Y-509760D01*
X+3022600Y-509760D01*
X+2946400Y-540240D02*
X+2997200Y-540240D01*
X+3060700Y-519920D02*
X+3073400Y-509760D01*
X+3111500Y-509760D01*
X+3124200Y-519920D01*
X+3124200Y-530080D01*
X+3111500Y-540240D01*
X+3073400Y-540240D01*
X+3060700Y-550400D01*
X+3060700Y-570720D01*
X+3124200Y-570720D01*
X+2998000Y-1833100D02*
X+3098000Y-1833100D01*
X+2998000Y-1976900D02*
X+3098000Y-1976900D01*
X+2946400Y-2082020D02*
X+2946400Y-2021060D01*
X+3022600Y-2021060D01*
X+2946400Y-2051540D02*
X+2997200Y-2051540D01*
X+3060700Y-2031220D02*
X+3073400Y-2021060D01*
X+3111500Y-2021060D01*
X+3124200Y-2031220D01*
X+3124200Y-2041380D01*
X+3111500Y-2051540D01*
X+3124200Y-2061700D01*
X+3124200Y-2071860D01*
X+3111500Y-2082020D01*
X+3073400Y-2082020D01*
X+3060700Y-2071860D01*
X+3086100Y-2051540D02*
X+3111500Y-2051540D01*
X+2890520Y+5080D02*
X+2821940Y+5080D01*
X+2890520Y+127000D02*
X+2819400Y+127000D01*
X+3073400Y+27160D02*
X+3073400Y+88120D01*
X+3136900Y+88120D01*
X+3149600Y+77960D01*
X+3149600Y+67800D01*
X+3136900Y+57640D01*
X+3073400Y+57640D01*
X+3136900Y+57640D02*
X+3149600Y+47480D01*
X+3149600Y+27160D01*
X+3187700Y+77960D02*
X+3200400Y+88120D01*
X+3238500Y+88120D01*
X+3251200Y+77960D01*
X+3251200Y+67800D01*
X+3238500Y+57640D01*
X+3200400Y+57640D01*
X+3187700Y+47480D01*
X+3187700Y+27160D01*
X+3251200Y+27160D01*
X+3037500Y+1066000D02*
X+3037500Y+966000D01*
X+2892500Y+1066000D02*
X+2892500Y+966000D01*
X+2877500Y+1016000D02*
X+2822500Y+961000D01*
X+2822500Y+1071000D01*
X+2877500Y+1016000D01*
X+3070690Y+987180D02*
X+3070690Y+1048140D01*
X+3121490Y+1048140D01*
X+3146890Y+1027820D01*
X+3146890Y+1007500D01*
X+3121490Y+987180D01*
X+3070690Y+987180D01*
X+3248490Y+1037980D02*
X+3235790Y+1048140D01*
X+3197690Y+1048140D01*
X+3184990Y+1037980D01*
X+3184990Y+997340D01*
X+3197690Y+987180D01*
X+3235790Y+987180D01*
X+3248490Y+997340D01*
X+3248490Y+1007500D01*
X+3235790Y+1017660D01*
X+3184990Y+1017660D01*
X+3037500Y+304000D02*
X+3037500Y+204000D01*
X+2892500Y+304000D02*
X+2892500Y+204000D01*
X+2877500Y+254000D02*
X+2822500Y+199000D01*
X+2822500Y+309000D01*
X+2877500Y+254000D01*
X+3083390Y+212480D02*
X+3083390Y+273440D01*
X+3134190Y+273440D01*
X+3159590Y+253120D01*
X+3159590Y+232800D01*
X+3134190Y+212480D01*
X+3083390Y+212480D01*
X+3197690Y+273440D02*
X+3261190Y+273440D01*
X+3261190Y+263280D01*
X+3197690Y+212480D01*
X+3037500Y-1220000D02*
X+3037500Y-1320000D01*
X+2892500Y-1220000D02*
X+2892500Y-1320000D01*
X+2877500Y-1270000D02*
X+2822500Y-1325000D01*
X+2822500Y-1215000D01*
X+2877500Y-1270000D01*
X+3096090Y-1311520D02*
X+3096090Y-1250560D01*
X+3146890Y-1250560D01*
X+3172290Y-1270880D01*
X+3172290Y-1291200D01*
X+3146890Y-1311520D01*
X+3096090Y-1311520D01*
X+3223090Y-1281040D02*
X+3210390Y-1270880D01*
X+3210390Y-1260720D01*
X+3223090Y-1250560D01*
X+3261190Y-1250560D01*
X+3273890Y-1260720D01*
X+3273890Y-1270880D01*
X+3261190Y-1281040D01*
X+3223090Y-1281040D01*
X+3210390Y-1291200D01*
X+3210390Y-1301360D01*
X+3223090Y-1311520D01*
X+3261190Y-1311520D01*
X+3273890Y-1301360D01*
X+3273890Y-1291200D01*
X+3261190Y-1281040D01*
X+2890520Y-1518920D02*
X+2821940Y-1518920D01*
X+2890520Y-1397000D02*
X+2819400Y-1397000D01*
X+3073400Y-1496840D02*
X+3073400Y-1435880D01*
X+3136900Y-1435880D01*
X+3149600Y-1446040D01*
X+3149600Y-1456200D01*
X+3136900Y-1466360D01*
X+3073400Y-1466360D01*
X+3136900Y-1466360D02*
X+3149600Y-1476520D01*
X+3149600Y-1496840D01*
X+3187700Y-1446040D02*
X+3200400Y-1435880D01*
X+3238500Y-1435880D01*
X+3251200Y-1446040D01*
X+3251200Y-1456200D01*
X+3238500Y-1466360D01*
X+3251200Y-1476520D01*
X+3251200Y-1486680D01*
X+3238500Y-1496840D01*
X+3200400Y-1496840D01*
X+3187700Y-1486680D01*
X+3213100Y-1466360D02*
X+3238500Y-1466360D01*
X+2890520Y+767080D02*
X+2821940Y+767080D01*
X+2890520Y+889000D02*
X+2819400Y+889000D01*
X+3060700Y+789160D02*
X+3060700Y+850120D01*
X+3124200Y+850120D01*
X+3136900Y+839960D01*
X+3136900Y+829800D01*
X+3124200Y+819640D01*
X+3060700Y+819640D01*
X+3124200Y+819640D02*
X+3136900Y+809480D01*
X+3136900Y+789160D01*
X+3187700Y+829800D02*
X+3213100Y+850120D01*
X+3213100Y+789160D01*
X+3213100Y+789160D01*
X-5080000Y-3302000D02*
X+5080000Y-3302000D01*
X+5080000Y+7620000D01*
X-5080000Y+7620000D01*
X-5080000Y-3302000D01*
M02*
