G04 PROTEUS GERBER X2 FILE*
%TF.GenerationSoftware,Labcenter,Proteus,8.5-SP0-Build22067*%
%TF.CreationDate,2018-03-12T21:06:28+00:00*%
%TF.FileFunction,Legend,Top*%
%TF.FilePolarity,Positive*%
%TF.Part,Single*%
%FSLAX45Y45*%
%MOMM*%
G01*
%TA.AperFunction,Material*%
%ADD20C,0.203200*%
D20*
X+195580Y+4348480D02*
X+195580Y+4417060D01*
X+317500Y+4348480D02*
X+317500Y+4419600D01*
X+154940Y+4356100D02*
X+165100Y+4343400D01*
X+165100Y+4305300D01*
X+144780Y+4279900D01*
X+124460Y+4279900D01*
X+104140Y+4305300D01*
X+104140Y+4343400D01*
X+114300Y+4356100D01*
X+124460Y+4406900D02*
X+104140Y+4432300D01*
X+165100Y+4432300D01*
X+449580Y+4348480D02*
X+449580Y+4417060D01*
X+571500Y+4348480D02*
X+571500Y+4419600D01*
X+408940Y+4356100D02*
X+419100Y+4343400D01*
X+419100Y+4305300D01*
X+398780Y+4279900D01*
X+378460Y+4279900D01*
X+358140Y+4305300D01*
X+358140Y+4343400D01*
X+368300Y+4356100D01*
X+368300Y+4394200D02*
X+358140Y+4406900D01*
X+358140Y+4445000D01*
X+368300Y+4457700D01*
X+378460Y+4457700D01*
X+388620Y+4445000D01*
X+388620Y+4406900D01*
X+398780Y+4394200D01*
X+419100Y+4394200D01*
X+419100Y+4457700D01*
X+703580Y+4348480D02*
X+703580Y+4417060D01*
X+825500Y+4348480D02*
X+825500Y+4419600D01*
X+662940Y+4356100D02*
X+673100Y+4343400D01*
X+673100Y+4305300D01*
X+652780Y+4279900D01*
X+632460Y+4279900D01*
X+612140Y+4305300D01*
X+612140Y+4343400D01*
X+622300Y+4356100D01*
X+622300Y+4394200D02*
X+612140Y+4406900D01*
X+612140Y+4445000D01*
X+622300Y+4457700D01*
X+632460Y+4457700D01*
X+642620Y+4445000D01*
X+652780Y+4457700D01*
X+662940Y+4457700D01*
X+673100Y+4445000D01*
X+673100Y+4406900D01*
X+662940Y+4394200D01*
X+642620Y+4419600D02*
X+642620Y+4445000D01*
X+563000Y+3721500D02*
X+453000Y+3721500D01*
X+508000Y+3721500D02*
X+453000Y+3771500D01*
X+563000Y+3771500D01*
X+508000Y+3721500D01*
X+400440Y+3644900D02*
X+339480Y+3644900D01*
X+339480Y+3695700D01*
X+359800Y+3721100D01*
X+380120Y+3721100D01*
X+400440Y+3695700D01*
X+400440Y+3644900D01*
X+349640Y+3822700D02*
X+339480Y+3810000D01*
X+339480Y+3771900D01*
X+349640Y+3759200D01*
X+390280Y+3759200D01*
X+400440Y+3771900D01*
X+400440Y+3810000D01*
X+390280Y+3822700D01*
X+380120Y+3822700D01*
X+369960Y+3810000D01*
X+369960Y+3759200D01*
X+195580Y+3713480D02*
X+195580Y+3782060D01*
X+317500Y+3713480D02*
X+317500Y+3784600D01*
X+165100Y+3644900D02*
X+104140Y+3644900D01*
X+104140Y+3708400D01*
X+114300Y+3721100D01*
X+124460Y+3721100D01*
X+134620Y+3708400D01*
X+134620Y+3644900D01*
X+134620Y+3708400D02*
X+144780Y+3721100D01*
X+165100Y+3721100D01*
X+124460Y+3771900D02*
X+104140Y+3797300D01*
X+165100Y+3797300D01*
X+195580Y+3332480D02*
X+195580Y+3401060D01*
X+317500Y+3332480D02*
X+317500Y+3403600D01*
X+154940Y+3340100D02*
X+165100Y+3327400D01*
X+165100Y+3289300D01*
X+144780Y+3263900D01*
X+124460Y+3263900D01*
X+104140Y+3289300D01*
X+104140Y+3327400D01*
X+114300Y+3340100D01*
X+144780Y+3441700D02*
X+144780Y+3365500D01*
X+104140Y+3416300D01*
X+165100Y+3416300D01*
X+449580Y+3332480D02*
X+449580Y+3401060D01*
X+571500Y+3332480D02*
X+571500Y+3403600D01*
X+408940Y+3340100D02*
X+419100Y+3327400D01*
X+419100Y+3289300D01*
X+398780Y+3263900D01*
X+378460Y+3263900D01*
X+358140Y+3289300D01*
X+358140Y+3327400D01*
X+368300Y+3340100D01*
X+358140Y+3441700D02*
X+358140Y+3378200D01*
X+378460Y+3378200D01*
X+378460Y+3429000D01*
X+388620Y+3441700D01*
X+408940Y+3441700D01*
X+419100Y+3429000D01*
X+419100Y+3390900D01*
X+408940Y+3378200D01*
X+703580Y+3332480D02*
X+703580Y+3401060D01*
X+825500Y+3332480D02*
X+825500Y+3403600D01*
X+662940Y+3340100D02*
X+673100Y+3327400D01*
X+673100Y+3289300D01*
X+652780Y+3263900D01*
X+632460Y+3263900D01*
X+612140Y+3289300D01*
X+612140Y+3327400D01*
X+622300Y+3340100D01*
X+622300Y+3441700D02*
X+612140Y+3429000D01*
X+612140Y+3390900D01*
X+622300Y+3378200D01*
X+662940Y+3378200D01*
X+673100Y+3390900D01*
X+673100Y+3429000D01*
X+662940Y+3441700D01*
X+652780Y+3441700D01*
X+642620Y+3429000D01*
X+642620Y+3378200D01*
X+563000Y+2705500D02*
X+453000Y+2705500D01*
X+508000Y+2705500D02*
X+453000Y+2755500D01*
X+563000Y+2755500D01*
X+508000Y+2705500D01*
X+400440Y+2628900D02*
X+339480Y+2628900D01*
X+339480Y+2679700D01*
X+359800Y+2705100D01*
X+380120Y+2705100D01*
X+400440Y+2679700D01*
X+400440Y+2628900D01*
X+339480Y+2743200D02*
X+339480Y+2806700D01*
X+349640Y+2806700D01*
X+400440Y+2743200D01*
X+195580Y+2697480D02*
X+195580Y+2766060D01*
X+317500Y+2697480D02*
X+317500Y+2768600D01*
X+165100Y+2628900D02*
X+104140Y+2628900D01*
X+104140Y+2692400D01*
X+114300Y+2705100D01*
X+124460Y+2705100D01*
X+134620Y+2692400D01*
X+134620Y+2628900D01*
X+134620Y+2692400D02*
X+144780Y+2705100D01*
X+165100Y+2705100D01*
X+114300Y+2743200D02*
X+104140Y+2755900D01*
X+104140Y+2794000D01*
X+114300Y+2806700D01*
X+124460Y+2806700D01*
X+134620Y+2794000D01*
X+134620Y+2755900D01*
X+144780Y+2743200D01*
X+165100Y+2743200D01*
X+165100Y+2806700D01*
X+195580Y+1300480D02*
X+195580Y+1369060D01*
X+317500Y+1300480D02*
X+317500Y+1371600D01*
X+154940Y+1308100D02*
X+165100Y+1295400D01*
X+165100Y+1257300D01*
X+144780Y+1231900D01*
X+124460Y+1231900D01*
X+104140Y+1257300D01*
X+104140Y+1295400D01*
X+114300Y+1308100D01*
X+104140Y+1346200D02*
X+104140Y+1409700D01*
X+114300Y+1409700D01*
X+165100Y+1346200D01*
X+449580Y+1300480D02*
X+449580Y+1369060D01*
X+571500Y+1300480D02*
X+571500Y+1371600D01*
X+408940Y+1308100D02*
X+419100Y+1295400D01*
X+419100Y+1257300D01*
X+398780Y+1231900D01*
X+378460Y+1231900D01*
X+358140Y+1257300D01*
X+358140Y+1295400D01*
X+368300Y+1308100D01*
X+388620Y+1358900D02*
X+378460Y+1346200D01*
X+368300Y+1346200D01*
X+358140Y+1358900D01*
X+358140Y+1397000D01*
X+368300Y+1409700D01*
X+378460Y+1409700D01*
X+388620Y+1397000D01*
X+388620Y+1358900D01*
X+398780Y+1346200D01*
X+408940Y+1346200D01*
X+419100Y+1358900D01*
X+419100Y+1397000D01*
X+408940Y+1409700D01*
X+398780Y+1409700D01*
X+388620Y+1397000D01*
X+703580Y+1300480D02*
X+703580Y+1369060D01*
X+825500Y+1300480D02*
X+825500Y+1371600D01*
X+662940Y+1308100D02*
X+673100Y+1295400D01*
X+673100Y+1257300D01*
X+652780Y+1231900D01*
X+632460Y+1231900D01*
X+612140Y+1257300D01*
X+612140Y+1295400D01*
X+622300Y+1308100D01*
X+632460Y+1409700D02*
X+642620Y+1397000D01*
X+642620Y+1358900D01*
X+632460Y+1346200D01*
X+622300Y+1346200D01*
X+612140Y+1358900D01*
X+612140Y+1397000D01*
X+622300Y+1409700D01*
X+662940Y+1409700D01*
X+673100Y+1397000D01*
X+673100Y+1358900D01*
X+563000Y+673500D02*
X+453000Y+673500D01*
X+508000Y+673500D02*
X+453000Y+723500D01*
X+563000Y+723500D01*
X+508000Y+673500D01*
X+654440Y+596900D02*
X+593480Y+596900D01*
X+593480Y+647700D01*
X+613800Y+673100D01*
X+634120Y+673100D01*
X+654440Y+647700D01*
X+654440Y+596900D01*
X+623960Y+723900D02*
X+613800Y+711200D01*
X+603640Y+711200D01*
X+593480Y+723900D01*
X+593480Y+762000D01*
X+603640Y+774700D01*
X+613800Y+774700D01*
X+623960Y+762000D01*
X+623960Y+723900D01*
X+634120Y+711200D01*
X+644280Y+711200D01*
X+654440Y+723900D01*
X+654440Y+762000D01*
X+644280Y+774700D01*
X+634120Y+774700D01*
X+623960Y+762000D01*
X+195580Y+665480D02*
X+195580Y+734060D01*
X+317500Y+665480D02*
X+317500Y+736600D01*
X+165100Y+596900D02*
X+104140Y+596900D01*
X+104140Y+660400D01*
X+114300Y+673100D01*
X+124460Y+673100D01*
X+134620Y+660400D01*
X+134620Y+596900D01*
X+134620Y+660400D02*
X+144780Y+673100D01*
X+165100Y+673100D01*
X+114300Y+711200D02*
X+104140Y+723900D01*
X+104140Y+762000D01*
X+114300Y+774700D01*
X+124460Y+774700D01*
X+134620Y+762000D01*
X+144780Y+774700D01*
X+154940Y+774700D01*
X+165100Y+762000D01*
X+165100Y+723900D01*
X+154940Y+711200D01*
X+134620Y+736600D02*
X+134620Y+762000D01*
X+55100Y+6554000D02*
X+55100Y+6654000D01*
X+325900Y+6554000D02*
X+325900Y+6654000D01*
X+88900Y+6567660D02*
X+88900Y+6628620D01*
X+165100Y+6628620D01*
X+88900Y+6598140D02*
X+139700Y+6598140D01*
X+215900Y+6608300D02*
X+241300Y+6628620D01*
X+241300Y+6567660D01*
X+372600Y+6554000D02*
X+372600Y+6654000D01*
X+643400Y+6554000D02*
X+643400Y+6654000D01*
X+406400Y+6567660D02*
X+406400Y+6628620D01*
X+482600Y+6628620D01*
X+406400Y+6598140D02*
X+457200Y+6598140D01*
X+520700Y+6618460D02*
X+533400Y+6628620D01*
X+571500Y+6628620D01*
X+584200Y+6618460D01*
X+584200Y+6608300D01*
X+571500Y+6598140D01*
X+533400Y+6598140D01*
X+520700Y+6587980D01*
X+520700Y+6567660D01*
X+584200Y+6567660D01*
X+690100Y+6554000D02*
X+690100Y+6654000D01*
X+960900Y+6554000D02*
X+960900Y+6654000D01*
X+723900Y+6567660D02*
X+723900Y+6628620D01*
X+800100Y+6628620D01*
X+723900Y+6598140D02*
X+774700Y+6598140D01*
X+838200Y+6618460D02*
X+850900Y+6628620D01*
X+889000Y+6628620D01*
X+901700Y+6618460D01*
X+901700Y+6608300D01*
X+889000Y+6598140D01*
X+901700Y+6587980D01*
X+901700Y+6577820D01*
X+889000Y+6567660D01*
X+850900Y+6567660D01*
X+838200Y+6577820D01*
X+863600Y+6598140D02*
X+889000Y+6598140D01*
X+820420Y+3779520D02*
X+820420Y+3710940D01*
X+698500Y+3779520D02*
X+698500Y+3708400D01*
X+596900Y+3644900D02*
X+657860Y+3644900D01*
X+657860Y+3721100D01*
X+617220Y+3771900D02*
X+596900Y+3797300D01*
X+657860Y+3797300D01*
X+820420Y+2763520D02*
X+820420Y+2694940D01*
X+698500Y+2763520D02*
X+698500Y+2692400D01*
X+596900Y+2628900D02*
X+657860Y+2628900D01*
X+657860Y+2705100D01*
X+607060Y+2743200D02*
X+596900Y+2755900D01*
X+596900Y+2794000D01*
X+607060Y+2806700D01*
X+617220Y+2806700D01*
X+627380Y+2794000D01*
X+627380Y+2755900D01*
X+637540Y+2743200D01*
X+657860Y+2743200D01*
X+657860Y+2806700D01*
X+820420Y+731520D02*
X+820420Y+662940D01*
X+698500Y+731520D02*
X+698500Y+660400D01*
X+608101Y+596900D02*
X+669061Y+596900D01*
X+669061Y+673100D01*
X+618261Y+711200D02*
X+608101Y+723900D01*
X+608101Y+762000D01*
X+618261Y+774700D01*
X+628421Y+774700D01*
X+638581Y+762000D01*
X+648741Y+774700D01*
X+658901Y+774700D01*
X+669061Y+762000D01*
X+669061Y+723900D01*
X+658901Y+711200D01*
X+638581Y+736600D02*
X+638581Y+762000D01*
X+473000Y+4712500D02*
X+473000Y+4812500D01*
X+488000Y+4762500D02*
X+543000Y+4817500D01*
X+543000Y+4707500D01*
X+488000Y+4762500D01*
X+406400Y+4616060D02*
X+406400Y+4677020D01*
X+457200Y+4677020D01*
X+482600Y+4656700D01*
X+482600Y+4636380D01*
X+457200Y+4616060D01*
X+406400Y+4616060D01*
X+520700Y+4666860D02*
X+533400Y+4677020D01*
X+571500Y+4677020D01*
X+584200Y+4666860D01*
X+584200Y+4656700D01*
X+571500Y+4646540D01*
X+584200Y+4636380D01*
X+584200Y+4626220D01*
X+571500Y+4616060D01*
X+533400Y+4616060D01*
X+520700Y+4626220D01*
X+546100Y+4646540D02*
X+571500Y+4646540D01*
X+473000Y+1664500D02*
X+473000Y+1764500D01*
X+488000Y+1714500D02*
X+543000Y+1769500D01*
X+543000Y+1659500D01*
X+488000Y+1714500D01*
X+406400Y+1822060D02*
X+406400Y+1883020D01*
X+457200Y+1883020D01*
X+482600Y+1862700D01*
X+482600Y+1842380D01*
X+457200Y+1822060D01*
X+406400Y+1822060D01*
X+584200Y+1883020D02*
X+520700Y+1883020D01*
X+520700Y+1862700D01*
X+571500Y+1862700D01*
X+584200Y+1852540D01*
X+584200Y+1832220D01*
X+571500Y+1822060D01*
X+533400Y+1822060D01*
X+520700Y+1832220D01*
X+473000Y+2363000D02*
X+473000Y+2463000D01*
X+488000Y+2413000D02*
X+543000Y+2468000D01*
X+543000Y+2358000D01*
X+488000Y+2413000D01*
X+406400Y+2520560D02*
X+406400Y+2581520D01*
X+457200Y+2581520D01*
X+482600Y+2561200D01*
X+482600Y+2540880D01*
X+457200Y+2520560D01*
X+406400Y+2520560D01*
X+584200Y+2540880D02*
X+508000Y+2540880D01*
X+558800Y+2581520D01*
X+558800Y+2520560D01*
X+473000Y+5728500D02*
X+473000Y+5828500D01*
X+488000Y+5778500D02*
X+543000Y+5833500D01*
X+543000Y+5723500D01*
X+488000Y+5778500D01*
X+406400Y+5632060D02*
X+406400Y+5693020D01*
X+457200Y+5693020D01*
X+482600Y+5672700D01*
X+482600Y+5652380D01*
X+457200Y+5632060D01*
X+406400Y+5632060D01*
X+533400Y+5672700D02*
X+558800Y+5693020D01*
X+558800Y+5632060D01*
X+473000Y+5347500D02*
X+473000Y+5447500D01*
X+488000Y+5397500D02*
X+543000Y+5452500D01*
X+543000Y+5342500D01*
X+488000Y+5397500D01*
X+406400Y+5251060D02*
X+406400Y+5312020D01*
X+457200Y+5312020D01*
X+482600Y+5291700D01*
X+482600Y+5271380D01*
X+457200Y+5251060D01*
X+406400Y+5251060D01*
X+520700Y+5301860D02*
X+533400Y+5312020D01*
X+571500Y+5312020D01*
X+584200Y+5301860D01*
X+584200Y+5291700D01*
X+571500Y+5281540D01*
X+533400Y+5281540D01*
X+520700Y+5271380D01*
X+520700Y+5251060D01*
X+584200Y+5251060D01*
X+947420Y+8796020D02*
X+947420Y+8727440D01*
X+825500Y+8796020D02*
X+825500Y+8724900D01*
X+787400Y+8534400D02*
X+787400Y+8595360D01*
X+850900Y+8595360D01*
X+863600Y+8585200D01*
X+863600Y+8575040D01*
X+850900Y+8564880D01*
X+787400Y+8564880D01*
X+850900Y+8564880D02*
X+863600Y+8554720D01*
X+863600Y+8534400D01*
X+965200Y+8554720D02*
X+889000Y+8554720D01*
X+939800Y+8595360D01*
X+939800Y+8534400D01*
X+185420Y+8796020D02*
X+185420Y+8727440D01*
X+63500Y+8796020D02*
X+63500Y+8724900D01*
X+25400Y+8534400D02*
X+25400Y+8595360D01*
X+88900Y+8595360D01*
X+101600Y+8585200D01*
X+101600Y+8575040D01*
X+88900Y+8564880D01*
X+25400Y+8564880D01*
X+88900Y+8564880D02*
X+101600Y+8554720D01*
X+101600Y+8534400D01*
X+203200Y+8595360D02*
X+139700Y+8595360D01*
X+139700Y+8575040D01*
X+190500Y+8575040D01*
X+203200Y+8564880D01*
X+203200Y+8544560D01*
X+190500Y+8534400D01*
X+152400Y+8534400D01*
X+139700Y+8544560D01*
X+771525Y+7112000D02*
X+819150Y+7112000D01*
X+857250Y+7124700D02*
X+876300Y+7150100D01*
X+876300Y+7073900D01*
X+923925Y+7137400D02*
X+933450Y+7150100D01*
X+962025Y+7150100D01*
X+971550Y+7137400D01*
X+971550Y+7124700D01*
X+962025Y+7112000D01*
X+933450Y+7112000D01*
X+923925Y+7099300D01*
X+923925Y+7073900D01*
X+971550Y+7073900D01*
X+800100Y+7353300D02*
X+819150Y+7353300D01*
X+819150Y+7327900D01*
X+781050Y+7327900D01*
X+762000Y+7353300D01*
X+762000Y+7378700D01*
X+781050Y+7404100D01*
X+809625Y+7404100D01*
X+819150Y+7391400D01*
X+838200Y+7327900D02*
X+838200Y+7404100D01*
X+895350Y+7327900D01*
X+895350Y+7404100D01*
X+914400Y+7327900D02*
X+914400Y+7404100D01*
X+952500Y+7404100D01*
X+971550Y+7378700D01*
X+971550Y+7353300D01*
X+952500Y+7327900D01*
X+914400Y+7327900D01*
X+800100Y+7607300D02*
X+819150Y+7607300D01*
X+819150Y+7581900D01*
X+781050Y+7581900D01*
X+762000Y+7607300D01*
X+762000Y+7632700D01*
X+781050Y+7658100D01*
X+809625Y+7658100D01*
X+819150Y+7645400D01*
X+838200Y+7581900D02*
X+838200Y+7658100D01*
X+895350Y+7581900D01*
X+895350Y+7658100D01*
X+914400Y+7581900D02*
X+914400Y+7658100D01*
X+952500Y+7658100D01*
X+971550Y+7632700D01*
X+971550Y+7607300D01*
X+952500Y+7581900D01*
X+914400Y+7581900D01*
X+800100Y+7861300D02*
X+819150Y+7861300D01*
X+819150Y+7835900D01*
X+781050Y+7835900D01*
X+762000Y+7861300D01*
X+762000Y+7886700D01*
X+781050Y+7912100D01*
X+809625Y+7912100D01*
X+819150Y+7899400D01*
X+838200Y+7835900D02*
X+838200Y+7912100D01*
X+895350Y+7835900D01*
X+895350Y+7912100D01*
X+914400Y+7835900D02*
X+914400Y+7912100D01*
X+952500Y+7912100D01*
X+971550Y+7886700D01*
X+971550Y+7861300D01*
X+952500Y+7835900D01*
X+914400Y+7835900D01*
X+762000Y+8128000D02*
X+819150Y+8128000D01*
X+790575Y+8153400D02*
X+790575Y+8102600D01*
X+857250Y+8140700D02*
X+876300Y+8166100D01*
X+876300Y+8089900D01*
X+923925Y+8153400D02*
X+933450Y+8166100D01*
X+962025Y+8166100D01*
X+971550Y+8153400D01*
X+971550Y+8140700D01*
X+962025Y+8128000D01*
X+933450Y+8128000D01*
X+923925Y+8115300D01*
X+923925Y+8089900D01*
X+971550Y+8089900D01*
X+762000Y+8382000D02*
X+819150Y+8382000D01*
X+790575Y+8407400D02*
X+790575Y+8356600D01*
X+895350Y+8420100D02*
X+847725Y+8420100D01*
X+847725Y+8394700D01*
X+885825Y+8394700D01*
X+895350Y+8382000D01*
X+895350Y+8356600D01*
X+885825Y+8343900D01*
X+857250Y+8343900D01*
X+847725Y+8356600D01*
X+190500Y+6985000D02*
X+190500Y+8255000D01*
X+317500Y+8255000D01*
X+698500Y+8255000D02*
X+825500Y+8255000D01*
X+825500Y+8191500D01*
X+825500Y+7048500D02*
X+825500Y+6985000D01*
X+190500Y+6985000D01*
X+317500Y+9017000D02*
X+190500Y+9017000D01*
X+190500Y+8953500D02*
X+190500Y+9017000D01*
X+698500Y+9017000D02*
X+825500Y+9017000D01*
X+825500Y+8953500D02*
X+825500Y+9017000D01*
X+444500Y+8255000D02*
X+571500Y+8255000D01*
X+171450Y+6859270D02*
X+171450Y+6920230D01*
X+219075Y+6920230D01*
X+228600Y+6910070D01*
X+228600Y+6899910D01*
X+219075Y+6889750D01*
X+171450Y+6889750D01*
X+219075Y+6889750D02*
X+228600Y+6879590D01*
X+228600Y+6859270D01*
X+304800Y+6859270D02*
X+247650Y+6859270D01*
X+247650Y+6920230D01*
X+304800Y+6920230D01*
X+247650Y+6889750D02*
X+285750Y+6889750D01*
X+323850Y+6859270D02*
X+323850Y+6920230D01*
X+361950Y+6920230D01*
X+381000Y+6899910D01*
X+381000Y+6879590D01*
X+361950Y+6859270D01*
X+323850Y+6859270D01*
X+476250Y+6869430D02*
X+485775Y+6859270D01*
X+523875Y+6859270D01*
X+533400Y+6869430D01*
X+533400Y+6879590D01*
X+523875Y+6889750D01*
X+485775Y+6889750D01*
X+476250Y+6899910D01*
X+476250Y+6910070D01*
X+485775Y+6920230D01*
X+523875Y+6920230D01*
X+533400Y+6910070D01*
X+552450Y+6920230D02*
X+609600Y+6920230D01*
X+581025Y+6920230D02*
X+581025Y+6859270D01*
X+628650Y+6859270D02*
X+628650Y+6920230D01*
X+676275Y+6920230D01*
X+685800Y+6910070D01*
X+685800Y+6899910D01*
X+676275Y+6889750D01*
X+628650Y+6889750D01*
X+676275Y+6889750D02*
X+685800Y+6879590D01*
X+685800Y+6859270D01*
X+714375Y+6920230D02*
X+752475Y+6920230D01*
X+733425Y+6920230D02*
X+733425Y+6859270D01*
X+714375Y+6859270D02*
X+752475Y+6859270D01*
X+781050Y+6859270D02*
X+781050Y+6920230D01*
X+828675Y+6920230D01*
X+838200Y+6910070D01*
X+838200Y+6899910D01*
X+828675Y+6889750D01*
X+781050Y+6889750D01*
X+139700Y+9093200D02*
X+63500Y+9093200D01*
X+63500Y+9169400D01*
X+139700Y+9169400D01*
X+63500Y+9131300D02*
X+114300Y+9131300D01*
X+241300Y+9093200D02*
X+165100Y+9093200D01*
X+165100Y+9169400D01*
X+241300Y+9169400D01*
X+165100Y+9131300D02*
X+215900Y+9131300D01*
X+304800Y+9144000D02*
X+304800Y+9131300D01*
X+304800Y+9105900D02*
X+304800Y+9093200D01*
X+469900Y+9105900D02*
X+482600Y+9093200D01*
X+533400Y+9093200D01*
X+546100Y+9105900D01*
X+546100Y+9118600D01*
X+533400Y+9131300D01*
X+482600Y+9131300D01*
X+469900Y+9144000D01*
X+469900Y+9156700D01*
X+482600Y+9169400D01*
X+533400Y+9169400D01*
X+546100Y+9156700D01*
X+571500Y+9169400D02*
X+571500Y+9105900D01*
X+584200Y+9093200D01*
X+635000Y+9093200D01*
X+647700Y+9105900D01*
X+647700Y+9169400D01*
X+673100Y+9169400D02*
X+673100Y+9093200D01*
X+749300Y+9169400D02*
X+711200Y+9131300D01*
X+749300Y+9093200D01*
X+673100Y+9131300D02*
X+711200Y+9131300D01*
X+774700Y+9169400D02*
X+774700Y+9105900D01*
X+787400Y+9093200D01*
X+838200Y+9093200D01*
X+850900Y+9105900D01*
X+850900Y+9169400D01*
X+76200Y+9461500D02*
X+127000Y+9461500D01*
X+101600Y+9461500D02*
X+101600Y+9385300D01*
X+76200Y+9385300D02*
X+127000Y+9385300D01*
X+165100Y+9385300D02*
X+165100Y+9461500D01*
X+241300Y+9385300D01*
X+241300Y+9461500D01*
X+266700Y+9461500D02*
X+342900Y+9461500D01*
X+304800Y+9461500D02*
X+304800Y+9385300D01*
X+444500Y+9385300D02*
X+368300Y+9385300D01*
X+368300Y+9461500D01*
X+444500Y+9461500D01*
X+368300Y+9423400D02*
X+419100Y+9423400D01*
X+546100Y+9398000D02*
X+533400Y+9385300D01*
X+495300Y+9385300D01*
X+469900Y+9410700D01*
X+469900Y+9436100D01*
X+495300Y+9461500D01*
X+533400Y+9461500D01*
X+546100Y+9448800D01*
X+571500Y+9385300D02*
X+571500Y+9461500D01*
X+647700Y+9461500D02*
X+647700Y+9385300D01*
X+571500Y+9423400D02*
X+647700Y+9423400D01*
X+63500Y+9271000D02*
X+76200Y+9258300D01*
X+127000Y+9258300D01*
X+139700Y+9271000D01*
X+139700Y+9283700D01*
X+127000Y+9296400D01*
X+76200Y+9296400D01*
X+63500Y+9309100D01*
X+63500Y+9321800D01*
X+76200Y+9334500D01*
X+127000Y+9334500D01*
X+139700Y+9321800D01*
X+165100Y+9334500D02*
X+241300Y+9334500D01*
X+203200Y+9334500D02*
X+203200Y+9258300D01*
X+266700Y+9334500D02*
X+266700Y+9271000D01*
X+279400Y+9258300D01*
X+330200Y+9258300D01*
X+342900Y+9271000D01*
X+342900Y+9334500D01*
X+368300Y+9258300D02*
X+368300Y+9334500D01*
X+419100Y+9334500D01*
X+444500Y+9309100D01*
X+444500Y+9283700D01*
X+419100Y+9258300D01*
X+368300Y+9258300D01*
X+482600Y+9334500D02*
X+533400Y+9334500D01*
X+508000Y+9334500D02*
X+508000Y+9258300D01*
X+482600Y+9258300D02*
X+533400Y+9258300D01*
X+571500Y+9309100D02*
X+596900Y+9334500D01*
X+622300Y+9334500D01*
X+647700Y+9309100D01*
X+647700Y+9283700D01*
X+622300Y+9258300D01*
X+596900Y+9258300D01*
X+571500Y+9283700D01*
X+571500Y+9309100D01*
M02*
