G04 PROTEUS GERBER X2 FILE*
%TF.GenerationSoftware,Labcenter,Proteus,8.5-SP0-Build22067*%
%TF.CreationDate,2018-03-12T21:06:28+00:00*%
%TF.FileFunction,Paste,Top*%
%TF.FilePolarity,Positive*%
%TF.Part,Single*%
%FSLAX45Y45*%
%MOMM*%
G01*
%TA.AperFunction,Material*%
%ADD29R,1.300000X0.900000*%
%ADD72R,2.800000X1.000000*%
%ADD73R,1.300000X1.700000*%
D29*
X+254000Y+4286500D03*
X+254000Y+4476500D03*
X+508000Y+4286500D03*
X+508000Y+4476500D03*
X+762000Y+4286500D03*
X+762000Y+4476500D03*
X+508000Y+3841500D03*
X+508000Y+3651500D03*
X+254000Y+3651500D03*
X+254000Y+3841500D03*
X+254000Y+3270500D03*
X+254000Y+3460500D03*
X+508000Y+3270500D03*
X+508000Y+3460500D03*
X+762000Y+3270500D03*
X+762000Y+3460500D03*
X+508000Y+2825500D03*
X+508000Y+2635500D03*
X+254000Y+2635500D03*
X+254000Y+2825500D03*
X+254000Y+1238500D03*
X+254000Y+1428500D03*
X+508000Y+1238500D03*
X+508000Y+1428500D03*
X+762000Y+1238500D03*
X+762000Y+1428500D03*
X+508000Y+793500D03*
X+508000Y+603500D03*
X+254000Y+603500D03*
X+254000Y+793500D03*
D72*
X+190500Y+6454000D03*
X+190500Y+6754000D03*
X+508000Y+6454000D03*
X+508000Y+6754000D03*
X+825500Y+6454000D03*
X+825500Y+6754000D03*
D29*
X+762000Y+3841500D03*
X+762000Y+3651500D03*
X+762000Y+2825500D03*
X+762000Y+2635500D03*
X+762000Y+793500D03*
X+762000Y+603500D03*
D73*
X+683000Y+4762500D03*
X+333000Y+4762500D03*
X+683000Y+1714500D03*
X+333000Y+1714500D03*
X+683000Y+2413000D03*
X+333000Y+2413000D03*
X+683000Y+5778500D03*
X+333000Y+5778500D03*
X+683000Y+5397500D03*
X+333000Y+5397500D03*
D29*
X+889000Y+8858000D03*
X+889000Y+8668000D03*
X+127000Y+8858000D03*
X+127000Y+8668000D03*
M02*
