G04 PROTEUS RS274X GERBER FILE*
%FSLAX45Y45*%
%MOMM*%
G01*
%ADD10C,0.508000*%
%ADD11C,0.635000*%
%ADD12C,0.254000*%
%ADD13C,0.203200*%
%ADD14C,0.762000*%
%ADD15C,2.200000*%
%ADD16C,1.524000*%
%ADD17R,1.524000X1.524000*%
%ADD18R,0.762000X1.270000*%
%ADD19R,1.524000X1.016000*%
%ADD70R,1.016000X1.524000*%
%ADD71R,0.762000X1.143000*%
%ADD20R,0.762000X1.219200*%
G36*
X-2457394Y+4364254D02*
X-2512101Y+4418961D01*
X-2703239Y+4418961D01*
X-2747689Y+4463411D01*
X-2852899Y+4463411D01*
X-2927293Y+4389017D01*
X-2927293Y+4283807D01*
X-2852899Y+4209413D01*
X-2747689Y+4209413D01*
X-2703239Y+4253863D01*
X-2580487Y+4253863D01*
X-2569126Y+4242502D01*
X-2569126Y+4094986D01*
X-2639101Y+4164961D01*
X-2703239Y+4164961D01*
X-2747689Y+4209411D01*
X-2852899Y+4209411D01*
X-2927293Y+4135017D01*
X-2927293Y+4029807D01*
X-2852899Y+3955413D01*
X-2747689Y+3955413D01*
X-2705363Y+3997739D01*
X-2692343Y+3984719D01*
X-2692343Y+3900065D01*
X-2747689Y+3955411D01*
X-2852899Y+3955411D01*
X-2927293Y+3881017D01*
X-2927293Y+3775807D01*
X-2852899Y+3701413D01*
X-2747689Y+3701413D01*
X-2692343Y+3756759D01*
X-2692343Y+3646065D01*
X-2747689Y+3701411D01*
X-2852899Y+3701411D01*
X-2927293Y+3627017D01*
X-2927293Y+3521807D01*
X-2852899Y+3447413D01*
X-2747689Y+3447413D01*
X-2692343Y+3502759D01*
X-2692343Y+3392065D01*
X-2747689Y+3447411D01*
X-2852899Y+3447411D01*
X-2927293Y+3373017D01*
X-2927293Y+3267807D01*
X-2852899Y+3193413D01*
X-2747689Y+3193413D01*
X-2692343Y+3248759D01*
X-2692343Y+3138065D01*
X-2747689Y+3193411D01*
X-2852899Y+3193411D01*
X-2927293Y+3119017D01*
X-2927293Y+3013807D01*
X-2865597Y+2952111D01*
X-2988991Y+2952111D01*
X-2927295Y+3013807D01*
X-2927295Y+3119017D01*
X-3001689Y+3193411D01*
X-3106899Y+3193411D01*
X-3181293Y+3119017D01*
X-3181293Y+3013807D01*
X-3119597Y+2952111D01*
X-3195271Y+2952111D01*
X-3207971Y+2964811D01*
X-3281617Y+2964811D01*
X-3295595Y+2950833D01*
X-3295595Y+4749349D01*
X-3276731Y+4768213D01*
X-3157699Y+4768213D01*
X-3106899Y+4717413D01*
X-3001689Y+4717413D01*
X-2927295Y+4791807D01*
X-2927295Y+4897017D01*
X-3001689Y+4971411D01*
X-3106899Y+4971411D01*
X-3157699Y+4920611D01*
X-3339857Y+4920611D01*
X-3397194Y+4863274D01*
X-3397194Y+7219312D01*
X-2457394Y+7219312D01*
X-2457394Y+4364254D01*
X-2457394Y+4364254D01*
G37*
%LPC*%
G36*
X-3370194Y+7014970D02*
X-3370194Y+7118854D01*
X-3296736Y+7192312D01*
X-3192852Y+7192312D01*
X-3119394Y+7118854D01*
X-3119394Y+7014970D01*
X-3192852Y+6941512D01*
X-3296736Y+6941512D01*
X-3370194Y+7014970D01*
X-3370194Y+7014970D01*
G37*
G36*
X-2927295Y+5532017D02*
X-2927295Y+5426807D01*
X-3001689Y+5352413D01*
X-3106899Y+5352413D01*
X-3181293Y+5426807D01*
X-3181293Y+5532017D01*
X-3106899Y+5606411D01*
X-3001689Y+5606411D01*
X-2927295Y+5532017D01*
X-2927295Y+5532017D01*
G37*
G36*
X-2673295Y+5532017D02*
X-2673295Y+5426807D01*
X-2747689Y+5352413D01*
X-2852899Y+5352413D01*
X-2927293Y+5426807D01*
X-2927293Y+5532017D01*
X-2852899Y+5606411D01*
X-2747689Y+5606411D01*
X-2673295Y+5532017D01*
X-2673295Y+5532017D01*
G37*
G36*
X-2927295Y+5786017D02*
X-2927295Y+5680807D01*
X-3001689Y+5606413D01*
X-3106899Y+5606413D01*
X-3181293Y+5680807D01*
X-3181293Y+5786017D01*
X-3106899Y+5860411D01*
X-3001689Y+5860411D01*
X-2927295Y+5786017D01*
X-2927295Y+5786017D01*
G37*
G36*
X-2673295Y+5786017D02*
X-2673295Y+5680807D01*
X-2747689Y+5606413D01*
X-2852899Y+5606413D01*
X-2927293Y+5680807D01*
X-2927293Y+5786017D01*
X-2852899Y+5860411D01*
X-2747689Y+5860411D01*
X-2673295Y+5786017D01*
X-2673295Y+5786017D01*
G37*
G36*
X-2927295Y+6040017D02*
X-2927295Y+5934807D01*
X-3001689Y+5860413D01*
X-3106899Y+5860413D01*
X-3181293Y+5934807D01*
X-3181293Y+6040017D01*
X-3106899Y+6114411D01*
X-3001689Y+6114411D01*
X-2927295Y+6040017D01*
X-2927295Y+6040017D01*
G37*
G36*
X-2673295Y+6040017D02*
X-2673295Y+5934807D01*
X-2747689Y+5860413D01*
X-2852899Y+5860413D01*
X-2927293Y+5934807D01*
X-2927293Y+6040017D01*
X-2852899Y+6114411D01*
X-2747689Y+6114411D01*
X-2673295Y+6040017D01*
X-2673295Y+6040017D01*
G37*
G36*
X-2927295Y+6294017D02*
X-2927295Y+6188807D01*
X-3001689Y+6114413D01*
X-3106899Y+6114413D01*
X-3181293Y+6188807D01*
X-3181293Y+6294017D01*
X-3106899Y+6368411D01*
X-3001689Y+6368411D01*
X-2927295Y+6294017D01*
X-2927295Y+6294017D01*
G37*
G36*
X-2673295Y+6294017D02*
X-2673295Y+6188807D01*
X-2747689Y+6114413D01*
X-2852899Y+6114413D01*
X-2927293Y+6188807D01*
X-2927293Y+6294017D01*
X-2852899Y+6368411D01*
X-2747689Y+6368411D01*
X-2673295Y+6294017D01*
X-2673295Y+6294017D01*
G37*
G36*
X-2927295Y+6548017D02*
X-2927295Y+6442807D01*
X-3001689Y+6368413D01*
X-3106899Y+6368413D01*
X-3181293Y+6442807D01*
X-3181293Y+6548017D01*
X-3106899Y+6622411D01*
X-3001689Y+6622411D01*
X-2927295Y+6548017D01*
X-2927295Y+6548017D01*
G37*
G36*
X-2673295Y+6548017D02*
X-2673295Y+6442807D01*
X-2747689Y+6368413D01*
X-2852899Y+6368413D01*
X-2927293Y+6442807D01*
X-2927293Y+6548017D01*
X-2852899Y+6622411D01*
X-2747689Y+6622411D01*
X-2673295Y+6548017D01*
X-2673295Y+6548017D01*
G37*
G36*
X-2927295Y+3373017D02*
X-2927295Y+3267807D01*
X-3001689Y+3193413D01*
X-3106899Y+3193413D01*
X-3181293Y+3267807D01*
X-3181293Y+3373017D01*
X-3106899Y+3447411D01*
X-3001689Y+3447411D01*
X-2927295Y+3373017D01*
X-2927295Y+3373017D01*
G37*
G36*
X-2927295Y+3627017D02*
X-2927295Y+3521807D01*
X-3001689Y+3447413D01*
X-3106899Y+3447413D01*
X-3181293Y+3521807D01*
X-3181293Y+3627017D01*
X-3106899Y+3701411D01*
X-3001689Y+3701411D01*
X-2927295Y+3627017D01*
X-2927295Y+3627017D01*
G37*
G36*
X-2927295Y+3881017D02*
X-2927295Y+3775807D01*
X-3001689Y+3701413D01*
X-3106899Y+3701413D01*
X-3181293Y+3775807D01*
X-3181293Y+3881017D01*
X-3106899Y+3955411D01*
X-3001689Y+3955411D01*
X-2927295Y+3881017D01*
X-2927295Y+3881017D01*
G37*
G36*
X-2927295Y+4135017D02*
X-2927295Y+4029807D01*
X-3001689Y+3955413D01*
X-3106899Y+3955413D01*
X-3181293Y+4029807D01*
X-3181293Y+4135017D01*
X-3106899Y+4209411D01*
X-3001689Y+4209411D01*
X-2927295Y+4135017D01*
X-2927295Y+4135017D01*
G37*
G36*
X-2927295Y+4389017D02*
X-2927295Y+4283807D01*
X-3001689Y+4209413D01*
X-3106899Y+4209413D01*
X-3181293Y+4283807D01*
X-3181293Y+4389017D01*
X-3106899Y+4463411D01*
X-3001689Y+4463411D01*
X-2927295Y+4389017D01*
X-2927295Y+4389017D01*
G37*
G36*
X-2927295Y+4643017D02*
X-2927295Y+4537807D01*
X-3001689Y+4463413D01*
X-3106899Y+4463413D01*
X-3181293Y+4537807D01*
X-3181293Y+4643017D01*
X-3106899Y+4717411D01*
X-3001689Y+4717411D01*
X-2927295Y+4643017D01*
X-2927295Y+4643017D01*
G37*
G36*
X-2673295Y+4643017D02*
X-2673295Y+4537807D01*
X-2747689Y+4463413D01*
X-2852899Y+4463413D01*
X-2927293Y+4537807D01*
X-2927293Y+4643017D01*
X-2852899Y+4717411D01*
X-2747689Y+4717411D01*
X-2673295Y+4643017D01*
X-2673295Y+4643017D01*
G37*
G36*
X-2673295Y+4897017D02*
X-2673295Y+4791807D01*
X-2747689Y+4717413D01*
X-2852899Y+4717413D01*
X-2927293Y+4791807D01*
X-2927293Y+4897017D01*
X-2852899Y+4971411D01*
X-2747689Y+4971411D01*
X-2673295Y+4897017D01*
X-2673295Y+4897017D01*
G37*
%LPD*%
G36*
X-2800293Y+2050413D02*
X-2569126Y+2050413D01*
X-2569126Y+1894105D01*
X-2598363Y+1864868D01*
X-2598363Y+1796411D01*
X-2617413Y+1796411D01*
X-2617413Y+1542413D01*
X-2457394Y+1542413D01*
X-2457394Y+1062254D01*
X-2584395Y+1189255D01*
X-2584395Y+1198235D01*
X-2636471Y+1250311D01*
X-2710117Y+1250311D01*
X-2762193Y+1198235D01*
X-2762193Y+1146171D01*
X-2846013Y+1146171D01*
X-2846013Y+751735D01*
X-2874689Y+780411D01*
X-2881575Y+780411D01*
X-2881575Y+1146171D01*
X-3049215Y+1146171D01*
X-3049215Y+1339211D01*
X-3077891Y+1339211D01*
X-3077889Y+1339213D01*
X-3030699Y+1339213D01*
X-2979899Y+1288413D01*
X-2874689Y+1288413D01*
X-2823889Y+1339213D01*
X-2800293Y+1339213D01*
X-2800293Y+1288413D01*
X-2546295Y+1288413D01*
X-2546295Y+1542411D01*
X-2800293Y+1542411D01*
X-2800293Y+1491611D01*
X-2823889Y+1491611D01*
X-2874689Y+1542411D01*
X-2979899Y+1542411D01*
X-3030699Y+1491611D01*
X-3077889Y+1491611D01*
X-3128689Y+1542411D01*
X-3233899Y+1542411D01*
X-3262575Y+1513735D01*
X-3262575Y+1542413D01*
X-3237175Y+1542413D01*
X-3237175Y+1593213D01*
X-3213231Y+1593213D01*
X-3125413Y+1681031D01*
X-3125413Y+1542413D01*
X-2729175Y+1542413D01*
X-2729175Y+1796411D01*
X-3105095Y+1796411D01*
X-3105095Y+1796413D01*
X-2922215Y+1796413D01*
X-2922215Y+2050411D01*
X-3125413Y+2050411D01*
X-3125413Y+1999611D01*
X-3149357Y+1999611D01*
X-3154773Y+1994195D01*
X-3154773Y+2026241D01*
X-3178945Y+2050413D01*
X-3128689Y+2050413D01*
X-3077889Y+2101213D01*
X-3030699Y+2101213D01*
X-2979899Y+2050413D01*
X-2874689Y+2050413D01*
X-2823889Y+2101213D01*
X-2800293Y+2101213D01*
X-2800293Y+2050413D01*
X-2800293Y+2050413D01*
G37*
G36*
X-3362175Y+2123531D02*
X-3339857Y+2101213D01*
X-3284699Y+2101213D01*
X-3233899Y+2050413D01*
X-3219501Y+2050413D01*
X-3237175Y+2032739D01*
X-3237175Y+2050411D01*
X-3397194Y+2050411D01*
X-3397194Y+2158550D01*
X-3362175Y+2123531D01*
X-3362175Y+2123531D01*
G37*
G36*
X-3257493Y+1796411D02*
X-3397194Y+1796411D01*
X-3397194Y+1796413D01*
X-3257493Y+1796413D01*
X-3257493Y+1796411D01*
X-3257493Y+1796411D01*
G37*
G36*
X-3308293Y+706017D02*
X-3308293Y+600807D01*
X-3284697Y+577211D01*
X-3397194Y+577211D01*
X-3397194Y+729613D01*
X-3284697Y+729613D01*
X-3308293Y+706017D01*
X-3308293Y+706017D01*
G37*
G36*
X-3284699Y-32389D02*
X-3339857Y-32389D01*
X-3397194Y-89726D01*
X-3397194Y-32387D01*
X-3284697Y-32387D01*
X-3284699Y-32389D01*
X-3284699Y-32389D01*
G37*
G36*
X-2800293Y-235587D02*
X-2569161Y-235587D01*
X-2569161Y-235589D01*
X-2617413Y-235589D01*
X-2617413Y-489587D01*
X-2457394Y-489587D01*
X-2457394Y-521363D01*
X-2529707Y-521363D01*
X-2581783Y-573439D01*
X-2581783Y-647085D01*
X-2569140Y-659728D01*
X-2569140Y-743589D01*
X-2800293Y-743589D01*
X-2800293Y-997587D01*
X-2569140Y-997587D01*
X-2569140Y-1505589D01*
X-2668215Y-1505589D01*
X-2668215Y-1139829D01*
X-2846013Y-1139829D01*
X-2846013Y-1534265D01*
X-2874689Y-1505589D01*
X-2881575Y-1505589D01*
X-2881575Y-1139829D01*
X-3049215Y-1139829D01*
X-3049215Y-946789D01*
X-3077891Y-946789D01*
X-3054295Y-923193D01*
X-3054295Y-817983D01*
X-3128689Y-743589D01*
X-3233899Y-743589D01*
X-3308293Y-817983D01*
X-3308293Y-923193D01*
X-3284697Y-946789D01*
X-3397194Y-946789D01*
X-3397194Y-743587D01*
X-3237175Y-743587D01*
X-3237175Y-604969D01*
X-3149357Y-692787D01*
X-3125413Y-692787D01*
X-3125413Y-743587D01*
X-2922215Y-743587D01*
X-2922215Y-489589D01*
X-3105095Y-489589D01*
X-3105095Y-489587D01*
X-2729175Y-489587D01*
X-2729175Y-235589D01*
X-3125413Y-235589D01*
X-3125413Y-374207D01*
X-3213231Y-286389D01*
X-3237175Y-286389D01*
X-3237175Y-235589D01*
X-3262575Y-235589D01*
X-3262575Y-206911D01*
X-3233899Y-235587D01*
X-3128689Y-235587D01*
X-3077889Y-184787D01*
X-3030699Y-184787D01*
X-2979899Y-235587D01*
X-2874689Y-235587D01*
X-2823889Y-184787D01*
X-2800293Y-184787D01*
X-2800293Y-235587D01*
X-2800293Y-235587D01*
G37*
%LPC*%
G36*
X-3054293Y-923193D02*
X-3054293Y-817983D01*
X-2979899Y-743589D01*
X-2874689Y-743589D01*
X-2800295Y-817983D01*
X-2800295Y-923193D01*
X-2874689Y-997587D01*
X-2979899Y-997587D01*
X-3054293Y-923193D01*
X-3054293Y-923193D01*
G37*
%LPD*%
G36*
X-3257493Y-489589D02*
X-3397194Y-489589D01*
X-3397194Y-489587D01*
X-3257493Y-489587D01*
X-3257493Y-489589D01*
X-3257493Y-489589D01*
G37*
G36*
X-3284699Y-1556389D02*
X-3339857Y-1556389D01*
X-3397194Y-1613726D01*
X-3397194Y-1556387D01*
X-3284697Y-1556387D01*
X-3284699Y-1556389D01*
X-3284699Y-1556389D01*
G37*
G36*
X-2800293Y-1759587D02*
X-2597774Y-1759587D01*
X-2597774Y-1759589D01*
X-2617413Y-1759589D01*
X-2617413Y-2013587D01*
X-2457394Y-2013587D01*
X-2457394Y-2610488D01*
X-3397194Y-2610488D01*
X-3397194Y-2267587D01*
X-3237175Y-2267587D01*
X-3237175Y-2013589D01*
X-3262575Y-2013589D01*
X-3262575Y-2013587D01*
X-3237175Y-2013587D01*
X-3237175Y-1759589D01*
X-3262575Y-1759589D01*
X-3262575Y-1730911D01*
X-3233899Y-1759587D01*
X-3128689Y-1759587D01*
X-3077889Y-1708787D01*
X-3030699Y-1708787D01*
X-2979899Y-1759587D01*
X-2874689Y-1759587D01*
X-2823889Y-1708787D01*
X-2800293Y-1708787D01*
X-2800293Y-1759587D01*
X-2800293Y-1759587D01*
G37*
%LPC*%
G36*
X-3370194Y-2510030D02*
X-3370194Y-2406146D01*
X-3296736Y-2332688D01*
X-3192852Y-2332688D01*
X-3119394Y-2406146D01*
X-3119394Y-2510030D01*
X-3192852Y-2583488D01*
X-3296736Y-2583488D01*
X-3370194Y-2510030D01*
X-3370194Y-2510030D01*
G37*
G36*
X-3125413Y-2013589D02*
X-2922215Y-2013589D01*
X-2922215Y-2267587D01*
X-3125413Y-2267587D01*
X-3125413Y-2013589D01*
X-3125413Y-2013589D01*
G37*
G36*
X-2729175Y-2013587D02*
X-3125413Y-2013587D01*
X-3125413Y-1759589D01*
X-2729175Y-1759589D01*
X-2729175Y-2013587D01*
X-2729175Y-2013587D01*
G37*
%LPD*%
G36*
X-1358899Y+4451348D02*
X-1520208Y+4451348D01*
X-1473202Y+4498354D01*
X-1473202Y+4645647D01*
X-1526556Y+4699000D01*
X-1473202Y+4752354D01*
X-1473202Y+4899647D01*
X-1502960Y+4929404D01*
X-1577354Y+5003798D01*
X-1724646Y+5003798D01*
X-1778000Y+4950444D01*
X-1831354Y+5003798D01*
X-1978646Y+5003798D01*
X-2029446Y+4952998D01*
X-2197101Y+4952998D01*
X-2197101Y+6900919D01*
X-2168483Y+6872301D01*
X-2022517Y+6872301D01*
X-1919301Y+6975517D01*
X-1919301Y+7121483D01*
X-1947919Y+7150101D01*
X-1358899Y+7150101D01*
X-1358899Y+4451348D01*
G37*
%LPC*%
G36*
X-1502960Y+6580404D02*
X-1502959Y+6580404D01*
X-1473202Y+6550647D01*
X-1473202Y+6403354D01*
X-1526556Y+6350000D01*
X-1473202Y+6296647D01*
X-1473202Y+6149354D01*
X-1526556Y+6096000D01*
X-1473202Y+6042647D01*
X-1473202Y+5895354D01*
X-1526556Y+5842000D01*
X-1473202Y+5788647D01*
X-1473202Y+5641354D01*
X-1526556Y+5588000D01*
X-1473202Y+5534647D01*
X-1473202Y+5387354D01*
X-1577354Y+5283202D01*
X-1724646Y+5283202D01*
X-1778000Y+5336556D01*
X-1831354Y+5283202D01*
X-1978646Y+5283202D01*
X-2082798Y+5387354D01*
X-2082798Y+5534646D01*
X-2029444Y+5588000D01*
X-2082798Y+5641354D01*
X-2082798Y+5788646D01*
X-2029444Y+5842000D01*
X-2082798Y+5895354D01*
X-2082798Y+6042646D01*
X-2029444Y+6096000D01*
X-2082798Y+6149354D01*
X-2082798Y+6296646D01*
X-2029444Y+6350000D01*
X-2082798Y+6403354D01*
X-2082798Y+6550646D01*
X-1978646Y+6654798D01*
X-1831354Y+6654798D01*
X-1778000Y+6601444D01*
X-1724646Y+6654798D01*
X-1577354Y+6654798D01*
X-1502960Y+6580404D01*
G37*
%LPD*%
G36*
X-1775444Y+6350000D02*
X-1778000Y+6347444D01*
X-1780556Y+6350000D01*
X-1778000Y+6352556D01*
X-1775444Y+6350000D01*
G37*
G36*
X-1775444Y+6096000D02*
X-1778000Y+6093444D01*
X-1780556Y+6096000D01*
X-1778000Y+6098556D01*
X-1775444Y+6096000D01*
G37*
G36*
X-1775444Y+5842000D02*
X-1778000Y+5839444D01*
X-1780556Y+5842000D01*
X-1778000Y+5844556D01*
X-1775444Y+5842000D01*
G37*
G36*
X-1775444Y+5588000D02*
X-1778000Y+5585444D01*
X-1780556Y+5588000D01*
X-1778000Y+5590556D01*
X-1775444Y+5588000D01*
G37*
G36*
X-1775444Y+4699000D02*
X-1778000Y+4696444D01*
X-1780556Y+4699000D01*
X-1778000Y+4701556D01*
X-1775444Y+4699000D01*
G37*
G36*
X-1775444Y+4445000D02*
X-1778000Y+4442444D01*
X-1780556Y+4445000D01*
X-1778000Y+4447556D01*
X-1775444Y+4445000D01*
G37*
G36*
X-1775444Y+4191000D02*
X-1778000Y+4188444D01*
X-1780556Y+4191000D01*
X-1778000Y+4193556D01*
X-1775444Y+4191000D01*
G37*
G36*
X-1775444Y+3937000D02*
X-1778000Y+3934444D01*
X-1780556Y+3937000D01*
X-1778000Y+3939556D01*
X-1775444Y+3937000D01*
G37*
G36*
X-1775444Y+3683000D02*
X-1778000Y+3680444D01*
X-1780556Y+3683000D01*
X-1778000Y+3685556D01*
X-1775444Y+3683000D01*
G37*
G36*
X-1775444Y+3429000D02*
X-1778000Y+3426444D01*
X-1780556Y+3429000D01*
X-1778000Y+3431556D01*
X-1775444Y+3429000D01*
G37*
G36*
X-1775444Y+3175000D02*
X-1778000Y+3172444D01*
X-1780556Y+3175000D01*
X-1778000Y+3177556D01*
X-1775444Y+3175000D01*
G37*
G36*
X-2029444Y+4699000D02*
X-2082798Y+4645646D01*
X-2082798Y+4498354D01*
X-2029444Y+4445000D01*
X-2082798Y+4391646D01*
X-2082798Y+4244354D01*
X-2029444Y+4191000D01*
X-2082798Y+4137646D01*
X-2082798Y+3990354D01*
X-2029444Y+3937000D01*
X-2082798Y+3883646D01*
X-2082798Y+3736354D01*
X-2029444Y+3683000D01*
X-2082798Y+3629646D01*
X-2082798Y+3482354D01*
X-2029444Y+3429000D01*
X-2082798Y+3375646D01*
X-2082798Y+3228354D01*
X-2029444Y+3175000D01*
X-2082798Y+3121646D01*
X-2082798Y+2997198D01*
X-2095502Y+2997198D01*
X-2095502Y+4699002D01*
X-2029446Y+4699002D01*
X-2029444Y+4699000D01*
G37*
G36*
X-1672041Y+1981202D02*
X-1470631Y+1981202D01*
X-1470631Y+1896734D01*
X-1499868Y+1867497D01*
X-1499868Y+1818090D01*
X-1518918Y+1799040D01*
X-1518918Y+1574798D01*
X-1529082Y+1574798D01*
X-1529082Y+1799040D01*
X-1558840Y+1828798D01*
X-1722122Y+1828798D01*
X-1722122Y+1981202D01*
X-1704354Y+1981202D01*
X-1688198Y+1997358D01*
X-1672041Y+1981202D01*
G37*
G36*
X-1672040Y+1219202D02*
X-1645360Y+1219202D01*
X-1663698Y+1200864D01*
X-1663698Y+1178558D01*
X-1849122Y+1178558D01*
X-1849122Y+1219202D01*
X-1704354Y+1219202D01*
X-1688197Y+1235359D01*
X-1672040Y+1219202D01*
G37*
G36*
X-1358899Y+1166481D02*
X-1384302Y+1191884D01*
X-1384302Y+1200864D01*
X-1402640Y+1219202D01*
X-1375960Y+1219202D01*
X-1358899Y+1236263D01*
X-1358899Y+1166481D01*
G37*
G36*
X-1518918Y-507999D02*
X-1518918Y-529040D01*
X-1489160Y-558798D01*
X-1471276Y-558798D01*
X-1483288Y-570810D01*
X-1483288Y-686542D01*
X-1470645Y-699185D01*
X-1470645Y-711202D01*
X-1672040Y-711202D01*
X-1688197Y-727359D01*
X-1704354Y-711202D01*
X-1722122Y-711202D01*
X-1722122Y-558798D01*
X-1558840Y-558798D01*
X-1529082Y-529040D01*
X-1529082Y-304798D01*
X-1518918Y-304798D01*
X-1518918Y-507999D01*
G37*
G36*
X-1672040Y-1066798D02*
X-1470645Y-1066798D01*
X-1470645Y-1134677D01*
X-1497880Y-1107442D01*
X-1849122Y-1107442D01*
X-1849122Y-1066798D01*
X-1704354Y-1066798D01*
X-1688197Y-1050641D01*
X-1672040Y-1066798D01*
G37*
G36*
X-1757679Y-1854201D02*
X-1798321Y-1854201D01*
X-1798321Y-1828800D01*
X-1757679Y-1828800D01*
X-1757679Y-1854201D01*
G37*
G36*
X-1757679Y-1981200D02*
X-1798321Y-1981200D01*
X-1798321Y-1955799D01*
X-1757679Y-1955799D01*
X-1757679Y-1981200D01*
G37*
G36*
X-2026918Y-2010959D02*
X-2026918Y-2300301D01*
X-2037082Y-2300301D01*
X-2037082Y-1828798D01*
X-2026918Y-1828798D01*
X-2026918Y-2010959D01*
G37*
G36*
X-1518918Y-2031999D02*
X-1518918Y-2053040D01*
X-1489160Y-2082798D01*
X-1358899Y-2082798D01*
X-1358899Y-2578101D01*
X-1947919Y-2578101D01*
X-1919301Y-2549483D01*
X-1919301Y-2403517D01*
X-1986020Y-2336798D01*
X-1751880Y-2336798D01*
X-1722122Y-2307040D01*
X-1722122Y-2082798D01*
X-1558839Y-2082798D01*
X-1529082Y-2053041D01*
X-1529082Y-1828798D01*
X-1518918Y-1828798D01*
X-1518918Y-2031999D01*
G37*
G36*
X-215899Y+4451348D02*
X-377208Y+4451348D01*
X-330202Y+4498354D01*
X-330202Y+4645647D01*
X-383556Y+4699000D01*
X-330202Y+4752354D01*
X-330202Y+4899647D01*
X-359960Y+4929404D01*
X-434354Y+5003798D01*
X-581646Y+5003798D01*
X-635000Y+4950444D01*
X-688354Y+5003798D01*
X-835646Y+5003798D01*
X-886446Y+4952998D01*
X-1054101Y+4952998D01*
X-1054101Y+6900919D01*
X-1025483Y+6872301D01*
X-879517Y+6872301D01*
X-776301Y+6975517D01*
X-776301Y+7121483D01*
X-804919Y+7150101D01*
X-215899Y+7150101D01*
X-215899Y+4451348D01*
G37*
%LPC*%
G36*
X-359960Y+6580404D02*
X-359959Y+6580404D01*
X-330202Y+6550647D01*
X-330202Y+6403354D01*
X-383556Y+6350000D01*
X-330202Y+6296647D01*
X-330202Y+6149354D01*
X-383556Y+6096000D01*
X-330202Y+6042647D01*
X-330202Y+5895354D01*
X-383556Y+5842000D01*
X-330202Y+5788647D01*
X-330202Y+5641354D01*
X-383556Y+5588000D01*
X-330202Y+5534647D01*
X-330202Y+5387354D01*
X-434354Y+5283202D01*
X-581646Y+5283202D01*
X-635000Y+5336556D01*
X-688354Y+5283202D01*
X-835646Y+5283202D01*
X-939798Y+5387354D01*
X-939798Y+5534646D01*
X-886444Y+5588000D01*
X-939798Y+5641354D01*
X-939798Y+5788646D01*
X-886444Y+5842000D01*
X-939798Y+5895354D01*
X-939798Y+6042646D01*
X-886444Y+6096000D01*
X-939798Y+6149354D01*
X-939798Y+6296646D01*
X-886444Y+6350000D01*
X-939798Y+6403354D01*
X-939798Y+6550646D01*
X-835646Y+6654798D01*
X-688354Y+6654798D01*
X-635000Y+6601444D01*
X-581646Y+6654798D01*
X-434354Y+6654798D01*
X-359960Y+6580404D01*
G37*
%LPD*%
G36*
X-632444Y+6350000D02*
X-635000Y+6347444D01*
X-637556Y+6350000D01*
X-635000Y+6352556D01*
X-632444Y+6350000D01*
G37*
G36*
X-632444Y+6096000D02*
X-635000Y+6093444D01*
X-637556Y+6096000D01*
X-635000Y+6098556D01*
X-632444Y+6096000D01*
G37*
G36*
X-632444Y+5842000D02*
X-635000Y+5839444D01*
X-637556Y+5842000D01*
X-635000Y+5844556D01*
X-632444Y+5842000D01*
G37*
G36*
X-632444Y+5588000D02*
X-635000Y+5585444D01*
X-637556Y+5588000D01*
X-635000Y+5590556D01*
X-632444Y+5588000D01*
G37*
G36*
X-632444Y+4699000D02*
X-635000Y+4696444D01*
X-637556Y+4699000D01*
X-635000Y+4701556D01*
X-632444Y+4699000D01*
G37*
G36*
X-632444Y+4445000D02*
X-635000Y+4442444D01*
X-637556Y+4445000D01*
X-635000Y+4447556D01*
X-632444Y+4445000D01*
G37*
G36*
X-632444Y+4191000D02*
X-635000Y+4188444D01*
X-637556Y+4191000D01*
X-635000Y+4193556D01*
X-632444Y+4191000D01*
G37*
G36*
X-632444Y+3937000D02*
X-635000Y+3934444D01*
X-637556Y+3937000D01*
X-635000Y+3939556D01*
X-632444Y+3937000D01*
G37*
G36*
X-632444Y+3683000D02*
X-635000Y+3680444D01*
X-637556Y+3683000D01*
X-635000Y+3685556D01*
X-632444Y+3683000D01*
G37*
G36*
X-632444Y+3429000D02*
X-635000Y+3426444D01*
X-637556Y+3429000D01*
X-635000Y+3431556D01*
X-632444Y+3429000D01*
G37*
G36*
X-632444Y+3175000D02*
X-635000Y+3172444D01*
X-637556Y+3175000D01*
X-635000Y+3177556D01*
X-632444Y+3175000D01*
G37*
G36*
X-886444Y+4699000D02*
X-939798Y+4645646D01*
X-939798Y+4498354D01*
X-886444Y+4445000D01*
X-939798Y+4391646D01*
X-939798Y+4244354D01*
X-886444Y+4191000D01*
X-939798Y+4137646D01*
X-939798Y+3990354D01*
X-886444Y+3937000D01*
X-939798Y+3883646D01*
X-939798Y+3736354D01*
X-886444Y+3683000D01*
X-939798Y+3629646D01*
X-939798Y+3482354D01*
X-886444Y+3429000D01*
X-939798Y+3375646D01*
X-939798Y+3228354D01*
X-886444Y+3175000D01*
X-939798Y+3121646D01*
X-939798Y+2997198D01*
X-952502Y+2997198D01*
X-952502Y+4699002D01*
X-886446Y+4699002D01*
X-886444Y+4699000D01*
G37*
G36*
X-529041Y+1981202D02*
X-327631Y+1981202D01*
X-327631Y+1896734D01*
X-356868Y+1867497D01*
X-356868Y+1818090D01*
X-375918Y+1799040D01*
X-375918Y+1574798D01*
X-386082Y+1574798D01*
X-386082Y+1799040D01*
X-415840Y+1828798D01*
X-579122Y+1828798D01*
X-579122Y+1981202D01*
X-561354Y+1981202D01*
X-545198Y+1997358D01*
X-529041Y+1981202D01*
G37*
G36*
X-529040Y+1219202D02*
X-502360Y+1219202D01*
X-520698Y+1200864D01*
X-520698Y+1178558D01*
X-706122Y+1178558D01*
X-706122Y+1219202D01*
X-561354Y+1219202D01*
X-545197Y+1235359D01*
X-529040Y+1219202D01*
G37*
G36*
X-215899Y+1166481D02*
X-241302Y+1191884D01*
X-241302Y+1200864D01*
X-259640Y+1219202D01*
X-232960Y+1219202D01*
X-215899Y+1236263D01*
X-215899Y+1166481D01*
G37*
G36*
X-375918Y-507999D02*
X-375918Y-529040D01*
X-346160Y-558798D01*
X-328276Y-558798D01*
X-340288Y-570810D01*
X-340288Y-686542D01*
X-327645Y-699185D01*
X-327645Y-711202D01*
X-529040Y-711202D01*
X-545197Y-727359D01*
X-561354Y-711202D01*
X-579122Y-711202D01*
X-579122Y-558798D01*
X-415840Y-558798D01*
X-386082Y-529040D01*
X-386082Y-304798D01*
X-375918Y-304798D01*
X-375918Y-507999D01*
G37*
G36*
X-529040Y-1066798D02*
X-327645Y-1066798D01*
X-327645Y-1134677D01*
X-354880Y-1107442D01*
X-706122Y-1107442D01*
X-706122Y-1066798D01*
X-561354Y-1066798D01*
X-545197Y-1050641D01*
X-529040Y-1066798D01*
G37*
G36*
X-614679Y-1854201D02*
X-655321Y-1854201D01*
X-655321Y-1828800D01*
X-614679Y-1828800D01*
X-614679Y-1854201D01*
G37*
G36*
X-614679Y-1981200D02*
X-655321Y-1981200D01*
X-655321Y-1955799D01*
X-614679Y-1955799D01*
X-614679Y-1981200D01*
G37*
G36*
X-883918Y-2010959D02*
X-883918Y-2300301D01*
X-894082Y-2300301D01*
X-894082Y-1828798D01*
X-883918Y-1828798D01*
X-883918Y-2010959D01*
G37*
G36*
X-375918Y-2031999D02*
X-375918Y-2053040D01*
X-346160Y-2082798D01*
X-215899Y-2082798D01*
X-215899Y-2578101D01*
X-804919Y-2578101D01*
X-776301Y-2549483D01*
X-776301Y-2403517D01*
X-843020Y-2336798D01*
X-608880Y-2336798D01*
X-579122Y-2307040D01*
X-579122Y-2082798D01*
X-415839Y-2082798D01*
X-386082Y-2053041D01*
X-386082Y-1828798D01*
X-375918Y-1828798D01*
X-375918Y-2031999D01*
G37*
G36*
X+927101Y+4451348D02*
X+765792Y+4451348D01*
X+812798Y+4498354D01*
X+812798Y+4645647D01*
X+759444Y+4699000D01*
X+812798Y+4752354D01*
X+812798Y+4899647D01*
X+783040Y+4929404D01*
X+708646Y+5003798D01*
X+561354Y+5003798D01*
X+508000Y+4950444D01*
X+454646Y+5003798D01*
X+307354Y+5003798D01*
X+256554Y+4952998D01*
X+88899Y+4952998D01*
X+88899Y+6900919D01*
X+117517Y+6872301D01*
X+263483Y+6872301D01*
X+366699Y+6975517D01*
X+366699Y+7121483D01*
X+338081Y+7150101D01*
X+927101Y+7150101D01*
X+927101Y+4451348D01*
G37*
%LPC*%
G36*
X+783040Y+6580404D02*
X+783041Y+6580404D01*
X+812798Y+6550647D01*
X+812798Y+6403354D01*
X+759444Y+6350000D01*
X+812798Y+6296647D01*
X+812798Y+6149354D01*
X+759444Y+6096000D01*
X+812798Y+6042647D01*
X+812798Y+5895354D01*
X+759444Y+5842000D01*
X+812798Y+5788647D01*
X+812798Y+5641354D01*
X+759444Y+5588000D01*
X+812798Y+5534647D01*
X+812798Y+5387354D01*
X+708646Y+5283202D01*
X+561354Y+5283202D01*
X+508000Y+5336556D01*
X+454646Y+5283202D01*
X+307354Y+5283202D01*
X+203202Y+5387354D01*
X+203202Y+5534646D01*
X+256556Y+5588000D01*
X+203202Y+5641354D01*
X+203202Y+5788646D01*
X+256556Y+5842000D01*
X+203202Y+5895354D01*
X+203202Y+6042646D01*
X+256556Y+6096000D01*
X+203202Y+6149354D01*
X+203202Y+6296646D01*
X+256556Y+6350000D01*
X+203202Y+6403354D01*
X+203202Y+6550646D01*
X+307354Y+6654798D01*
X+454646Y+6654798D01*
X+508000Y+6601444D01*
X+561354Y+6654798D01*
X+708646Y+6654798D01*
X+783040Y+6580404D01*
G37*
%LPD*%
G36*
X+510556Y+6350000D02*
X+508000Y+6347444D01*
X+505444Y+6350000D01*
X+508000Y+6352556D01*
X+510556Y+6350000D01*
G37*
G36*
X+510556Y+6096000D02*
X+508000Y+6093444D01*
X+505444Y+6096000D01*
X+508000Y+6098556D01*
X+510556Y+6096000D01*
G37*
G36*
X+510556Y+5842000D02*
X+508000Y+5839444D01*
X+505444Y+5842000D01*
X+508000Y+5844556D01*
X+510556Y+5842000D01*
G37*
G36*
X+510556Y+5588000D02*
X+508000Y+5585444D01*
X+505444Y+5588000D01*
X+508000Y+5590556D01*
X+510556Y+5588000D01*
G37*
G36*
X+510556Y+4699000D02*
X+508000Y+4696444D01*
X+505444Y+4699000D01*
X+508000Y+4701556D01*
X+510556Y+4699000D01*
G37*
G36*
X+510556Y+4445000D02*
X+508000Y+4442444D01*
X+505444Y+4445000D01*
X+508000Y+4447556D01*
X+510556Y+4445000D01*
G37*
G36*
X+510556Y+4191000D02*
X+508000Y+4188444D01*
X+505444Y+4191000D01*
X+508000Y+4193556D01*
X+510556Y+4191000D01*
G37*
G36*
X+510556Y+3937000D02*
X+508000Y+3934444D01*
X+505444Y+3937000D01*
X+508000Y+3939556D01*
X+510556Y+3937000D01*
G37*
G36*
X+510556Y+3683000D02*
X+508000Y+3680444D01*
X+505444Y+3683000D01*
X+508000Y+3685556D01*
X+510556Y+3683000D01*
G37*
G36*
X+510556Y+3429000D02*
X+508000Y+3426444D01*
X+505444Y+3429000D01*
X+508000Y+3431556D01*
X+510556Y+3429000D01*
G37*
G36*
X+510556Y+3175000D02*
X+508000Y+3172444D01*
X+505444Y+3175000D01*
X+508000Y+3177556D01*
X+510556Y+3175000D01*
G37*
G36*
X+256556Y+4699000D02*
X+203202Y+4645646D01*
X+203202Y+4498354D01*
X+256556Y+4445000D01*
X+203202Y+4391646D01*
X+203202Y+4244354D01*
X+256556Y+4191000D01*
X+203202Y+4137646D01*
X+203202Y+3990354D01*
X+256556Y+3937000D01*
X+203202Y+3883646D01*
X+203202Y+3736354D01*
X+256556Y+3683000D01*
X+203202Y+3629646D01*
X+203202Y+3482354D01*
X+256556Y+3429000D01*
X+203202Y+3375646D01*
X+203202Y+3228354D01*
X+256556Y+3175000D01*
X+203202Y+3121646D01*
X+203202Y+2997198D01*
X+190498Y+2997198D01*
X+190498Y+4699002D01*
X+256554Y+4699002D01*
X+256556Y+4699000D01*
G37*
G36*
X+613959Y+1981202D02*
X+815369Y+1981202D01*
X+815369Y+1896734D01*
X+786132Y+1867497D01*
X+786132Y+1818090D01*
X+767082Y+1799040D01*
X+767082Y+1574798D01*
X+756918Y+1574798D01*
X+756918Y+1799040D01*
X+727160Y+1828798D01*
X+563878Y+1828798D01*
X+563878Y+1981202D01*
X+581646Y+1981202D01*
X+597802Y+1997358D01*
X+613959Y+1981202D01*
G37*
G36*
X+613960Y+1219202D02*
X+640640Y+1219202D01*
X+622302Y+1200864D01*
X+622302Y+1178558D01*
X+436878Y+1178558D01*
X+436878Y+1219202D01*
X+581646Y+1219202D01*
X+597803Y+1235359D01*
X+613960Y+1219202D01*
G37*
G36*
X+927101Y+1166481D02*
X+901698Y+1191884D01*
X+901698Y+1200864D01*
X+883360Y+1219202D01*
X+910040Y+1219202D01*
X+927101Y+1236263D01*
X+927101Y+1166481D01*
G37*
G36*
X+767082Y-507999D02*
X+767082Y-529040D01*
X+796840Y-558798D01*
X+814724Y-558798D01*
X+802712Y-570810D01*
X+802712Y-686542D01*
X+815355Y-699185D01*
X+815355Y-711202D01*
X+613960Y-711202D01*
X+597803Y-727359D01*
X+581646Y-711202D01*
X+563878Y-711202D01*
X+563878Y-558798D01*
X+727160Y-558798D01*
X+756918Y-529040D01*
X+756918Y-304798D01*
X+767082Y-304798D01*
X+767082Y-507999D01*
G37*
G36*
X+613960Y-1066798D02*
X+815355Y-1066798D01*
X+815355Y-1134677D01*
X+788120Y-1107442D01*
X+436878Y-1107442D01*
X+436878Y-1066798D01*
X+581646Y-1066798D01*
X+597803Y-1050641D01*
X+613960Y-1066798D01*
G37*
G36*
X+528321Y-1854201D02*
X+487679Y-1854201D01*
X+487679Y-1828800D01*
X+528321Y-1828800D01*
X+528321Y-1854201D01*
G37*
G36*
X+528321Y-1981200D02*
X+487679Y-1981200D01*
X+487679Y-1955799D01*
X+528321Y-1955799D01*
X+528321Y-1981200D01*
G37*
G36*
X+259082Y-2010959D02*
X+259082Y-2300301D01*
X+248918Y-2300301D01*
X+248918Y-1828798D01*
X+259082Y-1828798D01*
X+259082Y-2010959D01*
G37*
G36*
X+767082Y-2031999D02*
X+767082Y-2053040D01*
X+796840Y-2082798D01*
X+927101Y-2082798D01*
X+927101Y-2578101D01*
X+338081Y-2578101D01*
X+366699Y-2549483D01*
X+366699Y-2403517D01*
X+299980Y-2336798D01*
X+534120Y-2336798D01*
X+563878Y-2307040D01*
X+563878Y-2082798D01*
X+727161Y-2082798D01*
X+756918Y-2053041D01*
X+756918Y-1828798D01*
X+767082Y-1828798D01*
X+767082Y-2031999D01*
G37*
G36*
X+2070101Y+4451348D02*
X+1908792Y+4451348D01*
X+1955798Y+4498354D01*
X+1955798Y+4645647D01*
X+1902444Y+4699000D01*
X+1955798Y+4752354D01*
X+1955798Y+4899647D01*
X+1926040Y+4929404D01*
X+1851646Y+5003798D01*
X+1704354Y+5003798D01*
X+1651000Y+4950444D01*
X+1597646Y+5003798D01*
X+1450354Y+5003798D01*
X+1399554Y+4952998D01*
X+1231899Y+4952998D01*
X+1231899Y+6900919D01*
X+1260517Y+6872301D01*
X+1406483Y+6872301D01*
X+1509699Y+6975517D01*
X+1509699Y+7121483D01*
X+1481081Y+7150101D01*
X+2070101Y+7150101D01*
X+2070101Y+4451348D01*
G37*
%LPC*%
G36*
X+1926040Y+6580404D02*
X+1926041Y+6580404D01*
X+1955798Y+6550647D01*
X+1955798Y+6403354D01*
X+1902444Y+6350000D01*
X+1955798Y+6296647D01*
X+1955798Y+6149354D01*
X+1902444Y+6096000D01*
X+1955798Y+6042647D01*
X+1955798Y+5895354D01*
X+1902444Y+5842000D01*
X+1955798Y+5788647D01*
X+1955798Y+5641354D01*
X+1902444Y+5588000D01*
X+1955798Y+5534647D01*
X+1955798Y+5387354D01*
X+1851646Y+5283202D01*
X+1704354Y+5283202D01*
X+1651000Y+5336556D01*
X+1597646Y+5283202D01*
X+1450354Y+5283202D01*
X+1346202Y+5387354D01*
X+1346202Y+5534646D01*
X+1399556Y+5588000D01*
X+1346202Y+5641354D01*
X+1346202Y+5788646D01*
X+1399556Y+5842000D01*
X+1346202Y+5895354D01*
X+1346202Y+6042646D01*
X+1399556Y+6096000D01*
X+1346202Y+6149354D01*
X+1346202Y+6296646D01*
X+1399556Y+6350000D01*
X+1346202Y+6403354D01*
X+1346202Y+6550646D01*
X+1450354Y+6654798D01*
X+1597646Y+6654798D01*
X+1651000Y+6601444D01*
X+1704354Y+6654798D01*
X+1851646Y+6654798D01*
X+1926040Y+6580404D01*
G37*
%LPD*%
G36*
X+1653556Y+6350000D02*
X+1651000Y+6347444D01*
X+1648444Y+6350000D01*
X+1651000Y+6352556D01*
X+1653556Y+6350000D01*
G37*
G36*
X+1653556Y+6096000D02*
X+1651000Y+6093444D01*
X+1648444Y+6096000D01*
X+1651000Y+6098556D01*
X+1653556Y+6096000D01*
G37*
G36*
X+1653556Y+5842000D02*
X+1651000Y+5839444D01*
X+1648444Y+5842000D01*
X+1651000Y+5844556D01*
X+1653556Y+5842000D01*
G37*
G36*
X+1653556Y+5588000D02*
X+1651000Y+5585444D01*
X+1648444Y+5588000D01*
X+1651000Y+5590556D01*
X+1653556Y+5588000D01*
G37*
G36*
X+1653556Y+4699000D02*
X+1651000Y+4696444D01*
X+1648444Y+4699000D01*
X+1651000Y+4701556D01*
X+1653556Y+4699000D01*
G37*
G36*
X+1653556Y+4445000D02*
X+1651000Y+4442444D01*
X+1648444Y+4445000D01*
X+1651000Y+4447556D01*
X+1653556Y+4445000D01*
G37*
G36*
X+1653556Y+4191000D02*
X+1651000Y+4188444D01*
X+1648444Y+4191000D01*
X+1651000Y+4193556D01*
X+1653556Y+4191000D01*
G37*
G36*
X+1653556Y+3937000D02*
X+1651000Y+3934444D01*
X+1648444Y+3937000D01*
X+1651000Y+3939556D01*
X+1653556Y+3937000D01*
G37*
G36*
X+1653556Y+3683000D02*
X+1651000Y+3680444D01*
X+1648444Y+3683000D01*
X+1651000Y+3685556D01*
X+1653556Y+3683000D01*
G37*
G36*
X+1653556Y+3429000D02*
X+1651000Y+3426444D01*
X+1648444Y+3429000D01*
X+1651000Y+3431556D01*
X+1653556Y+3429000D01*
G37*
G36*
X+1653556Y+3175000D02*
X+1651000Y+3172444D01*
X+1648444Y+3175000D01*
X+1651000Y+3177556D01*
X+1653556Y+3175000D01*
G37*
G36*
X+1399556Y+4699000D02*
X+1346202Y+4645646D01*
X+1346202Y+4498354D01*
X+1399556Y+4445000D01*
X+1346202Y+4391646D01*
X+1346202Y+4244354D01*
X+1399556Y+4191000D01*
X+1346202Y+4137646D01*
X+1346202Y+3990354D01*
X+1399556Y+3937000D01*
X+1346202Y+3883646D01*
X+1346202Y+3736354D01*
X+1399556Y+3683000D01*
X+1346202Y+3629646D01*
X+1346202Y+3482354D01*
X+1399556Y+3429000D01*
X+1346202Y+3375646D01*
X+1346202Y+3228354D01*
X+1399556Y+3175000D01*
X+1346202Y+3121646D01*
X+1346202Y+2997198D01*
X+1333498Y+2997198D01*
X+1333498Y+4699002D01*
X+1399554Y+4699002D01*
X+1399556Y+4699000D01*
G37*
G36*
X+1756959Y+1981202D02*
X+1958369Y+1981202D01*
X+1958369Y+1896734D01*
X+1929132Y+1867497D01*
X+1929132Y+1818090D01*
X+1910082Y+1799040D01*
X+1910082Y+1574798D01*
X+1899918Y+1574798D01*
X+1899918Y+1799040D01*
X+1870160Y+1828798D01*
X+1706878Y+1828798D01*
X+1706878Y+1981202D01*
X+1724646Y+1981202D01*
X+1740802Y+1997358D01*
X+1756959Y+1981202D01*
G37*
G36*
X+1756960Y+1219202D02*
X+1783640Y+1219202D01*
X+1765302Y+1200864D01*
X+1765302Y+1178558D01*
X+1579878Y+1178558D01*
X+1579878Y+1219202D01*
X+1724646Y+1219202D01*
X+1740803Y+1235359D01*
X+1756960Y+1219202D01*
G37*
G36*
X+2070101Y+1166481D02*
X+2044698Y+1191884D01*
X+2044698Y+1200864D01*
X+2026360Y+1219202D01*
X+2053040Y+1219202D01*
X+2070101Y+1236263D01*
X+2070101Y+1166481D01*
G37*
G36*
X+1910082Y-507999D02*
X+1910082Y-529040D01*
X+1939840Y-558798D01*
X+1957724Y-558798D01*
X+1945712Y-570810D01*
X+1945712Y-686542D01*
X+1958355Y-699185D01*
X+1958355Y-711202D01*
X+1756960Y-711202D01*
X+1740803Y-727359D01*
X+1724646Y-711202D01*
X+1706878Y-711202D01*
X+1706878Y-558798D01*
X+1870160Y-558798D01*
X+1899918Y-529040D01*
X+1899918Y-304798D01*
X+1910082Y-304798D01*
X+1910082Y-507999D01*
G37*
G36*
X+1756960Y-1066798D02*
X+1958355Y-1066798D01*
X+1958355Y-1134677D01*
X+1931120Y-1107442D01*
X+1579878Y-1107442D01*
X+1579878Y-1066798D01*
X+1724646Y-1066798D01*
X+1740803Y-1050641D01*
X+1756960Y-1066798D01*
G37*
G36*
X+1671321Y-1854201D02*
X+1630679Y-1854201D01*
X+1630679Y-1828800D01*
X+1671321Y-1828800D01*
X+1671321Y-1854201D01*
G37*
G36*
X+1671321Y-1981200D02*
X+1630679Y-1981200D01*
X+1630679Y-1955799D01*
X+1671321Y-1955799D01*
X+1671321Y-1981200D01*
G37*
G36*
X+1402082Y-2010959D02*
X+1402082Y-2300301D01*
X+1391918Y-2300301D01*
X+1391918Y-1828798D01*
X+1402082Y-1828798D01*
X+1402082Y-2010959D01*
G37*
G36*
X+1910082Y-2031999D02*
X+1910082Y-2053040D01*
X+1939840Y-2082798D01*
X+2070101Y-2082798D01*
X+2070101Y-2578101D01*
X+1481081Y-2578101D01*
X+1509699Y-2549483D01*
X+1509699Y-2403517D01*
X+1442980Y-2336798D01*
X+1677120Y-2336798D01*
X+1706878Y-2307040D01*
X+1706878Y-2082798D01*
X+1870161Y-2082798D01*
X+1899918Y-2053041D01*
X+1899918Y-1828798D01*
X+1910082Y-1828798D01*
X+1910082Y-2031999D01*
G37*
G36*
X+3213101Y+4451348D02*
X+3051792Y+4451348D01*
X+3098798Y+4498354D01*
X+3098798Y+4645647D01*
X+3045444Y+4699000D01*
X+3098798Y+4752354D01*
X+3098798Y+4899647D01*
X+3069040Y+4929404D01*
X+2994646Y+5003798D01*
X+2847354Y+5003798D01*
X+2794000Y+4950444D01*
X+2740646Y+5003798D01*
X+2593354Y+5003798D01*
X+2542554Y+4952998D01*
X+2374899Y+4952998D01*
X+2374899Y+6900919D01*
X+2403517Y+6872301D01*
X+2549483Y+6872301D01*
X+2652699Y+6975517D01*
X+2652699Y+7121483D01*
X+2624081Y+7150101D01*
X+3213101Y+7150101D01*
X+3213101Y+4451348D01*
G37*
%LPC*%
G36*
X+3069040Y+6580404D02*
X+3069041Y+6580404D01*
X+3098798Y+6550647D01*
X+3098798Y+6403354D01*
X+3045444Y+6350000D01*
X+3098798Y+6296647D01*
X+3098798Y+6149354D01*
X+3045444Y+6096000D01*
X+3098798Y+6042647D01*
X+3098798Y+5895354D01*
X+3045444Y+5842000D01*
X+3098798Y+5788647D01*
X+3098798Y+5641354D01*
X+3045444Y+5588000D01*
X+3098798Y+5534647D01*
X+3098798Y+5387354D01*
X+2994646Y+5283202D01*
X+2847354Y+5283202D01*
X+2794000Y+5336556D01*
X+2740646Y+5283202D01*
X+2593354Y+5283202D01*
X+2489202Y+5387354D01*
X+2489202Y+5534646D01*
X+2542556Y+5588000D01*
X+2489202Y+5641354D01*
X+2489202Y+5788646D01*
X+2542556Y+5842000D01*
X+2489202Y+5895354D01*
X+2489202Y+6042646D01*
X+2542556Y+6096000D01*
X+2489202Y+6149354D01*
X+2489202Y+6296646D01*
X+2542556Y+6350000D01*
X+2489202Y+6403354D01*
X+2489202Y+6550646D01*
X+2593354Y+6654798D01*
X+2740646Y+6654798D01*
X+2794000Y+6601444D01*
X+2847354Y+6654798D01*
X+2994646Y+6654798D01*
X+3069040Y+6580404D01*
G37*
%LPD*%
G36*
X+2796556Y+6350000D02*
X+2794000Y+6347444D01*
X+2791444Y+6350000D01*
X+2794000Y+6352556D01*
X+2796556Y+6350000D01*
G37*
G36*
X+2796556Y+6096000D02*
X+2794000Y+6093444D01*
X+2791444Y+6096000D01*
X+2794000Y+6098556D01*
X+2796556Y+6096000D01*
G37*
G36*
X+2796556Y+5842000D02*
X+2794000Y+5839444D01*
X+2791444Y+5842000D01*
X+2794000Y+5844556D01*
X+2796556Y+5842000D01*
G37*
G36*
X+2796556Y+5588000D02*
X+2794000Y+5585444D01*
X+2791444Y+5588000D01*
X+2794000Y+5590556D01*
X+2796556Y+5588000D01*
G37*
G36*
X+2796556Y+4699000D02*
X+2794000Y+4696444D01*
X+2791444Y+4699000D01*
X+2794000Y+4701556D01*
X+2796556Y+4699000D01*
G37*
G36*
X+2796556Y+4445000D02*
X+2794000Y+4442444D01*
X+2791444Y+4445000D01*
X+2794000Y+4447556D01*
X+2796556Y+4445000D01*
G37*
G36*
X+2796556Y+4191000D02*
X+2794000Y+4188444D01*
X+2791444Y+4191000D01*
X+2794000Y+4193556D01*
X+2796556Y+4191000D01*
G37*
G36*
X+2796556Y+3937000D02*
X+2794000Y+3934444D01*
X+2791444Y+3937000D01*
X+2794000Y+3939556D01*
X+2796556Y+3937000D01*
G37*
G36*
X+2796556Y+3683000D02*
X+2794000Y+3680444D01*
X+2791444Y+3683000D01*
X+2794000Y+3685556D01*
X+2796556Y+3683000D01*
G37*
G36*
X+2796556Y+3429000D02*
X+2794000Y+3426444D01*
X+2791444Y+3429000D01*
X+2794000Y+3431556D01*
X+2796556Y+3429000D01*
G37*
G36*
X+2796556Y+3175000D02*
X+2794000Y+3172444D01*
X+2791444Y+3175000D01*
X+2794000Y+3177556D01*
X+2796556Y+3175000D01*
G37*
G36*
X+2542556Y+4699000D02*
X+2489202Y+4645646D01*
X+2489202Y+4498354D01*
X+2542556Y+4445000D01*
X+2489202Y+4391646D01*
X+2489202Y+4244354D01*
X+2542556Y+4191000D01*
X+2489202Y+4137646D01*
X+2489202Y+3990354D01*
X+2542556Y+3937000D01*
X+2489202Y+3883646D01*
X+2489202Y+3736354D01*
X+2542556Y+3683000D01*
X+2489202Y+3629646D01*
X+2489202Y+3482354D01*
X+2542556Y+3429000D01*
X+2489202Y+3375646D01*
X+2489202Y+3228354D01*
X+2542556Y+3175000D01*
X+2489202Y+3121646D01*
X+2489202Y+2997198D01*
X+2476498Y+2997198D01*
X+2476498Y+4699002D01*
X+2542554Y+4699002D01*
X+2542556Y+4699000D01*
G37*
G36*
X+2899959Y+1981202D02*
X+3101369Y+1981202D01*
X+3101369Y+1896734D01*
X+3072132Y+1867497D01*
X+3072132Y+1818090D01*
X+3053082Y+1799040D01*
X+3053082Y+1574798D01*
X+3042918Y+1574798D01*
X+3042918Y+1799040D01*
X+3013160Y+1828798D01*
X+2849878Y+1828798D01*
X+2849878Y+1981202D01*
X+2867646Y+1981202D01*
X+2883802Y+1997358D01*
X+2899959Y+1981202D01*
G37*
G36*
X+2899960Y+1219202D02*
X+2926640Y+1219202D01*
X+2908302Y+1200864D01*
X+2908302Y+1178558D01*
X+2722878Y+1178558D01*
X+2722878Y+1219202D01*
X+2867646Y+1219202D01*
X+2883803Y+1235359D01*
X+2899960Y+1219202D01*
G37*
G36*
X+3213101Y+1166481D02*
X+3187698Y+1191884D01*
X+3187698Y+1200864D01*
X+3169360Y+1219202D01*
X+3196040Y+1219202D01*
X+3213101Y+1236263D01*
X+3213101Y+1166481D01*
G37*
G36*
X+3053082Y-507999D02*
X+3053082Y-529040D01*
X+3082840Y-558798D01*
X+3100724Y-558798D01*
X+3088712Y-570810D01*
X+3088712Y-686542D01*
X+3101355Y-699185D01*
X+3101355Y-711202D01*
X+2899960Y-711202D01*
X+2883803Y-727359D01*
X+2867646Y-711202D01*
X+2849878Y-711202D01*
X+2849878Y-558798D01*
X+3013160Y-558798D01*
X+3042918Y-529040D01*
X+3042918Y-304798D01*
X+3053082Y-304798D01*
X+3053082Y-507999D01*
G37*
G36*
X+2899960Y-1066798D02*
X+3101355Y-1066798D01*
X+3101355Y-1134677D01*
X+3074120Y-1107442D01*
X+2722878Y-1107442D01*
X+2722878Y-1066798D01*
X+2867646Y-1066798D01*
X+2883803Y-1050641D01*
X+2899960Y-1066798D01*
G37*
G36*
X+2814321Y-1854201D02*
X+2773679Y-1854201D01*
X+2773679Y-1828800D01*
X+2814321Y-1828800D01*
X+2814321Y-1854201D01*
G37*
G36*
X+2814321Y-1981200D02*
X+2773679Y-1981200D01*
X+2773679Y-1955799D01*
X+2814321Y-1955799D01*
X+2814321Y-1981200D01*
G37*
G36*
X+2545082Y-2010959D02*
X+2545082Y-2300301D01*
X+2534918Y-2300301D01*
X+2534918Y-1828798D01*
X+2545082Y-1828798D01*
X+2545082Y-2010959D01*
G37*
G36*
X+3053082Y-2031999D02*
X+3053082Y-2053040D01*
X+3082840Y-2082798D01*
X+3213101Y-2082798D01*
X+3213101Y-2578101D01*
X+2624081Y-2578101D01*
X+2652699Y-2549483D01*
X+2652699Y-2403517D01*
X+2585980Y-2336798D01*
X+2820120Y-2336798D01*
X+2849878Y-2307040D01*
X+2849878Y-2082798D01*
X+3013161Y-2082798D01*
X+3042918Y-2053041D01*
X+3042918Y-1828798D01*
X+3053082Y-1828798D01*
X+3053082Y-2031999D01*
G37*
D10*
X-2673294Y+2177412D02*
X-2927294Y+2177412D01*
X-3181294Y+2177412D01*
X-2927294Y+1415412D02*
X-2673294Y+1415412D01*
X-3181294Y+1415412D02*
X-2927294Y+1415412D01*
X-3181294Y+2177412D02*
X-3181294Y+2400932D01*
X-2990794Y-108588D02*
X-2927294Y-108588D01*
X-2990794Y-108588D02*
X-3181294Y-108588D01*
X-2800294Y-108588D02*
X-2673294Y-108588D01*
X-2927294Y-108588D02*
X-2800294Y-108588D01*
X-2673294Y-1632588D02*
X-2673294Y-1632588D01*
X-2927294Y+653412D02*
X-2990794Y+653412D01*
X-3181294Y+653412D01*
X-2673294Y+653412D02*
X-2800294Y+653412D01*
X-2927294Y+653412D02*
X-2800294Y+653412D01*
X-2673294Y-1632588D02*
X-2820614Y-1632588D01*
X-2927294Y-1632588D02*
X-2820614Y-1632588D01*
X-3138114Y-1442088D02*
X-3138114Y-1251588D01*
X-3138114Y-1061088D01*
X-3138114Y-1251588D02*
X-2970474Y-1251588D01*
X-2757114Y-1442088D02*
X-2757114Y-1251588D01*
X-3138114Y-1442088D02*
X-3138114Y-1612268D01*
X-3117794Y-1632588D01*
X-2947614Y-1632588D01*
X-2927294Y-1632588D01*
X-3117794Y-1632588D02*
X-3181294Y-1632588D01*
X-3023814Y-1886588D02*
X-2830774Y-1886588D01*
X-3338774Y-1886588D02*
X-3338774Y-2140588D01*
X-3338774Y-362588D02*
X-3338774Y-139068D01*
X-3308294Y-108588D01*
X-3181294Y-108588D01*
X-3338774Y-1886588D02*
X-3338774Y-1663068D01*
X-3308294Y-1632588D01*
X-3181294Y-1632588D01*
X-3338774Y-362588D02*
X-3244794Y-362588D01*
X-3181294Y-426088D01*
X-3181294Y-553088D01*
X-3117794Y-616588D01*
X-3023814Y-616588D01*
X-3023814Y-362588D02*
X-2830774Y-362588D01*
X-2970474Y+272412D02*
X-3138114Y+272412D01*
X-3138114Y+462912D02*
X-3138114Y+272412D01*
X-3138114Y+81912D01*
X-3138114Y-65408D01*
X-3181294Y-108588D01*
X-2757114Y+843912D02*
X-2757114Y+1034412D01*
X-2970474Y+1034412D02*
X-3138114Y+1034412D01*
X-3138114Y+1224912D02*
X-3138114Y+1034412D01*
X-3138114Y+843912D01*
X-3138114Y+696592D01*
X-3181294Y+653412D01*
X-3338774Y+1669412D02*
X-3338774Y+1391358D01*
X-3172328Y+1224912D01*
X-3138114Y+1224912D01*
X-3338774Y+1669412D02*
X-3244794Y+1669412D01*
X-3181294Y+1732912D01*
X-3181294Y+1859912D01*
X-3117794Y+1923412D01*
X-3023814Y+1923412D01*
X-3338774Y+1923412D02*
X-3254357Y+2007829D01*
X-3199223Y+2007829D01*
X-3023814Y+1669412D02*
X-2830774Y+1669412D01*
X-2757114Y+81912D02*
X-2757114Y+272412D01*
X-3054294Y+4844412D02*
X-3308294Y+4844412D01*
X-3371794Y+4780912D01*
X-3371794Y+2685412D01*
X-3371794Y+2240912D01*
X-3308294Y+2177412D01*
X-3181294Y+2177412D01*
D11*
X-2515814Y+1669412D02*
X-2515814Y+1830675D01*
X-2486577Y+1859912D01*
X-2486577Y+4276695D01*
X-2546294Y+4336412D01*
X-2800294Y+4336412D01*
X-2609794Y+2685412D02*
X-2609794Y+2939412D01*
X-2609794Y+3002912D01*
X-2609794Y+4018912D01*
X-2673294Y+4082412D01*
X-2800294Y+4082412D01*
D10*
X-2927294Y+2400932D02*
X-2767274Y+2400932D01*
X-2736794Y+2431412D01*
X-2736794Y+2812412D01*
X-2800294Y+2875912D01*
X-3244794Y+2875912D01*
D11*
X-2673294Y+1161412D02*
X-2486612Y+974730D01*
X-2486612Y-333386D01*
X-2515814Y-362588D01*
D10*
X-2970474Y+81912D02*
X-2927294Y+81912D01*
X-2863794Y+145412D01*
X-2863794Y+399412D01*
X-2800294Y+462912D01*
X-2673294Y+462912D01*
D11*
X-2492884Y-610262D02*
X-2486591Y-616555D01*
X-2486591Y-708704D01*
X-2486591Y-1724413D01*
X-2515225Y-1753047D01*
X-2515225Y-1885999D01*
X-2515814Y-1886588D01*
D10*
X-2457394Y+4364254D02*
X-2512101Y+4418961D01*
X-2703239Y+4418961D01*
X-2747689Y+4463411D01*
X-2852899Y+4463411D01*
X-2927293Y+4389017D01*
X-2927293Y+4283807D01*
X-2852899Y+4209413D01*
X-2747689Y+4209413D01*
X-2703239Y+4253863D01*
X-2580487Y+4253863D01*
X-2569126Y+4242502D01*
X-2569126Y+4094986D01*
X-2639101Y+4164961D01*
X-2703239Y+4164961D01*
X-2747689Y+4209411D01*
X-2852899Y+4209411D01*
X-2927293Y+4135017D01*
X-2927293Y+4029807D01*
X-2852899Y+3955413D01*
X-2747689Y+3955413D01*
X-2705363Y+3997739D01*
X-2692343Y+3984719D01*
X-2692343Y+3900065D01*
X-2747689Y+3955411D01*
X-2852899Y+3955411D01*
X-2927293Y+3881017D01*
X-2927293Y+3775807D01*
X-2852899Y+3701413D01*
X-2747689Y+3701413D01*
X-2692343Y+3756759D01*
X-2692343Y+3646065D01*
X-2747689Y+3701411D01*
X-2852899Y+3701411D01*
X-2927293Y+3627017D01*
X-2927293Y+3521807D01*
X-2852899Y+3447413D01*
X-2747689Y+3447413D01*
X-2692343Y+3502759D01*
X-2692343Y+3392065D01*
X-2747689Y+3447411D01*
X-2852899Y+3447411D01*
X-2927293Y+3373017D01*
X-2927293Y+3267807D01*
X-2852899Y+3193413D01*
X-2747689Y+3193413D01*
X-2692343Y+3248759D01*
X-2692343Y+3138065D01*
X-2747689Y+3193411D01*
X-2852899Y+3193411D01*
X-2927293Y+3119017D01*
X-2927293Y+3013807D01*
X-2865597Y+2952111D01*
X-2988991Y+2952111D01*
X-2927295Y+3013807D01*
X-2927295Y+3119017D01*
X-3001689Y+3193411D01*
X-3106899Y+3193411D01*
X-3181293Y+3119017D01*
X-3181293Y+3013807D01*
X-3119597Y+2952111D01*
X-3195271Y+2952111D01*
X-3207971Y+2964811D01*
X-3281617Y+2964811D01*
X-3295595Y+2950833D01*
X-3295595Y+4749349D01*
X-3276731Y+4768213D01*
X-3157699Y+4768213D01*
X-3106899Y+4717413D01*
X-3001689Y+4717413D01*
X-2927295Y+4791807D01*
X-2927295Y+4897017D01*
X-3001689Y+4971411D01*
X-3106899Y+4971411D01*
X-3157699Y+4920611D01*
X-3339857Y+4920611D01*
X-3397194Y+4863274D01*
X-3397194Y+7219312D01*
X-2457394Y+7219312D01*
X-2457394Y+4364254D01*
X-3370194Y+7014970D02*
X-3370194Y+7118854D01*
X-3296736Y+7192312D01*
X-3192852Y+7192312D01*
X-3119394Y+7118854D01*
X-3119394Y+7014970D01*
X-3192852Y+6941512D01*
X-3296736Y+6941512D01*
X-3370194Y+7014970D01*
X-2927295Y+5532017D02*
X-2927295Y+5426807D01*
X-3001689Y+5352413D01*
X-3106899Y+5352413D01*
X-3181293Y+5426807D01*
X-3181293Y+5532017D01*
X-3106899Y+5606411D01*
X-3001689Y+5606411D01*
X-2927295Y+5532017D01*
X-2673295Y+5532017D02*
X-2673295Y+5426807D01*
X-2747689Y+5352413D01*
X-2852899Y+5352413D01*
X-2927293Y+5426807D01*
X-2927293Y+5532017D01*
X-2852899Y+5606411D01*
X-2747689Y+5606411D01*
X-2673295Y+5532017D01*
X-2927295Y+5786017D02*
X-2927295Y+5680807D01*
X-3001689Y+5606413D01*
X-3106899Y+5606413D01*
X-3181293Y+5680807D01*
X-3181293Y+5786017D01*
X-3106899Y+5860411D01*
X-3001689Y+5860411D01*
X-2927295Y+5786017D01*
X-2673295Y+5786017D02*
X-2673295Y+5680807D01*
X-2747689Y+5606413D01*
X-2852899Y+5606413D01*
X-2927293Y+5680807D01*
X-2927293Y+5786017D01*
X-2852899Y+5860411D01*
X-2747689Y+5860411D01*
X-2673295Y+5786017D01*
X-2927295Y+6040017D02*
X-2927295Y+5934807D01*
X-3001689Y+5860413D01*
X-3106899Y+5860413D01*
X-3181293Y+5934807D01*
X-3181293Y+6040017D01*
X-3106899Y+6114411D01*
X-3001689Y+6114411D01*
X-2927295Y+6040017D01*
X-2673295Y+6040017D02*
X-2673295Y+5934807D01*
X-2747689Y+5860413D01*
X-2852899Y+5860413D01*
X-2927293Y+5934807D01*
X-2927293Y+6040017D01*
X-2852899Y+6114411D01*
X-2747689Y+6114411D01*
X-2673295Y+6040017D01*
X-2927295Y+6294017D02*
X-2927295Y+6188807D01*
X-3001689Y+6114413D01*
X-3106899Y+6114413D01*
X-3181293Y+6188807D01*
X-3181293Y+6294017D01*
X-3106899Y+6368411D01*
X-3001689Y+6368411D01*
X-2927295Y+6294017D01*
X-2673295Y+6294017D02*
X-2673295Y+6188807D01*
X-2747689Y+6114413D01*
X-2852899Y+6114413D01*
X-2927293Y+6188807D01*
X-2927293Y+6294017D01*
X-2852899Y+6368411D01*
X-2747689Y+6368411D01*
X-2673295Y+6294017D01*
X-2927295Y+6548017D02*
X-2927295Y+6442807D01*
X-3001689Y+6368413D01*
X-3106899Y+6368413D01*
X-3181293Y+6442807D01*
X-3181293Y+6548017D01*
X-3106899Y+6622411D01*
X-3001689Y+6622411D01*
X-2927295Y+6548017D01*
X-2673295Y+6548017D02*
X-2673295Y+6442807D01*
X-2747689Y+6368413D01*
X-2852899Y+6368413D01*
X-2927293Y+6442807D01*
X-2927293Y+6548017D01*
X-2852899Y+6622411D01*
X-2747689Y+6622411D01*
X-2673295Y+6548017D01*
X-2927295Y+3373017D02*
X-2927295Y+3267807D01*
X-3001689Y+3193413D01*
X-3106899Y+3193413D01*
X-3181293Y+3267807D01*
X-3181293Y+3373017D01*
X-3106899Y+3447411D01*
X-3001689Y+3447411D01*
X-2927295Y+3373017D01*
X-2927295Y+3627017D02*
X-2927295Y+3521807D01*
X-3001689Y+3447413D01*
X-3106899Y+3447413D01*
X-3181293Y+3521807D01*
X-3181293Y+3627017D01*
X-3106899Y+3701411D01*
X-3001689Y+3701411D01*
X-2927295Y+3627017D01*
X-2927295Y+3881017D02*
X-2927295Y+3775807D01*
X-3001689Y+3701413D01*
X-3106899Y+3701413D01*
X-3181293Y+3775807D01*
X-3181293Y+3881017D01*
X-3106899Y+3955411D01*
X-3001689Y+3955411D01*
X-2927295Y+3881017D01*
X-2927295Y+4135017D02*
X-2927295Y+4029807D01*
X-3001689Y+3955413D01*
X-3106899Y+3955413D01*
X-3181293Y+4029807D01*
X-3181293Y+4135017D01*
X-3106899Y+4209411D01*
X-3001689Y+4209411D01*
X-2927295Y+4135017D01*
X-2927295Y+4389017D02*
X-2927295Y+4283807D01*
X-3001689Y+4209413D01*
X-3106899Y+4209413D01*
X-3181293Y+4283807D01*
X-3181293Y+4389017D01*
X-3106899Y+4463411D01*
X-3001689Y+4463411D01*
X-2927295Y+4389017D01*
X-2927295Y+4643017D02*
X-2927295Y+4537807D01*
X-3001689Y+4463413D01*
X-3106899Y+4463413D01*
X-3181293Y+4537807D01*
X-3181293Y+4643017D01*
X-3106899Y+4717411D01*
X-3001689Y+4717411D01*
X-2927295Y+4643017D01*
X-2673295Y+4643017D02*
X-2673295Y+4537807D01*
X-2747689Y+4463413D01*
X-2852899Y+4463413D01*
X-2927293Y+4537807D01*
X-2927293Y+4643017D01*
X-2852899Y+4717411D01*
X-2747689Y+4717411D01*
X-2673295Y+4643017D01*
X-2673295Y+4897017D02*
X-2673295Y+4791807D01*
X-2747689Y+4717413D01*
X-2852899Y+4717413D01*
X-2927293Y+4791807D01*
X-2927293Y+4897017D01*
X-2852899Y+4971411D01*
X-2747689Y+4971411D01*
X-2673295Y+4897017D01*
X-2800293Y+2050413D02*
X-2569126Y+2050413D01*
X-2569126Y+1894105D01*
X-2598363Y+1864868D01*
X-2598363Y+1796411D01*
X-2617413Y+1796411D01*
X-2617413Y+1542413D01*
X-2457394Y+1542413D01*
X-2457394Y+1062254D01*
X-2584395Y+1189255D01*
X-2584395Y+1198235D01*
X-2636471Y+1250311D01*
X-2710117Y+1250311D01*
X-2762193Y+1198235D01*
X-2762193Y+1146171D01*
X-2846013Y+1146171D01*
X-2846013Y+751735D01*
X-2874689Y+780411D01*
X-2881575Y+780411D01*
X-2881575Y+1146171D01*
X-3049215Y+1146171D01*
X-3049215Y+1339211D01*
X-3077891Y+1339211D01*
X-3077889Y+1339213D01*
X-3030699Y+1339213D01*
X-2979899Y+1288413D01*
X-2874689Y+1288413D01*
X-2823889Y+1339213D01*
X-2800293Y+1339213D01*
X-2800293Y+1288413D01*
X-2546295Y+1288413D01*
X-2546295Y+1542411D01*
X-2800293Y+1542411D01*
X-2800293Y+1491611D01*
X-2823889Y+1491611D01*
X-2874689Y+1542411D01*
X-2979899Y+1542411D01*
X-3030699Y+1491611D01*
X-3077889Y+1491611D01*
X-3128689Y+1542411D01*
X-3233899Y+1542411D01*
X-3262575Y+1513735D01*
X-3262575Y+1542413D01*
X-3237175Y+1542413D01*
X-3237175Y+1593213D01*
X-3213231Y+1593213D01*
X-3125413Y+1681031D01*
X-3125413Y+1542413D01*
X-2729175Y+1542413D01*
X-2729175Y+1796411D01*
X-3105095Y+1796411D01*
X-3105095Y+1796413D01*
X-2922215Y+1796413D01*
X-2922215Y+2050411D01*
X-3125413Y+2050411D01*
X-3125413Y+1999611D01*
X-3149357Y+1999611D01*
X-3154773Y+1994195D01*
X-3154773Y+2026241D01*
X-3178945Y+2050413D01*
X-3128689Y+2050413D01*
X-3077889Y+2101213D01*
X-3030699Y+2101213D01*
X-2979899Y+2050413D01*
X-2874689Y+2050413D01*
X-2823889Y+2101213D01*
X-2800293Y+2101213D01*
X-2800293Y+2050413D01*
X-3362175Y+2123531D02*
X-3339857Y+2101213D01*
X-3284699Y+2101213D01*
X-3233899Y+2050413D01*
X-3219501Y+2050413D01*
X-3237175Y+2032739D01*
X-3237175Y+2050411D01*
X-3397194Y+2050411D01*
X-3397194Y+2158550D01*
X-3362175Y+2123531D01*
X-3257493Y+1796411D02*
X-3397194Y+1796411D01*
X-3397194Y+1796413D01*
X-3257493Y+1796413D01*
X-3257493Y+1796411D01*
X-3308293Y+706017D02*
X-3308293Y+600807D01*
X-3284697Y+577211D01*
X-3397194Y+577211D01*
X-3397194Y+729613D01*
X-3284697Y+729613D01*
X-3308293Y+706017D01*
X-3284699Y-32389D02*
X-3339857Y-32389D01*
X-3397194Y-89726D01*
X-3397194Y-32387D01*
X-3284697Y-32387D01*
X-3284699Y-32389D01*
X-2800293Y-235587D02*
X-2569161Y-235587D01*
X-2569161Y-235589D01*
X-2617413Y-235589D01*
X-2617413Y-489587D01*
X-2457394Y-489587D01*
X-2457394Y-521363D01*
X-2529707Y-521363D01*
X-2581783Y-573439D01*
X-2581783Y-647085D01*
X-2569140Y-659728D01*
X-2569140Y-743589D01*
X-2800293Y-743589D01*
X-2800293Y-997587D01*
X-2569140Y-997587D01*
X-2569140Y-1505589D01*
X-2668215Y-1505589D01*
X-2668215Y-1139829D01*
X-2846013Y-1139829D01*
X-2846013Y-1534265D01*
X-2874689Y-1505589D01*
X-2881575Y-1505589D01*
X-2881575Y-1139829D01*
X-3049215Y-1139829D01*
X-3049215Y-946789D01*
X-3077891Y-946789D01*
X-3054295Y-923193D01*
X-3054295Y-817983D01*
X-3128689Y-743589D01*
X-3233899Y-743589D01*
X-3308293Y-817983D01*
X-3308293Y-923193D01*
X-3284697Y-946789D01*
X-3397194Y-946789D01*
X-3397194Y-743587D01*
X-3237175Y-743587D01*
X-3237175Y-604969D01*
X-3149357Y-692787D01*
X-3125413Y-692787D01*
X-3125413Y-743587D01*
X-2922215Y-743587D01*
X-2922215Y-489589D01*
X-3105095Y-489589D01*
X-3105095Y-489587D01*
X-2729175Y-489587D01*
X-2729175Y-235589D01*
X-3125413Y-235589D01*
X-3125413Y-374207D01*
X-3213231Y-286389D01*
X-3237175Y-286389D01*
X-3237175Y-235589D01*
X-3262575Y-235589D01*
X-3262575Y-206911D01*
X-3233899Y-235587D01*
X-3128689Y-235587D01*
X-3077889Y-184787D01*
X-3030699Y-184787D01*
X-2979899Y-235587D01*
X-2874689Y-235587D01*
X-2823889Y-184787D01*
X-2800293Y-184787D01*
X-2800293Y-235587D01*
X-3054293Y-923193D02*
X-3054293Y-817983D01*
X-2979899Y-743589D01*
X-2874689Y-743589D01*
X-2800295Y-817983D01*
X-2800295Y-923193D01*
X-2874689Y-997587D01*
X-2979899Y-997587D01*
X-3054293Y-923193D01*
X-3257493Y-489589D02*
X-3397194Y-489589D01*
X-3397194Y-489587D01*
X-3257493Y-489587D01*
X-3257493Y-489589D01*
X-3284699Y-1556389D02*
X-3339857Y-1556389D01*
X-3397194Y-1613726D01*
X-3397194Y-1556387D01*
X-3284697Y-1556387D01*
X-3284699Y-1556389D01*
X-2800293Y-1759587D02*
X-2597774Y-1759587D01*
X-2597774Y-1759589D01*
X-2617413Y-1759589D01*
X-2617413Y-2013587D01*
X-2457394Y-2013587D01*
X-2457394Y-2610488D01*
X-3397194Y-2610488D01*
X-3397194Y-2267587D01*
X-3237175Y-2267587D01*
X-3237175Y-2013589D01*
X-3262575Y-2013589D01*
X-3262575Y-2013587D01*
X-3237175Y-2013587D01*
X-3237175Y-1759589D01*
X-3262575Y-1759589D01*
X-3262575Y-1730911D01*
X-3233899Y-1759587D01*
X-3128689Y-1759587D01*
X-3077889Y-1708787D01*
X-3030699Y-1708787D01*
X-2979899Y-1759587D01*
X-2874689Y-1759587D01*
X-2823889Y-1708787D01*
X-2800293Y-1708787D01*
X-2800293Y-1759587D01*
X-3370194Y-2510030D02*
X-3370194Y-2406146D01*
X-3296736Y-2332688D01*
X-3192852Y-2332688D01*
X-3119394Y-2406146D01*
X-3119394Y-2510030D01*
X-3192852Y-2583488D01*
X-3296736Y-2583488D01*
X-3370194Y-2510030D01*
X-3125413Y-2013589D02*
X-2922215Y-2013589D01*
X-2922215Y-2267587D01*
X-3125413Y-2267587D01*
X-3125413Y-2013589D01*
X-2729175Y-2013587D02*
X-3125413Y-2013587D01*
X-3125413Y-1759589D01*
X-2729175Y-1759589D01*
X-2729175Y-2013587D01*
D12*
X-2927295Y+5733412D02*
X-3054294Y+5733412D01*
X-3181293Y+5733412D02*
X-3054294Y+5733412D01*
X-3054294Y+5860411D02*
X-3054294Y+5733412D01*
X-3054294Y+5606413D02*
X-3054294Y+5733412D01*
X-2673295Y+5733412D02*
X-2800294Y+5733412D01*
X-2927293Y+5733412D02*
X-2800294Y+5733412D01*
X-2800294Y+5860411D02*
X-2800294Y+5733412D01*
X-2800294Y+5606413D02*
X-2800294Y+5733412D01*
X-2927295Y+5987412D02*
X-3054294Y+5987412D01*
X-3181293Y+5987412D02*
X-3054294Y+5987412D01*
X-3054294Y+6114411D02*
X-3054294Y+5987412D01*
X-3054294Y+5860413D02*
X-3054294Y+5987412D01*
X-2673295Y+5987412D02*
X-2800294Y+5987412D01*
X-2927293Y+5987412D02*
X-2800294Y+5987412D01*
X-2800294Y+6114411D02*
X-2800294Y+5987412D01*
X-2800294Y+5860413D02*
X-2800294Y+5987412D01*
X-2927295Y+6241412D02*
X-3054294Y+6241412D01*
X-3181293Y+6241412D02*
X-3054294Y+6241412D01*
X-3054294Y+6368411D02*
X-3054294Y+6241412D01*
X-3054294Y+6114413D02*
X-3054294Y+6241412D01*
X-2673295Y+6241412D02*
X-2800294Y+6241412D01*
X-2927293Y+6241412D02*
X-2800294Y+6241412D01*
X-2800294Y+6368411D02*
X-2800294Y+6241412D01*
X-2800294Y+6114413D02*
X-2800294Y+6241412D01*
X-2927295Y+3320412D02*
X-3054294Y+3320412D01*
X-3181293Y+3320412D02*
X-3054294Y+3320412D01*
X-3054294Y+3447411D02*
X-3054294Y+3320412D01*
X-3054294Y+3193413D02*
X-3054294Y+3320412D01*
X-2927293Y+3320412D02*
X-2800294Y+3320412D01*
X-2800294Y+3447411D02*
X-2800294Y+3320412D01*
X-2800294Y+3193413D02*
X-2800294Y+3320412D01*
X-2927295Y+3574412D02*
X-3054294Y+3574412D01*
X-3181293Y+3574412D02*
X-3054294Y+3574412D01*
X-3054294Y+3701411D02*
X-3054294Y+3574412D01*
X-3054294Y+3447413D02*
X-3054294Y+3574412D01*
X-2927293Y+3574412D02*
X-2800294Y+3574412D01*
X-2800294Y+3701411D02*
X-2800294Y+3574412D01*
X-2800294Y+3447413D02*
X-2800294Y+3574412D01*
X-2927295Y+3828412D02*
X-3054294Y+3828412D01*
X-3181293Y+3828412D02*
X-3054294Y+3828412D01*
X-3054294Y+3955411D02*
X-3054294Y+3828412D01*
X-3054294Y+3701413D02*
X-3054294Y+3828412D01*
X-2927293Y+3828412D02*
X-2800294Y+3828412D01*
X-2800294Y+3955411D02*
X-2800294Y+3828412D01*
X-2800294Y+3701413D02*
X-2800294Y+3828412D01*
X-2800293Y-870588D02*
X-2673294Y-870588D01*
X-2673294Y-997587D02*
X-2673294Y-870588D01*
X-2673294Y-743589D02*
X-2673294Y-870588D01*
X-3054293Y-870588D02*
X-2927294Y-870588D01*
X-2800295Y-870588D02*
X-2927294Y-870588D01*
X-2927294Y-997587D02*
X-2927294Y-870588D01*
X-2927294Y-743589D02*
X-2927294Y-870588D01*
X-3308293Y-870588D02*
X-3181294Y-870588D01*
X-3054295Y-870588D02*
X-3181294Y-870588D01*
X-3181294Y-743589D02*
X-3181294Y-870588D01*
X-3351474Y+729613D02*
X-3351474Y+843912D01*
X-3351474Y-32387D02*
X-3351474Y+81912D01*
X-3351474Y+577211D02*
X-3351474Y+462912D01*
X-3351474Y-1556387D02*
X-3351474Y-1442088D01*
X-3351474Y-946789D02*
X-3351474Y-1061088D01*
X-3338774Y+1796413D02*
X-3338774Y+1923412D01*
X-3338774Y+2050411D02*
X-3338774Y+1923412D01*
X-3237175Y-616588D02*
X-3338774Y-616588D01*
X-3338774Y-743587D02*
X-3338774Y-616588D01*
X-3338774Y-489589D02*
X-3338774Y-616588D01*
X-3125413Y-2140588D02*
X-3023814Y-2140588D01*
X-2922215Y-2140588D02*
X-3023814Y-2140588D01*
X-3023814Y-2267587D02*
X-3023814Y-2140588D01*
X-3023814Y-2013589D02*
X-3023814Y-2140588D01*
X-2881575Y-1442088D02*
X-2970474Y-1442088D01*
X-2881575Y+843912D02*
X-2970474Y+843912D01*
D13*
X-3435294Y-2648588D02*
X-2419294Y-2648588D01*
X-2419294Y+7257412D01*
X-3435294Y+7257412D01*
X-3435294Y-2648588D01*
X-3435294Y-2648588D01*
D10*
X-1524000Y+2159000D02*
X-1778000Y+2159000D01*
X-2032000Y+2159000D01*
X-1778000Y+1397000D02*
X-1524000Y+1397000D01*
X-2032000Y+1397000D02*
X-1778000Y+1397000D01*
X-2032000Y+2159000D02*
X-2032000Y+2382520D01*
X-1841500Y-127000D02*
X-1778000Y-127000D01*
X-1841500Y-127000D02*
X-2032000Y-127000D01*
X-1651000Y-127000D02*
X-1524000Y-127000D01*
X-1778000Y-127000D02*
X-1651000Y-127000D01*
X-1524000Y-1651000D02*
X-1524000Y-1651000D01*
X-1778000Y+635000D02*
X-1841500Y+635000D01*
X-2032000Y+635000D01*
X-1524000Y+635000D02*
X-1651000Y+635000D01*
X-1778000Y+635000D02*
X-1651000Y+635000D01*
X-1524000Y-1651000D02*
X-1671320Y-1651000D01*
X-1778000Y-1651000D02*
X-1671320Y-1651000D01*
X-1988820Y-1460500D02*
X-1988820Y-1270000D01*
X-1988820Y-1079500D01*
X-1988820Y-1270000D02*
X-1821180Y-1270000D01*
X-1607820Y-1460500D02*
X-1607820Y-1270000D01*
X-1988820Y-1460500D02*
X-1988820Y-1630680D01*
X-1968500Y-1651000D01*
X-1798320Y-1651000D01*
X-1778000Y-1651000D01*
X-1968500Y-1651000D02*
X-2032000Y-1651000D01*
X-1874520Y-1905000D02*
X-1681480Y-1905000D01*
X-2189480Y-1905000D02*
X-2189480Y-2159000D01*
X-2189480Y-381000D02*
X-2189480Y-157480D01*
X-2159000Y-127000D01*
X-2032000Y-127000D01*
X-2189480Y-1905000D02*
X-2189480Y-1681480D01*
X-2159000Y-1651000D01*
X-2032000Y-1651000D01*
X-2189480Y-381000D02*
X-2095500Y-381000D01*
X-2032000Y-444500D01*
X-2032000Y-571500D01*
X-1968500Y-635000D01*
X-1874520Y-635000D01*
X-1874520Y-381000D02*
X-1681480Y-381000D01*
X-1821180Y+254000D02*
X-1988820Y+254000D01*
X-1988820Y+444500D02*
X-1988820Y+254000D01*
X-1988820Y+63500D01*
X-1988820Y-83820D01*
X-2032000Y-127000D01*
X-1607820Y+825500D02*
X-1607820Y+1016000D01*
X-1821180Y+1016000D02*
X-1988820Y+1016000D01*
X-1988820Y+1206500D02*
X-1988820Y+1016000D01*
X-1988820Y+825500D01*
X-1988820Y+678180D01*
X-2032000Y+635000D01*
X-2189480Y+1651000D02*
X-2189480Y+1372946D01*
X-2023034Y+1206500D01*
X-1988820Y+1206500D01*
X-2189480Y+1651000D02*
X-2095500Y+1651000D01*
X-2032000Y+1714500D01*
X-2032000Y+1841500D01*
X-1968500Y+1905000D01*
X-1874520Y+1905000D01*
X-2189480Y+1905000D02*
X-2105063Y+1989417D01*
X-2049929Y+1989417D01*
X-1874520Y+1651000D02*
X-1681480Y+1651000D01*
X-1607820Y+63500D02*
X-1607820Y+254000D01*
X-1905000Y+4826000D02*
X-2159000Y+4826000D01*
X-2222500Y+4762500D01*
X-2222500Y+2667000D01*
X-2222500Y+2222500D01*
X-2159000Y+2159000D01*
X-2032000Y+2159000D01*
D11*
X-1366520Y+1651000D02*
X-1366520Y+1812263D01*
X-1337283Y+1841500D01*
X-1337283Y+4258283D01*
X-1397000Y+4318000D01*
X-1651000Y+4318000D01*
X-1460500Y+2667000D02*
X-1460500Y+2921000D01*
X-1460500Y+2984500D01*
X-1460500Y+4000500D01*
X-1524000Y+4064000D01*
X-1651000Y+4064000D01*
D10*
X-1778000Y+2382520D02*
X-1617980Y+2382520D01*
X-1587500Y+2413000D01*
X-1587500Y+2794000D01*
X-1651000Y+2857500D01*
X-2095500Y+2857500D01*
D11*
X-1524000Y+1143000D02*
X-1337318Y+956318D01*
X-1337318Y-351798D01*
X-1366520Y-381000D01*
D10*
X-1821180Y+63500D02*
X-1778000Y+63500D01*
X-1714500Y+127000D01*
X-1714500Y+381000D01*
X-1651000Y+444500D01*
X-1524000Y+444500D01*
D11*
X-1343590Y-628674D02*
X-1337297Y-634967D01*
X-1337297Y-727116D01*
X-1337297Y-1742825D01*
X-1365931Y-1771459D01*
X-1365931Y-1904411D01*
X-1366520Y-1905000D01*
D10*
X-1308100Y+4345842D02*
X-1362807Y+4400549D01*
X-1553945Y+4400549D01*
X-1598395Y+4444999D01*
X-1703605Y+4444999D01*
X-1777999Y+4370605D01*
X-1777999Y+4265395D01*
X-1703605Y+4191001D01*
X-1598395Y+4191001D01*
X-1553945Y+4235451D01*
X-1431193Y+4235451D01*
X-1419832Y+4224090D01*
X-1419832Y+4076574D01*
X-1489807Y+4146549D01*
X-1553945Y+4146549D01*
X-1598395Y+4190999D01*
X-1703605Y+4190999D01*
X-1777999Y+4116605D01*
X-1777999Y+4011395D01*
X-1703605Y+3937001D01*
X-1598395Y+3937001D01*
X-1556069Y+3979327D01*
X-1543049Y+3966307D01*
X-1543049Y+3881653D01*
X-1598395Y+3936999D01*
X-1703605Y+3936999D01*
X-1777999Y+3862605D01*
X-1777999Y+3757395D01*
X-1703605Y+3683001D01*
X-1598395Y+3683001D01*
X-1543049Y+3738347D01*
X-1543049Y+3627653D01*
X-1598395Y+3682999D01*
X-1703605Y+3682999D01*
X-1777999Y+3608605D01*
X-1777999Y+3503395D01*
X-1703605Y+3429001D01*
X-1598395Y+3429001D01*
X-1543049Y+3484347D01*
X-1543049Y+3373653D01*
X-1598395Y+3428999D01*
X-1703605Y+3428999D01*
X-1777999Y+3354605D01*
X-1777999Y+3249395D01*
X-1703605Y+3175001D01*
X-1598395Y+3175001D01*
X-1543049Y+3230347D01*
X-1543049Y+3119653D01*
X-1598395Y+3174999D01*
X-1703605Y+3174999D01*
X-1777999Y+3100605D01*
X-1777999Y+2995395D01*
X-1716303Y+2933699D01*
X-1839697Y+2933699D01*
X-1778001Y+2995395D01*
X-1778001Y+3100605D01*
X-1852395Y+3174999D01*
X-1957605Y+3174999D01*
X-2031999Y+3100605D01*
X-2031999Y+2995395D01*
X-1970303Y+2933699D01*
X-2045977Y+2933699D01*
X-2058677Y+2946399D01*
X-2132323Y+2946399D01*
X-2146301Y+2932421D01*
X-2146301Y+4730937D01*
X-2127437Y+4749801D01*
X-2008405Y+4749801D01*
X-1957605Y+4699001D01*
X-1852395Y+4699001D01*
X-1778001Y+4773395D01*
X-1778001Y+4878605D01*
X-1852395Y+4952999D01*
X-1957605Y+4952999D01*
X-2008405Y+4902199D01*
X-2190563Y+4902199D01*
X-2247900Y+4844862D01*
X-2247900Y+7200900D01*
X-1308100Y+7200900D01*
X-1308100Y+4345842D01*
X-2220900Y+6996558D02*
X-2220900Y+7100442D01*
X-2147442Y+7173900D01*
X-2043558Y+7173900D01*
X-1970100Y+7100442D01*
X-1970100Y+6996558D01*
X-2043558Y+6923100D01*
X-2147442Y+6923100D01*
X-2220900Y+6996558D01*
X-1778001Y+5513605D02*
X-1778001Y+5408395D01*
X-1852395Y+5334001D01*
X-1957605Y+5334001D01*
X-2031999Y+5408395D01*
X-2031999Y+5513605D01*
X-1957605Y+5587999D01*
X-1852395Y+5587999D01*
X-1778001Y+5513605D01*
X-1524001Y+5513605D02*
X-1524001Y+5408395D01*
X-1598395Y+5334001D01*
X-1703605Y+5334001D01*
X-1777999Y+5408395D01*
X-1777999Y+5513605D01*
X-1703605Y+5587999D01*
X-1598395Y+5587999D01*
X-1524001Y+5513605D01*
X-1778001Y+5767605D02*
X-1778001Y+5662395D01*
X-1852395Y+5588001D01*
X-1957605Y+5588001D01*
X-2031999Y+5662395D01*
X-2031999Y+5767605D01*
X-1957605Y+5841999D01*
X-1852395Y+5841999D01*
X-1778001Y+5767605D01*
X-1524001Y+5767605D02*
X-1524001Y+5662395D01*
X-1598395Y+5588001D01*
X-1703605Y+5588001D01*
X-1777999Y+5662395D01*
X-1777999Y+5767605D01*
X-1703605Y+5841999D01*
X-1598395Y+5841999D01*
X-1524001Y+5767605D01*
X-1778001Y+6021605D02*
X-1778001Y+5916395D01*
X-1852395Y+5842001D01*
X-1957605Y+5842001D01*
X-2031999Y+5916395D01*
X-2031999Y+6021605D01*
X-1957605Y+6095999D01*
X-1852395Y+6095999D01*
X-1778001Y+6021605D01*
X-1524001Y+6021605D02*
X-1524001Y+5916395D01*
X-1598395Y+5842001D01*
X-1703605Y+5842001D01*
X-1777999Y+5916395D01*
X-1777999Y+6021605D01*
X-1703605Y+6095999D01*
X-1598395Y+6095999D01*
X-1524001Y+6021605D01*
X-1778001Y+6275605D02*
X-1778001Y+6170395D01*
X-1852395Y+6096001D01*
X-1957605Y+6096001D01*
X-2031999Y+6170395D01*
X-2031999Y+6275605D01*
X-1957605Y+6349999D01*
X-1852395Y+6349999D01*
X-1778001Y+6275605D01*
X-1524001Y+6275605D02*
X-1524001Y+6170395D01*
X-1598395Y+6096001D01*
X-1703605Y+6096001D01*
X-1777999Y+6170395D01*
X-1777999Y+6275605D01*
X-1703605Y+6349999D01*
X-1598395Y+6349999D01*
X-1524001Y+6275605D01*
X-1778001Y+6529605D02*
X-1778001Y+6424395D01*
X-1852395Y+6350001D01*
X-1957605Y+6350001D01*
X-2031999Y+6424395D01*
X-2031999Y+6529605D01*
X-1957605Y+6603999D01*
X-1852395Y+6603999D01*
X-1778001Y+6529605D01*
X-1524001Y+6529605D02*
X-1524001Y+6424395D01*
X-1598395Y+6350001D01*
X-1703605Y+6350001D01*
X-1777999Y+6424395D01*
X-1777999Y+6529605D01*
X-1703605Y+6603999D01*
X-1598395Y+6603999D01*
X-1524001Y+6529605D01*
X-1778001Y+3354605D02*
X-1778001Y+3249395D01*
X-1852395Y+3175001D01*
X-1957605Y+3175001D01*
X-2031999Y+3249395D01*
X-2031999Y+3354605D01*
X-1957605Y+3428999D01*
X-1852395Y+3428999D01*
X-1778001Y+3354605D01*
X-1778001Y+3608605D02*
X-1778001Y+3503395D01*
X-1852395Y+3429001D01*
X-1957605Y+3429001D01*
X-2031999Y+3503395D01*
X-2031999Y+3608605D01*
X-1957605Y+3682999D01*
X-1852395Y+3682999D01*
X-1778001Y+3608605D01*
X-1778001Y+3862605D02*
X-1778001Y+3757395D01*
X-1852395Y+3683001D01*
X-1957605Y+3683001D01*
X-2031999Y+3757395D01*
X-2031999Y+3862605D01*
X-1957605Y+3936999D01*
X-1852395Y+3936999D01*
X-1778001Y+3862605D01*
X-1778001Y+4116605D02*
X-1778001Y+4011395D01*
X-1852395Y+3937001D01*
X-1957605Y+3937001D01*
X-2031999Y+4011395D01*
X-2031999Y+4116605D01*
X-1957605Y+4190999D01*
X-1852395Y+4190999D01*
X-1778001Y+4116605D01*
X-1778001Y+4370605D02*
X-1778001Y+4265395D01*
X-1852395Y+4191001D01*
X-1957605Y+4191001D01*
X-2031999Y+4265395D01*
X-2031999Y+4370605D01*
X-1957605Y+4444999D01*
X-1852395Y+4444999D01*
X-1778001Y+4370605D01*
X-1778001Y+4624605D02*
X-1778001Y+4519395D01*
X-1852395Y+4445001D01*
X-1957605Y+4445001D01*
X-2031999Y+4519395D01*
X-2031999Y+4624605D01*
X-1957605Y+4698999D01*
X-1852395Y+4698999D01*
X-1778001Y+4624605D01*
X-1524001Y+4624605D02*
X-1524001Y+4519395D01*
X-1598395Y+4445001D01*
X-1703605Y+4445001D01*
X-1777999Y+4519395D01*
X-1777999Y+4624605D01*
X-1703605Y+4698999D01*
X-1598395Y+4698999D01*
X-1524001Y+4624605D01*
X-1524001Y+4878605D02*
X-1524001Y+4773395D01*
X-1598395Y+4699001D01*
X-1703605Y+4699001D01*
X-1777999Y+4773395D01*
X-1777999Y+4878605D01*
X-1703605Y+4952999D01*
X-1598395Y+4952999D01*
X-1524001Y+4878605D01*
X-1650999Y+2032001D02*
X-1419832Y+2032001D01*
X-1419832Y+1875693D01*
X-1449069Y+1846456D01*
X-1449069Y+1777999D01*
X-1468119Y+1777999D01*
X-1468119Y+1524001D01*
X-1308100Y+1524001D01*
X-1308100Y+1043842D01*
X-1435101Y+1170843D01*
X-1435101Y+1179823D01*
X-1487177Y+1231899D01*
X-1560823Y+1231899D01*
X-1612899Y+1179823D01*
X-1612899Y+1127759D01*
X-1696719Y+1127759D01*
X-1696719Y+733323D01*
X-1725395Y+761999D01*
X-1732281Y+761999D01*
X-1732281Y+1127759D01*
X-1899921Y+1127759D01*
X-1899921Y+1320799D01*
X-1928597Y+1320799D01*
X-1928595Y+1320801D01*
X-1881405Y+1320801D01*
X-1830605Y+1270001D01*
X-1725395Y+1270001D01*
X-1674595Y+1320801D01*
X-1650999Y+1320801D01*
X-1650999Y+1270001D01*
X-1397001Y+1270001D01*
X-1397001Y+1523999D01*
X-1650999Y+1523999D01*
X-1650999Y+1473199D01*
X-1674595Y+1473199D01*
X-1725395Y+1523999D01*
X-1830605Y+1523999D01*
X-1881405Y+1473199D01*
X-1928595Y+1473199D01*
X-1979395Y+1523999D01*
X-2084605Y+1523999D01*
X-2113281Y+1495323D01*
X-2113281Y+1524001D01*
X-2087881Y+1524001D01*
X-2087881Y+1574801D01*
X-2063937Y+1574801D01*
X-1976119Y+1662619D01*
X-1976119Y+1524001D01*
X-1579881Y+1524001D01*
X-1579881Y+1777999D01*
X-1955801Y+1777999D01*
X-1955801Y+1778001D01*
X-1772921Y+1778001D01*
X-1772921Y+2031999D01*
X-1976119Y+2031999D01*
X-1976119Y+1981199D01*
X-2000063Y+1981199D01*
X-2005479Y+1975783D01*
X-2005479Y+2007829D01*
X-2029651Y+2032001D01*
X-1979395Y+2032001D01*
X-1928595Y+2082801D01*
X-1881405Y+2082801D01*
X-1830605Y+2032001D01*
X-1725395Y+2032001D01*
X-1674595Y+2082801D01*
X-1650999Y+2082801D01*
X-1650999Y+2032001D01*
X-2212881Y+2105119D02*
X-2190563Y+2082801D01*
X-2135405Y+2082801D01*
X-2084605Y+2032001D01*
X-2070207Y+2032001D01*
X-2087881Y+2014327D01*
X-2087881Y+2031999D01*
X-2247900Y+2031999D01*
X-2247900Y+2140138D01*
X-2212881Y+2105119D01*
X-2108199Y+1777999D02*
X-2247900Y+1777999D01*
X-2247900Y+1778001D01*
X-2108199Y+1778001D01*
X-2108199Y+1777999D01*
X-2158999Y+687605D02*
X-2158999Y+582395D01*
X-2135403Y+558799D01*
X-2247900Y+558799D01*
X-2247900Y+711201D01*
X-2135403Y+711201D01*
X-2158999Y+687605D01*
X-2135405Y-50801D02*
X-2190563Y-50801D01*
X-2247900Y-108138D01*
X-2247900Y-50799D01*
X-2135403Y-50799D01*
X-2135405Y-50801D01*
X-1650999Y-253999D02*
X-1419867Y-253999D01*
X-1419867Y-254001D01*
X-1468119Y-254001D01*
X-1468119Y-507999D01*
X-1308100Y-507999D01*
X-1308100Y-539775D01*
X-1380413Y-539775D01*
X-1432489Y-591851D01*
X-1432489Y-665497D01*
X-1419846Y-678140D01*
X-1419846Y-762001D01*
X-1650999Y-762001D01*
X-1650999Y-1015999D01*
X-1419846Y-1015999D01*
X-1419846Y-1524001D01*
X-1518921Y-1524001D01*
X-1518921Y-1158241D01*
X-1696719Y-1158241D01*
X-1696719Y-1552677D01*
X-1725395Y-1524001D01*
X-1732281Y-1524001D01*
X-1732281Y-1158241D01*
X-1899921Y-1158241D01*
X-1899921Y-965201D01*
X-1928597Y-965201D01*
X-1905001Y-941605D01*
X-1905001Y-836395D01*
X-1979395Y-762001D01*
X-2084605Y-762001D01*
X-2158999Y-836395D01*
X-2158999Y-941605D01*
X-2135403Y-965201D01*
X-2247900Y-965201D01*
X-2247900Y-761999D01*
X-2087881Y-761999D01*
X-2087881Y-623381D01*
X-2000063Y-711199D01*
X-1976119Y-711199D01*
X-1976119Y-761999D01*
X-1772921Y-761999D01*
X-1772921Y-508001D01*
X-1955801Y-508001D01*
X-1955801Y-507999D01*
X-1579881Y-507999D01*
X-1579881Y-254001D01*
X-1976119Y-254001D01*
X-1976119Y-392619D01*
X-2063937Y-304801D01*
X-2087881Y-304801D01*
X-2087881Y-254001D01*
X-2113281Y-254001D01*
X-2113281Y-225323D01*
X-2084605Y-253999D01*
X-1979395Y-253999D01*
X-1928595Y-203199D01*
X-1881405Y-203199D01*
X-1830605Y-253999D01*
X-1725395Y-253999D01*
X-1674595Y-203199D01*
X-1650999Y-203199D01*
X-1650999Y-253999D01*
X-1904999Y-941605D02*
X-1904999Y-836395D01*
X-1830605Y-762001D01*
X-1725395Y-762001D01*
X-1651001Y-836395D01*
X-1651001Y-941605D01*
X-1725395Y-1015999D01*
X-1830605Y-1015999D01*
X-1904999Y-941605D01*
X-2108199Y-508001D02*
X-2247900Y-508001D01*
X-2247900Y-507999D01*
X-2108199Y-507999D01*
X-2108199Y-508001D01*
X-2135405Y-1574801D02*
X-2190563Y-1574801D01*
X-2247900Y-1632138D01*
X-2247900Y-1574799D01*
X-2135403Y-1574799D01*
X-2135405Y-1574801D01*
X-1650999Y-1777999D02*
X-1448480Y-1777999D01*
X-1448480Y-1778001D01*
X-1468119Y-1778001D01*
X-1468119Y-2031999D01*
X-1308100Y-2031999D01*
X-1308100Y-2628900D01*
X-2247900Y-2628900D01*
X-2247900Y-2285999D01*
X-2087881Y-2285999D01*
X-2087881Y-2032001D01*
X-2113281Y-2032001D01*
X-2113281Y-2031999D01*
X-2087881Y-2031999D01*
X-2087881Y-1778001D01*
X-2113281Y-1778001D01*
X-2113281Y-1749323D01*
X-2084605Y-1777999D01*
X-1979395Y-1777999D01*
X-1928595Y-1727199D01*
X-1881405Y-1727199D01*
X-1830605Y-1777999D01*
X-1725395Y-1777999D01*
X-1674595Y-1727199D01*
X-1650999Y-1727199D01*
X-1650999Y-1777999D01*
X-2220900Y-2528442D02*
X-2220900Y-2424558D01*
X-2147442Y-2351100D01*
X-2043558Y-2351100D01*
X-1970100Y-2424558D01*
X-1970100Y-2528442D01*
X-2043558Y-2601900D01*
X-2147442Y-2601900D01*
X-2220900Y-2528442D01*
X-1976119Y-2032001D02*
X-1772921Y-2032001D01*
X-1772921Y-2285999D01*
X-1976119Y-2285999D01*
X-1976119Y-2032001D01*
X-1579881Y-2031999D02*
X-1976119Y-2031999D01*
X-1976119Y-1778001D01*
X-1579881Y-1778001D01*
X-1579881Y-2031999D01*
D12*
X-1778001Y+5715000D02*
X-1905000Y+5715000D01*
X-2031999Y+5715000D02*
X-1905000Y+5715000D01*
X-1905000Y+5841999D02*
X-1905000Y+5715000D01*
X-1905000Y+5588001D02*
X-1905000Y+5715000D01*
X-1524001Y+5715000D02*
X-1651000Y+5715000D01*
X-1777999Y+5715000D02*
X-1651000Y+5715000D01*
X-1651000Y+5841999D02*
X-1651000Y+5715000D01*
X-1651000Y+5588001D02*
X-1651000Y+5715000D01*
X-1778001Y+5969000D02*
X-1905000Y+5969000D01*
X-2031999Y+5969000D02*
X-1905000Y+5969000D01*
X-1905000Y+6095999D02*
X-1905000Y+5969000D01*
X-1905000Y+5842001D02*
X-1905000Y+5969000D01*
X-1524001Y+5969000D02*
X-1651000Y+5969000D01*
X-1777999Y+5969000D02*
X-1651000Y+5969000D01*
X-1651000Y+6095999D02*
X-1651000Y+5969000D01*
X-1651000Y+5842001D02*
X-1651000Y+5969000D01*
X-1778001Y+6223000D02*
X-1905000Y+6223000D01*
X-2031999Y+6223000D02*
X-1905000Y+6223000D01*
X-1905000Y+6349999D02*
X-1905000Y+6223000D01*
X-1905000Y+6096001D02*
X-1905000Y+6223000D01*
X-1524001Y+6223000D02*
X-1651000Y+6223000D01*
X-1777999Y+6223000D02*
X-1651000Y+6223000D01*
X-1651000Y+6349999D02*
X-1651000Y+6223000D01*
X-1651000Y+6096001D02*
X-1651000Y+6223000D01*
X-1778001Y+3302000D02*
X-1905000Y+3302000D01*
X-2031999Y+3302000D02*
X-1905000Y+3302000D01*
X-1905000Y+3428999D02*
X-1905000Y+3302000D01*
X-1905000Y+3175001D02*
X-1905000Y+3302000D01*
X-1777999Y+3302000D02*
X-1651000Y+3302000D01*
X-1651000Y+3428999D02*
X-1651000Y+3302000D01*
X-1651000Y+3175001D02*
X-1651000Y+3302000D01*
X-1778001Y+3556000D02*
X-1905000Y+3556000D01*
X-2031999Y+3556000D02*
X-1905000Y+3556000D01*
X-1905000Y+3682999D02*
X-1905000Y+3556000D01*
X-1905000Y+3429001D02*
X-1905000Y+3556000D01*
X-1777999Y+3556000D02*
X-1651000Y+3556000D01*
X-1651000Y+3682999D02*
X-1651000Y+3556000D01*
X-1651000Y+3429001D02*
X-1651000Y+3556000D01*
X-1778001Y+3810000D02*
X-1905000Y+3810000D01*
X-2031999Y+3810000D02*
X-1905000Y+3810000D01*
X-1905000Y+3936999D02*
X-1905000Y+3810000D01*
X-1905000Y+3683001D02*
X-1905000Y+3810000D01*
X-1777999Y+3810000D02*
X-1651000Y+3810000D01*
X-1651000Y+3936999D02*
X-1651000Y+3810000D01*
X-1651000Y+3683001D02*
X-1651000Y+3810000D01*
X-1650999Y-889000D02*
X-1524000Y-889000D01*
X-1524000Y-1015999D02*
X-1524000Y-889000D01*
X-1524000Y-762001D02*
X-1524000Y-889000D01*
X-1904999Y-889000D02*
X-1778000Y-889000D01*
X-1651001Y-889000D02*
X-1778000Y-889000D01*
X-1778000Y-1015999D02*
X-1778000Y-889000D01*
X-1778000Y-762001D02*
X-1778000Y-889000D01*
X-2158999Y-889000D02*
X-2032000Y-889000D01*
X-1905001Y-889000D02*
X-2032000Y-889000D01*
X-2032000Y-762001D02*
X-2032000Y-889000D01*
X-2202180Y+711201D02*
X-2202180Y+825500D01*
X-2202180Y-50799D02*
X-2202180Y+63500D01*
X-2202180Y+558799D02*
X-2202180Y+444500D01*
X-2202180Y-1574799D02*
X-2202180Y-1460500D01*
X-2202180Y-965201D02*
X-2202180Y-1079500D01*
X-2189480Y+1778001D02*
X-2189480Y+1905000D01*
X-2189480Y+2031999D02*
X-2189480Y+1905000D01*
X-2087881Y-635000D02*
X-2189480Y-635000D01*
X-2189480Y-761999D02*
X-2189480Y-635000D01*
X-2189480Y-508001D02*
X-2189480Y-635000D01*
X-1976119Y-2159000D02*
X-1874520Y-2159000D01*
X-1772921Y-2159000D02*
X-1874520Y-2159000D01*
X-1874520Y-2285999D02*
X-1874520Y-2159000D01*
X-1874520Y-2032001D02*
X-1874520Y-2159000D01*
X-1732281Y-1460500D02*
X-1821180Y-1460500D01*
X-1732281Y+825500D02*
X-1821180Y+825500D01*
D13*
X-2286000Y-2667000D02*
X-1270000Y-2667000D01*
X-1270000Y+7239000D01*
X-2286000Y+7239000D01*
X-2286000Y-2667000D01*
X-2286000Y-2667000D01*
D10*
X-381000Y+2159000D02*
X-635000Y+2159000D01*
X-889000Y+2159000D01*
X-635000Y+1397000D02*
X-381000Y+1397000D01*
X-889000Y+1397000D02*
X-635000Y+1397000D01*
X-889000Y+2159000D02*
X-889000Y+2382520D01*
X-698500Y-127000D02*
X-635000Y-127000D01*
X-698500Y-127000D02*
X-889000Y-127000D01*
X-508000Y-127000D02*
X-381000Y-127000D01*
X-635000Y-127000D02*
X-508000Y-127000D01*
X-381000Y-1651000D02*
X-381000Y-1651000D01*
X-635000Y+635000D02*
X-698500Y+635000D01*
X-889000Y+635000D01*
X-381000Y+635000D02*
X-508000Y+635000D01*
X-635000Y+635000D02*
X-508000Y+635000D01*
X-381000Y-1651000D02*
X-528320Y-1651000D01*
X-635000Y-1651000D02*
X-528320Y-1651000D01*
X-845820Y-1460500D02*
X-845820Y-1270000D01*
X-845820Y-1079500D01*
X-845820Y-1270000D02*
X-678180Y-1270000D01*
X-464820Y-1460500D02*
X-464820Y-1270000D01*
X-845820Y-1460500D02*
X-845820Y-1630680D01*
X-825500Y-1651000D01*
X-655320Y-1651000D01*
X-635000Y-1651000D01*
X-825500Y-1651000D02*
X-889000Y-1651000D01*
X-731520Y-1905000D02*
X-538480Y-1905000D01*
X-1046480Y-1905000D02*
X-1046480Y-2159000D01*
X-1046480Y-381000D02*
X-1046480Y-157480D01*
X-1016000Y-127000D01*
X-889000Y-127000D01*
X-1046480Y-1905000D02*
X-1046480Y-1681480D01*
X-1016000Y-1651000D01*
X-889000Y-1651000D01*
X-1046480Y-381000D02*
X-952500Y-381000D01*
X-889000Y-444500D01*
X-889000Y-571500D01*
X-825500Y-635000D01*
X-731520Y-635000D01*
X-731520Y-381000D02*
X-538480Y-381000D01*
X-678180Y+254000D02*
X-845820Y+254000D01*
X-845820Y+444500D02*
X-845820Y+254000D01*
X-845820Y+63500D01*
X-845820Y-83820D01*
X-889000Y-127000D01*
X-464820Y+825500D02*
X-464820Y+1016000D01*
X-678180Y+1016000D02*
X-845820Y+1016000D01*
X-845820Y+1206500D02*
X-845820Y+1016000D01*
X-845820Y+825500D01*
X-845820Y+678180D01*
X-889000Y+635000D01*
X-1046480Y+1651000D02*
X-1046480Y+1372946D01*
X-880034Y+1206500D01*
X-845820Y+1206500D01*
X-1046480Y+1651000D02*
X-952500Y+1651000D01*
X-889000Y+1714500D01*
X-889000Y+1841500D01*
X-825500Y+1905000D01*
X-731520Y+1905000D01*
X-1046480Y+1905000D02*
X-962063Y+1989417D01*
X-906929Y+1989417D01*
X-731520Y+1651000D02*
X-538480Y+1651000D01*
X-464820Y+63500D02*
X-464820Y+254000D01*
X-762000Y+4826000D02*
X-1016000Y+4826000D01*
X-1079500Y+4762500D01*
X-1079500Y+2667000D01*
X-1079500Y+2222500D01*
X-1016000Y+2159000D01*
X-889000Y+2159000D01*
D11*
X-223520Y+1651000D02*
X-223520Y+1812263D01*
X-194283Y+1841500D01*
X-194283Y+4258283D01*
X-254000Y+4318000D01*
X-508000Y+4318000D01*
X-317500Y+2667000D02*
X-317500Y+2921000D01*
X-317500Y+2984500D01*
X-317500Y+4000500D01*
X-381000Y+4064000D01*
X-508000Y+4064000D01*
D10*
X-635000Y+2382520D02*
X-474980Y+2382520D01*
X-444500Y+2413000D01*
X-444500Y+2794000D01*
X-508000Y+2857500D01*
X-952500Y+2857500D01*
D11*
X-381000Y+1143000D02*
X-194318Y+956318D01*
X-194318Y-351798D01*
X-223520Y-381000D01*
D10*
X-678180Y+63500D02*
X-635000Y+63500D01*
X-571500Y+127000D01*
X-571500Y+381000D01*
X-508000Y+444500D01*
X-381000Y+444500D01*
D11*
X-200590Y-628674D02*
X-194297Y-634967D01*
X-194297Y-727116D01*
X-194297Y-1742825D01*
X-222931Y-1771459D01*
X-222931Y-1904411D01*
X-223520Y-1905000D01*
D10*
X-165100Y+4345842D02*
X-219807Y+4400549D01*
X-410945Y+4400549D01*
X-455395Y+4444999D01*
X-560605Y+4444999D01*
X-634999Y+4370605D01*
X-634999Y+4265395D01*
X-560605Y+4191001D01*
X-455395Y+4191001D01*
X-410945Y+4235451D01*
X-288193Y+4235451D01*
X-276832Y+4224090D01*
X-276832Y+4076574D01*
X-346807Y+4146549D01*
X-410945Y+4146549D01*
X-455395Y+4190999D01*
X-560605Y+4190999D01*
X-634999Y+4116605D01*
X-634999Y+4011395D01*
X-560605Y+3937001D01*
X-455395Y+3937001D01*
X-413069Y+3979327D01*
X-400049Y+3966307D01*
X-400049Y+3881653D01*
X-455395Y+3936999D01*
X-560605Y+3936999D01*
X-634999Y+3862605D01*
X-634999Y+3757395D01*
X-560605Y+3683001D01*
X-455395Y+3683001D01*
X-400049Y+3738347D01*
X-400049Y+3627653D01*
X-455395Y+3682999D01*
X-560605Y+3682999D01*
X-634999Y+3608605D01*
X-634999Y+3503395D01*
X-560605Y+3429001D01*
X-455395Y+3429001D01*
X-400049Y+3484347D01*
X-400049Y+3373653D01*
X-455395Y+3428999D01*
X-560605Y+3428999D01*
X-634999Y+3354605D01*
X-634999Y+3249395D01*
X-560605Y+3175001D01*
X-455395Y+3175001D01*
X-400049Y+3230347D01*
X-400049Y+3119653D01*
X-455395Y+3174999D01*
X-560605Y+3174999D01*
X-634999Y+3100605D01*
X-634999Y+2995395D01*
X-573303Y+2933699D01*
X-696697Y+2933699D01*
X-635001Y+2995395D01*
X-635001Y+3100605D01*
X-709395Y+3174999D01*
X-814605Y+3174999D01*
X-888999Y+3100605D01*
X-888999Y+2995395D01*
X-827303Y+2933699D01*
X-902977Y+2933699D01*
X-915677Y+2946399D01*
X-989323Y+2946399D01*
X-1003301Y+2932421D01*
X-1003301Y+4730937D01*
X-984437Y+4749801D01*
X-865405Y+4749801D01*
X-814605Y+4699001D01*
X-709395Y+4699001D01*
X-635001Y+4773395D01*
X-635001Y+4878605D01*
X-709395Y+4952999D01*
X-814605Y+4952999D01*
X-865405Y+4902199D01*
X-1047563Y+4902199D01*
X-1104900Y+4844862D01*
X-1104900Y+7200900D01*
X-165100Y+7200900D01*
X-165100Y+4345842D01*
X-1077900Y+6996558D02*
X-1077900Y+7100442D01*
X-1004442Y+7173900D01*
X-900558Y+7173900D01*
X-827100Y+7100442D01*
X-827100Y+6996558D01*
X-900558Y+6923100D01*
X-1004442Y+6923100D01*
X-1077900Y+6996558D01*
X-635001Y+5513605D02*
X-635001Y+5408395D01*
X-709395Y+5334001D01*
X-814605Y+5334001D01*
X-888999Y+5408395D01*
X-888999Y+5513605D01*
X-814605Y+5587999D01*
X-709395Y+5587999D01*
X-635001Y+5513605D01*
X-381001Y+5513605D02*
X-381001Y+5408395D01*
X-455395Y+5334001D01*
X-560605Y+5334001D01*
X-634999Y+5408395D01*
X-634999Y+5513605D01*
X-560605Y+5587999D01*
X-455395Y+5587999D01*
X-381001Y+5513605D01*
X-635001Y+5767605D02*
X-635001Y+5662395D01*
X-709395Y+5588001D01*
X-814605Y+5588001D01*
X-888999Y+5662395D01*
X-888999Y+5767605D01*
X-814605Y+5841999D01*
X-709395Y+5841999D01*
X-635001Y+5767605D01*
X-381001Y+5767605D02*
X-381001Y+5662395D01*
X-455395Y+5588001D01*
X-560605Y+5588001D01*
X-634999Y+5662395D01*
X-634999Y+5767605D01*
X-560605Y+5841999D01*
X-455395Y+5841999D01*
X-381001Y+5767605D01*
X-635001Y+6021605D02*
X-635001Y+5916395D01*
X-709395Y+5842001D01*
X-814605Y+5842001D01*
X-888999Y+5916395D01*
X-888999Y+6021605D01*
X-814605Y+6095999D01*
X-709395Y+6095999D01*
X-635001Y+6021605D01*
X-381001Y+6021605D02*
X-381001Y+5916395D01*
X-455395Y+5842001D01*
X-560605Y+5842001D01*
X-634999Y+5916395D01*
X-634999Y+6021605D01*
X-560605Y+6095999D01*
X-455395Y+6095999D01*
X-381001Y+6021605D01*
X-635001Y+6275605D02*
X-635001Y+6170395D01*
X-709395Y+6096001D01*
X-814605Y+6096001D01*
X-888999Y+6170395D01*
X-888999Y+6275605D01*
X-814605Y+6349999D01*
X-709395Y+6349999D01*
X-635001Y+6275605D01*
X-381001Y+6275605D02*
X-381001Y+6170395D01*
X-455395Y+6096001D01*
X-560605Y+6096001D01*
X-634999Y+6170395D01*
X-634999Y+6275605D01*
X-560605Y+6349999D01*
X-455395Y+6349999D01*
X-381001Y+6275605D01*
X-635001Y+6529605D02*
X-635001Y+6424395D01*
X-709395Y+6350001D01*
X-814605Y+6350001D01*
X-888999Y+6424395D01*
X-888999Y+6529605D01*
X-814605Y+6603999D01*
X-709395Y+6603999D01*
X-635001Y+6529605D01*
X-381001Y+6529605D02*
X-381001Y+6424395D01*
X-455395Y+6350001D01*
X-560605Y+6350001D01*
X-634999Y+6424395D01*
X-634999Y+6529605D01*
X-560605Y+6603999D01*
X-455395Y+6603999D01*
X-381001Y+6529605D01*
X-635001Y+3354605D02*
X-635001Y+3249395D01*
X-709395Y+3175001D01*
X-814605Y+3175001D01*
X-888999Y+3249395D01*
X-888999Y+3354605D01*
X-814605Y+3428999D01*
X-709395Y+3428999D01*
X-635001Y+3354605D01*
X-635001Y+3608605D02*
X-635001Y+3503395D01*
X-709395Y+3429001D01*
X-814605Y+3429001D01*
X-888999Y+3503395D01*
X-888999Y+3608605D01*
X-814605Y+3682999D01*
X-709395Y+3682999D01*
X-635001Y+3608605D01*
X-635001Y+3862605D02*
X-635001Y+3757395D01*
X-709395Y+3683001D01*
X-814605Y+3683001D01*
X-888999Y+3757395D01*
X-888999Y+3862605D01*
X-814605Y+3936999D01*
X-709395Y+3936999D01*
X-635001Y+3862605D01*
X-635001Y+4116605D02*
X-635001Y+4011395D01*
X-709395Y+3937001D01*
X-814605Y+3937001D01*
X-888999Y+4011395D01*
X-888999Y+4116605D01*
X-814605Y+4190999D01*
X-709395Y+4190999D01*
X-635001Y+4116605D01*
X-635001Y+4370605D02*
X-635001Y+4265395D01*
X-709395Y+4191001D01*
X-814605Y+4191001D01*
X-888999Y+4265395D01*
X-888999Y+4370605D01*
X-814605Y+4444999D01*
X-709395Y+4444999D01*
X-635001Y+4370605D01*
X-635001Y+4624605D02*
X-635001Y+4519395D01*
X-709395Y+4445001D01*
X-814605Y+4445001D01*
X-888999Y+4519395D01*
X-888999Y+4624605D01*
X-814605Y+4698999D01*
X-709395Y+4698999D01*
X-635001Y+4624605D01*
X-381001Y+4624605D02*
X-381001Y+4519395D01*
X-455395Y+4445001D01*
X-560605Y+4445001D01*
X-634999Y+4519395D01*
X-634999Y+4624605D01*
X-560605Y+4698999D01*
X-455395Y+4698999D01*
X-381001Y+4624605D01*
X-381001Y+4878605D02*
X-381001Y+4773395D01*
X-455395Y+4699001D01*
X-560605Y+4699001D01*
X-634999Y+4773395D01*
X-634999Y+4878605D01*
X-560605Y+4952999D01*
X-455395Y+4952999D01*
X-381001Y+4878605D01*
X-507999Y+2032001D02*
X-276832Y+2032001D01*
X-276832Y+1875693D01*
X-306069Y+1846456D01*
X-306069Y+1777999D01*
X-325119Y+1777999D01*
X-325119Y+1524001D01*
X-165100Y+1524001D01*
X-165100Y+1043842D01*
X-292101Y+1170843D01*
X-292101Y+1179823D01*
X-344177Y+1231899D01*
X-417823Y+1231899D01*
X-469899Y+1179823D01*
X-469899Y+1127759D01*
X-553719Y+1127759D01*
X-553719Y+733323D01*
X-582395Y+761999D01*
X-589281Y+761999D01*
X-589281Y+1127759D01*
X-756921Y+1127759D01*
X-756921Y+1320799D01*
X-785597Y+1320799D01*
X-785595Y+1320801D01*
X-738405Y+1320801D01*
X-687605Y+1270001D01*
X-582395Y+1270001D01*
X-531595Y+1320801D01*
X-507999Y+1320801D01*
X-507999Y+1270001D01*
X-254001Y+1270001D01*
X-254001Y+1523999D01*
X-507999Y+1523999D01*
X-507999Y+1473199D01*
X-531595Y+1473199D01*
X-582395Y+1523999D01*
X-687605Y+1523999D01*
X-738405Y+1473199D01*
X-785595Y+1473199D01*
X-836395Y+1523999D01*
X-941605Y+1523999D01*
X-970281Y+1495323D01*
X-970281Y+1524001D01*
X-944881Y+1524001D01*
X-944881Y+1574801D01*
X-920937Y+1574801D01*
X-833119Y+1662619D01*
X-833119Y+1524001D01*
X-436881Y+1524001D01*
X-436881Y+1777999D01*
X-812801Y+1777999D01*
X-812801Y+1778001D01*
X-629921Y+1778001D01*
X-629921Y+2031999D01*
X-833119Y+2031999D01*
X-833119Y+1981199D01*
X-857063Y+1981199D01*
X-862479Y+1975783D01*
X-862479Y+2007829D01*
X-886651Y+2032001D01*
X-836395Y+2032001D01*
X-785595Y+2082801D01*
X-738405Y+2082801D01*
X-687605Y+2032001D01*
X-582395Y+2032001D01*
X-531595Y+2082801D01*
X-507999Y+2082801D01*
X-507999Y+2032001D01*
X-1069881Y+2105119D02*
X-1047563Y+2082801D01*
X-992405Y+2082801D01*
X-941605Y+2032001D01*
X-927207Y+2032001D01*
X-944881Y+2014327D01*
X-944881Y+2031999D01*
X-1104900Y+2031999D01*
X-1104900Y+2140138D01*
X-1069881Y+2105119D01*
X-965199Y+1777999D02*
X-1104900Y+1777999D01*
X-1104900Y+1778001D01*
X-965199Y+1778001D01*
X-965199Y+1777999D01*
X-1015999Y+687605D02*
X-1015999Y+582395D01*
X-992403Y+558799D01*
X-1104900Y+558799D01*
X-1104900Y+711201D01*
X-992403Y+711201D01*
X-1015999Y+687605D01*
X-992405Y-50801D02*
X-1047563Y-50801D01*
X-1104900Y-108138D01*
X-1104900Y-50799D01*
X-992403Y-50799D01*
X-992405Y-50801D01*
X-507999Y-253999D02*
X-276867Y-253999D01*
X-276867Y-254001D01*
X-325119Y-254001D01*
X-325119Y-507999D01*
X-165100Y-507999D01*
X-165100Y-539775D01*
X-237413Y-539775D01*
X-289489Y-591851D01*
X-289489Y-665497D01*
X-276846Y-678140D01*
X-276846Y-762001D01*
X-507999Y-762001D01*
X-507999Y-1015999D01*
X-276846Y-1015999D01*
X-276846Y-1524001D01*
X-375921Y-1524001D01*
X-375921Y-1158241D01*
X-553719Y-1158241D01*
X-553719Y-1552677D01*
X-582395Y-1524001D01*
X-589281Y-1524001D01*
X-589281Y-1158241D01*
X-756921Y-1158241D01*
X-756921Y-965201D01*
X-785597Y-965201D01*
X-762001Y-941605D01*
X-762001Y-836395D01*
X-836395Y-762001D01*
X-941605Y-762001D01*
X-1015999Y-836395D01*
X-1015999Y-941605D01*
X-992403Y-965201D01*
X-1104900Y-965201D01*
X-1104900Y-761999D01*
X-944881Y-761999D01*
X-944881Y-623381D01*
X-857063Y-711199D01*
X-833119Y-711199D01*
X-833119Y-761999D01*
X-629921Y-761999D01*
X-629921Y-508001D01*
X-812801Y-508001D01*
X-812801Y-507999D01*
X-436881Y-507999D01*
X-436881Y-254001D01*
X-833119Y-254001D01*
X-833119Y-392619D01*
X-920937Y-304801D01*
X-944881Y-304801D01*
X-944881Y-254001D01*
X-970281Y-254001D01*
X-970281Y-225323D01*
X-941605Y-253999D01*
X-836395Y-253999D01*
X-785595Y-203199D01*
X-738405Y-203199D01*
X-687605Y-253999D01*
X-582395Y-253999D01*
X-531595Y-203199D01*
X-507999Y-203199D01*
X-507999Y-253999D01*
X-761999Y-941605D02*
X-761999Y-836395D01*
X-687605Y-762001D01*
X-582395Y-762001D01*
X-508001Y-836395D01*
X-508001Y-941605D01*
X-582395Y-1015999D01*
X-687605Y-1015999D01*
X-761999Y-941605D01*
X-965199Y-508001D02*
X-1104900Y-508001D01*
X-1104900Y-507999D01*
X-965199Y-507999D01*
X-965199Y-508001D01*
X-992405Y-1574801D02*
X-1047563Y-1574801D01*
X-1104900Y-1632138D01*
X-1104900Y-1574799D01*
X-992403Y-1574799D01*
X-992405Y-1574801D01*
X-507999Y-1777999D02*
X-305480Y-1777999D01*
X-305480Y-1778001D01*
X-325119Y-1778001D01*
X-325119Y-2031999D01*
X-165100Y-2031999D01*
X-165100Y-2628900D01*
X-1104900Y-2628900D01*
X-1104900Y-2285999D01*
X-944881Y-2285999D01*
X-944881Y-2032001D01*
X-970281Y-2032001D01*
X-970281Y-2031999D01*
X-944881Y-2031999D01*
X-944881Y-1778001D01*
X-970281Y-1778001D01*
X-970281Y-1749323D01*
X-941605Y-1777999D01*
X-836395Y-1777999D01*
X-785595Y-1727199D01*
X-738405Y-1727199D01*
X-687605Y-1777999D01*
X-582395Y-1777999D01*
X-531595Y-1727199D01*
X-507999Y-1727199D01*
X-507999Y-1777999D01*
X-1077900Y-2528442D02*
X-1077900Y-2424558D01*
X-1004442Y-2351100D01*
X-900558Y-2351100D01*
X-827100Y-2424558D01*
X-827100Y-2528442D01*
X-900558Y-2601900D01*
X-1004442Y-2601900D01*
X-1077900Y-2528442D01*
X-833119Y-2032001D02*
X-629921Y-2032001D01*
X-629921Y-2285999D01*
X-833119Y-2285999D01*
X-833119Y-2032001D01*
X-436881Y-2031999D02*
X-833119Y-2031999D01*
X-833119Y-1778001D01*
X-436881Y-1778001D01*
X-436881Y-2031999D01*
D12*
X-635001Y+5715000D02*
X-762000Y+5715000D01*
X-888999Y+5715000D02*
X-762000Y+5715000D01*
X-762000Y+5841999D02*
X-762000Y+5715000D01*
X-762000Y+5588001D02*
X-762000Y+5715000D01*
X-381001Y+5715000D02*
X-508000Y+5715000D01*
X-634999Y+5715000D02*
X-508000Y+5715000D01*
X-508000Y+5841999D02*
X-508000Y+5715000D01*
X-508000Y+5588001D02*
X-508000Y+5715000D01*
X-635001Y+5969000D02*
X-762000Y+5969000D01*
X-888999Y+5969000D02*
X-762000Y+5969000D01*
X-762000Y+6095999D02*
X-762000Y+5969000D01*
X-762000Y+5842001D02*
X-762000Y+5969000D01*
X-381001Y+5969000D02*
X-508000Y+5969000D01*
X-634999Y+5969000D02*
X-508000Y+5969000D01*
X-508000Y+6095999D02*
X-508000Y+5969000D01*
X-508000Y+5842001D02*
X-508000Y+5969000D01*
X-635001Y+6223000D02*
X-762000Y+6223000D01*
X-888999Y+6223000D02*
X-762000Y+6223000D01*
X-762000Y+6349999D02*
X-762000Y+6223000D01*
X-762000Y+6096001D02*
X-762000Y+6223000D01*
X-381001Y+6223000D02*
X-508000Y+6223000D01*
X-634999Y+6223000D02*
X-508000Y+6223000D01*
X-508000Y+6349999D02*
X-508000Y+6223000D01*
X-508000Y+6096001D02*
X-508000Y+6223000D01*
X-635001Y+3302000D02*
X-762000Y+3302000D01*
X-888999Y+3302000D02*
X-762000Y+3302000D01*
X-762000Y+3428999D02*
X-762000Y+3302000D01*
X-762000Y+3175001D02*
X-762000Y+3302000D01*
X-634999Y+3302000D02*
X-508000Y+3302000D01*
X-508000Y+3428999D02*
X-508000Y+3302000D01*
X-508000Y+3175001D02*
X-508000Y+3302000D01*
X-635001Y+3556000D02*
X-762000Y+3556000D01*
X-888999Y+3556000D02*
X-762000Y+3556000D01*
X-762000Y+3682999D02*
X-762000Y+3556000D01*
X-762000Y+3429001D02*
X-762000Y+3556000D01*
X-634999Y+3556000D02*
X-508000Y+3556000D01*
X-508000Y+3682999D02*
X-508000Y+3556000D01*
X-508000Y+3429001D02*
X-508000Y+3556000D01*
X-635001Y+3810000D02*
X-762000Y+3810000D01*
X-888999Y+3810000D02*
X-762000Y+3810000D01*
X-762000Y+3936999D02*
X-762000Y+3810000D01*
X-762000Y+3683001D02*
X-762000Y+3810000D01*
X-634999Y+3810000D02*
X-508000Y+3810000D01*
X-508000Y+3936999D02*
X-508000Y+3810000D01*
X-508000Y+3683001D02*
X-508000Y+3810000D01*
X-507999Y-889000D02*
X-381000Y-889000D01*
X-381000Y-1015999D02*
X-381000Y-889000D01*
X-381000Y-762001D02*
X-381000Y-889000D01*
X-761999Y-889000D02*
X-635000Y-889000D01*
X-508001Y-889000D02*
X-635000Y-889000D01*
X-635000Y-1015999D02*
X-635000Y-889000D01*
X-635000Y-762001D02*
X-635000Y-889000D01*
X-1015999Y-889000D02*
X-889000Y-889000D01*
X-762001Y-889000D02*
X-889000Y-889000D01*
X-889000Y-762001D02*
X-889000Y-889000D01*
X-1059180Y+711201D02*
X-1059180Y+825500D01*
X-1059180Y-50799D02*
X-1059180Y+63500D01*
X-1059180Y+558799D02*
X-1059180Y+444500D01*
X-1059180Y-1574799D02*
X-1059180Y-1460500D01*
X-1059180Y-965201D02*
X-1059180Y-1079500D01*
X-1046480Y+1778001D02*
X-1046480Y+1905000D01*
X-1046480Y+2031999D02*
X-1046480Y+1905000D01*
X-944881Y-635000D02*
X-1046480Y-635000D01*
X-1046480Y-761999D02*
X-1046480Y-635000D01*
X-1046480Y-508001D02*
X-1046480Y-635000D01*
X-833119Y-2159000D02*
X-731520Y-2159000D01*
X-629921Y-2159000D02*
X-731520Y-2159000D01*
X-731520Y-2285999D02*
X-731520Y-2159000D01*
X-731520Y-2032001D02*
X-731520Y-2159000D01*
X-589281Y-1460500D02*
X-678180Y-1460500D01*
X-589281Y+825500D02*
X-678180Y+825500D01*
D13*
X-1143000Y-2667000D02*
X-127000Y-2667000D01*
X-127000Y+7239000D01*
X-1143000Y+7239000D01*
X-1143000Y-2667000D01*
X-1143000Y-2667000D01*
D10*
X+762000Y+2159000D02*
X+508000Y+2159000D01*
X+254000Y+2159000D01*
X+508000Y+1397000D02*
X+762000Y+1397000D01*
X+254000Y+1397000D02*
X+508000Y+1397000D01*
X+254000Y+2159000D02*
X+254000Y+2382520D01*
X+444500Y-127000D02*
X+508000Y-127000D01*
X+444500Y-127000D02*
X+254000Y-127000D01*
X+635000Y-127000D02*
X+762000Y-127000D01*
X+508000Y-127000D02*
X+635000Y-127000D01*
X+762000Y-1651000D02*
X+762000Y-1651000D01*
X+508000Y+635000D02*
X+444500Y+635000D01*
X+254000Y+635000D01*
X+762000Y+635000D02*
X+635000Y+635000D01*
X+508000Y+635000D02*
X+635000Y+635000D01*
X+762000Y-1651000D02*
X+614680Y-1651000D01*
X+508000Y-1651000D02*
X+614680Y-1651000D01*
X+297180Y-1460500D02*
X+297180Y-1270000D01*
X+297180Y-1079500D01*
X+297180Y-1270000D02*
X+464820Y-1270000D01*
X+678180Y-1460500D02*
X+678180Y-1270000D01*
X+297180Y-1460500D02*
X+297180Y-1630680D01*
X+317500Y-1651000D01*
X+487680Y-1651000D01*
X+508000Y-1651000D01*
X+317500Y-1651000D02*
X+254000Y-1651000D01*
X+411480Y-1905000D02*
X+604520Y-1905000D01*
X+96520Y-1905000D02*
X+96520Y-2159000D01*
X+96520Y-381000D02*
X+96520Y-157480D01*
X+127000Y-127000D01*
X+254000Y-127000D01*
X+96520Y-1905000D02*
X+96520Y-1681480D01*
X+127000Y-1651000D01*
X+254000Y-1651000D01*
X+96520Y-381000D02*
X+190500Y-381000D01*
X+254000Y-444500D01*
X+254000Y-571500D01*
X+317500Y-635000D01*
X+411480Y-635000D01*
X+411480Y-381000D02*
X+604520Y-381000D01*
X+464820Y+254000D02*
X+297180Y+254000D01*
X+297180Y+444500D02*
X+297180Y+254000D01*
X+297180Y+63500D01*
X+297180Y-83820D01*
X+254000Y-127000D01*
X+678180Y+825500D02*
X+678180Y+1016000D01*
X+464820Y+1016000D02*
X+297180Y+1016000D01*
X+297180Y+1206500D02*
X+297180Y+1016000D01*
X+297180Y+825500D01*
X+297180Y+678180D01*
X+254000Y+635000D01*
X+96520Y+1651000D02*
X+96520Y+1372946D01*
X+262966Y+1206500D01*
X+297180Y+1206500D01*
X+96520Y+1651000D02*
X+190500Y+1651000D01*
X+254000Y+1714500D01*
X+254000Y+1841500D01*
X+317500Y+1905000D01*
X+411480Y+1905000D01*
X+96520Y+1905000D02*
X+180937Y+1989417D01*
X+236071Y+1989417D01*
X+411480Y+1651000D02*
X+604520Y+1651000D01*
X+678180Y+63500D02*
X+678180Y+254000D01*
X+381000Y+4826000D02*
X+127000Y+4826000D01*
X+63500Y+4762500D01*
X+63500Y+2667000D01*
X+63500Y+2222500D01*
X+127000Y+2159000D01*
X+254000Y+2159000D01*
D11*
X+919480Y+1651000D02*
X+919480Y+1812263D01*
X+948717Y+1841500D01*
X+948717Y+4258283D01*
X+889000Y+4318000D01*
X+635000Y+4318000D01*
X+825500Y+2667000D02*
X+825500Y+2921000D01*
X+825500Y+2984500D01*
X+825500Y+4000500D01*
X+762000Y+4064000D01*
X+635000Y+4064000D01*
D10*
X+508000Y+2382520D02*
X+668020Y+2382520D01*
X+698500Y+2413000D01*
X+698500Y+2794000D01*
X+635000Y+2857500D01*
X+190500Y+2857500D01*
D11*
X+762000Y+1143000D02*
X+948682Y+956318D01*
X+948682Y-351798D01*
X+919480Y-381000D01*
D10*
X+464820Y+63500D02*
X+508000Y+63500D01*
X+571500Y+127000D01*
X+571500Y+381000D01*
X+635000Y+444500D01*
X+762000Y+444500D01*
D11*
X+942410Y-628674D02*
X+948703Y-634967D01*
X+948703Y-727116D01*
X+948703Y-1742825D01*
X+920069Y-1771459D01*
X+920069Y-1904411D01*
X+919480Y-1905000D01*
D10*
X+977900Y+4345842D02*
X+923193Y+4400549D01*
X+732055Y+4400549D01*
X+687605Y+4444999D01*
X+582395Y+4444999D01*
X+508001Y+4370605D01*
X+508001Y+4265395D01*
X+582395Y+4191001D01*
X+687605Y+4191001D01*
X+732055Y+4235451D01*
X+854807Y+4235451D01*
X+866168Y+4224090D01*
X+866168Y+4076574D01*
X+796193Y+4146549D01*
X+732055Y+4146549D01*
X+687605Y+4190999D01*
X+582395Y+4190999D01*
X+508001Y+4116605D01*
X+508001Y+4011395D01*
X+582395Y+3937001D01*
X+687605Y+3937001D01*
X+729931Y+3979327D01*
X+742951Y+3966307D01*
X+742951Y+3881653D01*
X+687605Y+3936999D01*
X+582395Y+3936999D01*
X+508001Y+3862605D01*
X+508001Y+3757395D01*
X+582395Y+3683001D01*
X+687605Y+3683001D01*
X+742951Y+3738347D01*
X+742951Y+3627653D01*
X+687605Y+3682999D01*
X+582395Y+3682999D01*
X+508001Y+3608605D01*
X+508001Y+3503395D01*
X+582395Y+3429001D01*
X+687605Y+3429001D01*
X+742951Y+3484347D01*
X+742951Y+3373653D01*
X+687605Y+3428999D01*
X+582395Y+3428999D01*
X+508001Y+3354605D01*
X+508001Y+3249395D01*
X+582395Y+3175001D01*
X+687605Y+3175001D01*
X+742951Y+3230347D01*
X+742951Y+3119653D01*
X+687605Y+3174999D01*
X+582395Y+3174999D01*
X+508001Y+3100605D01*
X+508001Y+2995395D01*
X+569697Y+2933699D01*
X+446303Y+2933699D01*
X+507999Y+2995395D01*
X+507999Y+3100605D01*
X+433605Y+3174999D01*
X+328395Y+3174999D01*
X+254001Y+3100605D01*
X+254001Y+2995395D01*
X+315697Y+2933699D01*
X+240023Y+2933699D01*
X+227323Y+2946399D01*
X+153677Y+2946399D01*
X+139699Y+2932421D01*
X+139699Y+4730937D01*
X+158563Y+4749801D01*
X+277595Y+4749801D01*
X+328395Y+4699001D01*
X+433605Y+4699001D01*
X+507999Y+4773395D01*
X+507999Y+4878605D01*
X+433605Y+4952999D01*
X+328395Y+4952999D01*
X+277595Y+4902199D01*
X+95437Y+4902199D01*
X+38100Y+4844862D01*
X+38100Y+7200900D01*
X+977900Y+7200900D01*
X+977900Y+4345842D01*
X+65100Y+6996558D02*
X+65100Y+7100442D01*
X+138558Y+7173900D01*
X+242442Y+7173900D01*
X+315900Y+7100442D01*
X+315900Y+6996558D01*
X+242442Y+6923100D01*
X+138558Y+6923100D01*
X+65100Y+6996558D01*
X+507999Y+5513605D02*
X+507999Y+5408395D01*
X+433605Y+5334001D01*
X+328395Y+5334001D01*
X+254001Y+5408395D01*
X+254001Y+5513605D01*
X+328395Y+5587999D01*
X+433605Y+5587999D01*
X+507999Y+5513605D01*
X+761999Y+5513605D02*
X+761999Y+5408395D01*
X+687605Y+5334001D01*
X+582395Y+5334001D01*
X+508001Y+5408395D01*
X+508001Y+5513605D01*
X+582395Y+5587999D01*
X+687605Y+5587999D01*
X+761999Y+5513605D01*
X+507999Y+5767605D02*
X+507999Y+5662395D01*
X+433605Y+5588001D01*
X+328395Y+5588001D01*
X+254001Y+5662395D01*
X+254001Y+5767605D01*
X+328395Y+5841999D01*
X+433605Y+5841999D01*
X+507999Y+5767605D01*
X+761999Y+5767605D02*
X+761999Y+5662395D01*
X+687605Y+5588001D01*
X+582395Y+5588001D01*
X+508001Y+5662395D01*
X+508001Y+5767605D01*
X+582395Y+5841999D01*
X+687605Y+5841999D01*
X+761999Y+5767605D01*
X+507999Y+6021605D02*
X+507999Y+5916395D01*
X+433605Y+5842001D01*
X+328395Y+5842001D01*
X+254001Y+5916395D01*
X+254001Y+6021605D01*
X+328395Y+6095999D01*
X+433605Y+6095999D01*
X+507999Y+6021605D01*
X+761999Y+6021605D02*
X+761999Y+5916395D01*
X+687605Y+5842001D01*
X+582395Y+5842001D01*
X+508001Y+5916395D01*
X+508001Y+6021605D01*
X+582395Y+6095999D01*
X+687605Y+6095999D01*
X+761999Y+6021605D01*
X+507999Y+6275605D02*
X+507999Y+6170395D01*
X+433605Y+6096001D01*
X+328395Y+6096001D01*
X+254001Y+6170395D01*
X+254001Y+6275605D01*
X+328395Y+6349999D01*
X+433605Y+6349999D01*
X+507999Y+6275605D01*
X+761999Y+6275605D02*
X+761999Y+6170395D01*
X+687605Y+6096001D01*
X+582395Y+6096001D01*
X+508001Y+6170395D01*
X+508001Y+6275605D01*
X+582395Y+6349999D01*
X+687605Y+6349999D01*
X+761999Y+6275605D01*
X+507999Y+6529605D02*
X+507999Y+6424395D01*
X+433605Y+6350001D01*
X+328395Y+6350001D01*
X+254001Y+6424395D01*
X+254001Y+6529605D01*
X+328395Y+6603999D01*
X+433605Y+6603999D01*
X+507999Y+6529605D01*
X+761999Y+6529605D02*
X+761999Y+6424395D01*
X+687605Y+6350001D01*
X+582395Y+6350001D01*
X+508001Y+6424395D01*
X+508001Y+6529605D01*
X+582395Y+6603999D01*
X+687605Y+6603999D01*
X+761999Y+6529605D01*
X+507999Y+3354605D02*
X+507999Y+3249395D01*
X+433605Y+3175001D01*
X+328395Y+3175001D01*
X+254001Y+3249395D01*
X+254001Y+3354605D01*
X+328395Y+3428999D01*
X+433605Y+3428999D01*
X+507999Y+3354605D01*
X+507999Y+3608605D02*
X+507999Y+3503395D01*
X+433605Y+3429001D01*
X+328395Y+3429001D01*
X+254001Y+3503395D01*
X+254001Y+3608605D01*
X+328395Y+3682999D01*
X+433605Y+3682999D01*
X+507999Y+3608605D01*
X+507999Y+3862605D02*
X+507999Y+3757395D01*
X+433605Y+3683001D01*
X+328395Y+3683001D01*
X+254001Y+3757395D01*
X+254001Y+3862605D01*
X+328395Y+3936999D01*
X+433605Y+3936999D01*
X+507999Y+3862605D01*
X+507999Y+4116605D02*
X+507999Y+4011395D01*
X+433605Y+3937001D01*
X+328395Y+3937001D01*
X+254001Y+4011395D01*
X+254001Y+4116605D01*
X+328395Y+4190999D01*
X+433605Y+4190999D01*
X+507999Y+4116605D01*
X+507999Y+4370605D02*
X+507999Y+4265395D01*
X+433605Y+4191001D01*
X+328395Y+4191001D01*
X+254001Y+4265395D01*
X+254001Y+4370605D01*
X+328395Y+4444999D01*
X+433605Y+4444999D01*
X+507999Y+4370605D01*
X+507999Y+4624605D02*
X+507999Y+4519395D01*
X+433605Y+4445001D01*
X+328395Y+4445001D01*
X+254001Y+4519395D01*
X+254001Y+4624605D01*
X+328395Y+4698999D01*
X+433605Y+4698999D01*
X+507999Y+4624605D01*
X+761999Y+4624605D02*
X+761999Y+4519395D01*
X+687605Y+4445001D01*
X+582395Y+4445001D01*
X+508001Y+4519395D01*
X+508001Y+4624605D01*
X+582395Y+4698999D01*
X+687605Y+4698999D01*
X+761999Y+4624605D01*
X+761999Y+4878605D02*
X+761999Y+4773395D01*
X+687605Y+4699001D01*
X+582395Y+4699001D01*
X+508001Y+4773395D01*
X+508001Y+4878605D01*
X+582395Y+4952999D01*
X+687605Y+4952999D01*
X+761999Y+4878605D01*
X+635001Y+2032001D02*
X+866168Y+2032001D01*
X+866168Y+1875693D01*
X+836931Y+1846456D01*
X+836931Y+1777999D01*
X+817881Y+1777999D01*
X+817881Y+1524001D01*
X+977900Y+1524001D01*
X+977900Y+1043842D01*
X+850899Y+1170843D01*
X+850899Y+1179823D01*
X+798823Y+1231899D01*
X+725177Y+1231899D01*
X+673101Y+1179823D01*
X+673101Y+1127759D01*
X+589281Y+1127759D01*
X+589281Y+733323D01*
X+560605Y+761999D01*
X+553719Y+761999D01*
X+553719Y+1127759D01*
X+386079Y+1127759D01*
X+386079Y+1320799D01*
X+357403Y+1320799D01*
X+357405Y+1320801D01*
X+404595Y+1320801D01*
X+455395Y+1270001D01*
X+560605Y+1270001D01*
X+611405Y+1320801D01*
X+635001Y+1320801D01*
X+635001Y+1270001D01*
X+888999Y+1270001D01*
X+888999Y+1523999D01*
X+635001Y+1523999D01*
X+635001Y+1473199D01*
X+611405Y+1473199D01*
X+560605Y+1523999D01*
X+455395Y+1523999D01*
X+404595Y+1473199D01*
X+357405Y+1473199D01*
X+306605Y+1523999D01*
X+201395Y+1523999D01*
X+172719Y+1495323D01*
X+172719Y+1524001D01*
X+198119Y+1524001D01*
X+198119Y+1574801D01*
X+222063Y+1574801D01*
X+309881Y+1662619D01*
X+309881Y+1524001D01*
X+706119Y+1524001D01*
X+706119Y+1777999D01*
X+330199Y+1777999D01*
X+330199Y+1778001D01*
X+513079Y+1778001D01*
X+513079Y+2031999D01*
X+309881Y+2031999D01*
X+309881Y+1981199D01*
X+285937Y+1981199D01*
X+280521Y+1975783D01*
X+280521Y+2007829D01*
X+256349Y+2032001D01*
X+306605Y+2032001D01*
X+357405Y+2082801D01*
X+404595Y+2082801D01*
X+455395Y+2032001D01*
X+560605Y+2032001D01*
X+611405Y+2082801D01*
X+635001Y+2082801D01*
X+635001Y+2032001D01*
X+73119Y+2105119D02*
X+95437Y+2082801D01*
X+150595Y+2082801D01*
X+201395Y+2032001D01*
X+215793Y+2032001D01*
X+198119Y+2014327D01*
X+198119Y+2031999D01*
X+38100Y+2031999D01*
X+38100Y+2140138D01*
X+73119Y+2105119D01*
X+177801Y+1777999D02*
X+38100Y+1777999D01*
X+38100Y+1778001D01*
X+177801Y+1778001D01*
X+177801Y+1777999D01*
X+127001Y+687605D02*
X+127001Y+582395D01*
X+150597Y+558799D01*
X+38100Y+558799D01*
X+38100Y+711201D01*
X+150597Y+711201D01*
X+127001Y+687605D01*
X+150595Y-50801D02*
X+95437Y-50801D01*
X+38100Y-108138D01*
X+38100Y-50799D01*
X+150597Y-50799D01*
X+150595Y-50801D01*
X+635001Y-253999D02*
X+866133Y-253999D01*
X+866133Y-254001D01*
X+817881Y-254001D01*
X+817881Y-507999D01*
X+977900Y-507999D01*
X+977900Y-539775D01*
X+905587Y-539775D01*
X+853511Y-591851D01*
X+853511Y-665497D01*
X+866154Y-678140D01*
X+866154Y-762001D01*
X+635001Y-762001D01*
X+635001Y-1015999D01*
X+866154Y-1015999D01*
X+866154Y-1524001D01*
X+767079Y-1524001D01*
X+767079Y-1158241D01*
X+589281Y-1158241D01*
X+589281Y-1552677D01*
X+560605Y-1524001D01*
X+553719Y-1524001D01*
X+553719Y-1158241D01*
X+386079Y-1158241D01*
X+386079Y-965201D01*
X+357403Y-965201D01*
X+380999Y-941605D01*
X+380999Y-836395D01*
X+306605Y-762001D01*
X+201395Y-762001D01*
X+127001Y-836395D01*
X+127001Y-941605D01*
X+150597Y-965201D01*
X+38100Y-965201D01*
X+38100Y-761999D01*
X+198119Y-761999D01*
X+198119Y-623381D01*
X+285937Y-711199D01*
X+309881Y-711199D01*
X+309881Y-761999D01*
X+513079Y-761999D01*
X+513079Y-508001D01*
X+330199Y-508001D01*
X+330199Y-507999D01*
X+706119Y-507999D01*
X+706119Y-254001D01*
X+309881Y-254001D01*
X+309881Y-392619D01*
X+222063Y-304801D01*
X+198119Y-304801D01*
X+198119Y-254001D01*
X+172719Y-254001D01*
X+172719Y-225323D01*
X+201395Y-253999D01*
X+306605Y-253999D01*
X+357405Y-203199D01*
X+404595Y-203199D01*
X+455395Y-253999D01*
X+560605Y-253999D01*
X+611405Y-203199D01*
X+635001Y-203199D01*
X+635001Y-253999D01*
X+381001Y-941605D02*
X+381001Y-836395D01*
X+455395Y-762001D01*
X+560605Y-762001D01*
X+634999Y-836395D01*
X+634999Y-941605D01*
X+560605Y-1015999D01*
X+455395Y-1015999D01*
X+381001Y-941605D01*
X+177801Y-508001D02*
X+38100Y-508001D01*
X+38100Y-507999D01*
X+177801Y-507999D01*
X+177801Y-508001D01*
X+150595Y-1574801D02*
X+95437Y-1574801D01*
X+38100Y-1632138D01*
X+38100Y-1574799D01*
X+150597Y-1574799D01*
X+150595Y-1574801D01*
X+635001Y-1777999D02*
X+837520Y-1777999D01*
X+837520Y-1778001D01*
X+817881Y-1778001D01*
X+817881Y-2031999D01*
X+977900Y-2031999D01*
X+977900Y-2628900D01*
X+38100Y-2628900D01*
X+38100Y-2285999D01*
X+198119Y-2285999D01*
X+198119Y-2032001D01*
X+172719Y-2032001D01*
X+172719Y-2031999D01*
X+198119Y-2031999D01*
X+198119Y-1778001D01*
X+172719Y-1778001D01*
X+172719Y-1749323D01*
X+201395Y-1777999D01*
X+306605Y-1777999D01*
X+357405Y-1727199D01*
X+404595Y-1727199D01*
X+455395Y-1777999D01*
X+560605Y-1777999D01*
X+611405Y-1727199D01*
X+635001Y-1727199D01*
X+635001Y-1777999D01*
X+65100Y-2528442D02*
X+65100Y-2424558D01*
X+138558Y-2351100D01*
X+242442Y-2351100D01*
X+315900Y-2424558D01*
X+315900Y-2528442D01*
X+242442Y-2601900D01*
X+138558Y-2601900D01*
X+65100Y-2528442D01*
X+309881Y-2032001D02*
X+513079Y-2032001D01*
X+513079Y-2285999D01*
X+309881Y-2285999D01*
X+309881Y-2032001D01*
X+706119Y-2031999D02*
X+309881Y-2031999D01*
X+309881Y-1778001D01*
X+706119Y-1778001D01*
X+706119Y-2031999D01*
D12*
X+507999Y+5715000D02*
X+381000Y+5715000D01*
X+254001Y+5715000D02*
X+381000Y+5715000D01*
X+381000Y+5841999D02*
X+381000Y+5715000D01*
X+381000Y+5588001D02*
X+381000Y+5715000D01*
X+761999Y+5715000D02*
X+635000Y+5715000D01*
X+508001Y+5715000D02*
X+635000Y+5715000D01*
X+635000Y+5841999D02*
X+635000Y+5715000D01*
X+635000Y+5588001D02*
X+635000Y+5715000D01*
X+507999Y+5969000D02*
X+381000Y+5969000D01*
X+254001Y+5969000D02*
X+381000Y+5969000D01*
X+381000Y+6095999D02*
X+381000Y+5969000D01*
X+381000Y+5842001D02*
X+381000Y+5969000D01*
X+761999Y+5969000D02*
X+635000Y+5969000D01*
X+508001Y+5969000D02*
X+635000Y+5969000D01*
X+635000Y+6095999D02*
X+635000Y+5969000D01*
X+635000Y+5842001D02*
X+635000Y+5969000D01*
X+507999Y+6223000D02*
X+381000Y+6223000D01*
X+254001Y+6223000D02*
X+381000Y+6223000D01*
X+381000Y+6349999D02*
X+381000Y+6223000D01*
X+381000Y+6096001D02*
X+381000Y+6223000D01*
X+761999Y+6223000D02*
X+635000Y+6223000D01*
X+508001Y+6223000D02*
X+635000Y+6223000D01*
X+635000Y+6349999D02*
X+635000Y+6223000D01*
X+635000Y+6096001D02*
X+635000Y+6223000D01*
X+507999Y+3302000D02*
X+381000Y+3302000D01*
X+254001Y+3302000D02*
X+381000Y+3302000D01*
X+381000Y+3428999D02*
X+381000Y+3302000D01*
X+381000Y+3175001D02*
X+381000Y+3302000D01*
X+508001Y+3302000D02*
X+635000Y+3302000D01*
X+635000Y+3428999D02*
X+635000Y+3302000D01*
X+635000Y+3175001D02*
X+635000Y+3302000D01*
X+507999Y+3556000D02*
X+381000Y+3556000D01*
X+254001Y+3556000D02*
X+381000Y+3556000D01*
X+381000Y+3682999D02*
X+381000Y+3556000D01*
X+381000Y+3429001D02*
X+381000Y+3556000D01*
X+508001Y+3556000D02*
X+635000Y+3556000D01*
X+635000Y+3682999D02*
X+635000Y+3556000D01*
X+635000Y+3429001D02*
X+635000Y+3556000D01*
X+507999Y+3810000D02*
X+381000Y+3810000D01*
X+254001Y+3810000D02*
X+381000Y+3810000D01*
X+381000Y+3936999D02*
X+381000Y+3810000D01*
X+381000Y+3683001D02*
X+381000Y+3810000D01*
X+508001Y+3810000D02*
X+635000Y+3810000D01*
X+635000Y+3936999D02*
X+635000Y+3810000D01*
X+635000Y+3683001D02*
X+635000Y+3810000D01*
X+635001Y-889000D02*
X+762000Y-889000D01*
X+762000Y-1015999D02*
X+762000Y-889000D01*
X+762000Y-762001D02*
X+762000Y-889000D01*
X+381001Y-889000D02*
X+508000Y-889000D01*
X+634999Y-889000D02*
X+508000Y-889000D01*
X+508000Y-1015999D02*
X+508000Y-889000D01*
X+508000Y-762001D02*
X+508000Y-889000D01*
X+127001Y-889000D02*
X+254000Y-889000D01*
X+380999Y-889000D02*
X+254000Y-889000D01*
X+254000Y-762001D02*
X+254000Y-889000D01*
X+83820Y+711201D02*
X+83820Y+825500D01*
X+83820Y-50799D02*
X+83820Y+63500D01*
X+83820Y+558799D02*
X+83820Y+444500D01*
X+83820Y-1574799D02*
X+83820Y-1460500D01*
X+83820Y-965201D02*
X+83820Y-1079500D01*
X+96520Y+1778001D02*
X+96520Y+1905000D01*
X+96520Y+2031999D02*
X+96520Y+1905000D01*
X+198119Y-635000D02*
X+96520Y-635000D01*
X+96520Y-761999D02*
X+96520Y-635000D01*
X+96520Y-508001D02*
X+96520Y-635000D01*
X+309881Y-2159000D02*
X+411480Y-2159000D01*
X+513079Y-2159000D02*
X+411480Y-2159000D01*
X+411480Y-2285999D02*
X+411480Y-2159000D01*
X+411480Y-2032001D02*
X+411480Y-2159000D01*
X+553719Y-1460500D02*
X+464820Y-1460500D01*
X+553719Y+825500D02*
X+464820Y+825500D01*
D13*
X+0Y-2667000D02*
X+1016000Y-2667000D01*
X+1016000Y+7239000D01*
X+0Y+7239000D01*
X+0Y-2667000D01*
X+0Y-2667000D01*
D10*
X+1905000Y+2159000D02*
X+1651000Y+2159000D01*
X+1397000Y+2159000D01*
X+1651000Y+1397000D02*
X+1905000Y+1397000D01*
X+1397000Y+1397000D02*
X+1651000Y+1397000D01*
X+1397000Y+2159000D02*
X+1397000Y+2382520D01*
X+1587500Y-127000D02*
X+1651000Y-127000D01*
X+1587500Y-127000D02*
X+1397000Y-127000D01*
X+1778000Y-127000D02*
X+1905000Y-127000D01*
X+1651000Y-127000D02*
X+1778000Y-127000D01*
X+1905000Y-1651000D02*
X+1905000Y-1651000D01*
X+1651000Y+635000D02*
X+1587500Y+635000D01*
X+1397000Y+635000D01*
X+1905000Y+635000D02*
X+1778000Y+635000D01*
X+1651000Y+635000D02*
X+1778000Y+635000D01*
X+1905000Y-1651000D02*
X+1757680Y-1651000D01*
X+1651000Y-1651000D02*
X+1757680Y-1651000D01*
X+1440180Y-1460500D02*
X+1440180Y-1270000D01*
X+1440180Y-1079500D01*
X+1440180Y-1270000D02*
X+1607820Y-1270000D01*
X+1821180Y-1460500D02*
X+1821180Y-1270000D01*
X+1440180Y-1460500D02*
X+1440180Y-1630680D01*
X+1460500Y-1651000D01*
X+1630680Y-1651000D01*
X+1651000Y-1651000D01*
X+1460500Y-1651000D02*
X+1397000Y-1651000D01*
X+1554480Y-1905000D02*
X+1747520Y-1905000D01*
X+1239520Y-1905000D02*
X+1239520Y-2159000D01*
X+1239520Y-381000D02*
X+1239520Y-157480D01*
X+1270000Y-127000D01*
X+1397000Y-127000D01*
X+1239520Y-1905000D02*
X+1239520Y-1681480D01*
X+1270000Y-1651000D01*
X+1397000Y-1651000D01*
X+1239520Y-381000D02*
X+1333500Y-381000D01*
X+1397000Y-444500D01*
X+1397000Y-571500D01*
X+1460500Y-635000D01*
X+1554480Y-635000D01*
X+1554480Y-381000D02*
X+1747520Y-381000D01*
X+1607820Y+254000D02*
X+1440180Y+254000D01*
X+1440180Y+444500D02*
X+1440180Y+254000D01*
X+1440180Y+63500D01*
X+1440180Y-83820D01*
X+1397000Y-127000D01*
X+1821180Y+825500D02*
X+1821180Y+1016000D01*
X+1607820Y+1016000D02*
X+1440180Y+1016000D01*
X+1440180Y+1206500D02*
X+1440180Y+1016000D01*
X+1440180Y+825500D01*
X+1440180Y+678180D01*
X+1397000Y+635000D01*
X+1239520Y+1651000D02*
X+1239520Y+1372946D01*
X+1405966Y+1206500D01*
X+1440180Y+1206500D01*
X+1239520Y+1651000D02*
X+1333500Y+1651000D01*
X+1397000Y+1714500D01*
X+1397000Y+1841500D01*
X+1460500Y+1905000D01*
X+1554480Y+1905000D01*
X+1239520Y+1905000D02*
X+1323937Y+1989417D01*
X+1379071Y+1989417D01*
X+1554480Y+1651000D02*
X+1747520Y+1651000D01*
X+1821180Y+63500D02*
X+1821180Y+254000D01*
X+1524000Y+4826000D02*
X+1270000Y+4826000D01*
X+1206500Y+4762500D01*
X+1206500Y+2667000D01*
X+1206500Y+2222500D01*
X+1270000Y+2159000D01*
X+1397000Y+2159000D01*
D11*
X+2062480Y+1651000D02*
X+2062480Y+1812263D01*
X+2091717Y+1841500D01*
X+2091717Y+4258283D01*
X+2032000Y+4318000D01*
X+1778000Y+4318000D01*
X+1968500Y+2667000D02*
X+1968500Y+2921000D01*
X+1968500Y+2984500D01*
X+1968500Y+4000500D01*
X+1905000Y+4064000D01*
X+1778000Y+4064000D01*
D10*
X+1651000Y+2382520D02*
X+1811020Y+2382520D01*
X+1841500Y+2413000D01*
X+1841500Y+2794000D01*
X+1778000Y+2857500D01*
X+1333500Y+2857500D01*
D11*
X+1905000Y+1143000D02*
X+2091682Y+956318D01*
X+2091682Y-351798D01*
X+2062480Y-381000D01*
D10*
X+1607820Y+63500D02*
X+1651000Y+63500D01*
X+1714500Y+127000D01*
X+1714500Y+381000D01*
X+1778000Y+444500D01*
X+1905000Y+444500D01*
D11*
X+2085410Y-628674D02*
X+2091703Y-634967D01*
X+2091703Y-727116D01*
X+2091703Y-1742825D01*
X+2063069Y-1771459D01*
X+2063069Y-1904411D01*
X+2062480Y-1905000D01*
D10*
X+2120900Y+4345842D02*
X+2066193Y+4400549D01*
X+1875055Y+4400549D01*
X+1830605Y+4444999D01*
X+1725395Y+4444999D01*
X+1651001Y+4370605D01*
X+1651001Y+4265395D01*
X+1725395Y+4191001D01*
X+1830605Y+4191001D01*
X+1875055Y+4235451D01*
X+1997807Y+4235451D01*
X+2009168Y+4224090D01*
X+2009168Y+4076574D01*
X+1939193Y+4146549D01*
X+1875055Y+4146549D01*
X+1830605Y+4190999D01*
X+1725395Y+4190999D01*
X+1651001Y+4116605D01*
X+1651001Y+4011395D01*
X+1725395Y+3937001D01*
X+1830605Y+3937001D01*
X+1872931Y+3979327D01*
X+1885951Y+3966307D01*
X+1885951Y+3881653D01*
X+1830605Y+3936999D01*
X+1725395Y+3936999D01*
X+1651001Y+3862605D01*
X+1651001Y+3757395D01*
X+1725395Y+3683001D01*
X+1830605Y+3683001D01*
X+1885951Y+3738347D01*
X+1885951Y+3627653D01*
X+1830605Y+3682999D01*
X+1725395Y+3682999D01*
X+1651001Y+3608605D01*
X+1651001Y+3503395D01*
X+1725395Y+3429001D01*
X+1830605Y+3429001D01*
X+1885951Y+3484347D01*
X+1885951Y+3373653D01*
X+1830605Y+3428999D01*
X+1725395Y+3428999D01*
X+1651001Y+3354605D01*
X+1651001Y+3249395D01*
X+1725395Y+3175001D01*
X+1830605Y+3175001D01*
X+1885951Y+3230347D01*
X+1885951Y+3119653D01*
X+1830605Y+3174999D01*
X+1725395Y+3174999D01*
X+1651001Y+3100605D01*
X+1651001Y+2995395D01*
X+1712697Y+2933699D01*
X+1589303Y+2933699D01*
X+1650999Y+2995395D01*
X+1650999Y+3100605D01*
X+1576605Y+3174999D01*
X+1471395Y+3174999D01*
X+1397001Y+3100605D01*
X+1397001Y+2995395D01*
X+1458697Y+2933699D01*
X+1383023Y+2933699D01*
X+1370323Y+2946399D01*
X+1296677Y+2946399D01*
X+1282699Y+2932421D01*
X+1282699Y+4730937D01*
X+1301563Y+4749801D01*
X+1420595Y+4749801D01*
X+1471395Y+4699001D01*
X+1576605Y+4699001D01*
X+1650999Y+4773395D01*
X+1650999Y+4878605D01*
X+1576605Y+4952999D01*
X+1471395Y+4952999D01*
X+1420595Y+4902199D01*
X+1238437Y+4902199D01*
X+1181100Y+4844862D01*
X+1181100Y+7200900D01*
X+2120900Y+7200900D01*
X+2120900Y+4345842D01*
X+1208100Y+6996558D02*
X+1208100Y+7100442D01*
X+1281558Y+7173900D01*
X+1385442Y+7173900D01*
X+1458900Y+7100442D01*
X+1458900Y+6996558D01*
X+1385442Y+6923100D01*
X+1281558Y+6923100D01*
X+1208100Y+6996558D01*
X+1650999Y+5513605D02*
X+1650999Y+5408395D01*
X+1576605Y+5334001D01*
X+1471395Y+5334001D01*
X+1397001Y+5408395D01*
X+1397001Y+5513605D01*
X+1471395Y+5587999D01*
X+1576605Y+5587999D01*
X+1650999Y+5513605D01*
X+1904999Y+5513605D02*
X+1904999Y+5408395D01*
X+1830605Y+5334001D01*
X+1725395Y+5334001D01*
X+1651001Y+5408395D01*
X+1651001Y+5513605D01*
X+1725395Y+5587999D01*
X+1830605Y+5587999D01*
X+1904999Y+5513605D01*
X+1650999Y+5767605D02*
X+1650999Y+5662395D01*
X+1576605Y+5588001D01*
X+1471395Y+5588001D01*
X+1397001Y+5662395D01*
X+1397001Y+5767605D01*
X+1471395Y+5841999D01*
X+1576605Y+5841999D01*
X+1650999Y+5767605D01*
X+1904999Y+5767605D02*
X+1904999Y+5662395D01*
X+1830605Y+5588001D01*
X+1725395Y+5588001D01*
X+1651001Y+5662395D01*
X+1651001Y+5767605D01*
X+1725395Y+5841999D01*
X+1830605Y+5841999D01*
X+1904999Y+5767605D01*
X+1650999Y+6021605D02*
X+1650999Y+5916395D01*
X+1576605Y+5842001D01*
X+1471395Y+5842001D01*
X+1397001Y+5916395D01*
X+1397001Y+6021605D01*
X+1471395Y+6095999D01*
X+1576605Y+6095999D01*
X+1650999Y+6021605D01*
X+1904999Y+6021605D02*
X+1904999Y+5916395D01*
X+1830605Y+5842001D01*
X+1725395Y+5842001D01*
X+1651001Y+5916395D01*
X+1651001Y+6021605D01*
X+1725395Y+6095999D01*
X+1830605Y+6095999D01*
X+1904999Y+6021605D01*
X+1650999Y+6275605D02*
X+1650999Y+6170395D01*
X+1576605Y+6096001D01*
X+1471395Y+6096001D01*
X+1397001Y+6170395D01*
X+1397001Y+6275605D01*
X+1471395Y+6349999D01*
X+1576605Y+6349999D01*
X+1650999Y+6275605D01*
X+1904999Y+6275605D02*
X+1904999Y+6170395D01*
X+1830605Y+6096001D01*
X+1725395Y+6096001D01*
X+1651001Y+6170395D01*
X+1651001Y+6275605D01*
X+1725395Y+6349999D01*
X+1830605Y+6349999D01*
X+1904999Y+6275605D01*
X+1650999Y+6529605D02*
X+1650999Y+6424395D01*
X+1576605Y+6350001D01*
X+1471395Y+6350001D01*
X+1397001Y+6424395D01*
X+1397001Y+6529605D01*
X+1471395Y+6603999D01*
X+1576605Y+6603999D01*
X+1650999Y+6529605D01*
X+1904999Y+6529605D02*
X+1904999Y+6424395D01*
X+1830605Y+6350001D01*
X+1725395Y+6350001D01*
X+1651001Y+6424395D01*
X+1651001Y+6529605D01*
X+1725395Y+6603999D01*
X+1830605Y+6603999D01*
X+1904999Y+6529605D01*
X+1650999Y+3354605D02*
X+1650999Y+3249395D01*
X+1576605Y+3175001D01*
X+1471395Y+3175001D01*
X+1397001Y+3249395D01*
X+1397001Y+3354605D01*
X+1471395Y+3428999D01*
X+1576605Y+3428999D01*
X+1650999Y+3354605D01*
X+1650999Y+3608605D02*
X+1650999Y+3503395D01*
X+1576605Y+3429001D01*
X+1471395Y+3429001D01*
X+1397001Y+3503395D01*
X+1397001Y+3608605D01*
X+1471395Y+3682999D01*
X+1576605Y+3682999D01*
X+1650999Y+3608605D01*
X+1650999Y+3862605D02*
X+1650999Y+3757395D01*
X+1576605Y+3683001D01*
X+1471395Y+3683001D01*
X+1397001Y+3757395D01*
X+1397001Y+3862605D01*
X+1471395Y+3936999D01*
X+1576605Y+3936999D01*
X+1650999Y+3862605D01*
X+1650999Y+4116605D02*
X+1650999Y+4011395D01*
X+1576605Y+3937001D01*
X+1471395Y+3937001D01*
X+1397001Y+4011395D01*
X+1397001Y+4116605D01*
X+1471395Y+4190999D01*
X+1576605Y+4190999D01*
X+1650999Y+4116605D01*
X+1650999Y+4370605D02*
X+1650999Y+4265395D01*
X+1576605Y+4191001D01*
X+1471395Y+4191001D01*
X+1397001Y+4265395D01*
X+1397001Y+4370605D01*
X+1471395Y+4444999D01*
X+1576605Y+4444999D01*
X+1650999Y+4370605D01*
X+1650999Y+4624605D02*
X+1650999Y+4519395D01*
X+1576605Y+4445001D01*
X+1471395Y+4445001D01*
X+1397001Y+4519395D01*
X+1397001Y+4624605D01*
X+1471395Y+4698999D01*
X+1576605Y+4698999D01*
X+1650999Y+4624605D01*
X+1904999Y+4624605D02*
X+1904999Y+4519395D01*
X+1830605Y+4445001D01*
X+1725395Y+4445001D01*
X+1651001Y+4519395D01*
X+1651001Y+4624605D01*
X+1725395Y+4698999D01*
X+1830605Y+4698999D01*
X+1904999Y+4624605D01*
X+1904999Y+4878605D02*
X+1904999Y+4773395D01*
X+1830605Y+4699001D01*
X+1725395Y+4699001D01*
X+1651001Y+4773395D01*
X+1651001Y+4878605D01*
X+1725395Y+4952999D01*
X+1830605Y+4952999D01*
X+1904999Y+4878605D01*
X+1778001Y+2032001D02*
X+2009168Y+2032001D01*
X+2009168Y+1875693D01*
X+1979931Y+1846456D01*
X+1979931Y+1777999D01*
X+1960881Y+1777999D01*
X+1960881Y+1524001D01*
X+2120900Y+1524001D01*
X+2120900Y+1043842D01*
X+1993899Y+1170843D01*
X+1993899Y+1179823D01*
X+1941823Y+1231899D01*
X+1868177Y+1231899D01*
X+1816101Y+1179823D01*
X+1816101Y+1127759D01*
X+1732281Y+1127759D01*
X+1732281Y+733323D01*
X+1703605Y+761999D01*
X+1696719Y+761999D01*
X+1696719Y+1127759D01*
X+1529079Y+1127759D01*
X+1529079Y+1320799D01*
X+1500403Y+1320799D01*
X+1500405Y+1320801D01*
X+1547595Y+1320801D01*
X+1598395Y+1270001D01*
X+1703605Y+1270001D01*
X+1754405Y+1320801D01*
X+1778001Y+1320801D01*
X+1778001Y+1270001D01*
X+2031999Y+1270001D01*
X+2031999Y+1523999D01*
X+1778001Y+1523999D01*
X+1778001Y+1473199D01*
X+1754405Y+1473199D01*
X+1703605Y+1523999D01*
X+1598395Y+1523999D01*
X+1547595Y+1473199D01*
X+1500405Y+1473199D01*
X+1449605Y+1523999D01*
X+1344395Y+1523999D01*
X+1315719Y+1495323D01*
X+1315719Y+1524001D01*
X+1341119Y+1524001D01*
X+1341119Y+1574801D01*
X+1365063Y+1574801D01*
X+1452881Y+1662619D01*
X+1452881Y+1524001D01*
X+1849119Y+1524001D01*
X+1849119Y+1777999D01*
X+1473199Y+1777999D01*
X+1473199Y+1778001D01*
X+1656079Y+1778001D01*
X+1656079Y+2031999D01*
X+1452881Y+2031999D01*
X+1452881Y+1981199D01*
X+1428937Y+1981199D01*
X+1423521Y+1975783D01*
X+1423521Y+2007829D01*
X+1399349Y+2032001D01*
X+1449605Y+2032001D01*
X+1500405Y+2082801D01*
X+1547595Y+2082801D01*
X+1598395Y+2032001D01*
X+1703605Y+2032001D01*
X+1754405Y+2082801D01*
X+1778001Y+2082801D01*
X+1778001Y+2032001D01*
X+1216119Y+2105119D02*
X+1238437Y+2082801D01*
X+1293595Y+2082801D01*
X+1344395Y+2032001D01*
X+1358793Y+2032001D01*
X+1341119Y+2014327D01*
X+1341119Y+2031999D01*
X+1181100Y+2031999D01*
X+1181100Y+2140138D01*
X+1216119Y+2105119D01*
X+1320801Y+1777999D02*
X+1181100Y+1777999D01*
X+1181100Y+1778001D01*
X+1320801Y+1778001D01*
X+1320801Y+1777999D01*
X+1270001Y+687605D02*
X+1270001Y+582395D01*
X+1293597Y+558799D01*
X+1181100Y+558799D01*
X+1181100Y+711201D01*
X+1293597Y+711201D01*
X+1270001Y+687605D01*
X+1293595Y-50801D02*
X+1238437Y-50801D01*
X+1181100Y-108138D01*
X+1181100Y-50799D01*
X+1293597Y-50799D01*
X+1293595Y-50801D01*
X+1778001Y-253999D02*
X+2009133Y-253999D01*
X+2009133Y-254001D01*
X+1960881Y-254001D01*
X+1960881Y-507999D01*
X+2120900Y-507999D01*
X+2120900Y-539775D01*
X+2048587Y-539775D01*
X+1996511Y-591851D01*
X+1996511Y-665497D01*
X+2009154Y-678140D01*
X+2009154Y-762001D01*
X+1778001Y-762001D01*
X+1778001Y-1015999D01*
X+2009154Y-1015999D01*
X+2009154Y-1524001D01*
X+1910079Y-1524001D01*
X+1910079Y-1158241D01*
X+1732281Y-1158241D01*
X+1732281Y-1552677D01*
X+1703605Y-1524001D01*
X+1696719Y-1524001D01*
X+1696719Y-1158241D01*
X+1529079Y-1158241D01*
X+1529079Y-965201D01*
X+1500403Y-965201D01*
X+1523999Y-941605D01*
X+1523999Y-836395D01*
X+1449605Y-762001D01*
X+1344395Y-762001D01*
X+1270001Y-836395D01*
X+1270001Y-941605D01*
X+1293597Y-965201D01*
X+1181100Y-965201D01*
X+1181100Y-761999D01*
X+1341119Y-761999D01*
X+1341119Y-623381D01*
X+1428937Y-711199D01*
X+1452881Y-711199D01*
X+1452881Y-761999D01*
X+1656079Y-761999D01*
X+1656079Y-508001D01*
X+1473199Y-508001D01*
X+1473199Y-507999D01*
X+1849119Y-507999D01*
X+1849119Y-254001D01*
X+1452881Y-254001D01*
X+1452881Y-392619D01*
X+1365063Y-304801D01*
X+1341119Y-304801D01*
X+1341119Y-254001D01*
X+1315719Y-254001D01*
X+1315719Y-225323D01*
X+1344395Y-253999D01*
X+1449605Y-253999D01*
X+1500405Y-203199D01*
X+1547595Y-203199D01*
X+1598395Y-253999D01*
X+1703605Y-253999D01*
X+1754405Y-203199D01*
X+1778001Y-203199D01*
X+1778001Y-253999D01*
X+1524001Y-941605D02*
X+1524001Y-836395D01*
X+1598395Y-762001D01*
X+1703605Y-762001D01*
X+1777999Y-836395D01*
X+1777999Y-941605D01*
X+1703605Y-1015999D01*
X+1598395Y-1015999D01*
X+1524001Y-941605D01*
X+1320801Y-508001D02*
X+1181100Y-508001D01*
X+1181100Y-507999D01*
X+1320801Y-507999D01*
X+1320801Y-508001D01*
X+1293595Y-1574801D02*
X+1238437Y-1574801D01*
X+1181100Y-1632138D01*
X+1181100Y-1574799D01*
X+1293597Y-1574799D01*
X+1293595Y-1574801D01*
X+1778001Y-1777999D02*
X+1980520Y-1777999D01*
X+1980520Y-1778001D01*
X+1960881Y-1778001D01*
X+1960881Y-2031999D01*
X+2120900Y-2031999D01*
X+2120900Y-2628900D01*
X+1181100Y-2628900D01*
X+1181100Y-2285999D01*
X+1341119Y-2285999D01*
X+1341119Y-2032001D01*
X+1315719Y-2032001D01*
X+1315719Y-2031999D01*
X+1341119Y-2031999D01*
X+1341119Y-1778001D01*
X+1315719Y-1778001D01*
X+1315719Y-1749323D01*
X+1344395Y-1777999D01*
X+1449605Y-1777999D01*
X+1500405Y-1727199D01*
X+1547595Y-1727199D01*
X+1598395Y-1777999D01*
X+1703605Y-1777999D01*
X+1754405Y-1727199D01*
X+1778001Y-1727199D01*
X+1778001Y-1777999D01*
X+1208100Y-2528442D02*
X+1208100Y-2424558D01*
X+1281558Y-2351100D01*
X+1385442Y-2351100D01*
X+1458900Y-2424558D01*
X+1458900Y-2528442D01*
X+1385442Y-2601900D01*
X+1281558Y-2601900D01*
X+1208100Y-2528442D01*
X+1452881Y-2032001D02*
X+1656079Y-2032001D01*
X+1656079Y-2285999D01*
X+1452881Y-2285999D01*
X+1452881Y-2032001D01*
X+1849119Y-2031999D02*
X+1452881Y-2031999D01*
X+1452881Y-1778001D01*
X+1849119Y-1778001D01*
X+1849119Y-2031999D01*
D12*
X+1650999Y+5715000D02*
X+1524000Y+5715000D01*
X+1397001Y+5715000D02*
X+1524000Y+5715000D01*
X+1524000Y+5841999D02*
X+1524000Y+5715000D01*
X+1524000Y+5588001D02*
X+1524000Y+5715000D01*
X+1904999Y+5715000D02*
X+1778000Y+5715000D01*
X+1651001Y+5715000D02*
X+1778000Y+5715000D01*
X+1778000Y+5841999D02*
X+1778000Y+5715000D01*
X+1778000Y+5588001D02*
X+1778000Y+5715000D01*
X+1650999Y+5969000D02*
X+1524000Y+5969000D01*
X+1397001Y+5969000D02*
X+1524000Y+5969000D01*
X+1524000Y+6095999D02*
X+1524000Y+5969000D01*
X+1524000Y+5842001D02*
X+1524000Y+5969000D01*
X+1904999Y+5969000D02*
X+1778000Y+5969000D01*
X+1651001Y+5969000D02*
X+1778000Y+5969000D01*
X+1778000Y+6095999D02*
X+1778000Y+5969000D01*
X+1778000Y+5842001D02*
X+1778000Y+5969000D01*
X+1650999Y+6223000D02*
X+1524000Y+6223000D01*
X+1397001Y+6223000D02*
X+1524000Y+6223000D01*
X+1524000Y+6349999D02*
X+1524000Y+6223000D01*
X+1524000Y+6096001D02*
X+1524000Y+6223000D01*
X+1904999Y+6223000D02*
X+1778000Y+6223000D01*
X+1651001Y+6223000D02*
X+1778000Y+6223000D01*
X+1778000Y+6349999D02*
X+1778000Y+6223000D01*
X+1778000Y+6096001D02*
X+1778000Y+6223000D01*
X+1650999Y+3302000D02*
X+1524000Y+3302000D01*
X+1397001Y+3302000D02*
X+1524000Y+3302000D01*
X+1524000Y+3428999D02*
X+1524000Y+3302000D01*
X+1524000Y+3175001D02*
X+1524000Y+3302000D01*
X+1651001Y+3302000D02*
X+1778000Y+3302000D01*
X+1778000Y+3428999D02*
X+1778000Y+3302000D01*
X+1778000Y+3175001D02*
X+1778000Y+3302000D01*
X+1650999Y+3556000D02*
X+1524000Y+3556000D01*
X+1397001Y+3556000D02*
X+1524000Y+3556000D01*
X+1524000Y+3682999D02*
X+1524000Y+3556000D01*
X+1524000Y+3429001D02*
X+1524000Y+3556000D01*
X+1651001Y+3556000D02*
X+1778000Y+3556000D01*
X+1778000Y+3682999D02*
X+1778000Y+3556000D01*
X+1778000Y+3429001D02*
X+1778000Y+3556000D01*
X+1650999Y+3810000D02*
X+1524000Y+3810000D01*
X+1397001Y+3810000D02*
X+1524000Y+3810000D01*
X+1524000Y+3936999D02*
X+1524000Y+3810000D01*
X+1524000Y+3683001D02*
X+1524000Y+3810000D01*
X+1651001Y+3810000D02*
X+1778000Y+3810000D01*
X+1778000Y+3936999D02*
X+1778000Y+3810000D01*
X+1778000Y+3683001D02*
X+1778000Y+3810000D01*
X+1778001Y-889000D02*
X+1905000Y-889000D01*
X+1905000Y-1015999D02*
X+1905000Y-889000D01*
X+1905000Y-762001D02*
X+1905000Y-889000D01*
X+1524001Y-889000D02*
X+1651000Y-889000D01*
X+1777999Y-889000D02*
X+1651000Y-889000D01*
X+1651000Y-1015999D02*
X+1651000Y-889000D01*
X+1651000Y-762001D02*
X+1651000Y-889000D01*
X+1270001Y-889000D02*
X+1397000Y-889000D01*
X+1523999Y-889000D02*
X+1397000Y-889000D01*
X+1397000Y-762001D02*
X+1397000Y-889000D01*
X+1226820Y+711201D02*
X+1226820Y+825500D01*
X+1226820Y-50799D02*
X+1226820Y+63500D01*
X+1226820Y+558799D02*
X+1226820Y+444500D01*
X+1226820Y-1574799D02*
X+1226820Y-1460500D01*
X+1226820Y-965201D02*
X+1226820Y-1079500D01*
X+1239520Y+1778001D02*
X+1239520Y+1905000D01*
X+1239520Y+2031999D02*
X+1239520Y+1905000D01*
X+1341119Y-635000D02*
X+1239520Y-635000D01*
X+1239520Y-761999D02*
X+1239520Y-635000D01*
X+1239520Y-508001D02*
X+1239520Y-635000D01*
X+1452881Y-2159000D02*
X+1554480Y-2159000D01*
X+1656079Y-2159000D02*
X+1554480Y-2159000D01*
X+1554480Y-2285999D02*
X+1554480Y-2159000D01*
X+1554480Y-2032001D02*
X+1554480Y-2159000D01*
X+1696719Y-1460500D02*
X+1607820Y-1460500D01*
X+1696719Y+825500D02*
X+1607820Y+825500D01*
D13*
X+1143000Y-2667000D02*
X+2159000Y-2667000D01*
X+2159000Y+7239000D01*
X+1143000Y+7239000D01*
X+1143000Y-2667000D01*
X+1143000Y-2667000D01*
D10*
X+3048000Y+2159000D02*
X+2794000Y+2159000D01*
X+2540000Y+2159000D01*
X+2794000Y+1397000D02*
X+3048000Y+1397000D01*
X+2540000Y+1397000D02*
X+2794000Y+1397000D01*
X+2540000Y+2159000D02*
X+2540000Y+2382520D01*
X+2730500Y-127000D02*
X+2794000Y-127000D01*
X+2730500Y-127000D02*
X+2540000Y-127000D01*
X+2921000Y-127000D02*
X+3048000Y-127000D01*
X+2794000Y-127000D02*
X+2921000Y-127000D01*
X+3048000Y-1651000D02*
X+3048000Y-1651000D01*
X+2794000Y+635000D02*
X+2730500Y+635000D01*
X+2540000Y+635000D01*
X+3048000Y+635000D02*
X+2921000Y+635000D01*
X+2794000Y+635000D02*
X+2921000Y+635000D01*
X+3048000Y-1651000D02*
X+2900680Y-1651000D01*
X+2794000Y-1651000D02*
X+2900680Y-1651000D01*
X+2583180Y-1460500D02*
X+2583180Y-1270000D01*
X+2583180Y-1079500D01*
X+2583180Y-1270000D02*
X+2750820Y-1270000D01*
X+2964180Y-1460500D02*
X+2964180Y-1270000D01*
X+2583180Y-1460500D02*
X+2583180Y-1630680D01*
X+2603500Y-1651000D01*
X+2773680Y-1651000D01*
X+2794000Y-1651000D01*
X+2603500Y-1651000D02*
X+2540000Y-1651000D01*
X+2697480Y-1905000D02*
X+2890520Y-1905000D01*
X+2382520Y-1905000D02*
X+2382520Y-2159000D01*
X+2382520Y-381000D02*
X+2382520Y-157480D01*
X+2413000Y-127000D01*
X+2540000Y-127000D01*
X+2382520Y-1905000D02*
X+2382520Y-1681480D01*
X+2413000Y-1651000D01*
X+2540000Y-1651000D01*
X+2382520Y-381000D02*
X+2476500Y-381000D01*
X+2540000Y-444500D01*
X+2540000Y-571500D01*
X+2603500Y-635000D01*
X+2697480Y-635000D01*
X+2697480Y-381000D02*
X+2890520Y-381000D01*
X+2750820Y+254000D02*
X+2583180Y+254000D01*
X+2583180Y+444500D02*
X+2583180Y+254000D01*
X+2583180Y+63500D01*
X+2583180Y-83820D01*
X+2540000Y-127000D01*
X+2964180Y+825500D02*
X+2964180Y+1016000D01*
X+2750820Y+1016000D02*
X+2583180Y+1016000D01*
X+2583180Y+1206500D02*
X+2583180Y+1016000D01*
X+2583180Y+825500D01*
X+2583180Y+678180D01*
X+2540000Y+635000D01*
X+2382520Y+1651000D02*
X+2382520Y+1372946D01*
X+2548966Y+1206500D01*
X+2583180Y+1206500D01*
X+2382520Y+1651000D02*
X+2476500Y+1651000D01*
X+2540000Y+1714500D01*
X+2540000Y+1841500D01*
X+2603500Y+1905000D01*
X+2697480Y+1905000D01*
X+2382520Y+1905000D02*
X+2466937Y+1989417D01*
X+2522071Y+1989417D01*
X+2697480Y+1651000D02*
X+2890520Y+1651000D01*
X+2964180Y+63500D02*
X+2964180Y+254000D01*
X+2667000Y+4826000D02*
X+2413000Y+4826000D01*
X+2349500Y+4762500D01*
X+2349500Y+2667000D01*
X+2349500Y+2222500D01*
X+2413000Y+2159000D01*
X+2540000Y+2159000D01*
D11*
X+3205480Y+1651000D02*
X+3205480Y+1812263D01*
X+3234717Y+1841500D01*
X+3234717Y+4258283D01*
X+3175000Y+4318000D01*
X+2921000Y+4318000D01*
X+3111500Y+2667000D02*
X+3111500Y+2921000D01*
X+3111500Y+2984500D01*
X+3111500Y+4000500D01*
X+3048000Y+4064000D01*
X+2921000Y+4064000D01*
D10*
X+2794000Y+2382520D02*
X+2954020Y+2382520D01*
X+2984500Y+2413000D01*
X+2984500Y+2794000D01*
X+2921000Y+2857500D01*
X+2476500Y+2857500D01*
D11*
X+3048000Y+1143000D02*
X+3234682Y+956318D01*
X+3234682Y-351798D01*
X+3205480Y-381000D01*
D10*
X+2750820Y+63500D02*
X+2794000Y+63500D01*
X+2857500Y+127000D01*
X+2857500Y+381000D01*
X+2921000Y+444500D01*
X+3048000Y+444500D01*
D11*
X+3228410Y-628674D02*
X+3234703Y-634967D01*
X+3234703Y-727116D01*
X+3234703Y-1742825D01*
X+3206069Y-1771459D01*
X+3206069Y-1904411D01*
X+3205480Y-1905000D01*
D10*
X+3263900Y+4345842D02*
X+3209193Y+4400549D01*
X+3018055Y+4400549D01*
X+2973605Y+4444999D01*
X+2868395Y+4444999D01*
X+2794001Y+4370605D01*
X+2794001Y+4265395D01*
X+2868395Y+4191001D01*
X+2973605Y+4191001D01*
X+3018055Y+4235451D01*
X+3140807Y+4235451D01*
X+3152168Y+4224090D01*
X+3152168Y+4076574D01*
X+3082193Y+4146549D01*
X+3018055Y+4146549D01*
X+2973605Y+4190999D01*
X+2868395Y+4190999D01*
X+2794001Y+4116605D01*
X+2794001Y+4011395D01*
X+2868395Y+3937001D01*
X+2973605Y+3937001D01*
X+3015931Y+3979327D01*
X+3028951Y+3966307D01*
X+3028951Y+3881653D01*
X+2973605Y+3936999D01*
X+2868395Y+3936999D01*
X+2794001Y+3862605D01*
X+2794001Y+3757395D01*
X+2868395Y+3683001D01*
X+2973605Y+3683001D01*
X+3028951Y+3738347D01*
X+3028951Y+3627653D01*
X+2973605Y+3682999D01*
X+2868395Y+3682999D01*
X+2794001Y+3608605D01*
X+2794001Y+3503395D01*
X+2868395Y+3429001D01*
X+2973605Y+3429001D01*
X+3028951Y+3484347D01*
X+3028951Y+3373653D01*
X+2973605Y+3428999D01*
X+2868395Y+3428999D01*
X+2794001Y+3354605D01*
X+2794001Y+3249395D01*
X+2868395Y+3175001D01*
X+2973605Y+3175001D01*
X+3028951Y+3230347D01*
X+3028951Y+3119653D01*
X+2973605Y+3174999D01*
X+2868395Y+3174999D01*
X+2794001Y+3100605D01*
X+2794001Y+2995395D01*
X+2855697Y+2933699D01*
X+2732303Y+2933699D01*
X+2793999Y+2995395D01*
X+2793999Y+3100605D01*
X+2719605Y+3174999D01*
X+2614395Y+3174999D01*
X+2540001Y+3100605D01*
X+2540001Y+2995395D01*
X+2601697Y+2933699D01*
X+2526023Y+2933699D01*
X+2513323Y+2946399D01*
X+2439677Y+2946399D01*
X+2425699Y+2932421D01*
X+2425699Y+4730937D01*
X+2444563Y+4749801D01*
X+2563595Y+4749801D01*
X+2614395Y+4699001D01*
X+2719605Y+4699001D01*
X+2793999Y+4773395D01*
X+2793999Y+4878605D01*
X+2719605Y+4952999D01*
X+2614395Y+4952999D01*
X+2563595Y+4902199D01*
X+2381437Y+4902199D01*
X+2324100Y+4844862D01*
X+2324100Y+7200900D01*
X+3263900Y+7200900D01*
X+3263900Y+4345842D01*
X+2351100Y+6996558D02*
X+2351100Y+7100442D01*
X+2424558Y+7173900D01*
X+2528442Y+7173900D01*
X+2601900Y+7100442D01*
X+2601900Y+6996558D01*
X+2528442Y+6923100D01*
X+2424558Y+6923100D01*
X+2351100Y+6996558D01*
X+2793999Y+5513605D02*
X+2793999Y+5408395D01*
X+2719605Y+5334001D01*
X+2614395Y+5334001D01*
X+2540001Y+5408395D01*
X+2540001Y+5513605D01*
X+2614395Y+5587999D01*
X+2719605Y+5587999D01*
X+2793999Y+5513605D01*
X+3047999Y+5513605D02*
X+3047999Y+5408395D01*
X+2973605Y+5334001D01*
X+2868395Y+5334001D01*
X+2794001Y+5408395D01*
X+2794001Y+5513605D01*
X+2868395Y+5587999D01*
X+2973605Y+5587999D01*
X+3047999Y+5513605D01*
X+2793999Y+5767605D02*
X+2793999Y+5662395D01*
X+2719605Y+5588001D01*
X+2614395Y+5588001D01*
X+2540001Y+5662395D01*
X+2540001Y+5767605D01*
X+2614395Y+5841999D01*
X+2719605Y+5841999D01*
X+2793999Y+5767605D01*
X+3047999Y+5767605D02*
X+3047999Y+5662395D01*
X+2973605Y+5588001D01*
X+2868395Y+5588001D01*
X+2794001Y+5662395D01*
X+2794001Y+5767605D01*
X+2868395Y+5841999D01*
X+2973605Y+5841999D01*
X+3047999Y+5767605D01*
X+2793999Y+6021605D02*
X+2793999Y+5916395D01*
X+2719605Y+5842001D01*
X+2614395Y+5842001D01*
X+2540001Y+5916395D01*
X+2540001Y+6021605D01*
X+2614395Y+6095999D01*
X+2719605Y+6095999D01*
X+2793999Y+6021605D01*
X+3047999Y+6021605D02*
X+3047999Y+5916395D01*
X+2973605Y+5842001D01*
X+2868395Y+5842001D01*
X+2794001Y+5916395D01*
X+2794001Y+6021605D01*
X+2868395Y+6095999D01*
X+2973605Y+6095999D01*
X+3047999Y+6021605D01*
X+2793999Y+6275605D02*
X+2793999Y+6170395D01*
X+2719605Y+6096001D01*
X+2614395Y+6096001D01*
X+2540001Y+6170395D01*
X+2540001Y+6275605D01*
X+2614395Y+6349999D01*
X+2719605Y+6349999D01*
X+2793999Y+6275605D01*
X+3047999Y+6275605D02*
X+3047999Y+6170395D01*
X+2973605Y+6096001D01*
X+2868395Y+6096001D01*
X+2794001Y+6170395D01*
X+2794001Y+6275605D01*
X+2868395Y+6349999D01*
X+2973605Y+6349999D01*
X+3047999Y+6275605D01*
X+2793999Y+6529605D02*
X+2793999Y+6424395D01*
X+2719605Y+6350001D01*
X+2614395Y+6350001D01*
X+2540001Y+6424395D01*
X+2540001Y+6529605D01*
X+2614395Y+6603999D01*
X+2719605Y+6603999D01*
X+2793999Y+6529605D01*
X+3047999Y+6529605D02*
X+3047999Y+6424395D01*
X+2973605Y+6350001D01*
X+2868395Y+6350001D01*
X+2794001Y+6424395D01*
X+2794001Y+6529605D01*
X+2868395Y+6603999D01*
X+2973605Y+6603999D01*
X+3047999Y+6529605D01*
X+2793999Y+3354605D02*
X+2793999Y+3249395D01*
X+2719605Y+3175001D01*
X+2614395Y+3175001D01*
X+2540001Y+3249395D01*
X+2540001Y+3354605D01*
X+2614395Y+3428999D01*
X+2719605Y+3428999D01*
X+2793999Y+3354605D01*
X+2793999Y+3608605D02*
X+2793999Y+3503395D01*
X+2719605Y+3429001D01*
X+2614395Y+3429001D01*
X+2540001Y+3503395D01*
X+2540001Y+3608605D01*
X+2614395Y+3682999D01*
X+2719605Y+3682999D01*
X+2793999Y+3608605D01*
X+2793999Y+3862605D02*
X+2793999Y+3757395D01*
X+2719605Y+3683001D01*
X+2614395Y+3683001D01*
X+2540001Y+3757395D01*
X+2540001Y+3862605D01*
X+2614395Y+3936999D01*
X+2719605Y+3936999D01*
X+2793999Y+3862605D01*
X+2793999Y+4116605D02*
X+2793999Y+4011395D01*
X+2719605Y+3937001D01*
X+2614395Y+3937001D01*
X+2540001Y+4011395D01*
X+2540001Y+4116605D01*
X+2614395Y+4190999D01*
X+2719605Y+4190999D01*
X+2793999Y+4116605D01*
X+2793999Y+4370605D02*
X+2793999Y+4265395D01*
X+2719605Y+4191001D01*
X+2614395Y+4191001D01*
X+2540001Y+4265395D01*
X+2540001Y+4370605D01*
X+2614395Y+4444999D01*
X+2719605Y+4444999D01*
X+2793999Y+4370605D01*
X+2793999Y+4624605D02*
X+2793999Y+4519395D01*
X+2719605Y+4445001D01*
X+2614395Y+4445001D01*
X+2540001Y+4519395D01*
X+2540001Y+4624605D01*
X+2614395Y+4698999D01*
X+2719605Y+4698999D01*
X+2793999Y+4624605D01*
X+3047999Y+4624605D02*
X+3047999Y+4519395D01*
X+2973605Y+4445001D01*
X+2868395Y+4445001D01*
X+2794001Y+4519395D01*
X+2794001Y+4624605D01*
X+2868395Y+4698999D01*
X+2973605Y+4698999D01*
X+3047999Y+4624605D01*
X+3047999Y+4878605D02*
X+3047999Y+4773395D01*
X+2973605Y+4699001D01*
X+2868395Y+4699001D01*
X+2794001Y+4773395D01*
X+2794001Y+4878605D01*
X+2868395Y+4952999D01*
X+2973605Y+4952999D01*
X+3047999Y+4878605D01*
X+2921001Y+2032001D02*
X+3152168Y+2032001D01*
X+3152168Y+1875693D01*
X+3122931Y+1846456D01*
X+3122931Y+1777999D01*
X+3103881Y+1777999D01*
X+3103881Y+1524001D01*
X+3263900Y+1524001D01*
X+3263900Y+1043842D01*
X+3136899Y+1170843D01*
X+3136899Y+1179823D01*
X+3084823Y+1231899D01*
X+3011177Y+1231899D01*
X+2959101Y+1179823D01*
X+2959101Y+1127759D01*
X+2875281Y+1127759D01*
X+2875281Y+733323D01*
X+2846605Y+761999D01*
X+2839719Y+761999D01*
X+2839719Y+1127759D01*
X+2672079Y+1127759D01*
X+2672079Y+1320799D01*
X+2643403Y+1320799D01*
X+2643405Y+1320801D01*
X+2690595Y+1320801D01*
X+2741395Y+1270001D01*
X+2846605Y+1270001D01*
X+2897405Y+1320801D01*
X+2921001Y+1320801D01*
X+2921001Y+1270001D01*
X+3174999Y+1270001D01*
X+3174999Y+1523999D01*
X+2921001Y+1523999D01*
X+2921001Y+1473199D01*
X+2897405Y+1473199D01*
X+2846605Y+1523999D01*
X+2741395Y+1523999D01*
X+2690595Y+1473199D01*
X+2643405Y+1473199D01*
X+2592605Y+1523999D01*
X+2487395Y+1523999D01*
X+2458719Y+1495323D01*
X+2458719Y+1524001D01*
X+2484119Y+1524001D01*
X+2484119Y+1574801D01*
X+2508063Y+1574801D01*
X+2595881Y+1662619D01*
X+2595881Y+1524001D01*
X+2992119Y+1524001D01*
X+2992119Y+1777999D01*
X+2616199Y+1777999D01*
X+2616199Y+1778001D01*
X+2799079Y+1778001D01*
X+2799079Y+2031999D01*
X+2595881Y+2031999D01*
X+2595881Y+1981199D01*
X+2571937Y+1981199D01*
X+2566521Y+1975783D01*
X+2566521Y+2007829D01*
X+2542349Y+2032001D01*
X+2592605Y+2032001D01*
X+2643405Y+2082801D01*
X+2690595Y+2082801D01*
X+2741395Y+2032001D01*
X+2846605Y+2032001D01*
X+2897405Y+2082801D01*
X+2921001Y+2082801D01*
X+2921001Y+2032001D01*
X+2359119Y+2105119D02*
X+2381437Y+2082801D01*
X+2436595Y+2082801D01*
X+2487395Y+2032001D01*
X+2501793Y+2032001D01*
X+2484119Y+2014327D01*
X+2484119Y+2031999D01*
X+2324100Y+2031999D01*
X+2324100Y+2140138D01*
X+2359119Y+2105119D01*
X+2463801Y+1777999D02*
X+2324100Y+1777999D01*
X+2324100Y+1778001D01*
X+2463801Y+1778001D01*
X+2463801Y+1777999D01*
X+2413001Y+687605D02*
X+2413001Y+582395D01*
X+2436597Y+558799D01*
X+2324100Y+558799D01*
X+2324100Y+711201D01*
X+2436597Y+711201D01*
X+2413001Y+687605D01*
X+2436595Y-50801D02*
X+2381437Y-50801D01*
X+2324100Y-108138D01*
X+2324100Y-50799D01*
X+2436597Y-50799D01*
X+2436595Y-50801D01*
X+2921001Y-253999D02*
X+3152133Y-253999D01*
X+3152133Y-254001D01*
X+3103881Y-254001D01*
X+3103881Y-507999D01*
X+3263900Y-507999D01*
X+3263900Y-539775D01*
X+3191587Y-539775D01*
X+3139511Y-591851D01*
X+3139511Y-665497D01*
X+3152154Y-678140D01*
X+3152154Y-762001D01*
X+2921001Y-762001D01*
X+2921001Y-1015999D01*
X+3152154Y-1015999D01*
X+3152154Y-1524001D01*
X+3053079Y-1524001D01*
X+3053079Y-1158241D01*
X+2875281Y-1158241D01*
X+2875281Y-1552677D01*
X+2846605Y-1524001D01*
X+2839719Y-1524001D01*
X+2839719Y-1158241D01*
X+2672079Y-1158241D01*
X+2672079Y-965201D01*
X+2643403Y-965201D01*
X+2666999Y-941605D01*
X+2666999Y-836395D01*
X+2592605Y-762001D01*
X+2487395Y-762001D01*
X+2413001Y-836395D01*
X+2413001Y-941605D01*
X+2436597Y-965201D01*
X+2324100Y-965201D01*
X+2324100Y-761999D01*
X+2484119Y-761999D01*
X+2484119Y-623381D01*
X+2571937Y-711199D01*
X+2595881Y-711199D01*
X+2595881Y-761999D01*
X+2799079Y-761999D01*
X+2799079Y-508001D01*
X+2616199Y-508001D01*
X+2616199Y-507999D01*
X+2992119Y-507999D01*
X+2992119Y-254001D01*
X+2595881Y-254001D01*
X+2595881Y-392619D01*
X+2508063Y-304801D01*
X+2484119Y-304801D01*
X+2484119Y-254001D01*
X+2458719Y-254001D01*
X+2458719Y-225323D01*
X+2487395Y-253999D01*
X+2592605Y-253999D01*
X+2643405Y-203199D01*
X+2690595Y-203199D01*
X+2741395Y-253999D01*
X+2846605Y-253999D01*
X+2897405Y-203199D01*
X+2921001Y-203199D01*
X+2921001Y-253999D01*
X+2667001Y-941605D02*
X+2667001Y-836395D01*
X+2741395Y-762001D01*
X+2846605Y-762001D01*
X+2920999Y-836395D01*
X+2920999Y-941605D01*
X+2846605Y-1015999D01*
X+2741395Y-1015999D01*
X+2667001Y-941605D01*
X+2463801Y-508001D02*
X+2324100Y-508001D01*
X+2324100Y-507999D01*
X+2463801Y-507999D01*
X+2463801Y-508001D01*
X+2436595Y-1574801D02*
X+2381437Y-1574801D01*
X+2324100Y-1632138D01*
X+2324100Y-1574799D01*
X+2436597Y-1574799D01*
X+2436595Y-1574801D01*
X+2921001Y-1777999D02*
X+3123520Y-1777999D01*
X+3123520Y-1778001D01*
X+3103881Y-1778001D01*
X+3103881Y-2031999D01*
X+3263900Y-2031999D01*
X+3263900Y-2628900D01*
X+2324100Y-2628900D01*
X+2324100Y-2285999D01*
X+2484119Y-2285999D01*
X+2484119Y-2032001D01*
X+2458719Y-2032001D01*
X+2458719Y-2031999D01*
X+2484119Y-2031999D01*
X+2484119Y-1778001D01*
X+2458719Y-1778001D01*
X+2458719Y-1749323D01*
X+2487395Y-1777999D01*
X+2592605Y-1777999D01*
X+2643405Y-1727199D01*
X+2690595Y-1727199D01*
X+2741395Y-1777999D01*
X+2846605Y-1777999D01*
X+2897405Y-1727199D01*
X+2921001Y-1727199D01*
X+2921001Y-1777999D01*
X+2351100Y-2528442D02*
X+2351100Y-2424558D01*
X+2424558Y-2351100D01*
X+2528442Y-2351100D01*
X+2601900Y-2424558D01*
X+2601900Y-2528442D01*
X+2528442Y-2601900D01*
X+2424558Y-2601900D01*
X+2351100Y-2528442D01*
X+2595881Y-2032001D02*
X+2799079Y-2032001D01*
X+2799079Y-2285999D01*
X+2595881Y-2285999D01*
X+2595881Y-2032001D01*
X+2992119Y-2031999D02*
X+2595881Y-2031999D01*
X+2595881Y-1778001D01*
X+2992119Y-1778001D01*
X+2992119Y-2031999D01*
D12*
X+2793999Y+5715000D02*
X+2667000Y+5715000D01*
X+2540001Y+5715000D02*
X+2667000Y+5715000D01*
X+2667000Y+5841999D02*
X+2667000Y+5715000D01*
X+2667000Y+5588001D02*
X+2667000Y+5715000D01*
X+3047999Y+5715000D02*
X+2921000Y+5715000D01*
X+2794001Y+5715000D02*
X+2921000Y+5715000D01*
X+2921000Y+5841999D02*
X+2921000Y+5715000D01*
X+2921000Y+5588001D02*
X+2921000Y+5715000D01*
X+2793999Y+5969000D02*
X+2667000Y+5969000D01*
X+2540001Y+5969000D02*
X+2667000Y+5969000D01*
X+2667000Y+6095999D02*
X+2667000Y+5969000D01*
X+2667000Y+5842001D02*
X+2667000Y+5969000D01*
X+3047999Y+5969000D02*
X+2921000Y+5969000D01*
X+2794001Y+5969000D02*
X+2921000Y+5969000D01*
X+2921000Y+6095999D02*
X+2921000Y+5969000D01*
X+2921000Y+5842001D02*
X+2921000Y+5969000D01*
X+2793999Y+6223000D02*
X+2667000Y+6223000D01*
X+2540001Y+6223000D02*
X+2667000Y+6223000D01*
X+2667000Y+6349999D02*
X+2667000Y+6223000D01*
X+2667000Y+6096001D02*
X+2667000Y+6223000D01*
X+3047999Y+6223000D02*
X+2921000Y+6223000D01*
X+2794001Y+6223000D02*
X+2921000Y+6223000D01*
X+2921000Y+6349999D02*
X+2921000Y+6223000D01*
X+2921000Y+6096001D02*
X+2921000Y+6223000D01*
X+2793999Y+3302000D02*
X+2667000Y+3302000D01*
X+2540001Y+3302000D02*
X+2667000Y+3302000D01*
X+2667000Y+3428999D02*
X+2667000Y+3302000D01*
X+2667000Y+3175001D02*
X+2667000Y+3302000D01*
X+2794001Y+3302000D02*
X+2921000Y+3302000D01*
X+2921000Y+3428999D02*
X+2921000Y+3302000D01*
X+2921000Y+3175001D02*
X+2921000Y+3302000D01*
X+2793999Y+3556000D02*
X+2667000Y+3556000D01*
X+2540001Y+3556000D02*
X+2667000Y+3556000D01*
X+2667000Y+3682999D02*
X+2667000Y+3556000D01*
X+2667000Y+3429001D02*
X+2667000Y+3556000D01*
X+2794001Y+3556000D02*
X+2921000Y+3556000D01*
X+2921000Y+3682999D02*
X+2921000Y+3556000D01*
X+2921000Y+3429001D02*
X+2921000Y+3556000D01*
X+2793999Y+3810000D02*
X+2667000Y+3810000D01*
X+2540001Y+3810000D02*
X+2667000Y+3810000D01*
X+2667000Y+3936999D02*
X+2667000Y+3810000D01*
X+2667000Y+3683001D02*
X+2667000Y+3810000D01*
X+2794001Y+3810000D02*
X+2921000Y+3810000D01*
X+2921000Y+3936999D02*
X+2921000Y+3810000D01*
X+2921000Y+3683001D02*
X+2921000Y+3810000D01*
X+2921001Y-889000D02*
X+3048000Y-889000D01*
X+3048000Y-1015999D02*
X+3048000Y-889000D01*
X+3048000Y-762001D02*
X+3048000Y-889000D01*
X+2667001Y-889000D02*
X+2794000Y-889000D01*
X+2920999Y-889000D02*
X+2794000Y-889000D01*
X+2794000Y-1015999D02*
X+2794000Y-889000D01*
X+2794000Y-762001D02*
X+2794000Y-889000D01*
X+2413001Y-889000D02*
X+2540000Y-889000D01*
X+2666999Y-889000D02*
X+2540000Y-889000D01*
X+2540000Y-762001D02*
X+2540000Y-889000D01*
X+2369820Y+711201D02*
X+2369820Y+825500D01*
X+2369820Y-50799D02*
X+2369820Y+63500D01*
X+2369820Y+558799D02*
X+2369820Y+444500D01*
X+2369820Y-1574799D02*
X+2369820Y-1460500D01*
X+2369820Y-965201D02*
X+2369820Y-1079500D01*
X+2382520Y+1778001D02*
X+2382520Y+1905000D01*
X+2382520Y+2031999D02*
X+2382520Y+1905000D01*
X+2484119Y-635000D02*
X+2382520Y-635000D01*
X+2382520Y-761999D02*
X+2382520Y-635000D01*
X+2382520Y-508001D02*
X+2382520Y-635000D01*
X+2595881Y-2159000D02*
X+2697480Y-2159000D01*
X+2799079Y-2159000D02*
X+2697480Y-2159000D01*
X+2697480Y-2285999D02*
X+2697480Y-2159000D01*
X+2697480Y-2032001D02*
X+2697480Y-2159000D01*
X+2839719Y-1460500D02*
X+2750820Y-1460500D01*
X+2839719Y+825500D02*
X+2750820Y+825500D01*
D13*
X+2286000Y-2667000D02*
X+3302000Y-2667000D01*
X+3302000Y+7239000D01*
X+2286000Y+7239000D01*
X+2286000Y-2667000D01*
X+2286000Y-2667000D01*
D14*
X-3181294Y+2715892D03*
X-3351474Y-1442088D03*
X-3351474Y-1251588D03*
X-3351474Y-1061088D03*
X-3351474Y+462912D03*
X-3351474Y+272412D03*
X-3351474Y+81912D03*
X-3351474Y+843912D03*
X-3351474Y+1034412D03*
X-3351474Y+1224912D03*
X-3338774Y-616588D03*
X-3199223Y+2007829D03*
X-2927294Y+2715892D03*
X-2609794Y+2685412D03*
X-3244794Y+2875912D03*
X-2673294Y+1161412D03*
X-2673294Y+462912D03*
X-2492884Y-610262D03*
D15*
X-3244794Y+7066912D03*
X-3244794Y-2458088D03*
D16*
X-3054294Y+5479412D03*
X-2800294Y+5479412D03*
X-3054294Y+5733412D03*
X-2800294Y+5733412D03*
X-3054294Y+5987412D03*
X-2800294Y+5987412D03*
X-3054294Y+6241412D03*
X-2800294Y+6241412D03*
X-3054294Y+6495412D03*
X-2800294Y+6495412D03*
X-3054294Y+3066412D03*
X-2800294Y+3066412D03*
X-3054294Y+3320412D03*
X-2800294Y+3320412D03*
X-3054294Y+3574412D03*
X-2800294Y+3574412D03*
X-3054294Y+3828412D03*
X-2800294Y+3828412D03*
X-3054294Y+4082412D03*
X-2800294Y+4082412D03*
X-3054294Y+4336412D03*
X-2800294Y+4336412D03*
X-3054294Y+4590412D03*
X-2800294Y+4590412D03*
X-3054294Y+4844412D03*
X-2800294Y+4844412D03*
D17*
X-2673294Y+2177412D03*
D16*
X-2927294Y+2177412D03*
X-3181294Y+2177412D03*
D17*
X-2673294Y+1415412D03*
D16*
X-2927294Y+1415412D03*
X-3181294Y+1415412D03*
D17*
X-2673294Y+653412D03*
D16*
X-2927294Y+653412D03*
X-3181294Y+653412D03*
D17*
X-2673294Y-108588D03*
D16*
X-2927294Y-108588D03*
X-3181294Y-108588D03*
D17*
X-2673294Y-870588D03*
D16*
X-2927294Y-870588D03*
X-3181294Y-870588D03*
D17*
X-2673294Y-1632588D03*
D16*
X-2927294Y-1632588D03*
X-3181294Y-1632588D03*
D18*
X-3138114Y+843912D03*
X-3351474Y+843912D03*
X-3138114Y+1034412D03*
X-3351474Y+1034412D03*
X-3138114Y+1224912D03*
X-3351474Y+1224912D03*
X-3138114Y+81912D03*
X-3351474Y+81912D03*
X-3138114Y+272412D03*
X-3351474Y+272412D03*
X-3138114Y+462912D03*
X-3351474Y+462912D03*
X-3138114Y-1442088D03*
X-3351474Y-1442088D03*
X-3138114Y-1251588D03*
X-3351474Y-1251588D03*
X-3138114Y-1061088D03*
X-3351474Y-1061088D03*
D19*
X-3181294Y+2715892D03*
X-3181294Y+2400932D03*
X-2927294Y+2715892D03*
X-2927294Y+2400932D03*
D70*
X-3338774Y+1923412D03*
X-3023814Y+1923412D03*
X-3338774Y-616588D03*
X-3023814Y-616588D03*
X-3338774Y-2140588D03*
X-3023814Y-2140588D03*
X-3338774Y+1669412D03*
X-3023814Y+1669412D03*
X-3338774Y-362588D03*
X-3023814Y-362588D03*
X-3338774Y-1886588D03*
X-3023814Y-1886588D03*
X-2830774Y+1669412D03*
X-2515814Y+1669412D03*
X-2830774Y-362588D03*
X-2515814Y-362588D03*
X-2830774Y-1886588D03*
X-2515814Y-1886588D03*
D71*
X-2757114Y+81912D03*
X-2970474Y+81912D03*
D20*
X-2970474Y+1034412D03*
X-2757114Y+1034412D03*
X-2970474Y+272412D03*
X-2757114Y+272412D03*
X-2970474Y-1251588D03*
X-2757114Y-1251588D03*
D71*
X-2757114Y-1442088D03*
X-2970474Y-1442088D03*
X-2757114Y+843912D03*
X-2970474Y+843912D03*
D14*
X-2032000Y+2697480D03*
X-2202180Y-1460500D03*
X-2202180Y-1270000D03*
X-2202180Y-1079500D03*
X-2202180Y+444500D03*
X-2202180Y+254000D03*
X-2202180Y+63500D03*
X-2202180Y+825500D03*
X-2202180Y+1016000D03*
X-2202180Y+1206500D03*
X-2189480Y-635000D03*
X-2049929Y+1989417D03*
X-1778000Y+2697480D03*
X-1460500Y+2667000D03*
X-2095500Y+2857500D03*
X-1524000Y+1143000D03*
X-1524000Y+444500D03*
X-1343590Y-628674D03*
D15*
X-2095500Y+7048500D03*
X-2095500Y-2476500D03*
D16*
X-1905000Y+5461000D03*
X-1651000Y+5461000D03*
X-1905000Y+5715000D03*
X-1651000Y+5715000D03*
X-1905000Y+5969000D03*
X-1651000Y+5969000D03*
X-1905000Y+6223000D03*
X-1651000Y+6223000D03*
X-1905000Y+6477000D03*
X-1651000Y+6477000D03*
X-1905000Y+3048000D03*
X-1651000Y+3048000D03*
X-1905000Y+3302000D03*
X-1651000Y+3302000D03*
X-1905000Y+3556000D03*
X-1651000Y+3556000D03*
X-1905000Y+3810000D03*
X-1651000Y+3810000D03*
X-1905000Y+4064000D03*
X-1651000Y+4064000D03*
X-1905000Y+4318000D03*
X-1651000Y+4318000D03*
X-1905000Y+4572000D03*
X-1651000Y+4572000D03*
X-1905000Y+4826000D03*
X-1651000Y+4826000D03*
D17*
X-1524000Y+2159000D03*
D16*
X-1778000Y+2159000D03*
X-2032000Y+2159000D03*
D17*
X-1524000Y+1397000D03*
D16*
X-1778000Y+1397000D03*
X-2032000Y+1397000D03*
D17*
X-1524000Y+635000D03*
D16*
X-1778000Y+635000D03*
X-2032000Y+635000D03*
D17*
X-1524000Y-127000D03*
D16*
X-1778000Y-127000D03*
X-2032000Y-127000D03*
D17*
X-1524000Y-889000D03*
D16*
X-1778000Y-889000D03*
X-2032000Y-889000D03*
D17*
X-1524000Y-1651000D03*
D16*
X-1778000Y-1651000D03*
X-2032000Y-1651000D03*
D18*
X-1988820Y+825500D03*
X-2202180Y+825500D03*
X-1988820Y+1016000D03*
X-2202180Y+1016000D03*
X-1988820Y+1206500D03*
X-2202180Y+1206500D03*
X-1988820Y+63500D03*
X-2202180Y+63500D03*
X-1988820Y+254000D03*
X-2202180Y+254000D03*
X-1988820Y+444500D03*
X-2202180Y+444500D03*
X-1988820Y-1460500D03*
X-2202180Y-1460500D03*
X-1988820Y-1270000D03*
X-2202180Y-1270000D03*
X-1988820Y-1079500D03*
X-2202180Y-1079500D03*
D19*
X-2032000Y+2697480D03*
X-2032000Y+2382520D03*
X-1778000Y+2697480D03*
X-1778000Y+2382520D03*
D70*
X-2189480Y+1905000D03*
X-1874520Y+1905000D03*
X-2189480Y-635000D03*
X-1874520Y-635000D03*
X-2189480Y-2159000D03*
X-1874520Y-2159000D03*
X-2189480Y+1651000D03*
X-1874520Y+1651000D03*
X-2189480Y-381000D03*
X-1874520Y-381000D03*
X-2189480Y-1905000D03*
X-1874520Y-1905000D03*
X-1681480Y+1651000D03*
X-1366520Y+1651000D03*
X-1681480Y-381000D03*
X-1366520Y-381000D03*
X-1681480Y-1905000D03*
X-1366520Y-1905000D03*
D71*
X-1607820Y+63500D03*
X-1821180Y+63500D03*
D20*
X-1821180Y+1016000D03*
X-1607820Y+1016000D03*
X-1821180Y+254000D03*
X-1607820Y+254000D03*
X-1821180Y-1270000D03*
X-1607820Y-1270000D03*
D71*
X-1607820Y-1460500D03*
X-1821180Y-1460500D03*
X-1607820Y+825500D03*
X-1821180Y+825500D03*
D14*
X-889000Y+2697480D03*
X-1059180Y-1460500D03*
X-1059180Y-1270000D03*
X-1059180Y-1079500D03*
X-1059180Y+444500D03*
X-1059180Y+254000D03*
X-1059180Y+63500D03*
X-1059180Y+825500D03*
X-1059180Y+1016000D03*
X-1059180Y+1206500D03*
X-1046480Y-635000D03*
X-906929Y+1989417D03*
X-635000Y+2697480D03*
X-317500Y+2667000D03*
X-952500Y+2857500D03*
X-381000Y+1143000D03*
X-381000Y+444500D03*
X-200590Y-628674D03*
D15*
X-952500Y+7048500D03*
X-952500Y-2476500D03*
D16*
X-762000Y+5461000D03*
X-508000Y+5461000D03*
X-762000Y+5715000D03*
X-508000Y+5715000D03*
X-762000Y+5969000D03*
X-508000Y+5969000D03*
X-762000Y+6223000D03*
X-508000Y+6223000D03*
X-762000Y+6477000D03*
X-508000Y+6477000D03*
X-762000Y+3048000D03*
X-508000Y+3048000D03*
X-762000Y+3302000D03*
X-508000Y+3302000D03*
X-762000Y+3556000D03*
X-508000Y+3556000D03*
X-762000Y+3810000D03*
X-508000Y+3810000D03*
X-762000Y+4064000D03*
X-508000Y+4064000D03*
X-762000Y+4318000D03*
X-508000Y+4318000D03*
X-762000Y+4572000D03*
X-508000Y+4572000D03*
X-762000Y+4826000D03*
X-508000Y+4826000D03*
D17*
X-381000Y+2159000D03*
D16*
X-635000Y+2159000D03*
X-889000Y+2159000D03*
D17*
X-381000Y+1397000D03*
D16*
X-635000Y+1397000D03*
X-889000Y+1397000D03*
D17*
X-381000Y+635000D03*
D16*
X-635000Y+635000D03*
X-889000Y+635000D03*
D17*
X-381000Y-127000D03*
D16*
X-635000Y-127000D03*
X-889000Y-127000D03*
D17*
X-381000Y-889000D03*
D16*
X-635000Y-889000D03*
X-889000Y-889000D03*
D17*
X-381000Y-1651000D03*
D16*
X-635000Y-1651000D03*
X-889000Y-1651000D03*
D18*
X-845820Y+825500D03*
X-1059180Y+825500D03*
X-845820Y+1016000D03*
X-1059180Y+1016000D03*
X-845820Y+1206500D03*
X-1059180Y+1206500D03*
X-845820Y+63500D03*
X-1059180Y+63500D03*
X-845820Y+254000D03*
X-1059180Y+254000D03*
X-845820Y+444500D03*
X-1059180Y+444500D03*
X-845820Y-1460500D03*
X-1059180Y-1460500D03*
X-845820Y-1270000D03*
X-1059180Y-1270000D03*
X-845820Y-1079500D03*
X-1059180Y-1079500D03*
D19*
X-889000Y+2697480D03*
X-889000Y+2382520D03*
X-635000Y+2697480D03*
X-635000Y+2382520D03*
D70*
X-1046480Y+1905000D03*
X-731520Y+1905000D03*
X-1046480Y-635000D03*
X-731520Y-635000D03*
X-1046480Y-2159000D03*
X-731520Y-2159000D03*
X-1046480Y+1651000D03*
X-731520Y+1651000D03*
X-1046480Y-381000D03*
X-731520Y-381000D03*
X-1046480Y-1905000D03*
X-731520Y-1905000D03*
X-538480Y+1651000D03*
X-223520Y+1651000D03*
X-538480Y-381000D03*
X-223520Y-381000D03*
X-538480Y-1905000D03*
X-223520Y-1905000D03*
D71*
X-464820Y+63500D03*
X-678180Y+63500D03*
D20*
X-678180Y+1016000D03*
X-464820Y+1016000D03*
X-678180Y+254000D03*
X-464820Y+254000D03*
X-678180Y-1270000D03*
X-464820Y-1270000D03*
D71*
X-464820Y-1460500D03*
X-678180Y-1460500D03*
X-464820Y+825500D03*
X-678180Y+825500D03*
D14*
X+254000Y+2697480D03*
X+83820Y-1460500D03*
X+83820Y-1270000D03*
X+83820Y-1079500D03*
X+83820Y+444500D03*
X+83820Y+254000D03*
X+83820Y+63500D03*
X+83820Y+825500D03*
X+83820Y+1016000D03*
X+83820Y+1206500D03*
X+96520Y-635000D03*
X+236071Y+1989417D03*
X+508000Y+2697480D03*
X+825500Y+2667000D03*
X+190500Y+2857500D03*
X+762000Y+1143000D03*
X+762000Y+444500D03*
X+942410Y-628674D03*
D15*
X+190500Y+7048500D03*
X+190500Y-2476500D03*
D16*
X+381000Y+5461000D03*
X+635000Y+5461000D03*
X+381000Y+5715000D03*
X+635000Y+5715000D03*
X+381000Y+5969000D03*
X+635000Y+5969000D03*
X+381000Y+6223000D03*
X+635000Y+6223000D03*
X+381000Y+6477000D03*
X+635000Y+6477000D03*
X+381000Y+3048000D03*
X+635000Y+3048000D03*
X+381000Y+3302000D03*
X+635000Y+3302000D03*
X+381000Y+3556000D03*
X+635000Y+3556000D03*
X+381000Y+3810000D03*
X+635000Y+3810000D03*
X+381000Y+4064000D03*
X+635000Y+4064000D03*
X+381000Y+4318000D03*
X+635000Y+4318000D03*
X+381000Y+4572000D03*
X+635000Y+4572000D03*
X+381000Y+4826000D03*
X+635000Y+4826000D03*
D17*
X+762000Y+2159000D03*
D16*
X+508000Y+2159000D03*
X+254000Y+2159000D03*
D17*
X+762000Y+1397000D03*
D16*
X+508000Y+1397000D03*
X+254000Y+1397000D03*
D17*
X+762000Y+635000D03*
D16*
X+508000Y+635000D03*
X+254000Y+635000D03*
D17*
X+762000Y-127000D03*
D16*
X+508000Y-127000D03*
X+254000Y-127000D03*
D17*
X+762000Y-889000D03*
D16*
X+508000Y-889000D03*
X+254000Y-889000D03*
D17*
X+762000Y-1651000D03*
D16*
X+508000Y-1651000D03*
X+254000Y-1651000D03*
D18*
X+297180Y+825500D03*
X+83820Y+825500D03*
X+297180Y+1016000D03*
X+83820Y+1016000D03*
X+297180Y+1206500D03*
X+83820Y+1206500D03*
X+297180Y+63500D03*
X+83820Y+63500D03*
X+297180Y+254000D03*
X+83820Y+254000D03*
X+297180Y+444500D03*
X+83820Y+444500D03*
X+297180Y-1460500D03*
X+83820Y-1460500D03*
X+297180Y-1270000D03*
X+83820Y-1270000D03*
X+297180Y-1079500D03*
X+83820Y-1079500D03*
D19*
X+254000Y+2697480D03*
X+254000Y+2382520D03*
X+508000Y+2697480D03*
X+508000Y+2382520D03*
D70*
X+96520Y+1905000D03*
X+411480Y+1905000D03*
X+96520Y-635000D03*
X+411480Y-635000D03*
X+96520Y-2159000D03*
X+411480Y-2159000D03*
X+96520Y+1651000D03*
X+411480Y+1651000D03*
X+96520Y-381000D03*
X+411480Y-381000D03*
X+96520Y-1905000D03*
X+411480Y-1905000D03*
X+604520Y+1651000D03*
X+919480Y+1651000D03*
X+604520Y-381000D03*
X+919480Y-381000D03*
X+604520Y-1905000D03*
X+919480Y-1905000D03*
D71*
X+678180Y+63500D03*
X+464820Y+63500D03*
D20*
X+464820Y+1016000D03*
X+678180Y+1016000D03*
X+464820Y+254000D03*
X+678180Y+254000D03*
X+464820Y-1270000D03*
X+678180Y-1270000D03*
D71*
X+678180Y-1460500D03*
X+464820Y-1460500D03*
X+678180Y+825500D03*
X+464820Y+825500D03*
D14*
X+1397000Y+2697480D03*
X+1226820Y-1460500D03*
X+1226820Y-1270000D03*
X+1226820Y-1079500D03*
X+1226820Y+444500D03*
X+1226820Y+254000D03*
X+1226820Y+63500D03*
X+1226820Y+825500D03*
X+1226820Y+1016000D03*
X+1226820Y+1206500D03*
X+1239520Y-635000D03*
X+1379071Y+1989417D03*
X+1651000Y+2697480D03*
X+1968500Y+2667000D03*
X+1333500Y+2857500D03*
X+1905000Y+1143000D03*
X+1905000Y+444500D03*
X+2085410Y-628674D03*
D15*
X+1333500Y+7048500D03*
X+1333500Y-2476500D03*
D16*
X+1524000Y+5461000D03*
X+1778000Y+5461000D03*
X+1524000Y+5715000D03*
X+1778000Y+5715000D03*
X+1524000Y+5969000D03*
X+1778000Y+5969000D03*
X+1524000Y+6223000D03*
X+1778000Y+6223000D03*
X+1524000Y+6477000D03*
X+1778000Y+6477000D03*
X+1524000Y+3048000D03*
X+1778000Y+3048000D03*
X+1524000Y+3302000D03*
X+1778000Y+3302000D03*
X+1524000Y+3556000D03*
X+1778000Y+3556000D03*
X+1524000Y+3810000D03*
X+1778000Y+3810000D03*
X+1524000Y+4064000D03*
X+1778000Y+4064000D03*
X+1524000Y+4318000D03*
X+1778000Y+4318000D03*
X+1524000Y+4572000D03*
X+1778000Y+4572000D03*
X+1524000Y+4826000D03*
X+1778000Y+4826000D03*
D17*
X+1905000Y+2159000D03*
D16*
X+1651000Y+2159000D03*
X+1397000Y+2159000D03*
D17*
X+1905000Y+1397000D03*
D16*
X+1651000Y+1397000D03*
X+1397000Y+1397000D03*
D17*
X+1905000Y+635000D03*
D16*
X+1651000Y+635000D03*
X+1397000Y+635000D03*
D17*
X+1905000Y-127000D03*
D16*
X+1651000Y-127000D03*
X+1397000Y-127000D03*
D17*
X+1905000Y-889000D03*
D16*
X+1651000Y-889000D03*
X+1397000Y-889000D03*
D17*
X+1905000Y-1651000D03*
D16*
X+1651000Y-1651000D03*
X+1397000Y-1651000D03*
D18*
X+1440180Y+825500D03*
X+1226820Y+825500D03*
X+1440180Y+1016000D03*
X+1226820Y+1016000D03*
X+1440180Y+1206500D03*
X+1226820Y+1206500D03*
X+1440180Y+63500D03*
X+1226820Y+63500D03*
X+1440180Y+254000D03*
X+1226820Y+254000D03*
X+1440180Y+444500D03*
X+1226820Y+444500D03*
X+1440180Y-1460500D03*
X+1226820Y-1460500D03*
X+1440180Y-1270000D03*
X+1226820Y-1270000D03*
X+1440180Y-1079500D03*
X+1226820Y-1079500D03*
D19*
X+1397000Y+2697480D03*
X+1397000Y+2382520D03*
X+1651000Y+2697480D03*
X+1651000Y+2382520D03*
D70*
X+1239520Y+1905000D03*
X+1554480Y+1905000D03*
X+1239520Y-635000D03*
X+1554480Y-635000D03*
X+1239520Y-2159000D03*
X+1554480Y-2159000D03*
X+1239520Y+1651000D03*
X+1554480Y+1651000D03*
X+1239520Y-381000D03*
X+1554480Y-381000D03*
X+1239520Y-1905000D03*
X+1554480Y-1905000D03*
X+1747520Y+1651000D03*
X+2062480Y+1651000D03*
X+1747520Y-381000D03*
X+2062480Y-381000D03*
X+1747520Y-1905000D03*
X+2062480Y-1905000D03*
D71*
X+1821180Y+63500D03*
X+1607820Y+63500D03*
D20*
X+1607820Y+1016000D03*
X+1821180Y+1016000D03*
X+1607820Y+254000D03*
X+1821180Y+254000D03*
X+1607820Y-1270000D03*
X+1821180Y-1270000D03*
D71*
X+1821180Y-1460500D03*
X+1607820Y-1460500D03*
X+1821180Y+825500D03*
X+1607820Y+825500D03*
D14*
X+2540000Y+2697480D03*
X+2369820Y-1460500D03*
X+2369820Y-1270000D03*
X+2369820Y-1079500D03*
X+2369820Y+444500D03*
X+2369820Y+254000D03*
X+2369820Y+63500D03*
X+2369820Y+825500D03*
X+2369820Y+1016000D03*
X+2369820Y+1206500D03*
X+2382520Y-635000D03*
X+2522071Y+1989417D03*
X+2794000Y+2697480D03*
X+3111500Y+2667000D03*
X+2476500Y+2857500D03*
X+3048000Y+1143000D03*
X+3048000Y+444500D03*
X+3228410Y-628674D03*
D15*
X+2476500Y+7048500D03*
X+2476500Y-2476500D03*
D16*
X+2667000Y+5461000D03*
X+2921000Y+5461000D03*
X+2667000Y+5715000D03*
X+2921000Y+5715000D03*
X+2667000Y+5969000D03*
X+2921000Y+5969000D03*
X+2667000Y+6223000D03*
X+2921000Y+6223000D03*
X+2667000Y+6477000D03*
X+2921000Y+6477000D03*
X+2667000Y+3048000D03*
X+2921000Y+3048000D03*
X+2667000Y+3302000D03*
X+2921000Y+3302000D03*
X+2667000Y+3556000D03*
X+2921000Y+3556000D03*
X+2667000Y+3810000D03*
X+2921000Y+3810000D03*
X+2667000Y+4064000D03*
X+2921000Y+4064000D03*
X+2667000Y+4318000D03*
X+2921000Y+4318000D03*
X+2667000Y+4572000D03*
X+2921000Y+4572000D03*
X+2667000Y+4826000D03*
X+2921000Y+4826000D03*
D17*
X+3048000Y+2159000D03*
D16*
X+2794000Y+2159000D03*
X+2540000Y+2159000D03*
D17*
X+3048000Y+1397000D03*
D16*
X+2794000Y+1397000D03*
X+2540000Y+1397000D03*
D17*
X+3048000Y+635000D03*
D16*
X+2794000Y+635000D03*
X+2540000Y+635000D03*
D17*
X+3048000Y-127000D03*
D16*
X+2794000Y-127000D03*
X+2540000Y-127000D03*
D17*
X+3048000Y-889000D03*
D16*
X+2794000Y-889000D03*
X+2540000Y-889000D03*
D17*
X+3048000Y-1651000D03*
D16*
X+2794000Y-1651000D03*
X+2540000Y-1651000D03*
D18*
X+2583180Y+825500D03*
X+2369820Y+825500D03*
X+2583180Y+1016000D03*
X+2369820Y+1016000D03*
X+2583180Y+1206500D03*
X+2369820Y+1206500D03*
X+2583180Y+63500D03*
X+2369820Y+63500D03*
X+2583180Y+254000D03*
X+2369820Y+254000D03*
X+2583180Y+444500D03*
X+2369820Y+444500D03*
X+2583180Y-1460500D03*
X+2369820Y-1460500D03*
X+2583180Y-1270000D03*
X+2369820Y-1270000D03*
X+2583180Y-1079500D03*
X+2369820Y-1079500D03*
D19*
X+2540000Y+2697480D03*
X+2540000Y+2382520D03*
X+2794000Y+2697480D03*
X+2794000Y+2382520D03*
D70*
X+2382520Y+1905000D03*
X+2697480Y+1905000D03*
X+2382520Y-635000D03*
X+2697480Y-635000D03*
X+2382520Y-2159000D03*
X+2697480Y-2159000D03*
X+2382520Y+1651000D03*
X+2697480Y+1651000D03*
X+2382520Y-381000D03*
X+2697480Y-381000D03*
X+2382520Y-1905000D03*
X+2697480Y-1905000D03*
X+2890520Y+1651000D03*
X+3205480Y+1651000D03*
X+2890520Y-381000D03*
X+3205480Y-381000D03*
X+2890520Y-1905000D03*
X+3205480Y-1905000D03*
D71*
X+2964180Y+63500D03*
X+2750820Y+63500D03*
D20*
X+2750820Y+1016000D03*
X+2964180Y+1016000D03*
X+2750820Y+254000D03*
X+2964180Y+254000D03*
X+2750820Y-1270000D03*
X+2964180Y-1270000D03*
D71*
X+2964180Y-1460500D03*
X+2750820Y-1460500D03*
X+2964180Y+825500D03*
X+2750820Y+825500D03*
D13*
X-5080000Y-3302000D02*
X+5080000Y-3302000D01*
X+5080000Y+7620000D01*
X-5080000Y+7620000D01*
X-5080000Y-3302000D01*
M02*
