G04 PROTEUS RS274X GERBER FILE*
%FSLAX45Y45*%
%MOMM*%
G01*
%ADD13C,0.203200*%
G36*
X-3308294Y+6241412D02*
X-3181294Y+6241412D01*
X-3181294Y+6622412D01*
X-2673294Y+6622412D01*
X-2673294Y+5352412D01*
X-3181294Y+5352412D01*
X-3181294Y+5733412D01*
X-3308294Y+5733412D01*
X-3308294Y+5225412D01*
X-2546294Y+5225412D01*
X-2546294Y+6749412D01*
X-3308294Y+6749412D01*
X-3308294Y+6241412D01*
G37*
G36*
X-3308294Y+4209412D02*
X-3181294Y+4209412D01*
X-3181294Y+4971412D01*
X-2673294Y+4971412D01*
X-2673294Y+2939412D01*
X-3181294Y+2939412D01*
X-3181294Y+3701412D01*
X-3308294Y+3701412D01*
X-3308294Y+2812412D01*
X-2546294Y+2812412D01*
X-2546294Y+5098412D01*
X-3308294Y+5098412D01*
X-3308294Y+4209412D01*
G37*
G36*
X-3435294Y+5415912D02*
X-3435294Y+5542912D01*
X-3320995Y+5542912D01*
X-3320995Y+5415912D01*
X-3435294Y+5415912D01*
G37*
G36*
X-2533594Y+5415912D02*
X-2533594Y+5542912D01*
X-2419295Y+5542912D01*
X-2419295Y+5415912D01*
X-2533594Y+5415912D01*
G37*
G36*
X-3435294Y+3002912D02*
X-3435294Y+3129912D01*
X-3320995Y+3129912D01*
X-3320995Y+3002912D01*
X-3435294Y+3002912D01*
G37*
G36*
X-2533594Y+3002912D02*
X-2533594Y+3129912D01*
X-2419295Y+3129912D01*
X-2419295Y+3002912D01*
X-2533594Y+3002912D01*
G37*
G36*
X-2419294Y-2394588D02*
X-2419294Y-2267588D01*
X-2546294Y-2267588D01*
X-2419294Y-2394588D01*
G37*
G36*
X-2419294Y-2521588D02*
X-2673294Y-2267588D01*
X-2800294Y-2267588D01*
X-2419294Y-2648588D01*
X-2419294Y-2521588D01*
G37*
G36*
X-2546294Y-2648588D02*
X-2927294Y-2267588D01*
X-3054294Y-2267588D01*
X-2673294Y-2648588D01*
X-2546294Y-2648588D01*
G37*
G36*
X-3435294Y-2521588D02*
X-3435294Y-2648588D01*
X-3308294Y-2648588D01*
X-3435294Y-2521588D01*
G37*
G36*
X-3435294Y-2394588D02*
X-3181294Y-2648588D01*
X-3054294Y-2648588D01*
X-3435294Y-2267588D01*
X-3435294Y-2394588D01*
G37*
G36*
X-3308294Y-2267588D02*
X-2927294Y-2648588D01*
X-2800294Y-2648588D01*
X-3181294Y-2267588D01*
X-3308294Y-2267588D01*
G37*
G36*
X-2419294Y+7130412D02*
X-2419294Y+7257412D01*
X-2546294Y+7257412D01*
X-2419294Y+7130412D01*
G37*
G36*
X-2419294Y+7003412D02*
X-2673294Y+7257412D01*
X-2800294Y+7257412D01*
X-2419294Y+6876412D01*
X-2419294Y+7003412D01*
G37*
G36*
X-2546294Y+6876412D02*
X-2927294Y+7257412D01*
X-3054294Y+7257412D01*
X-2673294Y+6876412D01*
X-2546294Y+6876412D01*
G37*
G36*
X-3435294Y+7003412D02*
X-3435294Y+6876412D01*
X-3308294Y+6876412D01*
X-3435294Y+7003412D01*
G37*
G36*
X-3435294Y+7130412D02*
X-3181294Y+6876412D01*
X-3054294Y+6876412D01*
X-3435294Y+7257412D01*
X-3435294Y+7130412D01*
G37*
G36*
X-3308294Y+7257412D02*
X-2927294Y+6876412D01*
X-2800294Y+6876412D01*
X-3181294Y+7257412D01*
X-3308294Y+7257412D01*
G37*
G36*
X-2159000Y+6223000D02*
X-2032000Y+6223000D01*
X-2032000Y+6604000D01*
X-1524000Y+6604000D01*
X-1524000Y+5334000D01*
X-2032000Y+5334000D01*
X-2032000Y+5715000D01*
X-2159000Y+5715000D01*
X-2159000Y+5207000D01*
X-1397000Y+5207000D01*
X-1397000Y+6731000D01*
X-2159000Y+6731000D01*
X-2159000Y+6223000D01*
G37*
G36*
X-2159000Y+4191000D02*
X-2032000Y+4191000D01*
X-2032000Y+4953000D01*
X-1524000Y+4953000D01*
X-1524000Y+2921000D01*
X-2032000Y+2921000D01*
X-2032000Y+3683000D01*
X-2159000Y+3683000D01*
X-2159000Y+2794000D01*
X-1397000Y+2794000D01*
X-1397000Y+5080000D01*
X-2159000Y+5080000D01*
X-2159000Y+4191000D01*
G37*
G36*
X-2286000Y+5397500D02*
X-2286000Y+5524500D01*
X-2171701Y+5524500D01*
X-2171701Y+5397500D01*
X-2286000Y+5397500D01*
G37*
G36*
X-1384300Y+5397500D02*
X-1384300Y+5524500D01*
X-1270001Y+5524500D01*
X-1270001Y+5397500D01*
X-1384300Y+5397500D01*
G37*
G36*
X-2286000Y+2984500D02*
X-2286000Y+3111500D01*
X-2171701Y+3111500D01*
X-2171701Y+2984500D01*
X-2286000Y+2984500D01*
G37*
G36*
X-1384300Y+2984500D02*
X-1384300Y+3111500D01*
X-1270001Y+3111500D01*
X-1270001Y+2984500D01*
X-1384300Y+2984500D01*
G37*
G36*
X-1270000Y-2413000D02*
X-1270000Y-2286000D01*
X-1397000Y-2286000D01*
X-1270000Y-2413000D01*
G37*
G36*
X-1270000Y-2540000D02*
X-1524000Y-2286000D01*
X-1651000Y-2286000D01*
X-1270000Y-2667000D01*
X-1270000Y-2540000D01*
G37*
G36*
X-1397000Y-2667000D02*
X-1778000Y-2286000D01*
X-1905000Y-2286000D01*
X-1524000Y-2667000D01*
X-1397000Y-2667000D01*
G37*
G36*
X-2286000Y-2540000D02*
X-2286000Y-2667000D01*
X-2159000Y-2667000D01*
X-2286000Y-2540000D01*
G37*
G36*
X-2286000Y-2413000D02*
X-2032000Y-2667000D01*
X-1905000Y-2667000D01*
X-2286000Y-2286000D01*
X-2286000Y-2413000D01*
G37*
G36*
X-2159000Y-2286000D02*
X-1778000Y-2667000D01*
X-1651000Y-2667000D01*
X-2032000Y-2286000D01*
X-2159000Y-2286000D01*
G37*
G36*
X-1270000Y+7112000D02*
X-1270000Y+7239000D01*
X-1397000Y+7239000D01*
X-1270000Y+7112000D01*
G37*
G36*
X-1270000Y+6985000D02*
X-1524000Y+7239000D01*
X-1651000Y+7239000D01*
X-1270000Y+6858000D01*
X-1270000Y+6985000D01*
G37*
G36*
X-1397000Y+6858000D02*
X-1778000Y+7239000D01*
X-1905000Y+7239000D01*
X-1524000Y+6858000D01*
X-1397000Y+6858000D01*
G37*
G36*
X-2286000Y+6985000D02*
X-2286000Y+6858000D01*
X-2159000Y+6858000D01*
X-2286000Y+6985000D01*
G37*
G36*
X-2286000Y+7112000D02*
X-2032000Y+6858000D01*
X-1905000Y+6858000D01*
X-2286000Y+7239000D01*
X-2286000Y+7112000D01*
G37*
G36*
X-2159000Y+7239000D02*
X-1778000Y+6858000D01*
X-1651000Y+6858000D01*
X-2032000Y+7239000D01*
X-2159000Y+7239000D01*
G37*
G36*
X-1016000Y+6223000D02*
X-889000Y+6223000D01*
X-889000Y+6604000D01*
X-381000Y+6604000D01*
X-381000Y+5334000D01*
X-889000Y+5334000D01*
X-889000Y+5715000D01*
X-1016000Y+5715000D01*
X-1016000Y+5207000D01*
X-254000Y+5207000D01*
X-254000Y+6731000D01*
X-1016000Y+6731000D01*
X-1016000Y+6223000D01*
G37*
G36*
X-1016000Y+4191000D02*
X-889000Y+4191000D01*
X-889000Y+4953000D01*
X-381000Y+4953000D01*
X-381000Y+2921000D01*
X-889000Y+2921000D01*
X-889000Y+3683000D01*
X-1016000Y+3683000D01*
X-1016000Y+2794000D01*
X-254000Y+2794000D01*
X-254000Y+5080000D01*
X-1016000Y+5080000D01*
X-1016000Y+4191000D01*
G37*
G36*
X-1143000Y+5397500D02*
X-1143000Y+5524500D01*
X-1028701Y+5524500D01*
X-1028701Y+5397500D01*
X-1143000Y+5397500D01*
G37*
G36*
X-241300Y+5397500D02*
X-241300Y+5524500D01*
X-127001Y+5524500D01*
X-127001Y+5397500D01*
X-241300Y+5397500D01*
G37*
G36*
X-1143000Y+2984500D02*
X-1143000Y+3111500D01*
X-1028701Y+3111500D01*
X-1028701Y+2984500D01*
X-1143000Y+2984500D01*
G37*
G36*
X-241300Y+2984500D02*
X-241300Y+3111500D01*
X-127001Y+3111500D01*
X-127001Y+2984500D01*
X-241300Y+2984500D01*
G37*
G36*
X-127000Y-2413000D02*
X-127000Y-2286000D01*
X-254000Y-2286000D01*
X-127000Y-2413000D01*
G37*
G36*
X-127000Y-2540000D02*
X-381000Y-2286000D01*
X-508000Y-2286000D01*
X-127000Y-2667000D01*
X-127000Y-2540000D01*
G37*
G36*
X-254000Y-2667000D02*
X-635000Y-2286000D01*
X-762000Y-2286000D01*
X-381000Y-2667000D01*
X-254000Y-2667000D01*
G37*
G36*
X-1143000Y-2540000D02*
X-1143000Y-2667000D01*
X-1016000Y-2667000D01*
X-1143000Y-2540000D01*
G37*
G36*
X-1143000Y-2413000D02*
X-889000Y-2667000D01*
X-762000Y-2667000D01*
X-1143000Y-2286000D01*
X-1143000Y-2413000D01*
G37*
G36*
X-1016000Y-2286000D02*
X-635000Y-2667000D01*
X-508000Y-2667000D01*
X-889000Y-2286000D01*
X-1016000Y-2286000D01*
G37*
G36*
X-127000Y+7112000D02*
X-127000Y+7239000D01*
X-254000Y+7239000D01*
X-127000Y+7112000D01*
G37*
G36*
X-127000Y+6985000D02*
X-381000Y+7239000D01*
X-508000Y+7239000D01*
X-127000Y+6858000D01*
X-127000Y+6985000D01*
G37*
G36*
X-254000Y+6858000D02*
X-635000Y+7239000D01*
X-762000Y+7239000D01*
X-381000Y+6858000D01*
X-254000Y+6858000D01*
G37*
G36*
X-1143000Y+6985000D02*
X-1143000Y+6858000D01*
X-1016000Y+6858000D01*
X-1143000Y+6985000D01*
G37*
G36*
X-1143000Y+7112000D02*
X-889000Y+6858000D01*
X-762000Y+6858000D01*
X-1143000Y+7239000D01*
X-1143000Y+7112000D01*
G37*
G36*
X-1016000Y+7239000D02*
X-635000Y+6858000D01*
X-508000Y+6858000D01*
X-889000Y+7239000D01*
X-1016000Y+7239000D01*
G37*
G36*
X+127000Y+6223000D02*
X+254000Y+6223000D01*
X+254000Y+6604000D01*
X+762000Y+6604000D01*
X+762000Y+5334000D01*
X+254000Y+5334000D01*
X+254000Y+5715000D01*
X+127000Y+5715000D01*
X+127000Y+5207000D01*
X+889000Y+5207000D01*
X+889000Y+6731000D01*
X+127000Y+6731000D01*
X+127000Y+6223000D01*
G37*
G36*
X+127000Y+4191000D02*
X+254000Y+4191000D01*
X+254000Y+4953000D01*
X+762000Y+4953000D01*
X+762000Y+2921000D01*
X+254000Y+2921000D01*
X+254000Y+3683000D01*
X+127000Y+3683000D01*
X+127000Y+2794000D01*
X+889000Y+2794000D01*
X+889000Y+5080000D01*
X+127000Y+5080000D01*
X+127000Y+4191000D01*
G37*
G36*
X+0Y+5397500D02*
X+0Y+5524500D01*
X+114299Y+5524500D01*
X+114299Y+5397500D01*
X+0Y+5397500D01*
G37*
G36*
X+901700Y+5397500D02*
X+901700Y+5524500D01*
X+1015999Y+5524500D01*
X+1015999Y+5397500D01*
X+901700Y+5397500D01*
G37*
G36*
X+0Y+2984500D02*
X+0Y+3111500D01*
X+114299Y+3111500D01*
X+114299Y+2984500D01*
X+0Y+2984500D01*
G37*
G36*
X+901700Y+2984500D02*
X+901700Y+3111500D01*
X+1015999Y+3111500D01*
X+1015999Y+2984500D01*
X+901700Y+2984500D01*
G37*
G36*
X+1016000Y-2413000D02*
X+1016000Y-2286000D01*
X+889000Y-2286000D01*
X+1016000Y-2413000D01*
G37*
G36*
X+1016000Y-2540000D02*
X+762000Y-2286000D01*
X+635000Y-2286000D01*
X+1016000Y-2667000D01*
X+1016000Y-2540000D01*
G37*
G36*
X+889000Y-2667000D02*
X+508000Y-2286000D01*
X+381000Y-2286000D01*
X+762000Y-2667000D01*
X+889000Y-2667000D01*
G37*
G36*
X+0Y-2540000D02*
X+0Y-2667000D01*
X+127000Y-2667000D01*
X+0Y-2540000D01*
G37*
G36*
X+0Y-2413000D02*
X+254000Y-2667000D01*
X+381000Y-2667000D01*
X+0Y-2286000D01*
X+0Y-2413000D01*
G37*
G36*
X+127000Y-2286000D02*
X+508000Y-2667000D01*
X+635000Y-2667000D01*
X+254000Y-2286000D01*
X+127000Y-2286000D01*
G37*
G36*
X+1016000Y+7112000D02*
X+1016000Y+7239000D01*
X+889000Y+7239000D01*
X+1016000Y+7112000D01*
G37*
G36*
X+1016000Y+6985000D02*
X+762000Y+7239000D01*
X+635000Y+7239000D01*
X+1016000Y+6858000D01*
X+1016000Y+6985000D01*
G37*
G36*
X+889000Y+6858000D02*
X+508000Y+7239000D01*
X+381000Y+7239000D01*
X+762000Y+6858000D01*
X+889000Y+6858000D01*
G37*
G36*
X+0Y+6985000D02*
X+0Y+6858000D01*
X+127000Y+6858000D01*
X+0Y+6985000D01*
G37*
G36*
X+0Y+7112000D02*
X+254000Y+6858000D01*
X+381000Y+6858000D01*
X+0Y+7239000D01*
X+0Y+7112000D01*
G37*
G36*
X+127000Y+7239000D02*
X+508000Y+6858000D01*
X+635000Y+6858000D01*
X+254000Y+7239000D01*
X+127000Y+7239000D01*
G37*
G36*
X+1270000Y+6223000D02*
X+1397000Y+6223000D01*
X+1397000Y+6604000D01*
X+1905000Y+6604000D01*
X+1905000Y+5334000D01*
X+1397000Y+5334000D01*
X+1397000Y+5715000D01*
X+1270000Y+5715000D01*
X+1270000Y+5207000D01*
X+2032000Y+5207000D01*
X+2032000Y+6731000D01*
X+1270000Y+6731000D01*
X+1270000Y+6223000D01*
G37*
G36*
X+1270000Y+4191000D02*
X+1397000Y+4191000D01*
X+1397000Y+4953000D01*
X+1905000Y+4953000D01*
X+1905000Y+2921000D01*
X+1397000Y+2921000D01*
X+1397000Y+3683000D01*
X+1270000Y+3683000D01*
X+1270000Y+2794000D01*
X+2032000Y+2794000D01*
X+2032000Y+5080000D01*
X+1270000Y+5080000D01*
X+1270000Y+4191000D01*
G37*
G36*
X+1143000Y+5397500D02*
X+1143000Y+5524500D01*
X+1257299Y+5524500D01*
X+1257299Y+5397500D01*
X+1143000Y+5397500D01*
G37*
G36*
X+2044700Y+5397500D02*
X+2044700Y+5524500D01*
X+2158999Y+5524500D01*
X+2158999Y+5397500D01*
X+2044700Y+5397500D01*
G37*
G36*
X+1143000Y+2984500D02*
X+1143000Y+3111500D01*
X+1257299Y+3111500D01*
X+1257299Y+2984500D01*
X+1143000Y+2984500D01*
G37*
G36*
X+2044700Y+2984500D02*
X+2044700Y+3111500D01*
X+2158999Y+3111500D01*
X+2158999Y+2984500D01*
X+2044700Y+2984500D01*
G37*
G36*
X+2159000Y-2413000D02*
X+2159000Y-2286000D01*
X+2032000Y-2286000D01*
X+2159000Y-2413000D01*
G37*
G36*
X+2159000Y-2540000D02*
X+1905000Y-2286000D01*
X+1778000Y-2286000D01*
X+2159000Y-2667000D01*
X+2159000Y-2540000D01*
G37*
G36*
X+2032000Y-2667000D02*
X+1651000Y-2286000D01*
X+1524000Y-2286000D01*
X+1905000Y-2667000D01*
X+2032000Y-2667000D01*
G37*
G36*
X+1143000Y-2540000D02*
X+1143000Y-2667000D01*
X+1270000Y-2667000D01*
X+1143000Y-2540000D01*
G37*
G36*
X+1143000Y-2413000D02*
X+1397000Y-2667000D01*
X+1524000Y-2667000D01*
X+1143000Y-2286000D01*
X+1143000Y-2413000D01*
G37*
G36*
X+1270000Y-2286000D02*
X+1651000Y-2667000D01*
X+1778000Y-2667000D01*
X+1397000Y-2286000D01*
X+1270000Y-2286000D01*
G37*
G36*
X+2159000Y+7112000D02*
X+2159000Y+7239000D01*
X+2032000Y+7239000D01*
X+2159000Y+7112000D01*
G37*
G36*
X+2159000Y+6985000D02*
X+1905000Y+7239000D01*
X+1778000Y+7239000D01*
X+2159000Y+6858000D01*
X+2159000Y+6985000D01*
G37*
G36*
X+2032000Y+6858000D02*
X+1651000Y+7239000D01*
X+1524000Y+7239000D01*
X+1905000Y+6858000D01*
X+2032000Y+6858000D01*
G37*
G36*
X+1143000Y+6985000D02*
X+1143000Y+6858000D01*
X+1270000Y+6858000D01*
X+1143000Y+6985000D01*
G37*
G36*
X+1143000Y+7112000D02*
X+1397000Y+6858000D01*
X+1524000Y+6858000D01*
X+1143000Y+7239000D01*
X+1143000Y+7112000D01*
G37*
G36*
X+1270000Y+7239000D02*
X+1651000Y+6858000D01*
X+1778000Y+6858000D01*
X+1397000Y+7239000D01*
X+1270000Y+7239000D01*
G37*
G36*
X+2413000Y+6223000D02*
X+2540000Y+6223000D01*
X+2540000Y+6604000D01*
X+3048000Y+6604000D01*
X+3048000Y+5334000D01*
X+2540000Y+5334000D01*
X+2540000Y+5715000D01*
X+2413000Y+5715000D01*
X+2413000Y+5207000D01*
X+3175000Y+5207000D01*
X+3175000Y+6731000D01*
X+2413000Y+6731000D01*
X+2413000Y+6223000D01*
G37*
G36*
X+2413000Y+4191000D02*
X+2540000Y+4191000D01*
X+2540000Y+4953000D01*
X+3048000Y+4953000D01*
X+3048000Y+2921000D01*
X+2540000Y+2921000D01*
X+2540000Y+3683000D01*
X+2413000Y+3683000D01*
X+2413000Y+2794000D01*
X+3175000Y+2794000D01*
X+3175000Y+5080000D01*
X+2413000Y+5080000D01*
X+2413000Y+4191000D01*
G37*
G36*
X+2286000Y+5397500D02*
X+2286000Y+5524500D01*
X+2400299Y+5524500D01*
X+2400299Y+5397500D01*
X+2286000Y+5397500D01*
G37*
G36*
X+3187700Y+5397500D02*
X+3187700Y+5524500D01*
X+3301999Y+5524500D01*
X+3301999Y+5397500D01*
X+3187700Y+5397500D01*
G37*
G36*
X+2286000Y+2984500D02*
X+2286000Y+3111500D01*
X+2400299Y+3111500D01*
X+2400299Y+2984500D01*
X+2286000Y+2984500D01*
G37*
G36*
X+3187700Y+2984500D02*
X+3187700Y+3111500D01*
X+3301999Y+3111500D01*
X+3301999Y+2984500D01*
X+3187700Y+2984500D01*
G37*
G36*
X+3302000Y-2413000D02*
X+3302000Y-2286000D01*
X+3175000Y-2286000D01*
X+3302000Y-2413000D01*
G37*
G36*
X+3302000Y-2540000D02*
X+3048000Y-2286000D01*
X+2921000Y-2286000D01*
X+3302000Y-2667000D01*
X+3302000Y-2540000D01*
G37*
G36*
X+3175000Y-2667000D02*
X+2794000Y-2286000D01*
X+2667000Y-2286000D01*
X+3048000Y-2667000D01*
X+3175000Y-2667000D01*
G37*
G36*
X+2286000Y-2540000D02*
X+2286000Y-2667000D01*
X+2413000Y-2667000D01*
X+2286000Y-2540000D01*
G37*
G36*
X+2286000Y-2413000D02*
X+2540000Y-2667000D01*
X+2667000Y-2667000D01*
X+2286000Y-2286000D01*
X+2286000Y-2413000D01*
G37*
G36*
X+2413000Y-2286000D02*
X+2794000Y-2667000D01*
X+2921000Y-2667000D01*
X+2540000Y-2286000D01*
X+2413000Y-2286000D01*
G37*
G36*
X+3302000Y+7112000D02*
X+3302000Y+7239000D01*
X+3175000Y+7239000D01*
X+3302000Y+7112000D01*
G37*
G36*
X+3302000Y+6985000D02*
X+3048000Y+7239000D01*
X+2921000Y+7239000D01*
X+3302000Y+6858000D01*
X+3302000Y+6985000D01*
G37*
G36*
X+3175000Y+6858000D02*
X+2794000Y+7239000D01*
X+2667000Y+7239000D01*
X+3048000Y+6858000D01*
X+3175000Y+6858000D01*
G37*
G36*
X+2286000Y+6985000D02*
X+2286000Y+6858000D01*
X+2413000Y+6858000D01*
X+2286000Y+6985000D01*
G37*
G36*
X+2286000Y+7112000D02*
X+2540000Y+6858000D01*
X+2667000Y+6858000D01*
X+2286000Y+7239000D01*
X+2286000Y+7112000D01*
G37*
G36*
X+2413000Y+7239000D02*
X+2794000Y+6858000D01*
X+2921000Y+6858000D01*
X+2540000Y+7239000D01*
X+2413000Y+7239000D01*
G37*
D13*
X-3435294Y-2648588D02*
X-2419294Y-2648588D01*
X-2419294Y+7257412D01*
X-3435294Y+7257412D01*
X-3435294Y-2648588D01*
X-3308294Y+6241412D02*
X-3181294Y+6241412D01*
X-3181294Y+6622412D01*
X-2673294Y+6622412D01*
X-2673294Y+5352412D01*
X-3181294Y+5352412D01*
X-3181294Y+5733412D01*
X-3308294Y+5733412D01*
X-3308294Y+5225412D01*
X-2546294Y+5225412D01*
X-2546294Y+6749412D01*
X-3308294Y+6749412D01*
X-3308294Y+6241412D01*
X-2462474Y+6724012D02*
X-2452314Y+6724012D01*
X-2442154Y+6711312D01*
X-2442154Y+6660512D01*
X-2452314Y+6647812D01*
X-2503114Y+6647812D01*
X-2472634Y+6597012D02*
X-2482794Y+6609712D01*
X-2492954Y+6609712D01*
X-2503114Y+6597012D01*
X-2503114Y+6558912D01*
X-2492954Y+6546212D01*
X-2482794Y+6546212D01*
X-2472634Y+6558912D01*
X-2472634Y+6597012D01*
X-2462474Y+6609712D01*
X-2452314Y+6609712D01*
X-2442154Y+6597012D01*
X-2442154Y+6558912D01*
X-2452314Y+6546212D01*
X-2462474Y+6546212D01*
X-2472634Y+6558912D01*
X-3308294Y+4209412D02*
X-3181294Y+4209412D01*
X-3181294Y+4971412D01*
X-2673294Y+4971412D01*
X-2673294Y+2939412D01*
X-3181294Y+2939412D01*
X-3181294Y+3701412D01*
X-3308294Y+3701412D01*
X-3308294Y+2812412D01*
X-2546294Y+2812412D01*
X-2546294Y+5098412D01*
X-3308294Y+5098412D01*
X-3308294Y+4209412D01*
X-2471391Y+5073012D02*
X-2461231Y+5073012D01*
X-2451071Y+5060312D01*
X-2451071Y+5009512D01*
X-2461231Y+4996812D01*
X-2512031Y+4996812D01*
X-2512031Y+4958712D02*
X-2512031Y+4895212D01*
X-2501871Y+4895212D01*
X-2451071Y+4958712D01*
X-3308294Y+2050412D02*
X-2546294Y+2050412D01*
X-2546294Y+2304412D01*
X-3308294Y+2304412D01*
X-3308294Y+2050412D01*
X-2475174Y+2279012D02*
X-2465014Y+2279012D01*
X-2454854Y+2266312D01*
X-2454854Y+2215512D01*
X-2465014Y+2202812D01*
X-2515814Y+2202812D01*
X-2495494Y+2152012D02*
X-2515814Y+2126612D01*
X-2454854Y+2126612D01*
X-3308294Y+1288412D02*
X-2546294Y+1288412D01*
X-2546294Y+1542412D01*
X-3308294Y+1542412D01*
X-3308294Y+1288412D01*
X-2475174Y+1517012D02*
X-2465014Y+1517012D01*
X-2454854Y+1504312D01*
X-2454854Y+1453512D01*
X-2465014Y+1440812D01*
X-2515814Y+1440812D01*
X-2505654Y+1402712D02*
X-2515814Y+1390012D01*
X-2515814Y+1351912D01*
X-2505654Y+1339212D01*
X-2495494Y+1339212D01*
X-2485334Y+1351912D01*
X-2485334Y+1390012D01*
X-2475174Y+1402712D01*
X-2454854Y+1402712D01*
X-2454854Y+1339212D01*
X-3308294Y+526412D02*
X-2546294Y+526412D01*
X-2546294Y+780412D01*
X-3308294Y+780412D01*
X-3308294Y+526412D01*
X-2478938Y+755012D02*
X-2468778Y+755012D01*
X-2458618Y+742312D01*
X-2458618Y+691512D01*
X-2468778Y+678812D01*
X-2519578Y+678812D01*
X-2509418Y+640712D02*
X-2519578Y+628012D01*
X-2519578Y+589912D01*
X-2509418Y+577212D01*
X-2499258Y+577212D01*
X-2489098Y+589912D01*
X-2478938Y+577212D01*
X-2468778Y+577212D01*
X-2458618Y+589912D01*
X-2458618Y+628012D01*
X-2468778Y+640712D01*
X-2489098Y+615312D02*
X-2489098Y+589912D01*
X-3308294Y-235588D02*
X-2546294Y-235588D01*
X-2546294Y+18412D01*
X-3308294Y+18412D01*
X-3308294Y-235588D01*
X-2475174Y-6988D02*
X-2465014Y-6988D01*
X-2454854Y-19688D01*
X-2454854Y-70488D01*
X-2465014Y-83188D01*
X-2515814Y-83188D01*
X-2475174Y-184788D02*
X-2475174Y-108588D01*
X-2515814Y-159388D01*
X-2454854Y-159388D01*
X-3308294Y-997588D02*
X-2546294Y-997588D01*
X-2546294Y-743588D01*
X-3308294Y-743588D01*
X-3308294Y-997588D01*
X-2475174Y-768988D02*
X-2465014Y-768988D01*
X-2454854Y-781688D01*
X-2454854Y-832488D01*
X-2465014Y-845188D01*
X-2515814Y-845188D01*
X-2515814Y-946788D02*
X-2515814Y-883288D01*
X-2495494Y-883288D01*
X-2495494Y-934088D01*
X-2485334Y-946788D01*
X-2465014Y-946788D01*
X-2454854Y-934088D01*
X-2454854Y-895988D01*
X-2465014Y-883288D01*
X-3308294Y-1759588D02*
X-2546294Y-1759588D01*
X-2546294Y-1505588D01*
X-3308294Y-1505588D01*
X-3308294Y-1759588D01*
X-2475174Y-1530988D02*
X-2465014Y-1530988D01*
X-2454854Y-1543688D01*
X-2454854Y-1594488D01*
X-2465014Y-1607188D01*
X-2515814Y-1607188D01*
X-2505654Y-1708788D02*
X-2515814Y-1696088D01*
X-2515814Y-1657988D01*
X-2505654Y-1645288D01*
X-2465014Y-1645288D01*
X-2454854Y-1657988D01*
X-2454854Y-1696088D01*
X-2465014Y-1708788D01*
X-2475174Y-1708788D01*
X-2485334Y-1696088D01*
X-2485334Y-1645288D01*
X-2622494Y+2469512D02*
X-2673294Y+2469512D01*
X-2673294Y+2418712D01*
X-2571694Y+2418712D01*
X-2520894Y+2469512D01*
X-2520894Y+2520312D01*
X-2571694Y+2571112D01*
X-2647894Y+2571112D01*
X-2673294Y+2545712D01*
X-2724094Y+2418712D02*
X-2724094Y+2520312D01*
X-2774894Y+2571112D01*
X-2825694Y+2571112D01*
X-2876494Y+2520312D01*
X-2876494Y+2418712D01*
X-2724094Y+2469512D02*
X-2876494Y+2469512D01*
X-2927294Y+2571112D02*
X-3079694Y+2571112D01*
X-3003494Y+2571112D02*
X-3003494Y+2418712D01*
X-3282894Y+2418712D02*
X-3130494Y+2418712D01*
X-3130494Y+2571112D01*
X-3282894Y+2571112D01*
X-3130494Y+2494912D02*
X-3232094Y+2494912D01*
X-2876494Y+1682112D02*
X-2851094Y+1656712D01*
X-2774894Y+1656712D01*
X-2724094Y+1707512D01*
X-2724094Y+1758312D01*
X-2774894Y+1809112D01*
X-2851094Y+1809112D01*
X-2876494Y+1783712D01*
X-2927294Y+1809112D02*
X-2927294Y+1732912D01*
X-3003494Y+1656712D01*
X-3079694Y+1732912D01*
X-3079694Y+1809112D01*
X-2622494Y+970912D02*
X-2774894Y+970912D01*
X-2698694Y+1021712D02*
X-2698694Y+920112D01*
X-2978094Y+1047112D02*
X-2851094Y+1047112D01*
X-2851094Y+996312D01*
X-2952694Y+996312D01*
X-2978094Y+970912D01*
X-2978094Y+920112D01*
X-2952694Y+894712D01*
X-2876494Y+894712D01*
X-2851094Y+920112D01*
X-3028894Y+1047112D02*
X-3028894Y+970912D01*
X-3105094Y+894712D01*
X-3181294Y+970912D01*
X-3181294Y+1047112D01*
X-2520894Y+208912D02*
X-2673294Y+208912D01*
X-2597094Y+259712D02*
X-2597094Y+158112D01*
X-2774894Y+234312D02*
X-2825694Y+285112D01*
X-2825694Y+132712D01*
X-2952694Y+259712D02*
X-2978094Y+285112D01*
X-3054294Y+285112D01*
X-3079694Y+259712D01*
X-3079694Y+234312D01*
X-3054294Y+208912D01*
X-2978094Y+208912D01*
X-2952694Y+183512D01*
X-2952694Y+132712D01*
X-3079694Y+132712D01*
X-3130494Y+285112D02*
X-3130494Y+208912D01*
X-3206694Y+132712D01*
X-3282894Y+208912D01*
X-3282894Y+285112D01*
X-2724094Y-578488D02*
X-2774894Y-578488D01*
X-2774894Y-629288D01*
X-2673294Y-629288D01*
X-2622494Y-578488D01*
X-2622494Y-527688D01*
X-2673294Y-476888D01*
X-2749494Y-476888D01*
X-2774894Y-502288D01*
X-2825694Y-629288D02*
X-2825694Y-476888D01*
X-2978094Y-629288D01*
X-2978094Y-476888D01*
X-3028894Y-629288D02*
X-3028894Y-476888D01*
X-3130494Y-476888D01*
X-3181294Y-527688D01*
X-3181294Y-578488D01*
X-3130494Y-629288D01*
X-3028894Y-629288D01*
X-2546294Y-1315088D02*
X-2673294Y-1315088D01*
X-2774894Y-1289688D02*
X-2825694Y-1238888D01*
X-2825694Y-1391288D01*
X-2952694Y-1264288D02*
X-2978094Y-1238888D01*
X-3054294Y-1238888D01*
X-3079694Y-1264288D01*
X-3079694Y-1289688D01*
X-3054294Y-1315088D01*
X-2978094Y-1315088D01*
X-2952694Y-1340488D01*
X-2952694Y-1391288D01*
X-3079694Y-1391288D01*
X-3130494Y-1238888D02*
X-3130494Y-1315088D01*
X-3206694Y-1391288D01*
X-3282894Y-1315088D01*
X-3282894Y-1238888D01*
X-2558994Y-2216788D02*
X-2482794Y-2216788D01*
X-2482794Y-2140588D01*
X-2558994Y-2140588D01*
X-2482794Y-2178688D02*
X-2533594Y-2178688D01*
X-2660594Y-2216788D02*
X-2584394Y-2216788D01*
X-2584394Y-2140588D01*
X-2660594Y-2140588D01*
X-2584394Y-2178688D02*
X-2635194Y-2178688D01*
X-2724094Y-2165988D02*
X-2724094Y-2178688D01*
X-2724094Y-2204088D02*
X-2724094Y-2216788D01*
X-2889194Y-2204088D02*
X-2901894Y-2216788D01*
X-2952694Y-2216788D01*
X-2965394Y-2204088D01*
X-2965394Y-2191388D01*
X-2952694Y-2178688D01*
X-2901894Y-2178688D01*
X-2889194Y-2165988D01*
X-2889194Y-2153288D01*
X-2901894Y-2140588D01*
X-2952694Y-2140588D01*
X-2965394Y-2153288D01*
X-2990794Y-2140588D02*
X-2990794Y-2204088D01*
X-3003494Y-2216788D01*
X-3054294Y-2216788D01*
X-3066994Y-2204088D01*
X-3066994Y-2140588D01*
X-3092394Y-2140588D02*
X-3092394Y-2216788D01*
X-3168594Y-2140588D02*
X-3130494Y-2178688D01*
X-3168594Y-2216788D01*
X-3092394Y-2178688D02*
X-3130494Y-2178688D01*
X-3193994Y-2140588D02*
X-3193994Y-2204088D01*
X-3206694Y-2216788D01*
X-3257494Y-2216788D01*
X-3270194Y-2204088D01*
X-3270194Y-2140588D01*
X-2495494Y-1848488D02*
X-2546294Y-1848488D01*
X-2520894Y-1848488D02*
X-2520894Y-1924688D01*
X-2495494Y-1924688D02*
X-2546294Y-1924688D01*
X-2584394Y-1924688D02*
X-2584394Y-1848488D01*
X-2660594Y-1924688D01*
X-2660594Y-1848488D01*
X-2685994Y-1848488D02*
X-2762194Y-1848488D01*
X-2724094Y-1848488D02*
X-2724094Y-1924688D01*
X-2863794Y-1924688D02*
X-2787594Y-1924688D01*
X-2787594Y-1848488D01*
X-2863794Y-1848488D01*
X-2787594Y-1886588D02*
X-2838394Y-1886588D01*
X-2965394Y-1911988D02*
X-2952694Y-1924688D01*
X-2914594Y-1924688D01*
X-2889194Y-1899288D01*
X-2889194Y-1873888D01*
X-2914594Y-1848488D01*
X-2952694Y-1848488D01*
X-2965394Y-1861188D01*
X-2990794Y-1924688D02*
X-2990794Y-1848488D01*
X-3066994Y-1848488D02*
X-3066994Y-1924688D01*
X-2990794Y-1886588D02*
X-3066994Y-1886588D01*
X-2482794Y-2038988D02*
X-2495494Y-2051688D01*
X-2546294Y-2051688D01*
X-2558994Y-2038988D01*
X-2558994Y-2026288D01*
X-2546294Y-2013588D01*
X-2495494Y-2013588D01*
X-2482794Y-2000888D01*
X-2482794Y-1988188D01*
X-2495494Y-1975488D01*
X-2546294Y-1975488D01*
X-2558994Y-1988188D01*
X-2584394Y-1975488D02*
X-2660594Y-1975488D01*
X-2622494Y-1975488D02*
X-2622494Y-2051688D01*
X-2685994Y-1975488D02*
X-2685994Y-2038988D01*
X-2698694Y-2051688D01*
X-2749494Y-2051688D01*
X-2762194Y-2038988D01*
X-2762194Y-1975488D01*
X-2787594Y-2051688D02*
X-2787594Y-1975488D01*
X-2838394Y-1975488D01*
X-2863794Y-2000888D01*
X-2863794Y-2026288D01*
X-2838394Y-2051688D01*
X-2787594Y-2051688D01*
X-2901894Y-1975488D02*
X-2952694Y-1975488D01*
X-2927294Y-1975488D02*
X-2927294Y-2051688D01*
X-2901894Y-2051688D02*
X-2952694Y-2051688D01*
X-2990794Y-2000888D02*
X-3016194Y-1975488D01*
X-3041594Y-1975488D01*
X-3066994Y-2000888D01*
X-3066994Y-2026288D01*
X-3041594Y-2051688D01*
X-3016194Y-2051688D01*
X-2990794Y-2026288D01*
X-2990794Y-2000888D01*
X-2990794Y-2000888D01*
X-2286000Y-2667000D02*
X-1270000Y-2667000D01*
X-1270000Y+7239000D01*
X-2286000Y+7239000D01*
X-2286000Y-2667000D01*
X-2159000Y+6223000D02*
X-2032000Y+6223000D01*
X-2032000Y+6604000D01*
X-1524000Y+6604000D01*
X-1524000Y+5334000D01*
X-2032000Y+5334000D01*
X-2032000Y+5715000D01*
X-2159000Y+5715000D01*
X-2159000Y+5207000D01*
X-1397000Y+5207000D01*
X-1397000Y+6731000D01*
X-2159000Y+6731000D01*
X-2159000Y+6223000D01*
X-1313180Y+6705600D02*
X-1303020Y+6705600D01*
X-1292860Y+6692900D01*
X-1292860Y+6642100D01*
X-1303020Y+6629400D01*
X-1353820Y+6629400D01*
X-1323340Y+6578600D02*
X-1333500Y+6591300D01*
X-1343660Y+6591300D01*
X-1353820Y+6578600D01*
X-1353820Y+6540500D01*
X-1343660Y+6527800D01*
X-1333500Y+6527800D01*
X-1323340Y+6540500D01*
X-1323340Y+6578600D01*
X-1313180Y+6591300D01*
X-1303020Y+6591300D01*
X-1292860Y+6578600D01*
X-1292860Y+6540500D01*
X-1303020Y+6527800D01*
X-1313180Y+6527800D01*
X-1323340Y+6540500D01*
X-2159000Y+4191000D02*
X-2032000Y+4191000D01*
X-2032000Y+4953000D01*
X-1524000Y+4953000D01*
X-1524000Y+2921000D01*
X-2032000Y+2921000D01*
X-2032000Y+3683000D01*
X-2159000Y+3683000D01*
X-2159000Y+2794000D01*
X-1397000Y+2794000D01*
X-1397000Y+5080000D01*
X-2159000Y+5080000D01*
X-2159000Y+4191000D01*
X-1322097Y+5054600D02*
X-1311937Y+5054600D01*
X-1301777Y+5041900D01*
X-1301777Y+4991100D01*
X-1311937Y+4978400D01*
X-1362737Y+4978400D01*
X-1362737Y+4940300D02*
X-1362737Y+4876800D01*
X-1352577Y+4876800D01*
X-1301777Y+4940300D01*
X-2159000Y+2032000D02*
X-1397000Y+2032000D01*
X-1397000Y+2286000D01*
X-2159000Y+2286000D01*
X-2159000Y+2032000D01*
X-1325880Y+2260600D02*
X-1315720Y+2260600D01*
X-1305560Y+2247900D01*
X-1305560Y+2197100D01*
X-1315720Y+2184400D01*
X-1366520Y+2184400D01*
X-1346200Y+2133600D02*
X-1366520Y+2108200D01*
X-1305560Y+2108200D01*
X-2159000Y+1270000D02*
X-1397000Y+1270000D01*
X-1397000Y+1524000D01*
X-2159000Y+1524000D01*
X-2159000Y+1270000D01*
X-1325880Y+1498600D02*
X-1315720Y+1498600D01*
X-1305560Y+1485900D01*
X-1305560Y+1435100D01*
X-1315720Y+1422400D01*
X-1366520Y+1422400D01*
X-1356360Y+1384300D02*
X-1366520Y+1371600D01*
X-1366520Y+1333500D01*
X-1356360Y+1320800D01*
X-1346200Y+1320800D01*
X-1336040Y+1333500D01*
X-1336040Y+1371600D01*
X-1325880Y+1384300D01*
X-1305560Y+1384300D01*
X-1305560Y+1320800D01*
X-2159000Y+508000D02*
X-1397000Y+508000D01*
X-1397000Y+762000D01*
X-2159000Y+762000D01*
X-2159000Y+508000D01*
X-1329644Y+736600D02*
X-1319484Y+736600D01*
X-1309324Y+723900D01*
X-1309324Y+673100D01*
X-1319484Y+660400D01*
X-1370284Y+660400D01*
X-1360124Y+622300D02*
X-1370284Y+609600D01*
X-1370284Y+571500D01*
X-1360124Y+558800D01*
X-1349964Y+558800D01*
X-1339804Y+571500D01*
X-1329644Y+558800D01*
X-1319484Y+558800D01*
X-1309324Y+571500D01*
X-1309324Y+609600D01*
X-1319484Y+622300D01*
X-1339804Y+596900D02*
X-1339804Y+571500D01*
X-2159000Y-254000D02*
X-1397000Y-254000D01*
X-1397000Y+0D01*
X-2159000Y+0D01*
X-2159000Y-254000D01*
X-1325880Y-25400D02*
X-1315720Y-25400D01*
X-1305560Y-38100D01*
X-1305560Y-88900D01*
X-1315720Y-101600D01*
X-1366520Y-101600D01*
X-1325880Y-203200D02*
X-1325880Y-127000D01*
X-1366520Y-177800D01*
X-1305560Y-177800D01*
X-2159000Y-1016000D02*
X-1397000Y-1016000D01*
X-1397000Y-762000D01*
X-2159000Y-762000D01*
X-2159000Y-1016000D01*
X-1325880Y-787400D02*
X-1315720Y-787400D01*
X-1305560Y-800100D01*
X-1305560Y-850900D01*
X-1315720Y-863600D01*
X-1366520Y-863600D01*
X-1366520Y-965200D02*
X-1366520Y-901700D01*
X-1346200Y-901700D01*
X-1346200Y-952500D01*
X-1336040Y-965200D01*
X-1315720Y-965200D01*
X-1305560Y-952500D01*
X-1305560Y-914400D01*
X-1315720Y-901700D01*
X-2159000Y-1778000D02*
X-1397000Y-1778000D01*
X-1397000Y-1524000D01*
X-2159000Y-1524000D01*
X-2159000Y-1778000D01*
X-1325880Y-1549400D02*
X-1315720Y-1549400D01*
X-1305560Y-1562100D01*
X-1305560Y-1612900D01*
X-1315720Y-1625600D01*
X-1366520Y-1625600D01*
X-1356360Y-1727200D02*
X-1366520Y-1714500D01*
X-1366520Y-1676400D01*
X-1356360Y-1663700D01*
X-1315720Y-1663700D01*
X-1305560Y-1676400D01*
X-1305560Y-1714500D01*
X-1315720Y-1727200D01*
X-1325880Y-1727200D01*
X-1336040Y-1714500D01*
X-1336040Y-1663700D01*
X-1473200Y+2451100D02*
X-1524000Y+2451100D01*
X-1524000Y+2400300D01*
X-1422400Y+2400300D01*
X-1371600Y+2451100D01*
X-1371600Y+2501900D01*
X-1422400Y+2552700D01*
X-1498600Y+2552700D01*
X-1524000Y+2527300D01*
X-1574800Y+2400300D02*
X-1574800Y+2501900D01*
X-1625600Y+2552700D01*
X-1676400Y+2552700D01*
X-1727200Y+2501900D01*
X-1727200Y+2400300D01*
X-1574800Y+2451100D02*
X-1727200Y+2451100D01*
X-1778000Y+2552700D02*
X-1930400Y+2552700D01*
X-1854200Y+2552700D02*
X-1854200Y+2400300D01*
X-2133600Y+2400300D02*
X-1981200Y+2400300D01*
X-1981200Y+2552700D01*
X-2133600Y+2552700D01*
X-1981200Y+2476500D02*
X-2082800Y+2476500D01*
X-1727200Y+1663700D02*
X-1701800Y+1638300D01*
X-1625600Y+1638300D01*
X-1574800Y+1689100D01*
X-1574800Y+1739900D01*
X-1625600Y+1790700D01*
X-1701800Y+1790700D01*
X-1727200Y+1765300D01*
X-1778000Y+1790700D02*
X-1778000Y+1714500D01*
X-1854200Y+1638300D01*
X-1930400Y+1714500D01*
X-1930400Y+1790700D01*
X-1473200Y+952500D02*
X-1625600Y+952500D01*
X-1549400Y+1003300D02*
X-1549400Y+901700D01*
X-1828800Y+1028700D02*
X-1701800Y+1028700D01*
X-1701800Y+977900D01*
X-1803400Y+977900D01*
X-1828800Y+952500D01*
X-1828800Y+901700D01*
X-1803400Y+876300D01*
X-1727200Y+876300D01*
X-1701800Y+901700D01*
X-1879600Y+1028700D02*
X-1879600Y+952500D01*
X-1955800Y+876300D01*
X-2032000Y+952500D01*
X-2032000Y+1028700D01*
X-1371600Y+190500D02*
X-1524000Y+190500D01*
X-1447800Y+241300D02*
X-1447800Y+139700D01*
X-1625600Y+215900D02*
X-1676400Y+266700D01*
X-1676400Y+114300D01*
X-1803400Y+241300D02*
X-1828800Y+266700D01*
X-1905000Y+266700D01*
X-1930400Y+241300D01*
X-1930400Y+215900D01*
X-1905000Y+190500D01*
X-1828800Y+190500D01*
X-1803400Y+165100D01*
X-1803400Y+114300D01*
X-1930400Y+114300D01*
X-1981200Y+266700D02*
X-1981200Y+190500D01*
X-2057400Y+114300D01*
X-2133600Y+190500D01*
X-2133600Y+266700D01*
X-1574800Y-596900D02*
X-1625600Y-596900D01*
X-1625600Y-647700D01*
X-1524000Y-647700D01*
X-1473200Y-596900D01*
X-1473200Y-546100D01*
X-1524000Y-495300D01*
X-1600200Y-495300D01*
X-1625600Y-520700D01*
X-1676400Y-647700D02*
X-1676400Y-495300D01*
X-1828800Y-647700D01*
X-1828800Y-495300D01*
X-1879600Y-647700D02*
X-1879600Y-495300D01*
X-1981200Y-495300D01*
X-2032000Y-546100D01*
X-2032000Y-596900D01*
X-1981200Y-647700D01*
X-1879600Y-647700D01*
X-1397000Y-1333500D02*
X-1524000Y-1333500D01*
X-1625600Y-1308100D02*
X-1676400Y-1257300D01*
X-1676400Y-1409700D01*
X-1803400Y-1282700D02*
X-1828800Y-1257300D01*
X-1905000Y-1257300D01*
X-1930400Y-1282700D01*
X-1930400Y-1308100D01*
X-1905000Y-1333500D01*
X-1828800Y-1333500D01*
X-1803400Y-1358900D01*
X-1803400Y-1409700D01*
X-1930400Y-1409700D01*
X-1981200Y-1257300D02*
X-1981200Y-1333500D01*
X-2057400Y-1409700D01*
X-2133600Y-1333500D01*
X-2133600Y-1257300D01*
X-1409700Y-2235200D02*
X-1333500Y-2235200D01*
X-1333500Y-2159000D01*
X-1409700Y-2159000D01*
X-1333500Y-2197100D02*
X-1384300Y-2197100D01*
X-1511300Y-2235200D02*
X-1435100Y-2235200D01*
X-1435100Y-2159000D01*
X-1511300Y-2159000D01*
X-1435100Y-2197100D02*
X-1485900Y-2197100D01*
X-1574800Y-2184400D02*
X-1574800Y-2197100D01*
X-1574800Y-2222500D02*
X-1574800Y-2235200D01*
X-1739900Y-2222500D02*
X-1752600Y-2235200D01*
X-1803400Y-2235200D01*
X-1816100Y-2222500D01*
X-1816100Y-2209800D01*
X-1803400Y-2197100D01*
X-1752600Y-2197100D01*
X-1739900Y-2184400D01*
X-1739900Y-2171700D01*
X-1752600Y-2159000D01*
X-1803400Y-2159000D01*
X-1816100Y-2171700D01*
X-1841500Y-2159000D02*
X-1841500Y-2222500D01*
X-1854200Y-2235200D01*
X-1905000Y-2235200D01*
X-1917700Y-2222500D01*
X-1917700Y-2159000D01*
X-1943100Y-2159000D02*
X-1943100Y-2235200D01*
X-2019300Y-2159000D02*
X-1981200Y-2197100D01*
X-2019300Y-2235200D01*
X-1943100Y-2197100D02*
X-1981200Y-2197100D01*
X-2044700Y-2159000D02*
X-2044700Y-2222500D01*
X-2057400Y-2235200D01*
X-2108200Y-2235200D01*
X-2120900Y-2222500D01*
X-2120900Y-2159000D01*
X-1346200Y-1866900D02*
X-1397000Y-1866900D01*
X-1371600Y-1866900D02*
X-1371600Y-1943100D01*
X-1346200Y-1943100D02*
X-1397000Y-1943100D01*
X-1435100Y-1943100D02*
X-1435100Y-1866900D01*
X-1511300Y-1943100D01*
X-1511300Y-1866900D01*
X-1536700Y-1866900D02*
X-1612900Y-1866900D01*
X-1574800Y-1866900D02*
X-1574800Y-1943100D01*
X-1714500Y-1943100D02*
X-1638300Y-1943100D01*
X-1638300Y-1866900D01*
X-1714500Y-1866900D01*
X-1638300Y-1905000D02*
X-1689100Y-1905000D01*
X-1816100Y-1930400D02*
X-1803400Y-1943100D01*
X-1765300Y-1943100D01*
X-1739900Y-1917700D01*
X-1739900Y-1892300D01*
X-1765300Y-1866900D01*
X-1803400Y-1866900D01*
X-1816100Y-1879600D01*
X-1841500Y-1943100D02*
X-1841500Y-1866900D01*
X-1917700Y-1866900D02*
X-1917700Y-1943100D01*
X-1841500Y-1905000D02*
X-1917700Y-1905000D01*
X-1333500Y-2057400D02*
X-1346200Y-2070100D01*
X-1397000Y-2070100D01*
X-1409700Y-2057400D01*
X-1409700Y-2044700D01*
X-1397000Y-2032000D01*
X-1346200Y-2032000D01*
X-1333500Y-2019300D01*
X-1333500Y-2006600D01*
X-1346200Y-1993900D01*
X-1397000Y-1993900D01*
X-1409700Y-2006600D01*
X-1435100Y-1993900D02*
X-1511300Y-1993900D01*
X-1473200Y-1993900D02*
X-1473200Y-2070100D01*
X-1536700Y-1993900D02*
X-1536700Y-2057400D01*
X-1549400Y-2070100D01*
X-1600200Y-2070100D01*
X-1612900Y-2057400D01*
X-1612900Y-1993900D01*
X-1638300Y-2070100D02*
X-1638300Y-1993900D01*
X-1689100Y-1993900D01*
X-1714500Y-2019300D01*
X-1714500Y-2044700D01*
X-1689100Y-2070100D01*
X-1638300Y-2070100D01*
X-1752600Y-1993900D02*
X-1803400Y-1993900D01*
X-1778000Y-1993900D02*
X-1778000Y-2070100D01*
X-1752600Y-2070100D02*
X-1803400Y-2070100D01*
X-1841500Y-2019300D02*
X-1866900Y-1993900D01*
X-1892300Y-1993900D01*
X-1917700Y-2019300D01*
X-1917700Y-2044700D01*
X-1892300Y-2070100D01*
X-1866900Y-2070100D01*
X-1841500Y-2044700D01*
X-1841500Y-2019300D01*
X-1841500Y-2019300D01*
X-1143000Y-2667000D02*
X-127000Y-2667000D01*
X-127000Y+7239000D01*
X-1143000Y+7239000D01*
X-1143000Y-2667000D01*
X-1016000Y+6223000D02*
X-889000Y+6223000D01*
X-889000Y+6604000D01*
X-381000Y+6604000D01*
X-381000Y+5334000D01*
X-889000Y+5334000D01*
X-889000Y+5715000D01*
X-1016000Y+5715000D01*
X-1016000Y+5207000D01*
X-254000Y+5207000D01*
X-254000Y+6731000D01*
X-1016000Y+6731000D01*
X-1016000Y+6223000D01*
X-170180Y+6705600D02*
X-160020Y+6705600D01*
X-149860Y+6692900D01*
X-149860Y+6642100D01*
X-160020Y+6629400D01*
X-210820Y+6629400D01*
X-180340Y+6578600D02*
X-190500Y+6591300D01*
X-200660Y+6591300D01*
X-210820Y+6578600D01*
X-210820Y+6540500D01*
X-200660Y+6527800D01*
X-190500Y+6527800D01*
X-180340Y+6540500D01*
X-180340Y+6578600D01*
X-170180Y+6591300D01*
X-160020Y+6591300D01*
X-149860Y+6578600D01*
X-149860Y+6540500D01*
X-160020Y+6527800D01*
X-170180Y+6527800D01*
X-180340Y+6540500D01*
X-1016000Y+4191000D02*
X-889000Y+4191000D01*
X-889000Y+4953000D01*
X-381000Y+4953000D01*
X-381000Y+2921000D01*
X-889000Y+2921000D01*
X-889000Y+3683000D01*
X-1016000Y+3683000D01*
X-1016000Y+2794000D01*
X-254000Y+2794000D01*
X-254000Y+5080000D01*
X-1016000Y+5080000D01*
X-1016000Y+4191000D01*
X-179097Y+5054600D02*
X-168937Y+5054600D01*
X-158777Y+5041900D01*
X-158777Y+4991100D01*
X-168937Y+4978400D01*
X-219737Y+4978400D01*
X-219737Y+4940300D02*
X-219737Y+4876800D01*
X-209577Y+4876800D01*
X-158777Y+4940300D01*
X-1016000Y+2032000D02*
X-254000Y+2032000D01*
X-254000Y+2286000D01*
X-1016000Y+2286000D01*
X-1016000Y+2032000D01*
X-182880Y+2260600D02*
X-172720Y+2260600D01*
X-162560Y+2247900D01*
X-162560Y+2197100D01*
X-172720Y+2184400D01*
X-223520Y+2184400D01*
X-203200Y+2133600D02*
X-223520Y+2108200D01*
X-162560Y+2108200D01*
X-1016000Y+1270000D02*
X-254000Y+1270000D01*
X-254000Y+1524000D01*
X-1016000Y+1524000D01*
X-1016000Y+1270000D01*
X-182880Y+1498600D02*
X-172720Y+1498600D01*
X-162560Y+1485900D01*
X-162560Y+1435100D01*
X-172720Y+1422400D01*
X-223520Y+1422400D01*
X-213360Y+1384300D02*
X-223520Y+1371600D01*
X-223520Y+1333500D01*
X-213360Y+1320800D01*
X-203200Y+1320800D01*
X-193040Y+1333500D01*
X-193040Y+1371600D01*
X-182880Y+1384300D01*
X-162560Y+1384300D01*
X-162560Y+1320800D01*
X-1016000Y+508000D02*
X-254000Y+508000D01*
X-254000Y+762000D01*
X-1016000Y+762000D01*
X-1016000Y+508000D01*
X-186644Y+736600D02*
X-176484Y+736600D01*
X-166324Y+723900D01*
X-166324Y+673100D01*
X-176484Y+660400D01*
X-227284Y+660400D01*
X-217124Y+622300D02*
X-227284Y+609600D01*
X-227284Y+571500D01*
X-217124Y+558800D01*
X-206964Y+558800D01*
X-196804Y+571500D01*
X-186644Y+558800D01*
X-176484Y+558800D01*
X-166324Y+571500D01*
X-166324Y+609600D01*
X-176484Y+622300D01*
X-196804Y+596900D02*
X-196804Y+571500D01*
X-1016000Y-254000D02*
X-254000Y-254000D01*
X-254000Y+0D01*
X-1016000Y+0D01*
X-1016000Y-254000D01*
X-182880Y-25400D02*
X-172720Y-25400D01*
X-162560Y-38100D01*
X-162560Y-88900D01*
X-172720Y-101600D01*
X-223520Y-101600D01*
X-182880Y-203200D02*
X-182880Y-127000D01*
X-223520Y-177800D01*
X-162560Y-177800D01*
X-1016000Y-1016000D02*
X-254000Y-1016000D01*
X-254000Y-762000D01*
X-1016000Y-762000D01*
X-1016000Y-1016000D01*
X-182880Y-787400D02*
X-172720Y-787400D01*
X-162560Y-800100D01*
X-162560Y-850900D01*
X-172720Y-863600D01*
X-223520Y-863600D01*
X-223520Y-965200D02*
X-223520Y-901700D01*
X-203200Y-901700D01*
X-203200Y-952500D01*
X-193040Y-965200D01*
X-172720Y-965200D01*
X-162560Y-952500D01*
X-162560Y-914400D01*
X-172720Y-901700D01*
X-1016000Y-1778000D02*
X-254000Y-1778000D01*
X-254000Y-1524000D01*
X-1016000Y-1524000D01*
X-1016000Y-1778000D01*
X-182880Y-1549400D02*
X-172720Y-1549400D01*
X-162560Y-1562100D01*
X-162560Y-1612900D01*
X-172720Y-1625600D01*
X-223520Y-1625600D01*
X-213360Y-1727200D02*
X-223520Y-1714500D01*
X-223520Y-1676400D01*
X-213360Y-1663700D01*
X-172720Y-1663700D01*
X-162560Y-1676400D01*
X-162560Y-1714500D01*
X-172720Y-1727200D01*
X-182880Y-1727200D01*
X-193040Y-1714500D01*
X-193040Y-1663700D01*
X-330200Y+2451100D02*
X-381000Y+2451100D01*
X-381000Y+2400300D01*
X-279400Y+2400300D01*
X-228600Y+2451100D01*
X-228600Y+2501900D01*
X-279400Y+2552700D01*
X-355600Y+2552700D01*
X-381000Y+2527300D01*
X-431800Y+2400300D02*
X-431800Y+2501900D01*
X-482600Y+2552700D01*
X-533400Y+2552700D01*
X-584200Y+2501900D01*
X-584200Y+2400300D01*
X-431800Y+2451100D02*
X-584200Y+2451100D01*
X-635000Y+2552700D02*
X-787400Y+2552700D01*
X-711200Y+2552700D02*
X-711200Y+2400300D01*
X-990600Y+2400300D02*
X-838200Y+2400300D01*
X-838200Y+2552700D01*
X-990600Y+2552700D01*
X-838200Y+2476500D02*
X-939800Y+2476500D01*
X-584200Y+1663700D02*
X-558800Y+1638300D01*
X-482600Y+1638300D01*
X-431800Y+1689100D01*
X-431800Y+1739900D01*
X-482600Y+1790700D01*
X-558800Y+1790700D01*
X-584200Y+1765300D01*
X-635000Y+1790700D02*
X-635000Y+1714500D01*
X-711200Y+1638300D01*
X-787400Y+1714500D01*
X-787400Y+1790700D01*
X-330200Y+952500D02*
X-482600Y+952500D01*
X-406400Y+1003300D02*
X-406400Y+901700D01*
X-685800Y+1028700D02*
X-558800Y+1028700D01*
X-558800Y+977900D01*
X-660400Y+977900D01*
X-685800Y+952500D01*
X-685800Y+901700D01*
X-660400Y+876300D01*
X-584200Y+876300D01*
X-558800Y+901700D01*
X-736600Y+1028700D02*
X-736600Y+952500D01*
X-812800Y+876300D01*
X-889000Y+952500D01*
X-889000Y+1028700D01*
X-228600Y+190500D02*
X-381000Y+190500D01*
X-304800Y+241300D02*
X-304800Y+139700D01*
X-482600Y+215900D02*
X-533400Y+266700D01*
X-533400Y+114300D01*
X-660400Y+241300D02*
X-685800Y+266700D01*
X-762000Y+266700D01*
X-787400Y+241300D01*
X-787400Y+215900D01*
X-762000Y+190500D01*
X-685800Y+190500D01*
X-660400Y+165100D01*
X-660400Y+114300D01*
X-787400Y+114300D01*
X-838200Y+266700D02*
X-838200Y+190500D01*
X-914400Y+114300D01*
X-990600Y+190500D01*
X-990600Y+266700D01*
X-431800Y-596900D02*
X-482600Y-596900D01*
X-482600Y-647700D01*
X-381000Y-647700D01*
X-330200Y-596900D01*
X-330200Y-546100D01*
X-381000Y-495300D01*
X-457200Y-495300D01*
X-482600Y-520700D01*
X-533400Y-647700D02*
X-533400Y-495300D01*
X-685800Y-647700D01*
X-685800Y-495300D01*
X-736600Y-647700D02*
X-736600Y-495300D01*
X-838200Y-495300D01*
X-889000Y-546100D01*
X-889000Y-596900D01*
X-838200Y-647700D01*
X-736600Y-647700D01*
X-254000Y-1333500D02*
X-381000Y-1333500D01*
X-482600Y-1308100D02*
X-533400Y-1257300D01*
X-533400Y-1409700D01*
X-660400Y-1282700D02*
X-685800Y-1257300D01*
X-762000Y-1257300D01*
X-787400Y-1282700D01*
X-787400Y-1308100D01*
X-762000Y-1333500D01*
X-685800Y-1333500D01*
X-660400Y-1358900D01*
X-660400Y-1409700D01*
X-787400Y-1409700D01*
X-838200Y-1257300D02*
X-838200Y-1333500D01*
X-914400Y-1409700D01*
X-990600Y-1333500D01*
X-990600Y-1257300D01*
X-266700Y-2235200D02*
X-190500Y-2235200D01*
X-190500Y-2159000D01*
X-266700Y-2159000D01*
X-190500Y-2197100D02*
X-241300Y-2197100D01*
X-368300Y-2235200D02*
X-292100Y-2235200D01*
X-292100Y-2159000D01*
X-368300Y-2159000D01*
X-292100Y-2197100D02*
X-342900Y-2197100D01*
X-431800Y-2184400D02*
X-431800Y-2197100D01*
X-431800Y-2222500D02*
X-431800Y-2235200D01*
X-596900Y-2222500D02*
X-609600Y-2235200D01*
X-660400Y-2235200D01*
X-673100Y-2222500D01*
X-673100Y-2209800D01*
X-660400Y-2197100D01*
X-609600Y-2197100D01*
X-596900Y-2184400D01*
X-596900Y-2171700D01*
X-609600Y-2159000D01*
X-660400Y-2159000D01*
X-673100Y-2171700D01*
X-698500Y-2159000D02*
X-698500Y-2222500D01*
X-711200Y-2235200D01*
X-762000Y-2235200D01*
X-774700Y-2222500D01*
X-774700Y-2159000D01*
X-800100Y-2159000D02*
X-800100Y-2235200D01*
X-876300Y-2159000D02*
X-838200Y-2197100D01*
X-876300Y-2235200D01*
X-800100Y-2197100D02*
X-838200Y-2197100D01*
X-901700Y-2159000D02*
X-901700Y-2222500D01*
X-914400Y-2235200D01*
X-965200Y-2235200D01*
X-977900Y-2222500D01*
X-977900Y-2159000D01*
X-203200Y-1866900D02*
X-254000Y-1866900D01*
X-228600Y-1866900D02*
X-228600Y-1943100D01*
X-203200Y-1943100D02*
X-254000Y-1943100D01*
X-292100Y-1943100D02*
X-292100Y-1866900D01*
X-368300Y-1943100D01*
X-368300Y-1866900D01*
X-393700Y-1866900D02*
X-469900Y-1866900D01*
X-431800Y-1866900D02*
X-431800Y-1943100D01*
X-571500Y-1943100D02*
X-495300Y-1943100D01*
X-495300Y-1866900D01*
X-571500Y-1866900D01*
X-495300Y-1905000D02*
X-546100Y-1905000D01*
X-673100Y-1930400D02*
X-660400Y-1943100D01*
X-622300Y-1943100D01*
X-596900Y-1917700D01*
X-596900Y-1892300D01*
X-622300Y-1866900D01*
X-660400Y-1866900D01*
X-673100Y-1879600D01*
X-698500Y-1943100D02*
X-698500Y-1866900D01*
X-774700Y-1866900D02*
X-774700Y-1943100D01*
X-698500Y-1905000D02*
X-774700Y-1905000D01*
X-190500Y-2057400D02*
X-203200Y-2070100D01*
X-254000Y-2070100D01*
X-266700Y-2057400D01*
X-266700Y-2044700D01*
X-254000Y-2032000D01*
X-203200Y-2032000D01*
X-190500Y-2019300D01*
X-190500Y-2006600D01*
X-203200Y-1993900D01*
X-254000Y-1993900D01*
X-266700Y-2006600D01*
X-292100Y-1993900D02*
X-368300Y-1993900D01*
X-330200Y-1993900D02*
X-330200Y-2070100D01*
X-393700Y-1993900D02*
X-393700Y-2057400D01*
X-406400Y-2070100D01*
X-457200Y-2070100D01*
X-469900Y-2057400D01*
X-469900Y-1993900D01*
X-495300Y-2070100D02*
X-495300Y-1993900D01*
X-546100Y-1993900D01*
X-571500Y-2019300D01*
X-571500Y-2044700D01*
X-546100Y-2070100D01*
X-495300Y-2070100D01*
X-609600Y-1993900D02*
X-660400Y-1993900D01*
X-635000Y-1993900D02*
X-635000Y-2070100D01*
X-609600Y-2070100D02*
X-660400Y-2070100D01*
X-698500Y-2019300D02*
X-723900Y-1993900D01*
X-749300Y-1993900D01*
X-774700Y-2019300D01*
X-774700Y-2044700D01*
X-749300Y-2070100D01*
X-723900Y-2070100D01*
X-698500Y-2044700D01*
X-698500Y-2019300D01*
X-698500Y-2019300D01*
X+0Y-2667000D02*
X+1016000Y-2667000D01*
X+1016000Y+7239000D01*
X+0Y+7239000D01*
X+0Y-2667000D01*
X+127000Y+6223000D02*
X+254000Y+6223000D01*
X+254000Y+6604000D01*
X+762000Y+6604000D01*
X+762000Y+5334000D01*
X+254000Y+5334000D01*
X+254000Y+5715000D01*
X+127000Y+5715000D01*
X+127000Y+5207000D01*
X+889000Y+5207000D01*
X+889000Y+6731000D01*
X+127000Y+6731000D01*
X+127000Y+6223000D01*
X+972820Y+6705600D02*
X+982980Y+6705600D01*
X+993140Y+6692900D01*
X+993140Y+6642100D01*
X+982980Y+6629400D01*
X+932180Y+6629400D01*
X+962660Y+6578600D02*
X+952500Y+6591300D01*
X+942340Y+6591300D01*
X+932180Y+6578600D01*
X+932180Y+6540500D01*
X+942340Y+6527800D01*
X+952500Y+6527800D01*
X+962660Y+6540500D01*
X+962660Y+6578600D01*
X+972820Y+6591300D01*
X+982980Y+6591300D01*
X+993140Y+6578600D01*
X+993140Y+6540500D01*
X+982980Y+6527800D01*
X+972820Y+6527800D01*
X+962660Y+6540500D01*
X+127000Y+4191000D02*
X+254000Y+4191000D01*
X+254000Y+4953000D01*
X+762000Y+4953000D01*
X+762000Y+2921000D01*
X+254000Y+2921000D01*
X+254000Y+3683000D01*
X+127000Y+3683000D01*
X+127000Y+2794000D01*
X+889000Y+2794000D01*
X+889000Y+5080000D01*
X+127000Y+5080000D01*
X+127000Y+4191000D01*
X+963903Y+5054600D02*
X+974063Y+5054600D01*
X+984223Y+5041900D01*
X+984223Y+4991100D01*
X+974063Y+4978400D01*
X+923263Y+4978400D01*
X+923263Y+4940300D02*
X+923263Y+4876800D01*
X+933423Y+4876800D01*
X+984223Y+4940300D01*
X+127000Y+2032000D02*
X+889000Y+2032000D01*
X+889000Y+2286000D01*
X+127000Y+2286000D01*
X+127000Y+2032000D01*
X+960120Y+2260600D02*
X+970280Y+2260600D01*
X+980440Y+2247900D01*
X+980440Y+2197100D01*
X+970280Y+2184400D01*
X+919480Y+2184400D01*
X+939800Y+2133600D02*
X+919480Y+2108200D01*
X+980440Y+2108200D01*
X+127000Y+1270000D02*
X+889000Y+1270000D01*
X+889000Y+1524000D01*
X+127000Y+1524000D01*
X+127000Y+1270000D01*
X+960120Y+1498600D02*
X+970280Y+1498600D01*
X+980440Y+1485900D01*
X+980440Y+1435100D01*
X+970280Y+1422400D01*
X+919480Y+1422400D01*
X+929640Y+1384300D02*
X+919480Y+1371600D01*
X+919480Y+1333500D01*
X+929640Y+1320800D01*
X+939800Y+1320800D01*
X+949960Y+1333500D01*
X+949960Y+1371600D01*
X+960120Y+1384300D01*
X+980440Y+1384300D01*
X+980440Y+1320800D01*
X+127000Y+508000D02*
X+889000Y+508000D01*
X+889000Y+762000D01*
X+127000Y+762000D01*
X+127000Y+508000D01*
X+956356Y+736600D02*
X+966516Y+736600D01*
X+976676Y+723900D01*
X+976676Y+673100D01*
X+966516Y+660400D01*
X+915716Y+660400D01*
X+925876Y+622300D02*
X+915716Y+609600D01*
X+915716Y+571500D01*
X+925876Y+558800D01*
X+936036Y+558800D01*
X+946196Y+571500D01*
X+956356Y+558800D01*
X+966516Y+558800D01*
X+976676Y+571500D01*
X+976676Y+609600D01*
X+966516Y+622300D01*
X+946196Y+596900D02*
X+946196Y+571500D01*
X+127000Y-254000D02*
X+889000Y-254000D01*
X+889000Y+0D01*
X+127000Y+0D01*
X+127000Y-254000D01*
X+960120Y-25400D02*
X+970280Y-25400D01*
X+980440Y-38100D01*
X+980440Y-88900D01*
X+970280Y-101600D01*
X+919480Y-101600D01*
X+960120Y-203200D02*
X+960120Y-127000D01*
X+919480Y-177800D01*
X+980440Y-177800D01*
X+127000Y-1016000D02*
X+889000Y-1016000D01*
X+889000Y-762000D01*
X+127000Y-762000D01*
X+127000Y-1016000D01*
X+960120Y-787400D02*
X+970280Y-787400D01*
X+980440Y-800100D01*
X+980440Y-850900D01*
X+970280Y-863600D01*
X+919480Y-863600D01*
X+919480Y-965200D02*
X+919480Y-901700D01*
X+939800Y-901700D01*
X+939800Y-952500D01*
X+949960Y-965200D01*
X+970280Y-965200D01*
X+980440Y-952500D01*
X+980440Y-914400D01*
X+970280Y-901700D01*
X+127000Y-1778000D02*
X+889000Y-1778000D01*
X+889000Y-1524000D01*
X+127000Y-1524000D01*
X+127000Y-1778000D01*
X+960120Y-1549400D02*
X+970280Y-1549400D01*
X+980440Y-1562100D01*
X+980440Y-1612900D01*
X+970280Y-1625600D01*
X+919480Y-1625600D01*
X+929640Y-1727200D02*
X+919480Y-1714500D01*
X+919480Y-1676400D01*
X+929640Y-1663700D01*
X+970280Y-1663700D01*
X+980440Y-1676400D01*
X+980440Y-1714500D01*
X+970280Y-1727200D01*
X+960120Y-1727200D01*
X+949960Y-1714500D01*
X+949960Y-1663700D01*
X+812800Y+2451100D02*
X+762000Y+2451100D01*
X+762000Y+2400300D01*
X+863600Y+2400300D01*
X+914400Y+2451100D01*
X+914400Y+2501900D01*
X+863600Y+2552700D01*
X+787400Y+2552700D01*
X+762000Y+2527300D01*
X+711200Y+2400300D02*
X+711200Y+2501900D01*
X+660400Y+2552700D01*
X+609600Y+2552700D01*
X+558800Y+2501900D01*
X+558800Y+2400300D01*
X+711200Y+2451100D02*
X+558800Y+2451100D01*
X+508000Y+2552700D02*
X+355600Y+2552700D01*
X+431800Y+2552700D02*
X+431800Y+2400300D01*
X+152400Y+2400300D02*
X+304800Y+2400300D01*
X+304800Y+2552700D01*
X+152400Y+2552700D01*
X+304800Y+2476500D02*
X+203200Y+2476500D01*
X+558800Y+1663700D02*
X+584200Y+1638300D01*
X+660400Y+1638300D01*
X+711200Y+1689100D01*
X+711200Y+1739900D01*
X+660400Y+1790700D01*
X+584200Y+1790700D01*
X+558800Y+1765300D01*
X+508000Y+1790700D02*
X+508000Y+1714500D01*
X+431800Y+1638300D01*
X+355600Y+1714500D01*
X+355600Y+1790700D01*
X+812800Y+952500D02*
X+660400Y+952500D01*
X+736600Y+1003300D02*
X+736600Y+901700D01*
X+457200Y+1028700D02*
X+584200Y+1028700D01*
X+584200Y+977900D01*
X+482600Y+977900D01*
X+457200Y+952500D01*
X+457200Y+901700D01*
X+482600Y+876300D01*
X+558800Y+876300D01*
X+584200Y+901700D01*
X+406400Y+1028700D02*
X+406400Y+952500D01*
X+330200Y+876300D01*
X+254000Y+952500D01*
X+254000Y+1028700D01*
X+914400Y+190500D02*
X+762000Y+190500D01*
X+838200Y+241300D02*
X+838200Y+139700D01*
X+660400Y+215900D02*
X+609600Y+266700D01*
X+609600Y+114300D01*
X+482600Y+241300D02*
X+457200Y+266700D01*
X+381000Y+266700D01*
X+355600Y+241300D01*
X+355600Y+215900D01*
X+381000Y+190500D01*
X+457200Y+190500D01*
X+482600Y+165100D01*
X+482600Y+114300D01*
X+355600Y+114300D01*
X+304800Y+266700D02*
X+304800Y+190500D01*
X+228600Y+114300D01*
X+152400Y+190500D01*
X+152400Y+266700D01*
X+711200Y-596900D02*
X+660400Y-596900D01*
X+660400Y-647700D01*
X+762000Y-647700D01*
X+812800Y-596900D01*
X+812800Y-546100D01*
X+762000Y-495300D01*
X+685800Y-495300D01*
X+660400Y-520700D01*
X+609600Y-647700D02*
X+609600Y-495300D01*
X+457200Y-647700D01*
X+457200Y-495300D01*
X+406400Y-647700D02*
X+406400Y-495300D01*
X+304800Y-495300D01*
X+254000Y-546100D01*
X+254000Y-596900D01*
X+304800Y-647700D01*
X+406400Y-647700D01*
X+889000Y-1333500D02*
X+762000Y-1333500D01*
X+660400Y-1308100D02*
X+609600Y-1257300D01*
X+609600Y-1409700D01*
X+482600Y-1282700D02*
X+457200Y-1257300D01*
X+381000Y-1257300D01*
X+355600Y-1282700D01*
X+355600Y-1308100D01*
X+381000Y-1333500D01*
X+457200Y-1333500D01*
X+482600Y-1358900D01*
X+482600Y-1409700D01*
X+355600Y-1409700D01*
X+304800Y-1257300D02*
X+304800Y-1333500D01*
X+228600Y-1409700D01*
X+152400Y-1333500D01*
X+152400Y-1257300D01*
X+876300Y-2235200D02*
X+952500Y-2235200D01*
X+952500Y-2159000D01*
X+876300Y-2159000D01*
X+952500Y-2197100D02*
X+901700Y-2197100D01*
X+774700Y-2235200D02*
X+850900Y-2235200D01*
X+850900Y-2159000D01*
X+774700Y-2159000D01*
X+850900Y-2197100D02*
X+800100Y-2197100D01*
X+711200Y-2184400D02*
X+711200Y-2197100D01*
X+711200Y-2222500D02*
X+711200Y-2235200D01*
X+546100Y-2222500D02*
X+533400Y-2235200D01*
X+482600Y-2235200D01*
X+469900Y-2222500D01*
X+469900Y-2209800D01*
X+482600Y-2197100D01*
X+533400Y-2197100D01*
X+546100Y-2184400D01*
X+546100Y-2171700D01*
X+533400Y-2159000D01*
X+482600Y-2159000D01*
X+469900Y-2171700D01*
X+444500Y-2159000D02*
X+444500Y-2222500D01*
X+431800Y-2235200D01*
X+381000Y-2235200D01*
X+368300Y-2222500D01*
X+368300Y-2159000D01*
X+342900Y-2159000D02*
X+342900Y-2235200D01*
X+266700Y-2159000D02*
X+304800Y-2197100D01*
X+266700Y-2235200D01*
X+342900Y-2197100D02*
X+304800Y-2197100D01*
X+241300Y-2159000D02*
X+241300Y-2222500D01*
X+228600Y-2235200D01*
X+177800Y-2235200D01*
X+165100Y-2222500D01*
X+165100Y-2159000D01*
X+939800Y-1866900D02*
X+889000Y-1866900D01*
X+914400Y-1866900D02*
X+914400Y-1943100D01*
X+939800Y-1943100D02*
X+889000Y-1943100D01*
X+850900Y-1943100D02*
X+850900Y-1866900D01*
X+774700Y-1943100D01*
X+774700Y-1866900D01*
X+749300Y-1866900D02*
X+673100Y-1866900D01*
X+711200Y-1866900D02*
X+711200Y-1943100D01*
X+571500Y-1943100D02*
X+647700Y-1943100D01*
X+647700Y-1866900D01*
X+571500Y-1866900D01*
X+647700Y-1905000D02*
X+596900Y-1905000D01*
X+469900Y-1930400D02*
X+482600Y-1943100D01*
X+520700Y-1943100D01*
X+546100Y-1917700D01*
X+546100Y-1892300D01*
X+520700Y-1866900D01*
X+482600Y-1866900D01*
X+469900Y-1879600D01*
X+444500Y-1943100D02*
X+444500Y-1866900D01*
X+368300Y-1866900D02*
X+368300Y-1943100D01*
X+444500Y-1905000D02*
X+368300Y-1905000D01*
X+952500Y-2057400D02*
X+939800Y-2070100D01*
X+889000Y-2070100D01*
X+876300Y-2057400D01*
X+876300Y-2044700D01*
X+889000Y-2032000D01*
X+939800Y-2032000D01*
X+952500Y-2019300D01*
X+952500Y-2006600D01*
X+939800Y-1993900D01*
X+889000Y-1993900D01*
X+876300Y-2006600D01*
X+850900Y-1993900D02*
X+774700Y-1993900D01*
X+812800Y-1993900D02*
X+812800Y-2070100D01*
X+749300Y-1993900D02*
X+749300Y-2057400D01*
X+736600Y-2070100D01*
X+685800Y-2070100D01*
X+673100Y-2057400D01*
X+673100Y-1993900D01*
X+647700Y-2070100D02*
X+647700Y-1993900D01*
X+596900Y-1993900D01*
X+571500Y-2019300D01*
X+571500Y-2044700D01*
X+596900Y-2070100D01*
X+647700Y-2070100D01*
X+533400Y-1993900D02*
X+482600Y-1993900D01*
X+508000Y-1993900D02*
X+508000Y-2070100D01*
X+533400Y-2070100D02*
X+482600Y-2070100D01*
X+444500Y-2019300D02*
X+419100Y-1993900D01*
X+393700Y-1993900D01*
X+368300Y-2019300D01*
X+368300Y-2044700D01*
X+393700Y-2070100D01*
X+419100Y-2070100D01*
X+444500Y-2044700D01*
X+444500Y-2019300D01*
X+444500Y-2019300D01*
X+1143000Y-2667000D02*
X+2159000Y-2667000D01*
X+2159000Y+7239000D01*
X+1143000Y+7239000D01*
X+1143000Y-2667000D01*
X+1270000Y+6223000D02*
X+1397000Y+6223000D01*
X+1397000Y+6604000D01*
X+1905000Y+6604000D01*
X+1905000Y+5334000D01*
X+1397000Y+5334000D01*
X+1397000Y+5715000D01*
X+1270000Y+5715000D01*
X+1270000Y+5207000D01*
X+2032000Y+5207000D01*
X+2032000Y+6731000D01*
X+1270000Y+6731000D01*
X+1270000Y+6223000D01*
X+2115820Y+6705600D02*
X+2125980Y+6705600D01*
X+2136140Y+6692900D01*
X+2136140Y+6642100D01*
X+2125980Y+6629400D01*
X+2075180Y+6629400D01*
X+2105660Y+6578600D02*
X+2095500Y+6591300D01*
X+2085340Y+6591300D01*
X+2075180Y+6578600D01*
X+2075180Y+6540500D01*
X+2085340Y+6527800D01*
X+2095500Y+6527800D01*
X+2105660Y+6540500D01*
X+2105660Y+6578600D01*
X+2115820Y+6591300D01*
X+2125980Y+6591300D01*
X+2136140Y+6578600D01*
X+2136140Y+6540500D01*
X+2125980Y+6527800D01*
X+2115820Y+6527800D01*
X+2105660Y+6540500D01*
X+1270000Y+4191000D02*
X+1397000Y+4191000D01*
X+1397000Y+4953000D01*
X+1905000Y+4953000D01*
X+1905000Y+2921000D01*
X+1397000Y+2921000D01*
X+1397000Y+3683000D01*
X+1270000Y+3683000D01*
X+1270000Y+2794000D01*
X+2032000Y+2794000D01*
X+2032000Y+5080000D01*
X+1270000Y+5080000D01*
X+1270000Y+4191000D01*
X+2106903Y+5054600D02*
X+2117063Y+5054600D01*
X+2127223Y+5041900D01*
X+2127223Y+4991100D01*
X+2117063Y+4978400D01*
X+2066263Y+4978400D01*
X+2066263Y+4940300D02*
X+2066263Y+4876800D01*
X+2076423Y+4876800D01*
X+2127223Y+4940300D01*
X+1270000Y+2032000D02*
X+2032000Y+2032000D01*
X+2032000Y+2286000D01*
X+1270000Y+2286000D01*
X+1270000Y+2032000D01*
X+2103120Y+2260600D02*
X+2113280Y+2260600D01*
X+2123440Y+2247900D01*
X+2123440Y+2197100D01*
X+2113280Y+2184400D01*
X+2062480Y+2184400D01*
X+2082800Y+2133600D02*
X+2062480Y+2108200D01*
X+2123440Y+2108200D01*
X+1270000Y+1270000D02*
X+2032000Y+1270000D01*
X+2032000Y+1524000D01*
X+1270000Y+1524000D01*
X+1270000Y+1270000D01*
X+2103120Y+1498600D02*
X+2113280Y+1498600D01*
X+2123440Y+1485900D01*
X+2123440Y+1435100D01*
X+2113280Y+1422400D01*
X+2062480Y+1422400D01*
X+2072640Y+1384300D02*
X+2062480Y+1371600D01*
X+2062480Y+1333500D01*
X+2072640Y+1320800D01*
X+2082800Y+1320800D01*
X+2092960Y+1333500D01*
X+2092960Y+1371600D01*
X+2103120Y+1384300D01*
X+2123440Y+1384300D01*
X+2123440Y+1320800D01*
X+1270000Y+508000D02*
X+2032000Y+508000D01*
X+2032000Y+762000D01*
X+1270000Y+762000D01*
X+1270000Y+508000D01*
X+2099356Y+736600D02*
X+2109516Y+736600D01*
X+2119676Y+723900D01*
X+2119676Y+673100D01*
X+2109516Y+660400D01*
X+2058716Y+660400D01*
X+2068876Y+622300D02*
X+2058716Y+609600D01*
X+2058716Y+571500D01*
X+2068876Y+558800D01*
X+2079036Y+558800D01*
X+2089196Y+571500D01*
X+2099356Y+558800D01*
X+2109516Y+558800D01*
X+2119676Y+571500D01*
X+2119676Y+609600D01*
X+2109516Y+622300D01*
X+2089196Y+596900D02*
X+2089196Y+571500D01*
X+1270000Y-254000D02*
X+2032000Y-254000D01*
X+2032000Y+0D01*
X+1270000Y+0D01*
X+1270000Y-254000D01*
X+2103120Y-25400D02*
X+2113280Y-25400D01*
X+2123440Y-38100D01*
X+2123440Y-88900D01*
X+2113280Y-101600D01*
X+2062480Y-101600D01*
X+2103120Y-203200D02*
X+2103120Y-127000D01*
X+2062480Y-177800D01*
X+2123440Y-177800D01*
X+1270000Y-1016000D02*
X+2032000Y-1016000D01*
X+2032000Y-762000D01*
X+1270000Y-762000D01*
X+1270000Y-1016000D01*
X+2103120Y-787400D02*
X+2113280Y-787400D01*
X+2123440Y-800100D01*
X+2123440Y-850900D01*
X+2113280Y-863600D01*
X+2062480Y-863600D01*
X+2062480Y-965200D02*
X+2062480Y-901700D01*
X+2082800Y-901700D01*
X+2082800Y-952500D01*
X+2092960Y-965200D01*
X+2113280Y-965200D01*
X+2123440Y-952500D01*
X+2123440Y-914400D01*
X+2113280Y-901700D01*
X+1270000Y-1778000D02*
X+2032000Y-1778000D01*
X+2032000Y-1524000D01*
X+1270000Y-1524000D01*
X+1270000Y-1778000D01*
X+2103120Y-1549400D02*
X+2113280Y-1549400D01*
X+2123440Y-1562100D01*
X+2123440Y-1612900D01*
X+2113280Y-1625600D01*
X+2062480Y-1625600D01*
X+2072640Y-1727200D02*
X+2062480Y-1714500D01*
X+2062480Y-1676400D01*
X+2072640Y-1663700D01*
X+2113280Y-1663700D01*
X+2123440Y-1676400D01*
X+2123440Y-1714500D01*
X+2113280Y-1727200D01*
X+2103120Y-1727200D01*
X+2092960Y-1714500D01*
X+2092960Y-1663700D01*
X+1955800Y+2451100D02*
X+1905000Y+2451100D01*
X+1905000Y+2400300D01*
X+2006600Y+2400300D01*
X+2057400Y+2451100D01*
X+2057400Y+2501900D01*
X+2006600Y+2552700D01*
X+1930400Y+2552700D01*
X+1905000Y+2527300D01*
X+1854200Y+2400300D02*
X+1854200Y+2501900D01*
X+1803400Y+2552700D01*
X+1752600Y+2552700D01*
X+1701800Y+2501900D01*
X+1701800Y+2400300D01*
X+1854200Y+2451100D02*
X+1701800Y+2451100D01*
X+1651000Y+2552700D02*
X+1498600Y+2552700D01*
X+1574800Y+2552700D02*
X+1574800Y+2400300D01*
X+1295400Y+2400300D02*
X+1447800Y+2400300D01*
X+1447800Y+2552700D01*
X+1295400Y+2552700D01*
X+1447800Y+2476500D02*
X+1346200Y+2476500D01*
X+1701800Y+1663700D02*
X+1727200Y+1638300D01*
X+1803400Y+1638300D01*
X+1854200Y+1689100D01*
X+1854200Y+1739900D01*
X+1803400Y+1790700D01*
X+1727200Y+1790700D01*
X+1701800Y+1765300D01*
X+1651000Y+1790700D02*
X+1651000Y+1714500D01*
X+1574800Y+1638300D01*
X+1498600Y+1714500D01*
X+1498600Y+1790700D01*
X+1955800Y+952500D02*
X+1803400Y+952500D01*
X+1879600Y+1003300D02*
X+1879600Y+901700D01*
X+1600200Y+1028700D02*
X+1727200Y+1028700D01*
X+1727200Y+977900D01*
X+1625600Y+977900D01*
X+1600200Y+952500D01*
X+1600200Y+901700D01*
X+1625600Y+876300D01*
X+1701800Y+876300D01*
X+1727200Y+901700D01*
X+1549400Y+1028700D02*
X+1549400Y+952500D01*
X+1473200Y+876300D01*
X+1397000Y+952500D01*
X+1397000Y+1028700D01*
X+2057400Y+190500D02*
X+1905000Y+190500D01*
X+1981200Y+241300D02*
X+1981200Y+139700D01*
X+1803400Y+215900D02*
X+1752600Y+266700D01*
X+1752600Y+114300D01*
X+1625600Y+241300D02*
X+1600200Y+266700D01*
X+1524000Y+266700D01*
X+1498600Y+241300D01*
X+1498600Y+215900D01*
X+1524000Y+190500D01*
X+1600200Y+190500D01*
X+1625600Y+165100D01*
X+1625600Y+114300D01*
X+1498600Y+114300D01*
X+1447800Y+266700D02*
X+1447800Y+190500D01*
X+1371600Y+114300D01*
X+1295400Y+190500D01*
X+1295400Y+266700D01*
X+1854200Y-596900D02*
X+1803400Y-596900D01*
X+1803400Y-647700D01*
X+1905000Y-647700D01*
X+1955800Y-596900D01*
X+1955800Y-546100D01*
X+1905000Y-495300D01*
X+1828800Y-495300D01*
X+1803400Y-520700D01*
X+1752600Y-647700D02*
X+1752600Y-495300D01*
X+1600200Y-647700D01*
X+1600200Y-495300D01*
X+1549400Y-647700D02*
X+1549400Y-495300D01*
X+1447800Y-495300D01*
X+1397000Y-546100D01*
X+1397000Y-596900D01*
X+1447800Y-647700D01*
X+1549400Y-647700D01*
X+2032000Y-1333500D02*
X+1905000Y-1333500D01*
X+1803400Y-1308100D02*
X+1752600Y-1257300D01*
X+1752600Y-1409700D01*
X+1625600Y-1282700D02*
X+1600200Y-1257300D01*
X+1524000Y-1257300D01*
X+1498600Y-1282700D01*
X+1498600Y-1308100D01*
X+1524000Y-1333500D01*
X+1600200Y-1333500D01*
X+1625600Y-1358900D01*
X+1625600Y-1409700D01*
X+1498600Y-1409700D01*
X+1447800Y-1257300D02*
X+1447800Y-1333500D01*
X+1371600Y-1409700D01*
X+1295400Y-1333500D01*
X+1295400Y-1257300D01*
X+2019300Y-2235200D02*
X+2095500Y-2235200D01*
X+2095500Y-2159000D01*
X+2019300Y-2159000D01*
X+2095500Y-2197100D02*
X+2044700Y-2197100D01*
X+1917700Y-2235200D02*
X+1993900Y-2235200D01*
X+1993900Y-2159000D01*
X+1917700Y-2159000D01*
X+1993900Y-2197100D02*
X+1943100Y-2197100D01*
X+1854200Y-2184400D02*
X+1854200Y-2197100D01*
X+1854200Y-2222500D02*
X+1854200Y-2235200D01*
X+1689100Y-2222500D02*
X+1676400Y-2235200D01*
X+1625600Y-2235200D01*
X+1612900Y-2222500D01*
X+1612900Y-2209800D01*
X+1625600Y-2197100D01*
X+1676400Y-2197100D01*
X+1689100Y-2184400D01*
X+1689100Y-2171700D01*
X+1676400Y-2159000D01*
X+1625600Y-2159000D01*
X+1612900Y-2171700D01*
X+1587500Y-2159000D02*
X+1587500Y-2222500D01*
X+1574800Y-2235200D01*
X+1524000Y-2235200D01*
X+1511300Y-2222500D01*
X+1511300Y-2159000D01*
X+1485900Y-2159000D02*
X+1485900Y-2235200D01*
X+1409700Y-2159000D02*
X+1447800Y-2197100D01*
X+1409700Y-2235200D01*
X+1485900Y-2197100D02*
X+1447800Y-2197100D01*
X+1384300Y-2159000D02*
X+1384300Y-2222500D01*
X+1371600Y-2235200D01*
X+1320800Y-2235200D01*
X+1308100Y-2222500D01*
X+1308100Y-2159000D01*
X+2082800Y-1866900D02*
X+2032000Y-1866900D01*
X+2057400Y-1866900D02*
X+2057400Y-1943100D01*
X+2082800Y-1943100D02*
X+2032000Y-1943100D01*
X+1993900Y-1943100D02*
X+1993900Y-1866900D01*
X+1917700Y-1943100D01*
X+1917700Y-1866900D01*
X+1892300Y-1866900D02*
X+1816100Y-1866900D01*
X+1854200Y-1866900D02*
X+1854200Y-1943100D01*
X+1714500Y-1943100D02*
X+1790700Y-1943100D01*
X+1790700Y-1866900D01*
X+1714500Y-1866900D01*
X+1790700Y-1905000D02*
X+1739900Y-1905000D01*
X+1612900Y-1930400D02*
X+1625600Y-1943100D01*
X+1663700Y-1943100D01*
X+1689100Y-1917700D01*
X+1689100Y-1892300D01*
X+1663700Y-1866900D01*
X+1625600Y-1866900D01*
X+1612900Y-1879600D01*
X+1587500Y-1943100D02*
X+1587500Y-1866900D01*
X+1511300Y-1866900D02*
X+1511300Y-1943100D01*
X+1587500Y-1905000D02*
X+1511300Y-1905000D01*
X+2095500Y-2057400D02*
X+2082800Y-2070100D01*
X+2032000Y-2070100D01*
X+2019300Y-2057400D01*
X+2019300Y-2044700D01*
X+2032000Y-2032000D01*
X+2082800Y-2032000D01*
X+2095500Y-2019300D01*
X+2095500Y-2006600D01*
X+2082800Y-1993900D01*
X+2032000Y-1993900D01*
X+2019300Y-2006600D01*
X+1993900Y-1993900D02*
X+1917700Y-1993900D01*
X+1955800Y-1993900D02*
X+1955800Y-2070100D01*
X+1892300Y-1993900D02*
X+1892300Y-2057400D01*
X+1879600Y-2070100D01*
X+1828800Y-2070100D01*
X+1816100Y-2057400D01*
X+1816100Y-1993900D01*
X+1790700Y-2070100D02*
X+1790700Y-1993900D01*
X+1739900Y-1993900D01*
X+1714500Y-2019300D01*
X+1714500Y-2044700D01*
X+1739900Y-2070100D01*
X+1790700Y-2070100D01*
X+1676400Y-1993900D02*
X+1625600Y-1993900D01*
X+1651000Y-1993900D02*
X+1651000Y-2070100D01*
X+1676400Y-2070100D02*
X+1625600Y-2070100D01*
X+1587500Y-2019300D02*
X+1562100Y-1993900D01*
X+1536700Y-1993900D01*
X+1511300Y-2019300D01*
X+1511300Y-2044700D01*
X+1536700Y-2070100D01*
X+1562100Y-2070100D01*
X+1587500Y-2044700D01*
X+1587500Y-2019300D01*
X+1587500Y-2019300D01*
X+2286000Y-2667000D02*
X+3302000Y-2667000D01*
X+3302000Y+7239000D01*
X+2286000Y+7239000D01*
X+2286000Y-2667000D01*
X+2413000Y+6223000D02*
X+2540000Y+6223000D01*
X+2540000Y+6604000D01*
X+3048000Y+6604000D01*
X+3048000Y+5334000D01*
X+2540000Y+5334000D01*
X+2540000Y+5715000D01*
X+2413000Y+5715000D01*
X+2413000Y+5207000D01*
X+3175000Y+5207000D01*
X+3175000Y+6731000D01*
X+2413000Y+6731000D01*
X+2413000Y+6223000D01*
X+3258820Y+6705600D02*
X+3268980Y+6705600D01*
X+3279140Y+6692900D01*
X+3279140Y+6642100D01*
X+3268980Y+6629400D01*
X+3218180Y+6629400D01*
X+3248660Y+6578600D02*
X+3238500Y+6591300D01*
X+3228340Y+6591300D01*
X+3218180Y+6578600D01*
X+3218180Y+6540500D01*
X+3228340Y+6527800D01*
X+3238500Y+6527800D01*
X+3248660Y+6540500D01*
X+3248660Y+6578600D01*
X+3258820Y+6591300D01*
X+3268980Y+6591300D01*
X+3279140Y+6578600D01*
X+3279140Y+6540500D01*
X+3268980Y+6527800D01*
X+3258820Y+6527800D01*
X+3248660Y+6540500D01*
X+2413000Y+4191000D02*
X+2540000Y+4191000D01*
X+2540000Y+4953000D01*
X+3048000Y+4953000D01*
X+3048000Y+2921000D01*
X+2540000Y+2921000D01*
X+2540000Y+3683000D01*
X+2413000Y+3683000D01*
X+2413000Y+2794000D01*
X+3175000Y+2794000D01*
X+3175000Y+5080000D01*
X+2413000Y+5080000D01*
X+2413000Y+4191000D01*
X+3249903Y+5054600D02*
X+3260063Y+5054600D01*
X+3270223Y+5041900D01*
X+3270223Y+4991100D01*
X+3260063Y+4978400D01*
X+3209263Y+4978400D01*
X+3209263Y+4940300D02*
X+3209263Y+4876800D01*
X+3219423Y+4876800D01*
X+3270223Y+4940300D01*
X+2413000Y+2032000D02*
X+3175000Y+2032000D01*
X+3175000Y+2286000D01*
X+2413000Y+2286000D01*
X+2413000Y+2032000D01*
X+3246120Y+2260600D02*
X+3256280Y+2260600D01*
X+3266440Y+2247900D01*
X+3266440Y+2197100D01*
X+3256280Y+2184400D01*
X+3205480Y+2184400D01*
X+3225800Y+2133600D02*
X+3205480Y+2108200D01*
X+3266440Y+2108200D01*
X+2413000Y+1270000D02*
X+3175000Y+1270000D01*
X+3175000Y+1524000D01*
X+2413000Y+1524000D01*
X+2413000Y+1270000D01*
X+3246120Y+1498600D02*
X+3256280Y+1498600D01*
X+3266440Y+1485900D01*
X+3266440Y+1435100D01*
X+3256280Y+1422400D01*
X+3205480Y+1422400D01*
X+3215640Y+1384300D02*
X+3205480Y+1371600D01*
X+3205480Y+1333500D01*
X+3215640Y+1320800D01*
X+3225800Y+1320800D01*
X+3235960Y+1333500D01*
X+3235960Y+1371600D01*
X+3246120Y+1384300D01*
X+3266440Y+1384300D01*
X+3266440Y+1320800D01*
X+2413000Y+508000D02*
X+3175000Y+508000D01*
X+3175000Y+762000D01*
X+2413000Y+762000D01*
X+2413000Y+508000D01*
X+3242356Y+736600D02*
X+3252516Y+736600D01*
X+3262676Y+723900D01*
X+3262676Y+673100D01*
X+3252516Y+660400D01*
X+3201716Y+660400D01*
X+3211876Y+622300D02*
X+3201716Y+609600D01*
X+3201716Y+571500D01*
X+3211876Y+558800D01*
X+3222036Y+558800D01*
X+3232196Y+571500D01*
X+3242356Y+558800D01*
X+3252516Y+558800D01*
X+3262676Y+571500D01*
X+3262676Y+609600D01*
X+3252516Y+622300D01*
X+3232196Y+596900D02*
X+3232196Y+571500D01*
X+2413000Y-254000D02*
X+3175000Y-254000D01*
X+3175000Y+0D01*
X+2413000Y+0D01*
X+2413000Y-254000D01*
X+3246120Y-25400D02*
X+3256280Y-25400D01*
X+3266440Y-38100D01*
X+3266440Y-88900D01*
X+3256280Y-101600D01*
X+3205480Y-101600D01*
X+3246120Y-203200D02*
X+3246120Y-127000D01*
X+3205480Y-177800D01*
X+3266440Y-177800D01*
X+2413000Y-1016000D02*
X+3175000Y-1016000D01*
X+3175000Y-762000D01*
X+2413000Y-762000D01*
X+2413000Y-1016000D01*
X+3246120Y-787400D02*
X+3256280Y-787400D01*
X+3266440Y-800100D01*
X+3266440Y-850900D01*
X+3256280Y-863600D01*
X+3205480Y-863600D01*
X+3205480Y-965200D02*
X+3205480Y-901700D01*
X+3225800Y-901700D01*
X+3225800Y-952500D01*
X+3235960Y-965200D01*
X+3256280Y-965200D01*
X+3266440Y-952500D01*
X+3266440Y-914400D01*
X+3256280Y-901700D01*
X+2413000Y-1778000D02*
X+3175000Y-1778000D01*
X+3175000Y-1524000D01*
X+2413000Y-1524000D01*
X+2413000Y-1778000D01*
X+3246120Y-1549400D02*
X+3256280Y-1549400D01*
X+3266440Y-1562100D01*
X+3266440Y-1612900D01*
X+3256280Y-1625600D01*
X+3205480Y-1625600D01*
X+3215640Y-1727200D02*
X+3205480Y-1714500D01*
X+3205480Y-1676400D01*
X+3215640Y-1663700D01*
X+3256280Y-1663700D01*
X+3266440Y-1676400D01*
X+3266440Y-1714500D01*
X+3256280Y-1727200D01*
X+3246120Y-1727200D01*
X+3235960Y-1714500D01*
X+3235960Y-1663700D01*
X+3098800Y+2451100D02*
X+3048000Y+2451100D01*
X+3048000Y+2400300D01*
X+3149600Y+2400300D01*
X+3200400Y+2451100D01*
X+3200400Y+2501900D01*
X+3149600Y+2552700D01*
X+3073400Y+2552700D01*
X+3048000Y+2527300D01*
X+2997200Y+2400300D02*
X+2997200Y+2501900D01*
X+2946400Y+2552700D01*
X+2895600Y+2552700D01*
X+2844800Y+2501900D01*
X+2844800Y+2400300D01*
X+2997200Y+2451100D02*
X+2844800Y+2451100D01*
X+2794000Y+2552700D02*
X+2641600Y+2552700D01*
X+2717800Y+2552700D02*
X+2717800Y+2400300D01*
X+2438400Y+2400300D02*
X+2590800Y+2400300D01*
X+2590800Y+2552700D01*
X+2438400Y+2552700D01*
X+2590800Y+2476500D02*
X+2489200Y+2476500D01*
X+2844800Y+1663700D02*
X+2870200Y+1638300D01*
X+2946400Y+1638300D01*
X+2997200Y+1689100D01*
X+2997200Y+1739900D01*
X+2946400Y+1790700D01*
X+2870200Y+1790700D01*
X+2844800Y+1765300D01*
X+2794000Y+1790700D02*
X+2794000Y+1714500D01*
X+2717800Y+1638300D01*
X+2641600Y+1714500D01*
X+2641600Y+1790700D01*
X+3098800Y+952500D02*
X+2946400Y+952500D01*
X+3022600Y+1003300D02*
X+3022600Y+901700D01*
X+2743200Y+1028700D02*
X+2870200Y+1028700D01*
X+2870200Y+977900D01*
X+2768600Y+977900D01*
X+2743200Y+952500D01*
X+2743200Y+901700D01*
X+2768600Y+876300D01*
X+2844800Y+876300D01*
X+2870200Y+901700D01*
X+2692400Y+1028700D02*
X+2692400Y+952500D01*
X+2616200Y+876300D01*
X+2540000Y+952500D01*
X+2540000Y+1028700D01*
X+3200400Y+190500D02*
X+3048000Y+190500D01*
X+3124200Y+241300D02*
X+3124200Y+139700D01*
X+2946400Y+215900D02*
X+2895600Y+266700D01*
X+2895600Y+114300D01*
X+2768600Y+241300D02*
X+2743200Y+266700D01*
X+2667000Y+266700D01*
X+2641600Y+241300D01*
X+2641600Y+215900D01*
X+2667000Y+190500D01*
X+2743200Y+190500D01*
X+2768600Y+165100D01*
X+2768600Y+114300D01*
X+2641600Y+114300D01*
X+2590800Y+266700D02*
X+2590800Y+190500D01*
X+2514600Y+114300D01*
X+2438400Y+190500D01*
X+2438400Y+266700D01*
X+2997200Y-596900D02*
X+2946400Y-596900D01*
X+2946400Y-647700D01*
X+3048000Y-647700D01*
X+3098800Y-596900D01*
X+3098800Y-546100D01*
X+3048000Y-495300D01*
X+2971800Y-495300D01*
X+2946400Y-520700D01*
X+2895600Y-647700D02*
X+2895600Y-495300D01*
X+2743200Y-647700D01*
X+2743200Y-495300D01*
X+2692400Y-647700D02*
X+2692400Y-495300D01*
X+2590800Y-495300D01*
X+2540000Y-546100D01*
X+2540000Y-596900D01*
X+2590800Y-647700D01*
X+2692400Y-647700D01*
X+3175000Y-1333500D02*
X+3048000Y-1333500D01*
X+2946400Y-1308100D02*
X+2895600Y-1257300D01*
X+2895600Y-1409700D01*
X+2768600Y-1282700D02*
X+2743200Y-1257300D01*
X+2667000Y-1257300D01*
X+2641600Y-1282700D01*
X+2641600Y-1308100D01*
X+2667000Y-1333500D01*
X+2743200Y-1333500D01*
X+2768600Y-1358900D01*
X+2768600Y-1409700D01*
X+2641600Y-1409700D01*
X+2590800Y-1257300D02*
X+2590800Y-1333500D01*
X+2514600Y-1409700D01*
X+2438400Y-1333500D01*
X+2438400Y-1257300D01*
X+3162300Y-2235200D02*
X+3238500Y-2235200D01*
X+3238500Y-2159000D01*
X+3162300Y-2159000D01*
X+3238500Y-2197100D02*
X+3187700Y-2197100D01*
X+3060700Y-2235200D02*
X+3136900Y-2235200D01*
X+3136900Y-2159000D01*
X+3060700Y-2159000D01*
X+3136900Y-2197100D02*
X+3086100Y-2197100D01*
X+2997200Y-2184400D02*
X+2997200Y-2197100D01*
X+2997200Y-2222500D02*
X+2997200Y-2235200D01*
X+2832100Y-2222500D02*
X+2819400Y-2235200D01*
X+2768600Y-2235200D01*
X+2755900Y-2222500D01*
X+2755900Y-2209800D01*
X+2768600Y-2197100D01*
X+2819400Y-2197100D01*
X+2832100Y-2184400D01*
X+2832100Y-2171700D01*
X+2819400Y-2159000D01*
X+2768600Y-2159000D01*
X+2755900Y-2171700D01*
X+2730500Y-2159000D02*
X+2730500Y-2222500D01*
X+2717800Y-2235200D01*
X+2667000Y-2235200D01*
X+2654300Y-2222500D01*
X+2654300Y-2159000D01*
X+2628900Y-2159000D02*
X+2628900Y-2235200D01*
X+2552700Y-2159000D02*
X+2590800Y-2197100D01*
X+2552700Y-2235200D01*
X+2628900Y-2197100D02*
X+2590800Y-2197100D01*
X+2527300Y-2159000D02*
X+2527300Y-2222500D01*
X+2514600Y-2235200D01*
X+2463800Y-2235200D01*
X+2451100Y-2222500D01*
X+2451100Y-2159000D01*
X+3225800Y-1866900D02*
X+3175000Y-1866900D01*
X+3200400Y-1866900D02*
X+3200400Y-1943100D01*
X+3225800Y-1943100D02*
X+3175000Y-1943100D01*
X+3136900Y-1943100D02*
X+3136900Y-1866900D01*
X+3060700Y-1943100D01*
X+3060700Y-1866900D01*
X+3035300Y-1866900D02*
X+2959100Y-1866900D01*
X+2997200Y-1866900D02*
X+2997200Y-1943100D01*
X+2857500Y-1943100D02*
X+2933700Y-1943100D01*
X+2933700Y-1866900D01*
X+2857500Y-1866900D01*
X+2933700Y-1905000D02*
X+2882900Y-1905000D01*
X+2755900Y-1930400D02*
X+2768600Y-1943100D01*
X+2806700Y-1943100D01*
X+2832100Y-1917700D01*
X+2832100Y-1892300D01*
X+2806700Y-1866900D01*
X+2768600Y-1866900D01*
X+2755900Y-1879600D01*
X+2730500Y-1943100D02*
X+2730500Y-1866900D01*
X+2654300Y-1866900D02*
X+2654300Y-1943100D01*
X+2730500Y-1905000D02*
X+2654300Y-1905000D01*
X+3238500Y-2057400D02*
X+3225800Y-2070100D01*
X+3175000Y-2070100D01*
X+3162300Y-2057400D01*
X+3162300Y-2044700D01*
X+3175000Y-2032000D01*
X+3225800Y-2032000D01*
X+3238500Y-2019300D01*
X+3238500Y-2006600D01*
X+3225800Y-1993900D01*
X+3175000Y-1993900D01*
X+3162300Y-2006600D01*
X+3136900Y-1993900D02*
X+3060700Y-1993900D01*
X+3098800Y-1993900D02*
X+3098800Y-2070100D01*
X+3035300Y-1993900D02*
X+3035300Y-2057400D01*
X+3022600Y-2070100D01*
X+2971800Y-2070100D01*
X+2959100Y-2057400D01*
X+2959100Y-1993900D01*
X+2933700Y-2070100D02*
X+2933700Y-1993900D01*
X+2882900Y-1993900D01*
X+2857500Y-2019300D01*
X+2857500Y-2044700D01*
X+2882900Y-2070100D01*
X+2933700Y-2070100D01*
X+2819400Y-1993900D02*
X+2768600Y-1993900D01*
X+2794000Y-1993900D02*
X+2794000Y-2070100D01*
X+2819400Y-2070100D02*
X+2768600Y-2070100D01*
X+2730500Y-2019300D02*
X+2705100Y-1993900D01*
X+2679700Y-1993900D01*
X+2654300Y-2019300D01*
X+2654300Y-2044700D01*
X+2679700Y-2070100D01*
X+2705100Y-2070100D01*
X+2730500Y-2044700D01*
X+2730500Y-2019300D01*
X+2730500Y-2019300D01*
X-5080000Y-3302000D02*
X+5080000Y-3302000D01*
X+5080000Y+7620000D01*
X-5080000Y+7620000D01*
X-5080000Y-3302000D01*
M02*
