G04 PROTEUS GERBER X2 FILE*
%TF.GenerationSoftware,Labcenter,Proteus,8.5-SP0-Build22067*%
%TF.CreationDate,2018-03-12T21:06:28+00:00*%
%TF.FileFunction,Legend,Bot*%
%TF.FilePolarity,Positive*%
%TF.Part,Single*%
%FSLAX45Y45*%
%MOMM*%
G01*
%TA.AperFunction,Material*%
%ADD20C,0.203200*%
G36*
X+190500Y+7747000D02*
X+63500Y+7747000D01*
X+63500Y+6604000D01*
X+952500Y+6604000D01*
X+952500Y+9398000D01*
X+63500Y+9398000D01*
X+63500Y+8255000D01*
X+190500Y+8255000D01*
X+190500Y+9271000D01*
X+825500Y+9271000D01*
X+825500Y+6731000D01*
X+190500Y+6731000D01*
X+190500Y+7747000D01*
G37*
G36*
X+0Y+7048500D02*
X+0Y+7175500D01*
X+126999Y+7175500D01*
X+126999Y+7048500D01*
X+0Y+7048500D01*
G37*
G36*
X+889000Y+7048500D02*
X+889000Y+7175500D01*
X+1015999Y+7175500D01*
X+1015999Y+7048500D01*
X+889000Y+7048500D01*
G37*
G36*
X+1016000Y+254000D02*
X+1016000Y+381000D01*
X+889000Y+381000D01*
X+1016000Y+254000D01*
G37*
G36*
X+1016000Y+127000D02*
X+762000Y+381000D01*
X+635000Y+381000D01*
X+1016000Y+0D01*
X+1016000Y+127000D01*
G37*
G36*
X+889000Y+0D02*
X+508000Y+381000D01*
X+381000Y+381000D01*
X+762000Y+0D01*
X+889000Y+0D01*
G37*
G36*
X+0Y+127000D02*
X+0Y+0D01*
X+127000Y+0D01*
X+0Y+127000D01*
G37*
G36*
X+0Y+254000D02*
X+254000Y+0D01*
X+381000Y+0D01*
X+0Y+381000D01*
X+0Y+254000D01*
G37*
G36*
X+127000Y+381000D02*
X+508000Y+0D01*
X+635000Y+0D01*
X+254000Y+381000D01*
X+127000Y+381000D01*
G37*
G36*
X+1016000Y+9779000D02*
X+1016000Y+9906000D01*
X+889000Y+9906000D01*
X+1016000Y+9779000D01*
G37*
G36*
X+1016000Y+9652000D02*
X+762000Y+9906000D01*
X+635000Y+9906000D01*
X+1016000Y+9525000D01*
X+1016000Y+9652000D01*
G37*
G36*
X+889000Y+9525000D02*
X+508000Y+9906000D01*
X+381000Y+9906000D01*
X+762000Y+9525000D01*
X+889000Y+9525000D01*
G37*
G36*
X+0Y+9652000D02*
X+0Y+9525000D01*
X+127000Y+9525000D01*
X+0Y+9652000D01*
G37*
G36*
X+0Y+9779000D02*
X+254000Y+9525000D01*
X+381000Y+9525000D01*
X+0Y+9906000D01*
X+0Y+9779000D01*
G37*
G36*
X+127000Y+9906000D02*
X+508000Y+9525000D01*
X+635000Y+9525000D01*
X+254000Y+9906000D01*
X+127000Y+9906000D01*
G37*
D20*
X+736600Y+9135083D02*
X+736600Y+9124923D01*
X+723900Y+9114763D01*
X+673100Y+9114763D01*
X+660400Y+9124923D01*
X+660400Y+9175723D01*
X+622300Y+9175723D02*
X+558800Y+9175723D01*
X+558800Y+9165563D01*
X+622300Y+9114763D01*
X+127000Y+5969000D02*
X+889000Y+5969000D01*
X+889000Y+6223000D01*
X+127000Y+6223000D01*
X+127000Y+5969000D01*
X+960120Y+6197600D02*
X+970280Y+6197600D01*
X+980440Y+6184900D01*
X+980440Y+6134100D01*
X+970280Y+6121400D01*
X+919480Y+6121400D01*
X+939800Y+6070600D02*
X+919480Y+6045200D01*
X+980440Y+6045200D01*
X+127000Y+4953000D02*
X+889000Y+4953000D01*
X+889000Y+5207000D01*
X+127000Y+5207000D01*
X+127000Y+4953000D01*
X+960120Y+5181600D02*
X+970280Y+5181600D01*
X+980440Y+5168900D01*
X+980440Y+5118100D01*
X+970280Y+5105400D01*
X+919480Y+5105400D01*
X+929640Y+5067300D02*
X+919480Y+5054600D01*
X+919480Y+5016500D01*
X+929640Y+5003800D01*
X+939800Y+5003800D01*
X+949960Y+5016500D01*
X+949960Y+5054600D01*
X+960120Y+5067300D01*
X+980440Y+5067300D01*
X+980440Y+5003800D01*
X+127000Y+3937000D02*
X+889000Y+3937000D01*
X+889000Y+4191000D01*
X+127000Y+4191000D01*
X+127000Y+3937000D01*
X+956356Y+4165600D02*
X+966516Y+4165600D01*
X+976676Y+4152900D01*
X+976676Y+4102100D01*
X+966516Y+4089400D01*
X+915716Y+4089400D01*
X+925876Y+4051300D02*
X+915716Y+4038600D01*
X+915716Y+4000500D01*
X+925876Y+3987800D01*
X+936036Y+3987800D01*
X+946196Y+4000500D01*
X+956356Y+3987800D01*
X+966516Y+3987800D01*
X+976676Y+4000500D01*
X+976676Y+4038600D01*
X+966516Y+4051300D01*
X+946196Y+4025900D02*
X+946196Y+4000500D01*
X+127000Y+2921000D02*
X+889000Y+2921000D01*
X+889000Y+3175000D01*
X+127000Y+3175000D01*
X+127000Y+2921000D01*
X+960120Y+3149600D02*
X+970280Y+3149600D01*
X+980440Y+3136900D01*
X+980440Y+3086100D01*
X+970280Y+3073400D01*
X+919480Y+3073400D01*
X+960120Y+2971800D02*
X+960120Y+3048000D01*
X+919480Y+2997200D01*
X+980440Y+2997200D01*
X+127000Y+1905000D02*
X+889000Y+1905000D01*
X+889000Y+2159000D01*
X+127000Y+2159000D01*
X+127000Y+1905000D01*
X+960120Y+2133600D02*
X+970280Y+2133600D01*
X+980440Y+2120900D01*
X+980440Y+2070100D01*
X+970280Y+2057400D01*
X+919480Y+2057400D01*
X+919480Y+1955800D02*
X+919480Y+2019300D01*
X+939800Y+2019300D01*
X+939800Y+1968500D01*
X+949960Y+1955800D01*
X+970280Y+1955800D01*
X+980440Y+1968500D01*
X+980440Y+2006600D01*
X+970280Y+2019300D01*
X+127000Y+889000D02*
X+889000Y+889000D01*
X+889000Y+1143000D01*
X+127000Y+1143000D01*
X+127000Y+889000D01*
X+960120Y+1117600D02*
X+970280Y+1117600D01*
X+980440Y+1104900D01*
X+980440Y+1054100D01*
X+970280Y+1041400D01*
X+919480Y+1041400D01*
X+929640Y+939800D02*
X+919480Y+952500D01*
X+919480Y+990600D01*
X+929640Y+1003300D01*
X+970280Y+1003300D01*
X+980440Y+990600D01*
X+980440Y+952500D01*
X+970280Y+939800D01*
X+960120Y+939800D01*
X+949960Y+952500D01*
X+949960Y+1003300D01*
X+800100Y+5461000D02*
X+749300Y+5461000D01*
X+749300Y+5410200D01*
X+850900Y+5410200D01*
X+901700Y+5461000D01*
X+901700Y+5511800D01*
X+850900Y+5562600D01*
X+774700Y+5562600D01*
X+749300Y+5537200D01*
X+698500Y+5410200D02*
X+698500Y+5511800D01*
X+647700Y+5562600D01*
X+596900Y+5562600D01*
X+546100Y+5511800D01*
X+546100Y+5410200D01*
X+698500Y+5461000D02*
X+546100Y+5461000D01*
X+495300Y+5562600D02*
X+342900Y+5562600D01*
X+419100Y+5562600D02*
X+419100Y+5410200D01*
X+139700Y+5410200D02*
X+292100Y+5410200D01*
X+292100Y+5562600D01*
X+139700Y+5562600D01*
X+292100Y+5486400D02*
X+190500Y+5486400D01*
X+527049Y+6453999D02*
X+552449Y+6428599D01*
X+628649Y+6428599D01*
X+679449Y+6479399D01*
X+679449Y+6530199D01*
X+628649Y+6580999D01*
X+552449Y+6580999D01*
X+527049Y+6555599D01*
X+476249Y+6580999D02*
X+476249Y+6504799D01*
X+400049Y+6428599D01*
X+323849Y+6504799D01*
X+323849Y+6580999D01*
X+812800Y+4464300D02*
X+660400Y+4464300D01*
X+736600Y+4515100D02*
X+736600Y+4413500D01*
X+457200Y+4540500D02*
X+584200Y+4540500D01*
X+584200Y+4489700D01*
X+482600Y+4489700D01*
X+457200Y+4464300D01*
X+457200Y+4413500D01*
X+482600Y+4388100D01*
X+558800Y+4388100D01*
X+584200Y+4413500D01*
X+406400Y+4540500D02*
X+406400Y+4464300D01*
X+330200Y+4388100D01*
X+254000Y+4464300D01*
X+254000Y+4540500D01*
X+914400Y+3454400D02*
X+762000Y+3454400D01*
X+838200Y+3505200D02*
X+838200Y+3403600D01*
X+660400Y+3479800D02*
X+609600Y+3530600D01*
X+609600Y+3378200D01*
X+482600Y+3505200D02*
X+457200Y+3530600D01*
X+381000Y+3530600D01*
X+355600Y+3505200D01*
X+355600Y+3479800D01*
X+381000Y+3454400D01*
X+457200Y+3454400D01*
X+482600Y+3429000D01*
X+482600Y+3378200D01*
X+355600Y+3378200D01*
X+304800Y+3530600D02*
X+304800Y+3454400D01*
X+228600Y+3378200D01*
X+152400Y+3454400D01*
X+152400Y+3530600D01*
X+685800Y+2413000D02*
X+635000Y+2413000D01*
X+635000Y+2362200D01*
X+736600Y+2362200D01*
X+787400Y+2413000D01*
X+787400Y+2463800D01*
X+736600Y+2514600D01*
X+660400Y+2514600D01*
X+635000Y+2489200D01*
X+584200Y+2362200D02*
X+584200Y+2514600D01*
X+431800Y+2362200D01*
X+431800Y+2514600D01*
X+381000Y+2362200D02*
X+381000Y+2514600D01*
X+279400Y+2514600D01*
X+228600Y+2463800D01*
X+228600Y+2413000D01*
X+279400Y+2362200D01*
X+381000Y+2362200D01*
X+889000Y+1422400D02*
X+762000Y+1422400D01*
X+660400Y+1447800D02*
X+609600Y+1498600D01*
X+609600Y+1346200D01*
X+482600Y+1473200D02*
X+457200Y+1498600D01*
X+381000Y+1498600D01*
X+355600Y+1473200D01*
X+355600Y+1447800D01*
X+381000Y+1422400D01*
X+457200Y+1422400D01*
X+482600Y+1397000D01*
X+482600Y+1346200D01*
X+355600Y+1346200D01*
X+304800Y+1498600D02*
X+304800Y+1422400D01*
X+228600Y+1346200D01*
X+152400Y+1422400D01*
X+152400Y+1498600D01*
M02*
