G04 PROTEUS GERBER X2 FILE*
%TF.GenerationSoftware,Labcenter,Proteus,8.5-SP0-Build22067*%
%TF.CreationDate,2018-03-12T21:06:28+00:00*%
%TF.FileFunction,Soldermask,Bot*%
%TF.FilePolarity,Negative*%
%TF.Part,Single*%
%FSLAX45Y45*%
%MOMM*%
G01*
%TA.AperFunction,Material*%
%ADD21C,1.016000*%
%ADD22C,2.454000*%
%ADD23C,2.286000*%
%AMPPAD016*
4,1,36,
-0.393700,1.397000,
0.393700,1.397000,
0.481990,1.388410,
0.563630,1.363690,
0.637060,1.324420,
0.700680,1.272180,
0.752920,1.208560,
0.792190,1.135130,
0.816910,1.053490,
0.825500,0.965200,
0.825500,-0.965200,
0.816910,-1.053490,
0.792190,-1.135130,
0.752920,-1.208560,
0.700680,-1.272180,
0.637060,-1.324420,
0.563630,-1.363690,
0.481990,-1.388410,
0.393700,-1.397000,
-0.393700,-1.397000,
-0.481990,-1.388410,
-0.563630,-1.363690,
-0.637060,-1.324420,
-0.700680,-1.272180,
-0.752920,-1.208560,
-0.792190,-1.135130,
-0.816910,-1.053490,
-0.825500,-0.965200,
-0.825500,0.965200,
-0.816910,1.053490,
-0.792190,1.135130,
-0.752920,1.208560,
-0.700680,1.272180,
-0.637060,1.324420,
-0.563630,1.363690,
-0.481990,1.388410,
-0.393700,1.397000,
0*%
%ADD24PPAD016*%
D21*
X+254000Y+793500D03*
X+254000Y+2825500D03*
X+683000Y+5778500D03*
X+683000Y+4762500D03*
X+762000Y+2635500D03*
X+825500Y+5651500D03*
X+73621Y+6286500D03*
X+127000Y+8445500D03*
X+889000Y+6985000D03*
X+254000Y+3841500D03*
D22*
X+190500Y+9715500D03*
X+190500Y+190500D03*
D23*
X+381000Y+7112000D03*
X+635000Y+7112000D03*
X+381000Y+7366000D03*
X+635000Y+7366000D03*
X+381000Y+7620000D03*
X+635000Y+7620000D03*
X+381000Y+7874000D03*
X+635000Y+7874000D03*
X+381000Y+8128000D03*
X+635000Y+8128000D03*
X+381000Y+8382000D03*
X+635000Y+8382000D03*
X+381000Y+8636000D03*
X+635000Y+8636000D03*
X+381000Y+8890000D03*
X+635000Y+8890000D03*
D24*
X+762000Y+6096000D03*
X+508000Y+6096000D03*
X+254000Y+6096000D03*
X+762000Y+5080000D03*
X+508000Y+5080000D03*
X+254000Y+5080000D03*
X+762000Y+4064000D03*
X+508000Y+4064000D03*
X+254000Y+4064000D03*
X+762000Y+3048000D03*
X+508000Y+3048000D03*
X+254000Y+3048000D03*
X+762000Y+2032000D03*
X+508000Y+2032000D03*
X+254000Y+2032000D03*
X+762000Y+1016000D03*
X+508000Y+1016000D03*
X+254000Y+1016000D03*
D22*
X+825500Y+190500D03*
X+825500Y+9715500D03*
M02*
