G04 PROTEUS RS274X GERBER FILE*
%FSLAX45Y45*%
%MOMM*%
G01*
%ADD13C,0.203200*%
%ADD72C,0.085340*%
%ADD73C,0.091440*%
%ADD30C,0.098470*%
%ADD31C,0.078190*%
D13*
X-3435294Y-2648588D02*
X-2419294Y-2648588D01*
X-2419294Y+7257412D01*
X-3435294Y+7257412D01*
X-3435294Y-2648588D01*
X-3389574Y+775332D02*
X-3100014Y+775332D01*
X-3100014Y+917572D01*
X-3389574Y+917572D01*
X-3389574Y+775332D01*
D72*
X-3261863Y+829383D02*
X-3270398Y+820848D01*
X-3296001Y+820848D01*
X-3313069Y+837917D01*
X-3313069Y+854986D01*
X-3296001Y+872055D01*
X-3270398Y+872055D01*
X-3261863Y+863520D01*
X-3227726Y+854986D02*
X-3210657Y+872055D01*
X-3210657Y+820848D01*
D13*
X-3389574Y+965832D02*
X-3100014Y+965832D01*
X-3100014Y+1108072D01*
X-3389574Y+1108072D01*
X-3389574Y+965832D01*
D72*
X-3261863Y+1019883D02*
X-3270398Y+1011348D01*
X-3296001Y+1011348D01*
X-3313069Y+1028417D01*
X-3313069Y+1045486D01*
X-3296001Y+1062555D01*
X-3270398Y+1062555D01*
X-3261863Y+1054020D01*
X-3236260Y+1054020D02*
X-3227726Y+1062555D01*
X-3202123Y+1062555D01*
X-3193588Y+1054020D01*
X-3193588Y+1045486D01*
X-3202123Y+1036952D01*
X-3227726Y+1036952D01*
X-3236260Y+1028417D01*
X-3236260Y+1011348D01*
X-3193588Y+1011348D01*
D13*
X-3389574Y+1156332D02*
X-3100014Y+1156332D01*
X-3100014Y+1298572D01*
X-3389574Y+1298572D01*
X-3389574Y+1156332D01*
D72*
X-3261863Y+1210383D02*
X-3270398Y+1201848D01*
X-3296001Y+1201848D01*
X-3313069Y+1218917D01*
X-3313069Y+1235986D01*
X-3296001Y+1253055D01*
X-3270398Y+1253055D01*
X-3261863Y+1244520D01*
X-3236260Y+1244520D02*
X-3227726Y+1253055D01*
X-3202123Y+1253055D01*
X-3193588Y+1244520D01*
X-3193588Y+1235986D01*
X-3202123Y+1227452D01*
X-3193588Y+1218917D01*
X-3193588Y+1210383D01*
X-3202123Y+1201848D01*
X-3227726Y+1201848D01*
X-3236260Y+1210383D01*
X-3219191Y+1227452D02*
X-3202123Y+1227452D01*
D13*
X-3389574Y+13332D02*
X-3100014Y+13332D01*
X-3100014Y+155572D01*
X-3389574Y+155572D01*
X-3389574Y+13332D01*
D72*
X-3261863Y+67383D02*
X-3270398Y+58848D01*
X-3296001Y+58848D01*
X-3313069Y+75917D01*
X-3313069Y+92986D01*
X-3296001Y+110055D01*
X-3270398Y+110055D01*
X-3261863Y+101520D01*
X-3193588Y+75917D02*
X-3244794Y+75917D01*
X-3210657Y+110055D01*
X-3210657Y+58848D01*
D13*
X-3389574Y+203832D02*
X-3100014Y+203832D01*
X-3100014Y+346072D01*
X-3389574Y+346072D01*
X-3389574Y+203832D01*
D72*
X-3261863Y+257883D02*
X-3270398Y+249348D01*
X-3296001Y+249348D01*
X-3313069Y+266417D01*
X-3313069Y+283486D01*
X-3296001Y+300555D01*
X-3270398Y+300555D01*
X-3261863Y+292020D01*
X-3193588Y+300555D02*
X-3236260Y+300555D01*
X-3236260Y+283486D01*
X-3202123Y+283486D01*
X-3193588Y+274952D01*
X-3193588Y+257883D01*
X-3202123Y+249348D01*
X-3227726Y+249348D01*
X-3236260Y+257883D01*
D13*
X-3389574Y+394332D02*
X-3100014Y+394332D01*
X-3100014Y+536572D01*
X-3389574Y+536572D01*
X-3389574Y+394332D01*
D72*
X-3261863Y+448383D02*
X-3270398Y+439848D01*
X-3296001Y+439848D01*
X-3313069Y+456917D01*
X-3313069Y+473986D01*
X-3296001Y+491055D01*
X-3270398Y+491055D01*
X-3261863Y+482520D01*
X-3193588Y+482520D02*
X-3202123Y+491055D01*
X-3227726Y+491055D01*
X-3236260Y+482520D01*
X-3236260Y+448383D01*
X-3227726Y+439848D01*
X-3202123Y+439848D01*
X-3193588Y+448383D01*
X-3193588Y+456917D01*
X-3202123Y+465452D01*
X-3236260Y+465452D01*
D13*
X-3389574Y-1510668D02*
X-3100014Y-1510668D01*
X-3100014Y-1368428D01*
X-3389574Y-1368428D01*
X-3389574Y-1510668D01*
D72*
X-3261863Y-1456617D02*
X-3270398Y-1465152D01*
X-3296001Y-1465152D01*
X-3313069Y-1448083D01*
X-3313069Y-1431014D01*
X-3296001Y-1413945D01*
X-3270398Y-1413945D01*
X-3261863Y-1422480D01*
X-3236260Y-1413945D02*
X-3193588Y-1413945D01*
X-3193588Y-1422480D01*
X-3236260Y-1465152D01*
D13*
X-3389574Y-1320168D02*
X-3100014Y-1320168D01*
X-3100014Y-1177928D01*
X-3389574Y-1177928D01*
X-3389574Y-1320168D01*
D72*
X-3261863Y-1266117D02*
X-3270398Y-1274652D01*
X-3296001Y-1274652D01*
X-3313069Y-1257583D01*
X-3313069Y-1240514D01*
X-3296001Y-1223445D01*
X-3270398Y-1223445D01*
X-3261863Y-1231980D01*
X-3227726Y-1249048D02*
X-3236260Y-1240514D01*
X-3236260Y-1231980D01*
X-3227726Y-1223445D01*
X-3202123Y-1223445D01*
X-3193588Y-1231980D01*
X-3193588Y-1240514D01*
X-3202123Y-1249048D01*
X-3227726Y-1249048D01*
X-3236260Y-1257583D01*
X-3236260Y-1266117D01*
X-3227726Y-1274652D01*
X-3202123Y-1274652D01*
X-3193588Y-1266117D01*
X-3193588Y-1257583D01*
X-3202123Y-1249048D01*
D13*
X-3389574Y-1129668D02*
X-3100014Y-1129668D01*
X-3100014Y-987428D01*
X-3389574Y-987428D01*
X-3389574Y-1129668D01*
D72*
X-3261863Y-1075617D02*
X-3270398Y-1084152D01*
X-3296001Y-1084152D01*
X-3313069Y-1067083D01*
X-3313069Y-1050014D01*
X-3296001Y-1032945D01*
X-3270398Y-1032945D01*
X-3261863Y-1041480D01*
X-3193588Y-1050014D02*
X-3202123Y-1058548D01*
X-3227726Y-1058548D01*
X-3236260Y-1050014D01*
X-3236260Y-1041480D01*
X-3227726Y-1032945D01*
X-3202123Y-1032945D01*
X-3193588Y-1041480D01*
X-3193588Y-1075617D01*
X-3202123Y-1084152D01*
X-3227726Y-1084152D01*
D13*
X-3257494Y+2318252D02*
X-3105094Y+2318252D01*
X-3105094Y+2766692D01*
X-3257494Y+2766692D01*
X-3257494Y+2318252D01*
D73*
X-3153862Y+2469320D02*
X-3208726Y+2469320D01*
X-3208726Y+2505896D01*
X-3190438Y+2524184D01*
X-3172150Y+2524184D01*
X-3153862Y+2505896D01*
X-3153862Y+2469320D01*
X-3190438Y+2560760D02*
X-3208726Y+2579048D01*
X-3153862Y+2579048D01*
D13*
X-3003494Y+2318252D02*
X-2851094Y+2318252D01*
X-2851094Y+2766692D01*
X-3003494Y+2766692D01*
X-3003494Y+2318252D01*
D73*
X-2899862Y+2469320D02*
X-2954726Y+2469320D01*
X-2954726Y+2505896D01*
X-2936438Y+2524184D01*
X-2918150Y+2524184D01*
X-2899862Y+2505896D01*
X-2899862Y+2469320D01*
X-2945582Y+2551616D02*
X-2954726Y+2560760D01*
X-2954726Y+2588192D01*
X-2945582Y+2597336D01*
X-2936438Y+2597336D01*
X-2927294Y+2588192D01*
X-2927294Y+2560760D01*
X-2918150Y+2551616D01*
X-2899862Y+2551616D01*
X-2899862Y+2597336D01*
D13*
X-3389574Y+1847212D02*
X-2941134Y+1847212D01*
X-2941134Y+1999612D01*
X-3389574Y+1999612D01*
X-3389574Y+1847212D01*
D73*
X-3238506Y+1895980D02*
X-3238506Y+1950844D01*
X-3201930Y+1950844D01*
X-3183642Y+1932556D01*
X-3183642Y+1914268D01*
X-3201930Y+1895980D01*
X-3238506Y+1895980D01*
X-3156210Y+1941700D02*
X-3147066Y+1950844D01*
X-3119634Y+1950844D01*
X-3110490Y+1941700D01*
X-3110490Y+1932556D01*
X-3119634Y+1923412D01*
X-3110490Y+1914268D01*
X-3110490Y+1905124D01*
X-3119634Y+1895980D01*
X-3147066Y+1895980D01*
X-3156210Y+1905124D01*
X-3137922Y+1923412D02*
X-3119634Y+1923412D01*
D13*
X-3389574Y-692788D02*
X-2941134Y-692788D01*
X-2941134Y-540388D01*
X-3389574Y-540388D01*
X-3389574Y-692788D01*
D73*
X-3238506Y-644020D02*
X-3238506Y-589156D01*
X-3201930Y-589156D01*
X-3183642Y-607444D01*
X-3183642Y-625732D01*
X-3201930Y-644020D01*
X-3238506Y-644020D01*
X-3110490Y-625732D02*
X-3165354Y-625732D01*
X-3128778Y-589156D01*
X-3128778Y-644020D01*
D13*
X-3389574Y-2216788D02*
X-2941134Y-2216788D01*
X-2941134Y-2064388D01*
X-3389574Y-2064388D01*
X-3389574Y-2216788D01*
D73*
X-3238506Y-2168020D02*
X-3238506Y-2113156D01*
X-3201930Y-2113156D01*
X-3183642Y-2131444D01*
X-3183642Y-2149732D01*
X-3201930Y-2168020D01*
X-3238506Y-2168020D01*
X-3110490Y-2113156D02*
X-3156210Y-2113156D01*
X-3156210Y-2131444D01*
X-3119634Y-2131444D01*
X-3110490Y-2140588D01*
X-3110490Y-2158876D01*
X-3119634Y-2168020D01*
X-3147066Y-2168020D01*
X-3156210Y-2158876D01*
D13*
X-3389574Y+1587352D02*
X-2973014Y+1587352D01*
X-2973014Y+1751472D01*
X-3389574Y+1751472D01*
X-3389574Y+1587352D01*
D30*
X-3260071Y+1698953D02*
X-3260071Y+1639870D01*
X-3200989Y+1639870D01*
X-3161600Y+1679259D02*
X-3141906Y+1698953D01*
X-3141906Y+1639870D01*
D13*
X-3389574Y-444648D02*
X-2973014Y-444648D01*
X-2973014Y-280528D01*
X-3389574Y-280528D01*
X-3389574Y-444648D01*
D30*
X-3260071Y-333047D02*
X-3260071Y-392130D01*
X-3200989Y-392130D01*
X-3171447Y-342894D02*
X-3161600Y-333047D01*
X-3132059Y-333047D01*
X-3122212Y-342894D01*
X-3122212Y-352741D01*
X-3132059Y-362588D01*
X-3161600Y-362588D01*
X-3171447Y-372436D01*
X-3171447Y-392130D01*
X-3122212Y-392130D01*
D13*
X-3389574Y-1968648D02*
X-2973014Y-1968648D01*
X-2973014Y-1804528D01*
X-3389574Y-1804528D01*
X-3389574Y-1968648D01*
D30*
X-3260071Y-1857047D02*
X-3260071Y-1916130D01*
X-3200989Y-1916130D01*
X-3171447Y-1866894D02*
X-3161600Y-1857047D01*
X-3132059Y-1857047D01*
X-3122212Y-1866894D01*
X-3122212Y-1876741D01*
X-3132059Y-1886588D01*
X-3122212Y-1896436D01*
X-3122212Y-1906283D01*
X-3132059Y-1916130D01*
X-3161600Y-1916130D01*
X-3171447Y-1906283D01*
X-3151753Y-1886588D02*
X-3132059Y-1886588D01*
D13*
X-2881574Y+1587352D02*
X-2465014Y+1587352D01*
X-2465014Y+1751472D01*
X-2881574Y+1751472D01*
X-2881574Y+1587352D01*
D30*
X-2752071Y+1639870D02*
X-2752071Y+1698953D01*
X-2692989Y+1698953D01*
X-2752071Y+1669412D02*
X-2712683Y+1669412D01*
X-2653600Y+1679259D02*
X-2633906Y+1698953D01*
X-2633906Y+1639870D01*
D13*
X-2881574Y-444648D02*
X-2465014Y-444648D01*
X-2465014Y-280528D01*
X-2881574Y-280528D01*
X-2881574Y-444648D01*
D30*
X-2752071Y-392130D02*
X-2752071Y-333047D01*
X-2692989Y-333047D01*
X-2752071Y-362588D02*
X-2712683Y-362588D01*
X-2663447Y-342894D02*
X-2653600Y-333047D01*
X-2624059Y-333047D01*
X-2614212Y-342894D01*
X-2614212Y-352741D01*
X-2624059Y-362588D01*
X-2653600Y-362588D01*
X-2663447Y-372436D01*
X-2663447Y-392130D01*
X-2614212Y-392130D01*
D13*
X-2881574Y-1968648D02*
X-2465014Y-1968648D01*
X-2465014Y-1804528D01*
X-2881574Y-1804528D01*
X-2881574Y-1968648D01*
D30*
X-2752071Y-1916130D02*
X-2752071Y-1857047D01*
X-2692989Y-1857047D01*
X-2752071Y-1886588D02*
X-2712683Y-1886588D01*
X-2663447Y-1866894D02*
X-2653600Y-1857047D01*
X-2624059Y-1857047D01*
X-2614212Y-1866894D01*
X-2614212Y-1876741D01*
X-2624059Y-1886588D01*
X-2614212Y-1896436D01*
X-2614212Y-1906283D01*
X-2624059Y-1916130D01*
X-2653600Y-1916130D01*
X-2663447Y-1906283D01*
X-2643753Y-1886588D02*
X-2624059Y-1886588D01*
D13*
X-3008574Y+13332D02*
X-2719014Y+13332D01*
X-2719014Y+155572D01*
X-3008574Y+155572D01*
X-3008574Y+13332D01*
D72*
X-2932069Y+58848D02*
X-2932069Y+110055D01*
X-2889398Y+110055D01*
X-2880863Y+101520D01*
X-2880863Y+92986D01*
X-2889398Y+84452D01*
X-2932069Y+84452D01*
X-2889398Y+84452D02*
X-2880863Y+75917D01*
X-2880863Y+58848D01*
X-2855260Y+101520D02*
X-2846726Y+110055D01*
X-2821123Y+110055D01*
X-2812588Y+101520D01*
X-2812588Y+92986D01*
X-2821123Y+84452D01*
X-2846726Y+84452D01*
X-2855260Y+75917D01*
X-2855260Y+58848D01*
X-2812588Y+58848D01*
D13*
X-3008574Y+969252D02*
X-2673634Y+969252D01*
X-2673634Y+1099572D01*
X-3008574Y+1099572D01*
X-3008574Y+969252D01*
D31*
X-2903657Y+1010954D02*
X-2903657Y+1057869D01*
X-2872381Y+1057869D01*
X-2856743Y+1042231D01*
X-2856743Y+1026592D01*
X-2872381Y+1010954D01*
X-2903657Y+1010954D01*
X-2794190Y+1050050D02*
X-2802009Y+1057869D01*
X-2825466Y+1057869D01*
X-2833285Y+1050050D01*
X-2833285Y+1018773D01*
X-2825466Y+1010954D01*
X-2802009Y+1010954D01*
X-2794190Y+1018773D01*
X-2794190Y+1026592D01*
X-2802009Y+1034412D01*
X-2833285Y+1034412D01*
D13*
X-3008574Y+207252D02*
X-2673634Y+207252D01*
X-2673634Y+337572D01*
X-3008574Y+337572D01*
X-3008574Y+207252D01*
D31*
X-2903657Y+248954D02*
X-2903657Y+295869D01*
X-2872381Y+295869D01*
X-2856743Y+280231D01*
X-2856743Y+264592D01*
X-2872381Y+248954D01*
X-2903657Y+248954D01*
X-2833285Y+295869D02*
X-2794190Y+295869D01*
X-2794190Y+288050D01*
X-2833285Y+248954D01*
D13*
X-3008574Y-1316748D02*
X-2673634Y-1316748D01*
X-2673634Y-1186428D01*
X-3008574Y-1186428D01*
X-3008574Y-1316748D01*
D31*
X-2903657Y-1275046D02*
X-2903657Y-1228131D01*
X-2872381Y-1228131D01*
X-2856743Y-1243769D01*
X-2856743Y-1259408D01*
X-2872381Y-1275046D01*
X-2903657Y-1275046D01*
X-2825466Y-1251588D02*
X-2833285Y-1243769D01*
X-2833285Y-1235950D01*
X-2825466Y-1228131D01*
X-2802009Y-1228131D01*
X-2794190Y-1235950D01*
X-2794190Y-1243769D01*
X-2802009Y-1251588D01*
X-2825466Y-1251588D01*
X-2833285Y-1259408D01*
X-2833285Y-1267227D01*
X-2825466Y-1275046D01*
X-2802009Y-1275046D01*
X-2794190Y-1267227D01*
X-2794190Y-1259408D01*
X-2802009Y-1251588D01*
D13*
X-3008574Y-1510668D02*
X-2719014Y-1510668D01*
X-2719014Y-1368428D01*
X-3008574Y-1368428D01*
X-3008574Y-1510668D01*
D72*
X-2932069Y-1465152D02*
X-2932069Y-1413945D01*
X-2889398Y-1413945D01*
X-2880863Y-1422480D01*
X-2880863Y-1431014D01*
X-2889398Y-1439548D01*
X-2932069Y-1439548D01*
X-2889398Y-1439548D02*
X-2880863Y-1448083D01*
X-2880863Y-1465152D01*
X-2855260Y-1422480D02*
X-2846726Y-1413945D01*
X-2821123Y-1413945D01*
X-2812588Y-1422480D01*
X-2812588Y-1431014D01*
X-2821123Y-1439548D01*
X-2812588Y-1448083D01*
X-2812588Y-1456617D01*
X-2821123Y-1465152D01*
X-2846726Y-1465152D01*
X-2855260Y-1456617D01*
X-2838191Y-1439548D02*
X-2821123Y-1439548D01*
D13*
X-3008574Y+775332D02*
X-2719014Y+775332D01*
X-2719014Y+917572D01*
X-3008574Y+917572D01*
X-3008574Y+775332D01*
D72*
X-2932069Y+820848D02*
X-2932069Y+872055D01*
X-2889398Y+872055D01*
X-2880863Y+863520D01*
X-2880863Y+854986D01*
X-2889398Y+846452D01*
X-2932069Y+846452D01*
X-2889398Y+846452D02*
X-2880863Y+837917D01*
X-2880863Y+820848D01*
X-2846726Y+854986D02*
X-2829657Y+872055D01*
X-2829657Y+820848D01*
X-2829657Y+820848D01*
D13*
X-2286000Y-2667000D02*
X-1270000Y-2667000D01*
X-1270000Y+7239000D01*
X-2286000Y+7239000D01*
X-2286000Y-2667000D01*
X-2240280Y+756920D02*
X-1950720Y+756920D01*
X-1950720Y+899160D01*
X-2240280Y+899160D01*
X-2240280Y+756920D01*
D72*
X-2112569Y+810971D02*
X-2121104Y+802436D01*
X-2146707Y+802436D01*
X-2163775Y+819505D01*
X-2163775Y+836574D01*
X-2146707Y+853643D01*
X-2121104Y+853643D01*
X-2112569Y+845108D01*
X-2078432Y+836574D02*
X-2061363Y+853643D01*
X-2061363Y+802436D01*
D13*
X-2240280Y+947420D02*
X-1950720Y+947420D01*
X-1950720Y+1089660D01*
X-2240280Y+1089660D01*
X-2240280Y+947420D01*
D72*
X-2112569Y+1001471D02*
X-2121104Y+992936D01*
X-2146707Y+992936D01*
X-2163775Y+1010005D01*
X-2163775Y+1027074D01*
X-2146707Y+1044143D01*
X-2121104Y+1044143D01*
X-2112569Y+1035608D01*
X-2086966Y+1035608D02*
X-2078432Y+1044143D01*
X-2052829Y+1044143D01*
X-2044294Y+1035608D01*
X-2044294Y+1027074D01*
X-2052829Y+1018540D01*
X-2078432Y+1018540D01*
X-2086966Y+1010005D01*
X-2086966Y+992936D01*
X-2044294Y+992936D01*
D13*
X-2240280Y+1137920D02*
X-1950720Y+1137920D01*
X-1950720Y+1280160D01*
X-2240280Y+1280160D01*
X-2240280Y+1137920D01*
D72*
X-2112569Y+1191971D02*
X-2121104Y+1183436D01*
X-2146707Y+1183436D01*
X-2163775Y+1200505D01*
X-2163775Y+1217574D01*
X-2146707Y+1234643D01*
X-2121104Y+1234643D01*
X-2112569Y+1226108D01*
X-2086966Y+1226108D02*
X-2078432Y+1234643D01*
X-2052829Y+1234643D01*
X-2044294Y+1226108D01*
X-2044294Y+1217574D01*
X-2052829Y+1209040D01*
X-2044294Y+1200505D01*
X-2044294Y+1191971D01*
X-2052829Y+1183436D01*
X-2078432Y+1183436D01*
X-2086966Y+1191971D01*
X-2069897Y+1209040D02*
X-2052829Y+1209040D01*
D13*
X-2240280Y-5080D02*
X-1950720Y-5080D01*
X-1950720Y+137160D01*
X-2240280Y+137160D01*
X-2240280Y-5080D01*
D72*
X-2112569Y+48971D02*
X-2121104Y+40436D01*
X-2146707Y+40436D01*
X-2163775Y+57505D01*
X-2163775Y+74574D01*
X-2146707Y+91643D01*
X-2121104Y+91643D01*
X-2112569Y+83108D01*
X-2044294Y+57505D02*
X-2095500Y+57505D01*
X-2061363Y+91643D01*
X-2061363Y+40436D01*
D13*
X-2240280Y+185420D02*
X-1950720Y+185420D01*
X-1950720Y+327660D01*
X-2240280Y+327660D01*
X-2240280Y+185420D01*
D72*
X-2112569Y+239471D02*
X-2121104Y+230936D01*
X-2146707Y+230936D01*
X-2163775Y+248005D01*
X-2163775Y+265074D01*
X-2146707Y+282143D01*
X-2121104Y+282143D01*
X-2112569Y+273608D01*
X-2044294Y+282143D02*
X-2086966Y+282143D01*
X-2086966Y+265074D01*
X-2052829Y+265074D01*
X-2044294Y+256540D01*
X-2044294Y+239471D01*
X-2052829Y+230936D01*
X-2078432Y+230936D01*
X-2086966Y+239471D01*
D13*
X-2240280Y+375920D02*
X-1950720Y+375920D01*
X-1950720Y+518160D01*
X-2240280Y+518160D01*
X-2240280Y+375920D01*
D72*
X-2112569Y+429971D02*
X-2121104Y+421436D01*
X-2146707Y+421436D01*
X-2163775Y+438505D01*
X-2163775Y+455574D01*
X-2146707Y+472643D01*
X-2121104Y+472643D01*
X-2112569Y+464108D01*
X-2044294Y+464108D02*
X-2052829Y+472643D01*
X-2078432Y+472643D01*
X-2086966Y+464108D01*
X-2086966Y+429971D01*
X-2078432Y+421436D01*
X-2052829Y+421436D01*
X-2044294Y+429971D01*
X-2044294Y+438505D01*
X-2052829Y+447040D01*
X-2086966Y+447040D01*
D13*
X-2240280Y-1529080D02*
X-1950720Y-1529080D01*
X-1950720Y-1386840D01*
X-2240280Y-1386840D01*
X-2240280Y-1529080D01*
D72*
X-2112569Y-1475029D02*
X-2121104Y-1483564D01*
X-2146707Y-1483564D01*
X-2163775Y-1466495D01*
X-2163775Y-1449426D01*
X-2146707Y-1432357D01*
X-2121104Y-1432357D01*
X-2112569Y-1440892D01*
X-2086966Y-1432357D02*
X-2044294Y-1432357D01*
X-2044294Y-1440892D01*
X-2086966Y-1483564D01*
D13*
X-2240280Y-1338580D02*
X-1950720Y-1338580D01*
X-1950720Y-1196340D01*
X-2240280Y-1196340D01*
X-2240280Y-1338580D01*
D72*
X-2112569Y-1284529D02*
X-2121104Y-1293064D01*
X-2146707Y-1293064D01*
X-2163775Y-1275995D01*
X-2163775Y-1258926D01*
X-2146707Y-1241857D01*
X-2121104Y-1241857D01*
X-2112569Y-1250392D01*
X-2078432Y-1267460D02*
X-2086966Y-1258926D01*
X-2086966Y-1250392D01*
X-2078432Y-1241857D01*
X-2052829Y-1241857D01*
X-2044294Y-1250392D01*
X-2044294Y-1258926D01*
X-2052829Y-1267460D01*
X-2078432Y-1267460D01*
X-2086966Y-1275995D01*
X-2086966Y-1284529D01*
X-2078432Y-1293064D01*
X-2052829Y-1293064D01*
X-2044294Y-1284529D01*
X-2044294Y-1275995D01*
X-2052829Y-1267460D01*
D13*
X-2240280Y-1148080D02*
X-1950720Y-1148080D01*
X-1950720Y-1005840D01*
X-2240280Y-1005840D01*
X-2240280Y-1148080D01*
D72*
X-2112569Y-1094029D02*
X-2121104Y-1102564D01*
X-2146707Y-1102564D01*
X-2163775Y-1085495D01*
X-2163775Y-1068426D01*
X-2146707Y-1051357D01*
X-2121104Y-1051357D01*
X-2112569Y-1059892D01*
X-2044294Y-1068426D02*
X-2052829Y-1076960D01*
X-2078432Y-1076960D01*
X-2086966Y-1068426D01*
X-2086966Y-1059892D01*
X-2078432Y-1051357D01*
X-2052829Y-1051357D01*
X-2044294Y-1059892D01*
X-2044294Y-1094029D01*
X-2052829Y-1102564D01*
X-2078432Y-1102564D01*
D13*
X-2108200Y+2299840D02*
X-1955800Y+2299840D01*
X-1955800Y+2748280D01*
X-2108200Y+2748280D01*
X-2108200Y+2299840D01*
D73*
X-2004568Y+2450908D02*
X-2059432Y+2450908D01*
X-2059432Y+2487484D01*
X-2041144Y+2505772D01*
X-2022856Y+2505772D01*
X-2004568Y+2487484D01*
X-2004568Y+2450908D01*
X-2041144Y+2542348D02*
X-2059432Y+2560636D01*
X-2004568Y+2560636D01*
D13*
X-1854200Y+2299840D02*
X-1701800Y+2299840D01*
X-1701800Y+2748280D01*
X-1854200Y+2748280D01*
X-1854200Y+2299840D01*
D73*
X-1750568Y+2450908D02*
X-1805432Y+2450908D01*
X-1805432Y+2487484D01*
X-1787144Y+2505772D01*
X-1768856Y+2505772D01*
X-1750568Y+2487484D01*
X-1750568Y+2450908D01*
X-1796288Y+2533204D02*
X-1805432Y+2542348D01*
X-1805432Y+2569780D01*
X-1796288Y+2578924D01*
X-1787144Y+2578924D01*
X-1778000Y+2569780D01*
X-1778000Y+2542348D01*
X-1768856Y+2533204D01*
X-1750568Y+2533204D01*
X-1750568Y+2578924D01*
D13*
X-2240280Y+1828800D02*
X-1791840Y+1828800D01*
X-1791840Y+1981200D01*
X-2240280Y+1981200D01*
X-2240280Y+1828800D01*
D73*
X-2089212Y+1877568D02*
X-2089212Y+1932432D01*
X-2052636Y+1932432D01*
X-2034348Y+1914144D01*
X-2034348Y+1895856D01*
X-2052636Y+1877568D01*
X-2089212Y+1877568D01*
X-2006916Y+1923288D02*
X-1997772Y+1932432D01*
X-1970340Y+1932432D01*
X-1961196Y+1923288D01*
X-1961196Y+1914144D01*
X-1970340Y+1905000D01*
X-1961196Y+1895856D01*
X-1961196Y+1886712D01*
X-1970340Y+1877568D01*
X-1997772Y+1877568D01*
X-2006916Y+1886712D01*
X-1988628Y+1905000D02*
X-1970340Y+1905000D01*
D13*
X-2240280Y-711200D02*
X-1791840Y-711200D01*
X-1791840Y-558800D01*
X-2240280Y-558800D01*
X-2240280Y-711200D01*
D73*
X-2089212Y-662432D02*
X-2089212Y-607568D01*
X-2052636Y-607568D01*
X-2034348Y-625856D01*
X-2034348Y-644144D01*
X-2052636Y-662432D01*
X-2089212Y-662432D01*
X-1961196Y-644144D02*
X-2016060Y-644144D01*
X-1979484Y-607568D01*
X-1979484Y-662432D01*
D13*
X-2240280Y-2235200D02*
X-1791840Y-2235200D01*
X-1791840Y-2082800D01*
X-2240280Y-2082800D01*
X-2240280Y-2235200D01*
D73*
X-2089212Y-2186432D02*
X-2089212Y-2131568D01*
X-2052636Y-2131568D01*
X-2034348Y-2149856D01*
X-2034348Y-2168144D01*
X-2052636Y-2186432D01*
X-2089212Y-2186432D01*
X-1961196Y-2131568D02*
X-2006916Y-2131568D01*
X-2006916Y-2149856D01*
X-1970340Y-2149856D01*
X-1961196Y-2159000D01*
X-1961196Y-2177288D01*
X-1970340Y-2186432D01*
X-1997772Y-2186432D01*
X-2006916Y-2177288D01*
D13*
X-2240280Y+1568940D02*
X-1823720Y+1568940D01*
X-1823720Y+1733060D01*
X-2240280Y+1733060D01*
X-2240280Y+1568940D01*
D30*
X-2110777Y+1680541D02*
X-2110777Y+1621458D01*
X-2051695Y+1621458D01*
X-2012306Y+1660847D02*
X-1992612Y+1680541D01*
X-1992612Y+1621458D01*
D13*
X-2240280Y-463060D02*
X-1823720Y-463060D01*
X-1823720Y-298940D01*
X-2240280Y-298940D01*
X-2240280Y-463060D01*
D30*
X-2110777Y-351459D02*
X-2110777Y-410542D01*
X-2051695Y-410542D01*
X-2022153Y-361306D02*
X-2012306Y-351459D01*
X-1982765Y-351459D01*
X-1972918Y-361306D01*
X-1972918Y-371153D01*
X-1982765Y-381000D01*
X-2012306Y-381000D01*
X-2022153Y-390848D01*
X-2022153Y-410542D01*
X-1972918Y-410542D01*
D13*
X-2240280Y-1987060D02*
X-1823720Y-1987060D01*
X-1823720Y-1822940D01*
X-2240280Y-1822940D01*
X-2240280Y-1987060D01*
D30*
X-2110777Y-1875459D02*
X-2110777Y-1934542D01*
X-2051695Y-1934542D01*
X-2022153Y-1885306D02*
X-2012306Y-1875459D01*
X-1982765Y-1875459D01*
X-1972918Y-1885306D01*
X-1972918Y-1895153D01*
X-1982765Y-1905000D01*
X-1972918Y-1914848D01*
X-1972918Y-1924695D01*
X-1982765Y-1934542D01*
X-2012306Y-1934542D01*
X-2022153Y-1924695D01*
X-2002459Y-1905000D02*
X-1982765Y-1905000D01*
D13*
X-1732280Y+1568940D02*
X-1315720Y+1568940D01*
X-1315720Y+1733060D01*
X-1732280Y+1733060D01*
X-1732280Y+1568940D01*
D30*
X-1602777Y+1621458D02*
X-1602777Y+1680541D01*
X-1543695Y+1680541D01*
X-1602777Y+1651000D02*
X-1563389Y+1651000D01*
X-1504306Y+1660847D02*
X-1484612Y+1680541D01*
X-1484612Y+1621458D01*
D13*
X-1732280Y-463060D02*
X-1315720Y-463060D01*
X-1315720Y-298940D01*
X-1732280Y-298940D01*
X-1732280Y-463060D01*
D30*
X-1602777Y-410542D02*
X-1602777Y-351459D01*
X-1543695Y-351459D01*
X-1602777Y-381000D02*
X-1563389Y-381000D01*
X-1514153Y-361306D02*
X-1504306Y-351459D01*
X-1474765Y-351459D01*
X-1464918Y-361306D01*
X-1464918Y-371153D01*
X-1474765Y-381000D01*
X-1504306Y-381000D01*
X-1514153Y-390848D01*
X-1514153Y-410542D01*
X-1464918Y-410542D01*
D13*
X-1732280Y-1987060D02*
X-1315720Y-1987060D01*
X-1315720Y-1822940D01*
X-1732280Y-1822940D01*
X-1732280Y-1987060D01*
D30*
X-1602777Y-1934542D02*
X-1602777Y-1875459D01*
X-1543695Y-1875459D01*
X-1602777Y-1905000D02*
X-1563389Y-1905000D01*
X-1514153Y-1885306D02*
X-1504306Y-1875459D01*
X-1474765Y-1875459D01*
X-1464918Y-1885306D01*
X-1464918Y-1895153D01*
X-1474765Y-1905000D01*
X-1464918Y-1914848D01*
X-1464918Y-1924695D01*
X-1474765Y-1934542D01*
X-1504306Y-1934542D01*
X-1514153Y-1924695D01*
X-1494459Y-1905000D02*
X-1474765Y-1905000D01*
D13*
X-1859280Y-5080D02*
X-1569720Y-5080D01*
X-1569720Y+137160D01*
X-1859280Y+137160D01*
X-1859280Y-5080D01*
D72*
X-1782775Y+40436D02*
X-1782775Y+91643D01*
X-1740104Y+91643D01*
X-1731569Y+83108D01*
X-1731569Y+74574D01*
X-1740104Y+66040D01*
X-1782775Y+66040D01*
X-1740104Y+66040D02*
X-1731569Y+57505D01*
X-1731569Y+40436D01*
X-1705966Y+83108D02*
X-1697432Y+91643D01*
X-1671829Y+91643D01*
X-1663294Y+83108D01*
X-1663294Y+74574D01*
X-1671829Y+66040D01*
X-1697432Y+66040D01*
X-1705966Y+57505D01*
X-1705966Y+40436D01*
X-1663294Y+40436D01*
D13*
X-1859280Y+950840D02*
X-1524340Y+950840D01*
X-1524340Y+1081160D01*
X-1859280Y+1081160D01*
X-1859280Y+950840D01*
D31*
X-1754363Y+992542D02*
X-1754363Y+1039457D01*
X-1723087Y+1039457D01*
X-1707449Y+1023819D01*
X-1707449Y+1008180D01*
X-1723087Y+992542D01*
X-1754363Y+992542D01*
X-1644896Y+1031638D02*
X-1652715Y+1039457D01*
X-1676172Y+1039457D01*
X-1683991Y+1031638D01*
X-1683991Y+1000361D01*
X-1676172Y+992542D01*
X-1652715Y+992542D01*
X-1644896Y+1000361D01*
X-1644896Y+1008180D01*
X-1652715Y+1016000D01*
X-1683991Y+1016000D01*
D13*
X-1859280Y+188840D02*
X-1524340Y+188840D01*
X-1524340Y+319160D01*
X-1859280Y+319160D01*
X-1859280Y+188840D01*
D31*
X-1754363Y+230542D02*
X-1754363Y+277457D01*
X-1723087Y+277457D01*
X-1707449Y+261819D01*
X-1707449Y+246180D01*
X-1723087Y+230542D01*
X-1754363Y+230542D01*
X-1683991Y+277457D02*
X-1644896Y+277457D01*
X-1644896Y+269638D01*
X-1683991Y+230542D01*
D13*
X-1859280Y-1335160D02*
X-1524340Y-1335160D01*
X-1524340Y-1204840D01*
X-1859280Y-1204840D01*
X-1859280Y-1335160D01*
D31*
X-1754363Y-1293458D02*
X-1754363Y-1246543D01*
X-1723087Y-1246543D01*
X-1707449Y-1262181D01*
X-1707449Y-1277820D01*
X-1723087Y-1293458D01*
X-1754363Y-1293458D01*
X-1676172Y-1270000D02*
X-1683991Y-1262181D01*
X-1683991Y-1254362D01*
X-1676172Y-1246543D01*
X-1652715Y-1246543D01*
X-1644896Y-1254362D01*
X-1644896Y-1262181D01*
X-1652715Y-1270000D01*
X-1676172Y-1270000D01*
X-1683991Y-1277820D01*
X-1683991Y-1285639D01*
X-1676172Y-1293458D01*
X-1652715Y-1293458D01*
X-1644896Y-1285639D01*
X-1644896Y-1277820D01*
X-1652715Y-1270000D01*
D13*
X-1859280Y-1529080D02*
X-1569720Y-1529080D01*
X-1569720Y-1386840D01*
X-1859280Y-1386840D01*
X-1859280Y-1529080D01*
D72*
X-1782775Y-1483564D02*
X-1782775Y-1432357D01*
X-1740104Y-1432357D01*
X-1731569Y-1440892D01*
X-1731569Y-1449426D01*
X-1740104Y-1457960D01*
X-1782775Y-1457960D01*
X-1740104Y-1457960D02*
X-1731569Y-1466495D01*
X-1731569Y-1483564D01*
X-1705966Y-1440892D02*
X-1697432Y-1432357D01*
X-1671829Y-1432357D01*
X-1663294Y-1440892D01*
X-1663294Y-1449426D01*
X-1671829Y-1457960D01*
X-1663294Y-1466495D01*
X-1663294Y-1475029D01*
X-1671829Y-1483564D01*
X-1697432Y-1483564D01*
X-1705966Y-1475029D01*
X-1688897Y-1457960D02*
X-1671829Y-1457960D01*
D13*
X-1859280Y+756920D02*
X-1569720Y+756920D01*
X-1569720Y+899160D01*
X-1859280Y+899160D01*
X-1859280Y+756920D01*
D72*
X-1782775Y+802436D02*
X-1782775Y+853643D01*
X-1740104Y+853643D01*
X-1731569Y+845108D01*
X-1731569Y+836574D01*
X-1740104Y+828040D01*
X-1782775Y+828040D01*
X-1740104Y+828040D02*
X-1731569Y+819505D01*
X-1731569Y+802436D01*
X-1697432Y+836574D02*
X-1680363Y+853643D01*
X-1680363Y+802436D01*
X-1680363Y+802436D01*
D13*
X-1143000Y-2667000D02*
X-127000Y-2667000D01*
X-127000Y+7239000D01*
X-1143000Y+7239000D01*
X-1143000Y-2667000D01*
X-1097280Y+756920D02*
X-807720Y+756920D01*
X-807720Y+899160D01*
X-1097280Y+899160D01*
X-1097280Y+756920D01*
D72*
X-969569Y+810971D02*
X-978104Y+802436D01*
X-1003707Y+802436D01*
X-1020775Y+819505D01*
X-1020775Y+836574D01*
X-1003707Y+853643D01*
X-978104Y+853643D01*
X-969569Y+845108D01*
X-935432Y+836574D02*
X-918363Y+853643D01*
X-918363Y+802436D01*
D13*
X-1097280Y+947420D02*
X-807720Y+947420D01*
X-807720Y+1089660D01*
X-1097280Y+1089660D01*
X-1097280Y+947420D01*
D72*
X-969569Y+1001471D02*
X-978104Y+992936D01*
X-1003707Y+992936D01*
X-1020775Y+1010005D01*
X-1020775Y+1027074D01*
X-1003707Y+1044143D01*
X-978104Y+1044143D01*
X-969569Y+1035608D01*
X-943966Y+1035608D02*
X-935432Y+1044143D01*
X-909829Y+1044143D01*
X-901294Y+1035608D01*
X-901294Y+1027074D01*
X-909829Y+1018540D01*
X-935432Y+1018540D01*
X-943966Y+1010005D01*
X-943966Y+992936D01*
X-901294Y+992936D01*
D13*
X-1097280Y+1137920D02*
X-807720Y+1137920D01*
X-807720Y+1280160D01*
X-1097280Y+1280160D01*
X-1097280Y+1137920D01*
D72*
X-969569Y+1191971D02*
X-978104Y+1183436D01*
X-1003707Y+1183436D01*
X-1020775Y+1200505D01*
X-1020775Y+1217574D01*
X-1003707Y+1234643D01*
X-978104Y+1234643D01*
X-969569Y+1226108D01*
X-943966Y+1226108D02*
X-935432Y+1234643D01*
X-909829Y+1234643D01*
X-901294Y+1226108D01*
X-901294Y+1217574D01*
X-909829Y+1209040D01*
X-901294Y+1200505D01*
X-901294Y+1191971D01*
X-909829Y+1183436D01*
X-935432Y+1183436D01*
X-943966Y+1191971D01*
X-926897Y+1209040D02*
X-909829Y+1209040D01*
D13*
X-1097280Y-5080D02*
X-807720Y-5080D01*
X-807720Y+137160D01*
X-1097280Y+137160D01*
X-1097280Y-5080D01*
D72*
X-969569Y+48971D02*
X-978104Y+40436D01*
X-1003707Y+40436D01*
X-1020775Y+57505D01*
X-1020775Y+74574D01*
X-1003707Y+91643D01*
X-978104Y+91643D01*
X-969569Y+83108D01*
X-901294Y+57505D02*
X-952500Y+57505D01*
X-918363Y+91643D01*
X-918363Y+40436D01*
D13*
X-1097280Y+185420D02*
X-807720Y+185420D01*
X-807720Y+327660D01*
X-1097280Y+327660D01*
X-1097280Y+185420D01*
D72*
X-969569Y+239471D02*
X-978104Y+230936D01*
X-1003707Y+230936D01*
X-1020775Y+248005D01*
X-1020775Y+265074D01*
X-1003707Y+282143D01*
X-978104Y+282143D01*
X-969569Y+273608D01*
X-901294Y+282143D02*
X-943966Y+282143D01*
X-943966Y+265074D01*
X-909829Y+265074D01*
X-901294Y+256540D01*
X-901294Y+239471D01*
X-909829Y+230936D01*
X-935432Y+230936D01*
X-943966Y+239471D01*
D13*
X-1097280Y+375920D02*
X-807720Y+375920D01*
X-807720Y+518160D01*
X-1097280Y+518160D01*
X-1097280Y+375920D01*
D72*
X-969569Y+429971D02*
X-978104Y+421436D01*
X-1003707Y+421436D01*
X-1020775Y+438505D01*
X-1020775Y+455574D01*
X-1003707Y+472643D01*
X-978104Y+472643D01*
X-969569Y+464108D01*
X-901294Y+464108D02*
X-909829Y+472643D01*
X-935432Y+472643D01*
X-943966Y+464108D01*
X-943966Y+429971D01*
X-935432Y+421436D01*
X-909829Y+421436D01*
X-901294Y+429971D01*
X-901294Y+438505D01*
X-909829Y+447040D01*
X-943966Y+447040D01*
D13*
X-1097280Y-1529080D02*
X-807720Y-1529080D01*
X-807720Y-1386840D01*
X-1097280Y-1386840D01*
X-1097280Y-1529080D01*
D72*
X-969569Y-1475029D02*
X-978104Y-1483564D01*
X-1003707Y-1483564D01*
X-1020775Y-1466495D01*
X-1020775Y-1449426D01*
X-1003707Y-1432357D01*
X-978104Y-1432357D01*
X-969569Y-1440892D01*
X-943966Y-1432357D02*
X-901294Y-1432357D01*
X-901294Y-1440892D01*
X-943966Y-1483564D01*
D13*
X-1097280Y-1338580D02*
X-807720Y-1338580D01*
X-807720Y-1196340D01*
X-1097280Y-1196340D01*
X-1097280Y-1338580D01*
D72*
X-969569Y-1284529D02*
X-978104Y-1293064D01*
X-1003707Y-1293064D01*
X-1020775Y-1275995D01*
X-1020775Y-1258926D01*
X-1003707Y-1241857D01*
X-978104Y-1241857D01*
X-969569Y-1250392D01*
X-935432Y-1267460D02*
X-943966Y-1258926D01*
X-943966Y-1250392D01*
X-935432Y-1241857D01*
X-909829Y-1241857D01*
X-901294Y-1250392D01*
X-901294Y-1258926D01*
X-909829Y-1267460D01*
X-935432Y-1267460D01*
X-943966Y-1275995D01*
X-943966Y-1284529D01*
X-935432Y-1293064D01*
X-909829Y-1293064D01*
X-901294Y-1284529D01*
X-901294Y-1275995D01*
X-909829Y-1267460D01*
D13*
X-1097280Y-1148080D02*
X-807720Y-1148080D01*
X-807720Y-1005840D01*
X-1097280Y-1005840D01*
X-1097280Y-1148080D01*
D72*
X-969569Y-1094029D02*
X-978104Y-1102564D01*
X-1003707Y-1102564D01*
X-1020775Y-1085495D01*
X-1020775Y-1068426D01*
X-1003707Y-1051357D01*
X-978104Y-1051357D01*
X-969569Y-1059892D01*
X-901294Y-1068426D02*
X-909829Y-1076960D01*
X-935432Y-1076960D01*
X-943966Y-1068426D01*
X-943966Y-1059892D01*
X-935432Y-1051357D01*
X-909829Y-1051357D01*
X-901294Y-1059892D01*
X-901294Y-1094029D01*
X-909829Y-1102564D01*
X-935432Y-1102564D01*
D13*
X-965200Y+2299840D02*
X-812800Y+2299840D01*
X-812800Y+2748280D01*
X-965200Y+2748280D01*
X-965200Y+2299840D01*
D73*
X-861568Y+2450908D02*
X-916432Y+2450908D01*
X-916432Y+2487484D01*
X-898144Y+2505772D01*
X-879856Y+2505772D01*
X-861568Y+2487484D01*
X-861568Y+2450908D01*
X-898144Y+2542348D02*
X-916432Y+2560636D01*
X-861568Y+2560636D01*
D13*
X-711200Y+2299840D02*
X-558800Y+2299840D01*
X-558800Y+2748280D01*
X-711200Y+2748280D01*
X-711200Y+2299840D01*
D73*
X-607568Y+2450908D02*
X-662432Y+2450908D01*
X-662432Y+2487484D01*
X-644144Y+2505772D01*
X-625856Y+2505772D01*
X-607568Y+2487484D01*
X-607568Y+2450908D01*
X-653288Y+2533204D02*
X-662432Y+2542348D01*
X-662432Y+2569780D01*
X-653288Y+2578924D01*
X-644144Y+2578924D01*
X-635000Y+2569780D01*
X-635000Y+2542348D01*
X-625856Y+2533204D01*
X-607568Y+2533204D01*
X-607568Y+2578924D01*
D13*
X-1097280Y+1828800D02*
X-648840Y+1828800D01*
X-648840Y+1981200D01*
X-1097280Y+1981200D01*
X-1097280Y+1828800D01*
D73*
X-946212Y+1877568D02*
X-946212Y+1932432D01*
X-909636Y+1932432D01*
X-891348Y+1914144D01*
X-891348Y+1895856D01*
X-909636Y+1877568D01*
X-946212Y+1877568D01*
X-863916Y+1923288D02*
X-854772Y+1932432D01*
X-827340Y+1932432D01*
X-818196Y+1923288D01*
X-818196Y+1914144D01*
X-827340Y+1905000D01*
X-818196Y+1895856D01*
X-818196Y+1886712D01*
X-827340Y+1877568D01*
X-854772Y+1877568D01*
X-863916Y+1886712D01*
X-845628Y+1905000D02*
X-827340Y+1905000D01*
D13*
X-1097280Y-711200D02*
X-648840Y-711200D01*
X-648840Y-558800D01*
X-1097280Y-558800D01*
X-1097280Y-711200D01*
D73*
X-946212Y-662432D02*
X-946212Y-607568D01*
X-909636Y-607568D01*
X-891348Y-625856D01*
X-891348Y-644144D01*
X-909636Y-662432D01*
X-946212Y-662432D01*
X-818196Y-644144D02*
X-873060Y-644144D01*
X-836484Y-607568D01*
X-836484Y-662432D01*
D13*
X-1097280Y-2235200D02*
X-648840Y-2235200D01*
X-648840Y-2082800D01*
X-1097280Y-2082800D01*
X-1097280Y-2235200D01*
D73*
X-946212Y-2186432D02*
X-946212Y-2131568D01*
X-909636Y-2131568D01*
X-891348Y-2149856D01*
X-891348Y-2168144D01*
X-909636Y-2186432D01*
X-946212Y-2186432D01*
X-818196Y-2131568D02*
X-863916Y-2131568D01*
X-863916Y-2149856D01*
X-827340Y-2149856D01*
X-818196Y-2159000D01*
X-818196Y-2177288D01*
X-827340Y-2186432D01*
X-854772Y-2186432D01*
X-863916Y-2177288D01*
D13*
X-1097280Y+1568940D02*
X-680720Y+1568940D01*
X-680720Y+1733060D01*
X-1097280Y+1733060D01*
X-1097280Y+1568940D01*
D30*
X-967777Y+1680541D02*
X-967777Y+1621458D01*
X-908695Y+1621458D01*
X-869306Y+1660847D02*
X-849612Y+1680541D01*
X-849612Y+1621458D01*
D13*
X-1097280Y-463060D02*
X-680720Y-463060D01*
X-680720Y-298940D01*
X-1097280Y-298940D01*
X-1097280Y-463060D01*
D30*
X-967777Y-351459D02*
X-967777Y-410542D01*
X-908695Y-410542D01*
X-879153Y-361306D02*
X-869306Y-351459D01*
X-839765Y-351459D01*
X-829918Y-361306D01*
X-829918Y-371153D01*
X-839765Y-381000D01*
X-869306Y-381000D01*
X-879153Y-390848D01*
X-879153Y-410542D01*
X-829918Y-410542D01*
D13*
X-1097280Y-1987060D02*
X-680720Y-1987060D01*
X-680720Y-1822940D01*
X-1097280Y-1822940D01*
X-1097280Y-1987060D01*
D30*
X-967777Y-1875459D02*
X-967777Y-1934542D01*
X-908695Y-1934542D01*
X-879153Y-1885306D02*
X-869306Y-1875459D01*
X-839765Y-1875459D01*
X-829918Y-1885306D01*
X-829918Y-1895153D01*
X-839765Y-1905000D01*
X-829918Y-1914848D01*
X-829918Y-1924695D01*
X-839765Y-1934542D01*
X-869306Y-1934542D01*
X-879153Y-1924695D01*
X-859459Y-1905000D02*
X-839765Y-1905000D01*
D13*
X-589280Y+1568940D02*
X-172720Y+1568940D01*
X-172720Y+1733060D01*
X-589280Y+1733060D01*
X-589280Y+1568940D01*
D30*
X-459777Y+1621458D02*
X-459777Y+1680541D01*
X-400695Y+1680541D01*
X-459777Y+1651000D02*
X-420389Y+1651000D01*
X-361306Y+1660847D02*
X-341612Y+1680541D01*
X-341612Y+1621458D01*
D13*
X-589280Y-463060D02*
X-172720Y-463060D01*
X-172720Y-298940D01*
X-589280Y-298940D01*
X-589280Y-463060D01*
D30*
X-459777Y-410542D02*
X-459777Y-351459D01*
X-400695Y-351459D01*
X-459777Y-381000D02*
X-420389Y-381000D01*
X-371153Y-361306D02*
X-361306Y-351459D01*
X-331765Y-351459D01*
X-321918Y-361306D01*
X-321918Y-371153D01*
X-331765Y-381000D01*
X-361306Y-381000D01*
X-371153Y-390848D01*
X-371153Y-410542D01*
X-321918Y-410542D01*
D13*
X-589280Y-1987060D02*
X-172720Y-1987060D01*
X-172720Y-1822940D01*
X-589280Y-1822940D01*
X-589280Y-1987060D01*
D30*
X-459777Y-1934542D02*
X-459777Y-1875459D01*
X-400695Y-1875459D01*
X-459777Y-1905000D02*
X-420389Y-1905000D01*
X-371153Y-1885306D02*
X-361306Y-1875459D01*
X-331765Y-1875459D01*
X-321918Y-1885306D01*
X-321918Y-1895153D01*
X-331765Y-1905000D01*
X-321918Y-1914848D01*
X-321918Y-1924695D01*
X-331765Y-1934542D01*
X-361306Y-1934542D01*
X-371153Y-1924695D01*
X-351459Y-1905000D02*
X-331765Y-1905000D01*
D13*
X-716280Y-5080D02*
X-426720Y-5080D01*
X-426720Y+137160D01*
X-716280Y+137160D01*
X-716280Y-5080D01*
D72*
X-639775Y+40436D02*
X-639775Y+91643D01*
X-597104Y+91643D01*
X-588569Y+83108D01*
X-588569Y+74574D01*
X-597104Y+66040D01*
X-639775Y+66040D01*
X-597104Y+66040D02*
X-588569Y+57505D01*
X-588569Y+40436D01*
X-562966Y+83108D02*
X-554432Y+91643D01*
X-528829Y+91643D01*
X-520294Y+83108D01*
X-520294Y+74574D01*
X-528829Y+66040D01*
X-554432Y+66040D01*
X-562966Y+57505D01*
X-562966Y+40436D01*
X-520294Y+40436D01*
D13*
X-716280Y+950840D02*
X-381340Y+950840D01*
X-381340Y+1081160D01*
X-716280Y+1081160D01*
X-716280Y+950840D01*
D31*
X-611363Y+992542D02*
X-611363Y+1039457D01*
X-580087Y+1039457D01*
X-564449Y+1023819D01*
X-564449Y+1008180D01*
X-580087Y+992542D01*
X-611363Y+992542D01*
X-501896Y+1031638D02*
X-509715Y+1039457D01*
X-533172Y+1039457D01*
X-540991Y+1031638D01*
X-540991Y+1000361D01*
X-533172Y+992542D01*
X-509715Y+992542D01*
X-501896Y+1000361D01*
X-501896Y+1008180D01*
X-509715Y+1016000D01*
X-540991Y+1016000D01*
D13*
X-716280Y+188840D02*
X-381340Y+188840D01*
X-381340Y+319160D01*
X-716280Y+319160D01*
X-716280Y+188840D01*
D31*
X-611363Y+230542D02*
X-611363Y+277457D01*
X-580087Y+277457D01*
X-564449Y+261819D01*
X-564449Y+246180D01*
X-580087Y+230542D01*
X-611363Y+230542D01*
X-540991Y+277457D02*
X-501896Y+277457D01*
X-501896Y+269638D01*
X-540991Y+230542D01*
D13*
X-716280Y-1335160D02*
X-381340Y-1335160D01*
X-381340Y-1204840D01*
X-716280Y-1204840D01*
X-716280Y-1335160D01*
D31*
X-611363Y-1293458D02*
X-611363Y-1246543D01*
X-580087Y-1246543D01*
X-564449Y-1262181D01*
X-564449Y-1277820D01*
X-580087Y-1293458D01*
X-611363Y-1293458D01*
X-533172Y-1270000D02*
X-540991Y-1262181D01*
X-540991Y-1254362D01*
X-533172Y-1246543D01*
X-509715Y-1246543D01*
X-501896Y-1254362D01*
X-501896Y-1262181D01*
X-509715Y-1270000D01*
X-533172Y-1270000D01*
X-540991Y-1277820D01*
X-540991Y-1285639D01*
X-533172Y-1293458D01*
X-509715Y-1293458D01*
X-501896Y-1285639D01*
X-501896Y-1277820D01*
X-509715Y-1270000D01*
D13*
X-716280Y-1529080D02*
X-426720Y-1529080D01*
X-426720Y-1386840D01*
X-716280Y-1386840D01*
X-716280Y-1529080D01*
D72*
X-639775Y-1483564D02*
X-639775Y-1432357D01*
X-597104Y-1432357D01*
X-588569Y-1440892D01*
X-588569Y-1449426D01*
X-597104Y-1457960D01*
X-639775Y-1457960D01*
X-597104Y-1457960D02*
X-588569Y-1466495D01*
X-588569Y-1483564D01*
X-562966Y-1440892D02*
X-554432Y-1432357D01*
X-528829Y-1432357D01*
X-520294Y-1440892D01*
X-520294Y-1449426D01*
X-528829Y-1457960D01*
X-520294Y-1466495D01*
X-520294Y-1475029D01*
X-528829Y-1483564D01*
X-554432Y-1483564D01*
X-562966Y-1475029D01*
X-545897Y-1457960D02*
X-528829Y-1457960D01*
D13*
X-716280Y+756920D02*
X-426720Y+756920D01*
X-426720Y+899160D01*
X-716280Y+899160D01*
X-716280Y+756920D01*
D72*
X-639775Y+802436D02*
X-639775Y+853643D01*
X-597104Y+853643D01*
X-588569Y+845108D01*
X-588569Y+836574D01*
X-597104Y+828040D01*
X-639775Y+828040D01*
X-597104Y+828040D02*
X-588569Y+819505D01*
X-588569Y+802436D01*
X-554432Y+836574D02*
X-537363Y+853643D01*
X-537363Y+802436D01*
X-537363Y+802436D01*
D13*
X+0Y-2667000D02*
X+1016000Y-2667000D01*
X+1016000Y+7239000D01*
X+0Y+7239000D01*
X+0Y-2667000D01*
X+45720Y+756920D02*
X+335280Y+756920D01*
X+335280Y+899160D01*
X+45720Y+899160D01*
X+45720Y+756920D01*
D72*
X+173431Y+810971D02*
X+164896Y+802436D01*
X+139293Y+802436D01*
X+122225Y+819505D01*
X+122225Y+836574D01*
X+139293Y+853643D01*
X+164896Y+853643D01*
X+173431Y+845108D01*
X+207568Y+836574D02*
X+224637Y+853643D01*
X+224637Y+802436D01*
D13*
X+45720Y+947420D02*
X+335280Y+947420D01*
X+335280Y+1089660D01*
X+45720Y+1089660D01*
X+45720Y+947420D01*
D72*
X+173431Y+1001471D02*
X+164896Y+992936D01*
X+139293Y+992936D01*
X+122225Y+1010005D01*
X+122225Y+1027074D01*
X+139293Y+1044143D01*
X+164896Y+1044143D01*
X+173431Y+1035608D01*
X+199034Y+1035608D02*
X+207568Y+1044143D01*
X+233171Y+1044143D01*
X+241706Y+1035608D01*
X+241706Y+1027074D01*
X+233171Y+1018540D01*
X+207568Y+1018540D01*
X+199034Y+1010005D01*
X+199034Y+992936D01*
X+241706Y+992936D01*
D13*
X+45720Y+1137920D02*
X+335280Y+1137920D01*
X+335280Y+1280160D01*
X+45720Y+1280160D01*
X+45720Y+1137920D01*
D72*
X+173431Y+1191971D02*
X+164896Y+1183436D01*
X+139293Y+1183436D01*
X+122225Y+1200505D01*
X+122225Y+1217574D01*
X+139293Y+1234643D01*
X+164896Y+1234643D01*
X+173431Y+1226108D01*
X+199034Y+1226108D02*
X+207568Y+1234643D01*
X+233171Y+1234643D01*
X+241706Y+1226108D01*
X+241706Y+1217574D01*
X+233171Y+1209040D01*
X+241706Y+1200505D01*
X+241706Y+1191971D01*
X+233171Y+1183436D01*
X+207568Y+1183436D01*
X+199034Y+1191971D01*
X+216103Y+1209040D02*
X+233171Y+1209040D01*
D13*
X+45720Y-5080D02*
X+335280Y-5080D01*
X+335280Y+137160D01*
X+45720Y+137160D01*
X+45720Y-5080D01*
D72*
X+173431Y+48971D02*
X+164896Y+40436D01*
X+139293Y+40436D01*
X+122225Y+57505D01*
X+122225Y+74574D01*
X+139293Y+91643D01*
X+164896Y+91643D01*
X+173431Y+83108D01*
X+241706Y+57505D02*
X+190500Y+57505D01*
X+224637Y+91643D01*
X+224637Y+40436D01*
D13*
X+45720Y+185420D02*
X+335280Y+185420D01*
X+335280Y+327660D01*
X+45720Y+327660D01*
X+45720Y+185420D01*
D72*
X+173431Y+239471D02*
X+164896Y+230936D01*
X+139293Y+230936D01*
X+122225Y+248005D01*
X+122225Y+265074D01*
X+139293Y+282143D01*
X+164896Y+282143D01*
X+173431Y+273608D01*
X+241706Y+282143D02*
X+199034Y+282143D01*
X+199034Y+265074D01*
X+233171Y+265074D01*
X+241706Y+256540D01*
X+241706Y+239471D01*
X+233171Y+230936D01*
X+207568Y+230936D01*
X+199034Y+239471D01*
D13*
X+45720Y+375920D02*
X+335280Y+375920D01*
X+335280Y+518160D01*
X+45720Y+518160D01*
X+45720Y+375920D01*
D72*
X+173431Y+429971D02*
X+164896Y+421436D01*
X+139293Y+421436D01*
X+122225Y+438505D01*
X+122225Y+455574D01*
X+139293Y+472643D01*
X+164896Y+472643D01*
X+173431Y+464108D01*
X+241706Y+464108D02*
X+233171Y+472643D01*
X+207568Y+472643D01*
X+199034Y+464108D01*
X+199034Y+429971D01*
X+207568Y+421436D01*
X+233171Y+421436D01*
X+241706Y+429971D01*
X+241706Y+438505D01*
X+233171Y+447040D01*
X+199034Y+447040D01*
D13*
X+45720Y-1529080D02*
X+335280Y-1529080D01*
X+335280Y-1386840D01*
X+45720Y-1386840D01*
X+45720Y-1529080D01*
D72*
X+173431Y-1475029D02*
X+164896Y-1483564D01*
X+139293Y-1483564D01*
X+122225Y-1466495D01*
X+122225Y-1449426D01*
X+139293Y-1432357D01*
X+164896Y-1432357D01*
X+173431Y-1440892D01*
X+199034Y-1432357D02*
X+241706Y-1432357D01*
X+241706Y-1440892D01*
X+199034Y-1483564D01*
D13*
X+45720Y-1338580D02*
X+335280Y-1338580D01*
X+335280Y-1196340D01*
X+45720Y-1196340D01*
X+45720Y-1338580D01*
D72*
X+173431Y-1284529D02*
X+164896Y-1293064D01*
X+139293Y-1293064D01*
X+122225Y-1275995D01*
X+122225Y-1258926D01*
X+139293Y-1241857D01*
X+164896Y-1241857D01*
X+173431Y-1250392D01*
X+207568Y-1267460D02*
X+199034Y-1258926D01*
X+199034Y-1250392D01*
X+207568Y-1241857D01*
X+233171Y-1241857D01*
X+241706Y-1250392D01*
X+241706Y-1258926D01*
X+233171Y-1267460D01*
X+207568Y-1267460D01*
X+199034Y-1275995D01*
X+199034Y-1284529D01*
X+207568Y-1293064D01*
X+233171Y-1293064D01*
X+241706Y-1284529D01*
X+241706Y-1275995D01*
X+233171Y-1267460D01*
D13*
X+45720Y-1148080D02*
X+335280Y-1148080D01*
X+335280Y-1005840D01*
X+45720Y-1005840D01*
X+45720Y-1148080D01*
D72*
X+173431Y-1094029D02*
X+164896Y-1102564D01*
X+139293Y-1102564D01*
X+122225Y-1085495D01*
X+122225Y-1068426D01*
X+139293Y-1051357D01*
X+164896Y-1051357D01*
X+173431Y-1059892D01*
X+241706Y-1068426D02*
X+233171Y-1076960D01*
X+207568Y-1076960D01*
X+199034Y-1068426D01*
X+199034Y-1059892D01*
X+207568Y-1051357D01*
X+233171Y-1051357D01*
X+241706Y-1059892D01*
X+241706Y-1094029D01*
X+233171Y-1102564D01*
X+207568Y-1102564D01*
D13*
X+177800Y+2299840D02*
X+330200Y+2299840D01*
X+330200Y+2748280D01*
X+177800Y+2748280D01*
X+177800Y+2299840D01*
D73*
X+281432Y+2450908D02*
X+226568Y+2450908D01*
X+226568Y+2487484D01*
X+244856Y+2505772D01*
X+263144Y+2505772D01*
X+281432Y+2487484D01*
X+281432Y+2450908D01*
X+244856Y+2542348D02*
X+226568Y+2560636D01*
X+281432Y+2560636D01*
D13*
X+431800Y+2299840D02*
X+584200Y+2299840D01*
X+584200Y+2748280D01*
X+431800Y+2748280D01*
X+431800Y+2299840D01*
D73*
X+535432Y+2450908D02*
X+480568Y+2450908D01*
X+480568Y+2487484D01*
X+498856Y+2505772D01*
X+517144Y+2505772D01*
X+535432Y+2487484D01*
X+535432Y+2450908D01*
X+489712Y+2533204D02*
X+480568Y+2542348D01*
X+480568Y+2569780D01*
X+489712Y+2578924D01*
X+498856Y+2578924D01*
X+508000Y+2569780D01*
X+508000Y+2542348D01*
X+517144Y+2533204D01*
X+535432Y+2533204D01*
X+535432Y+2578924D01*
D13*
X+45720Y+1828800D02*
X+494160Y+1828800D01*
X+494160Y+1981200D01*
X+45720Y+1981200D01*
X+45720Y+1828800D01*
D73*
X+196788Y+1877568D02*
X+196788Y+1932432D01*
X+233364Y+1932432D01*
X+251652Y+1914144D01*
X+251652Y+1895856D01*
X+233364Y+1877568D01*
X+196788Y+1877568D01*
X+279084Y+1923288D02*
X+288228Y+1932432D01*
X+315660Y+1932432D01*
X+324804Y+1923288D01*
X+324804Y+1914144D01*
X+315660Y+1905000D01*
X+324804Y+1895856D01*
X+324804Y+1886712D01*
X+315660Y+1877568D01*
X+288228Y+1877568D01*
X+279084Y+1886712D01*
X+297372Y+1905000D02*
X+315660Y+1905000D01*
D13*
X+45720Y-711200D02*
X+494160Y-711200D01*
X+494160Y-558800D01*
X+45720Y-558800D01*
X+45720Y-711200D01*
D73*
X+196788Y-662432D02*
X+196788Y-607568D01*
X+233364Y-607568D01*
X+251652Y-625856D01*
X+251652Y-644144D01*
X+233364Y-662432D01*
X+196788Y-662432D01*
X+324804Y-644144D02*
X+269940Y-644144D01*
X+306516Y-607568D01*
X+306516Y-662432D01*
D13*
X+45720Y-2235200D02*
X+494160Y-2235200D01*
X+494160Y-2082800D01*
X+45720Y-2082800D01*
X+45720Y-2235200D01*
D73*
X+196788Y-2186432D02*
X+196788Y-2131568D01*
X+233364Y-2131568D01*
X+251652Y-2149856D01*
X+251652Y-2168144D01*
X+233364Y-2186432D01*
X+196788Y-2186432D01*
X+324804Y-2131568D02*
X+279084Y-2131568D01*
X+279084Y-2149856D01*
X+315660Y-2149856D01*
X+324804Y-2159000D01*
X+324804Y-2177288D01*
X+315660Y-2186432D01*
X+288228Y-2186432D01*
X+279084Y-2177288D01*
D13*
X+45720Y+1568940D02*
X+462280Y+1568940D01*
X+462280Y+1733060D01*
X+45720Y+1733060D01*
X+45720Y+1568940D01*
D30*
X+175223Y+1680541D02*
X+175223Y+1621458D01*
X+234305Y+1621458D01*
X+273694Y+1660847D02*
X+293388Y+1680541D01*
X+293388Y+1621458D01*
D13*
X+45720Y-463060D02*
X+462280Y-463060D01*
X+462280Y-298940D01*
X+45720Y-298940D01*
X+45720Y-463060D01*
D30*
X+175223Y-351459D02*
X+175223Y-410542D01*
X+234305Y-410542D01*
X+263847Y-361306D02*
X+273694Y-351459D01*
X+303235Y-351459D01*
X+313082Y-361306D01*
X+313082Y-371153D01*
X+303235Y-381000D01*
X+273694Y-381000D01*
X+263847Y-390848D01*
X+263847Y-410542D01*
X+313082Y-410542D01*
D13*
X+45720Y-1987060D02*
X+462280Y-1987060D01*
X+462280Y-1822940D01*
X+45720Y-1822940D01*
X+45720Y-1987060D01*
D30*
X+175223Y-1875459D02*
X+175223Y-1934542D01*
X+234305Y-1934542D01*
X+263847Y-1885306D02*
X+273694Y-1875459D01*
X+303235Y-1875459D01*
X+313082Y-1885306D01*
X+313082Y-1895153D01*
X+303235Y-1905000D01*
X+313082Y-1914848D01*
X+313082Y-1924695D01*
X+303235Y-1934542D01*
X+273694Y-1934542D01*
X+263847Y-1924695D01*
X+283541Y-1905000D02*
X+303235Y-1905000D01*
D13*
X+553720Y+1568940D02*
X+970280Y+1568940D01*
X+970280Y+1733060D01*
X+553720Y+1733060D01*
X+553720Y+1568940D01*
D30*
X+683223Y+1621458D02*
X+683223Y+1680541D01*
X+742305Y+1680541D01*
X+683223Y+1651000D02*
X+722611Y+1651000D01*
X+781694Y+1660847D02*
X+801388Y+1680541D01*
X+801388Y+1621458D01*
D13*
X+553720Y-463060D02*
X+970280Y-463060D01*
X+970280Y-298940D01*
X+553720Y-298940D01*
X+553720Y-463060D01*
D30*
X+683223Y-410542D02*
X+683223Y-351459D01*
X+742305Y-351459D01*
X+683223Y-381000D02*
X+722611Y-381000D01*
X+771847Y-361306D02*
X+781694Y-351459D01*
X+811235Y-351459D01*
X+821082Y-361306D01*
X+821082Y-371153D01*
X+811235Y-381000D01*
X+781694Y-381000D01*
X+771847Y-390848D01*
X+771847Y-410542D01*
X+821082Y-410542D01*
D13*
X+553720Y-1987060D02*
X+970280Y-1987060D01*
X+970280Y-1822940D01*
X+553720Y-1822940D01*
X+553720Y-1987060D01*
D30*
X+683223Y-1934542D02*
X+683223Y-1875459D01*
X+742305Y-1875459D01*
X+683223Y-1905000D02*
X+722611Y-1905000D01*
X+771847Y-1885306D02*
X+781694Y-1875459D01*
X+811235Y-1875459D01*
X+821082Y-1885306D01*
X+821082Y-1895153D01*
X+811235Y-1905000D01*
X+821082Y-1914848D01*
X+821082Y-1924695D01*
X+811235Y-1934542D01*
X+781694Y-1934542D01*
X+771847Y-1924695D01*
X+791541Y-1905000D02*
X+811235Y-1905000D01*
D13*
X+426720Y-5080D02*
X+716280Y-5080D01*
X+716280Y+137160D01*
X+426720Y+137160D01*
X+426720Y-5080D01*
D72*
X+503225Y+40436D02*
X+503225Y+91643D01*
X+545896Y+91643D01*
X+554431Y+83108D01*
X+554431Y+74574D01*
X+545896Y+66040D01*
X+503225Y+66040D01*
X+545896Y+66040D02*
X+554431Y+57505D01*
X+554431Y+40436D01*
X+580034Y+83108D02*
X+588568Y+91643D01*
X+614171Y+91643D01*
X+622706Y+83108D01*
X+622706Y+74574D01*
X+614171Y+66040D01*
X+588568Y+66040D01*
X+580034Y+57505D01*
X+580034Y+40436D01*
X+622706Y+40436D01*
D13*
X+426720Y+950840D02*
X+761660Y+950840D01*
X+761660Y+1081160D01*
X+426720Y+1081160D01*
X+426720Y+950840D01*
D31*
X+531637Y+992542D02*
X+531637Y+1039457D01*
X+562913Y+1039457D01*
X+578551Y+1023819D01*
X+578551Y+1008180D01*
X+562913Y+992542D01*
X+531637Y+992542D01*
X+641104Y+1031638D02*
X+633285Y+1039457D01*
X+609828Y+1039457D01*
X+602009Y+1031638D01*
X+602009Y+1000361D01*
X+609828Y+992542D01*
X+633285Y+992542D01*
X+641104Y+1000361D01*
X+641104Y+1008180D01*
X+633285Y+1016000D01*
X+602009Y+1016000D01*
D13*
X+426720Y+188840D02*
X+761660Y+188840D01*
X+761660Y+319160D01*
X+426720Y+319160D01*
X+426720Y+188840D01*
D31*
X+531637Y+230542D02*
X+531637Y+277457D01*
X+562913Y+277457D01*
X+578551Y+261819D01*
X+578551Y+246180D01*
X+562913Y+230542D01*
X+531637Y+230542D01*
X+602009Y+277457D02*
X+641104Y+277457D01*
X+641104Y+269638D01*
X+602009Y+230542D01*
D13*
X+426720Y-1335160D02*
X+761660Y-1335160D01*
X+761660Y-1204840D01*
X+426720Y-1204840D01*
X+426720Y-1335160D01*
D31*
X+531637Y-1293458D02*
X+531637Y-1246543D01*
X+562913Y-1246543D01*
X+578551Y-1262181D01*
X+578551Y-1277820D01*
X+562913Y-1293458D01*
X+531637Y-1293458D01*
X+609828Y-1270000D02*
X+602009Y-1262181D01*
X+602009Y-1254362D01*
X+609828Y-1246543D01*
X+633285Y-1246543D01*
X+641104Y-1254362D01*
X+641104Y-1262181D01*
X+633285Y-1270000D01*
X+609828Y-1270000D01*
X+602009Y-1277820D01*
X+602009Y-1285639D01*
X+609828Y-1293458D01*
X+633285Y-1293458D01*
X+641104Y-1285639D01*
X+641104Y-1277820D01*
X+633285Y-1270000D01*
D13*
X+426720Y-1529080D02*
X+716280Y-1529080D01*
X+716280Y-1386840D01*
X+426720Y-1386840D01*
X+426720Y-1529080D01*
D72*
X+503225Y-1483564D02*
X+503225Y-1432357D01*
X+545896Y-1432357D01*
X+554431Y-1440892D01*
X+554431Y-1449426D01*
X+545896Y-1457960D01*
X+503225Y-1457960D01*
X+545896Y-1457960D02*
X+554431Y-1466495D01*
X+554431Y-1483564D01*
X+580034Y-1440892D02*
X+588568Y-1432357D01*
X+614171Y-1432357D01*
X+622706Y-1440892D01*
X+622706Y-1449426D01*
X+614171Y-1457960D01*
X+622706Y-1466495D01*
X+622706Y-1475029D01*
X+614171Y-1483564D01*
X+588568Y-1483564D01*
X+580034Y-1475029D01*
X+597103Y-1457960D02*
X+614171Y-1457960D01*
D13*
X+426720Y+756920D02*
X+716280Y+756920D01*
X+716280Y+899160D01*
X+426720Y+899160D01*
X+426720Y+756920D01*
D72*
X+503225Y+802436D02*
X+503225Y+853643D01*
X+545896Y+853643D01*
X+554431Y+845108D01*
X+554431Y+836574D01*
X+545896Y+828040D01*
X+503225Y+828040D01*
X+545896Y+828040D02*
X+554431Y+819505D01*
X+554431Y+802436D01*
X+588568Y+836574D02*
X+605637Y+853643D01*
X+605637Y+802436D01*
X+605637Y+802436D01*
D13*
X+1143000Y-2667000D02*
X+2159000Y-2667000D01*
X+2159000Y+7239000D01*
X+1143000Y+7239000D01*
X+1143000Y-2667000D01*
X+1188720Y+756920D02*
X+1478280Y+756920D01*
X+1478280Y+899160D01*
X+1188720Y+899160D01*
X+1188720Y+756920D01*
D72*
X+1316431Y+810971D02*
X+1307896Y+802436D01*
X+1282293Y+802436D01*
X+1265225Y+819505D01*
X+1265225Y+836574D01*
X+1282293Y+853643D01*
X+1307896Y+853643D01*
X+1316431Y+845108D01*
X+1350568Y+836574D02*
X+1367637Y+853643D01*
X+1367637Y+802436D01*
D13*
X+1188720Y+947420D02*
X+1478280Y+947420D01*
X+1478280Y+1089660D01*
X+1188720Y+1089660D01*
X+1188720Y+947420D01*
D72*
X+1316431Y+1001471D02*
X+1307896Y+992936D01*
X+1282293Y+992936D01*
X+1265225Y+1010005D01*
X+1265225Y+1027074D01*
X+1282293Y+1044143D01*
X+1307896Y+1044143D01*
X+1316431Y+1035608D01*
X+1342034Y+1035608D02*
X+1350568Y+1044143D01*
X+1376171Y+1044143D01*
X+1384706Y+1035608D01*
X+1384706Y+1027074D01*
X+1376171Y+1018540D01*
X+1350568Y+1018540D01*
X+1342034Y+1010005D01*
X+1342034Y+992936D01*
X+1384706Y+992936D01*
D13*
X+1188720Y+1137920D02*
X+1478280Y+1137920D01*
X+1478280Y+1280160D01*
X+1188720Y+1280160D01*
X+1188720Y+1137920D01*
D72*
X+1316431Y+1191971D02*
X+1307896Y+1183436D01*
X+1282293Y+1183436D01*
X+1265225Y+1200505D01*
X+1265225Y+1217574D01*
X+1282293Y+1234643D01*
X+1307896Y+1234643D01*
X+1316431Y+1226108D01*
X+1342034Y+1226108D02*
X+1350568Y+1234643D01*
X+1376171Y+1234643D01*
X+1384706Y+1226108D01*
X+1384706Y+1217574D01*
X+1376171Y+1209040D01*
X+1384706Y+1200505D01*
X+1384706Y+1191971D01*
X+1376171Y+1183436D01*
X+1350568Y+1183436D01*
X+1342034Y+1191971D01*
X+1359103Y+1209040D02*
X+1376171Y+1209040D01*
D13*
X+1188720Y-5080D02*
X+1478280Y-5080D01*
X+1478280Y+137160D01*
X+1188720Y+137160D01*
X+1188720Y-5080D01*
D72*
X+1316431Y+48971D02*
X+1307896Y+40436D01*
X+1282293Y+40436D01*
X+1265225Y+57505D01*
X+1265225Y+74574D01*
X+1282293Y+91643D01*
X+1307896Y+91643D01*
X+1316431Y+83108D01*
X+1384706Y+57505D02*
X+1333500Y+57505D01*
X+1367637Y+91643D01*
X+1367637Y+40436D01*
D13*
X+1188720Y+185420D02*
X+1478280Y+185420D01*
X+1478280Y+327660D01*
X+1188720Y+327660D01*
X+1188720Y+185420D01*
D72*
X+1316431Y+239471D02*
X+1307896Y+230936D01*
X+1282293Y+230936D01*
X+1265225Y+248005D01*
X+1265225Y+265074D01*
X+1282293Y+282143D01*
X+1307896Y+282143D01*
X+1316431Y+273608D01*
X+1384706Y+282143D02*
X+1342034Y+282143D01*
X+1342034Y+265074D01*
X+1376171Y+265074D01*
X+1384706Y+256540D01*
X+1384706Y+239471D01*
X+1376171Y+230936D01*
X+1350568Y+230936D01*
X+1342034Y+239471D01*
D13*
X+1188720Y+375920D02*
X+1478280Y+375920D01*
X+1478280Y+518160D01*
X+1188720Y+518160D01*
X+1188720Y+375920D01*
D72*
X+1316431Y+429971D02*
X+1307896Y+421436D01*
X+1282293Y+421436D01*
X+1265225Y+438505D01*
X+1265225Y+455574D01*
X+1282293Y+472643D01*
X+1307896Y+472643D01*
X+1316431Y+464108D01*
X+1384706Y+464108D02*
X+1376171Y+472643D01*
X+1350568Y+472643D01*
X+1342034Y+464108D01*
X+1342034Y+429971D01*
X+1350568Y+421436D01*
X+1376171Y+421436D01*
X+1384706Y+429971D01*
X+1384706Y+438505D01*
X+1376171Y+447040D01*
X+1342034Y+447040D01*
D13*
X+1188720Y-1529080D02*
X+1478280Y-1529080D01*
X+1478280Y-1386840D01*
X+1188720Y-1386840D01*
X+1188720Y-1529080D01*
D72*
X+1316431Y-1475029D02*
X+1307896Y-1483564D01*
X+1282293Y-1483564D01*
X+1265225Y-1466495D01*
X+1265225Y-1449426D01*
X+1282293Y-1432357D01*
X+1307896Y-1432357D01*
X+1316431Y-1440892D01*
X+1342034Y-1432357D02*
X+1384706Y-1432357D01*
X+1384706Y-1440892D01*
X+1342034Y-1483564D01*
D13*
X+1188720Y-1338580D02*
X+1478280Y-1338580D01*
X+1478280Y-1196340D01*
X+1188720Y-1196340D01*
X+1188720Y-1338580D01*
D72*
X+1316431Y-1284529D02*
X+1307896Y-1293064D01*
X+1282293Y-1293064D01*
X+1265225Y-1275995D01*
X+1265225Y-1258926D01*
X+1282293Y-1241857D01*
X+1307896Y-1241857D01*
X+1316431Y-1250392D01*
X+1350568Y-1267460D02*
X+1342034Y-1258926D01*
X+1342034Y-1250392D01*
X+1350568Y-1241857D01*
X+1376171Y-1241857D01*
X+1384706Y-1250392D01*
X+1384706Y-1258926D01*
X+1376171Y-1267460D01*
X+1350568Y-1267460D01*
X+1342034Y-1275995D01*
X+1342034Y-1284529D01*
X+1350568Y-1293064D01*
X+1376171Y-1293064D01*
X+1384706Y-1284529D01*
X+1384706Y-1275995D01*
X+1376171Y-1267460D01*
D13*
X+1188720Y-1148080D02*
X+1478280Y-1148080D01*
X+1478280Y-1005840D01*
X+1188720Y-1005840D01*
X+1188720Y-1148080D01*
D72*
X+1316431Y-1094029D02*
X+1307896Y-1102564D01*
X+1282293Y-1102564D01*
X+1265225Y-1085495D01*
X+1265225Y-1068426D01*
X+1282293Y-1051357D01*
X+1307896Y-1051357D01*
X+1316431Y-1059892D01*
X+1384706Y-1068426D02*
X+1376171Y-1076960D01*
X+1350568Y-1076960D01*
X+1342034Y-1068426D01*
X+1342034Y-1059892D01*
X+1350568Y-1051357D01*
X+1376171Y-1051357D01*
X+1384706Y-1059892D01*
X+1384706Y-1094029D01*
X+1376171Y-1102564D01*
X+1350568Y-1102564D01*
D13*
X+1320800Y+2299840D02*
X+1473200Y+2299840D01*
X+1473200Y+2748280D01*
X+1320800Y+2748280D01*
X+1320800Y+2299840D01*
D73*
X+1424432Y+2450908D02*
X+1369568Y+2450908D01*
X+1369568Y+2487484D01*
X+1387856Y+2505772D01*
X+1406144Y+2505772D01*
X+1424432Y+2487484D01*
X+1424432Y+2450908D01*
X+1387856Y+2542348D02*
X+1369568Y+2560636D01*
X+1424432Y+2560636D01*
D13*
X+1574800Y+2299840D02*
X+1727200Y+2299840D01*
X+1727200Y+2748280D01*
X+1574800Y+2748280D01*
X+1574800Y+2299840D01*
D73*
X+1678432Y+2450908D02*
X+1623568Y+2450908D01*
X+1623568Y+2487484D01*
X+1641856Y+2505772D01*
X+1660144Y+2505772D01*
X+1678432Y+2487484D01*
X+1678432Y+2450908D01*
X+1632712Y+2533204D02*
X+1623568Y+2542348D01*
X+1623568Y+2569780D01*
X+1632712Y+2578924D01*
X+1641856Y+2578924D01*
X+1651000Y+2569780D01*
X+1651000Y+2542348D01*
X+1660144Y+2533204D01*
X+1678432Y+2533204D01*
X+1678432Y+2578924D01*
D13*
X+1188720Y+1828800D02*
X+1637160Y+1828800D01*
X+1637160Y+1981200D01*
X+1188720Y+1981200D01*
X+1188720Y+1828800D01*
D73*
X+1339788Y+1877568D02*
X+1339788Y+1932432D01*
X+1376364Y+1932432D01*
X+1394652Y+1914144D01*
X+1394652Y+1895856D01*
X+1376364Y+1877568D01*
X+1339788Y+1877568D01*
X+1422084Y+1923288D02*
X+1431228Y+1932432D01*
X+1458660Y+1932432D01*
X+1467804Y+1923288D01*
X+1467804Y+1914144D01*
X+1458660Y+1905000D01*
X+1467804Y+1895856D01*
X+1467804Y+1886712D01*
X+1458660Y+1877568D01*
X+1431228Y+1877568D01*
X+1422084Y+1886712D01*
X+1440372Y+1905000D02*
X+1458660Y+1905000D01*
D13*
X+1188720Y-711200D02*
X+1637160Y-711200D01*
X+1637160Y-558800D01*
X+1188720Y-558800D01*
X+1188720Y-711200D01*
D73*
X+1339788Y-662432D02*
X+1339788Y-607568D01*
X+1376364Y-607568D01*
X+1394652Y-625856D01*
X+1394652Y-644144D01*
X+1376364Y-662432D01*
X+1339788Y-662432D01*
X+1467804Y-644144D02*
X+1412940Y-644144D01*
X+1449516Y-607568D01*
X+1449516Y-662432D01*
D13*
X+1188720Y-2235200D02*
X+1637160Y-2235200D01*
X+1637160Y-2082800D01*
X+1188720Y-2082800D01*
X+1188720Y-2235200D01*
D73*
X+1339788Y-2186432D02*
X+1339788Y-2131568D01*
X+1376364Y-2131568D01*
X+1394652Y-2149856D01*
X+1394652Y-2168144D01*
X+1376364Y-2186432D01*
X+1339788Y-2186432D01*
X+1467804Y-2131568D02*
X+1422084Y-2131568D01*
X+1422084Y-2149856D01*
X+1458660Y-2149856D01*
X+1467804Y-2159000D01*
X+1467804Y-2177288D01*
X+1458660Y-2186432D01*
X+1431228Y-2186432D01*
X+1422084Y-2177288D01*
D13*
X+1188720Y+1568940D02*
X+1605280Y+1568940D01*
X+1605280Y+1733060D01*
X+1188720Y+1733060D01*
X+1188720Y+1568940D01*
D30*
X+1318223Y+1680541D02*
X+1318223Y+1621458D01*
X+1377305Y+1621458D01*
X+1416694Y+1660847D02*
X+1436388Y+1680541D01*
X+1436388Y+1621458D01*
D13*
X+1188720Y-463060D02*
X+1605280Y-463060D01*
X+1605280Y-298940D01*
X+1188720Y-298940D01*
X+1188720Y-463060D01*
D30*
X+1318223Y-351459D02*
X+1318223Y-410542D01*
X+1377305Y-410542D01*
X+1406847Y-361306D02*
X+1416694Y-351459D01*
X+1446235Y-351459D01*
X+1456082Y-361306D01*
X+1456082Y-371153D01*
X+1446235Y-381000D01*
X+1416694Y-381000D01*
X+1406847Y-390848D01*
X+1406847Y-410542D01*
X+1456082Y-410542D01*
D13*
X+1188720Y-1987060D02*
X+1605280Y-1987060D01*
X+1605280Y-1822940D01*
X+1188720Y-1822940D01*
X+1188720Y-1987060D01*
D30*
X+1318223Y-1875459D02*
X+1318223Y-1934542D01*
X+1377305Y-1934542D01*
X+1406847Y-1885306D02*
X+1416694Y-1875459D01*
X+1446235Y-1875459D01*
X+1456082Y-1885306D01*
X+1456082Y-1895153D01*
X+1446235Y-1905000D01*
X+1456082Y-1914848D01*
X+1456082Y-1924695D01*
X+1446235Y-1934542D01*
X+1416694Y-1934542D01*
X+1406847Y-1924695D01*
X+1426541Y-1905000D02*
X+1446235Y-1905000D01*
D13*
X+1696720Y+1568940D02*
X+2113280Y+1568940D01*
X+2113280Y+1733060D01*
X+1696720Y+1733060D01*
X+1696720Y+1568940D01*
D30*
X+1826223Y+1621458D02*
X+1826223Y+1680541D01*
X+1885305Y+1680541D01*
X+1826223Y+1651000D02*
X+1865611Y+1651000D01*
X+1924694Y+1660847D02*
X+1944388Y+1680541D01*
X+1944388Y+1621458D01*
D13*
X+1696720Y-463060D02*
X+2113280Y-463060D01*
X+2113280Y-298940D01*
X+1696720Y-298940D01*
X+1696720Y-463060D01*
D30*
X+1826223Y-410542D02*
X+1826223Y-351459D01*
X+1885305Y-351459D01*
X+1826223Y-381000D02*
X+1865611Y-381000D01*
X+1914847Y-361306D02*
X+1924694Y-351459D01*
X+1954235Y-351459D01*
X+1964082Y-361306D01*
X+1964082Y-371153D01*
X+1954235Y-381000D01*
X+1924694Y-381000D01*
X+1914847Y-390848D01*
X+1914847Y-410542D01*
X+1964082Y-410542D01*
D13*
X+1696720Y-1987060D02*
X+2113280Y-1987060D01*
X+2113280Y-1822940D01*
X+1696720Y-1822940D01*
X+1696720Y-1987060D01*
D30*
X+1826223Y-1934542D02*
X+1826223Y-1875459D01*
X+1885305Y-1875459D01*
X+1826223Y-1905000D02*
X+1865611Y-1905000D01*
X+1914847Y-1885306D02*
X+1924694Y-1875459D01*
X+1954235Y-1875459D01*
X+1964082Y-1885306D01*
X+1964082Y-1895153D01*
X+1954235Y-1905000D01*
X+1964082Y-1914848D01*
X+1964082Y-1924695D01*
X+1954235Y-1934542D01*
X+1924694Y-1934542D01*
X+1914847Y-1924695D01*
X+1934541Y-1905000D02*
X+1954235Y-1905000D01*
D13*
X+1569720Y-5080D02*
X+1859280Y-5080D01*
X+1859280Y+137160D01*
X+1569720Y+137160D01*
X+1569720Y-5080D01*
D72*
X+1646225Y+40436D02*
X+1646225Y+91643D01*
X+1688896Y+91643D01*
X+1697431Y+83108D01*
X+1697431Y+74574D01*
X+1688896Y+66040D01*
X+1646225Y+66040D01*
X+1688896Y+66040D02*
X+1697431Y+57505D01*
X+1697431Y+40436D01*
X+1723034Y+83108D02*
X+1731568Y+91643D01*
X+1757171Y+91643D01*
X+1765706Y+83108D01*
X+1765706Y+74574D01*
X+1757171Y+66040D01*
X+1731568Y+66040D01*
X+1723034Y+57505D01*
X+1723034Y+40436D01*
X+1765706Y+40436D01*
D13*
X+1569720Y+950840D02*
X+1904660Y+950840D01*
X+1904660Y+1081160D01*
X+1569720Y+1081160D01*
X+1569720Y+950840D01*
D31*
X+1674637Y+992542D02*
X+1674637Y+1039457D01*
X+1705913Y+1039457D01*
X+1721551Y+1023819D01*
X+1721551Y+1008180D01*
X+1705913Y+992542D01*
X+1674637Y+992542D01*
X+1784104Y+1031638D02*
X+1776285Y+1039457D01*
X+1752828Y+1039457D01*
X+1745009Y+1031638D01*
X+1745009Y+1000361D01*
X+1752828Y+992542D01*
X+1776285Y+992542D01*
X+1784104Y+1000361D01*
X+1784104Y+1008180D01*
X+1776285Y+1016000D01*
X+1745009Y+1016000D01*
D13*
X+1569720Y+188840D02*
X+1904660Y+188840D01*
X+1904660Y+319160D01*
X+1569720Y+319160D01*
X+1569720Y+188840D01*
D31*
X+1674637Y+230542D02*
X+1674637Y+277457D01*
X+1705913Y+277457D01*
X+1721551Y+261819D01*
X+1721551Y+246180D01*
X+1705913Y+230542D01*
X+1674637Y+230542D01*
X+1745009Y+277457D02*
X+1784104Y+277457D01*
X+1784104Y+269638D01*
X+1745009Y+230542D01*
D13*
X+1569720Y-1335160D02*
X+1904660Y-1335160D01*
X+1904660Y-1204840D01*
X+1569720Y-1204840D01*
X+1569720Y-1335160D01*
D31*
X+1674637Y-1293458D02*
X+1674637Y-1246543D01*
X+1705913Y-1246543D01*
X+1721551Y-1262181D01*
X+1721551Y-1277820D01*
X+1705913Y-1293458D01*
X+1674637Y-1293458D01*
X+1752828Y-1270000D02*
X+1745009Y-1262181D01*
X+1745009Y-1254362D01*
X+1752828Y-1246543D01*
X+1776285Y-1246543D01*
X+1784104Y-1254362D01*
X+1784104Y-1262181D01*
X+1776285Y-1270000D01*
X+1752828Y-1270000D01*
X+1745009Y-1277820D01*
X+1745009Y-1285639D01*
X+1752828Y-1293458D01*
X+1776285Y-1293458D01*
X+1784104Y-1285639D01*
X+1784104Y-1277820D01*
X+1776285Y-1270000D01*
D13*
X+1569720Y-1529080D02*
X+1859280Y-1529080D01*
X+1859280Y-1386840D01*
X+1569720Y-1386840D01*
X+1569720Y-1529080D01*
D72*
X+1646225Y-1483564D02*
X+1646225Y-1432357D01*
X+1688896Y-1432357D01*
X+1697431Y-1440892D01*
X+1697431Y-1449426D01*
X+1688896Y-1457960D01*
X+1646225Y-1457960D01*
X+1688896Y-1457960D02*
X+1697431Y-1466495D01*
X+1697431Y-1483564D01*
X+1723034Y-1440892D02*
X+1731568Y-1432357D01*
X+1757171Y-1432357D01*
X+1765706Y-1440892D01*
X+1765706Y-1449426D01*
X+1757171Y-1457960D01*
X+1765706Y-1466495D01*
X+1765706Y-1475029D01*
X+1757171Y-1483564D01*
X+1731568Y-1483564D01*
X+1723034Y-1475029D01*
X+1740103Y-1457960D02*
X+1757171Y-1457960D01*
D13*
X+1569720Y+756920D02*
X+1859280Y+756920D01*
X+1859280Y+899160D01*
X+1569720Y+899160D01*
X+1569720Y+756920D01*
D72*
X+1646225Y+802436D02*
X+1646225Y+853643D01*
X+1688896Y+853643D01*
X+1697431Y+845108D01*
X+1697431Y+836574D01*
X+1688896Y+828040D01*
X+1646225Y+828040D01*
X+1688896Y+828040D02*
X+1697431Y+819505D01*
X+1697431Y+802436D01*
X+1731568Y+836574D02*
X+1748637Y+853643D01*
X+1748637Y+802436D01*
X+1748637Y+802436D01*
D13*
X+2286000Y-2667000D02*
X+3302000Y-2667000D01*
X+3302000Y+7239000D01*
X+2286000Y+7239000D01*
X+2286000Y-2667000D01*
X+2331720Y+756920D02*
X+2621280Y+756920D01*
X+2621280Y+899160D01*
X+2331720Y+899160D01*
X+2331720Y+756920D01*
D72*
X+2459431Y+810971D02*
X+2450896Y+802436D01*
X+2425293Y+802436D01*
X+2408225Y+819505D01*
X+2408225Y+836574D01*
X+2425293Y+853643D01*
X+2450896Y+853643D01*
X+2459431Y+845108D01*
X+2493568Y+836574D02*
X+2510637Y+853643D01*
X+2510637Y+802436D01*
D13*
X+2331720Y+947420D02*
X+2621280Y+947420D01*
X+2621280Y+1089660D01*
X+2331720Y+1089660D01*
X+2331720Y+947420D01*
D72*
X+2459431Y+1001471D02*
X+2450896Y+992936D01*
X+2425293Y+992936D01*
X+2408225Y+1010005D01*
X+2408225Y+1027074D01*
X+2425293Y+1044143D01*
X+2450896Y+1044143D01*
X+2459431Y+1035608D01*
X+2485034Y+1035608D02*
X+2493568Y+1044143D01*
X+2519171Y+1044143D01*
X+2527706Y+1035608D01*
X+2527706Y+1027074D01*
X+2519171Y+1018540D01*
X+2493568Y+1018540D01*
X+2485034Y+1010005D01*
X+2485034Y+992936D01*
X+2527706Y+992936D01*
D13*
X+2331720Y+1137920D02*
X+2621280Y+1137920D01*
X+2621280Y+1280160D01*
X+2331720Y+1280160D01*
X+2331720Y+1137920D01*
D72*
X+2459431Y+1191971D02*
X+2450896Y+1183436D01*
X+2425293Y+1183436D01*
X+2408225Y+1200505D01*
X+2408225Y+1217574D01*
X+2425293Y+1234643D01*
X+2450896Y+1234643D01*
X+2459431Y+1226108D01*
X+2485034Y+1226108D02*
X+2493568Y+1234643D01*
X+2519171Y+1234643D01*
X+2527706Y+1226108D01*
X+2527706Y+1217574D01*
X+2519171Y+1209040D01*
X+2527706Y+1200505D01*
X+2527706Y+1191971D01*
X+2519171Y+1183436D01*
X+2493568Y+1183436D01*
X+2485034Y+1191971D01*
X+2502103Y+1209040D02*
X+2519171Y+1209040D01*
D13*
X+2331720Y-5080D02*
X+2621280Y-5080D01*
X+2621280Y+137160D01*
X+2331720Y+137160D01*
X+2331720Y-5080D01*
D72*
X+2459431Y+48971D02*
X+2450896Y+40436D01*
X+2425293Y+40436D01*
X+2408225Y+57505D01*
X+2408225Y+74574D01*
X+2425293Y+91643D01*
X+2450896Y+91643D01*
X+2459431Y+83108D01*
X+2527706Y+57505D02*
X+2476500Y+57505D01*
X+2510637Y+91643D01*
X+2510637Y+40436D01*
D13*
X+2331720Y+185420D02*
X+2621280Y+185420D01*
X+2621280Y+327660D01*
X+2331720Y+327660D01*
X+2331720Y+185420D01*
D72*
X+2459431Y+239471D02*
X+2450896Y+230936D01*
X+2425293Y+230936D01*
X+2408225Y+248005D01*
X+2408225Y+265074D01*
X+2425293Y+282143D01*
X+2450896Y+282143D01*
X+2459431Y+273608D01*
X+2527706Y+282143D02*
X+2485034Y+282143D01*
X+2485034Y+265074D01*
X+2519171Y+265074D01*
X+2527706Y+256540D01*
X+2527706Y+239471D01*
X+2519171Y+230936D01*
X+2493568Y+230936D01*
X+2485034Y+239471D01*
D13*
X+2331720Y+375920D02*
X+2621280Y+375920D01*
X+2621280Y+518160D01*
X+2331720Y+518160D01*
X+2331720Y+375920D01*
D72*
X+2459431Y+429971D02*
X+2450896Y+421436D01*
X+2425293Y+421436D01*
X+2408225Y+438505D01*
X+2408225Y+455574D01*
X+2425293Y+472643D01*
X+2450896Y+472643D01*
X+2459431Y+464108D01*
X+2527706Y+464108D02*
X+2519171Y+472643D01*
X+2493568Y+472643D01*
X+2485034Y+464108D01*
X+2485034Y+429971D01*
X+2493568Y+421436D01*
X+2519171Y+421436D01*
X+2527706Y+429971D01*
X+2527706Y+438505D01*
X+2519171Y+447040D01*
X+2485034Y+447040D01*
D13*
X+2331720Y-1529080D02*
X+2621280Y-1529080D01*
X+2621280Y-1386840D01*
X+2331720Y-1386840D01*
X+2331720Y-1529080D01*
D72*
X+2459431Y-1475029D02*
X+2450896Y-1483564D01*
X+2425293Y-1483564D01*
X+2408225Y-1466495D01*
X+2408225Y-1449426D01*
X+2425293Y-1432357D01*
X+2450896Y-1432357D01*
X+2459431Y-1440892D01*
X+2485034Y-1432357D02*
X+2527706Y-1432357D01*
X+2527706Y-1440892D01*
X+2485034Y-1483564D01*
D13*
X+2331720Y-1338580D02*
X+2621280Y-1338580D01*
X+2621280Y-1196340D01*
X+2331720Y-1196340D01*
X+2331720Y-1338580D01*
D72*
X+2459431Y-1284529D02*
X+2450896Y-1293064D01*
X+2425293Y-1293064D01*
X+2408225Y-1275995D01*
X+2408225Y-1258926D01*
X+2425293Y-1241857D01*
X+2450896Y-1241857D01*
X+2459431Y-1250392D01*
X+2493568Y-1267460D02*
X+2485034Y-1258926D01*
X+2485034Y-1250392D01*
X+2493568Y-1241857D01*
X+2519171Y-1241857D01*
X+2527706Y-1250392D01*
X+2527706Y-1258926D01*
X+2519171Y-1267460D01*
X+2493568Y-1267460D01*
X+2485034Y-1275995D01*
X+2485034Y-1284529D01*
X+2493568Y-1293064D01*
X+2519171Y-1293064D01*
X+2527706Y-1284529D01*
X+2527706Y-1275995D01*
X+2519171Y-1267460D01*
D13*
X+2331720Y-1148080D02*
X+2621280Y-1148080D01*
X+2621280Y-1005840D01*
X+2331720Y-1005840D01*
X+2331720Y-1148080D01*
D72*
X+2459431Y-1094029D02*
X+2450896Y-1102564D01*
X+2425293Y-1102564D01*
X+2408225Y-1085495D01*
X+2408225Y-1068426D01*
X+2425293Y-1051357D01*
X+2450896Y-1051357D01*
X+2459431Y-1059892D01*
X+2527706Y-1068426D02*
X+2519171Y-1076960D01*
X+2493568Y-1076960D01*
X+2485034Y-1068426D01*
X+2485034Y-1059892D01*
X+2493568Y-1051357D01*
X+2519171Y-1051357D01*
X+2527706Y-1059892D01*
X+2527706Y-1094029D01*
X+2519171Y-1102564D01*
X+2493568Y-1102564D01*
D13*
X+2463800Y+2299840D02*
X+2616200Y+2299840D01*
X+2616200Y+2748280D01*
X+2463800Y+2748280D01*
X+2463800Y+2299840D01*
D73*
X+2567432Y+2450908D02*
X+2512568Y+2450908D01*
X+2512568Y+2487484D01*
X+2530856Y+2505772D01*
X+2549144Y+2505772D01*
X+2567432Y+2487484D01*
X+2567432Y+2450908D01*
X+2530856Y+2542348D02*
X+2512568Y+2560636D01*
X+2567432Y+2560636D01*
D13*
X+2717800Y+2299840D02*
X+2870200Y+2299840D01*
X+2870200Y+2748280D01*
X+2717800Y+2748280D01*
X+2717800Y+2299840D01*
D73*
X+2821432Y+2450908D02*
X+2766568Y+2450908D01*
X+2766568Y+2487484D01*
X+2784856Y+2505772D01*
X+2803144Y+2505772D01*
X+2821432Y+2487484D01*
X+2821432Y+2450908D01*
X+2775712Y+2533204D02*
X+2766568Y+2542348D01*
X+2766568Y+2569780D01*
X+2775712Y+2578924D01*
X+2784856Y+2578924D01*
X+2794000Y+2569780D01*
X+2794000Y+2542348D01*
X+2803144Y+2533204D01*
X+2821432Y+2533204D01*
X+2821432Y+2578924D01*
D13*
X+2331720Y+1828800D02*
X+2780160Y+1828800D01*
X+2780160Y+1981200D01*
X+2331720Y+1981200D01*
X+2331720Y+1828800D01*
D73*
X+2482788Y+1877568D02*
X+2482788Y+1932432D01*
X+2519364Y+1932432D01*
X+2537652Y+1914144D01*
X+2537652Y+1895856D01*
X+2519364Y+1877568D01*
X+2482788Y+1877568D01*
X+2565084Y+1923288D02*
X+2574228Y+1932432D01*
X+2601660Y+1932432D01*
X+2610804Y+1923288D01*
X+2610804Y+1914144D01*
X+2601660Y+1905000D01*
X+2610804Y+1895856D01*
X+2610804Y+1886712D01*
X+2601660Y+1877568D01*
X+2574228Y+1877568D01*
X+2565084Y+1886712D01*
X+2583372Y+1905000D02*
X+2601660Y+1905000D01*
D13*
X+2331720Y-711200D02*
X+2780160Y-711200D01*
X+2780160Y-558800D01*
X+2331720Y-558800D01*
X+2331720Y-711200D01*
D73*
X+2482788Y-662432D02*
X+2482788Y-607568D01*
X+2519364Y-607568D01*
X+2537652Y-625856D01*
X+2537652Y-644144D01*
X+2519364Y-662432D01*
X+2482788Y-662432D01*
X+2610804Y-644144D02*
X+2555940Y-644144D01*
X+2592516Y-607568D01*
X+2592516Y-662432D01*
D13*
X+2331720Y-2235200D02*
X+2780160Y-2235200D01*
X+2780160Y-2082800D01*
X+2331720Y-2082800D01*
X+2331720Y-2235200D01*
D73*
X+2482788Y-2186432D02*
X+2482788Y-2131568D01*
X+2519364Y-2131568D01*
X+2537652Y-2149856D01*
X+2537652Y-2168144D01*
X+2519364Y-2186432D01*
X+2482788Y-2186432D01*
X+2610804Y-2131568D02*
X+2565084Y-2131568D01*
X+2565084Y-2149856D01*
X+2601660Y-2149856D01*
X+2610804Y-2159000D01*
X+2610804Y-2177288D01*
X+2601660Y-2186432D01*
X+2574228Y-2186432D01*
X+2565084Y-2177288D01*
D13*
X+2331720Y+1568940D02*
X+2748280Y+1568940D01*
X+2748280Y+1733060D01*
X+2331720Y+1733060D01*
X+2331720Y+1568940D01*
D30*
X+2461223Y+1680541D02*
X+2461223Y+1621458D01*
X+2520305Y+1621458D01*
X+2559694Y+1660847D02*
X+2579388Y+1680541D01*
X+2579388Y+1621458D01*
D13*
X+2331720Y-463060D02*
X+2748280Y-463060D01*
X+2748280Y-298940D01*
X+2331720Y-298940D01*
X+2331720Y-463060D01*
D30*
X+2461223Y-351459D02*
X+2461223Y-410542D01*
X+2520305Y-410542D01*
X+2549847Y-361306D02*
X+2559694Y-351459D01*
X+2589235Y-351459D01*
X+2599082Y-361306D01*
X+2599082Y-371153D01*
X+2589235Y-381000D01*
X+2559694Y-381000D01*
X+2549847Y-390848D01*
X+2549847Y-410542D01*
X+2599082Y-410542D01*
D13*
X+2331720Y-1987060D02*
X+2748280Y-1987060D01*
X+2748280Y-1822940D01*
X+2331720Y-1822940D01*
X+2331720Y-1987060D01*
D30*
X+2461223Y-1875459D02*
X+2461223Y-1934542D01*
X+2520305Y-1934542D01*
X+2549847Y-1885306D02*
X+2559694Y-1875459D01*
X+2589235Y-1875459D01*
X+2599082Y-1885306D01*
X+2599082Y-1895153D01*
X+2589235Y-1905000D01*
X+2599082Y-1914848D01*
X+2599082Y-1924695D01*
X+2589235Y-1934542D01*
X+2559694Y-1934542D01*
X+2549847Y-1924695D01*
X+2569541Y-1905000D02*
X+2589235Y-1905000D01*
D13*
X+2839720Y+1568940D02*
X+3256280Y+1568940D01*
X+3256280Y+1733060D01*
X+2839720Y+1733060D01*
X+2839720Y+1568940D01*
D30*
X+2969223Y+1621458D02*
X+2969223Y+1680541D01*
X+3028305Y+1680541D01*
X+2969223Y+1651000D02*
X+3008611Y+1651000D01*
X+3067694Y+1660847D02*
X+3087388Y+1680541D01*
X+3087388Y+1621458D01*
D13*
X+2839720Y-463060D02*
X+3256280Y-463060D01*
X+3256280Y-298940D01*
X+2839720Y-298940D01*
X+2839720Y-463060D01*
D30*
X+2969223Y-410542D02*
X+2969223Y-351459D01*
X+3028305Y-351459D01*
X+2969223Y-381000D02*
X+3008611Y-381000D01*
X+3057847Y-361306D02*
X+3067694Y-351459D01*
X+3097235Y-351459D01*
X+3107082Y-361306D01*
X+3107082Y-371153D01*
X+3097235Y-381000D01*
X+3067694Y-381000D01*
X+3057847Y-390848D01*
X+3057847Y-410542D01*
X+3107082Y-410542D01*
D13*
X+2839720Y-1987060D02*
X+3256280Y-1987060D01*
X+3256280Y-1822940D01*
X+2839720Y-1822940D01*
X+2839720Y-1987060D01*
D30*
X+2969223Y-1934542D02*
X+2969223Y-1875459D01*
X+3028305Y-1875459D01*
X+2969223Y-1905000D02*
X+3008611Y-1905000D01*
X+3057847Y-1885306D02*
X+3067694Y-1875459D01*
X+3097235Y-1875459D01*
X+3107082Y-1885306D01*
X+3107082Y-1895153D01*
X+3097235Y-1905000D01*
X+3107082Y-1914848D01*
X+3107082Y-1924695D01*
X+3097235Y-1934542D01*
X+3067694Y-1934542D01*
X+3057847Y-1924695D01*
X+3077541Y-1905000D02*
X+3097235Y-1905000D01*
D13*
X+2712720Y-5080D02*
X+3002280Y-5080D01*
X+3002280Y+137160D01*
X+2712720Y+137160D01*
X+2712720Y-5080D01*
D72*
X+2789225Y+40436D02*
X+2789225Y+91643D01*
X+2831896Y+91643D01*
X+2840431Y+83108D01*
X+2840431Y+74574D01*
X+2831896Y+66040D01*
X+2789225Y+66040D01*
X+2831896Y+66040D02*
X+2840431Y+57505D01*
X+2840431Y+40436D01*
X+2866034Y+83108D02*
X+2874568Y+91643D01*
X+2900171Y+91643D01*
X+2908706Y+83108D01*
X+2908706Y+74574D01*
X+2900171Y+66040D01*
X+2874568Y+66040D01*
X+2866034Y+57505D01*
X+2866034Y+40436D01*
X+2908706Y+40436D01*
D13*
X+2712720Y+950840D02*
X+3047660Y+950840D01*
X+3047660Y+1081160D01*
X+2712720Y+1081160D01*
X+2712720Y+950840D01*
D31*
X+2817637Y+992542D02*
X+2817637Y+1039457D01*
X+2848913Y+1039457D01*
X+2864551Y+1023819D01*
X+2864551Y+1008180D01*
X+2848913Y+992542D01*
X+2817637Y+992542D01*
X+2927104Y+1031638D02*
X+2919285Y+1039457D01*
X+2895828Y+1039457D01*
X+2888009Y+1031638D01*
X+2888009Y+1000361D01*
X+2895828Y+992542D01*
X+2919285Y+992542D01*
X+2927104Y+1000361D01*
X+2927104Y+1008180D01*
X+2919285Y+1016000D01*
X+2888009Y+1016000D01*
D13*
X+2712720Y+188840D02*
X+3047660Y+188840D01*
X+3047660Y+319160D01*
X+2712720Y+319160D01*
X+2712720Y+188840D01*
D31*
X+2817637Y+230542D02*
X+2817637Y+277457D01*
X+2848913Y+277457D01*
X+2864551Y+261819D01*
X+2864551Y+246180D01*
X+2848913Y+230542D01*
X+2817637Y+230542D01*
X+2888009Y+277457D02*
X+2927104Y+277457D01*
X+2927104Y+269638D01*
X+2888009Y+230542D01*
D13*
X+2712720Y-1335160D02*
X+3047660Y-1335160D01*
X+3047660Y-1204840D01*
X+2712720Y-1204840D01*
X+2712720Y-1335160D01*
D31*
X+2817637Y-1293458D02*
X+2817637Y-1246543D01*
X+2848913Y-1246543D01*
X+2864551Y-1262181D01*
X+2864551Y-1277820D01*
X+2848913Y-1293458D01*
X+2817637Y-1293458D01*
X+2895828Y-1270000D02*
X+2888009Y-1262181D01*
X+2888009Y-1254362D01*
X+2895828Y-1246543D01*
X+2919285Y-1246543D01*
X+2927104Y-1254362D01*
X+2927104Y-1262181D01*
X+2919285Y-1270000D01*
X+2895828Y-1270000D01*
X+2888009Y-1277820D01*
X+2888009Y-1285639D01*
X+2895828Y-1293458D01*
X+2919285Y-1293458D01*
X+2927104Y-1285639D01*
X+2927104Y-1277820D01*
X+2919285Y-1270000D01*
D13*
X+2712720Y-1529080D02*
X+3002280Y-1529080D01*
X+3002280Y-1386840D01*
X+2712720Y-1386840D01*
X+2712720Y-1529080D01*
D72*
X+2789225Y-1483564D02*
X+2789225Y-1432357D01*
X+2831896Y-1432357D01*
X+2840431Y-1440892D01*
X+2840431Y-1449426D01*
X+2831896Y-1457960D01*
X+2789225Y-1457960D01*
X+2831896Y-1457960D02*
X+2840431Y-1466495D01*
X+2840431Y-1483564D01*
X+2866034Y-1440892D02*
X+2874568Y-1432357D01*
X+2900171Y-1432357D01*
X+2908706Y-1440892D01*
X+2908706Y-1449426D01*
X+2900171Y-1457960D01*
X+2908706Y-1466495D01*
X+2908706Y-1475029D01*
X+2900171Y-1483564D01*
X+2874568Y-1483564D01*
X+2866034Y-1475029D01*
X+2883103Y-1457960D02*
X+2900171Y-1457960D01*
D13*
X+2712720Y+756920D02*
X+3002280Y+756920D01*
X+3002280Y+899160D01*
X+2712720Y+899160D01*
X+2712720Y+756920D01*
D72*
X+2789225Y+802436D02*
X+2789225Y+853643D01*
X+2831896Y+853643D01*
X+2840431Y+845108D01*
X+2840431Y+836574D01*
X+2831896Y+828040D01*
X+2789225Y+828040D01*
X+2831896Y+828040D02*
X+2840431Y+819505D01*
X+2840431Y+802436D01*
X+2874568Y+836574D02*
X+2891637Y+853643D01*
X+2891637Y+802436D01*
X+2891637Y+802436D01*
D13*
X-5080000Y-3302000D02*
X+5080000Y-3302000D01*
X+5080000Y+7620000D01*
X-5080000Y+7620000D01*
X-5080000Y-3302000D01*
M02*
