G04 PROTEUS GERBER X2 FILE*
%TF.GenerationSoftware,Labcenter,Proteus,8.5-SP0-Build22067*%
%TF.CreationDate,2018-03-12T21:06:28+00:00*%
%TF.FileFunction,Plated,1,16,PTH*%
%TF.FilePolarity,Positive*%
%TF.Part,Single*%
%FSLAX45Y45*%
%MOMM*%
G01*
%TA.AperFunction,ViaDrill*%
%ADD38C,0.381000*%
%TA.AperFunction,ComponentDrill*%
%ADD39C,2.000000*%
%ADD40C,0.965200*%
%ADD41C,1.016000*%
D38*
X+254000Y+793500D03*
X+254000Y+2825500D03*
X+683000Y+5778500D03*
X+683000Y+4762500D03*
X+762000Y+2635500D03*
X+825500Y+5651500D03*
X+73621Y+6286500D03*
X+127000Y+8445500D03*
X+889000Y+6985000D03*
X+254000Y+3841500D03*
D39*
X+190500Y+9715500D03*
X+190500Y+190500D03*
D40*
X+381000Y+7112000D03*
X+635000Y+7112000D03*
X+381000Y+7366000D03*
X+635000Y+7366000D03*
X+381000Y+7620000D03*
X+635000Y+7620000D03*
X+381000Y+7874000D03*
X+635000Y+7874000D03*
X+381000Y+8128000D03*
X+635000Y+8128000D03*
X+381000Y+8382000D03*
X+635000Y+8382000D03*
X+381000Y+8636000D03*
X+635000Y+8636000D03*
X+381000Y+8890000D03*
X+635000Y+8890000D03*
D41*
X+762000Y+6096000D03*
X+508000Y+6096000D03*
X+254000Y+6096000D03*
X+762000Y+5080000D03*
X+508000Y+5080000D03*
X+254000Y+5080000D03*
X+762000Y+4064000D03*
X+508000Y+4064000D03*
X+254000Y+4064000D03*
X+762000Y+3048000D03*
X+508000Y+3048000D03*
X+254000Y+3048000D03*
X+762000Y+2032000D03*
X+508000Y+2032000D03*
X+254000Y+2032000D03*
X+762000Y+1016000D03*
X+508000Y+1016000D03*
X+254000Y+1016000D03*
D39*
X+825500Y+190500D03*
X+825500Y+9715500D03*
M02*
