  0
SECTION
  2
HEADER
  9
$ACADVER
  1
AC1015
  9
$ACADMAINTVER
 70
     6
  9
$DWGCODEPAGE
  3
ANSI_1252
  9
$INSBASE
 10
0.0
 20
0.0
 30
0.0
  9
$EXTMIN
 10
1.000000000000000E+20
 20
1.000000000000000E+20
 30
1.000000000000000E+20
  9
$EXTMAX
 10
-1.000000000000000E+20
 20
-1.000000000000000E+20
 30
-1.000000000000000E+20
  9
$LIMMIN
 10
0.0
 20
0.0
  9
$LIMMAX
 10
12.0
 20
9.0
  9
$ORTHOMODE
 70
     0
  9
$REGENMODE
 70
     1
  9
$FILLMODE
 70
     1
  9
$QTEXTMODE
 70
     0
  9
$MIRRTEXT
 70
     1
  9
$LTSCALE
 40
1.0
  9
$ATTMODE
 70
     1
  9
$TEXTSIZE
 40
0.2
  9
$TRACEWID
 40
0.05
  9
$TEXTSTYLE
  7
Standard
  9
$CLAYER
  8
0
  9
$CELTYPE
  6
ByLayer
  9
$CECOLOR
 62
   256
  9
$CELTSCALE
 40
1.0
  9
$DISPSILH
 70
     0
  9
$DIMSCALE
 40
1.0
  9
$DIMASZ
 40
0.18
  9
$DIMEXO
 40
0.0625
  9
$DIMDLI
 40
0.38
  9
$DIMRND
 40
0.0
  9
$DIMDLE
 40
0.0
  9
$DIMEXE
 40
0.18
  9
$DIMTP
 40
0.0
  9
$DIMTM
 40
0.0
  9
$DIMTXT
 40
0.18
  9
$DIMCEN
 40
0.09
  9
$DIMTSZ
 40
0.0
  9
$DIMTOL
 70
     0
  9
$DIMLIM
 70
     0
  9
$DIMTIH
 70
     1
  9
$DIMTOH
 70
     1
  9
$DIMSE1
 70
     0
  9
$DIMSE2
 70
     0
  9
$DIMTAD
 70
     0
  9
$DIMZIN
 70
     0
  9
$DIMBLK
  1

  9
$DIMASO
 70
     1
  9
$DIMSHO
 70
     1
  9
$DIMPOST
  1

  9
$DIMAPOST
  1

  9
$DIMALT
 70
     0
  9
$DIMALTD
 70
     2
  9
$DIMALTF
 40
25.4
  9
$DIMLFAC
 40
1.0
  9
$DIMTOFL
 70
     0
  9
$DIMTVP
 40
0.0
  9
$DIMTIX
 70
     0
  9
$DIMSOXD
 70
     0
  9
$DIMSAH
 70
     0
  9
$DIMBLK1
  1

  9
$DIMBLK2
  1

  9
$DIMSTYLE
  2
Standard
  9
$DIMCLRD
 70
     0
  9
$DIMCLRE
 70
     0
  9
$DIMCLRT
 70
     0
  9
$DIMTFAC
 40
1.0
  9
$DIMGAP
 40
0.09
  9
$DIMJUST
 70
     0
  9
$DIMSD1
 70
     0
  9
$DIMSD2
 70
     0
  9
$DIMTOLJ
 70
     1
  9
$DIMTZIN
 70
     0
  9
$DIMALTZ
 70
     0
  9
$DIMALTTZ
 70
     0
  9
$DIMUPT
 70
     0
  9
$DIMDEC
 70
     4
  9
$DIMTDEC
 70
     4
  9
$DIMALTU
 70
     2
  9
$DIMALTTD
 70
     2
  9
$DIMTXSTY
  7
Standard
  9
$DIMAUNIT
 70
     0
  9
$DIMADEC
 70
     0
  9
$DIMALTRND
 40
0.0
  9
$DIMAZIN
 70
     0
  9
$DIMDSEP
 70
    46
  9
$DIMATFIT
 70
     3
  9
$DIMFRAC
 70
     0
  9
$DIMLDRBLK
  1

  9
$DIMLUNIT
 70
     2
  9
$DIMLWD
 70
    -2
  9
$DIMLWE
 70
    -2
  9
$DIMTMOVE
 70
     0
  9
$LUNITS
 70
     2
  9
$LUPREC
 70
     4
  9
$SKETCHINC
 40
0.1
  9
$FILLETRAD
 40
0.5
  9
$AUNITS
 70
     0
  9
$AUPREC
 70
     0
  9
$MENU
  1
.
  9
$ELEVATION
 40
0.0
  9
$PELEVATION
 40
0.0
  9
$THICKNESS
 40
0.0
  9
$LIMCHECK
 70
     0
  9
$CHAMFERA
 40
0.5
  9
$CHAMFERB
 40
0.5
  9
$CHAMFERC
 40
1.0
  9
$CHAMFERD
 40
0.0
  9
$SKPOLY
 70
     0
  9
$TDCREATE
 40
2458121.709864954
  9
$TDUCREATE
 40
2458121.668198287
  9
$TDUPDATE
 40
2458121.709864965
  9
$TDUUPDATE
 40
2458121.668198299
  9
$TDINDWG
 40
0.0000000116
  9
$TDUSRTIMER
 40
0.0000000116
  9
$USRTIMER
 70
     1
  9
$ANGBASE
 50
0.0
  9
$ANGDIR
 70
     0
  9
$PDMODE
 70
     0
  9
$PDSIZE
 40
0.0
  9
$PLINEWID
 40
0.0
  9
$SPLFRAME
 70
     0
  9
$SPLINETYPE
 70
     6
  9
$SPLINESEGS
 70
     8
  9
$HANDSEED
  5
51
  9
$SURFTAB1
 70
     6
  9
$SURFTAB2
 70
     6
  9
$SURFTYPE
 70
     6
  9
$SURFU
 70
     6
  9
$SURFV
 70
     6
  9
$UCSBASE
  2

  9
$UCSNAME
  2

  9
$UCSORG
 10
0.0
 20
0.0
 30
0.0
  9
$UCSXDIR
 10
1.0
 20
0.0
 30
0.0
  9
$UCSYDIR
 10
0.0
 20
1.0
 30
0.0
  9
$UCSORTHOREF
  2

  9
$UCSORTHOVIEW
 70
     0
  9
$UCSORGTOP
 10
0.0
 20
0.0
 30
0.0
  9
$UCSORGBOTTOM
 10
0.0
 20
0.0
 30
0.0
  9
$UCSORGLEFT
 10
0.0
 20
0.0
 30
0.0
  9
$UCSORGRIGHT
 10
0.0
 20
0.0
 30
0.0
  9
$UCSORGFRONT
 10
0.0
 20
0.0
 30
0.0
  9
$UCSORGBACK
 10
0.0
 20
0.0
 30
0.0
  9
$PUCSBASE
  2

  9
$PUCSNAME
  2

  9
$PUCSORG
 10
0.0
 20
0.0
 30
0.0
  9
$PUCSXDIR
 10
1.0
 20
0.0
 30
0.0
  9
$PUCSYDIR
 10
0.0
 20
1.0
 30
0.0
  9
$PUCSORTHOREF
  2

  9
$PUCSORTHOVIEW
 70
     0
  9
$PUCSORGTOP
 10
0.0
 20
0.0
 30
0.0
  9
$PUCSORGBOTTOM
 10
0.0
 20
0.0
 30
0.0
  9
$PUCSORGLEFT
 10
0.0
 20
0.0
 30
0.0
  9
$PUCSORGRIGHT
 10
0.0
 20
0.0
 30
0.0
  9
$PUCSORGFRONT
 10
0.0
 20
0.0
 30
0.0
  9
$PUCSORGBACK
 10
0.0
 20
0.0
 30
0.0
  9
$USERI1
 70
     0
  9
$USERI2
 70
     0
  9
$USERI3
 70
     0
  9
$USERI4
 70
     0
  9
$USERI5
 70
     0
  9
$USERR1
 40
0.0
  9
$USERR2
 40
0.0
  9
$USERR3
 40
0.0
  9
$USERR4
 40
0.0
  9
$USERR5
 40
0.0
  9
$WORLDVIEW
 70
     1
  9
$SHADEDGE
 70
     3
  9
$SHADEDIF
 70
    70
  9
$TILEMODE
 70
     1
  9
$MAXACTVP
 70
    64
  9
$PINSBASE
 10
0.0
 20
0.0
 30
0.0
  9
$PLIMCHECK
 70
     0
  9
$PEXTMIN
 10
1.000000000000000E+20
 20
1.000000000000000E+20
 30
1.000000000000000E+20
  9
$PEXTMAX
 10
-1.000000000000000E+20
 20
-1.000000000000000E+20
 30
-1.000000000000000E+20
  9
$PLIMMIN
 10
0.0
 20
0.0
  9
$PLIMMAX
 10
12.0
 20
9.0
  9
$UNITMODE
 70
     0
  9
$VISRETAIN
 70
     1
  9
$PLINEGEN
 70
     0
  9
$PSLTSCALE
 70
     1
  9
$TREEDEPTH
 70
  3020
  9
$CMLSTYLE
  2
Standard
  9
$CMLJUST
 70
     0
  9
$CMLSCALE
 40
1.0
  9
$PROXYGRAPHICS
 70
     1
  9
$MEASUREMENT
 70
     0
  9
$CELWEIGHT
370
    -1
  9
$ENDCAPS
280
     0
  9
$JOINSTYLE
280
     0
  9
$LWDISPLAY
290
     1
  9
$INSUNITS
 70
     1
  9
$HYPERLINKBASE
  1

  9
$STYLESHEET
  1

  9
$XEDIT
290
     1
  9
$CEPSNTYPE
380
     0
  9
$PSTYLEMODE
290
     1
  9
$FINGERPRINTGUID
  2
{D1AA4C7F-9CBC-41FD-879A-382924037F63}
  9
$VERSIONGUID
  2
{FAEB1C32-E019-11D5-929B-00C0DF256EC4}
  9
$EXTNAMES
290
     1
  9
$PSVPSCALE
 40
0.0
  9
$OLESTARTUP
290
     0
  0
ENDSEC
  0
SECTION
  2
CLASSES
  0
CLASS
  1
ACDBDICTIONARYWDFLT
  2
AcDbDictionaryWithDefault
  3
ObjectDBX Classes
 90
        0
280
     0
281
     0
  0
CLASS
  1
VISUALSTYLE
  2
AcDbVisualStyle
  3
ObjectDBX Classes
 90
     4095
280
     0
281
     0
  0
CLASS
  1
ACDBPLACEHOLDER
  2
AcDbPlaceHolder
  3
ObjectDBX Classes
 90
        0
280
     0
281
     0
  0
CLASS
  1
LAYOUT
  2
AcDbLayout
  3
ObjectDBX Classes
 90
        0
280
     0
281
     0
  0
ENDSEC
  0
SECTION
  2
TABLES
  0
TABLE
  2
VPORT
  5
8
330
0
100
AcDbSymbolTable
 70
     1
  0
VPORT
  5
29
330
8
100
AcDbSymbolTableRecord
100
AcDbViewportTableRecord
  2
*Active
 70
     0
 10
0.0
 20
0.0
 11
1.0
 21
1.0
 12
0.0
 22
0.0
 13
0.0
 23
0.0
 14
0.5
 24
0.5
 15
0.5
 25
0.5
 16
0.0
 26
0.0
 36
1.0
 17
0.015
 27
0.09
 37
0.0
 40
0.3
 41
3.333333333333333
 42
50.0
 43
0.0
 44
0.0
 50
0.0
 51
0.0
 71
     0
 72
   100
 73
     1
 74
     3
 75
     0
 76
     0
 77
     0
 78
     0
281
     0
 65
     1
110
0.0
120
0.0
130
0.0
111
1.0
121
0.0
131
0.0
112
0.0
122
1.0
132
0.0
 79
     0
146
0.0
  0
ENDTAB
  0
TABLE
  2
LTYPE
  5
5
330
0
100
AcDbSymbolTable
 70
     1
  0
LTYPE
  5
14
330
5
100
AcDbSymbolTableRecord
100
AcDbLinetypeTableRecord
  2
ByBlock
 70
     0
  3

 72
    65
 73
     0
 40
0.0
  0
LTYPE
  5
15
330
5
100
AcDbSymbolTableRecord
100
AcDbLinetypeTableRecord
  2
ByLayer
 70
     0
  3

 72
    65
 73
     0
 40
0.0
  0
LTYPE
  5
16
330
5
100
AcDbSymbolTableRecord
100
AcDbLinetypeTableRecord
  2
Continuous
 70
     0
  3
Solid line
 72
    65
 73
     0
 40
0.0
  0
ENDTAB
  0
TABLE
  2
LAYER
  5
2
330
0
100
AcDbSymbolTable
 70
     2
  0
LAYER
  5
10
330
2
100
AcDbSymbolTableRecord
100
AcDbLayerTableRecord
  2
0
 70
     0
 62
     7
  6
Continuous
370
    -3
390
F
  0
LAYER
  5
3B
330
2
100
AcDbSymbolTableRecord
100
AcDbLayerTableRecord
  2
Layer 1
 70
     0
 62
     7
  6
Continuous
370
    -3
390
F
  0
ENDTAB
  0
TABLE
  2
STYLE
  5
3
330
0
100
AcDbSymbolTable
 70
     1
  0
STYLE
  5
11
330
3
100
AcDbSymbolTableRecord
100
AcDbTextStyleTableRecord
  2
Standard
 70
     0
 40
0.0
 41
1.0
 50
0.0
 71
     0
 42
0.2
  3
txt
  4

  0
ENDTAB
  0
TABLE
  2
VIEW
  5
6
330
0
100
AcDbSymbolTable
 70
     0
  0
ENDTAB
  0
TABLE
  2
UCS
  5
7
330
0
100
AcDbSymbolTable
 70
     0
  0
ENDTAB
  0
TABLE
  2
APPID
  5
9
330
0
100
AcDbSymbolTable
 70
     1
  0
APPID
  5
12
330
9
100
AcDbSymbolTableRecord
100
AcDbRegAppTableRecord
  2
ACAD
 70
     0
  0
ENDTAB
  0
TABLE
  2
DIMSTYLE
  5
A
330
0
100
AcDbSymbolTable
 70
     1
100
AcDbDimStyleTable
  0
DIMSTYLE
105
27
330
A
100
AcDbSymbolTableRecord
100
AcDbDimStyleTableRecord
  2
Standard
 70
     0
340
11
  0
ENDTAB
  0
TABLE
  2
BLOCK_RECORD
  5
1
330
0
100
AcDbSymbolTable
 70
     2
  0
BLOCK_RECORD
  5
1F
330
1
100
AcDbSymbolTableRecord
100
AcDbBlockTableRecord
  2
*Model_Space
340
22
  0
BLOCK_RECORD
  5
1B
330
1
100
AcDbSymbolTableRecord
100
AcDbBlockTableRecord
  2
*Paper_Space
340
1E
  0
BLOCK_RECORD
  5
23
330
1
100
AcDbSymbolTableRecord
100
AcDbBlockTableRecord
  2
*Paper_Space0
340
26
  0
BLOCK_RECORD
  5
3C
330
1
100
AcDbSymbolTableRecord
100
AcDbBlockTableRecord
  2
block 2
340
0
102
{BLKREFS
331
3D
102
}
  0
ENDTAB
  0
ENDSEC
  0
SECTION
  2
BLOCKS
  0
BLOCK
  5
20
330
1F
100
AcDbEntity
  8
0
100
AcDbBlockBegin
  2
*Model_Space
 70
     0
 71
     0
 10
0.0
 20
0.0
 30
0.0
  3
*Model_Space
  1

  0
ENDBLK
  5
21
330
1F
100
AcDbEntity
  8
0
100
AcDbBlockEnd
  0
BLOCK
  5
1C
330
1B
100
AcDbEntity
 67
     1
  8
0
100
AcDbBlockBegin
  2
*Paper_Space
 70
     0
 71
     0
 10
0.0
 20
0.0
 30
0.0
  3
*Paper_Space
  1

  0
ENDBLK
  5
1D
330
1B
100
AcDbEntity
 67
     1
  8
0
100
AcDbBlockEnd
  0
BLOCK
  5
24
330
23
100
AcDbEntity
  8
0
100
AcDbBlockBegin
  2
*Paper_Space0
 70
     0
 71
     0
 10
0.0
 20
0.0
 30
0.0
  3
*Paper_Space0
  1

  0
ENDBLK
  5
25
330
23
100
AcDbEntity
  8
0
100
AcDbBlockEnd
  0
BLOCK
  5
3E
330
3C
100
AcDbEntity
  8
0
100
AcDbBlockBegin
  2
block 2
 70
     0
 71
     0
 10
0.0
 20
0.0
 30
0.0
  3
block 2
  1

  0
SPLINE
  5
40
330
3C
100
AcDbEntity
  8
Layer 1
370
     0
100
AcDbSpline
210
0.0
220
0.0
230
1.0
 70
    11
 71
     3
 72
    59
 73
    55
 74
     0
 42
0.0000000001
 43
0.0000000001
 40
0.0
 40
0.0
 40
0.0
 40
0.0
 40
1.0
 40
1.0
 40
1.0
 40
2.0
 40
2.0
 40
2.0
 40
3.0
 40
3.0
 40
3.0
 40
4.0
 40
4.0
 40
4.0
 40
5.0
 40
5.0
 40
5.0
 40
6.0
 40
6.0
 40
6.0
 40
7.0
 40
7.0
 40
7.0
 40
8.0
 40
8.0
 40
8.0
 40
9.0
 40
9.0
 40
9.0
 40
10.0
 40
10.0
 40
10.0
 40
11.0
 40
11.0
 40
11.0
 40
12.0
 40
12.0
 40
12.0
 40
13.0
 40
13.0
 40
13.0
 40
14.0
 40
14.0
 40
14.0
 40
15.0
 40
15.0
 40
15.0
 40
16.0
 40
16.0
 40
16.0
 40
17.0
 40
17.0
 40
17.0
 40
18.0
 40
18.0
 40
18.0
 40
18.0
 10
0.03091796875
 20
0.10264453125
 30
0.0
 10
0.0312255859375
 20
0.10453369140625
 30
0.0
 10
0.0314921875
 20
0.10643017578125
 30
0.0
 10
0.0313544921875
 20
0.1082705078125
 30
0.0
 10
0.0310361328125
 20
0.11249169921875
 30
0.0
 10
0.0305625
 20
0.11669482421875
 30
0.0
 10
0.0299482421875
 20
0.12087744140625
 30
0.0
 10
0.029640625
 20
0.12297265625
 30
0.0
 10
0.02861328125
 20
0.12495166015625
 30
0.0
 10
0.02658203125
 20
0.12671240234375
 30
0.0
 10
0.02466015625
 20
0.12837744140625
 30
0.0
 10
0.0203056640625
 20
0.12879345703125
 30
0.0
 10
0.01553125
 20
0.1277421875
 30
0.0
 10
0.01271484375
 20
0.1271220703125
 30
0.0
 10
0.010689453125
 20
0.126203125
 30
0.0
 10
0.0101435546875
 20
0.12492041015625
 30
0.0
 10
0.00959814453125
 20
0.12364306640625
 30
0.0
 10
0.010791015625
 20
0.12281982421875
 30
0.0
 10
0.0132421875
 20
0.12240771484375
 30
0.0
 10
0.01466796875
 20
0.12216796875
 30
0.0
 10
0.016158203125
 20
0.12197509765625
 30
0.0
 10
0.017626953125
 20
0.1217666015625
 30
0.0
 10
0.01910546875
 20
0.1215556640625
 30
0.0
 10
0.01987890625
 20
0.121083984375
 30
0.0
 10
0.0201806640625
 20
0.12042822265625
 30
0.0
 10
0.02071484375
 20
0.119271484375
 30
0.0
 10
0.0213193359375
 20
0.1181259765625
 30
0.0
 10
0.0217939453125
 20
0.11695849609375
 30
0.0
 10
0.022048828125
 20
0.11633251953125
 30
0.0
 10
0.0222490234375
 20
0.11568408203125
 30
0.0
 10
0.0221806640625
 20
0.11501806640625
 30
0.0
 10
0.0221396484375
 20
0.11459765625
 30
0.0
 10
0.0218427734375
 20
0.11403564453125
 30
0.0
 10
0.0211669921875
 20
0.113693359375
 30
0.0
 10
0.01834375
 20
0.11226025390625
 30
0.0
 10
0.01835546875
 20
0.11085693359375
 30
0.0
 10
0.0186787109375
 20
0.109490234375
 30
0.0
 10
0.0192568359375
 20
0.107041015625
 30
0.0
 10
0.0202197265625
 20
0.10464794921875
 30
0.0
 10
0.02073046875
 20
0.10218896484375
 30
0.0
 10
0.021095703125
 20
0.1004228515625
 30
0.0
 10
0.0209951171875
 20
0.09858935546875
 30
0.0
 10
0.0210849609375
 20
0.0967841796875
 30
0.0
 10
0.02112890625
 20
0.0958935546875
 30
0.0
 10
0.021130859375
 20
0.09497314453125
 30
0.0
 10
0.0227001953125
 20
0.09444970703125
 30
0.0
 10
0.024267578125
 20
0.0939267578125
 30
0.0
 10
0.026048828125
 20
0.0935087890625
 30
0.0
 10
0.0283662109375
 20
0.0928720703125
 30
0.0
 10
0.028751953125
 20
0.09368798828125
 30
0.0
 10
0.02916796875
 20
0.0943095703125
 30
0.0
 10
0.029306640625
 20
0.094912109375
 30
0.0
 10
0.0298994140625
 20
0.09749365234375
 30
0.0
 10
0.0305009765625
 20
0.1000771484375
 30
0.0
 10
0.03091796875
 20
0.10264453125
 30
0.0
  0
HATCH
  5
41
330
3C
100
AcDbEntity
  8
Layer 1
 62
     7
100
AcDbHatch
 10
0.0
 20
0.0
 30
0.0
210
0.0
220
0.0
230
1.0
  2
SOLID
 70
     1
 71
     0
 91
        1
 92
        1
 93
        1
 72
     4
 94
        3
 73
     0
 74
     1
 95
       59
 96
       55
 40
0.0
 40
0.0
 40
0.0
 40
0.0
 40
1.0
 40
1.0
 40
1.0
 40
2.0
 40
2.0
 40
2.0
 40
3.0
 40
3.0
 40
3.0
 40
4.0
 40
4.0
 40
4.0
 40
5.0
 40
5.0
 40
5.0
 40
6.0
 40
6.0
 40
6.0
 40
7.0
 40
7.0
 40
7.0
 40
8.0
 40
8.0
 40
8.0
 40
9.0
 40
9.0
 40
9.0
 40
10.0
 40
10.0
 40
10.0
 40
11.0
 40
11.0
 40
11.0
 40
12.0
 40
12.0
 40
12.0
 40
13.0
 40
13.0
 40
13.0
 40
14.0
 40
14.0
 40
14.0
 40
15.0
 40
15.0
 40
15.0
 40
16.0
 40
16.0
 40
16.0
 40
17.0
 40
17.0
 40
17.0
 40
18.0
 40
18.0
 40
18.0
 40
18.0
 10
0.03091796875
 20
0.10264453125
 10
0.0312255859375
 20
0.10453369140625
 10
0.0314921875
 20
0.10643017578125
 10
0.0313544921875
 20
0.1082705078125
 10
0.0310361328125
 20
0.11249169921875
 10
0.0305625
 20
0.11669482421875
 10
0.0299482421875
 20
0.12087744140625
 10
0.029640625
 20
0.12297265625
 10
0.02861328125
 20
0.12495166015625
 10
0.02658203125
 20
0.12671240234375
 10
0.02466015625
 20
0.12837744140625
 10
0.0203056640625
 20
0.12879345703125
 10
0.01553125
 20
0.1277421875
 10
0.01271484375
 20
0.1271220703125
 10
0.010689453125
 20
0.126203125
 10
0.0101435546875
 20
0.12492041015625
 10
0.00959814453125
 20
0.12364306640625
 10
0.010791015625
 20
0.12281982421875
 10
0.0132421875
 20
0.12240771484375
 10
0.01466796875
 20
0.12216796875
 10
0.016158203125
 20
0.12197509765625
 10
0.017626953125
 20
0.1217666015625
 10
0.01910546875
 20
0.1215556640625
 10
0.01987890625
 20
0.121083984375
 10
0.0201806640625
 20
0.12042822265625
 10
0.02071484375
 20
0.119271484375
 10
0.0213193359375
 20
0.1181259765625
 10
0.0217939453125
 20
0.11695849609375
 10
0.022048828125
 20
0.11633251953125
 10
0.0222490234375
 20
0.11568408203125
 10
0.0221806640625
 20
0.11501806640625
 10
0.0221396484375
 20
0.11459765625
 10
0.0218427734375
 20
0.11403564453125
 10
0.0211669921875
 20
0.113693359375
 10
0.01834375
 20
0.11226025390625
 10
0.01835546875
 20
0.11085693359375
 10
0.0186787109375
 20
0.109490234375
 10
0.0192568359375
 20
0.107041015625
 10
0.0202197265625
 20
0.10464794921875
 10
0.02073046875
 20
0.10218896484375
 10
0.021095703125
 20
0.1004228515625
 10
0.0209951171875
 20
0.09858935546875
 10
0.0210849609375
 20
0.0967841796875
 10
0.02112890625
 20
0.0958935546875
 10
0.021130859375
 20
0.09497314453125
 10
0.0227001953125
 20
0.09444970703125
 10
0.024267578125
 20
0.0939267578125
 10
0.026048828125
 20
0.0935087890625
 10
0.0283662109375
 20
0.0928720703125
 10
0.028751953125
 20
0.09368798828125
 10
0.02916796875
 20
0.0943095703125
 10
0.029306640625
 20
0.094912109375
 10
0.0298994140625
 20
0.09749365234375
 10
0.0305009765625
 20
0.1000771484375
 10
0.03091796875
 20
0.10264453125
 97
        0
 75
     2
 76
     1
 98
        0
  0
SPLINE
  5
42
330
3C
100
AcDbEntity
  8
Layer 1
370
     0
100
AcDbSpline
210
0.0
220
0.0
230
1.0
 70
    11
 71
     3
 72
    92
 73
    88
 74
     0
 42
0.0000000001
 43
0.0000000001
 40
0.0
 40
0.0
 40
0.0
 40
0.0
 40
1.0
 40
1.0
 40
1.0
 40
2.0
 40
2.0
 40
2.0
 40
3.0
 40
3.0
 40
3.0
 40
4.0
 40
4.0
 40
4.0
 40
5.0
 40
5.0
 40
5.0
 40
6.0
 40
6.0
 40
6.0
 40
7.0
 40
7.0
 40
7.0
 40
8.0
 40
8.0
 40
8.0
 40
9.0
 40
9.0
 40
9.0
 40
10.0
 40
10.0
 40
10.0
 40
11.0
 40
11.0
 40
11.0
 40
12.0
 40
12.0
 40
12.0
 40
13.0
 40
13.0
 40
13.0
 40
14.0
 40
14.0
 40
14.0
 40
15.0
 40
15.0
 40
15.0
 40
16.0
 40
16.0
 40
16.0
 40
17.0
 40
17.0
 40
17.0
 40
18.0
 40
18.0
 40
18.0
 40
19.0
 40
19.0
 40
19.0
 40
20.0
 40
20.0
 40
20.0
 40
21.0
 40
21.0
 40
21.0
 40
22.0
 40
22.0
 40
22.0
 40
23.0
 40
23.0
 40
23.0
 40
24.0
 40
24.0
 40
24.0
 40
25.0
 40
25.0
 40
25.0
 40
26.0
 40
26.0
 40
26.0
 40
27.0
 40
27.0
 40
27.0
 40
28.0
 40
28.0
 40
28.0
 40
29.0
 40
29.0
 40
29.0
 40
29.0
 10
0.0823115234375
 20
0.0945654296875
 30
0.0
 10
0.079458984375
 20
0.0959482421875
 30
0.0
 10
0.076435546875
 20
0.09622509765625
 30
0.0
 10
0.073224609375
 20
0.09591064453125
 30
0.0
 10
0.07015625
 20
0.09605712890625
 30
0.0
 10
0.0673134765625
 20
0.095296875
 30
0.0
 10
0.0656318359375
 20
0.092369140625
 30
0.0
 10
0.0639853515625
 20
0.0895
 30
0.0
 10
0.06233984375
 20
0.08659375
 30
0.0
 10
0.0610908203125
 20
0.083541015625
 30
0.0
 10
0.059546875
 20
0.07976171875
 30
0.0
 10
0.0586318359375
 20
0.075775390625
 30
0.0
 10
0.0594853515625
 20
0.0716298828125
 30
0.0
 10
0.060947265625
 20
0.0645234375
 30
0.0
 10
0.06356640625
 20
0.058009765625
 30
0.0
 10
0.069119140625
 20
0.0530087890625
 30
0.0
 10
0.0697294921875
 20
0.052458984375
 30
0.0
 10
0.0702158203125
 20
0.051767578125
 30
0.0
 10
0.07074609375
 20
0.051130859375
 30
0.0
 10
0.073005859375
 20
0.0484130859375
 30
0.0
 10
0.0741806640625
 20
0.0451044921875
 30
0.0
 10
0.075763671875
 20
0.0420107421875
 30
0.0
 10
0.077087890625
 20
0.0394228515625
 30
0.0
 10
0.077501953125
 20
0.0368486328125
 30
0.0
 10
0.0774248046875
 20
0.03391796875
 30
0.0
 10
0.077232421875
 20
0.0266259765625
 30
0.0
 10
0.07341796875
 20
0.0217548828125
 30
0.0
 10
0.06722265625
 20
0.01903125
 30
0.0
 10
0.0613046875
 20
0.016427734375
 30
0.0
 10
0.054876953125
 20
0.015326171875
 30
0.0
 10
0.0483017578125
 20
0.0155146484375
 30
0.0
 10
0.0443291015625
 20
0.0156259765625
 30
0.0
 10
0.040349609375
 20
0.0155556640625
 30
0.0
 10
0.0363759765625
 20
0.015435546875
 30
0.0
 10
0.0350751953125
 20
0.015396484375
 30
0.0
 10
0.033728515625
 20
0.0151005859375
 30
0.0
 10
0.03250390625
 20
0.014646484375
 30
0.0
 10
0.0292392578125
 20
0.0134345703125
 30
0.0
 10
0.028458984375
 20
0.0112529296875
 30
0.0
 10
0.03002734375
 20
0.0081474609375
 30
0.0
 10
0.031953125
 20
0.0043310546875
 30
0.0
 10
0.0373828125
 20
0.0017333984375
 30
0.0
 10
0.0420703125
 20
0.0023779296875
 30
0.0
 10
0.0458427734375
 20
0.0028974609375
 30
0.0
 10
0.0496201171875
 20
0.0033935546875
 30
0.0
 10
0.053388671875
 20
0.003931640625
 30
0.0
 10
0.0546982421875
 20
0.0041201171875
 30
0.0
 10
0.055998046875
 20
0.00439453125
 30
0.0
 10
0.0572978515625
 20
0.00464453125
 30
0.0
 10
0.059248046875
 20
0.00501953125
 30
0.0
 10
0.06118359375
 20
0.005482421875
 30
0.0
 10
0.0631455078125
 20
0.0057705078125
 30
0.0
 10
0.0657978515625
 20
0.0061611328125
 30
0.0
 10
0.068345703125
 20
0.00675390625
 30
0.0
 10
0.0706181640625
 20
0.00827734375
 30
0.0
 10
0.0712958984375
 20
0.00873046875
 30
0.0
 10
0.0720849609375
 20
0.0090673828125
 30
0.0
 10
0.0728681640625
 20
0.0092998046875
 30
0.0
 10
0.0755380859375
 20
0.01008984375
 30
0.0
 10
0.0778330078125
 20
0.011515625
 30
0.0
 10
0.0800595703125
 20
0.0131474609375
 30
0.0
 10
0.0836318359375
 20
0.015767578125
 30
0.0
 10
0.0850087890625
 20
0.0195205078125
 30
0.0
 10
0.0854423828125
 20
0.0236455078125
 30
0.0
 10
0.0857080078125
 20
0.0261787109375
 30
0.0
 10
0.08548828125
 20
0.02877734375
 30
0.0
 10
0.085349609375
 20
0.03133984375
 30
0.0
 10
0.08507421875
 20
0.0363916015625
 30
0.0
 10
0.08319921875
 20
0.04098046875
 30
0.0
 10
0.0800380859375
 20
0.0447666015625
 30
0.0
 10
0.0753828125
 20
0.05033984375
 30
0.0
 10
0.0716279296875
 20
0.0564658203125
 30
0.0
 10
0.067884765625
 20
0.062625
 30
0.0
 10
0.0662529296875
 20
0.06530859375
 30
0.0
 10
0.0653212890625
 20
0.0683037109375
 30
0.0
 10
0.0655126953125
 20
0.071392578125
 30
0.0
 10
0.0659716796875
 20
0.0787734375
 30
0.0
 10
0.069181640625
 20
0.08279296875
 30
0.0
 10
0.0761591796875
 20
0.0828115234375
 30
0.0
 10
0.0796201171875
 20
0.0828203125
 30
0.0
 10
0.082376953125
 20
0.0841484375
 30
0.0
 10
0.085025390625
 20
0.08614453125
 30
0.0
 10
0.0869296875
 20
0.087578125
 30
0.0
 10
0.0873857421875
 20
0.0888837890625
 30
0.0
 10
0.0863154296875
 20
0.090986328125
 30
0.0
 10
0.0854462890625
 20
0.09269287109375
 30
0.0
 10
0.083986328125
 20
0.09375390625
 30
0.0
 10
0.0823115234375
 20
0.0945654296875
 30
0.0
  0
HATCH
  5
43
330
3C
100
AcDbEntity
  8
Layer 1
 62
     7
100
AcDbHatch
 10
0.0
 20
0.0
 30
0.0
210
0.0
220
0.0
230
1.0
  2
SOLID
 70
     1
 71
     0
 91
        1
 92
        1
 93
        1
 72
     4
 94
        3
 73
     0
 74
     1
 95
       92
 96
       88
 40
0.0
 40
0.0
 40
0.0
 40
0.0
 40
1.0
 40
1.0
 40
1.0
 40
2.0
 40
2.0
 40
2.0
 40
3.0
 40
3.0
 40
3.0
 40
4.0
 40
4.0
 40
4.0
 40
5.0
 40
5.0
 40
5.0
 40
6.0
 40
6.0
 40
6.0
 40
7.0
 40
7.0
 40
7.0
 40
8.0
 40
8.0
 40
8.0
 40
9.0
 40
9.0
 40
9.0
 40
10.0
 40
10.0
 40
10.0
 40
11.0
 40
11.0
 40
11.0
 40
12.0
 40
12.0
 40
12.0
 40
13.0
 40
13.0
 40
13.0
 40
14.0
 40
14.0
 40
14.0
 40
15.0
 40
15.0
 40
15.0
 40
16.0
 40
16.0
 40
16.0
 40
17.0
 40
17.0
 40
17.0
 40
18.0
 40
18.0
 40
18.0
 40
19.0
 40
19.0
 40
19.0
 40
20.0
 40
20.0
 40
20.0
 40
21.0
 40
21.0
 40
21.0
 40
22.0
 40
22.0
 40
22.0
 40
23.0
 40
23.0
 40
23.0
 40
24.0
 40
24.0
 40
24.0
 40
25.0
 40
25.0
 40
25.0
 40
26.0
 40
26.0
 40
26.0
 40
27.0
 40
27.0
 40
27.0
 40
28.0
 40
28.0
 40
28.0
 40
29.0
 40
29.0
 40
29.0
 40
29.0
 10
0.0823115234375
 20
0.0945654296875
 10
0.079458984375
 20
0.0959482421875
 10
0.076435546875
 20
0.09622509765625
 10
0.073224609375
 20
0.09591064453125
 10
0.07015625
 20
0.09605712890625
 10
0.0673134765625
 20
0.095296875
 10
0.0656318359375
 20
0.092369140625
 10
0.0639853515625
 20
0.0895
 10
0.06233984375
 20
0.08659375
 10
0.0610908203125
 20
0.083541015625
 10
0.059546875
 20
0.07976171875
 10
0.0586318359375
 20
0.075775390625
 10
0.0594853515625
 20
0.0716298828125
 10
0.060947265625
 20
0.0645234375
 10
0.06356640625
 20
0.058009765625
 10
0.069119140625
 20
0.0530087890625
 10
0.0697294921875
 20
0.052458984375
 10
0.0702158203125
 20
0.051767578125
 10
0.07074609375
 20
0.051130859375
 10
0.073005859375
 20
0.0484130859375
 10
0.0741806640625
 20
0.0451044921875
 10
0.075763671875
 20
0.0420107421875
 10
0.077087890625
 20
0.0394228515625
 10
0.077501953125
 20
0.0368486328125
 10
0.0774248046875
 20
0.03391796875
 10
0.077232421875
 20
0.0266259765625
 10
0.07341796875
 20
0.0217548828125
 10
0.06722265625
 20
0.01903125
 10
0.0613046875
 20
0.016427734375
 10
0.054876953125
 20
0.015326171875
 10
0.0483017578125
 20
0.0155146484375
 10
0.0443291015625
 20
0.0156259765625
 10
0.040349609375
 20
0.0155556640625
 10
0.0363759765625
 20
0.015435546875
 10
0.0350751953125
 20
0.015396484375
 10
0.033728515625
 20
0.0151005859375
 10
0.03250390625
 20
0.014646484375
 10
0.0292392578125
 20
0.0134345703125
 10
0.028458984375
 20
0.0112529296875
 10
0.03002734375
 20
0.0081474609375
 10
0.031953125
 20
0.0043310546875
 10
0.0373828125
 20
0.0017333984375
 10
0.0420703125
 20
0.0023779296875
 10
0.0458427734375
 20
0.0028974609375
 10
0.0496201171875
 20
0.0033935546875
 10
0.053388671875
 20
0.003931640625
 10
0.0546982421875
 20
0.0041201171875
 10
0.055998046875
 20
0.00439453125
 10
0.0572978515625
 20
0.00464453125
 10
0.059248046875
 20
0.00501953125
 10
0.06118359375
 20
0.005482421875
 10
0.0631455078125
 20
0.0057705078125
 10
0.0657978515625
 20
0.0061611328125
 10
0.068345703125
 20
0.00675390625
 10
0.0706181640625
 20
0.00827734375
 10
0.0712958984375
 20
0.00873046875
 10
0.0720849609375
 20
0.0090673828125
 10
0.0728681640625
 20
0.0092998046875
 10
0.0755380859375
 20
0.01008984375
 10
0.0778330078125
 20
0.011515625
 10
0.0800595703125
 20
0.0131474609375
 10
0.0836318359375
 20
0.015767578125
 10
0.0850087890625
 20
0.0195205078125
 10
0.0854423828125
 20
0.0236455078125
 10
0.0857080078125
 20
0.0261787109375
 10
0.08548828125
 20
0.02877734375
 10
0.085349609375
 20
0.03133984375
 10
0.08507421875
 20
0.0363916015625
 10
0.08319921875
 20
0.04098046875
 10
0.0800380859375
 20
0.0447666015625
 10
0.0753828125
 20
0.05033984375
 10
0.0716279296875
 20
0.0564658203125
 10
0.067884765625
 20
0.062625
 10
0.0662529296875
 20
0.06530859375
 10
0.0653212890625
 20
0.0683037109375
 10
0.0655126953125
 20
0.071392578125
 10
0.0659716796875
 20
0.0787734375
 10
0.069181640625
 20
0.08279296875
 10
0.0761591796875
 20
0.0828115234375
 10
0.0796201171875
 20
0.0828203125
 10
0.082376953125
 20
0.0841484375
 10
0.085025390625
 20
0.08614453125
 10
0.0869296875
 20
0.087578125
 10
0.0873857421875
 20
0.0888837890625
 10
0.0863154296875
 20
0.090986328125
 10
0.0854462890625
 20
0.09269287109375
 10
0.083986328125
 20
0.09375390625
 10
0.0823115234375
 20
0.0945654296875
 97
        0
 75
     2
 76
     1
 98
        0
  0
SPLINE
  5
44
330
3C
100
AcDbEntity
  8
Layer 1
370
     0
100
AcDbSpline
210
0.0
220
0.0
230
1.0
 70
    11
 71
     3
 72
   101
 73
    97
 74
     0
 42
0.0000000001
 43
0.0000000001
 40
0.0
 40
0.0
 40
0.0
 40
0.0
 40
1.0
 40
1.0
 40
1.0
 40
2.0
 40
2.0
 40
2.0
 40
3.0
 40
3.0
 40
3.0
 40
4.0
 40
4.0
 40
4.0
 40
5.0
 40
5.0
 40
5.0
 40
6.0
 40
6.0
 40
6.0
 40
7.0
 40
7.0
 40
7.0
 40
8.0
 40
8.0
 40
8.0
 40
9.0
 40
9.0
 40
9.0
 40
10.0
 40
10.0
 40
10.0
 40
11.0
 40
11.0
 40
11.0
 40
12.0
 40
12.0
 40
12.0
 40
13.0
 40
13.0
 40
13.0
 40
14.0
 40
14.0
 40
14.0
 40
15.0
 40
15.0
 40
15.0
 40
16.0
 40
16.0
 40
16.0
 40
17.0
 40
17.0
 40
17.0
 40
18.0
 40
18.0
 40
18.0
 40
19.0
 40
19.0
 40
19.0
 40
20.0
 40
20.0
 40
20.0
 40
21.0
 40
21.0
 40
21.0
 40
22.0
 40
22.0
 40
22.0
 40
23.0
 40
23.0
 40
23.0
 40
24.0
 40
24.0
 40
24.0
 40
25.0
 40
25.0
 40
25.0
 40
26.0
 40
26.0
 40
26.0
 40
27.0
 40
27.0
 40
27.0
 40
28.0
 40
28.0
 40
28.0
 40
29.0
 40
29.0
 40
29.0
 40
30.0
 40
30.0
 40
30.0
 40
31.0
 40
31.0
 40
31.0
 40
32.0
 40
32.0
 40
32.0
 40
32.0
 10
0.3107734375
 20
0.176515625
 30
0.0
 10
0.3090283203125
 20
0.17692626953125
 30
0.0
 10
0.3071796875
 20
0.1768984375
 30
0.0
 10
0.3053779296875
 20
0.17706689453125
 30
0.0
 10
0.30537109375
 20
0.17699853515625
 30
0.0
 10
0.3053642578125
 20
0.1769296875
 30
0.0
 10
0.305357421875
 20
0.17685986328125
 30
0.0
 10
0.304408203125
 20
0.17676318359375
 30
0.0
 10
0.3034560546875
 20
0.17668798828125
 30
0.0
 10
0.30251171875
 20
0.176564453125
 30
0.0
 10
0.2981845703125
 20
0.1760009765625
 30
0.0
 10
0.29549609375
 20
0.1733583984375
 30
0.0
 10
0.29484375
 20
0.16899267578125
 30
0.0
 10
0.2946650390625
 20
0.16779248046875
 30
0.0
 10
0.2944765625
 20
0.16657861328125
 30
0.0
 10
0.294478515625
 20
0.16537109375
 30
0.0
 10
0.29448828125
 20
0.15791650390625
 30
0.0
 10
0.2945302734375
 20
0.1504619140625
 30
0.0
 10
0.294603515625
 20
0.14300732421875
 30
0.0
 10
0.294654296875
 20
0.137892578125
 30
0.0
 10
0.2948056640625
 20
0.13277783203125
 30
0.0
 10
0.2948505859375
 20
0.12766259765625
 30
0.0
 10
0.2949052734375
 20
0.12159423828125
 30
0.0
 10
0.2948779296875
 20
0.11552294921875
 30
0.0
 10
0.294919921875
 20
0.1094541015625
 30
0.0
 10
0.2949365234375
 20
0.10694140625
 30
0.0
 10
0.29527734375
 20
0.10441015625
 30
0.0
 10
0.29506640625
 20
0.10192041015625
 30
0.0
 10
0.294548828125
 20
0.09576708984375
 30
0.0
 10
0.2946748046875
 20
0.089623046875
 30
0.0
 10
0.2948017578125
 20
0.083462890625
 30
0.0
 10
0.294927734375
 20
0.0773115234375
 30
0.0
 10
0.294798828125
 20
0.0711552734375
 30
0.0
 10
0.2947685546875
 20
0.065
 30
0.0
 10
0.2947412109375
 20
0.0595380859375
 30
0.0
 10
0.294673828125
 20
0.054076171875
 30
0.0
 10
0.2946611328125
 20
0.048615234375
 30
0.0
 10
0.2946455078125
 20
0.042984375
 30
0.0
 10
0.2947001953125
 20
0.037353515625
 30
0.0
 10
0.2946796875
 20
0.0317216796875
 30
0.0
 10
0.294662109375
 20
0.026607421875
 30
0.0
 10
0.294462890625
 20
0.021490234375
 30
0.0
 10
0.2945634765625
 20
0.01637890625
 30
0.0
 10
0.294669921875
 20
0.010994140625
 30
0.0
 10
0.2945126953125
 20
0.0056484375
 30
0.0
 10
0.2935087890625
 20
0.000345703125
 30
0.0
 10
0.2932998046875
 20
-0.000759765625
 30
0.0
 10
0.293033203125
 20
-0.00187890625
 30
0.0
 10
0.29303515625
 20
-0.0029892578125
 30
0.0
 10
0.2930390625
 20
-0.00454296875
 30
0.0
 10
0.2940380859375
 20
-0.0051533203125
 30
0.0
 10
0.2952353515625
 20
-0.0042587890625
 30
0.0
 10
0.298091796875
 20
-0.0021298828125
 30
0.0
 10
0.3009228515625
 20
0.00007421875
 30
0.0
 10
0.301603515625
 20
0.0039384765625
 30
0.0
 10
0.3027724609375
 20
0.0106103515625
 30
0.0
 10
0.3036357421875
 20
0.01730859375
 30
0.0
 10
0.3037314453125
 20
0.0240966796875
 30
0.0
 10
0.303775390625
 20
0.02712890625
 30
0.0
 10
0.3039443359375
 20
0.03016015625
 30
0.0
 10
0.3041474609375
 20
0.0331865234375
 30
0.0
 10
0.3044443359375
 20
0.0375986328125
 30
0.0
 10
0.3049716796875
 20
0.0420009765625
 30
0.0
 10
0.3051318359375
 20
0.04641796875
 30
0.0
 10
0.30543359375
 20
0.05473046875
 30
0.0
 10
0.3055439453125
 20
0.0630517578125
 30
0.0
 10
0.3057353515625
 20
0.0713701171875
 30
0.0
 10
0.3057978515625
 20
0.07414453125
 30
0.0
 10
0.305912109375
 20
0.0769189453125
 30
0.0
 10
0.3059140625
 20
0.079693359375
 30
0.0
 10
0.3059169921875
 20
0.08940234375
 30
0.0
 10
0.305875
 20
0.099109375
 30
0.0
 10
0.3058623046875
 20
0.108818359375
 30
0.0
 10
0.305857421875
 20
0.111583984375
 30
0.0
 10
0.305751953125
 20
0.11435986328125
 30
0.0
 10
0.3059423828125
 20
0.117115234375
 30
0.0
 10
0.306203125
 20
0.1209169921875
 30
0.0
 10
0.30702734375
 20
0.12470458984375
 30
0.0
 10
0.3070029296875
 20
0.12849365234375
 30
0.0
 10
0.30698046875
 20
0.13207666015625
 30
0.0
 10
0.3079296875
 20
0.1353203125
 30
0.0
 10
0.3089501953125
 20
0.13863623046875
 30
0.0
 10
0.309736328125
 20
0.14119482421875
 30
0.0
 10
0.310365234375
 20
0.14380224609375
 30
0.0
 10
0.311044921875
 20
0.1463935546875
 30
0.0
 10
0.3112421875
 20
0.1471474609375
 30
0.0
 10
0.311361328125
 20
0.14792138671875
 30
0.0
 10
0.3115322265625
 20
0.1486826171875
 30
0.0
 10
0.3127021484375
 20
0.153923828125
 30
0.0
 10
0.3139150390625
 20
0.15915625
 30
0.0
 10
0.31502734375
 20
0.16440966796875
 30
0.0
 10
0.315404296875
 20
0.166185546875
 30
0.0
 10
0.315662109375
 20
0.16800732421875
 30
0.0
 10
0.3157470703125
 20
0.1698193359375
 30
0.0
 10
0.3159033203125
 20
0.17317431640625
 30
0.0
 10
0.314033203125
 20
0.17575
 30
0.0
 10
0.3107734375
 20
0.176515625
 30
0.0
  0
HATCH
  5
45
330
3C
100
AcDbEntity
  8
Layer 1
 62
     7
100
AcDbHatch
 10
0.0
 20
0.0
 30
0.0
210
0.0
220
0.0
230
1.0
  2
SOLID
 70
     1
 71
     0
 91
        1
 92
        1
 93
        1
 72
     4
 94
        3
 73
     0
 74
     1
 95
      101
 96
       97
 40
0.0
 40
0.0
 40
0.0
 40
0.0
 40
1.0
 40
1.0
 40
1.0
 40
2.0
 40
2.0
 40
2.0
 40
3.0
 40
3.0
 40
3.0
 40
4.0
 40
4.0
 40
4.0
 40
5.0
 40
5.0
 40
5.0
 40
6.0
 40
6.0
 40
6.0
 40
7.0
 40
7.0
 40
7.0
 40
8.0
 40
8.0
 40
8.0
 40
9.0
 40
9.0
 40
9.0
 40
10.0
 40
10.0
 40
10.0
 40
11.0
 40
11.0
 40
11.0
 40
12.0
 40
12.0
 40
12.0
 40
13.0
 40
13.0
 40
13.0
 40
14.0
 40
14.0
 40
14.0
 40
15.0
 40
15.0
 40
15.0
 40
16.0
 40
16.0
 40
16.0
 40
17.0
 40
17.0
 40
17.0
 40
18.0
 40
18.0
 40
18.0
 40
19.0
 40
19.0
 40
19.0
 40
20.0
 40
20.0
 40
20.0
 40
21.0
 40
21.0
 40
21.0
 40
22.0
 40
22.0
 40
22.0
 40
23.0
 40
23.0
 40
23.0
 40
24.0
 40
24.0
 40
24.0
 40
25.0
 40
25.0
 40
25.0
 40
26.0
 40
26.0
 40
26.0
 40
27.0
 40
27.0
 40
27.0
 40
28.0
 40
28.0
 40
28.0
 40
29.0
 40
29.0
 40
29.0
 40
30.0
 40
30.0
 40
30.0
 40
31.0
 40
31.0
 40
31.0
 40
32.0
 40
32.0
 40
32.0
 40
32.0
 10
0.3107734375
 20
0.176515625
 10
0.3090283203125
 20
0.17692626953125
 10
0.3071796875
 20
0.1768984375
 10
0.3053779296875
 20
0.17706689453125
 10
0.30537109375
 20
0.17699853515625
 10
0.3053642578125
 20
0.1769296875
 10
0.305357421875
 20
0.17685986328125
 10
0.304408203125
 20
0.17676318359375
 10
0.3034560546875
 20
0.17668798828125
 10
0.30251171875
 20
0.176564453125
 10
0.2981845703125
 20
0.1760009765625
 10
0.29549609375
 20
0.1733583984375
 10
0.29484375
 20
0.16899267578125
 10
0.2946650390625
 20
0.16779248046875
 10
0.2944765625
 20
0.16657861328125
 10
0.294478515625
 20
0.16537109375
 10
0.29448828125
 20
0.15791650390625
 10
0.2945302734375
 20
0.1504619140625
 10
0.294603515625
 20
0.14300732421875
 10
0.294654296875
 20
0.137892578125
 10
0.2948056640625
 20
0.13277783203125
 10
0.2948505859375
 20
0.12766259765625
 10
0.2949052734375
 20
0.12159423828125
 10
0.2948779296875
 20
0.11552294921875
 10
0.294919921875
 20
0.1094541015625
 10
0.2949365234375
 20
0.10694140625
 10
0.29527734375
 20
0.10441015625
 10
0.29506640625
 20
0.10192041015625
 10
0.294548828125
 20
0.09576708984375
 10
0.2946748046875
 20
0.089623046875
 10
0.2948017578125
 20
0.083462890625
 10
0.294927734375
 20
0.0773115234375
 10
0.294798828125
 20
0.0711552734375
 10
0.2947685546875
 20
0.065
 10
0.2947412109375
 20
0.0595380859375
 10
0.294673828125
 20
0.054076171875
 10
0.2946611328125
 20
0.048615234375
 10
0.2946455078125
 20
0.042984375
 10
0.2947001953125
 20
0.037353515625
 10
0.2946796875
 20
0.0317216796875
 10
0.294662109375
 20
0.026607421875
 10
0.294462890625
 20
0.021490234375
 10
0.2945634765625
 20
0.01637890625
 10
0.294669921875
 20
0.010994140625
 10
0.2945126953125
 20
0.0056484375
 10
0.2935087890625
 20
0.000345703125
 10
0.2932998046875
 20
-0.000759765625
 10
0.293033203125
 20
-0.00187890625
 10
0.29303515625
 20
-0.0029892578125
 10
0.2930390625
 20
-0.00454296875
 10
0.2940380859375
 20
-0.0051533203125
 10
0.2952353515625
 20
-0.0042587890625
 10
0.298091796875
 20
-0.0021298828125
 10
0.3009228515625
 20
0.00007421875
 10
0.301603515625
 20
0.0039384765625
 10
0.3027724609375
 20
0.0106103515625
 10
0.3036357421875
 20
0.01730859375
 10
0.3037314453125
 20
0.0240966796875
 10
0.303775390625
 20
0.02712890625
 10
0.3039443359375
 20
0.03016015625
 10
0.3041474609375
 20
0.0331865234375
 10
0.3044443359375
 20
0.0375986328125
 10
0.3049716796875
 20
0.0420009765625
 10
0.3051318359375
 20
0.04641796875
 10
0.30543359375
 20
0.05473046875
 10
0.3055439453125
 20
0.0630517578125
 10
0.3057353515625
 20
0.0713701171875
 10
0.3057978515625
 20
0.07414453125
 10
0.305912109375
 20
0.0769189453125
 10
0.3059140625
 20
0.079693359375
 10
0.3059169921875
 20
0.08940234375
 10
0.305875
 20
0.099109375
 10
0.3058623046875
 20
0.108818359375
 10
0.305857421875
 20
0.111583984375
 10
0.305751953125
 20
0.11435986328125
 10
0.3059423828125
 20
0.117115234375
 10
0.306203125
 20
0.1209169921875
 10
0.30702734375
 20
0.12470458984375
 10
0.3070029296875
 20
0.12849365234375
 10
0.30698046875
 20
0.13207666015625
 10
0.3079296875
 20
0.1353203125
 10
0.3089501953125
 20
0.13863623046875
 10
0.309736328125
 20
0.14119482421875
 10
0.310365234375
 20
0.14380224609375
 10
0.311044921875
 20
0.1463935546875
 10
0.3112421875
 20
0.1471474609375
 10
0.311361328125
 20
0.14792138671875
 10
0.3115322265625
 20
0.1486826171875
 10
0.3127021484375
 20
0.153923828125
 10
0.3139150390625
 20
0.15915625
 10
0.31502734375
 20
0.16440966796875
 10
0.315404296875
 20
0.166185546875
 10
0.315662109375
 20
0.16800732421875
 10
0.3157470703125
 20
0.1698193359375
 10
0.3159033203125
 20
0.17317431640625
 10
0.314033203125
 20
0.17575
 10
0.3107734375
 20
0.176515625
 97
        0
 75
     2
 76
     1
 98
        0
  0
SPLINE
  5
46
330
3C
100
AcDbEntity
  8
Layer 1
370
     0
100
AcDbSpline
210
0.0
220
0.0
230
1.0
 70
    11
 71
     3
 72
    86
 73
    82
 74
     0
 42
0.0000000001
 43
0.0000000001
 40
0.0
 40
0.0
 40
0.0
 40
0.0
 40
1.0
 40
1.0
 40
1.0
 40
2.0
 40
2.0
 40
2.0
 40
3.0
 40
3.0
 40
3.0
 40
4.0
 40
4.0
 40
4.0
 40
5.0
 40
5.0
 40
5.0
 40
6.0
 40
6.0
 40
6.0
 40
7.0
 40
7.0
 40
7.0
 40
8.0
 40
8.0
 40
8.0
 40
9.0
 40
9.0
 40
9.0
 40
10.0
 40
10.0
 40
10.0
 40
11.0
 40
11.0
 40
11.0
 40
12.0
 40
12.0
 40
12.0
 40
13.0
 40
13.0
 40
13.0
 40
14.0
 40
14.0
 40
14.0
 40
15.0
 40
15.0
 40
15.0
 40
16.0
 40
16.0
 40
16.0
 40
17.0
 40
17.0
 40
17.0
 40
18.0
 40
18.0
 40
18.0
 40
19.0
 40
19.0
 40
19.0
 40
20.0
 40
20.0
 40
20.0
 40
21.0
 40
21.0
 40
21.0
 40
22.0
 40
22.0
 40
22.0
 40
23.0
 40
23.0
 40
23.0
 40
24.0
 40
24.0
 40
24.0
 40
25.0
 40
25.0
 40
25.0
 40
26.0
 40
26.0
 40
26.0
 40
27.0
 40
27.0
 40
27.0
 40
27.0
 10
0.00864892578125
 20
0.058322265625
 30
0.0
 10
0.006900390625
 20
0.0635390625
 30
0.0
 10
0.005396484375
 20
0.068884765625
 30
0.0
 10
0.00205517578125
 20
0.0733759765625
 30
0.0
 10
-0.0009189453125
 20
0.0773720703125
 30
0.0
 10
-0.0038759765625
 20
0.08141796875
 30
0.0
 10
-0.007234375
 20
0.0850810546875
 30
0.0
 10
-0.010607421875
 20
0.0887578125
 30
0.0
 10
-0.01453857421875
 20
0.0918974609375
 30
0.0
 10
-0.01940380859375
 20
0.09353271484375
 30
0.0
 10
-0.02201123046875
 20
0.0944111328125
 30
0.0
 10
-0.024625
 20
0.0952880859375
 30
0.0
 10
-0.02728271484375
 20
0.0959892578125
 30
0.0
 10
-0.0307548828125
 20
0.09690625
 30
0.0
 10
-0.0341748046875
 20
0.0983076171875
 30
0.0
 10
-0.0379501953125
 20
0.09783154296875
 30
0.0
 10
-0.04113134765625
 20
0.09711669921875
 30
0.0
 10
-0.04430419921875
 20
0.09636669921875
 30
0.0
 10
-0.04749462890625
 20
0.09569775390625
 30
0.0
 10
-0.05259619140625
 20
0.09462939453125
 30
0.0
 10
-0.05734375
 20
0.092609375
 30
0.0
 10
-0.061869140625
 20
0.090123046875
 30
0.0
 10
-0.063791015625
 20
0.089068359375
 30
0.0
 10
-0.065515625
 20
0.0875458984375
 30
0.0
 10
-0.0670966796875
 20
0.086
 30
0.0
 10
-0.07030029296875
 20
0.082865234375
 30
0.0
 10
-0.07311328125
 20
0.0793798828125
 30
0.0
 10
-0.07537548828125
 20
0.0754912109375
 30
0.0
 10
-0.07757958984375
 20
0.0717021484375
 30
0.0
 10
-0.0801064453125
 20
0.0680419921875
 30
0.0
 10
-0.0818134765625
 20
0.06403515625
 30
0.0
 10
-0.0842861328125
 20
0.0582314453125
 30
0.0
 10
-0.08672802734375
 20
0.052416015625
 30
0.0
 10
-0.0867392578125
 20
0.045791015625
 30
0.0
 10
-0.086748046875
 20
0.040724609375
 30
0.0
 10
-0.0858515625
 20
0.036095703125
 30
0.0
 10
-0.08362451171875
 20
0.031623046875
 30
0.0
 10
-0.0824384765625
 20
0.0292431640625
 30
0.0
 10
-0.08134423828125
 20
0.0268154296875
 30
0.0
 10
-0.08025390625
 20
0.024388671875
 30
0.0
 10
-0.0791826171875
 20
0.0220009765625
 30
0.0
 10
-0.0779501953125
 20
0.019626953125
 30
0.0
 10
-0.0756416015625
 20
0.0183291015625
 30
0.0
 10
-0.0731728515625
 20
0.016943359375
 30
0.0
 10
-0.07132958984375
 20
0.014990234375
 30
0.0
 10
-0.0694013671875
 20
0.0130224609375
 30
0.0
 10
-0.06810400390625
 20
0.0117001953125
 30
0.0
 10
-0.0666328125
 20
0.010298828125
 30
0.0
 10
-0.06496142578125
 20
0.009646484375
 30
0.0
 10
-0.06236767578125
 20
0.0086357421875
 30
0.0
 10
-0.060025390625
 20
0.0072890625
 30
0.0
 10
-0.057662109375
 20
0.005876953125
 30
0.0
 10
-0.05427197265625
 20
0.0038525390625
 30
0.0
 10
-0.05072705078125
 20
0.002087890625
 30
0.0
 10
-0.047330078125
 20
0.0000732421875
 30
0.0
 10
-0.045626953125
 20
-0.0009375
 30
0.0
 10
-0.0439111328125
 20
-0.00137109375
 30
0.0
 10
-0.04194677734375
 20
-0.00131640625
 30
0.0
 10
-0.0398076171875
 20
-0.0012578125
 30
0.0
 10
-0.0376396484375
 20
-0.00127734375
 30
0.0
 10
-0.03552197265625
 20
-0.0015517578125
 30
0.0
 10
-0.03146484375
 20
-0.002078125
 30
0.0
 10
-0.02759765625
 20
-0.001501953125
 30
0.0
 10
-0.0239638671875
 20
0.0002607421875
 30
0.0
 10
-0.020796875
 20
0.001796875
 30
0.0
 10
-0.01767138671875
 20
0.0034560546875
 30
0.0
 10
-0.01467724609375
 20
0.005302734375
 30
0.0
 10
-0.00663134765625
 20
0.0102724609375
 30
0.0
 10
-0.0008154296875
 20
0.0173037109375
 30
0.0
 10
0.00349853515625
 20
0.025625
 30
0.0
 10
0.00416015625
 20
0.026900390625
 30
0.0
 10
0.0044599609375
 20
0.0283671875
 30
0.0
 10
0.00488671875
 20
0.0297587890625
 30
0.0
 10
0.00558935546875
 20
0.0320537109375
 30
0.0
 10
0.00613427734375
 20
0.034404296875
 30
0.0
 10
0.0069716796875
 20
0.0366474609375
 30
0.0
 10
0.00845654296875
 20
0.040625
 30
0.0
 10
0.009625
 20
0.0539248046875
 30
0.0
 10
0.0087080078125
 20
0.0580703125
 30
0.0
 10
0.00868896484375
 20
0.0581552734375
 30
0.0
 10
0.00867578125
 20
0.0582412109375
 30
0.0
 10
0.00864892578125
 20
0.058322265625
 30
0.0
  0
HATCH
  5
47
330
3C
100
AcDbEntity
  8
Layer 1
 62
     7
100
AcDbHatch
 10
0.0
 20
0.0
 30
0.0
210
0.0
220
0.0
230
1.0
  2
SOLID
 70
     1
 71
     0
 91
        1
 92
        1
 93
        1
 72
     4
 94
        3
 73
     0
 74
     1
 95
       86
 96
       82
 40
0.0
 40
0.0
 40
0.0
 40
0.0
 40
1.0
 40
1.0
 40
1.0
 40
2.0
 40
2.0
 40
2.0
 40
3.0
 40
3.0
 40
3.0
 40
4.0
 40
4.0
 40
4.0
 40
5.0
 40
5.0
 40
5.0
 40
6.0
 40
6.0
 40
6.0
 40
7.0
 40
7.0
 40
7.0
 40
8.0
 40
8.0
 40
8.0
 40
9.0
 40
9.0
 40
9.0
 40
10.0
 40
10.0
 40
10.0
 40
11.0
 40
11.0
 40
11.0
 40
12.0
 40
12.0
 40
12.0
 40
13.0
 40
13.0
 40
13.0
 40
14.0
 40
14.0
 40
14.0
 40
15.0
 40
15.0
 40
15.0
 40
16.0
 40
16.0
 40
16.0
 40
17.0
 40
17.0
 40
17.0
 40
18.0
 40
18.0
 40
18.0
 40
19.0
 40
19.0
 40
19.0
 40
20.0
 40
20.0
 40
20.0
 40
21.0
 40
21.0
 40
21.0
 40
22.0
 40
22.0
 40
22.0
 40
23.0
 40
23.0
 40
23.0
 40
24.0
 40
24.0
 40
24.0
 40
25.0
 40
25.0
 40
25.0
 40
26.0
 40
26.0
 40
26.0
 40
27.0
 40
27.0
 40
27.0
 40
27.0
 10
0.00864892578125
 20
0.058322265625
 10
0.006900390625
 20
0.0635390625
 10
0.005396484375
 20
0.068884765625
 10
0.00205517578125
 20
0.0733759765625
 10
-0.0009189453125
 20
0.0773720703125
 10
-0.0038759765625
 20
0.08141796875
 10
-0.007234375
 20
0.0850810546875
 10
-0.010607421875
 20
0.0887578125
 10
-0.01453857421875
 20
0.0918974609375
 10
-0.01940380859375
 20
0.09353271484375
 10
-0.02201123046875
 20
0.0944111328125
 10
-0.024625
 20
0.0952880859375
 10
-0.02728271484375
 20
0.0959892578125
 10
-0.0307548828125
 20
0.09690625
 10
-0.0341748046875
 20
0.0983076171875
 10
-0.0379501953125
 20
0.09783154296875
 10
-0.04113134765625
 20
0.09711669921875
 10
-0.04430419921875
 20
0.09636669921875
 10
-0.04749462890625
 20
0.09569775390625
 10
-0.05259619140625
 20
0.09462939453125
 10
-0.05734375
 20
0.092609375
 10
-0.061869140625
 20
0.090123046875
 10
-0.063791015625
 20
0.089068359375
 10
-0.065515625
 20
0.0875458984375
 10
-0.0670966796875
 20
0.086
 10
-0.07030029296875
 20
0.082865234375
 10
-0.07311328125
 20
0.0793798828125
 10
-0.07537548828125
 20
0.0754912109375
 10
-0.07757958984375
 20
0.0717021484375
 10
-0.0801064453125
 20
0.0680419921875
 10
-0.0818134765625
 20
0.06403515625
 10
-0.0842861328125
 20
0.0582314453125
 10
-0.08672802734375
 20
0.052416015625
 10
-0.0867392578125
 20
0.045791015625
 10
-0.086748046875
 20
0.040724609375
 10
-0.0858515625
 20
0.036095703125
 10
-0.08362451171875
 20
0.031623046875
 10
-0.0824384765625
 20
0.0292431640625
 10
-0.08134423828125
 20
0.0268154296875
 10
-0.08025390625
 20
0.024388671875
 10
-0.0791826171875
 20
0.0220009765625
 10
-0.0779501953125
 20
0.019626953125
 10
-0.0756416015625
 20
0.0183291015625
 10
-0.0731728515625
 20
0.016943359375
 10
-0.07132958984375
 20
0.014990234375
 10
-0.0694013671875
 20
0.0130224609375
 10
-0.06810400390625
 20
0.0117001953125
 10
-0.0666328125
 20
0.010298828125
 10
-0.06496142578125
 20
0.009646484375
 10
-0.06236767578125
 20
0.0086357421875
 10
-0.060025390625
 20
0.0072890625
 10
-0.057662109375
 20
0.005876953125
 10
-0.05427197265625
 20
0.0038525390625
 10
-0.05072705078125
 20
0.002087890625
 10
-0.047330078125
 20
0.0000732421875
 10
-0.045626953125
 20
-0.0009375
 10
-0.0439111328125
 20
-0.00137109375
 10
-0.04194677734375
 20
-0.00131640625
 10
-0.0398076171875
 20
-0.0012578125
 10
-0.0376396484375
 20
-0.00127734375
 10
-0.03552197265625
 20
-0.0015517578125
 10
-0.03146484375
 20
-0.002078125
 10
-0.02759765625
 20
-0.001501953125
 10
-0.0239638671875
 20
0.0002607421875
 10
-0.020796875
 20
0.001796875
 10
-0.01767138671875
 20
0.0034560546875
 10
-0.01467724609375
 20
0.005302734375
 10
-0.00663134765625
 20
0.0102724609375
 10
-0.0008154296875
 20
0.0173037109375
 10
0.00349853515625
 20
0.025625
 10
0.00416015625
 20
0.026900390625
 10
0.0044599609375
 20
0.0283671875
 10
0.00488671875
 20
0.0297587890625
 10
0.00558935546875
 20
0.0320537109375
 10
0.00613427734375
 20
0.034404296875
 10
0.0069716796875
 20
0.0366474609375
 10
0.00845654296875
 20
0.040625
 10
0.009625
 20
0.0539248046875
 10
0.0087080078125
 20
0.0580703125
 10
0.00868896484375
 20
0.0581552734375
 10
0.00867578125
 20
0.0582412109375
 10
0.00864892578125
 20
0.058322265625
 97
        0
 75
     2
 76
     1
 98
        0
  0
SPLINE
  5
48
330
3C
100
AcDbEntity
  8
Layer 1
370
     0
100
AcDbSpline
210
0.0
220
0.0
230
1.0
 70
    11
 71
     3
 72
   170
 73
   166
 74
     0
 42
0.0000000001
 43
0.0000000001
 40
0.0
 40
0.0
 40
0.0
 40
0.0
 40
1.0
 40
1.0
 40
1.0
 40
2.0
 40
2.0
 40
2.0
 40
3.0
 40
3.0
 40
3.0
 40
4.0
 40
4.0
 40
4.0
 40
5.0
 40
5.0
 40
5.0
 40
6.0
 40
6.0
 40
6.0
 40
7.0
 40
7.0
 40
7.0
 40
8.0
 40
8.0
 40
8.0
 40
9.0
 40
9.0
 40
9.0
 40
10.0
 40
10.0
 40
10.0
 40
11.0
 40
11.0
 40
11.0
 40
12.0
 40
12.0
 40
12.0
 40
13.0
 40
13.0
 40
13.0
 40
14.0
 40
14.0
 40
14.0
 40
15.0
 40
15.0
 40
15.0
 40
16.0
 40
16.0
 40
16.0
 40
17.0
 40
17.0
 40
17.0
 40
18.0
 40
18.0
 40
18.0
 40
19.0
 40
19.0
 40
19.0
 40
20.0
 40
20.0
 40
20.0
 40
21.0
 40
21.0
 40
21.0
 40
22.0
 40
22.0
 40
22.0
 40
23.0
 40
23.0
 40
23.0
 40
24.0
 40
24.0
 40
24.0
 40
25.0
 40
25.0
 40
25.0
 40
26.0
 40
26.0
 40
26.0
 40
27.0
 40
27.0
 40
27.0
 40
28.0
 40
28.0
 40
28.0
 40
29.0
 40
29.0
 40
29.0
 40
30.0
 40
30.0
 40
30.0
 40
31.0
 40
31.0
 40
31.0
 40
32.0
 40
32.0
 40
32.0
 40
33.0
 40
33.0
 40
33.0
 40
34.0
 40
34.0
 40
34.0
 40
35.0
 40
35.0
 40
35.0
 40
36.0
 40
36.0
 40
36.0
 40
37.0
 40
37.0
 40
37.0
 40
38.0
 40
38.0
 40
38.0
 40
39.0
 40
39.0
 40
39.0
 40
40.0
 40
40.0
 40
40.0
 40
41.0
 40
41.0
 40
41.0
 40
42.0
 40
42.0
 40
42.0
 40
43.0
 40
43.0
 40
43.0
 40
44.0
 40
44.0
 40
44.0
 40
45.0
 40
45.0
 40
45.0
 40
46.0
 40
46.0
 40
46.0
 40
47.0
 40
47.0
 40
47.0
 40
48.0
 40
48.0
 40
48.0
 40
49.0
 40
49.0
 40
49.0
 40
50.0
 40
50.0
 40
50.0
 40
51.0
 40
51.0
 40
51.0
 40
52.0
 40
52.0
 40
52.0
 40
53.0
 40
53.0
 40
53.0
 40
54.0
 40
54.0
 40
54.0
 40
55.0
 40
55.0
 40
55.0
 40
55.0
 10
0.4455888671875
 20
0.17646435546875
 30
0.0
 10
0.4448955078125
 20
0.180482421875
 30
0.0
 10
0.4408046875
 20
0.182435546875
 30
0.0
 10
0.437232421875
 20
0.1804599609375
 30
0.0
 10
0.436189453125
 20
0.1798837890625
 30
0.0
 10
0.4352197265625
 20
0.17906982421875
 30
0.0
 10
0.4344208984375
 20
0.17818115234375
 30
0.0
 10
0.433150390625
 20
0.1767666015625
 30
0.0
 10
0.432013671875
 20
0.175224609375
 30
0.0
 10
0.43088671875
 20
0.17368603515625
 30
0.0
 10
0.4286845703125
 20
0.17068115234375
 30
0.0
 10
0.4265068359375
 20
0.1676591796875
 30
0.0
 10
0.424375
 20
0.16460498046875
 30
0.0
 10
0.423837890625
 20
0.16383837890625
 30
0.0
 10
0.42333984375
 20
0.16296826171875
 30
0.0
 10
0.4231171875
 20
0.162072265625
 30
0.0
 10
0.42230859375
 20
0.15882080078125
 30
0.0
 10
0.4207470703125
 20
0.1559423828125
 30
0.0
 10
0.419021484375
 20
0.153115234375
 30
0.0
 10
0.4158125
 20
0.1478583984375
 30
0.0
 10
0.412630859375
 20
0.14258447265625
 30
0.0
 10
0.4094833984375
 20
0.1372900390625
 30
0.0
 10
0.40708984375
 20
0.13326513671875
 30
0.0
 10
0.40476953125
 20
0.12919580078125
 30
0.0
 10
0.402412109375
 20
0.12514892578125
 30
0.0
 10
0.4005556640625
 20
0.12196337890625
 30
0.0
 10
0.398173828125
 20
0.11921630859375
 30
0.0
 10
0.39529296875
 20
0.1169287109375
 30
0.0
 10
0.3926162109375
 20
0.114802734375
 30
0.0
 10
0.3900341796875
 20
0.11490673828125
 30
0.0
 10
0.38762109375
 20
0.117326171875
 30
0.0
 10
0.3866005859375
 20
0.11834765625
 30
0.0
 10
0.38573046875
 20
0.1196162109375
 30
0.0
 10
0.385111328125
 20
0.120923828125
 30
0.0
 10
0.381333984375
 20
0.12890478515625
 30
0.0
 10
0.3769072265625
 20
0.13660546875
 30
0.0
 10
0.3748603515625
 20
0.14533203125
 30
0.0
 10
0.373654296875
 20
0.15047802734375
 30
0.0
 10
0.372140625
 20
0.15555126953125
 30
0.0
 10
0.3707421875
 20
0.160650390625
 30
0.0
 10
0.370490234375
 20
0.16156494140625
 30
0.0
 10
0.37030078125
 20
0.1625654296875
 30
0.0
 10
0.3697861328125
 20
0.16332470703125
 30
0.0
 10
0.368083984375
 20
0.16583447265625
 30
0.0
 10
0.36647265625
 20
0.16846728515625
 30
0.0
 10
0.3644013671875
 20
0.1706484375
 30
0.0
 10
0.3619189453125
 20
0.173263671875
 30
0.0
 10
0.35874609375
 20
0.1749052734375
 30
0.0
 10
0.355466796875
 20
0.175083984375
 30
0.0
 10
0.3544658203125
 20
0.1749814453125
 30
0.0
 10
0.3539423828125
 20
0.17496044921875
 30
0.0
 10
0.353431640625
 20
0.1748701171875
 30
0.0
 10
0.3510380859375
 20
0.1744423828125
 30
0.0
 10
0.3501689453125
 20
0.17310107421875
 30
0.0
 10
0.35077734375
 20
0.17078076171875
 30
0.0
 10
0.35088671875
 20
0.1703623046875
 30
0.0
 10
0.3510400390625
 20
0.1699501953125
 30
0.0
 10
0.351224609375
 20
0.16956005859375
 30
0.0
 10
0.3536142578125
 20
0.16454931640625
 30
0.0
 10
0.35603515625
 20
0.15955322265625
 30
0.0
 10
0.3583984375
 20
0.1545302734375
 30
0.0
 10
0.35924609375
 20
0.1527275390625
 30
0.0
 10
0.360103515625
 20
0.15090869140625
 30
0.0
 10
0.3607138671875
 20
0.1490185546875
 30
0.0
 10
0.362478515625
 20
0.14355517578125
 30
0.0
 10
0.3645458984375
 20
0.13823681640625
 30
0.0
 10
0.36735546875
 20
0.13320849609375
 30
0.0
 10
0.3687080078125
 20
0.13078759765625
 30
0.0
 10
0.3698076171875
 20
0.12822802734375
 30
0.0
 10
0.3710634765625
 20
0.1257509765625
 30
0.0
 10
0.3743173828125
 20
0.1193271484375
 30
0.0
 10
0.37737109375
 20
0.11278857421875
 30
0.0
 10
0.3809208984375
 20
0.1065341796875
 30
0.0
 10
0.3845146484375
 20
0.10020458984375
 30
0.0
 10
0.386166015625
 20
0.09356982421875
 30
0.0
 10
0.38578125
 20
0.086353515625
 30
0.0
 10
0.3856748046875
 20
0.0843623046875
 30
0.0
 10
0.3856533203125
 20
0.0823642578125
 30
0.0
 10
0.385666015625
 20
0.080369140625
 30
0.0
 10
0.3857255859375
 20
0.0703037109375
 30
0.0
 10
0.3858916015625
 20
0.06023828125
 30
0.0
 10
0.3858564453125
 20
0.050173828125
 30
0.0
 10
0.3858369140625
 20
0.044712890625
 30
0.0
 10
0.3854384765625
 20
0.039255859375
 30
0.0
 10
0.3853173828125
 20
0.0337958984375
 30
0.0
 10
0.3852587890625
 20
0.031197265625
 30
0.0
 10
0.3855205078125
 20
0.028595703125
 30
0.0
 10
0.385515625
 20
0.02599609375
 30
0.0
 10
0.385501953125
 20
0.016978515625
 30
0.0
 10
0.38543359375
 20
0.0079619140625
 30
0.0
 10
0.3853955078125
 20
-0.0010546875
 30
0.0
 10
0.3853935546875
 20
-0.001396484375
 30
0.0
 10
0.3854267578125
 20
-0.001759765625
 30
0.0
 10
0.385537109375
 20
-0.0020810546875
 30
0.0
 10
0.3864375
 20
-0.00470703125
 30
0.0
 10
0.387326171875
 20
-0.0073388671875
 30
0.0
 10
0.38829296875
 20
-0.0099384765625
 30
0.0
 10
0.388658203125
 20
-0.0109248046875
 30
0.0
 10
0.3892216796875
 20
-0.011873046875
 30
0.0
 10
0.390453125
 20
-0.01194140625
 30
0.0
 10
0.3917724609375
 20
-0.012013671875
 30
0.0
 10
0.3924951171875
 20
-0.011115234375
 30
0.0
 10
0.3930439453125
 20
-0.0100869140625
 30
0.0
 10
0.3942861328125
 20
-0.0077607421875
 30
0.0
 10
0.39508984375
 20
-0.00527734375
 30
0.0
 10
0.39513671875
 20
-0.0026328125
 30
0.0
 10
0.3952470703125
 20
0.003259765625
 30
0.0
 10
0.3955087890625
 20
0.0091630859375
 30
0.0
 10
0.39526953125
 20
0.0150458984375
 30
0.0
 10
0.39480859375
 20
0.02639453125
 30
0.0
 10
0.3950625
 20
0.037775390625
 30
0.0
 10
0.393859375
 20
0.04909375
 30
0.0
 10
0.393794921875
 20
0.0496943359375
 30
0.0
 10
0.393826171875
 20
0.0503076171875
 30
0.0
 10
0.3938154296875
 20
0.0509150390625
 30
0.0
 10
0.3937021484375
 20
0.0569013671875
 30
0.0
 10
0.39392578125
 20
0.06291796875
 30
0.0
 10
0.3933671875
 20
0.068861328125
 30
0.0
 10
0.3929560546875
 20
0.0732421875
 30
0.0
 10
0.3924931640625
 20
0.0774541015625
 30
0.0
 10
0.3944375
 20
0.081564453125
 30
0.0
 10
0.394509765625
 20
0.081716796875
 30
0.0
 10
0.39451171875
 20
0.08190234375
 30
0.0
 10
0.394548828125
 20
0.0820712890625
 30
0.0
 10
0.3954267578125
 20
0.0859794921875
 30
0.0
 10
0.3966494140625
 20
0.0897548828125
 30
0.0
 10
0.3985283203125
 20
0.09331884765625
 30
0.0
 10
0.3992080078125
 20
0.094607421875
 30
0.0
 10
0.3996669921875
 20
0.09603662109375
 30
0.0
 10
0.4000595703125
 20
0.09744775390625
 30
0.0
 10
0.400421875
 20
0.0987548828125
 30
0.0
 10
0.40095703125
 20
0.09985595703125
 30
0.0
 10
0.4020908203125
 20
0.10066064453125
 30
0.0
 10
0.403609375
 20
0.101736328125
 30
0.0
 10
0.404412109375
 20
0.10322607421875
 30
0.0
 10
0.40433984375
 20
0.10510888671875
 30
0.0
 10
0.40426953125
 20
0.10687939453125
 30
0.0
 10
0.405021484375
 20
0.10831005859375
 30
0.0
 10
0.406115234375
 20
0.10959521484375
 30
0.0
 10
0.408130859375
 20
0.11196044921875
 30
0.0
 10
0.4101904296875
 20
0.11428662109375
 30
0.0
 10
0.412201171875
 20
0.11665673828125
 30
0.0
 10
0.412984375
 20
0.11758251953125
 30
0.0
 10
0.4137998046875
 20
0.1185126953125
 30
0.0
 10
0.414396484375
 20
0.11955810546875
 30
0.0
 10
0.4165869140625
 20
0.12339697265625
 30
0.0
 10
0.4187548828125
 20
0.1272529296875
 30
0.0
 10
0.4208134765625
 20
0.13116455078125
 30
0.0
 10
0.4222763671875
 20
0.1339423828125
 30
0.0
 10
0.4238095703125
 20
0.13667041015625
 30
0.0
 10
0.4260712890625
 20
0.1388583984375
 30
0.0
 10
0.428466796875
 20
0.1411748046875
 30
0.0
 10
0.4306181640625
 20
0.1436025390625
 30
0.0
 10
0.4318154296875
 20
0.146787109375
 30
0.0
 10
0.432142578125
 20
0.1476572265625
 30
0.0
 10
0.4327509765625
 20
0.14846875
 30
0.0
 10
0.4333798828125
 20
0.14917138671875
 30
0.0
 10
0.4357041015625
 20
0.151763671875
 30
0.0
 10
0.4369248046875
 20
0.1548994140625
 30
0.0
 10
0.437982421875
 20
0.1581318359375
 30
0.0
 10
0.4391240234375
 20
0.16161865234375
 30
0.0
 10
0.440744140625
 20
0.16482421875
 30
0.0
 10
0.4430703125
 20
0.16771875
 30
0.0
 10
0.4450830078125
 20
0.17022119140625
 30
0.0
 10
0.4461533203125
 20
0.1731845703125
 30
0.0
 10
0.4455888671875
 20
0.17646435546875
 30
0.0
  0
HATCH
  5
49
330
3C
100
AcDbEntity
  8
Layer 1
 62
     7
100
AcDbHatch
 10
0.0
 20
0.0
 30
0.0
210
0.0
220
0.0
230
1.0
  2
SOLID
 70
     1
 71
     0
 91
        1
 92
        1
 93
        1
 72
     4
 94
        3
 73
     0
 74
     1
 95
      170
 96
      166
 40
0.0
 40
0.0
 40
0.0
 40
0.0
 40
1.0
 40
1.0
 40
1.0
 40
2.0
 40
2.0
 40
2.0
 40
3.0
 40
3.0
 40
3.0
 40
4.0
 40
4.0
 40
4.0
 40
5.0
 40
5.0
 40
5.0
 40
6.0
 40
6.0
 40
6.0
 40
7.0
 40
7.0
 40
7.0
 40
8.0
 40
8.0
 40
8.0
 40
9.0
 40
9.0
 40
9.0
 40
10.0
 40
10.0
 40
10.0
 40
11.0
 40
11.0
 40
11.0
 40
12.0
 40
12.0
 40
12.0
 40
13.0
 40
13.0
 40
13.0
 40
14.0
 40
14.0
 40
14.0
 40
15.0
 40
15.0
 40
15.0
 40
16.0
 40
16.0
 40
16.0
 40
17.0
 40
17.0
 40
17.0
 40
18.0
 40
18.0
 40
18.0
 40
19.0
 40
19.0
 40
19.0
 40
20.0
 40
20.0
 40
20.0
 40
21.0
 40
21.0
 40
21.0
 40
22.0
 40
22.0
 40
22.0
 40
23.0
 40
23.0
 40
23.0
 40
24.0
 40
24.0
 40
24.0
 40
25.0
 40
25.0
 40
25.0
 40
26.0
 40
26.0
 40
26.0
 40
27.0
 40
27.0
 40
27.0
 40
28.0
 40
28.0
 40
28.0
 40
29.0
 40
29.0
 40
29.0
 40
30.0
 40
30.0
 40
30.0
 40
31.0
 40
31.0
 40
31.0
 40
32.0
 40
32.0
 40
32.0
 40
33.0
 40
33.0
 40
33.0
 40
34.0
 40
34.0
 40
34.0
 40
35.0
 40
35.0
 40
35.0
 40
36.0
 40
36.0
 40
36.0
 40
37.0
 40
37.0
 40
37.0
 40
38.0
 40
38.0
 40
38.0
 40
39.0
 40
39.0
 40
39.0
 40
40.0
 40
40.0
 40
40.0
 40
41.0
 40
41.0
 40
41.0
 40
42.0
 40
42.0
 40
42.0
 40
43.0
 40
43.0
 40
43.0
 40
44.0
 40
44.0
 40
44.0
 40
45.0
 40
45.0
 40
45.0
 40
46.0
 40
46.0
 40
46.0
 40
47.0
 40
47.0
 40
47.0
 40
48.0
 40
48.0
 40
48.0
 40
49.0
 40
49.0
 40
49.0
 40
50.0
 40
50.0
 40
50.0
 40
51.0
 40
51.0
 40
51.0
 40
52.0
 40
52.0
 40
52.0
 40
53.0
 40
53.0
 40
53.0
 40
54.0
 40
54.0
 40
54.0
 40
55.0
 40
55.0
 40
55.0
 40
55.0
 10
0.4455888671875
 20
0.17646435546875
 10
0.4448955078125
 20
0.180482421875
 10
0.4408046875
 20
0.182435546875
 10
0.437232421875
 20
0.1804599609375
 10
0.436189453125
 20
0.1798837890625
 10
0.4352197265625
 20
0.17906982421875
 10
0.4344208984375
 20
0.17818115234375
 10
0.433150390625
 20
0.1767666015625
 10
0.432013671875
 20
0.175224609375
 10
0.43088671875
 20
0.17368603515625
 10
0.4286845703125
 20
0.17068115234375
 10
0.4265068359375
 20
0.1676591796875
 10
0.424375
 20
0.16460498046875
 10
0.423837890625
 20
0.16383837890625
 10
0.42333984375
 20
0.16296826171875
 10
0.4231171875
 20
0.162072265625
 10
0.42230859375
 20
0.15882080078125
 10
0.4207470703125
 20
0.1559423828125
 10
0.419021484375
 20
0.153115234375
 10
0.4158125
 20
0.1478583984375
 10
0.412630859375
 20
0.14258447265625
 10
0.4094833984375
 20
0.1372900390625
 10
0.40708984375
 20
0.13326513671875
 10
0.40476953125
 20
0.12919580078125
 10
0.402412109375
 20
0.12514892578125
 10
0.4005556640625
 20
0.12196337890625
 10
0.398173828125
 20
0.11921630859375
 10
0.39529296875
 20
0.1169287109375
 10
0.3926162109375
 20
0.114802734375
 10
0.3900341796875
 20
0.11490673828125
 10
0.38762109375
 20
0.117326171875
 10
0.3866005859375
 20
0.11834765625
 10
0.38573046875
 20
0.1196162109375
 10
0.385111328125
 20
0.120923828125
 10
0.381333984375
 20
0.12890478515625
 10
0.3769072265625
 20
0.13660546875
 10
0.3748603515625
 20
0.14533203125
 10
0.373654296875
 20
0.15047802734375
 10
0.372140625
 20
0.15555126953125
 10
0.3707421875
 20
0.160650390625
 10
0.370490234375
 20
0.16156494140625
 10
0.37030078125
 20
0.1625654296875
 10
0.3697861328125
 20
0.16332470703125
 10
0.368083984375
 20
0.16583447265625
 10
0.36647265625
 20
0.16846728515625
 10
0.3644013671875
 20
0.1706484375
 10
0.3619189453125
 20
0.173263671875
 10
0.35874609375
 20
0.1749052734375
 10
0.355466796875
 20
0.175083984375
 10
0.3544658203125
 20
0.1749814453125
 10
0.3539423828125
 20
0.17496044921875
 10
0.353431640625
 20
0.1748701171875
 10
0.3510380859375
 20
0.1744423828125
 10
0.3501689453125
 20
0.17310107421875
 10
0.35077734375
 20
0.17078076171875
 10
0.35088671875
 20
0.1703623046875
 10
0.3510400390625
 20
0.1699501953125
 10
0.351224609375
 20
0.16956005859375
 10
0.3536142578125
 20
0.16454931640625
 10
0.35603515625
 20
0.15955322265625
 10
0.3583984375
 20
0.1545302734375
 10
0.35924609375
 20
0.1527275390625
 10
0.360103515625
 20
0.15090869140625
 10
0.3607138671875
 20
0.1490185546875
 10
0.362478515625
 20
0.14355517578125
 10
0.3645458984375
 20
0.13823681640625
 10
0.36735546875
 20
0.13320849609375
 10
0.3687080078125
 20
0.13078759765625
 10
0.3698076171875
 20
0.12822802734375
 10
0.3710634765625
 20
0.1257509765625
 10
0.3743173828125
 20
0.1193271484375
 10
0.37737109375
 20
0.11278857421875
 10
0.3809208984375
 20
0.1065341796875
 10
0.3845146484375
 20
0.10020458984375
 10
0.386166015625
 20
0.09356982421875
 10
0.38578125
 20
0.086353515625
 10
0.3856748046875
 20
0.0843623046875
 10
0.3856533203125
 20
0.0823642578125
 10
0.385666015625
 20
0.080369140625
 10
0.3857255859375
 20
0.0703037109375
 10
0.3858916015625
 20
0.06023828125
 10
0.3858564453125
 20
0.050173828125
 10
0.3858369140625
 20
0.044712890625
 10
0.3854384765625
 20
0.039255859375
 10
0.3853173828125
 20
0.0337958984375
 10
0.3852587890625
 20
0.031197265625
 10
0.3855205078125
 20
0.028595703125
 10
0.385515625
 20
0.02599609375
 10
0.385501953125
 20
0.016978515625
 10
0.38543359375
 20
0.0079619140625
 10
0.3853955078125
 20
-0.0010546875
 10
0.3853935546875
 20
-0.001396484375
 10
0.3854267578125
 20
-0.001759765625
 10
0.385537109375
 20
-0.0020810546875
 10
0.3864375
 20
-0.00470703125
 10
0.387326171875
 20
-0.0073388671875
 10
0.38829296875
 20
-0.0099384765625
 10
0.388658203125
 20
-0.0109248046875
 10
0.3892216796875
 20
-0.011873046875
 10
0.390453125
 20
-0.01194140625
 10
0.3917724609375
 20
-0.012013671875
 10
0.3924951171875
 20
-0.011115234375
 10
0.3930439453125
 20
-0.0100869140625
 10
0.3942861328125
 20
-0.0077607421875
 10
0.39508984375
 20
-0.00527734375
 10
0.39513671875
 20
-0.0026328125
 10
0.3952470703125
 20
0.003259765625
 10
0.3955087890625
 20
0.0091630859375
 10
0.39526953125
 20
0.0150458984375
 10
0.39480859375
 20
0.02639453125
 10
0.3950625
 20
0.037775390625
 10
0.393859375
 20
0.04909375
 10
0.393794921875
 20
0.0496943359375
 10
0.393826171875
 20
0.0503076171875
 10
0.3938154296875
 20
0.0509150390625
 10
0.3937021484375
 20
0.0569013671875
 10
0.39392578125
 20
0.06291796875
 10
0.3933671875
 20
0.068861328125
 10
0.3929560546875
 20
0.0732421875
 10
0.3924931640625
 20
0.0774541015625
 10
0.3944375
 20
0.081564453125
 10
0.394509765625
 20
0.081716796875
 10
0.39451171875
 20
0.08190234375
 10
0.394548828125
 20
0.0820712890625
 10
0.3954267578125
 20
0.0859794921875
 10
0.3966494140625
 20
0.0897548828125
 10
0.3985283203125
 20
0.09331884765625
 10
0.3992080078125
 20
0.094607421875
 10
0.3996669921875
 20
0.09603662109375
 10
0.4000595703125
 20
0.09744775390625
 10
0.400421875
 20
0.0987548828125
 10
0.40095703125
 20
0.09985595703125
 10
0.4020908203125
 20
0.10066064453125
 10
0.403609375
 20
0.101736328125
 10
0.404412109375
 20
0.10322607421875
 10
0.40433984375
 20
0.10510888671875
 10
0.40426953125
 20
0.10687939453125
 10
0.405021484375
 20
0.10831005859375
 10
0.406115234375
 20
0.10959521484375
 10
0.408130859375
 20
0.11196044921875
 10
0.4101904296875
 20
0.11428662109375
 10
0.412201171875
 20
0.11665673828125
 10
0.412984375
 20
0.11758251953125
 10
0.4137998046875
 20
0.1185126953125
 10
0.414396484375
 20
0.11955810546875
 10
0.4165869140625
 20
0.12339697265625
 10
0.4187548828125
 20
0.1272529296875
 10
0.4208134765625
 20
0.13116455078125
 10
0.4222763671875
 20
0.1339423828125
 10
0.4238095703125
 20
0.13667041015625
 10
0.4260712890625
 20
0.1388583984375
 10
0.428466796875
 20
0.1411748046875
 10
0.4306181640625
 20
0.1436025390625
 10
0.4318154296875
 20
0.146787109375
 10
0.432142578125
 20
0.1476572265625
 10
0.4327509765625
 20
0.14846875
 10
0.4333798828125
 20
0.14917138671875
 10
0.4357041015625
 20
0.151763671875
 10
0.4369248046875
 20
0.1548994140625
 10
0.437982421875
 20
0.1581318359375
 10
0.4391240234375
 20
0.16161865234375
 10
0.440744140625
 20
0.16482421875
 10
0.4430703125
 20
0.16771875
 10
0.4450830078125
 20
0.17022119140625
 10
0.4461533203125
 20
0.1731845703125
 10
0.4455888671875
 20
0.17646435546875
 97
        0
 75
     2
 76
     1
 98
        0
  0
SPLINE
  5
4A
330
3C
100
AcDbEntity
  8
Layer 1
370
     0
100
AcDbSpline
210
0.0
220
0.0
230
1.0
 70
    11
 71
     3
 72
   146
 73
   142
 74
     0
 42
0.0000000001
 43
0.0000000001
 40
0.0
 40
0.0
 40
0.0
 40
0.0
 40
1.0
 40
1.0
 40
1.0
 40
2.0
 40
2.0
 40
2.0
 40
3.0
 40
3.0
 40
3.0
 40
4.0
 40
4.0
 40
4.0
 40
5.0
 40
5.0
 40
5.0
 40
6.0
 40
6.0
 40
6.0
 40
7.0
 40
7.0
 40
7.0
 40
8.0
 40
8.0
 40
8.0
 40
9.0
 40
9.0
 40
9.0
 40
10.0
 40
10.0
 40
10.0
 40
11.0
 40
11.0
 40
11.0
 40
12.0
 40
12.0
 40
12.0
 40
13.0
 40
13.0
 40
13.0
 40
14.0
 40
14.0
 40
14.0
 40
15.0
 40
15.0
 40
15.0
 40
16.0
 40
16.0
 40
16.0
 40
17.0
 40
17.0
 40
17.0
 40
18.0
 40
18.0
 40
18.0
 40
19.0
 40
19.0
 40
19.0
 40
20.0
 40
20.0
 40
20.0
 40
21.0
 40
21.0
 40
21.0
 40
22.0
 40
22.0
 40
22.0
 40
23.0
 40
23.0
 40
23.0
 40
24.0
 40
24.0
 40
24.0
 40
25.0
 40
25.0
 40
25.0
 40
26.0
 40
26.0
 40
26.0
 40
27.0
 40
27.0
 40
27.0
 40
28.0
 40
28.0
 40
28.0
 40
29.0
 40
29.0
 40
29.0
 40
30.0
 40
30.0
 40
30.0
 40
31.0
 40
31.0
 40
31.0
 40
32.0
 40
32.0
 40
32.0
 40
33.0
 40
33.0
 40
33.0
 40
34.0
 40
34.0
 40
34.0
 40
35.0
 40
35.0
 40
35.0
 40
36.0
 40
36.0
 40
36.0
 40
37.0
 40
37.0
 40
37.0
 40
38.0
 40
38.0
 40
38.0
 40
39.0
 40
39.0
 40
39.0
 40
40.0
 40
40.0
 40
40.0
 40
41.0
 40
41.0
 40
41.0
 40
42.0
 40
42.0
 40
42.0
 40
43.0
 40
43.0
 40
43.0
 40
44.0
 40
44.0
 40
44.0
 40
45.0
 40
45.0
 40
45.0
 40
46.0
 40
46.0
 40
46.0
 40
47.0
 40
47.0
 40
47.0
 40
47.0
 10
0.2600751953125
 20
0.1446025390625
 30
0.0
 10
0.2576494140625
 20
0.15040625
 30
0.0
 10
0.25401953125
 20
0.15533642578125
 30
0.0
 10
0.2493388671875
 20
0.1594423828125
 30
0.0
 10
0.2452353515625
 20
0.16304150390625
 30
0.0
 10
0.24095703125
 20
0.1664560546875
 30
0.0
 10
0.2366123046875
 20
0.169763671875
 30
0.0
 10
0.2344951171875
 20
0.171376953125
 30
0.0
 10
0.2321474609375
 20
0.172765625
 30
0.0
 10
0.229734375
 20
0.173890625
 30
0.0
 10
0.2258876953125
 20
0.17568359375
 30
0.0
 10
0.2219189453125
 20
0.1772216796875
 30
0.0
 10
0.217966796875
 20
0.17877783203125
 30
0.0
 10
0.211763671875
 20
0.181220703125
 30
0.0
 10
0.20565625
 20
0.18403564453125
 30
0.0
 10
0.1987275390625
 20
0.1837177734375
 30
0.0
 10
0.1951748046875
 20
0.18355419921875
 30
0.0
 10
0.191603515625
 20
0.183697265625
 30
0.0
 10
0.188064453125
 20
0.18341845703125
 30
0.0
 10
0.185751953125
 20
0.183236328125
 30
0.0
 10
0.1833759765625
 20
0.18282275390625
 30
0.0
 10
0.181208984375
 20
0.1820283203125
 30
0.0
 10
0.175599609375
 20
0.1799716796875
 30
0.0
 10
0.1698662109375
 20
0.1781474609375
 30
0.0
 10
0.164845703125
 20
0.17475
 30
0.0
 10
0.1644873046875
 20
0.1745078125
 30
0.0
 10
0.164076171875
 20
0.17434716796875
 30
0.0
 10
0.1636982421875
 20
0.17413623046875
 30
0.0
 10
0.1621513671875
 20
0.17327587890625
 30
0.0
 10
0.1607490234375
 20
0.17342041015625
 30
0.0
 10
0.1593857421875
 20
0.17459423828125
 30
0.0
 10
0.1583359375
 20
0.17549755859375
 30
0.0
 10
0.1572255859375
 20
0.1763447265625
 30
0.0
 10
0.15606640625
 20
0.1771005859375
 30
0.0
 10
0.153880859375
 20
0.17852490234375
 30
0.0
 10
0.1515908203125
 20
0.17894580078125
 30
0.0
 10
0.149220703125
 20
0.17748291015625
 30
0.0
 10
0.1466015625
 20
0.1758662109375
 30
0.0
 10
0.1443779296875
 20
0.17396142578125
 30
0.0
 10
0.1447744140625
 20
0.17047216796875
 30
0.0
 10
0.1450380859375
 20
0.1681484375
 30
0.0
 10
0.1454140625
 20
0.1658349609375
 30
0.0
 10
0.1458095703125
 20
0.163529296875
 30
0.0
 10
0.1462802734375
 20
0.160794921875
 30
0.0
 10
0.1469228515625
 20
0.15808837890625
 30
0.0
 10
0.147318359375
 20
0.15534521484375
 30
0.0
 10
0.148271484375
 20
0.1487353515625
 30
0.0
 10
0.149126953125
 20
0.14211328125
 30
0.0
 10
0.150009765625
 20
0.13549462890625
 30
0.0
 10
0.150251953125
 20
0.133689453125
 30
0.0
 10
0.1504833984375
 20
0.1318818359375
 30
0.0
 10
0.1506689453125
 20
0.13006982421875
 30
0.0
 10
0.1515234375
 20
0.1217021484375
 30
0.0
 10
0.152388671875
 20
0.11333447265625
 30
0.0
 10
0.1531943359375
 20
0.10496142578125
 30
0.0
 10
0.1541337890625
 20
0.0952060546875
 30
0.0
 10
0.1554072265625
 20
0.0854619140625
 30
0.0
 10
0.155826171875
 20
0.07568359375
 30
0.0
 10
0.1564326171875
 20
0.0615615234375
 30
0.0
 10
0.156392578125
 20
0.047412109375
 30
0.0
 10
0.156650390625
 20
0.0332744140625
 30
0.0
 10
0.1566923828125
 20
0.0308466796875
 30
0.0
 10
0.1567626953125
 20
0.0284169921875
 30
0.0
 10
0.1569580078125
 20
0.026
 30
0.0
 10
0.1572109375
 20
0.0228056640625
 30
0.0
 10
0.1576005859375
 20
0.0196201171875
 30
0.0
 10
0.157931640625
 20
0.0164326171875
 30
0.0
 10
0.1578955078125
 20
0.01642578125
 30
0.0
 10
0.1578603515625
 20
0.0164208984375
 30
0.0
 10
0.1578232421875
 20
0.016416015625
 30
0.0
 10
0.1578955078125
 20
0.0147705078125
 30
0.0
 10
0.1580693359375
 20
0.0131201171875
 30
0.0
 10
0.1580224609375
 20
0.0114765625
 30
0.0
 10
0.1578876953125
 20
0.0067548828125
 30
0.0
 10
0.16003515625
 20
0.00383984375
 30
0.0
 10
0.1645595703125
 20
0.0024111328125
 30
0.0
 10
0.1669052734375
 20
0.0016689453125
 30
0.0
 10
0.16722265625
 20
0.0014794921875
 30
0.0
 10
0.16862109375
 20
0.003615234375
 30
0.0
 10
0.169986328125
 20
0.00569921875
 30
0.0
 10
0.1718115234375
 20
0.0070224609375
 30
0.0
 10
0.1741904296875
 20
0.007587890625
 30
0.0
 10
0.1767197265625
 20
0.0081875
 30
0.0
 10
0.17925
 20
0.0088427734375
 30
0.0
 10
0.18181640625
 20
0.0092197265625
 30
0.0
 10
0.1846826171875
 20
0.0096396484375
 30
0.0
 10
0.18736328125
 20
0.0105107421875
 30
0.0
 10
0.19004296875
 20
0.011564453125
 30
0.0
 10
0.1943955078125
 20
0.0132763671875
 30
0.0
 10
0.198828125
 20
0.01478125
 30
0.0
 10
0.2032265625
 20
0.0163759765625
 30
0.0
 10
0.204123046875
 20
0.0167001953125
 30
0.0
 10
0.2050771484375
 20
0.016927734375
 30
0.0
 10
0.2058955078125
 20
0.0173916015625
 30
0.0
 10
0.2099638671875
 20
0.0197021484375
 30
0.0
 10
0.214078125
 20
0.02194921875
 30
0.0
 10
0.218015625
 20
0.0244716796875
 30
0.0
 10
0.2209970703125
 20
0.0263837890625
 30
0.0
 10
0.223666015625
 20
0.0287763671875
 30
0.0
 10
0.2266064453125
 20
0.0307578125
 30
0.0
 10
0.2283359375
 20
0.0319287109375
 30
0.0
 10
0.2295947265625
 20
0.0332412109375
 30
0.0
 10
0.2303095703125
 20
0.035251953125
 30
0.0
 10
0.23071875
 20
0.036400390625
 30
0.0
 10
0.231671875
 20
0.0373994140625
 30
0.0
 10
0.2325244140625
 20
0.0383330078125
 30
0.0
 10
0.2337978515625
 20
0.0397236328125
 30
0.0
 10
0.2352763671875
 20
0.040927734375
 30
0.0
 10
0.23652734375
 20
0.0423359375
 30
0.0
 10
0.238134765625
 20
0.044150390625
 30
0.0
 10
0.2394912109375
 20
0.0461865234375
 30
0.0
 10
0.24201171875
 20
0.04694140625
 30
0.0
 10
0.2426259765625
 20
0.0471240234375
 30
0.0
 10
0.2433642578125
 20
0.0476357421875
 30
0.0
 10
0.2436083984375
 20
0.048189453125
 30
0.0
 10
0.24505859375
 20
0.0514638671875
 30
0.0
 10
0.2471552734375
 20
0.054296875
 30
0.0
 10
0.249365234375
 20
0.05706640625
 30
0.0
 10
0.249521484375
 20
0.0572607421875
 30
0.0
 10
0.2495322265625
 20
0.057564453125
 30
0.0
 10
0.2496669921875
 20
0.0577822265625
 30
0.0
 10
0.2510400390625
 20
0.0599765625
 30
0.0
 10
0.2523212890625
 20
0.0622412109375
 30
0.0
 10
0.2538408203125
 20
0.0643291015625
 30
0.0
 10
0.25483984375
 20
0.0657021484375
 30
0.0
 10
0.255583984375
 20
0.067078125
 30
0.0
 10
0.2558505859375
 20
0.06876171875
 30
0.0
 10
0.2560263671875
 20
0.069861328125
 30
0.0
 10
0.2563271484375
 20
0.070966796875
 30
0.0
 10
0.25675
 20
0.07199609375
 30
0.0
 10
0.2582373046875
 20
0.075599609375
 30
0.0
 10
0.260017578125
 20
0.0790947265625
 30
0.0
 10
0.2612890625
 20
0.0827685546875
 30
0.0
 10
0.2634765625
 20
0.089095703125
 30
0.0
 10
0.2647978515625
 20
0.09562939453125
 30
0.0
 10
0.2653330078125
 20
0.10233154296875
 30
0.0
 10
0.2658310546875
 20
0.10854052734375
 30
0.0
 10
0.2665126953125
 20
0.11465087890625
 30
0.0
 10
0.2659072265625
 20
0.1209775390625
 30
0.0
 10
0.2651171875
 20
0.12922021484375
 30
0.0
 10
0.263248046875
 20
0.13701806640625
 30
0.0
 10
0.2600751953125
 20
0.1446025390625
 30
0.0
  0
HATCH
  5
4B
330
3C
100
AcDbEntity
  8
Layer 1
 62
     7
100
AcDbHatch
 10
0.0
 20
0.0
 30
0.0
210
0.0
220
0.0
230
1.0
  2
SOLID
 70
     1
 71
     0
 91
        1
 92
        1
 93
        1
 72
     4
 94
        3
 73
     0
 74
     1
 95
      146
 96
      142
 40
0.0
 40
0.0
 40
0.0
 40
0.0
 40
1.0
 40
1.0
 40
1.0
 40
2.0
 40
2.0
 40
2.0
 40
3.0
 40
3.0
 40
3.0
 40
4.0
 40
4.0
 40
4.0
 40
5.0
 40
5.0
 40
5.0
 40
6.0
 40
6.0
 40
6.0
 40
7.0
 40
7.0
 40
7.0
 40
8.0
 40
8.0
 40
8.0
 40
9.0
 40
9.0
 40
9.0
 40
10.0
 40
10.0
 40
10.0
 40
11.0
 40
11.0
 40
11.0
 40
12.0
 40
12.0
 40
12.0
 40
13.0
 40
13.0
 40
13.0
 40
14.0
 40
14.0
 40
14.0
 40
15.0
 40
15.0
 40
15.0
 40
16.0
 40
16.0
 40
16.0
 40
17.0
 40
17.0
 40
17.0
 40
18.0
 40
18.0
 40
18.0
 40
19.0
 40
19.0
 40
19.0
 40
20.0
 40
20.0
 40
20.0
 40
21.0
 40
21.0
 40
21.0
 40
22.0
 40
22.0
 40
22.0
 40
23.0
 40
23.0
 40
23.0
 40
24.0
 40
24.0
 40
24.0
 40
25.0
 40
25.0
 40
25.0
 40
26.0
 40
26.0
 40
26.0
 40
27.0
 40
27.0
 40
27.0
 40
28.0
 40
28.0
 40
28.0
 40
29.0
 40
29.0
 40
29.0
 40
30.0
 40
30.0
 40
30.0
 40
31.0
 40
31.0
 40
31.0
 40
32.0
 40
32.0
 40
32.0
 40
33.0
 40
33.0
 40
33.0
 40
34.0
 40
34.0
 40
34.0
 40
35.0
 40
35.0
 40
35.0
 40
36.0
 40
36.0
 40
36.0
 40
37.0
 40
37.0
 40
37.0
 40
38.0
 40
38.0
 40
38.0
 40
39.0
 40
39.0
 40
39.0
 40
40.0
 40
40.0
 40
40.0
 40
41.0
 40
41.0
 40
41.0
 40
42.0
 40
42.0
 40
42.0
 40
43.0
 40
43.0
 40
43.0
 40
44.0
 40
44.0
 40
44.0
 40
45.0
 40
45.0
 40
45.0
 40
46.0
 40
46.0
 40
46.0
 40
47.0
 40
47.0
 40
47.0
 40
47.0
 10
0.2600751953125
 20
0.1446025390625
 10
0.2576494140625
 20
0.15040625
 10
0.25401953125
 20
0.15533642578125
 10
0.2493388671875
 20
0.1594423828125
 10
0.2452353515625
 20
0.16304150390625
 10
0.24095703125
 20
0.1664560546875
 10
0.2366123046875
 20
0.169763671875
 10
0.2344951171875
 20
0.171376953125
 10
0.2321474609375
 20
0.172765625
 10
0.229734375
 20
0.173890625
 10
0.2258876953125
 20
0.17568359375
 10
0.2219189453125
 20
0.1772216796875
 10
0.217966796875
 20
0.17877783203125
 10
0.211763671875
 20
0.181220703125
 10
0.20565625
 20
0.18403564453125
 10
0.1987275390625
 20
0.1837177734375
 10
0.1951748046875
 20
0.18355419921875
 10
0.191603515625
 20
0.183697265625
 10
0.188064453125
 20
0.18341845703125
 10
0.185751953125
 20
0.183236328125
 10
0.1833759765625
 20
0.18282275390625
 10
0.181208984375
 20
0.1820283203125
 10
0.175599609375
 20
0.1799716796875
 10
0.1698662109375
 20
0.1781474609375
 10
0.164845703125
 20
0.17475
 10
0.1644873046875
 20
0.1745078125
 10
0.164076171875
 20
0.17434716796875
 10
0.1636982421875
 20
0.17413623046875
 10
0.1621513671875
 20
0.17327587890625
 10
0.1607490234375
 20
0.17342041015625
 10
0.1593857421875
 20
0.17459423828125
 10
0.1583359375
 20
0.17549755859375
 10
0.1572255859375
 20
0.1763447265625
 10
0.15606640625
 20
0.1771005859375
 10
0.153880859375
 20
0.17852490234375
 10
0.1515908203125
 20
0.17894580078125
 10
0.149220703125
 20
0.17748291015625
 10
0.1466015625
 20
0.1758662109375
 10
0.1443779296875
 20
0.17396142578125
 10
0.1447744140625
 20
0.17047216796875
 10
0.1450380859375
 20
0.1681484375
 10
0.1454140625
 20
0.1658349609375
 10
0.1458095703125
 20
0.163529296875
 10
0.1462802734375
 20
0.160794921875
 10
0.1469228515625
 20
0.15808837890625
 10
0.147318359375
 20
0.15534521484375
 10
0.148271484375
 20
0.1487353515625
 10
0.149126953125
 20
0.14211328125
 10
0.150009765625
 20
0.13549462890625
 10
0.150251953125
 20
0.133689453125
 10
0.1504833984375
 20
0.1318818359375
 10
0.1506689453125
 20
0.13006982421875
 10
0.1515234375
 20
0.1217021484375
 10
0.152388671875
 20
0.11333447265625
 10
0.1531943359375
 20
0.10496142578125
 10
0.1541337890625
 20
0.0952060546875
 10
0.1554072265625
 20
0.0854619140625
 10
0.155826171875
 20
0.07568359375
 10
0.1564326171875
 20
0.0615615234375
 10
0.156392578125
 20
0.047412109375
 10
0.156650390625
 20
0.0332744140625
 10
0.1566923828125
 20
0.0308466796875
 10
0.1567626953125
 20
0.0284169921875
 10
0.1569580078125
 20
0.026
 10
0.1572109375
 20
0.0228056640625
 10
0.1576005859375
 20
0.0196201171875
 10
0.157931640625
 20
0.0164326171875
 10
0.1578955078125
 20
0.01642578125
 10
0.1578603515625
 20
0.0164208984375
 10
0.1578232421875
 20
0.016416015625
 10
0.1578955078125
 20
0.0147705078125
 10
0.1580693359375
 20
0.0131201171875
 10
0.1580224609375
 20
0.0114765625
 10
0.1578876953125
 20
0.0067548828125
 10
0.16003515625
 20
0.00383984375
 10
0.1645595703125
 20
0.0024111328125
 10
0.1669052734375
 20
0.0016689453125
 10
0.16722265625
 20
0.0014794921875
 10
0.16862109375
 20
0.003615234375
 10
0.169986328125
 20
0.00569921875
 10
0.1718115234375
 20
0.0070224609375
 10
0.1741904296875
 20
0.007587890625
 10
0.1767197265625
 20
0.0081875
 10
0.17925
 20
0.0088427734375
 10
0.18181640625
 20
0.0092197265625
 10
0.1846826171875
 20
0.0096396484375
 10
0.18736328125
 20
0.0105107421875
 10
0.19004296875
 20
0.011564453125
 10
0.1943955078125
 20
0.0132763671875
 10
0.198828125
 20
0.01478125
 10
0.2032265625
 20
0.0163759765625
 10
0.204123046875
 20
0.0167001953125
 10
0.2050771484375
 20
0.016927734375
 10
0.2058955078125
 20
0.0173916015625
 10
0.2099638671875
 20
0.0197021484375
 10
0.214078125
 20
0.02194921875
 10
0.218015625
 20
0.0244716796875
 10
0.2209970703125
 20
0.0263837890625
 10
0.223666015625
 20
0.0287763671875
 10
0.2266064453125
 20
0.0307578125
 10
0.2283359375
 20
0.0319287109375
 10
0.2295947265625
 20
0.0332412109375
 10
0.2303095703125
 20
0.035251953125
 10
0.23071875
 20
0.036400390625
 10
0.231671875
 20
0.0373994140625
 10
0.2325244140625
 20
0.0383330078125
 10
0.2337978515625
 20
0.0397236328125
 10
0.2352763671875
 20
0.040927734375
 10
0.23652734375
 20
0.0423359375
 10
0.238134765625
 20
0.044150390625
 10
0.2394912109375
 20
0.0461865234375
 10
0.24201171875
 20
0.04694140625
 10
0.2426259765625
 20
0.0471240234375
 10
0.2433642578125
 20
0.0476357421875
 10
0.2436083984375
 20
0.048189453125
 10
0.24505859375
 20
0.0514638671875
 10
0.2471552734375
 20
0.054296875
 10
0.249365234375
 20
0.05706640625
 10
0.249521484375
 20
0.0572607421875
 10
0.2495322265625
 20
0.057564453125
 10
0.2496669921875
 20
0.0577822265625
 10
0.2510400390625
 20
0.0599765625
 10
0.2523212890625
 20
0.0622412109375
 10
0.2538408203125
 20
0.0643291015625
 10
0.25483984375
 20
0.0657021484375
 10
0.255583984375
 20
0.067078125
 10
0.2558505859375
 20
0.06876171875
 10
0.2560263671875
 20
0.069861328125
 10
0.2563271484375
 20
0.070966796875
 10
0.25675
 20
0.07199609375
 10
0.2582373046875
 20
0.075599609375
 10
0.260017578125
 20
0.0790947265625
 10
0.2612890625
 20
0.0827685546875
 10
0.2634765625
 20
0.089095703125
 10
0.2647978515625
 20
0.09562939453125
 10
0.2653330078125
 20
0.10233154296875
 10
0.2658310546875
 20
0.10854052734375
 10
0.2665126953125
 20
0.11465087890625
 10
0.2659072265625
 20
0.1209775390625
 10
0.2651171875
 20
0.12922021484375
 10
0.263248046875
 20
0.13701806640625
 10
0.2600751953125
 20
0.1446025390625
 97
        0
 75
     2
 76
     1
 98
        0
  0
SPLINE
  5
4C
330
3C
100
AcDbEntity
  8
Layer 1
370
     0
100
AcDbSpline
210
0.0
220
0.0
230
1.0
 70
    11
 71
     3
 72
   308
 73
   304
 74
     0
 42
0.0000000001
 43
0.0000000001
 40
0.0
 40
0.0
 40
0.0
 40
0.0
 40
1.0
 40
1.0
 40
1.0
 40
2.0
 40
2.0
 40
2.0
 40
3.0
 40
3.0
 40
3.0
 40
4.0
 40
4.0
 40
4.0
 40
5.0
 40
5.0
 40
5.0
 40
6.0
 40
6.0
 40
6.0
 40
7.0
 40
7.0
 40
7.0
 40
8.0
 40
8.0
 40
8.0
 40
9.0
 40
9.0
 40
9.0
 40
10.0
 40
10.0
 40
10.0
 40
11.0
 40
11.0
 40
11.0
 40
12.0
 40
12.0
 40
12.0
 40
13.0
 40
13.0
 40
13.0
 40
14.0
 40
14.0
 40
14.0
 40
15.0
 40
15.0
 40
15.0
 40
16.0
 40
16.0
 40
16.0
 40
17.0
 40
17.0
 40
17.0
 40
18.0
 40
18.0
 40
18.0
 40
19.0
 40
19.0
 40
19.0
 40
20.0
 40
20.0
 40
20.0
 40
21.0
 40
21.0
 40
21.0
 40
22.0
 40
22.0
 40
22.0
 40
23.0
 40
23.0
 40
23.0
 40
24.0
 40
24.0
 40
24.0
 40
25.0
 40
25.0
 40
25.0
 40
26.0
 40
26.0
 40
26.0
 40
27.0
 40
27.0
 40
27.0
 40
28.0
 40
28.0
 40
28.0
 40
29.0
 40
29.0
 40
29.0
 40
30.0
 40
30.0
 40
30.0
 40
31.0
 40
31.0
 40
31.0
 40
32.0
 40
32.0
 40
32.0
 40
33.0
 40
33.0
 40
33.0
 40
34.0
 40
34.0
 40
34.0
 40
35.0
 40
35.0
 40
35.0
 40
36.0
 40
36.0
 40
36.0
 40
37.0
 40
37.0
 40
37.0
 40
38.0
 40
38.0
 40
38.0
 40
39.0
 40
39.0
 40
39.0
 40
40.0
 40
40.0
 40
40.0
 40
41.0
 40
41.0
 40
41.0
 40
42.0
 40
42.0
 40
42.0
 40
43.0
 40
43.0
 40
43.0
 40
44.0
 40
44.0
 40
44.0
 40
45.0
 40
45.0
 40
45.0
 40
46.0
 40
46.0
 40
46.0
 40
47.0
 40
47.0
 40
47.0
 40
48.0
 40
48.0
 40
48.0
 40
49.0
 40
49.0
 40
49.0
 40
50.0
 40
50.0
 40
50.0
 40
51.0
 40
51.0
 40
51.0
 40
52.0
 40
52.0
 40
52.0
 40
53.0
 40
53.0
 40
53.0
 40
54.0
 40
54.0
 40
54.0
 40
55.0
 40
55.0
 40
55.0
 40
56.0
 40
56.0
 40
56.0
 40
57.0
 40
57.0
 40
57.0
 40
58.0
 40
58.0
 40
58.0
 40
59.0
 40
59.0
 40
59.0
 40
60.0
 40
60.0
 40
60.0
 40
61.0
 40
61.0
 40
61.0
 40
62.0
 40
62.0
 40
62.0
 40
63.0
 40
63.0
 40
63.0
 40
64.0
 40
64.0
 40
64.0
 40
65.0
 40
65.0
 40
65.0
 40
66.0
 40
66.0
 40
66.0
 40
67.0
 40
67.0
 40
67.0
 40
68.0
 40
68.0
 40
68.0
 40
69.0
 40
69.0
 40
69.0
 40
70.0
 40
70.0
 40
70.0
 40
71.0
 40
71.0
 40
71.0
 40
72.0
 40
72.0
 40
72.0
 40
73.0
 40
73.0
 40
73.0
 40
74.0
 40
74.0
 40
74.0
 40
75.0
 40
75.0
 40
75.0
 40
76.0
 40
76.0
 40
76.0
 40
77.0
 40
77.0
 40
77.0
 40
78.0
 40
78.0
 40
78.0
 40
79.0
 40
79.0
 40
79.0
 40
80.0
 40
80.0
 40
80.0
 40
81.0
 40
81.0
 40
81.0
 40
82.0
 40
82.0
 40
82.0
 40
83.0
 40
83.0
 40
83.0
 40
84.0
 40
84.0
 40
84.0
 40
85.0
 40
85.0
 40
85.0
 40
86.0
 40
86.0
 40
86.0
 40
87.0
 40
87.0
 40
87.0
 40
88.0
 40
88.0
 40
88.0
 40
89.0
 40
89.0
 40
89.0
 40
90.0
 40
90.0
 40
90.0
 40
91.0
 40
91.0
 40
91.0
 40
92.0
 40
92.0
 40
92.0
 40
93.0
 40
93.0
 40
93.0
 40
94.0
 40
94.0
 40
94.0
 40
95.0
 40
95.0
 40
95.0
 40
96.0
 40
96.0
 40
96.0
 40
97.0
 40
97.0
 40
97.0
 40
98.0
 40
98.0
 40
98.0
 40
99.0
 40
99.0
 40
99.0
 40
100.0
 40
100.0
 40
100.0
 40
101.0
 40
101.0
 40
101.0
 40
101.0
 10
-0.1235224609375
 20
0.127017578125
 30
0.0
 10
-0.12286865234375
 20
0.126921875
 30
0.0
 10
-0.12224462890625
 20
0.126638671875
 30
0.0
 10
-0.1215947265625
 20
0.126501953125
 30
0.0
 10
-0.1193232421875
 20
0.12602587890625
 30
0.0
 10
-0.117060546875
 20
0.1254755859375
 30
0.0
 10
-0.11476708984375
 20
0.125138671875
 30
0.0
 10
-0.11032177734375
 20
0.12448681640625
 30
0.0
 10
-0.10584521484375
 20
0.1240458984375
 30
0.0
 10
-0.10140576171875
 20
0.1233603515625
 30
0.0
 10
-0.0958916015625
 20
0.1225087890625
 30
0.0
 10
-0.09040234375
 20
0.12149951171875
 30
0.0
 10
-0.08490234375
 20
0.120556640625
 30
0.0
 10
-0.08319921875
 20
0.1202646484375
 30
0.0
 10
-0.0816181640625
 20
0.1204638671875
 30
0.0
 10
-0.0801201171875
 20
0.12144189453125
 30
0.0
 10
-0.0787314453125
 20
0.12234912109375
 30
0.0
 10
-0.07725439453125
 20
0.12312109375
 30
0.0
 10
-0.07580078125
 20
0.12392626953125
 30
0.0
 10
-0.07498828125
 20
0.12437451171875
 30
0.0
 10
-0.07392529296875
 20
0.12481005859375
 30
0.0
 10
-0.07426318359375
 20
0.12587939453125
 30
0.0
 10
-0.07446484375
 20
0.12651513671875
 30
0.0
 10
-0.07538037109375
 20
0.12693896484375
 30
0.0
 10
-0.07600634765625
 20
0.12741748046875
 30
0.0
 10
-0.076189453125
 20
0.1275576171875
 30
0.0
 10
-0.07647998046875
 20
0.127560546875
 30
0.0
 10
-0.07672265625
 20
0.12761962890625
 30
0.0
 10
-0.0816474609375
 20
0.1288447265625
 30
0.0
 10
-0.08655126953125
 20
0.13016552734375
 30
0.0
 10
-0.09150537109375
 20
0.131263671875
 30
0.0
 10
-0.09605419921875
 20
0.13227001953125
 30
0.0
 10
-0.10064306640625
 20
0.1331201171875
 30
0.0
 10
-0.105240234375
 20
0.13388671875
 30
0.0
 10
-0.1106611328125
 20
0.1347900390625
 30
0.0
 10
-0.11612158203125
 20
0.13545849609375
 30
0.0
 10
-0.12154150390625
 20
0.1363671875
 30
0.0
 10
-0.12472119140625
 20
0.13689990234375
 30
0.0
 10
-0.12543310546875
 20
0.137978515625
 30
0.0
 10
-0.12508935546875
 20
0.14120947265625
 30
0.0
 10
-0.124841796875
 20
0.14352734375
 30
0.0
 10
-0.12449072265625
 20
0.1458349609375
 30
0.0
 10
-0.1241728515625
 20
0.14814501953125
 30
0.0
 10
-0.12353662109375
 20
0.15276416015625
 30
0.0
 10
-0.12305224609375
 20
0.15741064453125
 30
0.0
 10
-0.1222080078125
 20
0.16199169921875
 30
0.0
 10
-0.1211220703125
 20
0.16788623046875
 30
0.0
 10
-0.11967431640625
 20
0.17371337890625
 30
0.0
 10
-0.11853564453125
 20
0.17959912109375
 30
0.0
 10
-0.118193359375
 20
0.1813662109375
 30
0.0
 10
-0.11817333984375
 20
0.18325
 30
0.0
 10
-0.1183486328125
 20
0.185046875
 30
0.0
 10
-0.1185390625
 20
0.186990234375
 30
0.0
 10
-0.1195302734375
 20
0.18774560546875
 30
0.0
 10
-0.1214677734375
 20
0.18805029296875
 30
0.0
 10
-0.126578125
 20
0.1888544921875
 30
0.0
 10
-0.1304658203125
 20
0.18619677734375
 30
0.0
 10
-0.131578125
 20
0.181134765625
 30
0.0
 10
-0.131685546875
 20
0.180646484375
 30
0.0
 10
-0.1317919921875
 20
0.18015625
 30
0.0
 10
-0.1318544921875
 20
0.1796611328125
 30
0.0
 10
-0.1323408203125
 20
0.1757880859375
 30
0.0
 10
-0.13328564453125
 20
0.17195751953125
 30
0.0
 10
-0.13287890625
 20
0.167998046875
 30
0.0
 10
-0.13279541015625
 20
0.167185546875
 30
0.0
 10
-0.13294921875
 20
0.16633544921875
 30
0.0
 10
-0.13307763671875
 20
0.165515625
 30
0.0
 10
-0.13424365234375
 20
0.15810205078125
 30
0.0
 10
-0.13472119140625
 20
0.15063427734375
 30
0.0
 10
-0.13484033203125
 20
0.14314111328125
 30
0.0
 10
-0.13490283203125
 20
0.1392587890625
 30
0.0
 10
-0.13614306640625
 20
0.137921875
 30
0.0
 10
-0.13994287109375
 20
0.13811669921875
 30
0.0
 10
-0.14385107421875
 20
0.1383154296875
 30
0.0
 10
-0.14775146484375
 20
0.13867919921875
 30
0.0
 10
-0.1516552734375
 20
0.13896728515625
 30
0.0
 10
-0.15813330078125
 20
0.1394462890625
 30
0.0
 10
-0.16460888671875
 20
0.139958984375
 30
0.0
 10
-0.17108984375
 20
0.1403837890625
 30
0.0
 10
-0.1745791015625
 20
0.1406123046875
 30
0.0
 10
-0.1780830078125
 20
0.140609375
 30
0.0
 10
-0.1815712890625
 20
0.1408515625
 30
0.0
 10
-0.18502734375
 20
0.141091796875
 30
0.0
 10
-0.18607373046875
 20
0.14240185546875
 30
0.0
 10
-0.18585498046875
 20
0.14589111328125
 30
0.0
 10
-0.18580810546875
 20
0.14663818359375
 30
0.0
 10
-0.18566015625
 20
0.14737744140625
 30
0.0
 10
-0.1855869140625
 20
0.148123046875
 30
0.0
 10
-0.18525244140625
 20
0.151521484375
 30
0.0
 10
-0.18494873046875
 20
0.15492138671875
 30
0.0
 10
-0.1845908203125
 20
0.15831640625
 30
0.0
 10
-0.1844599609375
 20
0.1595556640625
 30
0.0
 10
-0.1842744140625
 20
0.16079541015625
 30
0.0
 10
-0.18400244140625
 20
0.162009765625
 30
0.0
 10
-0.18266845703125
 20
0.1679423828125
 30
0.0
 10
-0.181294921875
 20
0.1738662109375
 30
0.0
 10
-0.17994091796875
 20
0.1797939453125
 30
0.0
 10
-0.17941455078125
 20
0.18210107421875
 30
0.0
 10
-0.17934375
 20
0.184423828125
 30
0.0
 10
-0.17986083984375
 20
0.186736328125
 30
0.0
 10
-0.1805234375
 20
0.18970166015625
 30
0.0
 10
-0.1829833984375
 20
0.1913564453125
 30
0.0
 10
-0.1858408203125
 20
0.190470703125
 30
0.0
 10
-0.18981689453125
 20
0.18923876953125
 30
0.0
 10
-0.19317041015625
 20
0.1871904296875
 30
0.0
 10
-0.19394921875
 20
0.18258203125
 30
0.0
 10
-0.19453076171875
 20
0.17913525390625
 30
0.0
 10
-0.1953388671875
 20
0.17571142578125
 30
0.0
 10
-0.19567333984375
 20
0.1722412109375
 30
0.0
 10
-0.19631201171875
 20
0.16561474609375
 30
0.0
 10
-0.1966533203125
 20
0.15895947265625
 30
0.0
 10
-0.19718798828125
 20
0.15232177734375
 30
0.0
 10
-0.1973349609375
 20
0.1505029296875
 30
0.0
 10
-0.19767626953125
 20
0.14869384765625
 30
0.0
 10
-0.19802734375
 20
0.146900390625
 30
0.0
 10
-0.19843408203125
 20
0.14481884765625
 30
0.0
 10
-0.19972119140625
 20
0.14347216796875
 30
0.0
 10
-0.20180615234375
 20
0.143041015625
 30
0.0
 10
-0.20359375
 20
0.142671875
 30
0.0
 10
-0.20540625
 20
0.14241015625
 30
0.0
 10
-0.2072158203125
 20
0.14216162109375
 30
0.0
 10
-0.20894677734375
 20
0.1419228515625
 30
0.0
 10
-0.2107080078125
 20
0.1418701171875
 30
0.0
 10
-0.21242041015625
 20
0.141544921875
 30
0.0
 10
-0.2148828125
 20
0.141076171875
 30
0.0
 10
-0.21632666015625
 20
0.1392734375
 30
0.0
 10
-0.21625830078125
 20
0.1370224609375
 30
0.0
 10
-0.21619384765625
 20
0.1349033203125
 30
0.0
 10
-0.21501611328125
 20
0.1337626953125
 30
0.0
 10
-0.2122314453125
 20
0.1334794921875
 30
0.0
 10
-0.20949951171875
 20
0.1332021484375
 30
0.0
 10
-0.20674658203125
 20
0.13314501953125
 30
0.0
 10
-0.20400439453125
 20
0.132966796875
 30
0.0
 10
-0.2006357421875
 20
0.13274755859375
 30
0.0
 10
-0.19954638671875
 20
0.131583984375
 30
0.0
 10
-0.19958349609375
 20
0.12827001953125
 30
0.0
 10
-0.199591796875
 20
0.127521484375
 30
0.0
 10
-0.1995888671875
 20
0.12676220703125
 30
0.0
 10
-0.19970556640625
 20
0.1260263671875
 30
0.0
 10
-0.20066552734375
 20
0.11992626953125
 30
0.0
 10
-0.2009638671875
 20
0.11380419921875
 30
0.0
 10
-0.20093017578125
 20
0.10762060546875
 30
0.0
 10
-0.20086962890625
 20
0.09646533203125
 30
0.0
 10
-0.20115087890625
 20
0.0853095703125
 30
0.0
 10
-0.2012734375
 20
0.0741533203125
 30
0.0
 10
-0.20128515625
 20
0.0730732421875
 30
0.0
 10
-0.20118115234375
 20
0.0719921875
 30
0.0
 10
-0.20113427734375
 20
0.0709111328125
 30
0.0
 10
-0.20098486328125
 20
0.0674208984375
 30
0.0
 10
-0.20088232421875
 20
0.0639287109375
 30
0.0
 10
-0.20067041015625
 20
0.06044140625
 30
0.0
 10
-0.200544921875
 20
0.058375
 30
0.0
 10
-0.2003916015625
 20
0.056291015625
 30
0.0
 10
-0.2000009765625
 20
0.0542626953125
 30
0.0
 10
-0.19894580078125
 20
0.0487890625
 30
0.0
 10
-0.19766064453125
 20
0.043357421875
 30
0.0
 10
-0.19664892578125
 20
0.0378759765625
 30
0.0
 10
-0.19560693359375
 20
0.0322265625
 30
0.0
 10
-0.19477978515625
 20
0.0265380859375
 30
0.0
 10
-0.1938583984375
 20
0.0208671875
 30
0.0
 10
-0.1937490234375
 20
0.0208818359375
 30
0.0
 10
-0.1936396484375
 20
0.020896484375
 30
0.0
 10
-0.19352978515625
 20
0.0209111328125
 30
0.0
 10
-0.19279345703125
 20
0.0153818359375
 30
0.0
 10
-0.192201171875
 20
0.0098291015625
 30
0.0
 10
-0.19127734375
 20
0.0043330078125
 30
0.0
 10
-0.190451171875
 20
-0.0005830078125
 30
0.0
 10
-0.18925927734375
 20
-0.0054375
 30
0.0
 10
-0.1882275390625
 20
-0.0103173828125
 30
0.0
 10
-0.18819287109375
 20
-0.0104794921875
 30
0.0
 10
-0.18815185546875
 20
-0.010642578125
 30
0.0
 10
-0.18809619140625
 20
-0.0107998046875
 30
0.0
 10
-0.187705078125
 20
-0.0119150390625
 30
0.0
 10
-0.18734228515625
 20
-0.0131025390625
 30
0.0
 10
-0.18585498046875
 20
-0.0131044921875
 30
0.0
 10
-0.184783203125
 20
-0.01310546875
 30
0.0
 10
-0.184173828125
 20
-0.0121123046875
 30
0.0
 10
-0.18406591796875
 20
-0.010224609375
 30
0.0
 10
-0.18401953125
 20
-0.0093974609375
 30
0.0
 10
-0.1841015625
 20
-0.0085625
 30
0.0
 10
-0.18412451171875
 20
-0.0077314453125
 30
0.0
 10
-0.184380859375
 20
0.0013642578125
 30
0.0
 10
-0.18590185546875
 20
0.0103271484375
 30
0.0
 10
-0.18726708984375
 20
0.0192841796875
 30
0.0
 10
-0.18901611328125
 20
0.03075390625
 30
0.0
 10
-0.1901259765625
 20
0.04224609375
 30
0.0
 10
-0.19033837890625
 20
0.0538447265625
 30
0.0
 10
-0.19045654296875
 20
0.0602529296875
 30
0.0
 10
-0.19102734375
 20
0.0666533203125
 30
0.0
 10
-0.19110498046875
 20
0.073060546875
 30
0.0
 10
-0.19118310546875
 20
0.079533203125
 30
0.0
 10
-0.1928310546875
 20
0.0859384765625
 30
0.0
 10
-0.19188671875
 20
0.09244580078125
 30
0.0
 10
-0.19186328125
 20
0.09260791015625
 30
0.0
 10
-0.1919033203125
 20
0.09277783203125
 30
0.0
 10
-0.19191259765625
 20
0.0929443359375
 30
0.0
 10
-0.19214306640625
 20
0.097021484375
 30
0.0
 10
-0.19226318359375
 20
0.1010859375
 30
0.0
 10
-0.19165478515625
 20
0.10515576171875
 30
0.0
 10
-0.1909775390625
 20
0.10968310546875
 30
0.0
 10
-0.1905048828125
 20
0.1142412109375
 30
0.0
 10
-0.18985302734375
 20
0.11877294921875
 30
0.0
 10
-0.189390625
 20
0.121986328125
 30
0.0
 10
-0.1888642578125
 20
0.12519677734375
 30
0.0
 10
-0.188205078125
 20
0.12837548828125
 30
0.0
 10
-0.1876474609375
 20
0.1310634765625
 30
0.0
 10
-0.18644921875
 20
0.131978515625
 30
0.0
 10
-0.18370654296875
 20
0.13219970703125
 30
0.0
 10
-0.18304443359375
 20
0.13225390625
 30
0.0
 10
-0.182373046875
 20
0.13225732421875
 30
0.0
 10
-0.18170947265625
 20
0.1322236328125
 30
0.0
 10
-0.1768837890625
 20
0.1319814453125
 30
0.0
 10
-0.17205322265625
 20
0.13179931640625
 30
0.0
 10
-0.1672373046875
 20
0.13143212890625
 30
0.0
 10
-0.1654306640625
 20
0.13129443359375
 30
0.0
 10
-0.163458984375
 20
0.1310869140625
 30
0.0
 10
-0.1619140625
 20
0.13025732421875
 30
0.0
 10
-0.1591650390625
 20
0.1287783203125
 30
0.0
 10
-0.15635205078125
 20
0.12883349609375
 30
0.0
 10
-0.1534248046875
 20
0.12884912109375
 30
0.0
 10
-0.14909619140625
 20
0.12887060546875
 30
0.0
 10
-0.1447607421875
 20
0.1288271484375
 30
0.0
 10
-0.140439453125
 20
0.12859228515625
 30
0.0
 10
-0.1370419921875
 20
0.128408203125
 30
0.0
 10
-0.135830078125
 20
0.12696630859375
 30
0.0
 10
-0.1357470703125
 20
0.12368603515625
 30
0.0
 10
-0.1355888671875
 20
0.11745556640625
 30
0.0
 10
-0.135427734375
 20
0.11122509765625
 30
0.0
 10
-0.13525537109375
 20
0.104994140625
 30
0.0
 10
-0.13508447265625
 20
0.09883935546875
 30
0.0
 10
-0.13475634765625
 20
0.0927001953125
 30
0.0
 10
-0.1342802734375
 20
0.0865556640625
 30
0.0
 10
-0.1338310546875
 20
0.08075
 30
0.0
 10
-0.13396875
 20
0.0749013671875
 30
0.0
 10
-0.13275927734375
 20
0.069158203125
 30
0.0
 10
-0.13260595703125
 20
0.0684326171875
 30
0.0
 10
-0.13265625
 20
0.0676650390625
 30
0.0
 10
-0.1325986328125
 20
0.0669169921875
 30
0.0
 10
-0.132109375
 20
0.0605244140625
 30
0.0
 10
-0.13182373046875
 20
0.054107421875
 30
0.0
 10
-0.1310615234375
 20
0.047748046875
 30
0.0
 10
-0.1304482421875
 20
0.0426318359375
 30
0.0
 10
-0.1293017578125
 20
0.0375771484375
 30
0.0
 10
-0.12830859375
 20
0.03251171875
 30
0.0
 10
-0.1272509765625
 20
0.027119140625
 30
0.0
 10
-0.126134765625
 20
0.02173828125
 30
0.0
 10
-0.124970703125
 20
0.0163671875
 30
0.0
 10
-0.12414111328125
 20
0.01254296875
 30
0.0
 10
-0.1229541015625
 20
0.0087822265625
 30
0.0
 10
-0.1223447265625
 20
0.0049267578125
 30
0.0
 10
-0.1212666015625
 20
-0.00190234375
 30
0.0
 10
-0.1188828125
 20
-0.008267578125
 30
0.0
 10
-0.11610986328125
 20
-0.01452734375
 30
0.0
 10
-0.115841796875
 20
-0.015130859375
 30
0.0
 10
-0.1154853515625
 20
-0.0157080078125
 30
0.0
 10
-0.11509375
 20
-0.0162412109375
 30
0.0
 10
-0.114509765625
 20
-0.0170380859375
 30
0.0
 10
-0.1137021484375
 20
-0.017474609375
 30
0.0
 10
-0.1127021484375
 20
-0.017193359375
 30
0.0
 10
-0.1116591796875
 20
-0.0168984375
 30
0.0
 10
-0.1112724609375
 20
-0.016029296875
 30
0.0
 10
-0.11133447265625
 20
-0.01505859375
 30
0.0
 10
-0.111408203125
 20
-0.01390625
 30
0.0
 10
-0.111609375
 20
-0.012751953125
 30
0.0
 10
-0.1118583984375
 20
-0.011623046875
 30
0.0
 10
-0.1127373046875
 20
-0.0076396484375
 30
0.0
 10
-0.11370263671875
 20
-0.0036767578125
 30
0.0
 10
-0.11455419921875
 20
0.0003134765625
 30
0.0
 10
-0.115404296875
 20
0.004298828125
 30
0.0
 10
-0.11592724609375
 20
0.0083681640625
 30
0.0
 10
-0.11699951171875
 20
0.0122890625
 30
0.0
 10
-0.11939111328125
 20
0.02104296875
 30
0.0
 10
-0.12061669921875
 20
0.0298916015625
 30
0.0
 10
-0.120125
 20
0.03896875
 30
0.0
 10
-0.1200673828125
 20
0.0400400390625
 30
0.0
 10
-0.12023876953125
 20
0.0411259765625
 30
0.0
 10
-0.12033056640625
 20
0.0422041015625
 30
0.0
 10
-0.12052099609375
 20
0.04444140625
 30
0.0
 10
-0.120775390625
 20
0.04667578125
 30
0.0
 10
-0.12091943359375
 20
0.04891796875
 30
0.0
 10
-0.12124462890625
 20
0.053982421875
 30
0.0
 10
-0.1211884765625
 20
0.059083984375
 30
0.0
 10
-0.122693359375
 20
0.064017578125
 30
0.0
 10
-0.1229794921875
 20
0.06495703125
 30
0.0
 10
-0.12292529296875
 20
0.0659970703125
 30
0.0
 10
-0.12304931640625
 20
0.06698828125
 30
0.0
 10
-0.12354638671875
 20
0.070951171875
 30
0.0
 10
-0.1240869140625
 20
0.0749091796875
 30
0.0
 10
-0.12454345703125
 20
0.078876953125
 30
0.0
 10
-0.12492431640625
 20
0.082181640625
 30
0.0
 10
-0.12529541015625
 20
0.0854921875
 30
0.0
 10
-0.12551416015625
 20
0.0888095703125
 30
0.0
 10
-0.125716796875
 20
0.091880859375
 30
0.0
 10
-0.12541015625
 20
0.0950107421875
 30
0.0
 10
-0.12585791015625
 20
0.09803564453125
 30
0.0
 10
-0.126986328125
 20
0.10565380859375
 30
0.0
 10
-0.12700537109375
 20
0.11330908203125
 30
0.0
 10
-0.12705810546875
 20
0.12096923828125
 30
0.0
 10
-0.1270673828125
 20
0.1222919921875
 30
0.0
 10
-0.12694677734375
 20
0.1236435546875
 30
0.0
 10
-0.12666259765625
 20
0.12493408203125
 30
0.0
 10
-0.126291015625
 20
0.12662060546875
 30
0.0
 10
-0.12522314453125
 20
0.12726416015625
 30
0.0
 10
-0.1235224609375
 20
0.127017578125
 30
0.0
  0
HATCH
  5
4D
330
3C
100
AcDbEntity
  8
Layer 1
 62
     7
100
AcDbHatch
 10
0.0
 20
0.0
 30
0.0
210
0.0
220
0.0
230
1.0
  2
SOLID
 70
     1
 71
     0
 91
        1
 92
        1
 93
        1
 72
     4
 94
        3
 73
     0
 74
     1
 95
      308
 96
      304
 40
0.0
 40
0.0
 40
0.0
 40
0.0
 40
1.0
 40
1.0
 40
1.0
 40
2.0
 40
2.0
 40
2.0
 40
3.0
 40
3.0
 40
3.0
 40
4.0
 40
4.0
 40
4.0
 40
5.0
 40
5.0
 40
5.0
 40
6.0
 40
6.0
 40
6.0
 40
7.0
 40
7.0
 40
7.0
 40
8.0
 40
8.0
 40
8.0
 40
9.0
 40
9.0
 40
9.0
 40
10.0
 40
10.0
 40
10.0
 40
11.0
 40
11.0
 40
11.0
 40
12.0
 40
12.0
 40
12.0
 40
13.0
 40
13.0
 40
13.0
 40
14.0
 40
14.0
 40
14.0
 40
15.0
 40
15.0
 40
15.0
 40
16.0
 40
16.0
 40
16.0
 40
17.0
 40
17.0
 40
17.0
 40
18.0
 40
18.0
 40
18.0
 40
19.0
 40
19.0
 40
19.0
 40
20.0
 40
20.0
 40
20.0
 40
21.0
 40
21.0
 40
21.0
 40
22.0
 40
22.0
 40
22.0
 40
23.0
 40
23.0
 40
23.0
 40
24.0
 40
24.0
 40
24.0
 40
25.0
 40
25.0
 40
25.0
 40
26.0
 40
26.0
 40
26.0
 40
27.0
 40
27.0
 40
27.0
 40
28.0
 40
28.0
 40
28.0
 40
29.0
 40
29.0
 40
29.0
 40
30.0
 40
30.0
 40
30.0
 40
31.0
 40
31.0
 40
31.0
 40
32.0
 40
32.0
 40
32.0
 40
33.0
 40
33.0
 40
33.0
 40
34.0
 40
34.0
 40
34.0
 40
35.0
 40
35.0
 40
35.0
 40
36.0
 40
36.0
 40
36.0
 40
37.0
 40
37.0
 40
37.0
 40
38.0
 40
38.0
 40
38.0
 40
39.0
 40
39.0
 40
39.0
 40
40.0
 40
40.0
 40
40.0
 40
41.0
 40
41.0
 40
41.0
 40
42.0
 40
42.0
 40
42.0
 40
43.0
 40
43.0
 40
43.0
 40
44.0
 40
44.0
 40
44.0
 40
45.0
 40
45.0
 40
45.0
 40
46.0
 40
46.0
 40
46.0
 40
47.0
 40
47.0
 40
47.0
 40
48.0
 40
48.0
 40
48.0
 40
49.0
 40
49.0
 40
49.0
 40
50.0
 40
50.0
 40
50.0
 40
51.0
 40
51.0
 40
51.0
 40
52.0
 40
52.0
 40
52.0
 40
53.0
 40
53.0
 40
53.0
 40
54.0
 40
54.0
 40
54.0
 40
55.0
 40
55.0
 40
55.0
 40
56.0
 40
56.0
 40
56.0
 40
57.0
 40
57.0
 40
57.0
 40
58.0
 40
58.0
 40
58.0
 40
59.0
 40
59.0
 40
59.0
 40
60.0
 40
60.0
 40
60.0
 40
61.0
 40
61.0
 40
61.0
 40
62.0
 40
62.0
 40
62.0
 40
63.0
 40
63.0
 40
63.0
 40
64.0
 40
64.0
 40
64.0
 40
65.0
 40
65.0
 40
65.0
 40
66.0
 40
66.0
 40
66.0
 40
67.0
 40
67.0
 40
67.0
 40
68.0
 40
68.0
 40
68.0
 40
69.0
 40
69.0
 40
69.0
 40
70.0
 40
70.0
 40
70.0
 40
71.0
 40
71.0
 40
71.0
 40
72.0
 40
72.0
 40
72.0
 40
73.0
 40
73.0
 40
73.0
 40
74.0
 40
74.0
 40
74.0
 40
75.0
 40
75.0
 40
75.0
 40
76.0
 40
76.0
 40
76.0
 40
77.0
 40
77.0
 40
77.0
 40
78.0
 40
78.0
 40
78.0
 40
79.0
 40
79.0
 40
79.0
 40
80.0
 40
80.0
 40
80.0
 40
81.0
 40
81.0
 40
81.0
 40
82.0
 40
82.0
 40
82.0
 40
83.0
 40
83.0
 40
83.0
 40
84.0
 40
84.0
 40
84.0
 40
85.0
 40
85.0
 40
85.0
 40
86.0
 40
86.0
 40
86.0
 40
87.0
 40
87.0
 40
87.0
 40
88.0
 40
88.0
 40
88.0
 40
89.0
 40
89.0
 40
89.0
 40
90.0
 40
90.0
 40
90.0
 40
91.0
 40
91.0
 40
91.0
 40
92.0
 40
92.0
 40
92.0
 40
93.0
 40
93.0
 40
93.0
 40
94.0
 40
94.0
 40
94.0
 40
95.0
 40
95.0
 40
95.0
 40
96.0
 40
96.0
 40
96.0
 40
97.0
 40
97.0
 40
97.0
 40
98.0
 40
98.0
 40
98.0
 40
99.0
 40
99.0
 40
99.0
 40
100.0
 40
100.0
 40
100.0
 40
101.0
 40
101.0
 40
101.0
 40
101.0
 10
-0.1235224609375
 20
0.127017578125
 10
-0.12286865234375
 20
0.126921875
 10
-0.12224462890625
 20
0.126638671875
 10
-0.1215947265625
 20
0.126501953125
 10
-0.1193232421875
 20
0.12602587890625
 10
-0.117060546875
 20
0.1254755859375
 10
-0.11476708984375
 20
0.125138671875
 10
-0.11032177734375
 20
0.12448681640625
 10
-0.10584521484375
 20
0.1240458984375
 10
-0.10140576171875
 20
0.1233603515625
 10
-0.0958916015625
 20
0.1225087890625
 10
-0.09040234375
 20
0.12149951171875
 10
-0.08490234375
 20
0.120556640625
 10
-0.08319921875
 20
0.1202646484375
 10
-0.0816181640625
 20
0.1204638671875
 10
-0.0801201171875
 20
0.12144189453125
 10
-0.0787314453125
 20
0.12234912109375
 10
-0.07725439453125
 20
0.12312109375
 10
-0.07580078125
 20
0.12392626953125
 10
-0.07498828125
 20
0.12437451171875
 10
-0.07392529296875
 20
0.12481005859375
 10
-0.07426318359375
 20
0.12587939453125
 10
-0.07446484375
 20
0.12651513671875
 10
-0.07538037109375
 20
0.12693896484375
 10
-0.07600634765625
 20
0.12741748046875
 10
-0.076189453125
 20
0.1275576171875
 10
-0.07647998046875
 20
0.127560546875
 10
-0.07672265625
 20
0.12761962890625
 10
-0.0816474609375
 20
0.1288447265625
 10
-0.08655126953125
 20
0.13016552734375
 10
-0.09150537109375
 20
0.131263671875
 10
-0.09605419921875
 20
0.13227001953125
 10
-0.10064306640625
 20
0.1331201171875
 10
-0.105240234375
 20
0.13388671875
 10
-0.1106611328125
 20
0.1347900390625
 10
-0.11612158203125
 20
0.13545849609375
 10
-0.12154150390625
 20
0.1363671875
 10
-0.12472119140625
 20
0.13689990234375
 10
-0.12543310546875
 20
0.137978515625
 10
-0.12508935546875
 20
0.14120947265625
 10
-0.124841796875
 20
0.14352734375
 10
-0.12449072265625
 20
0.1458349609375
 10
-0.1241728515625
 20
0.14814501953125
 10
-0.12353662109375
 20
0.15276416015625
 10
-0.12305224609375
 20
0.15741064453125
 10
-0.1222080078125
 20
0.16199169921875
 10
-0.1211220703125
 20
0.16788623046875
 10
-0.11967431640625
 20
0.17371337890625
 10
-0.11853564453125
 20
0.17959912109375
 10
-0.118193359375
 20
0.1813662109375
 10
-0.11817333984375
 20
0.18325
 10
-0.1183486328125
 20
0.185046875
 10
-0.1185390625
 20
0.186990234375
 10
-0.1195302734375
 20
0.18774560546875
 10
-0.1214677734375
 20
0.18805029296875
 10
-0.126578125
 20
0.1888544921875
 10
-0.1304658203125
 20
0.18619677734375
 10
-0.131578125
 20
0.181134765625
 10
-0.131685546875
 20
0.180646484375
 10
-0.1317919921875
 20
0.18015625
 10
-0.1318544921875
 20
0.1796611328125
 10
-0.1323408203125
 20
0.1757880859375
 10
-0.13328564453125
 20
0.17195751953125
 10
-0.13287890625
 20
0.167998046875
 10
-0.13279541015625
 20
0.167185546875
 10
-0.13294921875
 20
0.16633544921875
 10
-0.13307763671875
 20
0.165515625
 10
-0.13424365234375
 20
0.15810205078125
 10
-0.13472119140625
 20
0.15063427734375
 10
-0.13484033203125
 20
0.14314111328125
 10
-0.13490283203125
 20
0.1392587890625
 10
-0.13614306640625
 20
0.137921875
 10
-0.13994287109375
 20
0.13811669921875
 10
-0.14385107421875
 20
0.1383154296875
 10
-0.14775146484375
 20
0.13867919921875
 10
-0.1516552734375
 20
0.13896728515625
 10
-0.15813330078125
 20
0.1394462890625
 10
-0.16460888671875
 20
0.139958984375
 10
-0.17108984375
 20
0.1403837890625
 10
-0.1745791015625
 20
0.1406123046875
 10
-0.1780830078125
 20
0.140609375
 10
-0.1815712890625
 20
0.1408515625
 10
-0.18502734375
 20
0.141091796875
 10
-0.18607373046875
 20
0.14240185546875
 10
-0.18585498046875
 20
0.14589111328125
 10
-0.18580810546875
 20
0.14663818359375
 10
-0.18566015625
 20
0.14737744140625
 10
-0.1855869140625
 20
0.148123046875
 10
-0.18525244140625
 20
0.151521484375
 10
-0.18494873046875
 20
0.15492138671875
 10
-0.1845908203125
 20
0.15831640625
 10
-0.1844599609375
 20
0.1595556640625
 10
-0.1842744140625
 20
0.16079541015625
 10
-0.18400244140625
 20
0.162009765625
 10
-0.18266845703125
 20
0.1679423828125
 10
-0.181294921875
 20
0.1738662109375
 10
-0.17994091796875
 20
0.1797939453125
 10
-0.17941455078125
 20
0.18210107421875
 10
-0.17934375
 20
0.184423828125
 10
-0.17986083984375
 20
0.186736328125
 10
-0.1805234375
 20
0.18970166015625
 10
-0.1829833984375
 20
0.1913564453125
 10
-0.1858408203125
 20
0.190470703125
 10
-0.18981689453125
 20
0.18923876953125
 10
-0.19317041015625
 20
0.1871904296875
 10
-0.19394921875
 20
0.18258203125
 10
-0.19453076171875
 20
0.17913525390625
 10
-0.1953388671875
 20
0.17571142578125
 10
-0.19567333984375
 20
0.1722412109375
 10
-0.19631201171875
 20
0.16561474609375
 10
-0.1966533203125
 20
0.15895947265625
 10
-0.19718798828125
 20
0.15232177734375
 10
-0.1973349609375
 20
0.1505029296875
 10
-0.19767626953125
 20
0.14869384765625
 10
-0.19802734375
 20
0.146900390625
 10
-0.19843408203125
 20
0.14481884765625
 10
-0.19972119140625
 20
0.14347216796875
 10
-0.20180615234375
 20
0.143041015625
 10
-0.20359375
 20
0.142671875
 10
-0.20540625
 20
0.14241015625
 10
-0.2072158203125
 20
0.14216162109375
 10
-0.20894677734375
 20
0.1419228515625
 10
-0.2107080078125
 20
0.1418701171875
 10
-0.21242041015625
 20
0.141544921875
 10
-0.2148828125
 20
0.141076171875
 10
-0.21632666015625
 20
0.1392734375
 10
-0.21625830078125
 20
0.1370224609375
 10
-0.21619384765625
 20
0.1349033203125
 10
-0.21501611328125
 20
0.1337626953125
 10
-0.2122314453125
 20
0.1334794921875
 10
-0.20949951171875
 20
0.1332021484375
 10
-0.20674658203125
 20
0.13314501953125
 10
-0.20400439453125
 20
0.132966796875
 10
-0.2006357421875
 20
0.13274755859375
 10
-0.19954638671875
 20
0.131583984375
 10
-0.19958349609375
 20
0.12827001953125
 10
-0.199591796875
 20
0.127521484375
 10
-0.1995888671875
 20
0.12676220703125
 10
-0.19970556640625
 20
0.1260263671875
 10
-0.20066552734375
 20
0.11992626953125
 10
-0.2009638671875
 20
0.11380419921875
 10
-0.20093017578125
 20
0.10762060546875
 10
-0.20086962890625
 20
0.09646533203125
 10
-0.20115087890625
 20
0.0853095703125
 10
-0.2012734375
 20
0.0741533203125
 10
-0.20128515625
 20
0.0730732421875
 10
-0.20118115234375
 20
0.0719921875
 10
-0.20113427734375
 20
0.0709111328125
 10
-0.20098486328125
 20
0.0674208984375
 10
-0.20088232421875
 20
0.0639287109375
 10
-0.20067041015625
 20
0.06044140625
 10
-0.200544921875
 20
0.058375
 10
-0.2003916015625
 20
0.056291015625
 10
-0.2000009765625
 20
0.0542626953125
 10
-0.19894580078125
 20
0.0487890625
 10
-0.19766064453125
 20
0.043357421875
 10
-0.19664892578125
 20
0.0378759765625
 10
-0.19560693359375
 20
0.0322265625
 10
-0.19477978515625
 20
0.0265380859375
 10
-0.1938583984375
 20
0.0208671875
 10
-0.1937490234375
 20
0.0208818359375
 10
-0.1936396484375
 20
0.020896484375
 10
-0.19352978515625
 20
0.0209111328125
 10
-0.19279345703125
 20
0.0153818359375
 10
-0.192201171875
 20
0.0098291015625
 10
-0.19127734375
 20
0.0043330078125
 10
-0.190451171875
 20
-0.0005830078125
 10
-0.18925927734375
 20
-0.0054375
 10
-0.1882275390625
 20
-0.0103173828125
 10
-0.18819287109375
 20
-0.0104794921875
 10
-0.18815185546875
 20
-0.010642578125
 10
-0.18809619140625
 20
-0.0107998046875
 10
-0.187705078125
 20
-0.0119150390625
 10
-0.18734228515625
 20
-0.0131025390625
 10
-0.18585498046875
 20
-0.0131044921875
 10
-0.184783203125
 20
-0.01310546875
 10
-0.184173828125
 20
-0.0121123046875
 10
-0.18406591796875
 20
-0.010224609375
 10
-0.18401953125
 20
-0.0093974609375
 10
-0.1841015625
 20
-0.0085625
 10
-0.18412451171875
 20
-0.0077314453125
 10
-0.184380859375
 20
0.0013642578125
 10
-0.18590185546875
 20
0.0103271484375
 10
-0.18726708984375
 20
0.0192841796875
 10
-0.18901611328125
 20
0.03075390625
 10
-0.1901259765625
 20
0.04224609375
 10
-0.19033837890625
 20
0.0538447265625
 10
-0.19045654296875
 20
0.0602529296875
 10
-0.19102734375
 20
0.0666533203125
 10
-0.19110498046875
 20
0.073060546875
 10
-0.19118310546875
 20
0.079533203125
 10
-0.1928310546875
 20
0.0859384765625
 10
-0.19188671875
 20
0.09244580078125
 10
-0.19186328125
 20
0.09260791015625
 10
-0.1919033203125
 20
0.09277783203125
 10
-0.19191259765625
 20
0.0929443359375
 10
-0.19214306640625
 20
0.097021484375
 10
-0.19226318359375
 20
0.1010859375
 10
-0.19165478515625
 20
0.10515576171875
 10
-0.1909775390625
 20
0.10968310546875
 10
-0.1905048828125
 20
0.1142412109375
 10
-0.18985302734375
 20
0.11877294921875
 10
-0.189390625
 20
0.121986328125
 10
-0.1888642578125
 20
0.12519677734375
 10
-0.188205078125
 20
0.12837548828125
 10
-0.1876474609375
 20
0.1310634765625
 10
-0.18644921875
 20
0.131978515625
 10
-0.18370654296875
 20
0.13219970703125
 10
-0.18304443359375
 20
0.13225390625
 10
-0.182373046875
 20
0.13225732421875
 10
-0.18170947265625
 20
0.1322236328125
 10
-0.1768837890625
 20
0.1319814453125
 10
-0.17205322265625
 20
0.13179931640625
 10
-0.1672373046875
 20
0.13143212890625
 10
-0.1654306640625
 20
0.13129443359375
 10
-0.163458984375
 20
0.1310869140625
 10
-0.1619140625
 20
0.13025732421875
 10
-0.1591650390625
 20
0.1287783203125
 10
-0.15635205078125
 20
0.12883349609375
 10
-0.1534248046875
 20
0.12884912109375
 10
-0.14909619140625
 20
0.12887060546875
 10
-0.1447607421875
 20
0.1288271484375
 10
-0.140439453125
 20
0.12859228515625
 10
-0.1370419921875
 20
0.128408203125
 10
-0.135830078125
 20
0.12696630859375
 10
-0.1357470703125
 20
0.12368603515625
 10
-0.1355888671875
 20
0.11745556640625
 10
-0.135427734375
 20
0.11122509765625
 10
-0.13525537109375
 20
0.104994140625
 10
-0.13508447265625
 20
0.09883935546875
 10
-0.13475634765625
 20
0.0927001953125
 10
-0.1342802734375
 20
0.0865556640625
 10
-0.1338310546875
 20
0.08075
 10
-0.13396875
 20
0.0749013671875
 10
-0.13275927734375
 20
0.069158203125
 10
-0.13260595703125
 20
0.0684326171875
 10
-0.13265625
 20
0.0676650390625
 10
-0.1325986328125
 20
0.0669169921875
 10
-0.132109375
 20
0.0605244140625
 10
-0.13182373046875
 20
0.054107421875
 10
-0.1310615234375
 20
0.047748046875
 10
-0.1304482421875
 20
0.0426318359375
 10
-0.1293017578125
 20
0.0375771484375
 10
-0.12830859375
 20
0.03251171875
 10
-0.1272509765625
 20
0.027119140625
 10
-0.126134765625
 20
0.02173828125
 10
-0.124970703125
 20
0.0163671875
 10
-0.12414111328125
 20
0.01254296875
 10
-0.1229541015625
 20
0.0087822265625
 10
-0.1223447265625
 20
0.0049267578125
 10
-0.1212666015625
 20
-0.00190234375
 10
-0.1188828125
 20
-0.008267578125
 10
-0.11610986328125
 20
-0.01452734375
 10
-0.115841796875
 20
-0.015130859375
 10
-0.1154853515625
 20
-0.0157080078125
 10
-0.11509375
 20
-0.0162412109375
 10
-0.114509765625
 20
-0.0170380859375
 10
-0.1137021484375
 20
-0.017474609375
 10
-0.1127021484375
 20
-0.017193359375
 10
-0.1116591796875
 20
-0.0168984375
 10
-0.1112724609375
 20
-0.016029296875
 10
-0.11133447265625
 20
-0.01505859375
 10
-0.111408203125
 20
-0.01390625
 10
-0.111609375
 20
-0.012751953125
 10
-0.1118583984375
 20
-0.011623046875
 10
-0.1127373046875
 20
-0.0076396484375
 10
-0.11370263671875
 20
-0.0036767578125
 10
-0.11455419921875
 20
0.0003134765625
 10
-0.115404296875
 20
0.004298828125
 10
-0.11592724609375
 20
0.0083681640625
 10
-0.11699951171875
 20
0.0122890625
 10
-0.11939111328125
 20
0.02104296875
 10
-0.12061669921875
 20
0.0298916015625
 10
-0.120125
 20
0.03896875
 10
-0.1200673828125
 20
0.0400400390625
 10
-0.12023876953125
 20
0.0411259765625
 10
-0.12033056640625
 20
0.0422041015625
 10
-0.12052099609375
 20
0.04444140625
 10
-0.120775390625
 20
0.04667578125
 10
-0.12091943359375
 20
0.04891796875
 10
-0.12124462890625
 20
0.053982421875
 10
-0.1211884765625
 20
0.059083984375
 10
-0.122693359375
 20
0.064017578125
 10
-0.1229794921875
 20
0.06495703125
 10
-0.12292529296875
 20
0.0659970703125
 10
-0.12304931640625
 20
0.06698828125
 10
-0.12354638671875
 20
0.070951171875
 10
-0.1240869140625
 20
0.0749091796875
 10
-0.12454345703125
 20
0.078876953125
 10
-0.12492431640625
 20
0.082181640625
 10
-0.12529541015625
 20
0.0854921875
 10
-0.12551416015625
 20
0.0888095703125
 10
-0.125716796875
 20
0.091880859375
 10
-0.12541015625
 20
0.0950107421875
 10
-0.12585791015625
 20
0.09803564453125
 10
-0.126986328125
 20
0.10565380859375
 10
-0.12700537109375
 20
0.11330908203125
 10
-0.12705810546875
 20
0.12096923828125
 10
-0.1270673828125
 20
0.1222919921875
 10
-0.12694677734375
 20
0.1236435546875
 10
-0.12666259765625
 20
0.12493408203125
 10
-0.126291015625
 20
0.12662060546875
 10
-0.12522314453125
 20
0.12726416015625
 10
-0.1235224609375
 20
0.127017578125
 97
        0
 75
     2
 76
     1
 98
        0
  0
SPLINE
  5
4E
330
3C
100
AcDbEntity
  8
Layer 1
370
     0
100
AcDbSpline
210
0.0
220
0.0
230
1.0
 70
    11
 71
     3
 72
   134
 73
   130
 74
     0
 42
0.0000000001
 43
0.0000000001
 40
0.0
 40
0.0
 40
0.0
 40
0.0
 40
1.0
 40
1.0
 40
1.0
 40
2.0
 40
2.0
 40
2.0
 40
3.0
 40
3.0
 40
3.0
 40
4.0
 40
4.0
 40
4.0
 40
5.0
 40
5.0
 40
5.0
 40
6.0
 40
6.0
 40
6.0
 40
7.0
 40
7.0
 40
7.0
 40
8.0
 40
8.0
 40
8.0
 40
9.0
 40
9.0
 40
9.0
 40
10.0
 40
10.0
 40
10.0
 40
11.0
 40
11.0
 40
11.0
 40
12.0
 40
12.0
 40
12.0
 40
13.0
 40
13.0
 40
13.0
 40
14.0
 40
14.0
 40
14.0
 40
15.0
 40
15.0
 40
15.0
 40
16.0
 40
16.0
 40
16.0
 40
17.0
 40
17.0
 40
17.0
 40
18.0
 40
18.0
 40
18.0
 40
19.0
 40
19.0
 40
19.0
 40
20.0
 40
20.0
 40
20.0
 40
21.0
 40
21.0
 40
21.0
 40
22.0
 40
22.0
 40
22.0
 40
23.0
 40
23.0
 40
23.0
 40
24.0
 40
24.0
 40
24.0
 40
25.0
 40
25.0
 40
25.0
 40
26.0
 40
26.0
 40
26.0
 40
27.0
 40
27.0
 40
27.0
 40
28.0
 40
28.0
 40
28.0
 40
29.0
 40
29.0
 40
29.0
 40
30.0
 40
30.0
 40
30.0
 40
31.0
 40
31.0
 40
31.0
 40
32.0
 40
32.0
 40
32.0
 40
33.0
 40
33.0
 40
33.0
 40
34.0
 40
34.0
 40
34.0
 40
35.0
 40
35.0
 40
35.0
 40
36.0
 40
36.0
 40
36.0
 40
37.0
 40
37.0
 40
37.0
 40
38.0
 40
38.0
 40
38.0
 40
39.0
 40
39.0
 40
39.0
 40
40.0
 40
40.0
 40
40.0
 40
41.0
 40
41.0
 40
41.0
 40
42.0
 40
42.0
 40
42.0
 40
43.0
 40
43.0
 40
43.0
 40
43.0
 10
-0.23008447265625
 20
0.1185361328125
 30
0.0
 10
-0.231845703125
 20
0.127435546875
 30
0.0
 10
-0.23329345703125
 20
0.13505224609375
 30
0.0
 10
-0.234875
 20
0.1426416015625
 30
0.0
 10
-0.23631298828125
 20
0.149546875
 30
0.0
 10
-0.23958154296875
 20
0.1556337890625
 30
0.0
 10
-0.2443564453125
 20
0.1608759765625
 30
0.0
 10
-0.24756982421875
 20
0.16440478515625
 30
0.0
 10
-0.25110693359375
 20
0.16765869140625
 30
0.0
 10
-0.254533203125
 20
0.17100146484375
 30
0.0
 10
-0.25648193359375
 20
0.1729013671875
 30
0.0
 10
-0.25884375
 20
0.1741416015625
 30
0.0
 10
-0.261490234375
 20
0.174966796875
 30
0.0
 10
-0.26613330078125
 20
0.1764130859375
 30
0.0
 10
-0.27071337890625
 20
0.17804833984375
 30
0.0
 10
-0.27537841796875
 20
0.179427734375
 30
0.0
 10
-0.2778896484375
 20
0.18017041015625
 30
0.0
 10
-0.28049462890625
 20
0.18073095703125
 30
0.0
 10
-0.28310302734375
 20
0.18105517578125
 30
0.0
 10
-0.29209814453125
 20
0.18217431640625
 30
0.0
 10
-0.300861328125
 20
0.1806240234375
 30
0.0
 10
-0.30952685546875
 20
0.17834033203125
 30
0.0
 10
-0.310435546875
 20
0.17810107421875
 30
0.0
 10
-0.31128955078125
 20
0.1775791015625
 30
0.0
 10
-0.3121025390625
 20
0.1770859375
 30
0.0
 10
-0.315037109375
 20
0.175302734375
 30
0.0
 10
-0.31797802734375
 20
0.17352587890625
 30
0.0
 10
-0.32084765625
 20
0.1716484375
 30
0.0
 10
-0.32311376953125
 20
0.1701669921875
 30
0.0
 10
-0.325427734375
 20
0.1687021484375
 30
0.0
 10
-0.32746044921875
 20
0.16694921875
 30
0.0
 10
-0.3336552734375
 20
0.16160400390625
 30
0.0
 10
-0.33969189453125
 20
0.15608984375
 30
0.0
 10
-0.3458603515625
 20
0.150716796875
 30
0.0
 10
-0.34768115234375
 20
0.14913037109375
 30
0.0
 10
-0.34923388671875
 20
0.1474091796875
 30
0.0
 10
-0.3504970703125
 20
0.145376953125
 30
0.0
 10
-0.35177978515625
 20
0.1433125
 30
0.0
 10
-0.35305859375
 20
0.14118798828125
 30
0.0
 10
-0.3547021484375
 20
0.13940087890625
 30
0.0
 10
-0.3585380859375
 20
0.1352275390625
 30
0.0
 10
-0.36145263671875
 20
0.130458984375
 30
0.0
 10
-0.3644248046875
 20
0.1257529296875
 30
0.0
 10
-0.36689453125
 20
0.12184033203125
 30
0.0
 10
-0.3688623046875
 20
0.11763330078125
 30
0.0
 10
-0.371001953125
 20
0.11353271484375
 30
0.0
 10
-0.3742451171875
 20
0.1073173828125
 30
0.0
 10
-0.37591650390625
 20
0.1007255859375
 30
0.0
 10
-0.37619482421875
 20
0.09379736328125
 30
0.0
 10
-0.376244140625
 20
0.09256591796875
 30
0.0
 10
-0.37654931640625
 20
0.09134130859375
 30
0.0
 10
-0.376734375
 20
0.0901142578125
 30
0.0
 10
-0.377103515625
 20
0.087662109375
 30
0.0
 10
-0.37757568359375
 20
0.085216796875
 30
0.0
 10
-0.377818359375
 20
0.08275390625
 30
0.0
 10
-0.37828369140625
 20
0.0780234375
 30
0.0
 10
-0.37796337890625
 20
0.0733232421875
 30
0.0
 10
-0.37751513671875
 20
0.068595703125
 30
0.0
 10
-0.37675439453125
 20
0.0605517578125
 30
0.0
 10
-0.37503369140625
 20
0.052837890625
 30
0.0
 10
-0.37105517578125
 20
0.045693359375
 30
0.0
 10
-0.37041357421875
 20
0.044541015625
 30
0.0
 10
-0.36999658203125
 20
0.0432734375
 30
0.0
 10
-0.36946923828125
 20
0.0420615234375
 30
0.0
 10
-0.36554150390625
 20
0.033033203125
 30
0.0
 10
-0.3604130859375
 20
0.0247099609375
 30
0.0
 10
-0.35419921875
 20
0.01698046875
 30
0.0
 10
-0.35158935546875
 20
0.0137333984375
 30
0.0
 10
-0.3488203125
 20
0.010673828125
 30
0.0
 10
-0.345703125
 20
0.0078828125
 30
0.0
 10
-0.34471484375
 20
0.0069970703125
 30
0.0
 10
-0.3438408203125
 20
0.0059580078125
 30
0.0
 10
-0.343076171875
 20
0.004880859375
 30
0.0
 10
-0.34118408203125
 20
0.002216796875
 30
0.0
 10
-0.338662109375
 20
0.0002509765625
 30
0.0
 10
-0.33596484375
 20
-0.001591796875
 30
0.0
 10
-0.3341484375
 20
-0.0028330078125
 30
0.0
 10
-0.33250927734375
 20
-0.0043173828125
 30
0.0
 10
-0.3308017578125
 20
-0.0057041015625
 30
0.0
 10
-0.3293349609375
 20
-0.006896484375
 30
0.0
 10
-0.3279287109375
 20
-0.0081640625
 30
0.0
 10
-0.3264033203125
 20
-0.00928125
 30
0.0
 10
-0.32565869140625
 20
-0.0098271484375
 30
0.0
 10
-0.3247373046875
 20
-0.010205078125
 30
0.0
 10
-0.3238369140625
 20
-0.010484375
 30
0.0
 10
-0.320634765625
 20
-0.0114716796875
 30
0.0
 10
-0.31741162109375
 20
-0.0123984375
 30
0.0
 10
-0.3141875
 20
-0.0133193359375
 30
0.0
 10
-0.31103466796875
 20
-0.014220703125
 30
0.0
 10
-0.3078427734375
 20
-0.015279296875
 30
0.0
 10
-0.304517578125
 20
-0.014798828125
 30
0.0
 10
-0.299826171875
 20
-0.0141201171875
 30
0.0
 10
-0.295228515625
 20
-0.0129794921875
 30
0.0
 10
-0.29086083984375
 20
-0.0110634765625
 30
0.0
 10
-0.28741796875
 20
-0.0095517578125
 30
0.0
 10
-0.2839052734375
 20
-0.0081865234375
 30
0.0
 10
-0.2804716796875
 20
-0.00665234375
 30
0.0
 10
-0.27873291015625
 20
-0.0058759765625
 30
0.0
 10
-0.276896484375
 20
-0.0051064453125
 30
0.0
 10
-0.27546142578125
 20
-0.003927734375
 30
0.0
 10
-0.2709208984375
 20
-0.0001943359375
 30
0.0
 10
-0.26640087890625
 20
0.0035849609375
 30
0.0
 10
-0.2621640625
 20
0.007630859375
 30
0.0
 10
-0.25914013671875
 20
0.0105166015625
 30
0.0
 10
-0.2564228515625
 20
0.0137451171875
 30
0.0
 10
-0.2538603515625
 20
0.01703125
 30
0.0
 10
-0.25076171875
 20
0.0210087890625
 30
0.0
 10
-0.24786474609375
 20
0.0251435546875
 30
0.0
 10
-0.24508984375
 20
0.0293369140625
 30
0.0
 10
-0.24375830078125
 20
0.0313505859375
 30
0.0
 10
-0.2428564453125
 20
0.0336376953125
 30
0.0
 10
-0.2418515625
 20
0.035837890625
 30
0.0
 10
-0.240880859375
 20
0.03796484375
 30
0.0
 10
-0.24030810546875
 20
0.040302734375
 30
0.0
 10
-0.2390712890625
 20
0.042263671875
 30
0.0
 10
-0.235255859375
 20
0.048306640625
 30
0.0
 10
-0.2336923828125
 20
0.055076171875
 30
0.0
 10
-0.23195458984375
 20
0.061765625
 30
0.0
 10
-0.23038671875
 20
0.0677998046875
 30
0.0
 10
-0.2298046875
 20
0.07400390625
 30
0.0
 10
-0.2292021484375
 20
0.0801875
 30
0.0
 10
-0.22892431640625
 20
0.083046875
 30
0.0
 10
-0.2283193359375
 20
0.0858994140625
 30
0.0
 10
-0.2282978515625
 20
0.0887548828125
 30
0.0
 10
-0.2282578125
 20
0.0937919921875
 30
0.0
 10
-0.22842138671875
 20
0.098837890625
 30
0.0
 10
-0.22874365234375
 20
0.10386279296875
 30
0.0
 10
-0.2290830078125
 20
0.10919677734375
 30
0.0
 10
-0.2297060546875
 20
0.11451123046875
 30
0.0
 10
-0.23008447265625
 20
0.1185361328125
 30
0.0
  0
HATCH
  5
4F
330
3C
100
AcDbEntity
  8
Layer 1
 62
     7
100
AcDbHatch
 10
0.0
 20
0.0
 30
0.0
210
0.0
220
0.0
230
1.0
  2
SOLID
 70
     1
 71
     0
 91
        1
 92
        1
 93
        1
 72
     4
 94
        3
 73
     0
 74
     1
 95
      134
 96
      130
 40
0.0
 40
0.0
 40
0.0
 40
0.0
 40
1.0
 40
1.0
 40
1.0
 40
2.0
 40
2.0
 40
2.0
 40
3.0
 40
3.0
 40
3.0
 40
4.0
 40
4.0
 40
4.0
 40
5.0
 40
5.0
 40
5.0
 40
6.0
 40
6.0
 40
6.0
 40
7.0
 40
7.0
 40
7.0
 40
8.0
 40
8.0
 40
8.0
 40
9.0
 40
9.0
 40
9.0
 40
10.0
 40
10.0
 40
10.0
 40
11.0
 40
11.0
 40
11.0
 40
12.0
 40
12.0
 40
12.0
 40
13.0
 40
13.0
 40
13.0
 40
14.0
 40
14.0
 40
14.0
 40
15.0
 40
15.0
 40
15.0
 40
16.0
 40
16.0
 40
16.0
 40
17.0
 40
17.0
 40
17.0
 40
18.0
 40
18.0
 40
18.0
 40
19.0
 40
19.0
 40
19.0
 40
20.0
 40
20.0
 40
20.0
 40
21.0
 40
21.0
 40
21.0
 40
22.0
 40
22.0
 40
22.0
 40
23.0
 40
23.0
 40
23.0
 40
24.0
 40
24.0
 40
24.0
 40
25.0
 40
25.0
 40
25.0
 40
26.0
 40
26.0
 40
26.0
 40
27.0
 40
27.0
 40
27.0
 40
28.0
 40
28.0
 40
28.0
 40
29.0
 40
29.0
 40
29.0
 40
30.0
 40
30.0
 40
30.0
 40
31.0
 40
31.0
 40
31.0
 40
32.0
 40
32.0
 40
32.0
 40
33.0
 40
33.0
 40
33.0
 40
34.0
 40
34.0
 40
34.0
 40
35.0
 40
35.0
 40
35.0
 40
36.0
 40
36.0
 40
36.0
 40
37.0
 40
37.0
 40
37.0
 40
38.0
 40
38.0
 40
38.0
 40
39.0
 40
39.0
 40
39.0
 40
40.0
 40
40.0
 40
40.0
 40
41.0
 40
41.0
 40
41.0
 40
42.0
 40
42.0
 40
42.0
 40
43.0
 40
43.0
 40
43.0
 40
43.0
 10
-0.23008447265625
 20
0.1185361328125
 10
-0.231845703125
 20
0.127435546875
 10
-0.23329345703125
 20
0.13505224609375
 10
-0.234875
 20
0.1426416015625
 10
-0.23631298828125
 20
0.149546875
 10
-0.23958154296875
 20
0.1556337890625
 10
-0.2443564453125
 20
0.1608759765625
 10
-0.24756982421875
 20
0.16440478515625
 10
-0.25110693359375
 20
0.16765869140625
 10
-0.254533203125
 20
0.17100146484375
 10
-0.25648193359375
 20
0.1729013671875
 10
-0.25884375
 20
0.1741416015625
 10
-0.261490234375
 20
0.174966796875
 10
-0.26613330078125
 20
0.1764130859375
 10
-0.27071337890625
 20
0.17804833984375
 10
-0.27537841796875
 20
0.179427734375
 10
-0.2778896484375
 20
0.18017041015625
 10
-0.28049462890625
 20
0.18073095703125
 10
-0.28310302734375
 20
0.18105517578125
 10
-0.29209814453125
 20
0.18217431640625
 10
-0.300861328125
 20
0.1806240234375
 10
-0.30952685546875
 20
0.17834033203125
 10
-0.310435546875
 20
0.17810107421875
 10
-0.31128955078125
 20
0.1775791015625
 10
-0.3121025390625
 20
0.1770859375
 10
-0.315037109375
 20
0.175302734375
 10
-0.31797802734375
 20
0.17352587890625
 10
-0.32084765625
 20
0.1716484375
 10
-0.32311376953125
 20
0.1701669921875
 10
-0.325427734375
 20
0.1687021484375
 10
-0.32746044921875
 20
0.16694921875
 10
-0.3336552734375
 20
0.16160400390625
 10
-0.33969189453125
 20
0.15608984375
 10
-0.3458603515625
 20
0.150716796875
 10
-0.34768115234375
 20
0.14913037109375
 10
-0.34923388671875
 20
0.1474091796875
 10
-0.3504970703125
 20
0.145376953125
 10
-0.35177978515625
 20
0.1433125
 10
-0.35305859375
 20
0.14118798828125
 10
-0.3547021484375
 20
0.13940087890625
 10
-0.3585380859375
 20
0.1352275390625
 10
-0.36145263671875
 20
0.130458984375
 10
-0.3644248046875
 20
0.1257529296875
 10
-0.36689453125
 20
0.12184033203125
 10
-0.3688623046875
 20
0.11763330078125
 10
-0.371001953125
 20
0.11353271484375
 10
-0.3742451171875
 20
0.1073173828125
 10
-0.37591650390625
 20
0.1007255859375
 10
-0.37619482421875
 20
0.09379736328125
 10
-0.376244140625
 20
0.09256591796875
 10
-0.37654931640625
 20
0.09134130859375
 10
-0.376734375
 20
0.0901142578125
 10
-0.377103515625
 20
0.087662109375
 10
-0.37757568359375
 20
0.085216796875
 10
-0.377818359375
 20
0.08275390625
 10
-0.37828369140625
 20
0.0780234375
 10
-0.37796337890625
 20
0.0733232421875
 10
-0.37751513671875
 20
0.068595703125
 10
-0.37675439453125
 20
0.0605517578125
 10
-0.37503369140625
 20
0.052837890625
 10
-0.37105517578125
 20
0.045693359375
 10
-0.37041357421875
 20
0.044541015625
 10
-0.36999658203125
 20
0.0432734375
 10
-0.36946923828125
 20
0.0420615234375
 10
-0.36554150390625
 20
0.033033203125
 10
-0.3604130859375
 20
0.0247099609375
 10
-0.35419921875
 20
0.01698046875
 10
-0.35158935546875
 20
0.0137333984375
 10
-0.3488203125
 20
0.010673828125
 10
-0.345703125
 20
0.0078828125
 10
-0.34471484375
 20
0.0069970703125
 10
-0.3438408203125
 20
0.0059580078125
 10
-0.343076171875
 20
0.004880859375
 10
-0.34118408203125
 20
0.002216796875
 10
-0.338662109375
 20
0.0002509765625
 10
-0.33596484375
 20
-0.001591796875
 10
-0.3341484375
 20
-0.0028330078125
 10
-0.33250927734375
 20
-0.0043173828125
 10
-0.3308017578125
 20
-0.0057041015625
 10
-0.3293349609375
 20
-0.006896484375
 10
-0.3279287109375
 20
-0.0081640625
 10
-0.3264033203125
 20
-0.00928125
 10
-0.32565869140625
 20
-0.0098271484375
 10
-0.3247373046875
 20
-0.010205078125
 10
-0.3238369140625
 20
-0.010484375
 10
-0.320634765625
 20
-0.0114716796875
 10
-0.31741162109375
 20
-0.0123984375
 10
-0.3141875
 20
-0.0133193359375
 10
-0.31103466796875
 20
-0.014220703125
 10
-0.3078427734375
 20
-0.015279296875
 10
-0.304517578125
 20
-0.014798828125
 10
-0.299826171875
 20
-0.0141201171875
 10
-0.295228515625
 20
-0.0129794921875
 10
-0.29086083984375
 20
-0.0110634765625
 10
-0.28741796875
 20
-0.0095517578125
 10
-0.2839052734375
 20
-0.0081865234375
 10
-0.2804716796875
 20
-0.00665234375
 10
-0.27873291015625
 20
-0.0058759765625
 10
-0.276896484375
 20
-0.0051064453125
 10
-0.27546142578125
 20
-0.003927734375
 10
-0.2709208984375
 20
-0.0001943359375
 10
-0.26640087890625
 20
0.0035849609375
 10
-0.2621640625
 20
0.007630859375
 10
-0.25914013671875
 20
0.0105166015625
 10
-0.2564228515625
 20
0.0137451171875
 10
-0.2538603515625
 20
0.01703125
 10
-0.25076171875
 20
0.0210087890625
 10
-0.24786474609375
 20
0.0251435546875
 10
-0.24508984375
 20
0.0293369140625
 10
-0.24375830078125
 20
0.0313505859375
 10
-0.2428564453125
 20
0.0336376953125
 10
-0.2418515625
 20
0.035837890625
 10
-0.240880859375
 20
0.03796484375
 10
-0.24030810546875
 20
0.040302734375
 10
-0.2390712890625
 20
0.042263671875
 10
-0.235255859375
 20
0.048306640625
 10
-0.2336923828125
 20
0.055076171875
 10
-0.23195458984375
 20
0.061765625
 10
-0.23038671875
 20
0.0677998046875
 10
-0.2298046875
 20
0.07400390625
 10
-0.2292021484375
 20
0.0801875
 10
-0.22892431640625
 20
0.083046875
 10
-0.2283193359375
 20
0.0858994140625
 10
-0.2282978515625
 20
0.0887548828125
 10
-0.2282578125
 20
0.0937919921875
 10
-0.22842138671875
 20
0.098837890625
 10
-0.22874365234375
 20
0.10386279296875
 10
-0.2290830078125
 20
0.10919677734375
 10
-0.2297060546875
 20
0.11451123046875
 10
-0.23008447265625
 20
0.1185361328125
 97
        0
 75
     2
 76
     1
 98
        0
  0
ENDBLK
  5
3F
330
3C
100
AcDbEntity
  8
0
100
AcDbBlockEnd
  0
ENDSEC
  0
SECTION
  2
ENTITIES
  0
INSERT
  5
3D
330
1F
100
AcDbEntity
  8
Layer 1
100
AcDbBlockReference
  2
block 2
 10
0.0
 20
0.0
 30
0.0
  0
ENDSEC
  0
SECTION
  2
OBJECTS
  0
DICTIONARY
  5
C
330
0
100
AcDbDictionary
281
     1
  3
ACAD_GROUP
350
D
  3
ACAD_LAYOUT
350
1A
  3
ACAD_MLINESTYLE
350
17
  3
ACAD_PLOTSETTINGS
350
19
  3
ACAD_PLOTSTYLENAME
350
E
  3
ACAD_TABLESTYLE
350
50
  3
ACAD_VISUALSTYLE
350
2A
  0
DICTIONARY
  5
D
102
{ACAD_REACTORS
330
C
102
}
330
C
100
AcDbDictionary
281
     1
  0
DICTIONARY
  5
1A
102
{ACAD_REACTORS
330
C
102
}
330
C
100
AcDbDictionary
281
     1
  3
Layout1
350
1E
  3
Layout2
350
26
  3
Model
350
22
  0
DICTIONARY
  5
17
102
{ACAD_REACTORS
330
C
102
}
330
C
100
AcDbDictionary
281
     1
  3
Standard
350
18
  0
DICTIONARY
  5
19
102
{ACAD_REACTORS
330
C
102
}
330
C
100
AcDbDictionary
281
     1
  0
ACDBDICTIONARYWDFLT
  5
E
102
{ACAD_REACTORS
330
C
102
}
330
C
100
AcDbDictionary
281
     1
  3
Normal
350
F
100
AcDbDictionaryWithDefault
340
F
  0
DICTIONARY
  5
50
102
{ACAD_REACTORS
330
C
102
}
330
C
100
AcDbDictionary
281
     1
  0
DICTIONARY
  5
2A
102
{ACAD_REACTORS
330
C
102
}
330
C
100
AcDbDictionary
281
     1
  3
2dWireframe
350
2F
  3
3D Hidden
350
31
  3
3dWireframe
350
30
  3
Basic
350
32
  3
Brighten
350
36
  3
ColorChange
350
3A
  3
Conceptual
350
34
  3
Dim
350
35
  3
Facepattern
350
39
  3
Flat
350
2B
  3
FlatWithEdges
350
2C
  3
Gouraud
350
2D
  3
GouraudWithEdges
350
2E
  3
Linepattern
350
38
  3
Realistic
350
33
  3
Thicken
350
37
  0
LAYOUT
  5
1E
102
{ACAD_REACTORS
330
1A
102
}
330
1A
100
AcDbPlotSettings
  1

  2
none_device
  4

  6

 40
0.0
 41
0.0
 42
0.0
 43
0.0
 44
0.0
 45
0.0
 46
0.0
 47
0.0
 48
0.0
 49
0.0
140
0.0
141
0.0
142
1.0
143
1.0
 70
   688
 72
     0
 73
     0
 74
     5
  7

 75
    16
147
1.0
148
0.0
149
0.0
100
AcDbLayout
  1
Layout1
 70
     1
 71
     1
 10
0.0
 20
0.0
 11
12.0
 21
9.0
 12
0.0
 22
0.0
 32
0.0
 14
1.000000000000000E+20
 24
1.000000000000000E+20
 34
1.000000000000000E+20
 15
-1.000000000000000E+20
 25
-1.000000000000000E+20
 35
-1.000000000000000E+20
146
0.0
 13
0.0
 23
0.0
 33
0.0
 16
1.0
 26
0.0
 36
0.0
 17
0.0
 27
1.0
 37
0.0
 76
     0
330
1B
  0
LAYOUT
  5
26
102
{ACAD_REACTORS
330
1A
102
}
330
1A
100
AcDbPlotSettings
  1

  2
none_device
  4

  6

 40
0.0
 41
0.0
 42
0.0
 43
0.0
 44
0.0
 45
0.0
 46
0.0
 47
0.0
 48
0.0
 49
0.0
140
0.0
141
0.0
142
1.0
143
1.0
 70
   688
 72
     0
 73
     0
 74
     5
  7

 75
    16
147
1.0
148
0.0
149
0.0
100
AcDbLayout
  1
Layout2
 70
     1
 71
     2
 10
0.0
 20
0.0
 11
0.0
 21
0.0
 12
0.0
 22
0.0
 32
0.0
 14
0.0
 24
0.0
 34
0.0
 15
0.0
 25
0.0
 35
0.0
146
0.0
 13
0.0
 23
0.0
 33
0.0
 16
1.0
 26
0.0
 36
0.0
 17
0.0
 27
1.0
 37
0.0
 76
     0
330
23
  0
LAYOUT
  5
22
102
{ACAD_REACTORS
330
1A
102
}
330
1A
100
AcDbPlotSettings
  1

  2
none_device
  4

  6

 40
0.0
 41
0.0
 42
0.0
 43
0.0
 44
0.0
 45
0.0
 46
0.0
 47
0.0
 48
0.0
 49
0.0
140
0.0
141
0.0
142
1.0
143
1.0
 70
  1712
 72
     0
 73
     0
 74
     0
  7

 75
     0
147
1.0
148
0.0
149
0.0
100
AcDbLayout
  1
Model
 70
     1
 71
     0
 10
0.0
 20
0.0
 11
12.0
 21
9.0
 12
0.0
 22
0.0
 32
0.0
 14
1.000000000000000E+20
 24
1.000000000000000E+20
 34
1.000000000000000E+20
 15
-1.000000000000000E+20
 25
-1.000000000000000E+20
 35
-1.000000000000000E+20
146
0.0
 13
0.0
 23
0.0
 33
0.0
 16
1.0
 26
0.0
 36
0.0
 17
0.0
 27
1.0
 37
0.0
 76
     0
330
1F
331
29
  0
MLINESTYLE
  5
18
102
{ACAD_REACTORS
330
17
102
}
330
17
100
AcDbMlineStyle
  2
Standard
 70
     0
  3

 62
   256
 51
90.0
 52
90.0
 71
     2
 49
0.5
 62
   256
  6
BYLAYER
 49
-0.5
 62
   256
  6
BYLAYER
  0
ACDBPLACEHOLDER
  5
F
102
{ACAD_REACTORS
330
E
102
}
330
E
  0
VISUALSTYLE
  5
2F
102
{ACAD_REACTORS
330
2A
102
}
330
2A
100
AcDbVisualStyle
  2
2dWireframe
 70
     4
 71
     0
 72
     2
 73
     0
 90
        0
 40
-0.6
 41
-30.0
 62
     5
 63
     7
 74
     1
 91
        4
 64
     7
 65
   257
 75
     1
175
     1
 42
1.0
 92
        0
 66
   257
 43
1.0
 76
     1
 77
     6
 78
     2
 67
     7
 79
     5
170
     0
171
     0
290
     0
174
     0
 93
        1
 44
0.0
173
     0
291
     0
 45
0.0
1001
ACAD
1000
AcDbSavedByObjectVersion
1070
     0
  0
VISUALSTYLE
  5
31
102
{ACAD_REACTORS
330
2A
102
}
330
2A
100
AcDbVisualStyle
  2
3D Hidden
 70
     6
 71
     1
 72
     2
 73
     2
 90
        0
 40
-0.6
 41
-30.0
 62
     5
 63
     7
 74
     2
 91
        2
 64
     7
 65
   257
 75
     2
175
     1
 42
40.0
 92
        0
 66
   257
 43
1.0
 76
     1
 77
     6
 78
     2
 67
     7
 79
     3
170
     0
171
     0
290
     0
174
     0
 93
        1
 44
0.0
173
     0
291
     0
 45
0.0
1001
ACAD
1000
AcDbSavedByObjectVersion
1070
     0
  0
VISUALSTYLE
  5
30
102
{ACAD_REACTORS
330
2A
102
}
330
2A
100
AcDbVisualStyle
  2
3dWireframe
 70
     5
 71
     0
 72
     2
 73
     0
 90
        0
 40
-0.6
 41
-30.0
 62
     5
 63
     7
 74
     1
 91
        4
 64
     7
 65
   257
 75
     1
175
     1
 42
1.0
 92
        0
 66
   257
 43
1.0
 76
     1
 77
     6
 78
     2
 67
     7
 79
     5
170
     0
171
     0
290
     0
174
     0
 93
        1
 44
0.0
173
     0
291
     0
 45
0.0
1001
ACAD
1000
AcDbSavedByObjectVersion
1070
     0
  0
VISUALSTYLE
  5
32
102
{ACAD_REACTORS
330
2A
102
}
330
2A
100
AcDbVisualStyle
  2
Basic
 70
     7
 71
     1
 72
     0
 73
     1
 90
        0
 40
-0.6
 41
-30.0
 62
     5
 63
     7
 74
     0
 91
        4
 64
     7
 65
   257
 75
     1
175
     1
 42
1.0
 92
        8
 66
     7
 43
1.0
 76
     1
 77
     6
 78
     2
 67
     7
 79
     5
170
     0
171
     0
290
     0
174
     0
 93
        1
 44
0.0
173
     0
291
     1
 45
0.0
1001
ACAD
1000
AcDbSavedByObjectVersion
1070
     0
  0
VISUALSTYLE
  5
36
102
{ACAD_REACTORS
330
2A
102
}
330
2A
100
AcDbVisualStyle
  2
Brighten
 70
    12
 71
     2
 72
     2
 73
     0
 90
        0
 40
-0.6
 41
-30.0
 62
     5
 63
     7
 74
     1
 91
        4
 64
     7
 65
   257
 75
     1
175
     1
 42
1.0
 92
        8
 66
     7
 43
1.0
 76
     1
 77
     6
 78
     2
 67
     7
 79
     5
170
     0
171
     0
290
     0
174
     0
 93
        1
 44
50.0
173
     0
291
     1
 45
0.0
1001
ACAD
1000
AcDbSavedByObjectVersion
1070
     0
  0
VISUALSTYLE
  5
3A
102
{ACAD_REACTORS
330
2A
102
}
330
2A
100
AcDbVisualStyle
  2
ColorChange
 70
    16
 71
     2
 72
     2
 73
     3
 90
        0
 40
-0.6
 41
-30.0
 62
     5
 63
     8
 74
     1
 91
        4
 64
     7
 65
   257
 75
     1
175
     1
 42
1.0
 92
        8
 66
     8
 43
1.0
 76
     1
 77
     6
 78
     2
 67
     7
 79
     5
170
     0
171
     0
290
     0
174
     0
 93
        1
 44
0.0
173
     0
291
     1
 45
0.0
1001
ACAD
1000
AcDbSavedByObjectVersion
1070
     0
  0
VISUALSTYLE
  5
34
102
{ACAD_REACTORS
330
2A
102
}
330
2A
100
AcDbVisualStyle
  2
Conceptual
 70
     9
 71
     3
 72
     2
 73
     0
 90
        0
 40
-0.6
 41
-30.0
 62
     5
 63
     7
 74
     2
 91
        2
 64
     7
 65
   257
 75
     1
175
     1
 42
40.0
 92
        8
 66
     7
 43
1.0
 76
     1
 77
     6
 78
     2
 67
     7
 79
     3
170
     0
171
     0
290
     0
174
     0
 93
        1
 44
0.0
173
     0
291
     0
 45
0.0
1001
ACAD
1000
AcDbSavedByObjectVersion
1070
     0
  0
VISUALSTYLE
  5
35
102
{ACAD_REACTORS
330
2A
102
}
330
2A
100
AcDbVisualStyle
  2
Dim
 70
    11
 71
     2
 72
     2
 73
     0
 90
        0
 40
-0.6
 41
-30.0
 62
     5
 63
     7
 74
     1
 91
        4
 64
     7
 65
   257
 75
     1
175
     1
 42
1.0
 92
        8
 66
     7
 43
1.0
 76
     1
 77
     6
 78
     2
 67
     7
 79
     5
170
     0
171
     0
290
     0
174
     0
 93
        1
 44
-50.0
173
     0
291
     1
 45
0.0
1001
ACAD
1000
AcDbSavedByObjectVersion
1070
     0
  0
VISUALSTYLE
  5
39
102
{ACAD_REACTORS
330
2A
102
}
330
2A
100
AcDbVisualStyle
  2
Facepattern
 70
    15
 71
     2
 72
     2
 73
     0
 90
        0
 40
-0.6
 41
-30.0
 62
     5
 63
     7
 74
     1
 91
        4
 64
     7
 65
   257
 75
     1
175
     1
 42
1.0
 92
        8
 66
     7
 43
1.0
 76
     1
 77
     6
 78
     2
 67
     7
 79
     5
170
     0
171
     0
290
     0
174
     0
 93
        1
 44
0.0
173
     0
291
     1
 45
0.0
1001
ACAD
1000
AcDbSavedByObjectVersion
1070
     0
  0
VISUALSTYLE
  5
2B
102
{ACAD_REACTORS
330
2A
102
}
330
2A
100
AcDbVisualStyle
  2
Flat
 70
     0
 71
     2
 72
     1
 73
     1
 90
        2
 40
-0.6
 41
30.0
 62
     5
 63
     7
 74
     0
 91
        4
 64
     7
 65
   257
 75
     1
175
     1
 42
1.0
 92
        8
 66
     7
 43
1.0
 76
     1
 77
     6
 78
     2
 67
     7
 79
     5
170
     0
171
     0
290
     0
174
     0
 93
       13
 44
0.0
173
     0
291
     1
 45
0.0
1001
ACAD
1000
AcDbSavedByObjectVersion
1070
     0
  0
VISUALSTYLE
  5
2C
102
{ACAD_REACTORS
330
2A
102
}
330
2A
100
AcDbVisualStyle
  2
FlatWithEdges
 70
     1
 71
     2
 72
     1
 73
     1
 90
        2
 40
-0.6
 41
30.0
 62
     5
 63
     7
 74
     1
 91
        4
 64
     7
 65
   257
 75
     1
175
     1
 42
1.0
 92
        0
 66
   257
 43
1.0
 76
     1
 77
     6
 78
     2
 67
     7
 79
     5
170
     0
171
     0
290
     0
174
     0
 93
       13
 44
0.0
173
     0
291
     1
 45
0.0
1001
ACAD
1000
AcDbSavedByObjectVersion
1070
     0
  0
VISUALSTYLE
  5
2D
102
{ACAD_REACTORS
330
2A
102
}
330
2A
100
AcDbVisualStyle
  2
Gouraud
 70
     2
 71
     2
 72
     2
 73
     1
 90
        2
 40
-0.6
 41
30.0
 62
     5
 63
     7
 74
     0
 91
        4
 64
     7
 65
   257
 75
     1
175
     1
 42
1.0
 92
        0
 66
     7
 43
1.0
 76
     1
 77
     6
 78
     2
 67
     7
 79
     5
170
     0
171
     0
290
     0
174
     0
 93
       13
 44
0.0
173
     0
291
     1
 45
0.0
1001
ACAD
1000
AcDbSavedByObjectVersion
1070
     0
  0
VISUALSTYLE
  5
2E
102
{ACAD_REACTORS
330
2A
102
}
330
2A
100
AcDbVisualStyle
  2
GouraudWithEdges
 70
     3
 71
     2
 72
     2
 73
     1
 90
        2
 40
-0.6
 41
30.0
 62
     5
 63
     7
 74
     1
 91
        4
 64
     7
 65
   257
 75
     1
175
     1
 42
1.0
 92
        0
 66
   257
 43
1.0
 76
     1
 77
     6
 78
     2
 67
     7
 79
     5
170
     0
171
     0
290
     0
174
     0
 93
       13
 44
0.0
173
     0
291
     1
 45
0.0
1001
ACAD
1000
AcDbSavedByObjectVersion
1070
     0
  0
VISUALSTYLE
  5
38
102
{ACAD_REACTORS
330
2A
102
}
330
2A
100
AcDbVisualStyle
  2
Linepattern
 70
    14
 71
     2
 72
     2
 73
     0
 90
        0
 40
-0.6
 41
-30.0
 62
     5
 63
     7
 74
     1
 91
        4
 64
     7
 65
   257
 75
     7
175
     7
 42
1.0
 92
        8
 66
     7
 43
1.0
 76
     1
 77
     6
 78
     2
 67
     7
 79
     5
170
     0
171
     0
290
     0
174
     0
 93
        1
 44
0.0
173
     0
291
     1
 45
0.0
1001
ACAD
1000
AcDbSavedByObjectVersion
1070
     0
  0
VISUALSTYLE
  5
33
102
{ACAD_REACTORS
330
2A
102
}
330
2A
100
AcDbVisualStyle
  2
Realistic
 70
     8
 71
     2
 72
     2
 73
     0
 90
        0
 40
-0.6
 41
-30.0
 62
     5
 63
     7
 74
     1
 91
        0
 64
     7
 65
   257
 75
     1
175
     1
 42
1.0
 92
        8
 66
     8
 43
1.0
 76
     1
 77
     6
 78
     2
 67
     7
 79
     5
170
     0
171
     0
290
     0
174
     0
 93
       13
 44
0.0
173
     0
291
     0
 45
0.0
1001
ACAD
1000
AcDbSavedByObjectVersion
1070
     0
  0
VISUALSTYLE
  5
37
102
{ACAD_REACTORS
330
2A
102
}
330
2A
100
AcDbVisualStyle
  2
Thicken
 70
    13
 71
     2
 72
     2
 73
     0
 90
        0
 40
-0.6
 41
-30.0
 62
     5
 63
     7
 74
     1
 91
        4
 64
     7
 65
   257
 75
     1
175
     1
 42
1.0
 92
       12
 66
     7
 43
1.0
 76
     1
 77
     6
 78
     2
 67
     7
 79
     5
170
     0
171
     0
290
     0
174
     0
 93
        1
 44
0.0
173
     0
291
     1
 45
0.0
1001
ACAD
1000
AcDbSavedByObjectVersion
1070
     0
  0
ENDSEC
  0
EOF
