G04 PROTEUS GERBER X2 FILE*
%TF.GenerationSoftware,Labcenter,Proteus,8.5-SP0-Build22067*%
%TF.CreationDate,2018-01-08T19:16:07+00:00*%
%TF.FileFunction,Soldermask,Top*%
%TF.FilePolarity,Negative*%
%TF.Part,Single*%
%FSLAX45Y45*%
%MOMM*%
G01*
%TA.AperFunction,Material*%
%ADD22C,1.016000*%
%ADD23C,2.454000*%
%ADD24C,1.778000*%
%AMPPAD017*
4,1,36,
0.762000,0.889000,
-0.762000,0.889000,
-0.787970,0.886470,
-0.811980,0.879200,
-0.833580,0.867650,
-0.852290,0.852290,
-0.867650,0.833570,
-0.879200,0.811980,
-0.886470,0.787970,
-0.889000,0.762000,
-0.889000,-0.762000,
-0.886470,-0.787970,
-0.879200,-0.811980,
-0.867650,-0.833570,
-0.852290,-0.852290,
-0.833580,-0.867650,
-0.811980,-0.879200,
-0.787970,-0.886470,
-0.762000,-0.889000,
0.762000,-0.889000,
0.787970,-0.886470,
0.811980,-0.879200,
0.833580,-0.867650,
0.852290,-0.852290,
0.867650,-0.833570,
0.879200,-0.811980,
0.886470,-0.787970,
0.889000,-0.762000,
0.889000,0.762000,
0.886470,0.787970,
0.879200,0.811980,
0.867650,0.833570,
0.852290,0.852290,
0.833580,0.867650,
0.811980,0.879200,
0.787970,0.886470,
0.762000,0.889000,
0*%
%ADD25PPAD017*%
%AMPPAD018*
4,1,36,
0.381000,-0.762000,
-0.381000,-0.762000,
-0.406970,-0.759470,
-0.430980,-0.752200,
-0.452580,-0.740650,
-0.471290,-0.725290,
-0.486650,-0.706570,
-0.498200,-0.684980,
-0.505470,-0.660970,
-0.508000,-0.635000,
-0.508000,0.635000,
-0.505470,0.660970,
-0.498200,0.684980,
-0.486650,0.706570,
-0.471290,0.725290,
-0.452580,0.740650,
-0.430980,0.752200,
-0.406970,0.759470,
-0.381000,0.762000,
0.381000,0.762000,
0.406970,0.759470,
0.430980,0.752200,
0.452580,0.740650,
0.471290,0.725290,
0.486650,0.706570,
0.498200,0.684980,
0.505470,0.660970,
0.508000,0.635000,
0.508000,-0.635000,
0.505470,-0.660970,
0.498200,-0.684980,
0.486650,-0.706570,
0.471290,-0.725290,
0.452580,-0.740650,
0.430980,-0.752200,
0.406970,-0.759470,
0.381000,-0.762000,
0*%
%ADD26PPAD018*%
%AMPPAD019*
4,1,36,
0.889000,0.508000,
0.889000,-0.508000,
0.886470,-0.533970,
0.879200,-0.557980,
0.867650,-0.579580,
0.852290,-0.598290,
0.833570,-0.613650,
0.811980,-0.625200,
0.787970,-0.632470,
0.762000,-0.635000,
-0.762000,-0.635000,
-0.787970,-0.632470,
-0.811980,-0.625200,
-0.833570,-0.613650,
-0.852290,-0.598290,
-0.867650,-0.579580,
-0.879200,-0.557980,
-0.886470,-0.533970,
-0.889000,-0.508000,
-0.889000,0.508000,
-0.886470,0.533970,
-0.879200,0.557980,
-0.867650,0.579580,
-0.852290,0.598290,
-0.833570,0.613650,
-0.811980,0.625200,
-0.787970,0.632470,
-0.762000,0.635000,
0.762000,0.635000,
0.787970,0.632470,
0.811980,0.625200,
0.833570,0.613650,
0.852290,0.598290,
0.867650,0.579580,
0.879200,0.557980,
0.886470,0.533970,
0.889000,0.508000,
0*%
%ADD27PPAD019*%
%AMPPAD020*
4,1,36,
-0.508000,0.889000,
0.508000,0.889000,
0.533970,0.886470,
0.557980,0.879200,
0.579580,0.867650,
0.598290,0.852290,
0.613650,0.833570,
0.625200,0.811980,
0.632470,0.787970,
0.635000,0.762000,
0.635000,-0.762000,
0.632470,-0.787970,
0.625200,-0.811980,
0.613650,-0.833570,
0.598290,-0.852290,
0.579580,-0.867650,
0.557980,-0.879200,
0.533970,-0.886470,
0.508000,-0.889000,
-0.508000,-0.889000,
-0.533970,-0.886470,
-0.557980,-0.879200,
-0.579580,-0.867650,
-0.598290,-0.852290,
-0.613650,-0.833570,
-0.625200,-0.811980,
-0.632470,-0.787970,
-0.635000,-0.762000,
-0.635000,0.762000,
-0.632470,0.787970,
-0.625200,0.811980,
-0.613650,0.833570,
-0.598290,0.852290,
-0.579580,0.867650,
-0.557980,0.879200,
-0.533970,0.886470,
-0.508000,0.889000,
0*%
%ADD28PPAD020*%
%AMPPAD021*
4,1,36,
0.381000,-0.698500,
-0.381000,-0.698500,
-0.406970,-0.695970,
-0.430980,-0.688700,
-0.452580,-0.677150,
-0.471290,-0.661790,
-0.486650,-0.643070,
-0.498200,-0.621480,
-0.505470,-0.597470,
-0.508000,-0.571500,
-0.508000,0.571500,
-0.505470,0.597470,
-0.498200,0.621480,
-0.486650,0.643070,
-0.471290,0.661790,
-0.452580,0.677150,
-0.430980,0.688700,
-0.406970,0.695970,
-0.381000,0.698500,
0.381000,0.698500,
0.406970,0.695970,
0.430980,0.688700,
0.452580,0.677150,
0.471290,0.661790,
0.486650,0.643070,
0.498200,0.621480,
0.505470,0.597470,
0.508000,0.571500,
0.508000,-0.571500,
0.505470,-0.597470,
0.498200,-0.621480,
0.486650,-0.643070,
0.471290,-0.661790,
0.452580,-0.677150,
0.430980,-0.688700,
0.406970,-0.695970,
0.381000,-0.698500,
0*%
%ADD29PPAD021*%
%AMPPAD022*
4,1,36,
-0.381000,0.736600,
0.381000,0.736600,
0.406970,0.734070,
0.430980,0.726800,
0.452580,0.715250,
0.471290,0.699890,
0.486650,0.681170,
0.498200,0.659580,
0.505470,0.635570,
0.508000,0.609600,
0.508000,-0.609600,
0.505470,-0.635570,
0.498200,-0.659580,
0.486650,-0.681170,
0.471290,-0.699890,
0.452580,-0.715250,
0.430980,-0.726800,
0.406970,-0.734070,
0.381000,-0.736600,
-0.381000,-0.736600,
-0.406970,-0.734070,
-0.430980,-0.726800,
-0.452580,-0.715250,
-0.471290,-0.699890,
-0.486650,-0.681170,
-0.498200,-0.659580,
-0.505470,-0.635570,
-0.508000,-0.609600,
-0.508000,0.609600,
-0.505470,0.635570,
-0.498200,0.659580,
-0.486650,0.681170,
-0.471290,0.699890,
-0.452580,0.715250,
-0.430980,0.726800,
-0.406970,0.734070,
-0.381000,0.736600,
0*%
%ADD72PPAD022*%
%TA.AperFunction,Profile*%
%ADD20C,0.203200*%
D22*
X+254000Y+5364480D03*
X+83820Y+1206500D03*
X+83820Y+1397000D03*
X+83820Y+1587500D03*
X+83820Y+3111500D03*
X+83820Y+2921000D03*
X+83820Y+2730500D03*
X+83820Y+3492500D03*
X+83820Y+3683000D03*
X+83820Y+3873500D03*
X+96520Y+2032000D03*
X+236071Y+4656417D03*
X+508000Y+5364480D03*
X+825500Y+5334000D03*
X+190500Y+5524500D03*
X+762000Y+3810000D03*
X+762000Y+3111500D03*
X+942410Y+2038326D03*
D23*
X+190500Y+9715500D03*
X+190500Y+190500D03*
D24*
X+381000Y+8128000D03*
X+635000Y+8128000D03*
X+381000Y+8382000D03*
X+635000Y+8382000D03*
X+381000Y+8636000D03*
X+635000Y+8636000D03*
X+381000Y+8890000D03*
X+635000Y+8890000D03*
X+381000Y+9144000D03*
X+635000Y+9144000D03*
X+381000Y+5715000D03*
X+635000Y+5715000D03*
X+381000Y+5969000D03*
X+635000Y+5969000D03*
X+381000Y+6223000D03*
X+635000Y+6223000D03*
X+381000Y+6477000D03*
X+635000Y+6477000D03*
X+381000Y+6731000D03*
X+635000Y+6731000D03*
X+381000Y+6985000D03*
X+635000Y+6985000D03*
X+381000Y+7239000D03*
X+635000Y+7239000D03*
X+381000Y+7493000D03*
X+635000Y+7493000D03*
D25*
X+762000Y+4826000D03*
D24*
X+508000Y+4826000D03*
X+254000Y+4826000D03*
D25*
X+762000Y+4064000D03*
D24*
X+508000Y+4064000D03*
X+254000Y+4064000D03*
D25*
X+762000Y+3302000D03*
D24*
X+508000Y+3302000D03*
X+254000Y+3302000D03*
D25*
X+762000Y+2540000D03*
D24*
X+508000Y+2540000D03*
X+254000Y+2540000D03*
D25*
X+762000Y+1778000D03*
D24*
X+508000Y+1778000D03*
X+254000Y+1778000D03*
D25*
X+762000Y+1016000D03*
D24*
X+508000Y+1016000D03*
X+254000Y+1016000D03*
D26*
X+297180Y+3492500D03*
X+83820Y+3492500D03*
X+297180Y+3683000D03*
X+83820Y+3683000D03*
X+297180Y+3873500D03*
X+83820Y+3873500D03*
X+297180Y+2730500D03*
X+83820Y+2730500D03*
X+297180Y+2921000D03*
X+83820Y+2921000D03*
X+297180Y+3111500D03*
X+83820Y+3111500D03*
X+297180Y+1206500D03*
X+83820Y+1206500D03*
X+297180Y+1397000D03*
X+83820Y+1397000D03*
X+297180Y+1587500D03*
X+83820Y+1587500D03*
D27*
X+254000Y+5364480D03*
X+254000Y+5049520D03*
X+508000Y+5364480D03*
X+508000Y+5049520D03*
D28*
X+96520Y+4572000D03*
X+411480Y+4572000D03*
X+96520Y+2032000D03*
X+411480Y+2032000D03*
X+96520Y+508000D03*
X+411480Y+508000D03*
X+96520Y+4318000D03*
X+411480Y+4318000D03*
X+96520Y+2286000D03*
X+411480Y+2286000D03*
X+96520Y+762000D03*
X+411480Y+762000D03*
X+604520Y+4318000D03*
X+919480Y+4318000D03*
X+604520Y+2286000D03*
X+919480Y+2286000D03*
X+604520Y+762000D03*
X+919480Y+762000D03*
D29*
X+678180Y+2730500D03*
X+464820Y+2730500D03*
D72*
X+464820Y+3683000D03*
X+678180Y+3683000D03*
X+464820Y+2921000D03*
X+678180Y+2921000D03*
X+464820Y+1397000D03*
X+678180Y+1397000D03*
D29*
X+678180Y+1206500D03*
X+464820Y+1206500D03*
X+678180Y+3492500D03*
X+464820Y+3492500D03*
D20*
X+0Y+0D02*
X+1016000Y+0D01*
X+1016000Y+9906000D01*
X+0Y+9906000D01*
X+0Y+0D01*
M02*
