G04 PROTEUS GERBER X2 FILE*
%TF.GenerationSoftware,Labcenter,Proteus,8.5-SP0-Build22067*%
%TF.CreationDate,2018-01-08T19:16:07+00:00*%
%TF.FileFunction,AssemblyDrawing,Top*%
%TF.FilePolarity,Positive*%
%TF.Part,Single*%
%FSLAX45Y45*%
%MOMM*%
G01*
%TA.AperFunction,Profile*%
%ADD20C,0.203200*%
%TA.AperFunction,Material*%
%ADD21C,0.203200*%
%ADD35C,0.085340*%
%ADD36C,0.091440*%
%ADD37C,0.098470*%
%ADD38C,0.078190*%
D20*
X+0Y+0D02*
X+1016000Y+0D01*
X+1016000Y+9906000D01*
X+0Y+9906000D01*
X+0Y+0D01*
D21*
X+45720Y+3423920D02*
X+335280Y+3423920D01*
X+335280Y+3566160D01*
X+45720Y+3566160D01*
X+45720Y+3423920D01*
D35*
X+173431Y+3477971D02*
X+164896Y+3469436D01*
X+139293Y+3469436D01*
X+122225Y+3486505D01*
X+122225Y+3503574D01*
X+139293Y+3520643D01*
X+164896Y+3520643D01*
X+173431Y+3512108D01*
X+207568Y+3503574D02*
X+224637Y+3520643D01*
X+224637Y+3469436D01*
D21*
X+45720Y+3614420D02*
X+335280Y+3614420D01*
X+335280Y+3756660D01*
X+45720Y+3756660D01*
X+45720Y+3614420D01*
D35*
X+173431Y+3668471D02*
X+164896Y+3659936D01*
X+139293Y+3659936D01*
X+122225Y+3677005D01*
X+122225Y+3694074D01*
X+139293Y+3711143D01*
X+164896Y+3711143D01*
X+173431Y+3702608D01*
X+199034Y+3702608D02*
X+207568Y+3711143D01*
X+233171Y+3711143D01*
X+241706Y+3702608D01*
X+241706Y+3694074D01*
X+233171Y+3685540D01*
X+207568Y+3685540D01*
X+199034Y+3677005D01*
X+199034Y+3659936D01*
X+241706Y+3659936D01*
D21*
X+45720Y+3804920D02*
X+335280Y+3804920D01*
X+335280Y+3947160D01*
X+45720Y+3947160D01*
X+45720Y+3804920D01*
D35*
X+173431Y+3858971D02*
X+164896Y+3850436D01*
X+139293Y+3850436D01*
X+122225Y+3867505D01*
X+122225Y+3884574D01*
X+139293Y+3901643D01*
X+164896Y+3901643D01*
X+173431Y+3893108D01*
X+199034Y+3893108D02*
X+207568Y+3901643D01*
X+233171Y+3901643D01*
X+241706Y+3893108D01*
X+241706Y+3884574D01*
X+233171Y+3876040D01*
X+241706Y+3867505D01*
X+241706Y+3858971D01*
X+233171Y+3850436D01*
X+207568Y+3850436D01*
X+199034Y+3858971D01*
X+216103Y+3876040D02*
X+233171Y+3876040D01*
D21*
X+45720Y+2661920D02*
X+335280Y+2661920D01*
X+335280Y+2804160D01*
X+45720Y+2804160D01*
X+45720Y+2661920D01*
D35*
X+173431Y+2715971D02*
X+164896Y+2707436D01*
X+139293Y+2707436D01*
X+122225Y+2724505D01*
X+122225Y+2741574D01*
X+139293Y+2758643D01*
X+164896Y+2758643D01*
X+173431Y+2750108D01*
X+241706Y+2724505D02*
X+190500Y+2724505D01*
X+224637Y+2758643D01*
X+224637Y+2707436D01*
D21*
X+45720Y+2852420D02*
X+335280Y+2852420D01*
X+335280Y+2994660D01*
X+45720Y+2994660D01*
X+45720Y+2852420D01*
D35*
X+173431Y+2906471D02*
X+164896Y+2897936D01*
X+139293Y+2897936D01*
X+122225Y+2915005D01*
X+122225Y+2932074D01*
X+139293Y+2949143D01*
X+164896Y+2949143D01*
X+173431Y+2940608D01*
X+241706Y+2949143D02*
X+199034Y+2949143D01*
X+199034Y+2932074D01*
X+233171Y+2932074D01*
X+241706Y+2923540D01*
X+241706Y+2906471D01*
X+233171Y+2897936D01*
X+207568Y+2897936D01*
X+199034Y+2906471D01*
D21*
X+45720Y+3042920D02*
X+335280Y+3042920D01*
X+335280Y+3185160D01*
X+45720Y+3185160D01*
X+45720Y+3042920D01*
D35*
X+173431Y+3096971D02*
X+164896Y+3088436D01*
X+139293Y+3088436D01*
X+122225Y+3105505D01*
X+122225Y+3122574D01*
X+139293Y+3139643D01*
X+164896Y+3139643D01*
X+173431Y+3131108D01*
X+241706Y+3131108D02*
X+233171Y+3139643D01*
X+207568Y+3139643D01*
X+199034Y+3131108D01*
X+199034Y+3096971D01*
X+207568Y+3088436D01*
X+233171Y+3088436D01*
X+241706Y+3096971D01*
X+241706Y+3105505D01*
X+233171Y+3114040D01*
X+199034Y+3114040D01*
D21*
X+45720Y+1137920D02*
X+335280Y+1137920D01*
X+335280Y+1280160D01*
X+45720Y+1280160D01*
X+45720Y+1137920D01*
D35*
X+173431Y+1191971D02*
X+164896Y+1183436D01*
X+139293Y+1183436D01*
X+122225Y+1200505D01*
X+122225Y+1217574D01*
X+139293Y+1234643D01*
X+164896Y+1234643D01*
X+173431Y+1226108D01*
X+199034Y+1234643D02*
X+241706Y+1234643D01*
X+241706Y+1226108D01*
X+199034Y+1183436D01*
D21*
X+45720Y+1328420D02*
X+335280Y+1328420D01*
X+335280Y+1470660D01*
X+45720Y+1470660D01*
X+45720Y+1328420D01*
D35*
X+173431Y+1382471D02*
X+164896Y+1373936D01*
X+139293Y+1373936D01*
X+122225Y+1391005D01*
X+122225Y+1408074D01*
X+139293Y+1425143D01*
X+164896Y+1425143D01*
X+173431Y+1416608D01*
X+207568Y+1399540D02*
X+199034Y+1408074D01*
X+199034Y+1416608D01*
X+207568Y+1425143D01*
X+233171Y+1425143D01*
X+241706Y+1416608D01*
X+241706Y+1408074D01*
X+233171Y+1399540D01*
X+207568Y+1399540D01*
X+199034Y+1391005D01*
X+199034Y+1382471D01*
X+207568Y+1373936D01*
X+233171Y+1373936D01*
X+241706Y+1382471D01*
X+241706Y+1391005D01*
X+233171Y+1399540D01*
D21*
X+45720Y+1518920D02*
X+335280Y+1518920D01*
X+335280Y+1661160D01*
X+45720Y+1661160D01*
X+45720Y+1518920D01*
D35*
X+173431Y+1572971D02*
X+164896Y+1564436D01*
X+139293Y+1564436D01*
X+122225Y+1581505D01*
X+122225Y+1598574D01*
X+139293Y+1615643D01*
X+164896Y+1615643D01*
X+173431Y+1607108D01*
X+241706Y+1598574D02*
X+233171Y+1590040D01*
X+207568Y+1590040D01*
X+199034Y+1598574D01*
X+199034Y+1607108D01*
X+207568Y+1615643D01*
X+233171Y+1615643D01*
X+241706Y+1607108D01*
X+241706Y+1572971D01*
X+233171Y+1564436D01*
X+207568Y+1564436D01*
D21*
X+177800Y+4966840D02*
X+330200Y+4966840D01*
X+330200Y+5415280D01*
X+177800Y+5415280D01*
X+177800Y+4966840D01*
D36*
X+281432Y+5117908D02*
X+226568Y+5117908D01*
X+226568Y+5154484D01*
X+244856Y+5172772D01*
X+263144Y+5172772D01*
X+281432Y+5154484D01*
X+281432Y+5117908D01*
X+244856Y+5209348D02*
X+226568Y+5227636D01*
X+281432Y+5227636D01*
D21*
X+431800Y+4966840D02*
X+584200Y+4966840D01*
X+584200Y+5415280D01*
X+431800Y+5415280D01*
X+431800Y+4966840D01*
D36*
X+535432Y+5117908D02*
X+480568Y+5117908D01*
X+480568Y+5154484D01*
X+498856Y+5172772D01*
X+517144Y+5172772D01*
X+535432Y+5154484D01*
X+535432Y+5117908D01*
X+489712Y+5200204D02*
X+480568Y+5209348D01*
X+480568Y+5236780D01*
X+489712Y+5245924D01*
X+498856Y+5245924D01*
X+508000Y+5236780D01*
X+508000Y+5209348D01*
X+517144Y+5200204D01*
X+535432Y+5200204D01*
X+535432Y+5245924D01*
D21*
X+45720Y+4495800D02*
X+494160Y+4495800D01*
X+494160Y+4648200D01*
X+45720Y+4648200D01*
X+45720Y+4495800D01*
D36*
X+196788Y+4544568D02*
X+196788Y+4599432D01*
X+233364Y+4599432D01*
X+251652Y+4581144D01*
X+251652Y+4562856D01*
X+233364Y+4544568D01*
X+196788Y+4544568D01*
X+279084Y+4590288D02*
X+288228Y+4599432D01*
X+315660Y+4599432D01*
X+324804Y+4590288D01*
X+324804Y+4581144D01*
X+315660Y+4572000D01*
X+324804Y+4562856D01*
X+324804Y+4553712D01*
X+315660Y+4544568D01*
X+288228Y+4544568D01*
X+279084Y+4553712D01*
X+297372Y+4572000D02*
X+315660Y+4572000D01*
D21*
X+45720Y+1955800D02*
X+494160Y+1955800D01*
X+494160Y+2108200D01*
X+45720Y+2108200D01*
X+45720Y+1955800D01*
D36*
X+196788Y+2004568D02*
X+196788Y+2059432D01*
X+233364Y+2059432D01*
X+251652Y+2041144D01*
X+251652Y+2022856D01*
X+233364Y+2004568D01*
X+196788Y+2004568D01*
X+324804Y+2022856D02*
X+269940Y+2022856D01*
X+306516Y+2059432D01*
X+306516Y+2004568D01*
D21*
X+45720Y+431800D02*
X+494160Y+431800D01*
X+494160Y+584200D01*
X+45720Y+584200D01*
X+45720Y+431800D01*
D36*
X+196788Y+480568D02*
X+196788Y+535432D01*
X+233364Y+535432D01*
X+251652Y+517144D01*
X+251652Y+498856D01*
X+233364Y+480568D01*
X+196788Y+480568D01*
X+324804Y+535432D02*
X+279084Y+535432D01*
X+279084Y+517144D01*
X+315660Y+517144D01*
X+324804Y+508000D01*
X+324804Y+489712D01*
X+315660Y+480568D01*
X+288228Y+480568D01*
X+279084Y+489712D01*
D21*
X+45720Y+4235940D02*
X+462280Y+4235940D01*
X+462280Y+4400060D01*
X+45720Y+4400060D01*
X+45720Y+4235940D01*
D37*
X+175223Y+4347541D02*
X+175223Y+4288458D01*
X+234305Y+4288458D01*
X+273694Y+4327847D02*
X+293388Y+4347541D01*
X+293388Y+4288458D01*
D21*
X+45720Y+2203940D02*
X+462280Y+2203940D01*
X+462280Y+2368060D01*
X+45720Y+2368060D01*
X+45720Y+2203940D01*
D37*
X+175223Y+2315541D02*
X+175223Y+2256458D01*
X+234305Y+2256458D01*
X+263847Y+2305694D02*
X+273694Y+2315541D01*
X+303235Y+2315541D01*
X+313082Y+2305694D01*
X+313082Y+2295847D01*
X+303235Y+2286000D01*
X+273694Y+2286000D01*
X+263847Y+2276152D01*
X+263847Y+2256458D01*
X+313082Y+2256458D01*
D21*
X+45720Y+679940D02*
X+462280Y+679940D01*
X+462280Y+844060D01*
X+45720Y+844060D01*
X+45720Y+679940D01*
D37*
X+175223Y+791541D02*
X+175223Y+732458D01*
X+234305Y+732458D01*
X+263847Y+781694D02*
X+273694Y+791541D01*
X+303235Y+791541D01*
X+313082Y+781694D01*
X+313082Y+771847D01*
X+303235Y+762000D01*
X+313082Y+752152D01*
X+313082Y+742305D01*
X+303235Y+732458D01*
X+273694Y+732458D01*
X+263847Y+742305D01*
X+283541Y+762000D02*
X+303235Y+762000D01*
D21*
X+553720Y+4235940D02*
X+970280Y+4235940D01*
X+970280Y+4400060D01*
X+553720Y+4400060D01*
X+553720Y+4235940D01*
D37*
X+683223Y+4288458D02*
X+683223Y+4347541D01*
X+742305Y+4347541D01*
X+683223Y+4318000D02*
X+722611Y+4318000D01*
X+781694Y+4327847D02*
X+801388Y+4347541D01*
X+801388Y+4288458D01*
D21*
X+553720Y+2203940D02*
X+970280Y+2203940D01*
X+970280Y+2368060D01*
X+553720Y+2368060D01*
X+553720Y+2203940D01*
D37*
X+683223Y+2256458D02*
X+683223Y+2315541D01*
X+742305Y+2315541D01*
X+683223Y+2286000D02*
X+722611Y+2286000D01*
X+771847Y+2305694D02*
X+781694Y+2315541D01*
X+811235Y+2315541D01*
X+821082Y+2305694D01*
X+821082Y+2295847D01*
X+811235Y+2286000D01*
X+781694Y+2286000D01*
X+771847Y+2276152D01*
X+771847Y+2256458D01*
X+821082Y+2256458D01*
D21*
X+553720Y+679940D02*
X+970280Y+679940D01*
X+970280Y+844060D01*
X+553720Y+844060D01*
X+553720Y+679940D01*
D37*
X+683223Y+732458D02*
X+683223Y+791541D01*
X+742305Y+791541D01*
X+683223Y+762000D02*
X+722611Y+762000D01*
X+771847Y+781694D02*
X+781694Y+791541D01*
X+811235Y+791541D01*
X+821082Y+781694D01*
X+821082Y+771847D01*
X+811235Y+762000D01*
X+821082Y+752152D01*
X+821082Y+742305D01*
X+811235Y+732458D01*
X+781694Y+732458D01*
X+771847Y+742305D01*
X+791541Y+762000D02*
X+811235Y+762000D01*
D21*
X+426720Y+2661920D02*
X+716280Y+2661920D01*
X+716280Y+2804160D01*
X+426720Y+2804160D01*
X+426720Y+2661920D01*
D35*
X+503225Y+2707436D02*
X+503225Y+2758643D01*
X+545896Y+2758643D01*
X+554431Y+2750108D01*
X+554431Y+2741574D01*
X+545896Y+2733040D01*
X+503225Y+2733040D01*
X+545896Y+2733040D02*
X+554431Y+2724505D01*
X+554431Y+2707436D01*
X+580034Y+2750108D02*
X+588568Y+2758643D01*
X+614171Y+2758643D01*
X+622706Y+2750108D01*
X+622706Y+2741574D01*
X+614171Y+2733040D01*
X+588568Y+2733040D01*
X+580034Y+2724505D01*
X+580034Y+2707436D01*
X+622706Y+2707436D01*
D21*
X+426720Y+3617840D02*
X+761660Y+3617840D01*
X+761660Y+3748160D01*
X+426720Y+3748160D01*
X+426720Y+3617840D01*
D38*
X+531637Y+3659542D02*
X+531637Y+3706457D01*
X+562913Y+3706457D01*
X+578551Y+3690819D01*
X+578551Y+3675180D01*
X+562913Y+3659542D01*
X+531637Y+3659542D01*
X+641104Y+3698638D02*
X+633285Y+3706457D01*
X+609828Y+3706457D01*
X+602009Y+3698638D01*
X+602009Y+3667361D01*
X+609828Y+3659542D01*
X+633285Y+3659542D01*
X+641104Y+3667361D01*
X+641104Y+3675180D01*
X+633285Y+3683000D01*
X+602009Y+3683000D01*
D21*
X+426720Y+2855840D02*
X+761660Y+2855840D01*
X+761660Y+2986160D01*
X+426720Y+2986160D01*
X+426720Y+2855840D01*
D38*
X+531637Y+2897542D02*
X+531637Y+2944457D01*
X+562913Y+2944457D01*
X+578551Y+2928819D01*
X+578551Y+2913180D01*
X+562913Y+2897542D01*
X+531637Y+2897542D01*
X+602009Y+2944457D02*
X+641104Y+2944457D01*
X+641104Y+2936638D01*
X+602009Y+2897542D01*
D21*
X+426720Y+1331840D02*
X+761660Y+1331840D01*
X+761660Y+1462160D01*
X+426720Y+1462160D01*
X+426720Y+1331840D01*
D38*
X+531637Y+1373542D02*
X+531637Y+1420457D01*
X+562913Y+1420457D01*
X+578551Y+1404819D01*
X+578551Y+1389180D01*
X+562913Y+1373542D01*
X+531637Y+1373542D01*
X+609828Y+1397000D02*
X+602009Y+1404819D01*
X+602009Y+1412638D01*
X+609828Y+1420457D01*
X+633285Y+1420457D01*
X+641104Y+1412638D01*
X+641104Y+1404819D01*
X+633285Y+1397000D01*
X+609828Y+1397000D01*
X+602009Y+1389180D01*
X+602009Y+1381361D01*
X+609828Y+1373542D01*
X+633285Y+1373542D01*
X+641104Y+1381361D01*
X+641104Y+1389180D01*
X+633285Y+1397000D01*
D21*
X+426720Y+1137920D02*
X+716280Y+1137920D01*
X+716280Y+1280160D01*
X+426720Y+1280160D01*
X+426720Y+1137920D01*
D35*
X+503225Y+1183436D02*
X+503225Y+1234643D01*
X+545896Y+1234643D01*
X+554431Y+1226108D01*
X+554431Y+1217574D01*
X+545896Y+1209040D01*
X+503225Y+1209040D01*
X+545896Y+1209040D02*
X+554431Y+1200505D01*
X+554431Y+1183436D01*
X+580034Y+1226108D02*
X+588568Y+1234643D01*
X+614171Y+1234643D01*
X+622706Y+1226108D01*
X+622706Y+1217574D01*
X+614171Y+1209040D01*
X+622706Y+1200505D01*
X+622706Y+1191971D01*
X+614171Y+1183436D01*
X+588568Y+1183436D01*
X+580034Y+1191971D01*
X+597103Y+1209040D02*
X+614171Y+1209040D01*
D21*
X+426720Y+3423920D02*
X+716280Y+3423920D01*
X+716280Y+3566160D01*
X+426720Y+3566160D01*
X+426720Y+3423920D01*
D35*
X+503225Y+3469436D02*
X+503225Y+3520643D01*
X+545896Y+3520643D01*
X+554431Y+3512108D01*
X+554431Y+3503574D01*
X+545896Y+3495040D01*
X+503225Y+3495040D01*
X+545896Y+3495040D02*
X+554431Y+3486505D01*
X+554431Y+3469436D01*
X+588568Y+3503574D02*
X+605637Y+3520643D01*
X+605637Y+3469436D01*
M02*
