G04 PROTEUS GERBER X2 FILE*
%TF.GenerationSoftware,Labcenter,Proteus,8.5-SP0-Build22067*%
%TF.CreationDate,2018-01-08T19:16:07+00:00*%
%TF.FileFunction,Legend,Bot*%
%TF.FilePolarity,Positive*%
%TF.Part,Single*%
%FSLAX45Y45*%
%MOMM*%
G01*
%TA.AperFunction,Profile*%
%ADD20C,0.203200*%
%TA.AperFunction,Material*%
%ADD21C,0.203200*%
G36*
X+127000Y+8890000D02*
X+254000Y+8890000D01*
X+254000Y+9271000D01*
X+762000Y+9271000D01*
X+762000Y+8001000D01*
X+254000Y+8001000D01*
X+254000Y+8382000D01*
X+127000Y+8382000D01*
X+127000Y+7874000D01*
X+889000Y+7874000D01*
X+889000Y+9398000D01*
X+127000Y+9398000D01*
X+127000Y+8890000D01*
G37*
G36*
X+127000Y+6858000D02*
X+254000Y+6858000D01*
X+254000Y+7620000D01*
X+762000Y+7620000D01*
X+762000Y+5588000D01*
X+254000Y+5588000D01*
X+254000Y+6350000D01*
X+127000Y+6350000D01*
X+127000Y+5461000D01*
X+889000Y+5461000D01*
X+889000Y+7747000D01*
X+127000Y+7747000D01*
X+127000Y+6858000D01*
G37*
G36*
X+0Y+8064500D02*
X+0Y+8191500D01*
X+114299Y+8191500D01*
X+114299Y+8064500D01*
X+0Y+8064500D01*
G37*
G36*
X+901700Y+8064500D02*
X+901700Y+8191500D01*
X+1015999Y+8191500D01*
X+1015999Y+8064500D01*
X+901700Y+8064500D01*
G37*
G36*
X+0Y+5651500D02*
X+0Y+5778500D01*
X+114299Y+5778500D01*
X+114299Y+5651500D01*
X+0Y+5651500D01*
G37*
G36*
X+901700Y+5651500D02*
X+901700Y+5778500D01*
X+1015999Y+5778500D01*
X+1015999Y+5651500D01*
X+901700Y+5651500D01*
G37*
G36*
X+1016000Y+254000D02*
X+1016000Y+381000D01*
X+889000Y+381000D01*
X+1016000Y+254000D01*
G37*
G36*
X+1016000Y+127000D02*
X+762000Y+381000D01*
X+635000Y+381000D01*
X+1016000Y+0D01*
X+1016000Y+127000D01*
G37*
G36*
X+889000Y+0D02*
X+508000Y+381000D01*
X+381000Y+381000D01*
X+762000Y+0D01*
X+889000Y+0D01*
G37*
G36*
X+0Y+127000D02*
X+0Y+0D01*
X+127000Y+0D01*
X+0Y+127000D01*
G37*
G36*
X+0Y+254000D02*
X+254000Y+0D01*
X+381000Y+0D01*
X+0Y+381000D01*
X+0Y+254000D01*
G37*
G36*
X+127000Y+381000D02*
X+508000Y+0D01*
X+635000Y+0D01*
X+254000Y+381000D01*
X+127000Y+381000D01*
G37*
G36*
X+1016000Y+9779000D02*
X+1016000Y+9906000D01*
X+889000Y+9906000D01*
X+1016000Y+9779000D01*
G37*
G36*
X+1016000Y+9652000D02*
X+762000Y+9906000D01*
X+635000Y+9906000D01*
X+1016000Y+9525000D01*
X+1016000Y+9652000D01*
G37*
G36*
X+889000Y+9525000D02*
X+508000Y+9906000D01*
X+381000Y+9906000D01*
X+762000Y+9525000D01*
X+889000Y+9525000D01*
G37*
G36*
X+0Y+9652000D02*
X+0Y+9525000D01*
X+127000Y+9525000D01*
X+0Y+9652000D01*
G37*
G36*
X+0Y+9779000D02*
X+254000Y+9525000D01*
X+381000Y+9525000D01*
X+0Y+9906000D01*
X+0Y+9779000D01*
G37*
G36*
X+127000Y+9906000D02*
X+508000Y+9525000D01*
X+635000Y+9525000D01*
X+254000Y+9906000D01*
X+127000Y+9906000D01*
G37*
D20*
X+0Y+0D02*
X+1016000Y+0D01*
X+1016000Y+9906000D01*
X+0Y+9906000D01*
X+0Y+0D01*
D21*
X+127000Y+8890000D02*
X+254000Y+8890000D01*
X+254000Y+9271000D01*
X+762000Y+9271000D01*
X+762000Y+8001000D01*
X+254000Y+8001000D01*
X+254000Y+8382000D01*
X+127000Y+8382000D01*
X+127000Y+7874000D01*
X+889000Y+7874000D01*
X+889000Y+9398000D01*
X+127000Y+9398000D01*
X+127000Y+8890000D01*
X+972820Y+9372600D02*
X+982980Y+9372600D01*
X+993140Y+9359900D01*
X+993140Y+9309100D01*
X+982980Y+9296400D01*
X+932180Y+9296400D01*
X+962660Y+9245600D02*
X+952500Y+9258300D01*
X+942340Y+9258300D01*
X+932180Y+9245600D01*
X+932180Y+9207500D01*
X+942340Y+9194800D01*
X+952500Y+9194800D01*
X+962660Y+9207500D01*
X+962660Y+9245600D01*
X+972820Y+9258300D01*
X+982980Y+9258300D01*
X+993140Y+9245600D01*
X+993140Y+9207500D01*
X+982980Y+9194800D01*
X+972820Y+9194800D01*
X+962660Y+9207500D01*
X+127000Y+6858000D02*
X+254000Y+6858000D01*
X+254000Y+7620000D01*
X+762000Y+7620000D01*
X+762000Y+5588000D01*
X+254000Y+5588000D01*
X+254000Y+6350000D01*
X+127000Y+6350000D01*
X+127000Y+5461000D01*
X+889000Y+5461000D01*
X+889000Y+7747000D01*
X+127000Y+7747000D01*
X+127000Y+6858000D01*
X+963903Y+7721600D02*
X+974063Y+7721600D01*
X+984223Y+7708900D01*
X+984223Y+7658100D01*
X+974063Y+7645400D01*
X+923263Y+7645400D01*
X+923263Y+7607300D02*
X+923263Y+7543800D01*
X+933423Y+7543800D01*
X+984223Y+7607300D01*
X+127000Y+4699000D02*
X+889000Y+4699000D01*
X+889000Y+4953000D01*
X+127000Y+4953000D01*
X+127000Y+4699000D01*
X+960120Y+4927600D02*
X+970280Y+4927600D01*
X+980440Y+4914900D01*
X+980440Y+4864100D01*
X+970280Y+4851400D01*
X+919480Y+4851400D01*
X+939800Y+4800600D02*
X+919480Y+4775200D01*
X+980440Y+4775200D01*
X+127000Y+3937000D02*
X+889000Y+3937000D01*
X+889000Y+4191000D01*
X+127000Y+4191000D01*
X+127000Y+3937000D01*
X+960120Y+4165600D02*
X+970280Y+4165600D01*
X+980440Y+4152900D01*
X+980440Y+4102100D01*
X+970280Y+4089400D01*
X+919480Y+4089400D01*
X+929640Y+4051300D02*
X+919480Y+4038600D01*
X+919480Y+4000500D01*
X+929640Y+3987800D01*
X+939800Y+3987800D01*
X+949960Y+4000500D01*
X+949960Y+4038600D01*
X+960120Y+4051300D01*
X+980440Y+4051300D01*
X+980440Y+3987800D01*
X+127000Y+3175000D02*
X+889000Y+3175000D01*
X+889000Y+3429000D01*
X+127000Y+3429000D01*
X+127000Y+3175000D01*
X+956356Y+3403600D02*
X+966516Y+3403600D01*
X+976676Y+3390900D01*
X+976676Y+3340100D01*
X+966516Y+3327400D01*
X+915716Y+3327400D01*
X+925876Y+3289300D02*
X+915716Y+3276600D01*
X+915716Y+3238500D01*
X+925876Y+3225800D01*
X+936036Y+3225800D01*
X+946196Y+3238500D01*
X+956356Y+3225800D01*
X+966516Y+3225800D01*
X+976676Y+3238500D01*
X+976676Y+3276600D01*
X+966516Y+3289300D01*
X+946196Y+3263900D02*
X+946196Y+3238500D01*
X+127000Y+2413000D02*
X+889000Y+2413000D01*
X+889000Y+2667000D01*
X+127000Y+2667000D01*
X+127000Y+2413000D01*
X+960120Y+2641600D02*
X+970280Y+2641600D01*
X+980440Y+2628900D01*
X+980440Y+2578100D01*
X+970280Y+2565400D01*
X+919480Y+2565400D01*
X+960120Y+2463800D02*
X+960120Y+2540000D01*
X+919480Y+2489200D01*
X+980440Y+2489200D01*
X+127000Y+1651000D02*
X+889000Y+1651000D01*
X+889000Y+1905000D01*
X+127000Y+1905000D01*
X+127000Y+1651000D01*
X+960120Y+1879600D02*
X+970280Y+1879600D01*
X+980440Y+1866900D01*
X+980440Y+1816100D01*
X+970280Y+1803400D01*
X+919480Y+1803400D01*
X+919480Y+1701800D02*
X+919480Y+1765300D01*
X+939800Y+1765300D01*
X+939800Y+1714500D01*
X+949960Y+1701800D01*
X+970280Y+1701800D01*
X+980440Y+1714500D01*
X+980440Y+1752600D01*
X+970280Y+1765300D01*
X+127000Y+889000D02*
X+889000Y+889000D01*
X+889000Y+1143000D01*
X+127000Y+1143000D01*
X+127000Y+889000D01*
X+960120Y+1117600D02*
X+970280Y+1117600D01*
X+980440Y+1104900D01*
X+980440Y+1054100D01*
X+970280Y+1041400D01*
X+919480Y+1041400D01*
X+929640Y+939800D02*
X+919480Y+952500D01*
X+919480Y+990600D01*
X+929640Y+1003300D01*
X+970280Y+1003300D01*
X+980440Y+990600D01*
X+980440Y+952500D01*
X+970280Y+939800D01*
X+960120Y+939800D01*
X+949960Y+952500D01*
X+949960Y+1003300D01*
X+812800Y+5118100D02*
X+762000Y+5118100D01*
X+762000Y+5067300D01*
X+863600Y+5067300D01*
X+914400Y+5118100D01*
X+914400Y+5168900D01*
X+863600Y+5219700D01*
X+787400Y+5219700D01*
X+762000Y+5194300D01*
X+711200Y+5067300D02*
X+711200Y+5168900D01*
X+660400Y+5219700D01*
X+609600Y+5219700D01*
X+558800Y+5168900D01*
X+558800Y+5067300D01*
X+711200Y+5118100D02*
X+558800Y+5118100D01*
X+508000Y+5219700D02*
X+355600Y+5219700D01*
X+431800Y+5219700D02*
X+431800Y+5067300D01*
X+152400Y+5067300D02*
X+304800Y+5067300D01*
X+304800Y+5219700D01*
X+152400Y+5219700D01*
X+304800Y+5143500D02*
X+203200Y+5143500D01*
X+558800Y+4330700D02*
X+584200Y+4305300D01*
X+660400Y+4305300D01*
X+711200Y+4356100D01*
X+711200Y+4406900D01*
X+660400Y+4457700D01*
X+584200Y+4457700D01*
X+558800Y+4432300D01*
X+508000Y+4457700D02*
X+508000Y+4381500D01*
X+431800Y+4305300D01*
X+355600Y+4381500D01*
X+355600Y+4457700D01*
X+812800Y+3619500D02*
X+660400Y+3619500D01*
X+736600Y+3670300D02*
X+736600Y+3568700D01*
X+457200Y+3695700D02*
X+584200Y+3695700D01*
X+584200Y+3644900D01*
X+482600Y+3644900D01*
X+457200Y+3619500D01*
X+457200Y+3568700D01*
X+482600Y+3543300D01*
X+558800Y+3543300D01*
X+584200Y+3568700D01*
X+406400Y+3695700D02*
X+406400Y+3619500D01*
X+330200Y+3543300D01*
X+254000Y+3619500D01*
X+254000Y+3695700D01*
X+914400Y+2857500D02*
X+762000Y+2857500D01*
X+838200Y+2908300D02*
X+838200Y+2806700D01*
X+660400Y+2882900D02*
X+609600Y+2933700D01*
X+609600Y+2781300D01*
X+482600Y+2908300D02*
X+457200Y+2933700D01*
X+381000Y+2933700D01*
X+355600Y+2908300D01*
X+355600Y+2882900D01*
X+381000Y+2857500D01*
X+457200Y+2857500D01*
X+482600Y+2832100D01*
X+482600Y+2781300D01*
X+355600Y+2781300D01*
X+304800Y+2933700D02*
X+304800Y+2857500D01*
X+228600Y+2781300D01*
X+152400Y+2857500D01*
X+152400Y+2933700D01*
X+711200Y+2070100D02*
X+660400Y+2070100D01*
X+660400Y+2019300D01*
X+762000Y+2019300D01*
X+812800Y+2070100D01*
X+812800Y+2120900D01*
X+762000Y+2171700D01*
X+685800Y+2171700D01*
X+660400Y+2146300D01*
X+609600Y+2019300D02*
X+609600Y+2171700D01*
X+457200Y+2019300D01*
X+457200Y+2171700D01*
X+406400Y+2019300D02*
X+406400Y+2171700D01*
X+304800Y+2171700D01*
X+254000Y+2120900D01*
X+254000Y+2070100D01*
X+304800Y+2019300D01*
X+406400Y+2019300D01*
X+889000Y+1333500D02*
X+762000Y+1333500D01*
X+660400Y+1358900D02*
X+609600Y+1409700D01*
X+609600Y+1257300D01*
X+482600Y+1384300D02*
X+457200Y+1409700D01*
X+381000Y+1409700D01*
X+355600Y+1384300D01*
X+355600Y+1358900D01*
X+381000Y+1333500D01*
X+457200Y+1333500D01*
X+482600Y+1308100D01*
X+482600Y+1257300D01*
X+355600Y+1257300D01*
X+304800Y+1409700D02*
X+304800Y+1333500D01*
X+228600Y+1257300D01*
X+152400Y+1333500D01*
X+152400Y+1409700D01*
X+876300Y+431800D02*
X+952500Y+431800D01*
X+952500Y+508000D01*
X+876300Y+508000D01*
X+952500Y+469900D02*
X+901700Y+469900D01*
X+774700Y+431800D02*
X+850900Y+431800D01*
X+850900Y+508000D01*
X+774700Y+508000D01*
X+850900Y+469900D02*
X+800100Y+469900D01*
X+711200Y+482600D02*
X+711200Y+469900D01*
X+711200Y+444500D02*
X+711200Y+431800D01*
X+546100Y+444500D02*
X+533400Y+431800D01*
X+482600Y+431800D01*
X+469900Y+444500D01*
X+469900Y+457200D01*
X+482600Y+469900D01*
X+533400Y+469900D01*
X+546100Y+482600D01*
X+546100Y+495300D01*
X+533400Y+508000D01*
X+482600Y+508000D01*
X+469900Y+495300D01*
X+444500Y+508000D02*
X+444500Y+444500D01*
X+431800Y+431800D01*
X+381000Y+431800D01*
X+368300Y+444500D01*
X+368300Y+508000D01*
X+342900Y+508000D02*
X+342900Y+431800D01*
X+266700Y+508000D02*
X+304800Y+469900D01*
X+266700Y+431800D01*
X+342900Y+469900D02*
X+304800Y+469900D01*
X+241300Y+508000D02*
X+241300Y+444500D01*
X+228600Y+431800D01*
X+177800Y+431800D01*
X+165100Y+444500D01*
X+165100Y+508000D01*
X+939800Y+800100D02*
X+889000Y+800100D01*
X+914400Y+800100D02*
X+914400Y+723900D01*
X+939800Y+723900D02*
X+889000Y+723900D01*
X+850900Y+723900D02*
X+850900Y+800100D01*
X+774700Y+723900D01*
X+774700Y+800100D01*
X+749300Y+800100D02*
X+673100Y+800100D01*
X+711200Y+800100D02*
X+711200Y+723900D01*
X+571500Y+723900D02*
X+647700Y+723900D01*
X+647700Y+800100D01*
X+571500Y+800100D01*
X+647700Y+762000D02*
X+596900Y+762000D01*
X+469900Y+736600D02*
X+482600Y+723900D01*
X+520700Y+723900D01*
X+546100Y+749300D01*
X+546100Y+774700D01*
X+520700Y+800100D01*
X+482600Y+800100D01*
X+469900Y+787400D01*
X+444500Y+723900D02*
X+444500Y+800100D01*
X+368300Y+800100D02*
X+368300Y+723900D01*
X+444500Y+762000D02*
X+368300Y+762000D01*
X+952500Y+609600D02*
X+939800Y+596900D01*
X+889000Y+596900D01*
X+876300Y+609600D01*
X+876300Y+622300D01*
X+889000Y+635000D01*
X+939800Y+635000D01*
X+952500Y+647700D01*
X+952500Y+660400D01*
X+939800Y+673100D01*
X+889000Y+673100D01*
X+876300Y+660400D01*
X+850900Y+673100D02*
X+774700Y+673100D01*
X+812800Y+673100D02*
X+812800Y+596900D01*
X+749300Y+673100D02*
X+749300Y+609600D01*
X+736600Y+596900D01*
X+685800Y+596900D01*
X+673100Y+609600D01*
X+673100Y+673100D01*
X+647700Y+596900D02*
X+647700Y+673100D01*
X+596900Y+673100D01*
X+571500Y+647700D01*
X+571500Y+622300D01*
X+596900Y+596900D01*
X+647700Y+596900D01*
X+533400Y+673100D02*
X+482600Y+673100D01*
X+508000Y+673100D02*
X+508000Y+596900D01*
X+533400Y+596900D02*
X+482600Y+596900D01*
X+444500Y+647700D02*
X+419100Y+673100D01*
X+393700Y+673100D01*
X+368300Y+647700D01*
X+368300Y+622300D01*
X+393700Y+596900D01*
X+419100Y+596900D01*
X+444500Y+622300D01*
X+444500Y+647700D01*
M02*
