G04 PROTEUS GERBER X2 FILE*
%TF.GenerationSoftware,Labcenter,Proteus,8.5-SP0-Build22067*%
%TF.CreationDate,2018-01-08T19:16:07+00:00*%
%TF.FileFunction,Copper,L1,Top*%
%TF.FilePolarity,Positive*%
%TF.Part,Single*%
%FSLAX45Y45*%
%MOMM*%
G01*
%TA.AperFunction,Conductor*%
%ADD10C,0.508000*%
%ADD11C,0.635000*%
%TA.AperFunction,ViaPad*%
%ADD12C,0.762000*%
%TA.AperFunction,Conductor*%
%ADD13C,0.254000*%
%TA.AperFunction,ComponentPad*%
%ADD14C,2.200000*%
%ADD15C,1.524000*%
%ADD16R,1.524000X1.524000*%
%TA.AperFunction,SMDPad,CuDef*%
%ADD17R,0.762000X1.270000*%
%ADD18R,1.524000X1.016000*%
%ADD19R,1.016000X1.524000*%
%ADD70R,0.762000X1.143000*%
%ADD71R,0.762000X1.219200*%
%TA.AperFunction,Profile*%
%ADD20C,0.203200*%
G36*
X+977900Y+7012842D02*
X+923193Y+7067549D01*
X+732055Y+7067549D01*
X+687605Y+7111999D01*
X+582395Y+7111999D01*
X+508001Y+7037605D01*
X+508001Y+6932395D01*
X+582395Y+6858001D01*
X+687605Y+6858001D01*
X+732055Y+6902451D01*
X+854807Y+6902451D01*
X+866168Y+6891090D01*
X+866168Y+6743574D01*
X+796193Y+6813549D01*
X+732055Y+6813549D01*
X+687605Y+6857999D01*
X+582395Y+6857999D01*
X+508001Y+6783605D01*
X+508001Y+6678395D01*
X+582395Y+6604001D01*
X+687605Y+6604001D01*
X+729931Y+6646327D01*
X+742951Y+6633307D01*
X+742951Y+6548653D01*
X+687605Y+6603999D01*
X+582395Y+6603999D01*
X+508001Y+6529605D01*
X+508001Y+6424395D01*
X+582395Y+6350001D01*
X+687605Y+6350001D01*
X+742951Y+6405347D01*
X+742951Y+6294653D01*
X+687605Y+6349999D01*
X+582395Y+6349999D01*
X+508001Y+6275605D01*
X+508001Y+6170395D01*
X+582395Y+6096001D01*
X+687605Y+6096001D01*
X+742951Y+6151347D01*
X+742951Y+6040653D01*
X+687605Y+6095999D01*
X+582395Y+6095999D01*
X+508001Y+6021605D01*
X+508001Y+5916395D01*
X+582395Y+5842001D01*
X+687605Y+5842001D01*
X+742951Y+5897347D01*
X+742951Y+5786653D01*
X+687605Y+5841999D01*
X+582395Y+5841999D01*
X+508001Y+5767605D01*
X+508001Y+5662395D01*
X+569697Y+5600699D01*
X+446303Y+5600699D01*
X+507999Y+5662395D01*
X+507999Y+5767605D01*
X+433605Y+5841999D01*
X+328395Y+5841999D01*
X+254001Y+5767605D01*
X+254001Y+5662395D01*
X+315697Y+5600699D01*
X+240023Y+5600699D01*
X+227323Y+5613399D01*
X+153677Y+5613399D01*
X+139699Y+5599421D01*
X+139699Y+7397937D01*
X+158563Y+7416801D01*
X+277595Y+7416801D01*
X+328395Y+7366001D01*
X+433605Y+7366001D01*
X+507999Y+7440395D01*
X+507999Y+7545605D01*
X+433605Y+7619999D01*
X+328395Y+7619999D01*
X+277595Y+7569199D01*
X+95437Y+7569199D01*
X+38100Y+7511862D01*
X+38100Y+9867900D01*
X+977900Y+9867900D01*
X+977900Y+7012842D01*
G37*
%LPC*%
G36*
X+65100Y+9663558D02*
X+65100Y+9767442D01*
X+138558Y+9840900D01*
X+242442Y+9840900D01*
X+315900Y+9767442D01*
X+315900Y+9663558D01*
X+242442Y+9590100D01*
X+138558Y+9590100D01*
X+65100Y+9663558D01*
G37*
G36*
X+507999Y+8180605D02*
X+507999Y+8075395D01*
X+433605Y+8001001D01*
X+328395Y+8001001D01*
X+254001Y+8075395D01*
X+254001Y+8180605D01*
X+328395Y+8254999D01*
X+433605Y+8254999D01*
X+507999Y+8180605D01*
G37*
G36*
X+761999Y+8180605D02*
X+761999Y+8075395D01*
X+687605Y+8001001D01*
X+582395Y+8001001D01*
X+508001Y+8075395D01*
X+508001Y+8180605D01*
X+582395Y+8254999D01*
X+687605Y+8254999D01*
X+761999Y+8180605D01*
G37*
G36*
X+507999Y+8434605D02*
X+507999Y+8329395D01*
X+433605Y+8255001D01*
X+328395Y+8255001D01*
X+254001Y+8329395D01*
X+254001Y+8434605D01*
X+328395Y+8508999D01*
X+433605Y+8508999D01*
X+507999Y+8434605D01*
G37*
G36*
X+761999Y+8434605D02*
X+761999Y+8329395D01*
X+687605Y+8255001D01*
X+582395Y+8255001D01*
X+508001Y+8329395D01*
X+508001Y+8434605D01*
X+582395Y+8508999D01*
X+687605Y+8508999D01*
X+761999Y+8434605D01*
G37*
G36*
X+507999Y+8688605D02*
X+507999Y+8583395D01*
X+433605Y+8509001D01*
X+328395Y+8509001D01*
X+254001Y+8583395D01*
X+254001Y+8688605D01*
X+328395Y+8762999D01*
X+433605Y+8762999D01*
X+507999Y+8688605D01*
G37*
G36*
X+761999Y+8688605D02*
X+761999Y+8583395D01*
X+687605Y+8509001D01*
X+582395Y+8509001D01*
X+508001Y+8583395D01*
X+508001Y+8688605D01*
X+582395Y+8762999D01*
X+687605Y+8762999D01*
X+761999Y+8688605D01*
G37*
G36*
X+507999Y+8942605D02*
X+507999Y+8837395D01*
X+433605Y+8763001D01*
X+328395Y+8763001D01*
X+254001Y+8837395D01*
X+254001Y+8942605D01*
X+328395Y+9016999D01*
X+433605Y+9016999D01*
X+507999Y+8942605D01*
G37*
G36*
X+761999Y+8942605D02*
X+761999Y+8837395D01*
X+687605Y+8763001D01*
X+582395Y+8763001D01*
X+508001Y+8837395D01*
X+508001Y+8942605D01*
X+582395Y+9016999D01*
X+687605Y+9016999D01*
X+761999Y+8942605D01*
G37*
G36*
X+507999Y+9196605D02*
X+507999Y+9091395D01*
X+433605Y+9017001D01*
X+328395Y+9017001D01*
X+254001Y+9091395D01*
X+254001Y+9196605D01*
X+328395Y+9270999D01*
X+433605Y+9270999D01*
X+507999Y+9196605D01*
G37*
G36*
X+761999Y+9196605D02*
X+761999Y+9091395D01*
X+687605Y+9017001D01*
X+582395Y+9017001D01*
X+508001Y+9091395D01*
X+508001Y+9196605D01*
X+582395Y+9270999D01*
X+687605Y+9270999D01*
X+761999Y+9196605D01*
G37*
G36*
X+507999Y+6021605D02*
X+507999Y+5916395D01*
X+433605Y+5842001D01*
X+328395Y+5842001D01*
X+254001Y+5916395D01*
X+254001Y+6021605D01*
X+328395Y+6095999D01*
X+433605Y+6095999D01*
X+507999Y+6021605D01*
G37*
G36*
X+507999Y+6275605D02*
X+507999Y+6170395D01*
X+433605Y+6096001D01*
X+328395Y+6096001D01*
X+254001Y+6170395D01*
X+254001Y+6275605D01*
X+328395Y+6349999D01*
X+433605Y+6349999D01*
X+507999Y+6275605D01*
G37*
G36*
X+507999Y+6529605D02*
X+507999Y+6424395D01*
X+433605Y+6350001D01*
X+328395Y+6350001D01*
X+254001Y+6424395D01*
X+254001Y+6529605D01*
X+328395Y+6603999D01*
X+433605Y+6603999D01*
X+507999Y+6529605D01*
G37*
G36*
X+507999Y+6783605D02*
X+507999Y+6678395D01*
X+433605Y+6604001D01*
X+328395Y+6604001D01*
X+254001Y+6678395D01*
X+254001Y+6783605D01*
X+328395Y+6857999D01*
X+433605Y+6857999D01*
X+507999Y+6783605D01*
G37*
G36*
X+507999Y+7037605D02*
X+507999Y+6932395D01*
X+433605Y+6858001D01*
X+328395Y+6858001D01*
X+254001Y+6932395D01*
X+254001Y+7037605D01*
X+328395Y+7111999D01*
X+433605Y+7111999D01*
X+507999Y+7037605D01*
G37*
G36*
X+507999Y+7291605D02*
X+507999Y+7186395D01*
X+433605Y+7112001D01*
X+328395Y+7112001D01*
X+254001Y+7186395D01*
X+254001Y+7291605D01*
X+328395Y+7365999D01*
X+433605Y+7365999D01*
X+507999Y+7291605D01*
G37*
G36*
X+761999Y+7291605D02*
X+761999Y+7186395D01*
X+687605Y+7112001D01*
X+582395Y+7112001D01*
X+508001Y+7186395D01*
X+508001Y+7291605D01*
X+582395Y+7365999D01*
X+687605Y+7365999D01*
X+761999Y+7291605D01*
G37*
G36*
X+761999Y+7545605D02*
X+761999Y+7440395D01*
X+687605Y+7366001D01*
X+582395Y+7366001D01*
X+508001Y+7440395D01*
X+508001Y+7545605D01*
X+582395Y+7619999D01*
X+687605Y+7619999D01*
X+761999Y+7545605D01*
G37*
%LPD*%
G36*
X+635001Y+4699001D02*
X+866168Y+4699001D01*
X+866168Y+4542693D01*
X+836931Y+4513456D01*
X+836931Y+4444999D01*
X+817881Y+4444999D01*
X+817881Y+4191001D01*
X+977900Y+4191001D01*
X+977900Y+3710842D01*
X+850899Y+3837843D01*
X+850899Y+3846823D01*
X+798823Y+3898899D01*
X+725177Y+3898899D01*
X+673101Y+3846823D01*
X+673101Y+3794759D01*
X+589281Y+3794759D01*
X+589281Y+3400323D01*
X+560605Y+3428999D01*
X+553719Y+3428999D01*
X+553719Y+3794759D01*
X+386079Y+3794759D01*
X+386079Y+3987799D01*
X+357403Y+3987799D01*
X+357405Y+3987801D01*
X+404595Y+3987801D01*
X+455395Y+3937001D01*
X+560605Y+3937001D01*
X+611405Y+3987801D01*
X+635001Y+3987801D01*
X+635001Y+3937001D01*
X+888999Y+3937001D01*
X+888999Y+4190999D01*
X+635001Y+4190999D01*
X+635001Y+4140199D01*
X+611405Y+4140199D01*
X+560605Y+4190999D01*
X+455395Y+4190999D01*
X+404595Y+4140199D01*
X+357405Y+4140199D01*
X+306605Y+4190999D01*
X+201395Y+4190999D01*
X+172719Y+4162323D01*
X+172719Y+4191001D01*
X+198119Y+4191001D01*
X+198119Y+4241801D01*
X+222063Y+4241801D01*
X+309881Y+4329619D01*
X+309881Y+4191001D01*
X+706119Y+4191001D01*
X+706119Y+4444999D01*
X+330199Y+4444999D01*
X+330199Y+4445001D01*
X+513079Y+4445001D01*
X+513079Y+4698999D01*
X+309881Y+4698999D01*
X+309881Y+4648199D01*
X+285937Y+4648199D01*
X+280521Y+4642783D01*
X+280521Y+4674829D01*
X+256349Y+4699001D01*
X+306605Y+4699001D01*
X+357405Y+4749801D01*
X+404595Y+4749801D01*
X+455395Y+4699001D01*
X+560605Y+4699001D01*
X+611405Y+4749801D01*
X+635001Y+4749801D01*
X+635001Y+4699001D01*
G37*
G36*
X+73119Y+4772119D02*
X+95437Y+4749801D01*
X+150595Y+4749801D01*
X+201395Y+4699001D01*
X+215793Y+4699001D01*
X+198119Y+4681327D01*
X+198119Y+4698999D01*
X+38100Y+4698999D01*
X+38100Y+4807138D01*
X+73119Y+4772119D01*
G37*
G36*
X+177801Y+4444999D02*
X+38100Y+4444999D01*
X+38100Y+4445001D01*
X+177801Y+4445001D01*
X+177801Y+4444999D01*
G37*
G36*
X+127001Y+3354605D02*
X+127001Y+3249395D01*
X+150597Y+3225799D01*
X+38100Y+3225799D01*
X+38100Y+3378201D01*
X+150597Y+3378201D01*
X+127001Y+3354605D01*
G37*
G36*
X+150595Y+2616199D02*
X+95437Y+2616199D01*
X+38100Y+2558862D01*
X+38100Y+2616201D01*
X+150597Y+2616201D01*
X+150595Y+2616199D01*
G37*
G36*
X+635001Y+2413001D02*
X+866133Y+2413001D01*
X+866133Y+2412999D01*
X+817881Y+2412999D01*
X+817881Y+2159001D01*
X+977900Y+2159001D01*
X+977900Y+2127225D01*
X+905587Y+2127225D01*
X+853511Y+2075149D01*
X+853511Y+2001503D01*
X+866154Y+1988860D01*
X+866154Y+1904999D01*
X+635001Y+1904999D01*
X+635001Y+1651001D01*
X+866154Y+1651001D01*
X+866154Y+1142999D01*
X+767079Y+1142999D01*
X+767079Y+1508759D01*
X+589281Y+1508759D01*
X+589281Y+1114323D01*
X+560605Y+1142999D01*
X+553719Y+1142999D01*
X+553719Y+1508759D01*
X+386079Y+1508759D01*
X+386079Y+1701799D01*
X+357403Y+1701799D01*
X+380999Y+1725395D01*
X+380999Y+1830605D01*
X+306605Y+1904999D01*
X+201395Y+1904999D01*
X+127001Y+1830605D01*
X+127001Y+1725395D01*
X+150597Y+1701799D01*
X+38100Y+1701799D01*
X+38100Y+1905001D01*
X+198119Y+1905001D01*
X+198119Y+2043619D01*
X+285937Y+1955801D01*
X+309881Y+1955801D01*
X+309881Y+1905001D01*
X+513079Y+1905001D01*
X+513079Y+2158999D01*
X+330199Y+2158999D01*
X+330199Y+2159001D01*
X+706119Y+2159001D01*
X+706119Y+2412999D01*
X+309881Y+2412999D01*
X+309881Y+2274381D01*
X+222063Y+2362199D01*
X+198119Y+2362199D01*
X+198119Y+2412999D01*
X+172719Y+2412999D01*
X+172719Y+2441677D01*
X+201395Y+2413001D01*
X+306605Y+2413001D01*
X+357405Y+2463801D01*
X+404595Y+2463801D01*
X+455395Y+2413001D01*
X+560605Y+2413001D01*
X+611405Y+2463801D01*
X+635001Y+2463801D01*
X+635001Y+2413001D01*
G37*
%LPC*%
G36*
X+381001Y+1725395D02*
X+381001Y+1830605D01*
X+455395Y+1904999D01*
X+560605Y+1904999D01*
X+634999Y+1830605D01*
X+634999Y+1725395D01*
X+560605Y+1651001D01*
X+455395Y+1651001D01*
X+381001Y+1725395D01*
G37*
%LPD*%
G36*
X+177801Y+2158999D02*
X+38100Y+2158999D01*
X+38100Y+2159001D01*
X+177801Y+2159001D01*
X+177801Y+2158999D01*
G37*
G36*
X+150595Y+1092199D02*
X+95437Y+1092199D01*
X+38100Y+1034862D01*
X+38100Y+1092201D01*
X+150597Y+1092201D01*
X+150595Y+1092199D01*
G37*
G36*
X+635001Y+889001D02*
X+837520Y+889001D01*
X+837520Y+888999D01*
X+817881Y+888999D01*
X+817881Y+635001D01*
X+977900Y+635001D01*
X+977900Y+38100D01*
X+38100Y+38100D01*
X+38100Y+381001D01*
X+198119Y+381001D01*
X+198119Y+634999D01*
X+172719Y+634999D01*
X+172719Y+635001D01*
X+198119Y+635001D01*
X+198119Y+888999D01*
X+172719Y+888999D01*
X+172719Y+917677D01*
X+201395Y+889001D01*
X+306605Y+889001D01*
X+357405Y+939801D01*
X+404595Y+939801D01*
X+455395Y+889001D01*
X+560605Y+889001D01*
X+611405Y+939801D01*
X+635001Y+939801D01*
X+635001Y+889001D01*
G37*
%LPC*%
G36*
X+65100Y+138558D02*
X+65100Y+242442D01*
X+138558Y+315900D01*
X+242442Y+315900D01*
X+315900Y+242442D01*
X+315900Y+138558D01*
X+242442Y+65100D01*
X+138558Y+65100D01*
X+65100Y+138558D01*
G37*
G36*
X+309881Y+634999D02*
X+513079Y+634999D01*
X+513079Y+381001D01*
X+309881Y+381001D01*
X+309881Y+634999D01*
G37*
G36*
X+706119Y+635001D02*
X+309881Y+635001D01*
X+309881Y+888999D01*
X+706119Y+888999D01*
X+706119Y+635001D01*
G37*
%LPD*%
D10*
X+762000Y+4826000D02*
X+508000Y+4826000D01*
X+254000Y+4826000D01*
X+508000Y+4064000D02*
X+762000Y+4064000D01*
X+254000Y+4064000D02*
X+508000Y+4064000D01*
X+254000Y+4826000D02*
X+254000Y+5049520D01*
X+444500Y+2540000D02*
X+508000Y+2540000D01*
X+444500Y+2540000D02*
X+254000Y+2540000D01*
X+635000Y+2540000D02*
X+762000Y+2540000D01*
X+508000Y+2540000D02*
X+635000Y+2540000D01*
X+762000Y+1016000D02*
X+762000Y+1016000D01*
X+508000Y+3302000D02*
X+444500Y+3302000D01*
X+254000Y+3302000D01*
X+762000Y+3302000D02*
X+635000Y+3302000D01*
X+508000Y+3302000D02*
X+635000Y+3302000D01*
X+762000Y+1016000D02*
X+614680Y+1016000D01*
X+508000Y+1016000D02*
X+614680Y+1016000D01*
X+297180Y+1206500D02*
X+297180Y+1397000D01*
X+297180Y+1587500D01*
X+297180Y+1397000D02*
X+464820Y+1397000D01*
X+678180Y+1206500D02*
X+678180Y+1397000D01*
X+297180Y+1206500D02*
X+297180Y+1036320D01*
X+317500Y+1016000D01*
X+487680Y+1016000D01*
X+508000Y+1016000D01*
X+317500Y+1016000D02*
X+254000Y+1016000D01*
X+411480Y+762000D02*
X+604520Y+762000D01*
X+96520Y+762000D02*
X+96520Y+508000D01*
X+96520Y+2286000D02*
X+96520Y+2509520D01*
X+127000Y+2540000D01*
X+254000Y+2540000D01*
X+96520Y+762000D02*
X+96520Y+985520D01*
X+127000Y+1016000D01*
X+254000Y+1016000D01*
X+96520Y+2286000D02*
X+190500Y+2286000D01*
X+254000Y+2222500D01*
X+254000Y+2095500D01*
X+317500Y+2032000D01*
X+411480Y+2032000D01*
X+411480Y+2286000D02*
X+604520Y+2286000D01*
X+464820Y+2921000D02*
X+297180Y+2921000D01*
X+297180Y+3111500D02*
X+297180Y+2921000D01*
X+297180Y+2730500D01*
X+297180Y+2583180D01*
X+254000Y+2540000D01*
X+678180Y+3492500D02*
X+678180Y+3683000D01*
X+464820Y+3683000D02*
X+297180Y+3683000D01*
X+297180Y+3873500D02*
X+297180Y+3683000D01*
X+297180Y+3492500D01*
X+297180Y+3345180D01*
X+254000Y+3302000D01*
X+96520Y+4318000D02*
X+96520Y+4039946D01*
X+262966Y+3873500D01*
X+297180Y+3873500D01*
X+96520Y+4318000D02*
X+190500Y+4318000D01*
X+254000Y+4381500D01*
X+254000Y+4508500D01*
X+317500Y+4572000D01*
X+411480Y+4572000D01*
X+96520Y+4572000D02*
X+180937Y+4656417D01*
X+236071Y+4656417D01*
X+411480Y+4318000D02*
X+604520Y+4318000D01*
X+678180Y+2730500D02*
X+678180Y+2921000D01*
X+381000Y+7493000D02*
X+127000Y+7493000D01*
X+63500Y+7429500D01*
X+63500Y+5334000D01*
X+63500Y+4889500D01*
X+127000Y+4826000D01*
X+254000Y+4826000D01*
D11*
X+919480Y+4318000D02*
X+919480Y+4479263D01*
X+948717Y+4508500D01*
X+948717Y+6925283D01*
X+889000Y+6985000D01*
X+635000Y+6985000D01*
X+825500Y+5334000D02*
X+825500Y+5588000D01*
X+825500Y+5651500D01*
X+825500Y+6667500D01*
X+762000Y+6731000D01*
X+635000Y+6731000D01*
D10*
X+508000Y+5049520D02*
X+668020Y+5049520D01*
X+698500Y+5080000D01*
X+698500Y+5461000D01*
X+635000Y+5524500D01*
X+190500Y+5524500D01*
D11*
X+762000Y+3810000D02*
X+948682Y+3623318D01*
X+948682Y+2315202D01*
X+919480Y+2286000D01*
D10*
X+464820Y+2730500D02*
X+508000Y+2730500D01*
X+571500Y+2794000D01*
X+571500Y+3048000D01*
X+635000Y+3111500D01*
X+762000Y+3111500D01*
D11*
X+942410Y+2038326D02*
X+948703Y+2032033D01*
X+948703Y+1939884D01*
X+948703Y+924175D01*
X+920069Y+895541D01*
X+920069Y+762589D01*
X+919480Y+762000D01*
D12*
X+254000Y+5364480D03*
X+83820Y+1206500D03*
X+83820Y+1397000D03*
X+83820Y+1587500D03*
X+83820Y+3111500D03*
X+83820Y+2921000D03*
X+83820Y+2730500D03*
X+83820Y+3492500D03*
X+83820Y+3683000D03*
X+83820Y+3873500D03*
X+96520Y+2032000D03*
X+236071Y+4656417D03*
X+508000Y+5364480D03*
X+825500Y+5334000D03*
X+190500Y+5524500D03*
X+762000Y+3810000D03*
X+762000Y+3111500D03*
X+942410Y+2038326D03*
D10*
X+977900Y+7012842D02*
X+923193Y+7067549D01*
X+732055Y+7067549D01*
X+687605Y+7111999D01*
X+582395Y+7111999D01*
X+508001Y+7037605D01*
X+508001Y+6932395D01*
X+582395Y+6858001D01*
X+687605Y+6858001D01*
X+732055Y+6902451D01*
X+854807Y+6902451D01*
X+866168Y+6891090D01*
X+866168Y+6743574D01*
X+796193Y+6813549D01*
X+732055Y+6813549D01*
X+687605Y+6857999D01*
X+582395Y+6857999D01*
X+508001Y+6783605D01*
X+508001Y+6678395D01*
X+582395Y+6604001D01*
X+687605Y+6604001D01*
X+729931Y+6646327D01*
X+742951Y+6633307D01*
X+742951Y+6548653D01*
X+687605Y+6603999D01*
X+582395Y+6603999D01*
X+508001Y+6529605D01*
X+508001Y+6424395D01*
X+582395Y+6350001D01*
X+687605Y+6350001D01*
X+742951Y+6405347D01*
X+742951Y+6294653D01*
X+687605Y+6349999D01*
X+582395Y+6349999D01*
X+508001Y+6275605D01*
X+508001Y+6170395D01*
X+582395Y+6096001D01*
X+687605Y+6096001D01*
X+742951Y+6151347D01*
X+742951Y+6040653D01*
X+687605Y+6095999D01*
X+582395Y+6095999D01*
X+508001Y+6021605D01*
X+508001Y+5916395D01*
X+582395Y+5842001D01*
X+687605Y+5842001D01*
X+742951Y+5897347D01*
X+742951Y+5786653D01*
X+687605Y+5841999D01*
X+582395Y+5841999D01*
X+508001Y+5767605D01*
X+508001Y+5662395D01*
X+569697Y+5600699D01*
X+446303Y+5600699D01*
X+507999Y+5662395D01*
X+507999Y+5767605D01*
X+433605Y+5841999D01*
X+328395Y+5841999D01*
X+254001Y+5767605D01*
X+254001Y+5662395D01*
X+315697Y+5600699D01*
X+240023Y+5600699D01*
X+227323Y+5613399D01*
X+153677Y+5613399D01*
X+139699Y+5599421D01*
X+139699Y+7397937D01*
X+158563Y+7416801D01*
X+277595Y+7416801D01*
X+328395Y+7366001D01*
X+433605Y+7366001D01*
X+507999Y+7440395D01*
X+507999Y+7545605D01*
X+433605Y+7619999D01*
X+328395Y+7619999D01*
X+277595Y+7569199D01*
X+95437Y+7569199D01*
X+38100Y+7511862D01*
X+38100Y+9867900D01*
X+977900Y+9867900D01*
X+977900Y+7012842D01*
X+65100Y+9663558D02*
X+65100Y+9767442D01*
X+138558Y+9840900D01*
X+242442Y+9840900D01*
X+315900Y+9767442D01*
X+315900Y+9663558D01*
X+242442Y+9590100D01*
X+138558Y+9590100D01*
X+65100Y+9663558D01*
X+507999Y+8180605D02*
X+507999Y+8075395D01*
X+433605Y+8001001D01*
X+328395Y+8001001D01*
X+254001Y+8075395D01*
X+254001Y+8180605D01*
X+328395Y+8254999D01*
X+433605Y+8254999D01*
X+507999Y+8180605D01*
X+761999Y+8180605D02*
X+761999Y+8075395D01*
X+687605Y+8001001D01*
X+582395Y+8001001D01*
X+508001Y+8075395D01*
X+508001Y+8180605D01*
X+582395Y+8254999D01*
X+687605Y+8254999D01*
X+761999Y+8180605D01*
X+507999Y+8434605D02*
X+507999Y+8329395D01*
X+433605Y+8255001D01*
X+328395Y+8255001D01*
X+254001Y+8329395D01*
X+254001Y+8434605D01*
X+328395Y+8508999D01*
X+433605Y+8508999D01*
X+507999Y+8434605D01*
X+761999Y+8434605D02*
X+761999Y+8329395D01*
X+687605Y+8255001D01*
X+582395Y+8255001D01*
X+508001Y+8329395D01*
X+508001Y+8434605D01*
X+582395Y+8508999D01*
X+687605Y+8508999D01*
X+761999Y+8434605D01*
X+507999Y+8688605D02*
X+507999Y+8583395D01*
X+433605Y+8509001D01*
X+328395Y+8509001D01*
X+254001Y+8583395D01*
X+254001Y+8688605D01*
X+328395Y+8762999D01*
X+433605Y+8762999D01*
X+507999Y+8688605D01*
X+761999Y+8688605D02*
X+761999Y+8583395D01*
X+687605Y+8509001D01*
X+582395Y+8509001D01*
X+508001Y+8583395D01*
X+508001Y+8688605D01*
X+582395Y+8762999D01*
X+687605Y+8762999D01*
X+761999Y+8688605D01*
X+507999Y+8942605D02*
X+507999Y+8837395D01*
X+433605Y+8763001D01*
X+328395Y+8763001D01*
X+254001Y+8837395D01*
X+254001Y+8942605D01*
X+328395Y+9016999D01*
X+433605Y+9016999D01*
X+507999Y+8942605D01*
X+761999Y+8942605D02*
X+761999Y+8837395D01*
X+687605Y+8763001D01*
X+582395Y+8763001D01*
X+508001Y+8837395D01*
X+508001Y+8942605D01*
X+582395Y+9016999D01*
X+687605Y+9016999D01*
X+761999Y+8942605D01*
X+507999Y+9196605D02*
X+507999Y+9091395D01*
X+433605Y+9017001D01*
X+328395Y+9017001D01*
X+254001Y+9091395D01*
X+254001Y+9196605D01*
X+328395Y+9270999D01*
X+433605Y+9270999D01*
X+507999Y+9196605D01*
X+761999Y+9196605D02*
X+761999Y+9091395D01*
X+687605Y+9017001D01*
X+582395Y+9017001D01*
X+508001Y+9091395D01*
X+508001Y+9196605D01*
X+582395Y+9270999D01*
X+687605Y+9270999D01*
X+761999Y+9196605D01*
X+507999Y+6021605D02*
X+507999Y+5916395D01*
X+433605Y+5842001D01*
X+328395Y+5842001D01*
X+254001Y+5916395D01*
X+254001Y+6021605D01*
X+328395Y+6095999D01*
X+433605Y+6095999D01*
X+507999Y+6021605D01*
X+507999Y+6275605D02*
X+507999Y+6170395D01*
X+433605Y+6096001D01*
X+328395Y+6096001D01*
X+254001Y+6170395D01*
X+254001Y+6275605D01*
X+328395Y+6349999D01*
X+433605Y+6349999D01*
X+507999Y+6275605D01*
X+507999Y+6529605D02*
X+507999Y+6424395D01*
X+433605Y+6350001D01*
X+328395Y+6350001D01*
X+254001Y+6424395D01*
X+254001Y+6529605D01*
X+328395Y+6603999D01*
X+433605Y+6603999D01*
X+507999Y+6529605D01*
X+507999Y+6783605D02*
X+507999Y+6678395D01*
X+433605Y+6604001D01*
X+328395Y+6604001D01*
X+254001Y+6678395D01*
X+254001Y+6783605D01*
X+328395Y+6857999D01*
X+433605Y+6857999D01*
X+507999Y+6783605D01*
X+507999Y+7037605D02*
X+507999Y+6932395D01*
X+433605Y+6858001D01*
X+328395Y+6858001D01*
X+254001Y+6932395D01*
X+254001Y+7037605D01*
X+328395Y+7111999D01*
X+433605Y+7111999D01*
X+507999Y+7037605D01*
X+507999Y+7291605D02*
X+507999Y+7186395D01*
X+433605Y+7112001D01*
X+328395Y+7112001D01*
X+254001Y+7186395D01*
X+254001Y+7291605D01*
X+328395Y+7365999D01*
X+433605Y+7365999D01*
X+507999Y+7291605D01*
X+761999Y+7291605D02*
X+761999Y+7186395D01*
X+687605Y+7112001D01*
X+582395Y+7112001D01*
X+508001Y+7186395D01*
X+508001Y+7291605D01*
X+582395Y+7365999D01*
X+687605Y+7365999D01*
X+761999Y+7291605D01*
X+761999Y+7545605D02*
X+761999Y+7440395D01*
X+687605Y+7366001D01*
X+582395Y+7366001D01*
X+508001Y+7440395D01*
X+508001Y+7545605D01*
X+582395Y+7619999D01*
X+687605Y+7619999D01*
X+761999Y+7545605D01*
X+635001Y+4699001D02*
X+866168Y+4699001D01*
X+866168Y+4542693D01*
X+836931Y+4513456D01*
X+836931Y+4444999D01*
X+817881Y+4444999D01*
X+817881Y+4191001D01*
X+977900Y+4191001D01*
X+977900Y+3710842D01*
X+850899Y+3837843D01*
X+850899Y+3846823D01*
X+798823Y+3898899D01*
X+725177Y+3898899D01*
X+673101Y+3846823D01*
X+673101Y+3794759D01*
X+589281Y+3794759D01*
X+589281Y+3400323D01*
X+560605Y+3428999D01*
X+553719Y+3428999D01*
X+553719Y+3794759D01*
X+386079Y+3794759D01*
X+386079Y+3987799D01*
X+357403Y+3987799D01*
X+357405Y+3987801D01*
X+404595Y+3987801D01*
X+455395Y+3937001D01*
X+560605Y+3937001D01*
X+611405Y+3987801D01*
X+635001Y+3987801D01*
X+635001Y+3937001D01*
X+888999Y+3937001D01*
X+888999Y+4190999D01*
X+635001Y+4190999D01*
X+635001Y+4140199D01*
X+611405Y+4140199D01*
X+560605Y+4190999D01*
X+455395Y+4190999D01*
X+404595Y+4140199D01*
X+357405Y+4140199D01*
X+306605Y+4190999D01*
X+201395Y+4190999D01*
X+172719Y+4162323D01*
X+172719Y+4191001D01*
X+198119Y+4191001D01*
X+198119Y+4241801D01*
X+222063Y+4241801D01*
X+309881Y+4329619D01*
X+309881Y+4191001D01*
X+706119Y+4191001D01*
X+706119Y+4444999D01*
X+330199Y+4444999D01*
X+330199Y+4445001D01*
X+513079Y+4445001D01*
X+513079Y+4698999D01*
X+309881Y+4698999D01*
X+309881Y+4648199D01*
X+285937Y+4648199D01*
X+280521Y+4642783D01*
X+280521Y+4674829D01*
X+256349Y+4699001D01*
X+306605Y+4699001D01*
X+357405Y+4749801D01*
X+404595Y+4749801D01*
X+455395Y+4699001D01*
X+560605Y+4699001D01*
X+611405Y+4749801D01*
X+635001Y+4749801D01*
X+635001Y+4699001D01*
X+73119Y+4772119D02*
X+95437Y+4749801D01*
X+150595Y+4749801D01*
X+201395Y+4699001D01*
X+215793Y+4699001D01*
X+198119Y+4681327D01*
X+198119Y+4698999D01*
X+38100Y+4698999D01*
X+38100Y+4807138D01*
X+73119Y+4772119D01*
X+177801Y+4444999D02*
X+38100Y+4444999D01*
X+38100Y+4445001D01*
X+177801Y+4445001D01*
X+177801Y+4444999D01*
X+127001Y+3354605D02*
X+127001Y+3249395D01*
X+150597Y+3225799D01*
X+38100Y+3225799D01*
X+38100Y+3378201D01*
X+150597Y+3378201D01*
X+127001Y+3354605D01*
X+150595Y+2616199D02*
X+95437Y+2616199D01*
X+38100Y+2558862D01*
X+38100Y+2616201D01*
X+150597Y+2616201D01*
X+150595Y+2616199D01*
X+635001Y+2413001D02*
X+866133Y+2413001D01*
X+866133Y+2412999D01*
X+817881Y+2412999D01*
X+817881Y+2159001D01*
X+977900Y+2159001D01*
X+977900Y+2127225D01*
X+905587Y+2127225D01*
X+853511Y+2075149D01*
X+853511Y+2001503D01*
X+866154Y+1988860D01*
X+866154Y+1904999D01*
X+635001Y+1904999D01*
X+635001Y+1651001D01*
X+866154Y+1651001D01*
X+866154Y+1142999D01*
X+767079Y+1142999D01*
X+767079Y+1508759D01*
X+589281Y+1508759D01*
X+589281Y+1114323D01*
X+560605Y+1142999D01*
X+553719Y+1142999D01*
X+553719Y+1508759D01*
X+386079Y+1508759D01*
X+386079Y+1701799D01*
X+357403Y+1701799D01*
X+380999Y+1725395D01*
X+380999Y+1830605D01*
X+306605Y+1904999D01*
X+201395Y+1904999D01*
X+127001Y+1830605D01*
X+127001Y+1725395D01*
X+150597Y+1701799D01*
X+38100Y+1701799D01*
X+38100Y+1905001D01*
X+198119Y+1905001D01*
X+198119Y+2043619D01*
X+285937Y+1955801D01*
X+309881Y+1955801D01*
X+309881Y+1905001D01*
X+513079Y+1905001D01*
X+513079Y+2158999D01*
X+330199Y+2158999D01*
X+330199Y+2159001D01*
X+706119Y+2159001D01*
X+706119Y+2412999D01*
X+309881Y+2412999D01*
X+309881Y+2274381D01*
X+222063Y+2362199D01*
X+198119Y+2362199D01*
X+198119Y+2412999D01*
X+172719Y+2412999D01*
X+172719Y+2441677D01*
X+201395Y+2413001D01*
X+306605Y+2413001D01*
X+357405Y+2463801D01*
X+404595Y+2463801D01*
X+455395Y+2413001D01*
X+560605Y+2413001D01*
X+611405Y+2463801D01*
X+635001Y+2463801D01*
X+635001Y+2413001D01*
X+381001Y+1725395D02*
X+381001Y+1830605D01*
X+455395Y+1904999D01*
X+560605Y+1904999D01*
X+634999Y+1830605D01*
X+634999Y+1725395D01*
X+560605Y+1651001D01*
X+455395Y+1651001D01*
X+381001Y+1725395D01*
X+177801Y+2158999D02*
X+38100Y+2158999D01*
X+38100Y+2159001D01*
X+177801Y+2159001D01*
X+177801Y+2158999D01*
X+150595Y+1092199D02*
X+95437Y+1092199D01*
X+38100Y+1034862D01*
X+38100Y+1092201D01*
X+150597Y+1092201D01*
X+150595Y+1092199D01*
X+635001Y+889001D02*
X+837520Y+889001D01*
X+837520Y+888999D01*
X+817881Y+888999D01*
X+817881Y+635001D01*
X+977900Y+635001D01*
X+977900Y+38100D01*
X+38100Y+38100D01*
X+38100Y+381001D01*
X+198119Y+381001D01*
X+198119Y+634999D01*
X+172719Y+634999D01*
X+172719Y+635001D01*
X+198119Y+635001D01*
X+198119Y+888999D01*
X+172719Y+888999D01*
X+172719Y+917677D01*
X+201395Y+889001D01*
X+306605Y+889001D01*
X+357405Y+939801D01*
X+404595Y+939801D01*
X+455395Y+889001D01*
X+560605Y+889001D01*
X+611405Y+939801D01*
X+635001Y+939801D01*
X+635001Y+889001D01*
X+65100Y+138558D02*
X+65100Y+242442D01*
X+138558Y+315900D01*
X+242442Y+315900D01*
X+315900Y+242442D01*
X+315900Y+138558D01*
X+242442Y+65100D01*
X+138558Y+65100D01*
X+65100Y+138558D01*
X+309881Y+634999D02*
X+513079Y+634999D01*
X+513079Y+381001D01*
X+309881Y+381001D01*
X+309881Y+634999D01*
X+706119Y+635001D02*
X+309881Y+635001D01*
X+309881Y+888999D01*
X+706119Y+888999D01*
X+706119Y+635001D01*
D13*
X+507999Y+8382000D02*
X+381000Y+8382000D01*
X+254001Y+8382000D02*
X+381000Y+8382000D01*
X+381000Y+8508999D02*
X+381000Y+8382000D01*
X+381000Y+8255001D02*
X+381000Y+8382000D01*
X+761999Y+8382000D02*
X+635000Y+8382000D01*
X+508001Y+8382000D02*
X+635000Y+8382000D01*
X+635000Y+8508999D02*
X+635000Y+8382000D01*
X+635000Y+8255001D02*
X+635000Y+8382000D01*
X+507999Y+8636000D02*
X+381000Y+8636000D01*
X+254001Y+8636000D02*
X+381000Y+8636000D01*
X+381000Y+8762999D02*
X+381000Y+8636000D01*
X+381000Y+8509001D02*
X+381000Y+8636000D01*
X+761999Y+8636000D02*
X+635000Y+8636000D01*
X+508001Y+8636000D02*
X+635000Y+8636000D01*
X+635000Y+8762999D02*
X+635000Y+8636000D01*
X+635000Y+8509001D02*
X+635000Y+8636000D01*
X+507999Y+8890000D02*
X+381000Y+8890000D01*
X+254001Y+8890000D02*
X+381000Y+8890000D01*
X+381000Y+9016999D02*
X+381000Y+8890000D01*
X+381000Y+8763001D02*
X+381000Y+8890000D01*
X+761999Y+8890000D02*
X+635000Y+8890000D01*
X+508001Y+8890000D02*
X+635000Y+8890000D01*
X+635000Y+9016999D02*
X+635000Y+8890000D01*
X+635000Y+8763001D02*
X+635000Y+8890000D01*
X+507999Y+5969000D02*
X+381000Y+5969000D01*
X+254001Y+5969000D02*
X+381000Y+5969000D01*
X+381000Y+6095999D02*
X+381000Y+5969000D01*
X+381000Y+5842001D02*
X+381000Y+5969000D01*
X+508001Y+5969000D02*
X+635000Y+5969000D01*
X+635000Y+6095999D02*
X+635000Y+5969000D01*
X+635000Y+5842001D02*
X+635000Y+5969000D01*
X+507999Y+6223000D02*
X+381000Y+6223000D01*
X+254001Y+6223000D02*
X+381000Y+6223000D01*
X+381000Y+6349999D02*
X+381000Y+6223000D01*
X+381000Y+6096001D02*
X+381000Y+6223000D01*
X+508001Y+6223000D02*
X+635000Y+6223000D01*
X+635000Y+6349999D02*
X+635000Y+6223000D01*
X+635000Y+6096001D02*
X+635000Y+6223000D01*
X+507999Y+6477000D02*
X+381000Y+6477000D01*
X+254001Y+6477000D02*
X+381000Y+6477000D01*
X+381000Y+6603999D02*
X+381000Y+6477000D01*
X+381000Y+6350001D02*
X+381000Y+6477000D01*
X+508001Y+6477000D02*
X+635000Y+6477000D01*
X+635000Y+6603999D02*
X+635000Y+6477000D01*
X+635000Y+6350001D02*
X+635000Y+6477000D01*
X+635001Y+1778000D02*
X+762000Y+1778000D01*
X+762000Y+1651001D02*
X+762000Y+1778000D01*
X+762000Y+1904999D02*
X+762000Y+1778000D01*
X+381001Y+1778000D02*
X+508000Y+1778000D01*
X+634999Y+1778000D02*
X+508000Y+1778000D01*
X+508000Y+1651001D02*
X+508000Y+1778000D01*
X+508000Y+1904999D02*
X+508000Y+1778000D01*
X+127001Y+1778000D02*
X+254000Y+1778000D01*
X+380999Y+1778000D02*
X+254000Y+1778000D01*
X+254000Y+1904999D02*
X+254000Y+1778000D01*
X+83820Y+3378201D02*
X+83820Y+3492500D01*
X+83820Y+2616201D02*
X+83820Y+2730500D01*
X+83820Y+3225799D02*
X+83820Y+3111500D01*
X+83820Y+1092201D02*
X+83820Y+1206500D01*
X+83820Y+1701799D02*
X+83820Y+1587500D01*
X+96520Y+4445001D02*
X+96520Y+4572000D01*
X+96520Y+4698999D02*
X+96520Y+4572000D01*
X+198119Y+2032000D02*
X+96520Y+2032000D01*
X+96520Y+1905001D02*
X+96520Y+2032000D01*
X+96520Y+2158999D02*
X+96520Y+2032000D01*
X+309881Y+508000D02*
X+411480Y+508000D01*
X+513079Y+508000D02*
X+411480Y+508000D01*
X+411480Y+381001D02*
X+411480Y+508000D01*
X+411480Y+634999D02*
X+411480Y+508000D01*
X+553719Y+1206500D02*
X+464820Y+1206500D01*
X+553719Y+3492500D02*
X+464820Y+3492500D01*
D14*
X+190500Y+9715500D03*
X+190500Y+190500D03*
D15*
X+381000Y+8128000D03*
X+635000Y+8128000D03*
X+381000Y+8382000D03*
X+635000Y+8382000D03*
X+381000Y+8636000D03*
X+635000Y+8636000D03*
X+381000Y+8890000D03*
X+635000Y+8890000D03*
X+381000Y+9144000D03*
X+635000Y+9144000D03*
X+381000Y+5715000D03*
X+635000Y+5715000D03*
X+381000Y+5969000D03*
X+635000Y+5969000D03*
X+381000Y+6223000D03*
X+635000Y+6223000D03*
X+381000Y+6477000D03*
X+635000Y+6477000D03*
X+381000Y+6731000D03*
X+635000Y+6731000D03*
X+381000Y+6985000D03*
X+635000Y+6985000D03*
X+381000Y+7239000D03*
X+635000Y+7239000D03*
X+381000Y+7493000D03*
X+635000Y+7493000D03*
D16*
X+762000Y+4826000D03*
D15*
X+508000Y+4826000D03*
X+254000Y+4826000D03*
D16*
X+762000Y+4064000D03*
D15*
X+508000Y+4064000D03*
X+254000Y+4064000D03*
D16*
X+762000Y+3302000D03*
D15*
X+508000Y+3302000D03*
X+254000Y+3302000D03*
D16*
X+762000Y+2540000D03*
D15*
X+508000Y+2540000D03*
X+254000Y+2540000D03*
D16*
X+762000Y+1778000D03*
D15*
X+508000Y+1778000D03*
X+254000Y+1778000D03*
D16*
X+762000Y+1016000D03*
D15*
X+508000Y+1016000D03*
X+254000Y+1016000D03*
D17*
X+297180Y+3492500D03*
X+83820Y+3492500D03*
X+297180Y+3683000D03*
X+83820Y+3683000D03*
X+297180Y+3873500D03*
X+83820Y+3873500D03*
X+297180Y+2730500D03*
X+83820Y+2730500D03*
X+297180Y+2921000D03*
X+83820Y+2921000D03*
X+297180Y+3111500D03*
X+83820Y+3111500D03*
X+297180Y+1206500D03*
X+83820Y+1206500D03*
X+297180Y+1397000D03*
X+83820Y+1397000D03*
X+297180Y+1587500D03*
X+83820Y+1587500D03*
D18*
X+254000Y+5364480D03*
X+254000Y+5049520D03*
X+508000Y+5364480D03*
X+508000Y+5049520D03*
D19*
X+96520Y+4572000D03*
X+411480Y+4572000D03*
X+96520Y+2032000D03*
X+411480Y+2032000D03*
X+96520Y+508000D03*
X+411480Y+508000D03*
X+96520Y+4318000D03*
X+411480Y+4318000D03*
X+96520Y+2286000D03*
X+411480Y+2286000D03*
X+96520Y+762000D03*
X+411480Y+762000D03*
X+604520Y+4318000D03*
X+919480Y+4318000D03*
X+604520Y+2286000D03*
X+919480Y+2286000D03*
X+604520Y+762000D03*
X+919480Y+762000D03*
D70*
X+678180Y+2730500D03*
X+464820Y+2730500D03*
D71*
X+464820Y+3683000D03*
X+678180Y+3683000D03*
X+464820Y+2921000D03*
X+678180Y+2921000D03*
X+464820Y+1397000D03*
X+678180Y+1397000D03*
D70*
X+678180Y+1206500D03*
X+464820Y+1206500D03*
X+678180Y+3492500D03*
X+464820Y+3492500D03*
D20*
X+0Y+0D02*
X+1016000Y+0D01*
X+1016000Y+9906000D01*
X+0Y+9906000D01*
X+0Y+0D01*
M02*
