G04 PROTEUS GERBER X2 FILE*
%TF.GenerationSoftware,Labcenter,Proteus,8.5-SP0-Build22067*%
%TF.CreationDate,2018-01-08T19:16:07+00:00*%
%TF.FileFunction,AssemblyDrawing,Bot*%
%TF.FilePolarity,Positive*%
%TF.Part,Single*%
%FSLAX45Y45*%
%MOMM*%
G01*
%TA.AperFunction,Profile*%
%ADD20C,0.203200*%
%ADD39C,0.469390*%
%TA.AperFunction,Material*%
%ADD21C,0.203200*%
%ADD40C,0.469390*%
%ADD41C,0.164590*%
D20*
X+0Y+0D02*
X+1016000Y+0D01*
X+1016000Y+9906000D01*
X+0Y+9906000D01*
X+0Y+0D01*
X+116840Y+7863840D02*
X+899160Y+7863840D01*
X+899160Y+9408160D01*
X+116840Y+9408160D01*
X+116840Y+7863840D01*
D39*
X+554940Y+9011513D02*
X+601879Y+9011513D01*
X+648818Y+8964574D01*
X+648818Y+8776818D01*
X+601879Y+8729879D01*
X+367183Y+8729879D01*
X+508000Y+8542122D02*
X+461061Y+8589061D01*
X+414122Y+8589061D01*
X+367183Y+8542122D01*
X+367183Y+8401305D01*
X+414122Y+8354366D01*
X+461061Y+8354366D01*
X+508000Y+8401305D01*
X+508000Y+8542122D01*
X+554940Y+8589061D01*
X+601879Y+8589061D01*
X+648818Y+8542122D01*
X+648818Y+8401305D01*
X+601879Y+8354366D01*
X+554940Y+8354366D01*
X+508000Y+8401305D01*
D21*
X+116840Y+5450840D02*
X+899160Y+5450840D01*
X+899160Y+7757160D01*
X+116840Y+7757160D01*
X+116840Y+5450840D01*
D40*
X+554940Y+6979513D02*
X+601879Y+6979513D01*
X+648818Y+6932574D01*
X+648818Y+6744818D01*
X+601879Y+6697879D01*
X+367183Y+6697879D01*
X+367183Y+6557061D02*
X+367183Y+6322366D01*
X+414122Y+6322366D01*
X+648818Y+6557061D01*
D21*
X+116840Y+4688840D02*
X+899160Y+4688840D01*
X+899160Y+4963160D01*
X+116840Y+4963160D01*
X+116840Y+4688840D01*
D41*
X+639673Y+4809540D02*
X+639673Y+4793081D01*
X+623214Y+4776622D01*
X+557378Y+4776622D01*
X+540919Y+4793081D01*
X+540919Y+4875377D01*
X+475082Y+4842459D02*
X+442164Y+4875377D01*
X+442164Y+4776622D01*
D21*
X+116840Y+3926840D02*
X+899160Y+3926840D01*
X+899160Y+4201160D01*
X+116840Y+4201160D01*
X+116840Y+3926840D01*
D41*
X+639673Y+4047540D02*
X+639673Y+4031081D01*
X+623214Y+4014622D01*
X+557378Y+4014622D01*
X+540919Y+4031081D01*
X+540919Y+4113377D01*
X+491541Y+4096918D02*
X+475082Y+4113377D01*
X+425705Y+4113377D01*
X+409246Y+4096918D01*
X+409246Y+4080459D01*
X+425705Y+4064000D01*
X+475082Y+4064000D01*
X+491541Y+4047540D01*
X+491541Y+4014622D01*
X+409246Y+4014622D01*
D21*
X+116840Y+3164840D02*
X+899160Y+3164840D01*
X+899160Y+3439160D01*
X+116840Y+3439160D01*
X+116840Y+3164840D01*
D41*
X+639673Y+3285540D02*
X+639673Y+3269081D01*
X+623214Y+3252622D01*
X+557378Y+3252622D01*
X+540919Y+3269081D01*
X+540919Y+3351377D01*
X+491541Y+3334918D02*
X+475082Y+3351377D01*
X+425705Y+3351377D01*
X+409246Y+3334918D01*
X+409246Y+3318459D01*
X+425705Y+3302000D01*
X+409246Y+3285540D01*
X+409246Y+3269081D01*
X+425705Y+3252622D01*
X+475082Y+3252622D01*
X+491541Y+3269081D01*
X+458623Y+3302000D02*
X+425705Y+3302000D01*
D21*
X+116840Y+2402840D02*
X+899160Y+2402840D01*
X+899160Y+2677160D01*
X+116840Y+2677160D01*
X+116840Y+2402840D01*
D41*
X+639673Y+2523540D02*
X+639673Y+2507081D01*
X+623214Y+2490622D01*
X+557378Y+2490622D01*
X+540919Y+2507081D01*
X+540919Y+2589377D01*
X+409246Y+2523540D02*
X+508000Y+2523540D01*
X+442164Y+2589377D01*
X+442164Y+2490622D01*
D21*
X+116840Y+1640840D02*
X+899160Y+1640840D01*
X+899160Y+1915160D01*
X+116840Y+1915160D01*
X+116840Y+1640840D01*
D41*
X+639673Y+1761540D02*
X+639673Y+1745081D01*
X+623214Y+1728622D01*
X+557378Y+1728622D01*
X+540919Y+1745081D01*
X+540919Y+1827377D01*
X+409246Y+1827377D02*
X+491541Y+1827377D01*
X+491541Y+1794459D01*
X+425705Y+1794459D01*
X+409246Y+1778000D01*
X+409246Y+1745081D01*
X+425705Y+1728622D01*
X+475082Y+1728622D01*
X+491541Y+1745081D01*
D21*
X+116840Y+878840D02*
X+899160Y+878840D01*
X+899160Y+1153160D01*
X+116840Y+1153160D01*
X+116840Y+878840D01*
D41*
X+639673Y+999540D02*
X+639673Y+983081D01*
X+623214Y+966622D01*
X+557378Y+966622D01*
X+540919Y+983081D01*
X+540919Y+1065377D01*
X+409246Y+1048918D02*
X+425705Y+1065377D01*
X+475082Y+1065377D01*
X+491541Y+1048918D01*
X+491541Y+983081D01*
X+475082Y+966622D01*
X+425705Y+966622D01*
X+409246Y+983081D01*
X+409246Y+999540D01*
X+425705Y+1016000D01*
X+491541Y+1016000D01*
M02*
